<?xml version="1.0" encoding="UTF-8"?><svg xmlns="http://www.w3.org/2000/svg" viewBox="0 0 493.26 305.26"><defs><style>.d,.e,.f,.g{stroke-width:.42px;}.d,.e,.f,.g,.h{stroke-miterlimit:10;}.d,.e,.h{fill:none;}.d,.g,.h{stroke:#eddfd6;}.e,.f{stroke:#1d1d1b;}.i,.f{fill:#eddfd6;}.j,.k,.g{fill:#1d1d1b;}.k{opacity:.19;}</style></defs><g id="a"/><g id="b"><g id="c"><rect class="g" x=".21" y=".21" width="492.84" height="298.63"/><g><g><rect class="i" x="170.58" y="65.63" width="15.27" height="184.58"/><rect class="i" x="233.51" y="2.7" width="15.27" height="141.14" transform="translate(314.41 -167.88) rotate(90)"/><rect class="i" x="296.44" y="65.63" width="15.27" height="184.58"/></g><line class="h" x1="241.78" y1="88.37" x2="241.78" y2="250.21"/><rect class="h" x="192.3" y="88.37" width="97.72" height="161.83"/><rect class="i" x="204.82" y="48.85" width="71.53" height="6.46"/></g><rect class="i" x="140.64" y="153.41" width="14.02" height="24.04"/><polyline class="e" points="178.21 250.21 178.21 73.26 304.08 73.26 304.08 250.21"/><g><circle class="j" cx="147.65" cy="160.02" r="3.39"/><circle class="e" cx="147.65" cy="170.83" r="3.39"/></g><path class="i" d="M358.3,219.74h35.57v12.68c0,9.82-7.97,17.78-17.78,17.78h0c-9.82,0-17.78-7.97-17.78-17.78v-12.68h0Z"/><g><rect class="i" x="358.08" y="213.86" width="35.99" height="6.09"/><path class="j" d="M393.86,214.08v5.66h-35.57v-5.66h35.57m.42-.42h-36.41v6.51h36.41v-6.51h0Z"/></g><g><rect class="i" x="362.05" y="247.45" width="28.07" height="2.96"/><path class="j" d="M389.9,247.67v2.54h-27.64v-2.54h27.64m.42-.42h-28.49v3.39h28.49v-3.39h0Z"/></g><polygon class="i" points="241.84 33.24 238.23 44.15 245.34 44.15 241.84 33.24"/><path class="i" d="M371.38,214.08l1-36.21c0-4.17,.41-8.33,1.21-12.39l.64-3.2,.64,3.25c.8,4.04,1.2,8.19,1.2,12.34l1,36.2"/><path class="i" d="M378.35,214.08l1.32-47.83c0-5.51,.54-11.01,1.6-16.36l.84-4.22,.85,4.3c1.06,5.34,1.59,10.81,1.59,16.31l1.32,47.82"/><path class="i" d="M362.26,214.08l1.32-40.83c0-5.51,.54-11.01,1.6-16.36l.84-4.22,.85,4.3c1.06,5.34,1.59,10.81,1.59,16.31l1.32,40.82"/><path class="i" d="M383.83,214.48l1.32-14.83c0-5.51,.54-11.01,1.6-16.36l.84-4.22,.85,4.3c1.06,5.34,2.15,10.58,2.15,16.07l.76,15.05"/><line class="e" x1="374.23" y1="170.94" x2="374.23" y2="186.1"/><line class="e" x1="382.11" y1="145.66" x2="382.11" y2="160.81"/><line class="e" x1="366.02" y1="152.04" x2="366.02" y2="185.14"/><line class="e" x1="373.22" y1="198.92" x2="373.22" y2="214.08"/><line class="e" x1="375.3" y1="198.92" x2="375.3" y2="214.08"/><line class="e" x1="382.11" y1="191.88" x2="382.11" y2="214.08"/><line class="e" x1="384.19" y1="191.88" x2="384.19" y2="214.08"/><line class="e" x1="380.04" y1="191.88" x2="380.04" y2="214.08"/><line class="e" x1="393.86" y1="214.28" x2="358.2" y2="214.28"/><line class="e" x1="387.59" y1="176.67" x2="387.59" y2="214.08"/><line class="e" x1="389.66" y1="176.67" x2="389.66" y2="214.08"/><line class="e" x1="385.52" y1="176.67" x2="385.52" y2="214.08"/><line class="e" x1="366.02" y1="181.48" x2="366.02" y2="214.08"/><line class="e" x1="367.57" y1="181.48" x2="367.57" y2="214.08"/><line class="e" x1="364.52" y1="181.48" x2="364.52" y2="214.08"/><rect class="i" x="349.33" y="85.55" width="73.09" height="37.49"/><rect class="f" x="355.35" y="88.64" width="61.05" height="31.32"/><rect class="f" x="357.37" y="90.33" width="57.02" height="27.6"/><polyline class="d" points="378.83 86.28 385.34 79.77 392.28 86.72"/><rect class="g" x="359.39" y="92.15" width="52.82" height="23.66"/><path class="k" d="M170.01,246.63s273.43-20.92,69.02-54c-71.46-11.56-74.46-36.74-71.76-53.84,6.25-39.62,87.85-51.43,56.48-58.34-31.38-6.91-55.24-14.27-54.93-15.21s77.13,1.44,77.13,1.44l78.26,12.33,6.61,157.71s-67.28,37.51-68.52,36.84-5.98-36.69-5.98-36.69l-86.31,9.77Z"/><path class="k" d="M359.14,294.24s111.89-8.56,28.24-22.1c-29.24-4.73-30.47-15.03-29.36-22.03,2.56-16.21,35.95-21.04,23.11-23.87-12.84-2.83-22.6-5.84-22.48-6.22s36.31-.09,36.31-.09l27.27,5.72,2.7,64.53s-27.53,15.35-28.04,15.07-2.45-15.02-2.45-15.02l-35.32,4Z"/><path class="k" d="M221.14,46.64s22.09-18.58,17-2.53-9.38,22.57-.48,16.89,22.9-26.3,25.36-18.38c2.47,7.92-13.96,14.01-2.58,13.87,11.38-.13,7.96-10.57,15.11-13.42s4.95,11.98,3.58,15.45,10.68-13.64,9.54-17.69,2.34-4.62-4.8-4.08,3.64,6.12-8.69,1.94,1.02-11.63-12.33-4.18-15.66,4.22-16.23,3.45-2.22-6.72-9.17-5.23-16.33,13.91-16.33,13.91Z"/><path class="k" d="M451.53,191.88s-48.54,60.94-87.95-18.63c-8.23-16.61-49.24-42.71-46.54-59.81,6.25-39.62,24.39-70.11-6.98-77.02-31.38-6.91-55.24-14.27-54.93-15.21s17.99,10.17,17.99,10.17l78.26,12.33,78.19,130.27s33.86-108.69-20.38-6.52c-.66,1.25-11.42-21.79-11.42-21.79l53.77,46.22Z"/></g></g></svg>