<?xml version="1.0" encoding="UTF-8"?><svg xmlns="http://www.w3.org/2000/svg" xmlns:xlink="http://www.w3.org/1999/xlink" viewBox="0 0 492.84 298.63"><defs><style>.e,.f{fill:none;}.f,.g{stroke:#1d1d1b;}.f,.g,.h{stroke-miterlimit:10;stroke-width:.42px;}.i,.g{fill:#eddfd6;}.j,.k,.h{fill:#1d1d1b;}.k{opacity:.19;}.h{stroke:#eddfd6;}.l{clip-path:url(#d);}</style><clipPath id="d"><rect class="e" width="492.84" height="298.63"/></clipPath></defs><g id="a"/><g id="b"><g id="c"><g class="l"><rect class="h" width="492.84" height="298.63"/></g><rect class="g" x="154.6" y="70.19" width="200.29" height="164.91"/><rect class="g" x="175.32" y="87.25" width="158.84" height="130.78"/><rect class="h" x="249.51" y="103.42" width="65.98" height="98.45"/><g><g><rect class="g" x="257.61" y="113.03" width="11.42" height="11.42"/><rect class="g" x="276.56" y="113.03" width="11.42" height="11.42"/><rect class="g" x="295.51" y="113.03" width="11.42" height="11.42"/></g><g><rect class="g" x="257.61" y="130.72" width="11.42" height="11.42"/><rect class="g" x="276.56" y="130.72" width="11.42" height="11.42"/><rect class="g" x="295.51" y="130.72" width="11.42" height="11.42"/></g><g><rect class="g" x="257.61" y="148.42" width="11.42" height="11.42"/><rect class="g" x="276.56" y="148.42" width="11.42" height="11.42"/><rect class="g" x="295.51" y="148.42" width="11.42" height="11.42"/></g><g><rect class="g" x="257.61" y="166.11" width="11.42" height="11.42"/><rect class="g" x="276.56" y="166.11" width="11.42" height="11.42"/><rect class="g" x="295.51" y="166.11" width="11.42" height="11.42"/></g></g><rect class="g" x="257.61" y="183.5" width="30.37" height="11.42"/><rect class="g" x="295.51" y="183.5" width="11.42" height="11.42"/><g><circle class="h" cx="212.58" cy="151.04" r="20.99"/><g><rect class="i" x="210.47" y="143.71" width="4.22" height="10.55"/><circle class="i" cx="212.58" cy="154.26" r="4.12"/></g></g><rect class="g" x="379.34" y="229.1" width="59.15" height="5.95"/><rect class="g" x="223.12" y="64.05" width="59.15" height="5.95"/><rect class="g" x="220.17" y="58.27" width="59.15" height="5.95"/><rect class="g" x="79.5" y="219.44" width="59.15" height="5.95" transform="translate(-56.99 38.6) rotate(-15.97)"/><rect class="g" x="37.32" y="223.08" width="59.15" height="5.95" transform="translate(-47.07 19.69) rotate(-12.43)"/><rect class="g" x="203.2" y="52.5" width="59.15" height="5.95"/><rect class="g" x="95.77" y="220.95" width="59.15" height="5.95" transform="translate(-56.78 43.14) rotate(-15.97)"/><rect class="g" x="333.54" y="202.5" width="59.15" height="5.95" transform="translate(500.19 -188.58) rotate(79.68)"/><g><path class="i" d="M214.68,58.02c-.32-1.33-1-2.54-1.99-3.53-.99-.99-2.2-1.67-3.53-1.99,1.33-.32,2.54-1,3.53-1.99,.99-.99,1.67-2.21,1.99-3.54,.66,2.72,2.81,4.86,5.53,5.53-1.33,.32-2.55,1-3.54,1.99-.99,.99-1.67,2.21-1.99,3.53Z"/><path class="j" d="M214.69,47.72c.77,2.23,2.54,4,4.78,4.77-1.09,.38-2.09,1-2.94,1.84s-1.46,1.84-1.84,2.93c-.38-1.09-1-2.09-1.84-2.93-.84-.84-1.84-1.46-2.93-1.84,1.09-.38,2.09-1,2.93-1.84,.84-.84,1.47-1.84,1.84-2.94m0-2.53c0,2.02-.82,3.84-2.14,5.17-1.32,1.32-3.15,2.14-5.17,2.14,2.02,0,3.85,.82,5.17,2.14,1.32,1.32,2.14,3.15,2.14,5.17,0-2.02,.82-3.85,2.14-5.17s3.15-2.14,5.17-2.14c-4.04,0-7.31-3.27-7.31-7.31h0Z"/></g><path class="k" d="M231.71,55.5s-145.01,20.7-58.59,46.7c86.42,26,117.74,28.21,92.55,60.25-25.19,32.05-93.38,44.54-62.2,54.23,31.18,9.69,54.17,19.12,54.32,20.11,2.85,19.5-80.65,12.47-80.65,12.47l-49.06-47.45-1.51-66.26s2.51-68.17-5.99-71.99c-46.58-20.94,63.33-8.06,63.33-8.06h47.8Z"/><rect class="f" x="165.59" y="79.24" width="178.31" height="146.81"/><g><path class="i" d="M175.32,132.55c-.69-5.19-3.05-9.98-6.81-13.74-3.76-3.76-8.55-6.12-13.74-6.81,5.19-.69,9.98-3.05,13.74-6.81,3.76-3.76,6.12-8.56,6.81-13.75,1.43,10.66,9.9,19.13,20.56,20.56-5.19,.69-9.99,3.05-13.75,6.81-3.76,3.76-6.12,8.56-6.81,13.74Z"/><path class="j" d="M175.32,92.77c1.85,9.71,9.52,17.38,19.23,19.23-4.73,.89-9.09,3.18-12.57,6.66s-5.77,7.83-6.66,12.56c-.89-4.73-3.18-9.08-6.66-12.56-3.47-3.48-7.82-5.77-12.55-6.66,4.73-.89,9.08-3.18,12.55-6.66,3.48-3.48,5.77-7.83,6.66-12.57m0-4.53c0,6.56-2.66,12.5-6.96,16.8-4.29,4.3-10.23,6.96-16.8,6.96,6.56,0,12.5,2.66,16.8,6.96,4.3,4.3,6.96,10.24,6.96,16.8,0-6.56,2.66-12.5,6.96-16.8,4.3-4.3,10.24-6.96,16.8-6.96-13.13,0-23.76-10.64-23.76-23.76h0Z"/></g><polygon class="k" points="376.94 229.1 438.5 235.05 376.94 237.56 376.94 229.1"/><polygon class="k" points="354.89 176.91 374.13 235.09 356.47 239.15 354.89 176.91"/><g><path class="i" d="M364.64,198.06c-.55-1.25-1.44-2.32-2.59-3.12-1.14-.79-2.46-1.25-3.83-1.32,1.25-.55,2.32-1.44,3.12-2.59,.8-1.15,1.25-2.47,1.33-3.83,1.13,2.53,3.59,4.28,6.43,4.45-1.25,.55-2.32,1.44-3.12,2.59-.8,1.15-1.25,2.47-1.33,3.83Z"/><path class="j" d="M362.8,187.93c1.15,2.04,3.19,3.48,5.55,3.84-1.01,.57-1.88,1.36-2.56,2.34-.68,.98-1.11,2.07-1.29,3.21-.57-1.01-1.36-1.88-2.34-2.55-.97-.67-2.07-1.11-3.21-1.29,1.01-.57,1.88-1.36,2.55-2.34,.68-.98,1.11-2.07,1.29-3.22m-.45-2.49c.36,1.98-.12,3.93-1.18,5.47-1.06,1.54-2.71,2.67-4.7,3.03,.44-.08,.88-.12,1.32-.12,1.51,0,2.95,.47,4.15,1.3,1.54,1.06,2.67,2.72,3.03,4.7-.36-1.99,.12-3.93,1.18-5.47,1.06-1.54,2.72-2.67,4.7-3.03-.44,.08-.88,.12-1.32,.12-3.46,0-6.54-2.47-7.18-6h0Zm8.5,5.88h0Z"/></g><path class="k" d="M203.28,58.17s61.32,1.56,47.85,6.94c-13.47,5.38,14.25,4.78,14.25,4.78h-68.76l6.66-11.72Z"/><path class="k" d="M256.12,113.03s14.81,7.57,13.69,13.74-17.29-1.68-17.29-1.68l3.61-12.06Z"/><path class="k" d="M276.4,147.64s14.81,7.57,13.69,13.74-17.29-1.68-17.29-1.68l3.61-12.06Z"/><path class="k" d="M276.4,130.05s14.81,7.57,13.69,13.74-17.29-1.68-17.29-1.68l3.61-12.06Z"/><path class="k" d="M296.15,164.85s14.81,7.57,13.69,13.74c-1.12,6.17-17.29-1.68-17.29-1.68l3.61-12.06Z"/><path class="k" d="M55.11,200.84s55.96,5.2,37.26,13.14,12.09,31.39,23.02,26.55c10.92-4.85,27.67-3.67,27.67-3.67l-43.01-33.6-44.94-2.42Z"/></g></g></svg>