<?xml version="1.0" encoding="UTF-8"?><svg xmlns="http://www.w3.org/2000/svg" viewBox="0 0 493.26 299.05"><defs><style>.d,.e,.f,.g,.h{stroke-miterlimit:10;}.d,.e,.f,.i{fill:none;}.d,.f,.g,.j,.k,.h,.i{stroke-width:.42px;}.d,.j,.h{stroke:#eddfd6;}.e{stroke-width:.42px;}.e,.f,.g,.k,.i{stroke:#1d1d1b;}.l,.g{fill:#eddfd6;}.m,.n,.j,.k,.h{fill:#1d1d1b;}.f,.j,.k,.i{stroke-linecap:round;}.n{opacity:.19;}.j,.k,.i{stroke-linejoin:round;}</style></defs><g id="a"/><g id="b"><g id="c"><rect class="h" x=".21" y=".21" width="492.84" height="298.63"/><path class="m" d="M430.37,183.93c-2.46,0-4.68,1-6.29,2.61-1.61,1.61-2.61,3.84-2.61,6.29,0-2.46-1-4.68-2.61-6.29-1.61-1.61-3.83-2.61-6.29-2.61,2.46,0,4.68-1,6.29-2.61,1.61-1.61,2.61-3.84,2.61-6.29,0,4.91,3.98,8.9,8.9,8.9Z"/><line class="f" x1="119.85" y1="209.35" x2="365.03" y2="209.35"/><line class="k" x1="338.84" y1="76.78" x2="338.84" y2="85.22"/><polyline class="i" points="335.04 76.78 338.84 81.39 342.73 81.39"/><line class="k" x1="350.01" y1="85.22" x2="350.01" y2="76.78"/><polyline class="i" points="353.81 85.22 350.01 80.61 346.11 80.61"/><g><rect class="g" x="171.9" y="49.7" width="124.65" height="197"/><rect class="g" x="175.1" y="53.68" width="117.71" height="193.02"/><rect class="g" x="185.33" y="65.22" width="97.26" height="181.47"/><ellipse class="h" cx="265.87" cy="159.09" rx="2.64" ry="3.9"/><polygon class="m" points="185.33 65.22 260.98 79.04 260.98 246.7 282.59 246.7 282.59 65.22 185.33 65.22"/><polygon class="m" points="185.33 246.7 276.19 227.45 276.19 246.7 185.33 246.7"/><circle class="e" cx="252.91" cy="156.9" r="4.31"/><rect class="m" x="250.43" y="160.12" width="13.26" height="55.79" rx="5.95" ry="5.95" transform="translate(128.75 -103.47) rotate(30.06)"/><rect class="m" x="225.89" y="186.17" width="13.26" height="40.78" rx="5.95" ry="5.95" transform="translate(25.97 439.08) rotate(-90)"/><path class="m" d="M212.14,199.93h9.69v13.74c0,4.79-3.89,8.68-8.68,8.68h-1v-22.42h0Z"/><line class="j" x1="222.38" y1="207.57" x2="222.38" y2="216.78"/></g><rect class="l" x="57.61" y="91.84" width="73.09" height="73.09"/><rect class="g" x="63.63" y="97.87" width="61.05" height="61.05"/><rect class="g" x="65.64" y="99.88" width="57.02" height="57.02"/><polyline class="d" points="87.1 91.84 93.61 85.34 100.56 92.29"/><rect class="h" x="68.46" y="102.7" width="51.39" height="51.39"/><rect class="l" x="339.53" y="127.64" width="73.09" height="73.09"/><rect class="g" x="345.55" y="133.66" width="61.05" height="61.05"/><rect class="g" x="347.56" y="135.67" width="57.02" height="57.02"/><polyline class="d" points="369.03 127.64 375.53 121.13 382.48 128.08"/><rect class="h" x="350.38" y="138.49" width="51.39" height="51.39"/><rect class="l" x="339.53" y="79.08" width="73.09" height="37.49"/><rect class="g" x="345.55" y="82.17" width="61.05" height="31.32"/><rect class="g" x="347.56" y="83.86" width="57.02" height="27.6"/><polyline class="d" points="369.03 79.81 375.53 73.3 382.48 80.25"/><rect class="h" x="349.59" y="85.68" width="52.82" height="23.66"/><text/><path class="n" d="M185.33,246.7s155.13-32.33,69.02-54c-70.2-17.66-74.46-36.74-71.76-53.84,6.25-39.62,87.85-51.43,56.48-58.34-31.38-6.91-55.24-14.27-54.93-15.21s77.13,1.44,77.13,1.44l78.26,12.33,78.19,130.27s-138.86,64.95-140.1,64.27-5.98-36.69-5.98-36.69l-86.31,9.77Z"/><polygon class="n" points="49.5 73.3 49.5 185.95 147.55 79.08 49.5 73.3"/></g></g></svg>