<svg xmlns="http://www.w3.org/2000/svg" viewBox="0 0 493.26 299.05"><defs><style>.cls-1{fill:#1d1d1b;stroke:#eddfd6;stroke-miterlimit:10;stroke-width:0.42px;}.cls-2{fill:#ebddd4;}.cls-3{fill:#222;}</style></defs><g id="Capa_2" data-name="Capa 2"><g id="Capa_1-2" data-name="Capa 1"><rect class="cls-1" x="0.21" y="0.21" width="492.84" height="298.63"/><path class="cls-2" d="M172.16,139.74c-3,2.35-5.32,4.44-6.62,7.46-2.73,6.38-3.41,13.1-3.3,19.93a8.62,8.62,0,0,1-4.32,7.84c-5.47,3.43-13-.21-13.42-6.72-1-17.13,3.91-32.35,16.06-44.77a28.18,28.18,0,0,1,12.68-7.37c3.41-1,6.17-3.43,9.58-4.66a29.76,29.76,0,0,1,30.06,5.91,6.43,6.43,0,0,1,2.18,4.89q-.17,29.08-.24,58.17c0,1.63-.58,2-2.09,2-12.86-.05-25.71-.08-38.56,0-1.89,0-2-.73-2-2.26.05-12.29,0-24.57,0-36.86Z"/><path class="cls-2" d="M345.4,145.76c0,10.07,0,20.14,0,30.21,0,1.92-.47,2.47-2.43,2.45q-19.56-.18-39.12-.12c-1.95,0-2.72-.41-2.68-2.59.15-7.38.11-14.78,0-22.16,0-1.69.47-2.38,2.14-2.81,12.54-3.3,22.47-10.22,29.07-21.54a25.53,25.53,0,0,0,2.58-6c1.69-6.09-2.47-11.23-8.67-11.74-5.7-.46-8.7,2-10.86,6.8-2.51,5.58-6.89,9.42-12.34,12.1-1.5.74-2.33.81-2.24-1.33.09-1.9,1-4.35-.26-5.58-1.08-1-3.48-.62-5.27-1-12.6-2.48-22.07-9.62-29.4-19.87a11.14,11.14,0,0,1-1.87-10.22,5.89,5.89,0,0,1,4.95-4.25c3.11-.46,5.88.08,7.89,2.76,2.41,3.22,4.4,6.68,7.56,9.41a28.74,28.74,0,0,0,19.33,7.42q16.51,0,33,0c6.27,0,8.53,2.29,8.54,8.69Q345.41,131.08,345.4,145.76Z"/><path class="cls-2" d="M251.2,240c-15.19,0-28-13.07-28.07-28.33a30.48,30.48,0,0,1,30.73-30.24c15.81.11,28.4,12.43,28.19,28.48A30.69,30.69,0,0,1,251.2,240Zm-12.13-41.2c.43-.16.86-.31,1.28-.49,2.09-.89,3.27-.76,4,2,2.2,7.73,4.79,15.35,7.26,23,1.64,5.08,1.73,5.2-2.81,7.46-1.69.84-.65,1.73-.58,2.62.12,1.46,1.1,1.19,2,.89,3-.93,5.94-1.79,8.85-2.83,2.67-.95,5.28-2,7.87-3.16,1.48-.65,3.11-1.89,2.72-3.42s-2.22-.49-3.42-.4a8.12,8.12,0,0,0-2.1.54c-1,.38-1.58-.05-1.89-1-2.29-6.75-4.6-13.49-6.87-20.25-1.62-4.86-3.17-9.74-4.79-14.59-.23-.68-.23-1.82-1.58-1.26a55.13,55.13,0,0,0-12.48,7.45c-1.15.9-.92,1.67.37,2.21l1.73.76-.56.38C238.41,199.13,238.75,198.93,239.07,198.82Zm-1.65.23c-.06,0-.17.12-.16.16a1.59,1.59,0,0,0,.16.32c.05-.05.16-.12.16-.16A1.59,1.59,0,0,0,237.42,199.05Z"/><path class="cls-2" d="M212.22,87.24c-.33,9.11-7,18-18.8,17.78a18,18,0,0,1-17.86-18.2,18.33,18.33,0,1,1,36.66.42Z"/><path class="cls-2" d="M287.77,150a46.51,46.51,0,0,1-16.46-3.16c-2.65-1.11-5.06-2.63-5.34-6-.51-6,4.52-9.47,10.68-7.29a37.31,37.31,0,0,0,24.81.23c8-2.66,13.61-8,17.31-15.52a7.62,7.62,0,0,1,10.57-3.4c2.84,1.43,4,4.35,3,7.75-2.1,6.59-6.4,11.64-11.43,16.23C312.44,146.49,298.85,149.94,287.77,150Z"/><path class="cls-2" d="M321.58,201.74c0,5.9,0,11.81,0,17.72,0,5.32-4.21,9.45-9.88,9.86-4.55.34-9.43-3.94-10.23-8.68-.65-3.87-.39-7.74-.42-11.6-.06-8.58,0-17.17,0-25.75,0-1.45.21-2.12,1.91-2.08,5.54.11,11.08.13,16.62,0,1.87-.05,2.07.7,2.05,2.25-.08,6.09,0,12.18,0,18.28Z"/><path class="cls-2" d="M325.24,201.6c0-6,.1-12-.05-18,0-2,.58-2.44,2.48-2.4,5.26.13,10.53.1,15.79,0,1.54,0,2,.41,2,2-.06,12.09,0,24.18-.06,36.26,0,5.16-5.06,10.08-10.26,9.8-5.65-.32-9.93-3.91-9.94-9.68v-18Z"/><path class="cls-2" d="M172.16,204.93c0-5.72.07-11.44,0-17.16,0-1.83.31-2.59,2.37-2.53,5.17.15,10.35.1,15.52,0,1.51,0,2.11.36,2.1,2-.06,11.72.07,23.44-.07,35.16a9.92,9.92,0,0,1-19.84,0C172.06,216.57,172.17,210.75,172.16,204.93Z"/><path class="cls-2" d="M195.51,205.39c0-6,0-12,0-18,0-1.41.17-2.18,1.91-2.14,4.89.12,9.8,0,14.7.06,1.54,0,2.76.07,2.74,2.34-.11,11.36,0,22.72-.05,34.08,0,4.1-1.76,7.49-5.31,9.3a9.34,9.34,0,0,1-10.21-.63,8.32,8.32,0,0,1-3.76-7C195.52,217.4,195.5,211.4,195.51,205.39Z"/><path class="cls-2" d="M348.88,79.77H298c1.26-10.55,12.44-20.38,24.57-20.73S346.52,67.53,348.88,79.77Z"/><path class="cls-2" d="M217,129.61c0-2.85.13-5.72-.06-8.56-.09-1.35.27-1.42,1.32-1.15a58.9,58.9,0,0,0,17.21,1.58c4.21-.19,8.07-1.55,12-2.81,4.18-1.35,7.77,0,10,3.5a9.88,9.88,0,0,1-.79,11.09,14.71,14.71,0,0,1-6.73,4.18,61.68,61.68,0,0,1-29.44,2c-3.08-.49-3.73-1.58-3.42-4.29a48.71,48.71,0,0,0,0-5.54Z"/><path class="cls-2" d="M323.43,83c5.17,0,10.35.13,15.51-.06,2.54-.09,3.24.82,3,3.18-.65,7.17-3.49,12.94-10.35,16a18.9,18.9,0,0,1-18.9-1.42c-5.63-3.65-7.57-9.16-7.87-15.55-.08-1.61.48-2.07,1.95-2.06,5.55,0,11.09,0,16.63,0Z"/><path class="cls-3" d="M238.7,198.35l-1.73-.76c-1.29-.54-1.52-1.31-.37-2.21a55.13,55.13,0,0,1,12.48-7.45c1.35-.56,1.35.58,1.58,1.26,1.62,4.85,3.17,9.73,4.79,14.59,2.27,6.76,4.58,13.5,6.87,20.25.31.92.86,1.35,1.89,1a8.12,8.12,0,0,1,2.1-.54c1.2-.09,3-1.17,3.42.4s-1.24,2.77-2.72,3.42c-2.59,1.13-5.2,2.21-7.87,3.16-2.91,1-5.89,1.9-8.85,2.83-.93.3-1.91.57-2-.89-.07-.89-1.11-1.78.58-2.62,4.54-2.26,4.45-2.38,2.81-7.46-2.47-7.66-5.06-15.28-7.26-23-.77-2.72-1.95-2.85-4-2-.42.18-.85.33-1.28.49Z"/><path class="cls-3" d="M239.07,198.82c-.32.11-.66.31-.93-.09l.56-.38Z"/><path class="cls-3" d="M237.42,199.05a1.59,1.59,0,0,1,.16.32s-.11.11-.16.16a1.59,1.59,0,0,1-.16-.32S237.36,199.1,237.42,199.05Z"/></g></g></svg>