<?xml version="1.0" encoding="utf-8"?>
<!-- Generator: Adobe Illustrator 27.2.0, SVG Export Plug-In . SVG Version: 6.00 Build 0)  -->
<svg version="1.1" id="Camada_1" xmlns="http://www.w3.org/2000/svg" xmlns:xlink="http://www.w3.org/1999/xlink" x="0px" y="0px"
	 viewBox="0 0 1000 600" style="enable-background:new 0 0 1000 600;" xml:space="preserve">
<style type="text/css">
	.st0{fill:#1D1E1C;}
	.st1{fill:#C7BBB2;}
	.st2{fill:#EEDFD6;}
	.st3{fill:#A69B95;}
	.st4{fill:#F4A2A4;}
	.st5{fill:#E52421;}
	.st6{opacity:0.19;fill:#1E1E1C;enable-background:new    ;}
</style>
<rect y="-40.8" class="st0" width="1000" height="640.8"/>
<g>
	<path class="st1" d="M421.4,267c-12.3,7.9-32,20.2-57,33.6c-47.6,25.7-71,32.4-115.9,56.5c-16,8.6-39.3,21.9-66.7,40.4
		c6.8,14.8,13.6,29.5,20.5,44.3c30.9-12.9,54.6-25.8,70.3-34.9c41.9-24.4,59.7-41.8,110.6-75c25.4-16.6,46.7-29,60.1-36.6
		C436,285.8,428.7,276.4,421.4,267z"/>
	<path class="st2" d="M452.1,249c-1.9-1.1-7-3.7-13.3-2.7c-10.5,1.8-15,12.3-15.6,13.9c-4.4,10.3-0.6,21.9,5.3,29
		c7.7,9.3,20.9,13.1,33.6,9.7c1.7-0.6,5-2,7.7-5.1c5.1-5.9,4.2-13.2,4.1-14.5C466.6,269.2,459.3,259.1,452.1,249z"/>
	<path class="st3" d="M491.2,212c-3.5,6.9-10.2,18.1-22.4,28.2c-9.9,8.2-19.7,12.7-26.4,15.1c-5.5,8.1-4.4,18.9,2.2,25.3
		c5.8,5.7,15,7,22.6,3.2c4.7-3.4,10.1-6.8,16.1-10c15.9-8.5,30.9-12.8,42.9-15.1L491.2,212z"/>
	<path class="st2" d="M459.4,120.4c1.1,5.8,8.6,13.3,9.1,13.7c5.1,4,11.9,7.3,19.1,10.2l155.1-31.4c4.5-2.5,14.7-8.9,19-21.1
		c0.7-2.1,2.6-7.5,1.8-11.4c-3.6-17.4-65.2-28.9-121.6-14.5C497.3,77.2,456.5,104.6,459.4,120.4z"/>
	<path class="st2" d="M483.9,176.5l14.2,73.3c25.2-14.9,67.7-35,123.1-38.7c20.7-1.4,39.3-0.2,55.1,2c-5.4-23.2-10.7-46.4-16.1-69.6
		c-1.1-7.9-3.9-17.9-11.7-25.2c-4.7-4.4-17.1-13.4-88.4,2.9c-60.4,13.9-70.5,24.7-74.5,34.7C482.6,163.8,483,171.3,483.9,176.5z"/>
	<path class="st3" d="M474,149.8c-2.1,3-6.8,9.8-4.7,16.8c2.4,8.5,13,11.8,15,12.4c-0.2-0.6-0.4-1.6-0.4-2.7c0-3.6,2.2-6.8,5.9-10
		c16-13.8,35.7-20.8,35.7-20.8c11.3-4,25.5-8.5,42.2-12.9c0,0,0,0,0,0c0.1,0,57.4-15.4,85.5,0.4c2.2,1.2,3.7,3,3.7,3
		c2.2,2.6,3,5.5,3.3,7.7c1.6-0.8,11.5-6.1,12.1-14.6c0.5-7.6-6.8-13.4-10.2-16.1c-25.7-20.2-86.2-8-104.8-4
		C557.3,108.9,492.9,122.5,474,149.8z"/>
	<path class="st4" d="M646.4,142.7"/>
	<path class="st5" d="M582.8,216.6"/>
	<polygon class="st0" points="492.5,221.2 498.1,249.8 492.5,269.7 478.6,276.4 	"/>
	<path class="st3" d="M522.6,285.6c-10.3,3.9-21.9-0.1-27.4-9.1c-5-8.3-3.9-19.2,2.9-26.7c17.8-11.6,48.7-28.4,90.6-36.2
		c36.8-6.8,67.8-3.9,87.6-0.5c12.4,2.7,20.2,14.8,17.9,26.4c-2.1,10.5-12,18.3-23.4,17.9c-15.2-3.7-42-8.2-74.5-2.6
		C560.9,261.1,535.7,276.4,522.6,285.6z"/>
	<path class="st2" d="M787.5,414.7c-0.2-1-1.2-6.4-5.7-9.3c-2-1.3-4-1.7-5.2-1.8H644.7h-86.4H426.5c-1.2,0.1-3.2,0.4-5.2,1.8
		c-4.5,2.9-5.5,8.3-5.7,9.3v83.4c14.8,3.3,34.5,7.3,57.9,10.9c63.8,9.8,112.9,10.2,128,10.2c15.1,0,64.2-0.4,128-10.2
		c23.4-3.6,43.1-7.6,57.9-10.9V414.7z"/>
	<path class="st2" d="M508.1,299.4c-2.7-22.6,45.2-49.3,85.7-56.5c40.8-7.2,95.2,1.7,100.3,23.9c5.2,22.4-40,57.5-85.1,65.2
		C564.5,339.6,510.8,322.1,508.1,299.4z"/>
	<path class="st1" d="M159.9,438.9c4.4,6.4,13.1,7.2,19.7,7.8c7.1,0.6,12.7-0.7,15.8-1.5c4.1-1,6.7-2.2,18.7-8
		c5.6-2.7,10.8-5.3,15.7-7.7c-11.2-13.9-22.4-27.7-33.5-41.6c-2.3,1.8-5.9,4.4-10.5,7.5c-5,3.3-6.5,4-9.3,5.8
		c-5.6,3.8-12.1,8.1-15.8,15.1C160.1,417.8,153.9,430,159.9,438.9z"/>
	<path class="st1" d="M780.4,403.6H426.5v-3.7c0-16.5,13.4-29.9,29.9-29.9h294.1c16.5,0,29.8,13.4,29.8,29.8V403.6z"/>
	<path class="st1" d="M349.8,158.9"/>
	<path class="st0" d="M578.5,246.5c18-4.8,33.3-5.9,44.2-6.1c10.8-0.1,23.5-0.2,39.3,4.5c9.5,2.8,17,6.4,22.1,9.1
		c2.3-1.7,4.9-4.2,4.7-6.9c-0.6-7.2-20.5-10.9-27.3-12.2C647.1,232.2,619.7,230.4,578.5,246.5z"/>
	<path class="st0" d="M581.1,129.6c9.9-2,18.2-3,24.1-3.5c0,0,25.5-2.2,43,4.2c3.1,1.1,6.8,2.9,9.4,6.7c1.7,2.5,2.4,5,2.7,6.6
		c1.3-0.3,3.7-1.1,5.9-3.2c1.3-1.2,2.2-2.5,2.7-3.5c-0.7-2.1-1.7-4-2.8-5.6C649.3,107.9,587.7,127.4,581.1,129.6z"/>
	<path class="st0" d="M533.4,311.3c0.3-3.8,31.1,1.6,77.9-9.7c43.6-10.6,66.6-27.4,68.4-24.3c2.2,3.6-26.6,33.6-67.6,43
		C571.6,329.6,533.1,315.5,533.4,311.3z"/>
	<path class="st1" d="M426.5,403.6c53.8,7.6,116.5,12.9,186.2,12.4c62.2-0.5,118.5-5.5,167.6-12.4l-193.2-20.5L426.5,403.6z"/>
	<path class="st3" d="M426.5,401.4c56.7,9.1,124.2,15.7,200.1,14.6c56.8-0.8,108.4-5.7,153.7-12.4c-31.4,11.3-70.4,21.9-115.8,27
		C561.2,442.3,476.5,419.6,426.5,401.4z"/>
	<path class="st6" d="M328.9-40.2l133.9,15.7C462.8-24.6,398.7-33,328.9-40.2z"/>
	<path class="st6" d="M615.7,123.3c-9-40.5-87.1-57.3-362.5-131.9c-49.8-13.5-78.2-23.1-90.9-29.6c-13.6,0.3-27.2,0.9-40.8,0.9
		c-14.1,0.1-28.3-0.4-42.4-2.1c-4.5,3.5-7.8,7.6-9.7,12.5c-3.8,9.7-0.7,19.1,1.3,25.2c25.6,76.1,189.8,85.6,204.1,86.3
		c-51.2,42.6-151,137.6-172.3,266.2c-7.4,44.9-1.2,69.3,7.8,86.6c22.4,43.2,72.8,55.1,171.7,77.6c105.5,24,195.7,18.3,196.4,11.5
		c0.5-5-47.6-1.6-87.7-35.5c-31.8-26.8-63.4-79.6-47.1-112.7c23-46.8,137.5-45.9,141.6-76.2c1.3-9.5,3.6-18.8,4.4-28.4
		c0.3-3.1,0.8-10.3,5-18.3c1.3-2.5,2.7-4.4,3.5-5.6C600.7,186.7,621.1,148,615.7,123.3z"/>
</g>
</svg>
