<?xml version="1.0" encoding="UTF-8"?><svg xmlns="http://www.w3.org/2000/svg" viewBox="0 0 493.26 299.05"><defs><style>.d{stroke-width:.42px;}.d,.e,.f{fill:#eddfd6;}.d,.f,.g,.h{stroke-miterlimit:10;}.d,.g{stroke:#eddfd6;}.d,.h{stroke-linecap:round;}.i{letter-spacing:-.02em;}.j,.k,.g,.h{fill:#1d1d1b;}.k{opacity:.19;}.f,.g{stroke-width:.42px;}.f,.h{stroke:#1d1d1b;}.l{letter-spacing:0em;}.h{font-family:Helvetica-Bold, Helvetica;font-size:41.35px;stroke-width:.42px;}</style></defs><g id="a"/><g id="b"><g id="c"><rect class="g" x=".21" y=".21" width="492.84" height="298.63"/><g><polygon class="f" points="272.99 61.15 207.38 61.15 160.98 107.55 160.98 173.17 207.38 219.57 272.99 219.57 319.39 173.17 319.39 107.55 272.99 61.15"/><g><polygon class="e" points="211.38 209.9 170.65 169.16 170.65 111.55 211.38 70.82 268.99 70.82 309.72 111.55 309.72 169.16 268.99 209.9 211.38 209.9"/><path class="j" d="M268.78,71.32l40.44,40.44v57.19l-40.44,40.44h-57.19l-40.44-40.44v-57.19l40.44-40.44h57.19m.41-1h-58.02l-41.03,41.03v58.02l41.03,41.03h58.02l41.03-41.03v-58.02l-41.03-41.03h0Z"/></g><text class="h" transform="translate(184.62 156.96)"><tspan x="0" y="0">S</tspan><tspan class="i" x="27.58" y="0">T</tspan><tspan class="l" x="52.12" y="0">O</tspan><tspan class="i" x="84.28" y="0">P</tspan></text></g><rect class="d" x="237.45" y="218.34" width="9.18" height="80.51"/><circle class="g" cx="240.19" cy="84.57" r="3.45"/><circle class="g" cx="240.19" cy="194.65" r="3.45"/><path class="k" d="M207.38,61.15c9.9,11.08,3.33,28.74-11.42,30.62-26.21,3.35-50.01,9.45-4.79,18.98,75.26,15.86,102.02,15.48,82.93,44.51-19.08,29.03-76.09,44.54-48.92,50.53,27.17,5.99,48.08,12.97,47.81,13.78s-65.62,0-65.62,0l-72.36-22.91-21.1-59.4s6.18-48.21,7.26-47.62,86.21-28.48,86.21-28.48h0Z"/></g></g></svg>