<svg version="1.2" xmlns="http://www.w3.org/2000/svg" viewBox="0 0 1200 900" width="1200" height="900"><style>.a{fill:#222}.b{fill:#eddfd6}</style><path class="a" d="m0 0h1200v900h-1200z"/><path fill-rule="evenodd" class="b" d="m849 161.6c1.8 2-8 2.3-76.2 2.3-40.1 0-121.7 0.1-181.3 0.3-158.2 0.5-229.1 0.1-229.1-1.4 0-0.7 0.4-1.3 0.8-1.5 1.6-0.6 485.3-0.2 485.8 0.3zm-489.8 496.8l-0.5-242.2 0.2-231.3 86.2-0.4c108.3-0.6 387.9-0.2 405 0.5l12.8 0.6-0.5 185.8c-0.3 102.2-0.8 207-1 232.8-0.4 44 0.2 53.6-1.2 56.6-0.8 1.8-501-2.4-501-2.4zm459.7-454l-418.7 0.2v207.3l0.1 207.3h76.4c42.1 0 136.3 0.2 209.4 0.5l132.8 0.6zm-169.3 68.9h139l-0.3 7.9-0.2 7.9-69.2 0.2-69.3 0.2zm-217 0.9h142.9v16.2h-39.3c-21.5 0-53.7-0.2-71.4-0.5l-32.2-0.6zm0.8 68.3h142.1v15.4h-142.1zm216.2 0h138.9v15.4h-138.9zm-216.2 66.6h142.1v16.2h-142.1zm216.1 0h139.1l-0.3 7.9-0.2 7.9-69-0.2-69.1-0.2-0.2-7.7zm-216.2 68l32.2 0.6c17.7 0.3 49.7 0.5 71.1 0.5h38.8v15.4h-142.1zm286 0.5l68.7 0.2 0.3 7.9 0.2 7.9h-139v-7.5c0-4.2 0.3-7.8 0.5-8.1 0.3-0.4 31.5-0.5 69.3-0.4zm-158.7 67.7h14.4l0.2 8.7 0.2 8.8-142.4-0.4-0.3-8.4-0.2-8.3 56.8-0.2c31.3-0.1 63.3-0.2 71.3-0.2zm88.9 0.4h139l-0.2 7.9-0.3 7.9h-138.1l-0.2-7.9zm-238.8 139.2h8.4c9.2 0 13.2 1.3 17 5.5 1.7 1.8 2 2.9 2 7.8 0 5.4-0.2 5.9-2.7 8.4l-2.6 2.7 2.9 2.8c2.3 2 3.2 3.7 3.8 6.8 1.5 7.7-0.9 13.7-6.9 17-3 1.7-4.7 2-12.7 2h-9.2zm63.8 5.3c7.5 9.4 9.2 25.7 3.7 37.4-4.7 10.2-12 13.9-20.7 10.6-4.3-1.6-5.7-3.1-9.4-9.2-5.5-9.3-5.9-22.2-1-33 2.8-6.1 4.9-8.2 10.1-10 7.2-2.4 13.1-1 17.3 4.2zm45.6 8.3c1.5 3.9 1.8 6.3 1.8 13.7-0.1 10.4-1 13.4-6 19.3-6.2 7.4-13.6 9.6-20.8 6.3-6.4-3-10.4-10.5-11.7-21.8-0.9-8.4-0.2-13.5 3.2-20.9 2.3-4.9 3-5.8 6.9-7.8 10.9-5.9 21.9-1.3 26.6 11.2zm6.1-13.6h9.4v8.7 8.8l3.7-4.3c2.1-2.4 5.3-6.3 7.2-8.8l3.5-4.6 4.6 0.3 4.6 0.3-7.6 10.2c-4.2 5.7-7.8 10.7-8 11.3-0.4 1.3 5.2 12.8 9.2 18.6 3.2 4.8 7 11.3 7 12 0 0.2-2.6 0.4-5.8 0.4h-5.9l-2-4.5c-2.9-6.4-9.2-17.7-9.9-17.7-0.3 0-0.6 4.9-0.8 10.9l-0.2 10.9-4.5 0.2-4.5 0.3zm64-0.2l11.2 0.3c10 0.4 11.4 0.6 14.5 2.5 3.9 2.4 5.5 5.4 5.5 9.9 0 3.5-2.8 8.4-5.5 9.3-1.6 0.5-1.5 0.6 0.6 2.1 8.2 5.6 8.7 15.8 1.1 23.3-4 4-7.2 4.9-18.2 4.9h-9.2zm63.9 2.4c5.1 2.8 7.4 6.1 9.1 13 1.1 4.1 1.3 7.2 1 13.2-0.7 12.1-3.9 19.1-10.6 23.5-2.9 1.8-4.5 2.2-9.5 2.3-4.4 0-6.5-0.4-8-1.5-3.5-2.4-6.1-5.9-8.2-10.6-1.6-3.8-1.9-5.8-1.9-13.3-0.1-13.8 3.8-23.8 10.6-27.1 5-2.5 12.5-2.2 17.5 0.5zm31.7-2.1c9.2 0.1 12 2.4 17.2 13.9 3.6 8 3.7 8.5 3.3 14-0.9 12.1-7.4 23.8-14.1 25.7-4.7 1.3-6.8 1.2-11.2-0.4-4.9-1.8-7.3-4.4-10.5-11.3-2.5-5.3-2.6-6.1-2.6-14.2 0-12.7 3.6-21.8 10.2-25.9 2.3-1.4 4.3-1.9 7.7-1.8zm26.2-0.1h8.6v10.9 10.9l1.6-2.2c0.8-1.1 3.3-4.8 5.4-8.1 7.2-11.2 7.6-11.6 12.3-11.3l4.1 0.2-3 4.9c-3.6 6-7 11.9-9.3 16.1l-1.8 3.1 8.6 14.2c4.7 7.8 8.3 14.3 8 14.5-0.3 0.2-2.3 0.4-4.5 0.5-4.4 0.2-4.9-0.2-8.5-7-3.7-7.1-9.3-14.2-11.1-14.2-2.3-0.1-2.6 1.3-2.6 12v9.3h-7.8zm38.4 0h23.2v5.9l-7.2 0.3-7.2 0.2-0.2 7-0.3 7.1h5.9c6.5 0 7.3 0.6 6.4 4.7-0.5 2-0.8 2.1-6.4 2.1h-5.8v16.3h13.3v9.3h-22.7v-19.9c0-11 0.3-22.9 0.5-26.5zm30.2 0h9.7c8.6 0 9.9 0.2 13.4 2.1 2.2 1.2 4.5 3.3 5.3 4.7 1.5 2.8 1.7 9 0.5 12.6-1.1 3.1-4.5 7-7 8.1l-2 0.9 3 1.6c3.2 1.8 4.9 5.1 7.3 14.3 0.7 2.6 1.5 5.2 1.9 5.6 1.9 2.3 0.7 3.1-4.7 3.1-4.9 0-5.5-0.2-5.5-1.6 0-3-4-15-6-17.8-1.5-2.2-2.4-2.8-4.6-2.8h-2.7v22.3l-8.7-0.5-0.1-4.7c0-2.6 0-14.4 0.1-26.3zm-181.2 7.3c-0.4 0.4-0.6 3.1-0.6 6 0 5.2 0 5.4 2.2 5.9 2.9 0.7 9-1 10.7-3 1.7-2.1 1.7-5.7 0-7.5-1.3-1.5-11.3-2.6-12.3-1.4zm37.7 7c-2.5 5.9-3.3 13.2-2.4 19.8 0.5 3 1.1 6 1.4 6.6 1.2 2.4 6 5.4 8.5 5.4 3.9 0 6.4-2.3 8.9-8.1 3.2-7.3 3.2-15.8 0-23.1-1.2-2.8-2.7-5.5-3.3-6.1-3.9-3.5-10.4-0.8-13.1 5.5zm156-7.5h-3.9v14.5h3.1c4.3 0 7.5-1.9 8.5-5.1 1-3.1-0.1-7.3-2.3-8.5-0.8-0.5-3.2-0.9-5.4-0.9zm-374.6 7v5h4.5c5.1 0 6.4-1 6.4-4.4 0-2.9-2.4-5.5-5.6-6.2-5.1-1.1-5.3-0.8-5.3 5.6zm75.6 2.9c-2.6 6.2-2.6 18.2 0 22.8 4.4 7.9 13.6 7.7 17.3-0.4 1.5-3 1.7-4.7 1.4-11.3-0.4-9.3-3.1-16.7-6.9-18.9-4.9-2.7-8.5-0.4-11.8 7.8zm-30.9-8.2c-3.9 0.1-8.1 5-9.7 11.5-1.1 4.7-0.5 14.7 1.2 18.6 2.3 5.3 9.4 7.4 14.5 4.5 7.1-4 5.5-29.9-2-33.4-1.5-0.6-3.2-1.2-4-1.2zm214.7 6.6c-2.1 4.6-2.2 21.8-0.1 25.3 2.3 3.7 5.9 5.9 9.4 5.4 4.2-0.6 6.3-2.4 8.3-7.1 1.6-3.6 1.7-5.1 1.4-11.9-0.4-9-2.3-14.5-6-16.8-4.7-3-10.3-0.9-13 5.1zm-73 13.1h-5.4v15.3h4.8c7.6 0 10-2.1 10.1-9.1 0-1.9-0.6-3.2-2.1-4.5-1.6-1.4-3.2-1.7-7.4-1.7zm-182.3 0.8h-3.3v6.6c0 8.5 0.4 9.2 5 8.5 4.7-0.7 6.6-1.8 7.5-4.6 1-2.8-1.1-7.9-3.9-9.4-1.1-0.6-3.5-1.1-5.3-1.1zm526.6 150.3h62.4v13.7h-62.4z"/><path class="a" d="m366.2 684h475.2v71.4h-475.2z"/><path fill-rule="evenodd" class="b" d="m457.9 722.7q0 7.4-2.6 12.8-2.7 5.3-7.3 8.2-4.7 2.9-10.6 2.9-6 0-10.6-2.9-4.7-2.9-7.3-8.2-2.7-5.4-2.7-12.8 0-7.3 2.7-12.7 2.6-5.4 7.3-8.3 4.6-2.9 10.6-2.9 5.9 0 10.6 2.9 4.6 2.9 7.3 8.3 2.6 5.4 2.6 12.7zm-5.4 0q0-6-2.1-10.2-2-4.1-5.4-6.3-3.4-2.1-7.6-2.1-4.3 0-7.7 2.1-3.4 2.2-5.4 6.3-2 4.2-2 10.2 0 6.1 2 10.2 2 4.2 5.4 6.3 3.4 2.2 7.7 2.2 4.2 0 7.6-2.2 3.4-2.1 5.4-6.3 2.1-4.1 2.1-10.2zm14.9 23.3v-46.5h15.7q5.5 0 9 1.8 3.5 1.9 5.2 5.1 1.6 3.2 1.6 7.3 0 4.1-1.6 7.3-1.7 3.2-5.2 5-0.9 0.5-1.9 0.8l10.6 19.2h-6.6l-9.8-18.2q-0.6 0-1.2 0h-10.2v18.2zm5.7-18.2v-5.1h-2.6v5.1zm10-5.1q3.7 0 6-1.1 2.3-1.1 3.3-3.1 1.1-2 1.1-4.8 0-2.8-1.1-4.9-1-2.1-3.3-3.2-2.3-1.1-6.1-1.1h-9.9v18.2zm39.7 23.3h-14.4v-46.5h15q6.8 0 11.6 2.7 4.8 2.8 7.4 8 2.6 5.2 2.6 12.4 0 7.3-2.6 12.6-2.6 5.2-7.6 8-4.9 2.8-12 2.8zm-8.7-5h8.3q5.8 0 9.6-2.2 3.8-2.3 5.6-6.4 1.9-4.1 1.9-9.8 0-5.6-1.8-9.7-1.9-4.1-5.5-6.2-3.7-2.2-9.1-2.2h-9zm40.3 5v-46.6h28.1v5h-22.4v15.7h21v5h-21v15.9h22.8v5zm38.2 0v-46.6h15.7q5.5 0 9 1.9 3.5 1.8 5.2 5 1.7 3.3 1.7 7.4 0 4.1-1.7 7.3-1.7 3.2-5.2 5-0.8 0.4-1.8 0.8l10.5 19.2h-6.6l-9.8-18.2q-0.6 0-1.2 0h-10.1v18.2zm5.6-18.2v-5.1h-2.6v5.1zm10-5.1q3.8 0 6-1.1 2.3-1.1 3.4-3.1 1-2 1-4.8 0-2.8-1-4.9-1.1-2.1-3.4-3.2-2.3-1.2-6-1.2h-10v18.3zm43.3 23.3v-46.6h16.3q4.9 0 8 1.7 3.2 1.7 4.7 4.5 1.6 2.8 1.6 6.2 0 3-1.1 4.9-1 2-2.7 3.1-1.8 1.2-3.8 1.7v0.5q2.2 0.1 4.3 1.5 2.2 1.3 3.7 3.9 1.4 2.5 1.4 6.2 0 3.5-1.6 6.3-1.6 2.8-5 4.4-3.4 1.7-8.9 1.7zm5.6-5h11.2q5.5 0 7.8-2.2 2.4-2.1 2.4-5.2 0-2.4-1.2-4.4-1.2-2-3.5-3.2-2.2-1.2-5.2-1.2h-11.5zm0-21.1h10.5q2.5 0 4.5-1 2.1-1 3.3-2.8 1.2-1.9 1.2-4.3 0-3.1-2.1-5.2-2.1-2.2-6.8-2.2h-10.6zm75.3 2.8q0 7.4-2.7 12.8-2.7 5.3-7.3 8.2-4.6 3-10.6 3-5.9 0-10.6-3-4.6-2.9-7.3-8.2-2.6-5.4-2.6-12.8 0-7.3 2.6-12.7 2.7-5.3 7.3-8.3 4.7-2.9 10.6-2.9 6 0 10.6 2.9 4.6 3 7.3 8.3 2.7 5.4 2.7 12.7zm-5.5 0q0-6-2-10.2-2-4.1-5.4-6.3-3.5-2.1-7.7-2.1-4.2 0-7.6 2.1-3.4 2.2-5.5 6.3-2 4.2-2 10.2 0 6.1 2 10.3 2.1 4.1 5.5 6.2 3.4 2.2 7.6 2.2 4.2 0 7.7-2.2 3.4-2.1 5.4-6.2 2-4.2 2-10.3zm54.2 0q0 7.4-2.6 12.8-2.7 5.3-7.3 8.2-4.7 3-10.6 3-6 0-10.6-3-4.7-2.9-7.3-8.2-2.7-5.4-2.7-12.8 0-7.3 2.7-12.7 2.6-5.3 7.3-8.3 4.6-2.9 10.6-2.9 5.9 0 10.6 2.9 4.6 3 7.3 8.3 2.6 5.4 2.6 12.7zm-5.4 0q0-6-2.1-10.2-2-4.1-5.4-6.3-3.4-2.1-7.6-2.1-4.3 0-7.7 2.1-3.4 2.2-5.4 6.3-2 4.2-2 10.2 0 6.1 2 10.3 2 4.1 5.4 6.2 3.4 2.2 7.7 2.2 4.2 0 7.6-2.2 3.4-2.1 5.4-6.2 2.1-4.2 2.1-10.3zm14.9 23.3v-46.5h5.6v23.1h0.6l20.9-23.1h7.3l-19.5 21 19.5 25.5h-6.8l-16.2-21.6-5.8 6.5v15.1z"/><path fill-rule="evenodd" class="b" d="m458.4 722.7q0 7.5-2.7 13l-0.9-0.5q2.6-5.2 2.6-12.5zm-2.7 13q-2.7 5.5-7.5 8.5l-0.5-0.9q4.5-2.8 7.1-8.1zm-18.3 11.5q-6.1 0-10.9-3l0.5-0.8q4.5 2.8 10.4 2.8zm-10.9-3q-4.8-3-7.5-8.5l0.9-0.4q2.6 5.2 7.1 8.1zm-10.1-21.5q-0.1-7.4 2.7-12.9l0.9 0.4q-2.6 5.3-2.6 12.5zm21-24.4q6.1 0 10.9 3l-0.6 0.9q-4.5-2.9-10.3-2.9zm10.9 3q4.7 3 7.4 8.5l-0.9 0.4q-2.6-5.2-7.1-8zm1.8 11.4l0.4-0.2zm-5.2-6.1l0.3-0.4zm-15.3-0.9l0.2 0.4zm-5.6 6.5l0.5 0.3zm0 20.8l0.4-0.2zm5.6 6.5l0.3-0.4zm15.3-0.9l0.3 0.4zm5.2-6.1l0.4 0.3zm5.3 2.7l-0.4-0.2zm-7.1 8.7q-4.7 3-10.8 3v-1q5.8 0 10.3-2.9zm-0.3-0.4l0.3 0.4zm-21.2 0l-0.2 0.5zm-7.8-8.1q-2.7-5.5-2.7-12.9h1q0 7.2 2.6 12.5zm0.5-0.3l0.4-0.2zm-0.4-25.7q2.7-5.4 7.4-8.4l0.6 0.8q-4.5 2.8-7.1 8.1zm0.4 0.2l-0.4-0.2zm7-8.7q4.8-3 10.8-3v1q-5.8 0-10.3 2.8zm21.5 0.5l0.2-0.5zm7.8 8.1q2.7 5.5 2.7 12.9h-1q0-7.2-2.6-12.5zm-0.5 0.2l-0.4 0.3zm-3.3 12.7q0-6-2-10l0.9-0.4q2.1 4.3 2.1 10.4zm-2-10q-1.9-4-5.2-6.1l0.5-0.8q3.6 2.2 5.6 6.5zm-5.2-6.1q-3.3-2.1-7.4-2.1v-1q4.4 0 7.9 2.2zm-7.4-2q-4.1 0-7.4 2l-0.5-0.8q3.6-2.2 7.9-2.2zm-7.4 2q-3.2 2.1-5.2 6.1l-0.9-0.4q2.1-4.3 5.6-6.5zm-5.2 6.1q-2 4-2 10h-1q0-6.2 2.1-10.5zm-2 10q0 6 2 10l-0.9 0.5q-2.1-4.3-2.1-10.5zm2 10q1.9 4.1 5.2 6.1l-0.5 0.9q-3.6-2.3-5.6-6.5zm5.2 6.1q3.3 2 7.4 2v1q-4.4 0-7.9-2.2zm7.4 2.1q4.1 0 7.3-2.1l0.6 0.8q-3.6 2.3-7.9 2.3zm7.3-2.1q3.3-2 5.3-6.1l0.9 0.4q-2.1 4.3-5.6 6.5zm5.2-6q2-4.1 2-10h1q0 6.1-2.1 10.4zm17.4 13.8h-0.5v-0.5h0.5zm-0.5-47.1v-0.5h0.5v0.5zm25 2.3l0.2-0.4zm0.5-0.9q3.6 1.9 5.4 5.3l-0.9 0.5q-1.6-3.1-5-4.9zm7.1 12.9q0 4.2-1.7 7.5l-0.9-0.5q1.6-3 1.6-7zm-9.7 11.1l11.5 20.9-0.9 0.5-11.4-20.9zm-19.3 3.4h-0.5v-0.5h0.5zm-0.5-5.6v-0.5h0.5v0.5zm18.8-1.5l0.2 0.4zm3.1-2.8l0.5 0.2zm-3.1-12.3l0.2-0.4zm-16.3-1.6v-0.5h0.5v0.5zm1 41.5v0.5h-0.5v-0.5zm15.8-21.4h0.3l0.1 0.3-0.4 0.2zm11.9 21.2l0.4 0.7h-0.8v-0.5zm-7 0.8h-0.3l-0.2-0.3 0.5-0.2zm-11.7-21.2l-0.4-0.7h0.8v0.5zm-15.6 20.6v-46.5h1v46.5zm0.5-47h15.7v1h-15.7zm15.7 0q5.6 0 9.2 1.9l-0.5 0.9q-3.3-1.8-8.7-1.8zm14.6 7.2q1.7 3.3 1.7 7.6h-1q0-4-1.6-7.1zm-0.4 0.2l-0.5 0.2zm0.5 14.9q-1.8 3.3-5.4 5.2l-0.5-0.9q3.4-1.7 5-4.8zm-0.5-0.2l-0.4-0.2zm-3.5 25.2l-11.3-20.9 0.9-0.5 11.3 20.9zm-10.6-17.9h-12.7v-1h12.7zm-13.2-0.5v-5.1h1v5.1zm0.5-5.6h12.6v1h-12.6zm12.6 0q3.6 0 5.7-1.1l0.5 0.9q-2.4 1.2-6.2 1.2zm5.7-1.1q2.2-1 3.1-2.8l0.9 0.4q-1.1 2.2-3.5 3.3zm3.1-2.8q0.9-1.9 0.9-4.6h1q0.1 2.9-1.1 5zm1-4.6q0-2.7-1-4.6l0.9-0.5q1.1 2.3 1.1 5.1zm-1-4.6q-0.9-2-3.1-3l0.5-0.9q2.4 1.2 3.5 3.4zm-3.1-3q-2.1-1.1-5.8-1.1v-1q3.8 0 6.3 1.2zm-5.9-1.1h-9.9v-1h9.9zm-9.4-0.5v41.6h-1v-41.6zm-0.5 42.1h-5.6v-1h5.6zm19.3-20.1l-0.2-0.4zm8.4 20h-6.5v-1h6.5zm-8.4-20q-3.6 1.9-9.1 1.9v-1q5.3-0.1 8.6-1.8zm-9.4-1.9h6.4v1h-6.4zm25.4 21.9h-0.5v-0.5h0.5zm-0.5-47v-0.5h0.5v0.5zm26.9 3.2l0.2-0.4zm0.5-0.9q5 2.9 7.6 8.2l-0.9 0.5q-2.5-5.1-7.2-7.8zm7.6 33.6l-0.5-0.3zm-7.7 8.3l-0.3-0.4zm-21-2.2h-0.5v-0.5h0.5zm8.4-1q5.7 0 9.3-2.1l0.5 0.8q-3.9 2.3-9.8 2.3zm16.6-17.8q0-5.6-1.8-9.5l0.9-0.5q1.9 4.2 1.9 10zm-7.1-15.6l0.2-0.4zm-18.3-2.7v-0.5h0.5v0.5zm9.2 42.1h-14.4v-1h14.4zm-14.9-0.5v-46.6h1v46.6zm0.5-47.1h15v1h-15zm15 0q6.9 0 11.9 2.9l-0.5 0.9q-4.7-2.7-11.4-2.8zm19.5 11.1q2.6 5.3 2.6 12.6h-1q0-7.1-2.5-12.2zm-0.5 0.3l-0.4 0.2zm3 12.4q0 7.4-2.6 12.7l-0.9-0.4q2.5-5.1 2.5-12.3zm-2.6 12.7q-2.7 5.4-7.7 8.3l-0.5-0.9q4.8-2.7 7.3-7.8zm-7.7 8.3q-5.1 2.8-12.3 2.8v-1q6.9 0 11.8-2.7zm-21.1-3.2h8.4v1h-8.4zm17.7-2.1q3.7-2.2 5.5-6.1l0.9 0.4q-1.9 4.2-5.9 6.5zm0.3 0.5l-0.3-0.5zm5.2-6.5q1.8-4 1.9-9.6h1q0 5.8-2 10zm0.1-19.1l0.4-0.2zm0 0q-1.8-3.9-5.3-6l0.5-0.9q3.8 2.3 5.7 6.5zm-5.3-6q-3.5-2.2-8.8-2.2v-1q5.5 0 9.3 2.3zm-8.8-2.1h-9v-1h9zm-8.5-0.5v36.5h-1v-36.5zm39.9 42h-0.5v-0.5h0.5zm-0.5-47v-0.5h0.5v0.5zm28.5-0.5h0.5v0.5h-0.5zm0.5 5.5v0.5h-0.5v-0.5zm-23.4 0v-0.5h0.5v0.5zm0.5 16.2h-0.5v-0.5h0.5zm21-1h0.5v0.5h-0.5zm0.5 5.5v0.5h-0.5v-0.5zm-22 0v-0.5h0.5v0.5zm0.5 16.3h-0.5v-0.5h0.5zm22.8-1h0.5v0.5h-0.5zm0.5 5.5v0.5h-0.5v-0.5zm-29.4 0v-46.5h1v46.5zm0.5-47h28v1h-28zm28.5 0.5v5h-1v-5zm-0.5 5.5h-22.4v-1h22.4zm-21.9-0.5v15.7h-1v-15.7zm-0.5 15.2h21v1h-21zm21.5 0.5v5h-1v-5zm-0.5 5.5h-21v-1h21zm-20.5-0.5v15.8h-1v-15.8zm-0.5 15.3h22.8v1h-22.8zm23.3 0.5v5h-1v-5zm-0.5 5.5h-28.4v-1h28.4zm9.8 0h-0.5v-0.5h0.5zm-0.5-47v-0.5h0.5v0.5zm25 2.3l0.2-0.5zm0.5-0.9q3.6 2 5.3 5.3l-0.8 0.5q-1.6-3.1-5-4.9zm7.1 12.9q0 4.2-1.7 7.5l-0.9-0.5q1.6-3 1.6-7zm-9.7 11.1l11.5 20.9-0.9 0.5-11.5-20.9zm-19.2 3.5h-0.5v-0.5h0.5zm-0.5-5.6v-0.5h0.5v0.5zm18.8-1.6l0.2 0.5zm3.1-2.9l0.5 0.2zm-3.2-12.2l0.3-0.5zm-16.3-1.6v-0.5h0.5v0.5zm1 41.6v0.5h-0.5v-0.5zm15.8-21.4h0.3l0.1 0.2-0.4 0.3zm11.9 21.1l0.4 0.8h-0.9v-0.5zm-6.9 0.7h-0.3l-0.2-0.3 0.5-0.2zm-11.8-21.2l-0.4-0.7h0.9v0.5zm-15.6 20.7v-46.6h1v46.6zm0.5-47.1h15.7v1h-15.7zm15.7 0q5.5 0 9.2 1.9l-0.5 0.9q-3.3-1.8-8.7-1.8zm14.6 7.2q1.7 3.4 1.7 7.6h-1q0-4-1.6-7.1zm-0.4 0.2l-0.5 0.2zm0.5 14.9q-1.8 3.3-5.4 5.2l-0.5-0.9q3.4-1.7 5-4.7zm-0.5-0.3l-0.4-0.2zm-3.5 25.2l-11.3-20.9 0.9-0.5 11.3 20.9zm-10.6-17.9h-12.7v-1h12.7zm-13.2-0.5v-5.1h1v5.1zm0.5-5.6h12.5v1h-12.5zm12.5 0q3.7 0 5.8-1l0.5 0.9q-2.5 1.1-6.3 1.1zm5.8-1q2.2-1.1 3.1-2.9l0.9 0.5q-1.1 2.1-3.5 3.3zm3-2.9q1-1.9 1-4.6h1q0 2.9-1.1 5.1zm1-4.6q0-2.7-1-4.7l0.9-0.4q1.1 2.2 1.1 5.1zm-1-4.7q-0.9-1.9-3.1-3l0.5-0.9q2.4 1.2 3.5 3.5zm-3.1-3q-2.1-1.1-5.8-1.1v-1q3.8-0.1 6.3 1.2zm-5.9-1.1h-9.9v-1h9.9zm-9.4-0.5v41.5h-1v-41.5zm-0.5 42h-5.6v-1h5.6zm19.3-20l-0.2-0.5zm8.4 20.1h-6.5v-1h6.5zm-8.4-20.1q-3.7 1.9-9.1 1.9v-1q5.3 0 8.6-1.8zm-9.4-1.8h6.4v1h-6.4zm43.4 21.9h-0.5v-0.5h0.5zm-0.5-47.1v-0.5h0.5v0.5zm24.6 2.2l0.2-0.5zm4.5 4.3l0.4-0.3zm0.5 10.7l0.5 0.3zm-2.6 2.9l0.2 0.4zm-3.9 2.1v-0.4l0.4-0.1 0.1 0.5zm0.5 0.9h-0.5v-0.5h0.5zm0.1-1q2.2 0.2 4.5 1.6l-0.5 0.9q-2.1-1.3-4.1-1.5zm9.8 12.2q0 3.6-1.6 6.5l-0.9-0.5q1.5-2.6 1.5-6zm-1.6 6.5q-1.7 3-5.3 4.7l-0.4-0.9q3.3-1.6 4.8-4.3zm-25.6 1.3h-0.5v-0.5h0.5zm11.2-1c3.7 0 6.1-0.7 7.5-2l0.7 0.8c-1.7 1.5-4.5 2.2-8.2 2.2zm8.6-10.9l0.4-0.3zm-3.2-3h-0.1l0.3-0.5zm-17-1.6v-0.5h0.5v0.5zm0.5-4.4h-0.5v-0.5h0.5zm14.8-2l0.2 0.5zm3.1-2.7l0.4 0.3zm-0.8-8.9l0.3-0.3zm-17.5-2.5v-0.5h0.5v0.5zm-5.6 41.5v-46.5h1v46.5zm0.5-47h16.2v1h-16.2zm16.2 0q5 0 8.3 1.7l-0.5 0.9q-3-1.6-7.8-1.6zm8.3 1.7q3.3 1.7 4.9 4.7l-0.9 0.5q-1.4-2.7-4.5-4.3zm4.9 4.7q1.6 2.9 1.6 6.4h-1q0-3.3-1.4-5.9zm1.6 6.4q0 3.1-1.2 5.2l-0.8-0.5q1-1.8 1-4.7zm-1.2 5.2q-1.1 2.1-2.9 3.3l-0.6-0.9q1.7-1 2.7-2.9zm-3 3.3q-1.8 1.2-3.8 1.7l-0.3-0.9q1.9-0.5 3.6-1.6zm-3.5 1.2v0.5h-1v-0.5zm4 1.6q2.3 1.4 3.8 4l-0.8 0.5q-1.5-2.4-3.5-3.7zm-0.3 0.4l-0.2 0.5zm4 3.6q1.5 2.7 1.5 6.5h-1q0-3.6-1.3-6zm-0.6 12.8l0.4 0.2zm-4.8 4.9q-3.6 1.7-9.1 1.7v-1q5.4 0 8.7-1.6zm-0.2-0.4l-0.3-0.5zm-8.9 2.1h-16.8v-1h16.8zm-11.2-6h11.2v1h-11.2zm18.7-2q2.2-2 2.2-4.8h1q0 3.3-2.5 5.6zm0.3 0.3l0.4 0.4zm1.8-5.2q0-2.2-1.1-4.1l0.8-0.5q1.3 2.1 1.3 4.6zm-1.1-4.1q-1.1-1.9-3.3-3.1l0.5-0.8q2.4 1.2 3.6 3.4zm-3.2-3.1q-2.1-1.1-5-1.1v-1q3.1-0.1 5.5 1.2zm-5.1-1.1h-11.4v-1h11.4zm-10.9-0.5v16.2h-1v-16.2zm-0.5-5.4h10.4v1h-10.4zm10.4 0q2.5 0 4.4-1l0.5 0.9q-2.2 1.1-4.9 1.1zm4.4-1q2-0.9 3.1-2.6l0.8 0.5q-1.3 2-3.4 3zm3-2.6q1.2-1.7 1.2-4h1q0 2.6-1.3 4.5zm1.1-4q0-2.8-2-4.8l0.7-0.7q2.3 2.3 2.3 5.5zm-2-4.8c-1.3-1.3-3.4-2-6.4-2v-1c3.1 0 5.6 0.7 7.1 2.3zm-6.4-2h-10.6v-1h10.6zm-10.1-0.5v15.4h-1v-15.4zm75.2 18.2q0 7.5-2.7 13l-0.9-0.5q2.6-5.2 2.6-12.5zm-2.7 13q-2.7 5.5-7.5 8.5l-0.5-0.9q4.5-2.8 7.1-8.1zm-18.3 11.5q-6.1 0-10.9-3l0.6-0.8q4.5 2.8 10.3 2.8zm-10.9-3q-4.7-3-7.4-8.5l0.8-0.4q2.7 5.3 7.2 8.1zm-10.2-21.4q0-7.5 2.7-13l0.9 0.4q-2.6 5.3-2.6 12.6zm21-24.5q6.1 0 10.9 3l-0.6 0.9q-4.5-2.9-10.3-2.9zm10.9 3q4.7 3 7.5 8.5l-0.9 0.4q-2.6-5.2-7.2-8zm1.8 11.4l0.5-0.2zm-5.3-6.1l0.3-0.4zm-15.3-0.9l0.2 0.5zm-5.6 6.5l0.5 0.2zm0 20.8l0.4-0.2zm5.6 6.5l0.3-0.4zm15.3-0.9l0.3 0.5zm5.2-6.1l0.5 0.2zm5.2 2.7l-0.4-0.2zm-7 8.7q-4.8 3-10.9 3v-1q5.8 0 10.3-2.9zm-0.2-0.4l0.2 0.4zm-21.2 0l-0.2 0.5zm-7.8-8.1q-2.7-5.5-2.7-12.9h1q0 7.2 2.6 12.5zm0.5-0.2l0.4-0.3zm-0.4-25.6q2.7-5.5 7.5-8.5l0.5 0.8q-4.5 2.9-7.1 8.1zm0.4 0.2l-0.4-0.2zm7-8.7q4.8-3 10.9-3v1q-5.9 0-10.4 2.8zm21.5 0.5l0.2-0.5zm7.8 8.1q2.7 5.5 2.7 12.9h-1q0-7.2-2.6-12.5zm-0.5 0.3l-0.4 0.2zm-3.3 12.7q0-5.9-2-10l0.9-0.4q2.1 4.3 2.1 10.4zm-2-10q-1.9-4-5.2-6.1l0.5-0.8q3.6 2.2 5.6 6.5zm-5.2-6.1q-3.3-2.1-7.4-2.1v-1q4.4 0 7.9 2.3zm-7.4-2.1q-4 0-7.3 2.1l-0.6-0.9q3.6-2.2 7.9-2.2zm-7.3 2.1q-3.3 2-5.3 6l-0.9-0.4q2.1-4.3 5.6-6.5zm-5.2 6.1q-2 4-2 10h-1q0-6.1 2.1-10.4zm-2 10q0 5.9 2 9.9l-0.9 0.5q-2.1-4.3-2.1-10.4zm2 9.9q1.9 4.1 5.2 6.1l-0.5 0.9q-3.6-2.2-5.6-6.5zm5.2 6.1q3.3 2 7.4 2v1q-4.3 0-7.9-2.2zm7.4 2.1q4.1 0 7.4-2.1l0.5 0.9q-3.5 2.2-7.9 2.2zm7.4-2.1q3.3-2 5.2-6.1l0.9 0.5q-2 4.2-5.6 6.5zm5.2-6.1q2-4.1 2-10h1q0 6.1-2.1 10.4zm57.2-10q0 7.5-2.7 13l-0.9-0.5q2.6-5.2 2.6-12.5zm-2.7 13q-2.7 5.5-7.5 8.4l-0.5-0.8q4.5-2.8 7.1-8.1zm-18.3 11.5q-6.1 0-10.9-3l0.5-0.8q4.5 2.8 10.4 2.8zm-10.9-3q-4.8-3-7.5-8.5l0.9-0.4q2.6 5.2 7.1 8.1zm-10.1-21.5q-0.1-7.4 2.7-12.9l0.9 0.4q-2.6 5.3-2.6 12.5zm21-24.4q6.1 0 10.9 3l-0.6 0.9q-4.5-2.9-10.3-2.9zm10.9 3q4.7 3 7.4 8.5l-0.9 0.4q-2.6-5.2-7.1-8zm1.8 11.4l0.4-0.2zm-5.2-6.1l0.3-0.4zm-15.3-0.9l0.2 0.4zm-5.6 6.5l0.5 0.3zm0 20.8l0.4-0.2zm5.6 6.5l0.3-0.4zm15.3-0.9l0.3 0.4zm5.2-6.1l0.4 0.3zm5.3 2.7l-0.4-0.2zm-7.1 8.7q-4.7 3-10.8 3v-1q5.8 0 10.3-2.9zm-0.3-0.4l0.3 0.4zm-21.2 0l-0.2 0.5zm-7.8-8.1q-2.7-5.5-2.7-12.9h1q0 7.2 2.6 12.5zm0.5-0.3l0.4-0.2zm-0.4-25.7q2.7-5.4 7.4-8.4l0.6 0.8q-4.5 2.8-7.1 8.1zm0.4 0.2l-0.4-0.2zm7-8.7q4.8-3 10.8-3v1q-5.8 0-10.3 2.8zm21.5 0.5l0.2-0.5zm7.8 8.1q2.7 5.5 2.7 12.9h-1q0-7.2-2.6-12.5zm-0.5 0.2l-0.4 0.3zm-3.3 12.7q0-6-2-10l0.9-0.4q2.1 4.3 2.1 10.4zm-2-10q-1.9-4-5.2-6.1l0.5-0.8q3.6 2.2 5.6 6.5zm-5.2-6.1q-3.3-2.1-7.4-2.1v-1q4.4 0 7.9 2.2zm-7.4-2q-4.1 0-7.4 2l-0.5-0.8q3.6-2.2 7.9-2.2zm-7.4 2q-3.2 2.1-5.2 6.1l-0.9-0.4q2.1-4.3 5.6-6.5zm-5.2 6.1q-2 4-2 10h-1q0-6.2 2.1-10.5zm-2 10q0 6 2 10l-0.9 0.5q-2.1-4.3-2.1-10.5zm2 10q1.9 4.1 5.2 6.1l-0.5 0.9q-3.6-2.3-5.6-6.5zm5.2 6q3.3 2.1 7.4 2.1v1q-4.4 0-7.9-2.2zm7.4 2.1q4.1 0 7.3-2.1l0.6 0.8q-3.6 2.3-7.9 2.3zm7.3-2.1q3.3-2 5.3-6.1l0.9 0.4q-2.1 4.3-5.6 6.5zm5.2-6q2-4.1 2-10h1q0 6.1-2.1 10.4zm17.4 13.8h-0.5v-0.5h0.5zm-0.5-47.1v-0.5h0.5v0.5zm6.2-0.5h0.5v0.5h-0.5zm0 24.1h-0.5v-0.5h0.5zm0.9-0.1l-0.2 0.1h-0.2v-0.5zm20.2-23.7l0.1-0.2h0.2v0.5zm7.8-0.2h1.1l-0.8 0.9-0.3-0.4zm-28.7 23.3l20.9-23.1 0.8 0.7-20.9 23.1zm29 23.4l0.6 0.9h-1v-0.5zm-7.2 0.8h-0.3l-0.1-0.2 0.4-0.3zm-16.6-22.5l0.4-0.5 0.4 0.5-0.4 0.3zm-5.9 6.9v-0.2l0.1-0.1 0.4 0.3zm1 15.1v0.5h-0.5v-0.5zm-6.7 0v-46.6h1v46.6zm0.5-47.1h5.7v1h-5.7zm6.2 0.5v23.1h-1v-23.1zm-0.5 22.6h0.5v1h-0.5zm8.8-1.3l-0.2-0.3 0.3-0.3 0.3 0.3zm12.6-21.8h7.4v1h-7.4zm7.8 0.9l-19.6 21-0.7-0.7 19.5-21zm-19.5 20.4l19.6 25.5-0.8 0.6-19.6-25.5zm19.2 26.3h-6.9v-1h6.9zm-7.3-0.2l-16.1-21.6 0.8-0.6 16.1 21.6zm-15.4-21.6l-5.8 6.6-0.7-0.7 5.8-6.6zm-5.7 6.3v15h-1v-15zm-0.5 15.5h-5.6v-1h5.6z"/><path class="a" d="m936 828h99v50h-99z"/></svg>