<?xml version="1.0" encoding="utf-8"?>
<!-- Generator: Adobe Illustrator 26.1.0, SVG Export Plug-In . SVG Version: 6.00 Build 0)  -->
<svg version="1.1" id="Layer_1" xmlns="http://www.w3.org/2000/svg" xmlns:xlink="http://www.w3.org/1999/xlink" x="0px" y="0px"
	 viewBox="0 0 492.8 298.6" style="enable-background:new 0 0 492.8 298.6;" xml:space="preserve">
<style type="text/css">
	.st0{clip-path:url(#SVGID_00000064338207609721257700000002016772623708694915_);}
	.st1{fill:#1D1D1B;stroke:#EDDFD6;stroke-width:0.42;stroke-miterlimit:10;}
	.st2{fill:#EDDFD6;stroke:#1D1D1B;stroke-width:0.42;stroke-miterlimit:10;}
	.st3{fill:#1D1D1B;}
	.st4{fill:#EDDFD6;}
	.st5{opacity:0.19;fill:#1D1D1B;enable-background:new    ;}
</style>
<g id="a">
</g>
<g id="b">
	<g id="c">
		<g>
			<defs>
				<rect id="SVGID_1_" y="0" width="492.8" height="298.6"/>
			</defs>
			<clipPath id="SVGID_00000115499676535092464130000005115567796649412268_">
				<use xlink:href="#SVGID_1_"  style="overflow:visible;"/>
			</clipPath>
			<g style="clip-path:url(#SVGID_00000115499676535092464130000005115567796649412268_);">
				<rect y="0" class="st1" width="492.8" height="298.6"/>
			</g>
		</g>
		<circle class="st2" cx="296.3" cy="168.5" r="21.7"/>
		<g>
			<g>
				<g>
					<path class="st3" d="M111.2,225.3c-2.2,0-4.6-1.1-6.2-3.1l-3.9-4.5l34.7-30.3l3.9,4.5c2.8,3.2,3,7.8,0.4,10.1l-25.2,22
						C113.9,224.8,112.6,225.3,111.2,225.3L111.2,225.3z"/>
					<path class="st4" d="M135.8,187.7l3.8,4.3c2.8,3.2,2.9,7.6,0.4,9.8l-25.2,22c-1,0.8-2.2,1.3-3.6,1.3c-2.2,0-4.4-1.1-6.1-3
						l-3.8-4.3L135.8,187.7 M135.8,187.1l-35.1,30.6l4,4.6c1.8,2,4.2,3.1,6.4,3.1c1.4,0,2.8-0.4,3.8-1.4l25.2-22
						c2.7-2.4,2.6-7-0.3-10.4L135.8,187.1L135.8,187.1L135.8,187.1z"/>
				</g>
				<path class="st4" d="M100.8,217.7c-10.3-11.9-10.9-28.3-1.2-36.8s25.9-5.7,36.2,6.2L100.8,217.7L100.8,217.7z"/>
			</g>
			<g>
				<g>
					<path class="st3" d="M209.1,139.8c-2.2,0-4.6-1.1-6.2-3.1l-3.9-4.5l34.7-30.3l3.9,4.5c2.8,3.2,3,7.8,0.4,10.1l-25.2,22
						C211.8,139.3,210.5,139.8,209.1,139.8L209.1,139.8z"/>
					<path class="st4" d="M233.7,102.2l3.8,4.3c2.8,3.2,2.9,7.6,0.4,9.8l-25.2,22c-1,0.8-2.2,1.3-3.6,1.3c-2.2,0-4.4-1.1-6.1-3
						l-3.8-4.3L233.7,102.2 M233.7,101.6l-35.1,30.6l4,4.6c1.8,2,4.2,3.1,6.4,3.1c1.4,0,2.8-0.4,3.8-1.4l25.2-22
						c2.7-2.4,2.6-7-0.3-10.4L233.7,101.6C233.7,101.6,233.7,101.6,233.7,101.6z"/>
				</g>
				<path class="st4" d="M198.7,132.2c-10.3-11.9-10.9-28.3-1.2-36.8c9.7-8.4,25.9-5.7,36.2,6.2L198.7,132.2z"/>
			</g>
			<path class="st4" d="M129.5,117.6c-31.2,27.2-40.7,68.3-23.5,95.6l24.5-21.4c-10-18.8-7.4-41.8,13.2-59.8
				c20.6-18,41.1-15.1,58.3-2.6l25.2-22C202.6,86.6,160.7,90.4,129.5,117.6L129.5,117.6z"/>
		</g>
		<g>
			<rect x="264.2" y="91.2" class="st4" width="9.4" height="22.6"/>
			<path class="st3" d="M273.4,91.4v22.2h-9V91.4H273.4 M273.8,91H264v23h9.9V91L273.8,91z"/>
		</g>
		<g>
			<rect x="320.4" y="91.2" class="st4" width="9.4" height="22.6"/>
			<path class="st3" d="M329.6,91.4v22.2h-9V91.4H329.6 M330,91h-9.9v23h9.9V91L330,91z"/>
		</g>
		<g>
			<path class="st4" d="M212.5,213.4l17.3-87.6h25.9c0.1-11.5,5.4-13.9,13.4-13.9c3,0,6.3,0.3,9.9,0.7c4.2,0.4,9,0.9,13.9,0.9h6.8
				c4.9,0,9.7-0.5,13.9-0.9c3.6-0.4,7-0.7,9.9-0.7c11,0,13.4,5.5,13.4,13.9h29.2l14,87.6H212.5z"/>
			<path class="st3" d="M323.5,112.1c8.1,0,13.2,2.5,13.2,13.9h29.2l13.9,87.2h-167L230,126h25.9c0-11.4,5.1-13.9,13.2-13.9
				c6.4,0,14.7,1.6,23.8,1.6h6.8C308.8,113.7,317.1,112.1,323.5,112.1 M323.5,111.7c-3,0-6.4,0.3-9.9,0.7c-4.2,0.4-9,0.9-13.9,0.9
				h-6.8c-4.9,0-9.7-0.5-13.9-0.9c-3.6-0.4-7-0.7-9.9-0.7c-4.7,0-7.7,0.9-9.9,2.8c-2.4,2.2-3.6,5.8-3.7,11.1h-25.9l-0.1,0.3
				l-17.2,87.2l-0.1,0.5h168l-0.1-0.5L366.3,126l-0.1-0.4h-29.2C336.9,113.4,330.5,111.7,323.5,111.7L323.5,111.7L323.5,111.7z"/>
		</g>
		<g>
			<rect x="213" y="213.4" class="st3" width="166.6" height="11.9"/>
			<path class="st4" d="M379.4,213.6v11.5H213.2v-11.5H379.4 M379.8,213.2h-167v12.3h167V213.2L379.8,213.2z"/>
		</g>
		<circle class="st3" cx="296.3" cy="168.5" r="31.4"/>
		<path class="st3" d="M296.3,130.7c20.9,0,37.8,16.9,37.8,37.8s-16.9,37.8-37.8,37.8s-37.8-16.9-37.8-37.8S275.4,130.7,296.3,130.7
			 M296.3,130.2c-21.1,0-38.2,17.1-38.2,38.2s17.1,38.2,38.2,38.2s38.2-17.1,38.2-38.2S317.4,130.2,296.3,130.2L296.3,130.2z"/>
		<g>
			<path class="st4" d="M296.3,188.2c-10.9,0-19.8-8.9-19.8-19.8s8.9-19.8,19.8-19.8s19.8,8.9,19.8,19.8S307.2,188.2,296.3,188.2z"
				/>
			<path class="st3" d="M296.3,148.9c10.8,0,19.6,8.8,19.6,19.6s-8.8,19.6-19.6,19.6s-19.6-8.8-19.6-19.6S285.5,148.9,296.3,148.9
				 M296.3,148.5c-11,0-20,9-20,20s9,20,20,20s20-9,20-20S307.3,148.5,296.3,148.5L296.3,148.5z"/>
		</g>
		<g>
			<path class="st4" d="M296.3,147.3c-2.3,0-4.2-1.9-4.2-4.2s1.9-4.2,4.2-4.2s4.2,1.9,4.2,4.2S298.6,147.3,296.3,147.3z"/>
			<path class="st3" d="M296.3,139c2.2,0,4,1.8,4,4s-1.8,4-4,4s-4-1.8-4-4S294.1,139,296.3,139 M296.3,138.6c-2.5,0-4.5,2-4.5,4.5
				s2,4.5,4.5,4.5s4.5-2,4.5-4.5S298.8,138.6,296.3,138.6L296.3,138.6z"/>
		</g>
		<g>
			<path class="st4" d="M284,151.1c-2.3,0-4.2-1.9-4.2-4.2s1.9-4.2,4.2-4.2s4.2,1.9,4.2,4.2S286.3,151.1,284,151.1z"/>
			<path class="st3" d="M284,142.8c2.2,0,4,1.8,4,4s-1.8,4-4,4s-4-1.8-4-4S281.8,142.8,284,142.8 M284,142.4c-2.5,0-4.5,2-4.5,4.5
				s2,4.5,4.5,4.5s4.5-2,4.5-4.5S286.5,142.4,284,142.4L284,142.4z"/>
		</g>
		<g>
			<path class="st4" d="M274.1,160.2c-2.3,0-4.2-1.9-4.2-4.2s1.9-4.2,4.2-4.2s4.2,1.9,4.2,4.2S276.4,160.2,274.1,160.2z"/>
			<path class="st3" d="M274.1,151.9c2.2,0,4,1.8,4,4s-1.8,4-4,4s-4-1.8-4-4S271.9,151.9,274.1,151.9 M274.1,151.5
				c-2.5,0-4.5,2-4.5,4.5s2,4.5,4.5,4.5s4.5-2,4.5-4.5S276.5,151.5,274.1,151.5L274.1,151.5z"/>
		</g>
		<g>
			<circle class="st4" cx="274.1" cy="181.4" r="4.2"/>
			<path class="st3" d="M274.1,177.3c2.2,0,4,1.8,4,4s-1.8,4-4,4s-4-1.8-4-4S271.9,177.3,274.1,177.3 M274.1,176.9
				c-2.5,0-4.5,2-4.5,4.5s2,4.5,4.5,4.5s4.5-2,4.5-4.5S276.5,176.9,274.1,176.9L274.1,176.9z"/>
		</g>
		<g>
			<path class="st4" d="M284,194.8c-2.3,0-4.2-1.9-4.2-4.2s1.9-4.2,4.2-4.2s4.2,1.9,4.2,4.2S286.3,194.8,284,194.8z"/>
			<path class="st3" d="M284,186.5c2.2,0,4,1.8,4,4s-1.8,4-4,4s-4-1.8-4-4S281.8,186.5,284,186.5 M284,186c-2.5,0-4.5,2-4.5,4.5
				s2,4.5,4.5,4.5s4.5-2,4.5-4.5S286.5,186,284,186L284,186z"/>
		</g>
		<g>
			<circle class="st4" cx="309" cy="146.8" r="4.2"/>
			<path class="st3" d="M309,142.8c2.2,0,4,1.8,4,4s-1.8,4-4,4s-4-1.8-4-4S306.8,142.8,309,142.8 M309,142.4c-2.5,0-4.5,2-4.5,4.5
				s2,4.5,4.5,4.5s4.5-2,4.5-4.5S311.5,142.4,309,142.4L309,142.4z"/>
		</g>
		<g>
			<path class="st4" d="M318.5,160.2c-2.3,0-4.2-1.9-4.2-4.2s1.9-4.2,4.2-4.2s4.2,1.9,4.2,4.2S320.8,160.2,318.5,160.2z"/>
			<path class="st3" d="M318.5,151.9c2.2,0,4,1.8,4,4s-1.8,4-4,4s-4-1.8-4-4S316.2,151.9,318.5,151.9 M318.5,151.5
				c-2.5,0-4.5,2-4.5,4.5s2,4.5,4.5,4.5s4.5-2,4.5-4.5S320.9,151.5,318.5,151.5L318.5,151.5z"/>
		</g>
		<g>
			<path class="st4" d="M296.3,198.2c-2.3,0-4.2-1.9-4.2-4.2s1.9-4.2,4.2-4.2s4.2,1.9,4.2,4.2S298.6,198.2,296.3,198.2z"/>
			<path class="st3" d="M296.3,189.9c2.2,0,4,1.8,4,4s-1.8,4-4,4s-4-1.8-4-4S294.1,189.9,296.3,189.9 M296.3,189.5
				c-2.5,0-4.5,2-4.5,4.5s2,4.5,4.5,4.5s4.5-2,4.5-4.5S298.8,189.5,296.3,189.5L296.3,189.5z"/>
		</g>
		<g>
			<path class="st4" d="M321.8,172.7c-2.3,0-4.2-1.9-4.2-4.2s1.9-4.2,4.2-4.2s4.2,1.9,4.2,4.2S324.1,172.7,321.8,172.7z"/>
			<path class="st3" d="M321.8,164.4c2.2,0,4,1.8,4,4s-1.8,4-4,4s-4-1.8-4-4S319.5,164.4,321.8,164.4 M321.8,164
				c-2.5,0-4.5,2-4.5,4.5s2,4.5,4.5,4.5s4.5-2,4.5-4.5S324.2,164,321.8,164L321.8,164z"/>
		</g>
		<g>
			<path class="st4" d="M270.9,172.7c-2.3,0-4.2-1.9-4.2-4.2s1.9-4.2,4.2-4.2s4.2,1.9,4.2,4.2S273.2,172.7,270.9,172.7z"/>
			<path class="st3" d="M270.9,164.4c2.2,0,4,1.8,4,4s-1.8,4-4,4s-4-1.8-4-4S268.6,164.4,270.9,164.4 M270.9,164
				c-2.5,0-4.5,2-4.5,4.5s2,4.5,4.5,4.5s4.5-2,4.5-4.5S273.3,164,270.9,164L270.9,164z"/>
		</g>
		<path class="st2" d="M191,107c0,0-1.4,10.8,3.5,20.1"/>
		<path class="st2" d="M128.9,180.5c0,0-10-4.4-20.2-2.3"/>
		<g>
			<path class="st4" d="M220.8,156.1l1.4-2.8c0.2-0.4,0.7-0.6,1.1-0.4l0,0c0.4,0.2,0.6,0.7,0.4,1.1l-1.4,2.8
				c-0.2,0.4-0.7,0.6-1.1,0.4v0C220.7,157,220.6,156.5,220.8,156.1z"/>
			<path class="st4" d="M218.9,155.1l1.4-2.8c0.2-0.4,0.7-0.6,1.1-0.4h0c0.4,0.2,0.6,0.7,0.4,1.1l-1.4,2.8c-0.2,0.4-0.7,0.6-1.1,0.4
				h0C218.9,155.9,218.7,155.5,218.9,155.1z"/>
			<path class="st4" d="M217.1,154.1l1.3-2.8c0.2-0.4,0.7-0.6,1.1-0.4h0c0.4,0.2,0.6,0.7,0.4,1.1l-1.3,2.8c-0.2,0.4-0.7,0.6-1.1,0.4
				l0,0C217.1,155,216.9,154.5,217.1,154.1z"/>
			<path class="st4" d="M215.2,153.4l1.1-2.9c0.2-0.4,0.6-0.6,1.1-0.5l0,0c0.4,0.2,0.6,0.6,0.5,1.1l-1.1,2.9
				c-0.2,0.4-0.6,0.6-1.1,0.5h0C215.2,154.3,215,153.9,215.2,153.4z"/>
			<path class="st4" d="M213,152.8l1-3c0.1-0.4,0.6-0.7,1-0.5h0c0.4,0.1,0.7,0.6,0.5,1l-1,3c-0.1,0.4-0.6,0.7-1,0.5h0
				C213.1,153.7,212.9,153.2,213,152.8z"/>
			<path class="st4" d="M210.9,152.3l0.6-3.1c0.1-0.4,0.5-0.7,1-0.6h0c0.4,0.1,0.7,0.5,0.6,1l-0.6,3.1c-0.1,0.4-0.5,0.7-1,0.6h0
				C211.1,153.2,210.8,152.8,210.9,152.3z"/>
			<path class="st4" d="M208.7,152l0.4-3.1c0.1-0.4,0.5-0.8,0.9-0.7h0c0.4,0.1,0.8,0.5,0.7,0.9l-0.4,3.1c-0.1,0.4-0.5,0.8-0.9,0.7h0
				C209,152.9,208.6,152.5,208.7,152z"/>
			<path class="st4" d="M206.3,152l0.1-3.1c0-0.5,0.4-0.8,0.9-0.8h0c0.5,0,0.8,0.4,0.8,0.9L208,152c0,0.5-0.4,0.8-0.9,0.8h0
				C206.6,152.8,206.3,152.4,206.3,152z"/>
			<path class="st4" d="M204.5,148.2L204.5,148.2c0.5,0,0.8,0.3,0.9,0.8l0.2,3.1c0,0.5-0.3,0.8-0.8,0.9h0c-0.5,0-0.8-0.3-0.9-0.8
				l-0.2-3.1C203.7,148.6,204,148.2,204.5,148.2z"/>
			<path class="st4" d="M201.5,148.7L201.5,148.7c0.4-0.1,0.9,0.2,1,0.7l0.6,3.1c0.1,0.4-0.2,0.9-0.7,1h0c-0.4,0.1-0.9-0.2-1-0.7
				l-0.6-3.1C200.7,149.2,201,148.8,201.5,148.7z"/>
			<path class="st4" d="M198.7,149.6L198.7,149.6c0.4-0.1,0.9,0.1,1,0.5l1,3c0.1,0.4-0.1,0.9-0.5,1h0c-0.4,0.1-0.9-0.1-1-0.5l-1-3
				C198.1,150.2,198.3,149.7,198.7,149.6z"/>
			<path class="st4" d="M196,150.7L196,150.7c0.4-0.2,0.9-0.1,1.1,0.3l1.5,2.8c0.2,0.4,0.1,0.9-0.3,1.1l0,0
				c-0.4,0.2-0.9,0.1-1.1-0.3l-1.5-2.8C195.4,151.4,195.6,150.9,196,150.7z"/>
			<path class="st4" d="M193.7,152L193.7,152c0.4-0.2,0.9-0.1,1.1,0.3l1.6,2.7c0.2,0.4,0.1,0.9-0.3,1.1h0c-0.4,0.2-0.9,0.1-1.1-0.3
				l-1.6-2.7C193.2,152.8,193.3,152.3,193.7,152z"/>
			<path class="st4" d="M191.3,153.8L191.3,153.8c0.4-0.3,0.9-0.2,1.1,0.2l1.8,2.5c0.3,0.4,0.2,0.9-0.2,1.1h0
				c-0.4,0.3-0.9,0.2-1.1-0.2l-1.8-2.5C190.9,154.6,190.9,154.1,191.3,153.8z"/>
			<path class="st4" d="M188.9,156L188.9,156c0.3-0.3,0.8-0.3,1.2,0l2.3,2.2c0.3,0.3,0.3,0.8,0,1.2v0c-0.3,0.3-0.8,0.3-1.2,0
				l-2.3-2.2C188.6,156.9,188.5,156.4,188.9,156z"/>
			<path class="st4" d="M186.8,158.4L186.8,158.4c0.3-0.3,0.8-0.4,1.2-0.1l2.4,2c0.3,0.3,0.4,0.8,0.1,1.2l0,0
				c-0.3,0.3-0.8,0.4-1.2,0.1l-2.4-2C186.5,159.3,186.5,158.8,186.8,158.4z"/>
			<path class="st4" d="M185.1,160.7L185.1,160.7c0.3-0.4,0.8-0.4,1.1-0.2l2.5,1.8c0.4,0.3,0.4,0.8,0.2,1.1l0,0
				c-0.3,0.4-0.8,0.4-1.1,0.2l-2.5-1.8C184.9,161.5,184.8,161,185.1,160.7z"/>
			<path class="st4" d="M183.4,163.2L183.4,163.2c0.2-0.4,0.8-0.5,1.1-0.3l2.6,1.7c0.4,0.2,0.5,0.8,0.3,1.1l0,0
				c-0.2,0.4-0.8,0.5-1.1,0.3l-2.6-1.7C183.3,164.1,183.2,163.6,183.4,163.2z"/>
			<path class="st4" d="M182,165.6L182,165.6c0.2-0.4,0.7-0.5,1.1-0.3l2.7,1.6c0.4,0.2,0.5,0.7,0.3,1.1v0c-0.2,0.4-0.7,0.5-1.1,0.3
				l-2.7-1.6C181.9,166.5,181.8,166,182,165.6z"/>
			<path class="st4" d="M180.7,168.2L180.7,168.2c0.2-0.4,0.7-0.6,1.1-0.4l2.8,1.4c0.4,0.2,0.6,0.7,0.4,1.1v0
				c-0.2,0.4-0.7,0.6-1.1,0.4l-2.8-1.4C180.6,169.1,180.5,168.6,180.7,168.2z"/>
			<path class="st4" d="M179.5,170.8L179.5,170.8c0.2-0.4,0.7-0.6,1.1-0.4l2.9,1.3c0.4,0.2,0.6,0.7,0.4,1.1v0
				c-0.2,0.4-0.7,0.6-1.1,0.4l-2.9-1.3C179.5,171.7,179.3,171.2,179.5,170.8z"/>
			<path class="st4" d="M178.4,173.5L178.4,173.5c0.2-0.4,0.7-0.6,1.1-0.4l2.9,1.3c0.4,0.2,0.6,0.7,0.4,1.1v0
				c-0.2,0.4-0.7,0.6-1.1,0.4l-2.9-1.3C178.4,174.4,178.2,173.9,178.4,173.5z"/>
			<path class="st4" d="M177.4,175.9L177.4,175.9c0.2-0.4,0.7-0.6,1.1-0.4l2.9,1.3c0.4,0.2,0.6,0.7,0.4,1.1v0
				c-0.2,0.4-0.7,0.6-1.1,0.4l-2.9-1.3C177.4,176.8,177.2,176.4,177.4,175.9z"/>
			<path class="st4" d="M176.3,178.4L176.3,178.4c0.2-0.4,0.7-0.6,1.1-0.4l2.9,1.3c0.4,0.2,0.6,0.7,0.4,1.1v0
				c-0.2,0.4-0.7,0.6-1.1,0.4l-2.9-1.3C176.3,179.3,176.1,178.8,176.3,178.4z"/>
			<path class="st4" d="M175.2,180.8L175.2,180.8c0.2-0.4,0.7-0.6,1.1-0.4l2.9,1.3c0.4,0.2,0.6,0.7,0.4,1.1v0
				c-0.2,0.4-0.7,0.6-1.1,0.4l-2.9-1.3C175.2,181.7,175,181.2,175.2,180.8z"/>
			<path class="st4" d="M174,183.4L174,183.4c0.2-0.4,0.7-0.6,1.1-0.4l2.8,1.4c0.4,0.2,0.6,0.7,0.4,1.1l0,0
				c-0.2,0.4-0.7,0.6-1.1,0.4l-2.8-1.4C174,184.3,173.8,183.8,174,183.4z"/>
			<path class="st4" d="M172.7,186.1L172.7,186.1c0.2-0.4,0.7-0.5,1.1-0.3l2.7,1.6c0.4,0.2,0.5,0.7,0.3,1.1l0,0
				c-0.2,0.4-0.7,0.5-1.1,0.3l-2.7-1.6C172.6,187,172.4,186.5,172.7,186.1z"/>
			<path class="st4" d="M171.1,188.9L171.1,188.9c0.2-0.4,0.7-0.5,1.1-0.3l2.7,1.6c0.4,0.2,0.5,0.7,0.3,1.1v0
				c-0.2,0.4-0.7,0.5-1.1,0.3l-2.7-1.6C171,189.8,170.9,189.3,171.1,188.9z"/>
			<path class="st4" d="M169.6,191.5L169.6,191.5c0.2-0.4,0.8-0.5,1.1-0.2l2.6,1.7c0.4,0.2,0.5,0.8,0.3,1.1v0
				c-0.2,0.4-0.8,0.5-1.1,0.2l-2.6-1.7C169.5,192.4,169.4,191.9,169.6,191.5z"/>
			<path class="st4" d="M168,194L168,194c0.2-0.4,0.8-0.5,1.1-0.2l2.6,1.7c0.4,0.2,0.5,0.8,0.3,1.1v0c-0.2,0.4-0.8,0.5-1.1,0.3
				l-2.6-1.7C167.9,194.9,167.8,194.4,168,194z"/>
			<path class="st4" d="M166.4,196.5L166.4,196.5c0.3-0.4,0.8-0.5,1.1-0.2l2.6,1.8c0.4,0.3,0.5,0.8,0.2,1.1l0,0
				c-0.3,0.4-0.8,0.5-1.1,0.2l-2.6-1.8C166.2,197.4,166.1,196.9,166.4,196.5z"/>
			<path class="st4" d="M164.5,199.1L164.5,199.1c0.3-0.4,0.8-0.4,1.2-0.1l2.5,1.9c0.4,0.3,0.4,0.8,0.1,1.2v0
				c-0.3,0.4-0.8,0.4-1.2,0.1l-2.5-1.9C164.3,199.9,164.2,199.4,164.5,199.1z"/>
			<path class="st4" d="M162.6,201.4L162.6,201.4c0.3-0.3,0.8-0.4,1.2-0.1l2.4,2c0.3,0.3,0.4,0.8,0.1,1.2l0,0
				c-0.3,0.3-0.8,0.4-1.2,0.1l-2.4-2C162.3,202.3,162.3,201.8,162.6,201.4z"/>
			<path class="st4" d="M160.5,203.8L160.5,203.8c0.3-0.3,0.8-0.3,1.2,0l2.3,2.1c0.3,0.3,0.3,0.8,0,1.2v0c-0.3,0.3-0.8,0.3-1.2,0
				l-2.3-2.1C160.2,204.6,160.2,204.1,160.5,203.8z"/>
			<path class="st4" d="M158.4,205.8L158.4,205.8c0.3-0.3,0.8-0.3,1.2,0l2.2,2.3c0.3,0.3,0.3,0.8,0,1.2l0,0c-0.3,0.3-0.8,0.3-1.2,0
				l-2.2-2.3C158.1,206.7,158.1,206.1,158.4,205.8z"/>
			<path class="st4" d="M156.2,207.7L156.2,207.7c0.4-0.3,0.9-0.2,1.2,0.1l2,2.4c0.3,0.4,0.2,0.9-0.1,1.2v0
				c-0.4,0.3-0.9,0.2-1.2-0.1l-2-2.4C155.8,208.5,155.8,208,156.2,207.7z"/>
			<path class="st4" d="M153.7,209.6L153.7,209.6c0.4-0.3,0.9-0.2,1.1,0.2l1.8,2.6c0.3,0.4,0.2,0.9-0.2,1.1l0,0
				c-0.4,0.3-0.9,0.2-1.1-0.2l-1.8-2.6C153.3,210.4,153.4,209.9,153.7,209.6z"/>
			<path class="st4" d="M151.4,211L151.4,211c0.4-0.2,0.9-0.1,1.1,0.3l1.6,2.7c0.2,0.4,0.1,0.9-0.3,1.1l0,0
				c-0.4,0.2-0.9,0.1-1.1-0.3l-1.6-2.7C150.9,211.8,151,211.3,151.4,211z"/>
			<path class="st4" d="M148.9,212.3L148.9,212.3c0.4-0.2,0.9,0,1.1,0.4l1.3,2.9c0.2,0.4,0,0.9-0.4,1.1h0c-0.4,0.2-0.9,0-1.1-0.4
				l-1.3-2.9C148.3,213,148.5,212.5,148.9,212.3z"/>
			<path class="st4" d="M146.1,213.4L146.1,213.4c0.4-0.2,0.9,0.1,1.1,0.5l1.1,2.9c0.2,0.4-0.1,0.9-0.5,1.1h0
				c-0.4,0.2-0.9-0.1-1.1-0.5l-1.1-2.9C145.4,214,145.6,213.5,146.1,213.4z"/>
			<path class="st4" d="M143.4,214L143.4,214c0.4-0.1,0.9,0.2,1,0.6l0.6,3.1c0.1,0.4-0.2,0.9-0.6,1l0,0c-0.4,0.1-0.9-0.2-1-0.6
				l-0.6-3.1C142.7,214.5,143,214.1,143.4,214z"/>
			<path class="st4" d="M140.3,214.4L140.3,214.4c0.5,0,0.8,0.3,0.9,0.8l0.2,3.1c0,0.5-0.3,0.8-0.8,0.9h0c-0.5,0-0.8-0.3-0.9-0.8
				l-0.2-3.1C139.6,214.8,139.9,214.4,140.3,214.4z"/>
			<path class="st4" d="M136,218.2l0.2-3.1c0-0.5,0.4-0.8,0.9-0.8h0c0.5,0,0.8,0.4,0.8,0.9l-0.2,3.1c0,0.5-0.4,0.8-0.9,0.8h0
				C136.3,219.1,135.9,218.7,136,218.2z"/>
			<path class="st4" d="M132.5,217.6l0.6-3.1c0.1-0.4,0.5-0.7,1-0.7h0c0.4,0.1,0.7,0.5,0.7,1l-0.6,3.1c-0.1,0.4-0.5,0.7-1,0.7h0
				C132.7,218.5,132.4,218.1,132.5,217.6z"/>
			<path class="st4" d="M128.9,216.4l1.1-3c0.2-0.4,0.6-0.6,1-0.5h0c0.4,0.2,0.6,0.6,0.5,1l-1.1,3c-0.2,0.4-0.6,0.6-1,0.5h0
				C128.9,217.3,128.7,216.9,128.9,216.4z"/>
		</g>
		<path class="st5" d="M253.6,16.5c0,0-170.6,24.3-68.9,54.9C286.3,102,341.5,142,293.5,142.3c-40.4,0.3-109.8,52.4-73.2,63.8
			c36.7,11.4,63.7,22.5,63.9,23.7c3.4,22.9-94.9,14.7-94.9,14.7l19.2-86.1l5.6-16.8c0,0,25.8-17.2,15.8-21.8
			c-54.8-24.6-32.6-103.3-32.6-103.3L253.6,16.5L253.6,16.5z"/>
		<path class="st5" d="M133.3,48.1c0,0-168.4-36.3-83.7,27.6c84.7,63.9,122.6,120.6,77.5,104.2c-38-13.8-121.2,11-90.8,34.5
			c30.4,23.4,52,43.2,51.7,44.4c-4.8,22.7-71.9-18.2-71.9-18.2l25.7-75.1l11-13.8c0,0,30.2-7.2,22.4-14.9
			C32.5,94.7,80.6,28.6,80.6,28.6L133.3,48.1L133.3,48.1z"/>
		<path class="st5" d="M270.1,152.8c0,0,3.3,6.8,8.5,4.8s-5.6,5.1-5.6,5.1l-2.9-1.6l-1.8-5.1L270.1,152.8L270.1,152.8z"/>
		<path class="st5" d="M268.2,163.9c0,0,1,7.5,6.5,7.2s-7,3-7,3l-2.2-2.5l0-5.4L268.2,163.9L268.2,163.9z"/>
		<path class="st5" d="M275.1,176.3c0,0-2.5,7.2,2.6,9.4s-7.5-0.4-7.5-0.4l-0.9-3.2l2.4-4.8L275.1,176.3L275.1,176.3z"/>
		<path class="st5" d="M322,152.6c0,0-7.3,2.1-6.2,7.5c1.1,5.5-4-6.4-4-6.4l2.1-2.6l5.3-0.8L322,152.6L322,152.6z"/>
		<path class="st5" d="M322.8,163.3c0,0-2.5,7.2,2.6,9.4s-7.5-0.4-7.5-0.4l-0.9-3.2l2.4-4.8L322.8,163.3L322.8,163.3z"/>
		<path class="st5" d="M310.4,203.6C310.4,203.6,310.4,203.6,310.4,203.6c-4.4,1.8-9.1,2.7-14.1,2.7c-20.9,0-37.8-16.9-37.8-37.8
			c0-4.4,0.7-8.6,2.1-12.4l0.8-2c0,0,15.7,41.6,46.9,44.4C322,199.6,319.1,199.2,310.4,203.6L310.4,203.6z"/>
		<path class="st5" d="M297.7,189.8c0,0-6.1,4.5-3.1,9.2c3,4.7-6-4.6-6-4.6l1.1-3.1l4.7-2.7L297.7,189.8L297.7,189.8z"/>
		<g>
			
				<rect x="312.8" y="176.9" transform="matrix(0.7071 -0.7071 0.7071 0.7071 -41.1926 278.7424)" class="st4" width="6.1" height="24.3"/>
			<path class="st3" d="M309.4,178.7l16.9,16.9l-4,4l-16.9-16.9L309.4,178.7 M309.4,178.1l-0.3,0.3l-4,4l-0.3,0.3l0.3,0.3l16.9,16.9
				l0.3,0.3l0.3-0.3l4-4l0.3-0.3l-0.3-0.3l-16.9-16.9L309.4,178.1L309.4,178.1z"/>
		</g>
	</g>
</g>
</svg>
