<?xml version="1.0" encoding="UTF-8"?><svg xmlns="http://www.w3.org/2000/svg" xmlns:xlink="http://www.w3.org/1999/xlink" viewBox="0 0 493.26 299.05"><defs><style>.e{fill:none;}.f{fill:#eddfd6;}.g{opacity:.19;}.g,.h{fill:#1d1d1b;}.h{stroke:#eddfd6;stroke-miterlimit:10;stroke-width:.42px;}.i{clip-path:url(#d);}</style><clipPath id="d"><rect class="e" x=".21" y=".21" width="492.84" height="298.63"/></clipPath></defs><g id="a"/><g id="b"><g id="c"><g class="i"><rect class="h" x=".21" y=".21" width="492.84" height="298.63"/></g><g><g><g><circle class="f" cx="232.02" cy="106.09" r="60.06"/><path class="f" d="M232.02,46.24c33.05,0,59.85,26.8,59.85,59.85s-26.8,59.85-59.85,59.85-59.85-26.8-59.85-59.85,26.8-59.85,59.85-59.85m0-.42c-33.24,0-60.27,27.04-60.27,60.27s27.04,60.27,60.27,60.27,60.27-27.04,60.27-60.27-27.04-60.27-60.27-60.27h0Z"/></g><path class="f" d="M172.16,106.09v51.55c0,4.22,.93,8.39,2.71,12.22l9.53,20.41c4.74,10.16,14.94,16.65,26.16,16.65h42.29c11.02,0,21.07-6.27,25.92-16.16l10.15-20.7c1.94-3.96,2.95-8.3,2.95-12.71v-51.26"/><rect class="f" x="201.52" y="193.46" width="62.56" height="58.99"/></g><rect class="h" x="211.16" y="157.31" width="43.15" height="20.89" rx="10.45" ry="10.45"/><rect class="f" x="190.99" y="204.43" width="82.67" height="12.59" rx="5.94" ry="5.94"/><rect class="f" x="190.99" y="217.02" width="82.67" height="23.02" rx="5.94" ry="5.94"/><rect class="f" x="190.99" y="240.04" width="82.67" height="12.77" rx="5.94" ry="5.94"/><path class="h" d="M192.37,119.46v19.53c0,1.97,1.98,3.33,3.82,2.61l25.08-9.77c2.38-.93,2.38-4.3,0-5.23l-25.08-9.77c-1.84-.72-3.82,.64-3.82,2.61Z"/><path class="h" d="M273.66,138.65v-19.53c0-1.97-1.98-3.33-3.82-2.61l-25.08,9.77c-2.38,.93-2.38,4.3,0,5.23l25.08,9.77c1.84,.72,3.82-.64,3.82-2.61Z"/></g><path class="g" d="M202.85,214.6s147-12,58.59-46.7c-84-32.97-117.74-28.21-92.55-60.25,25.19-32.05,93.38-44.54,62.2-54.23-31.18-9.69-54.17-19.12-54.32-20.11-2.85-19.5,80.65-12.47,80.65-12.47l49.06,47.45,1.51,66.26s-3.11,70,5.99,71.99c47.92,10.48-63.72,10.48-63.72,10.48l-47.4-2.42Z"/><polygon class="g" points="270.75 240.04 234.57 239.32 274.33 225.36 285.87 240.04 270.75 240.04"/></g></g></svg>