<?xml version="1.0" encoding="UTF-8"?><svg xmlns="http://www.w3.org/2000/svg" xmlns:xlink="http://www.w3.org/1999/xlink" viewBox="0 0 492.84 298.63"><defs><style>.e{fill:none;}.f{stroke-width:.53px;}.f,.g,.h,.i{fill:#eddfd6;}.f,.h,.i{stroke:#1d1d1b;}.f,.h,.i,.j{stroke-miterlimit:10;}.k,.l,.j{fill:#1d1d1b;}.h{stroke-width:.5px;}.l{opacity:.19;}.i,.j{stroke-width:.42px;}.j{stroke:#eddfd6;}.m{clip-path:url(#d);}</style><clipPath id="d"><rect class="e" width="492.84" height="298.63"/></clipPath></defs><g id="a"/><g id="b"><g id="c"><g class="m"><rect class="j" width="492.84" height="298.63"/></g><g><g><circle class="f" cx="188.09" cy="151.49" r="81.91"/><circle class="h" cx="188.09" cy="151.49" r="77.15"/><circle class="i" cx="188.09" cy="151.49" r="65.62"/></g><g><path class="k" d="M237.69,123.34c-.73-5.78-3.34-11.12-7.52-15.3-4.18-4.18-9.51-6.79-15.29-7.52,5.78-.73,11.11-3.34,15.29-7.52,4.19-4.18,6.79-9.53,7.52-15.3,1.52,11.87,10.95,21.31,22.83,22.82-5.78,.73-11.12,3.34-15.31,7.52-4.18,4.18-6.79,9.52-7.52,15.3Z"/><path class="g" d="M237.69,79.09c1.97,10.87,10.56,19.46,21.43,21.43-5.3,.95-10.18,3.49-14.06,7.37-3.88,3.88-6.42,8.76-7.37,14.05-.95-5.29-3.49-10.17-7.37-14.05-3.88-3.88-8.75-6.42-14.04-7.37,5.29-.95,10.16-3.49,14.04-7.37,3.89-3.89,6.42-8.76,7.37-14.06m0-4.75c0,7.22-2.93,13.77-7.67,18.51-4.73,4.74-11.28,7.67-18.51,7.67,7.23,0,13.78,2.93,18.51,7.67,4.74,4.74,7.67,11.29,7.67,18.52,0-7.23,2.93-13.78,7.67-18.52s11.29-7.67,18.52-7.67c-14.46,0-26.19-11.72-26.19-26.18h0Z"/></g><g><polygon class="k" points="186.09 104.56 159.17 149.56 186.09 137.92 213.39 149.56 186.09 104.56"/><polygon class="k" points="161.05 154.34 186.16 144.04 211.51 154.82 186.56 169.38 161.05 154.34"/><polygon class="k" points="159.45 159.82 186.56 198 213.67 160.2 186.56 175.95 159.45 159.82"/></g><g><ellipse class="f" cx="319.48" cy="151.49" rx="40.95" ry="81.91"/><ellipse class="h" cx="319.48" cy="151.49" rx="38.58" ry="77.15"/><ellipse class="i" cx="319.48" cy="151.49" rx="32.81" ry="65.62"/></g><g><path class="k" d="M344.28,121.97c-.47-5.23-1.73-10.04-3.65-13.88-2.1-4.22-4.81-6.84-7.74-7.58,2.93-.73,5.63-3.36,7.74-7.58,1.92-3.84,3.18-8.66,3.65-13.89,1.03,11.23,5.64,20,11.4,21.46-2.94,.73-5.64,3.36-7.75,7.58-1.92,3.84-3.17,8.65-3.65,13.88Z"/><path class="g" d="M344.29,80.98c1.31,9.96,5.47,17.67,10.67,19.53-2.73,.96-5.24,3.53-7.21,7.49-1.69,3.39-2.87,7.52-3.46,12.03-.58-4.51-1.76-8.65-3.46-12.03-1.97-3.95-4.47-6.52-7.19-7.48,2.73-.96,5.22-3.53,7.19-7.48,1.7-3.39,2.88-7.54,3.46-12.06m0-6.64c0,7.22-1.47,13.77-3.84,18.51-2.37,4.74-5.64,7.67-9.26,7.67,3.62,0,6.89,2.93,9.26,7.67,2.37,4.74,3.84,11.29,3.84,18.52,0-7.23,1.47-13.78,3.84-18.52,2.37-4.74,5.64-7.67,9.26-7.67-7.23,0-13.09-11.72-13.09-26.18h0Z"/></g><g><polygon class="k" points="318.48 104.56 305.02 149.56 318.48 137.92 332.13 149.56 318.48 104.56"/><polygon class="k" points="305.96 154.34 318.52 144.04 331.19 154.82 318.72 169.38 305.96 154.34"/><polygon class="k" points="305.16 159.82 318.72 198 332.27 160.2 318.72 175.95 305.16 159.82"/></g></g><path class="l" d="M164.86,231.54s145.01-20.7,58.59-46.7c-86.42-26-117.74-28.21-92.55-60.25,25.19-32.05,93.38-44.54,62.2-54.23-31.18-9.69-54.17-19.12-54.32-20.11-2.85-19.5,80.65-12.47,80.65-12.47l49.06,47.45,1.51,66.26s-2.51,68.17,5.99,71.99c46.58,20.94-63.33,8.06-63.33,8.06h-47.8Z"/><path class="l" d="M264.9,174.41s145.01-20.7,58.59-46.7c-86.42-26-117.74-28.21-92.55-60.25,25.19-32.05,93.38-44.54,62.2-54.23-31.18-9.69-55.3,6.69-55.45,5.7-2.85-19.5,80.88,17.62,80.88,17.62l49.96-8.45,1.51,66.26s-2.51,68.17,5.99,71.99c46.58,20.94-63.33,8.06-63.33,8.06h-47.8Z"/></g></g></svg>