<?xml version="1.0" encoding="UTF-8"?><svg xmlns="http://www.w3.org/2000/svg" xmlns:xlink="http://www.w3.org/1999/xlink" viewBox="0 0 493.26 299.05"><defs><style>.e,.f{fill:none;}.f,.g,.h{stroke-miterlimit:10;}.f,.g,.h,.i{stroke-width:.42px;}.f,.g,.i{stroke:#1d1d1b;}.j,.g,.i{fill:#eddfd6;}.k,.l,.h{fill:#1d1d1b;}.l{opacity:.19;}.h{stroke:#eddfd6;}.i{stroke-linecap:round;stroke-linejoin:round;}.m{clip-path:url(#d);}</style><clipPath id="d"><rect class="e" x=".21" y=".21" width="492.84" height="298.63"/></clipPath></defs><g id="a"/><g id="b"><g id="c"><g class="m"><rect class="h" x=".21" y=".21" width="492.84" height="298.63"/></g><rect class="g" x="98.93" y="228.19" width="59.15" height="5.95"/><rect class="g" x="97.14" y="222.24" width="59.15" height="5.95"/><rect class="g" x="100.61" y="216.29" width="59.15" height="5.95"/><rect class="g" x="105.68" y="210.35" width="59.15" height="5.95"/><rect class="g" x="119.79" y="204.4" width="59.15" height="5.95"/><rect class="g" x="118.24" y="198.45" width="59.15" height="5.95"/><path class="l" d="M82.74,208.02s55.96,5.2,37.26,13.14,12.09,31.39,23.02,26.55,27.67-3.67,27.67-3.67l-43.01-33.6-44.94-2.42Z"/><path class="l" d="M103.85,164.06s55.96,5.2,37.26,13.14,12.09,31.39,23.02,26.55c10.92-4.85,27.67-3.67,27.67-3.67l-43.01-33.6-44.94-2.42Z"/><g><g><g><path class="j" d="M192.97,234.52c-3.46,0-6.69-1.45-8.85-3.97-1.97-2.3-2.81-5.17-2.36-8.09l2.53-16.19c4.97-31.79,17.86-62.64,37.25-89.21l7.42-10.17c2.1-2.87,5.57-4.6,9.3-4.62l15.24-.09,15.24,.09c3.73,.02,7.2,1.75,9.3,4.62l7.42,10.17c19.4,26.57,32.28,57.42,37.25,89.21l2.53,16.19c.45,2.92-.39,5.79-2.36,8.09-2.16,2.52-5.39,3.97-8.85,3.97h-121.08Z"/><path class="k" d="M253.51,102.4l15.24,.09c3.66,.02,7.07,1.72,9.13,4.53l7.42,10.17c19.5,26.71,32.22,57.19,37.22,89.12l2.53,16.19c.96,6.23-4.23,11.82-11,11.82h-121.08c-6.77,0-11.96-5.59-11-11.82l2.53-16.19c4.99-31.93,17.71-62.41,37.22-89.12l7.42-10.17c2.06-2.82,5.47-4.51,9.13-4.53l15.24-.09m0-.42h0l-15.24,.09c-3.79,.02-7.33,1.78-9.47,4.71l-7.42,10.17c-19.42,26.59-32.31,57.47-37.29,89.3l-2.53,16.19c-.46,2.98,.39,5.91,2.41,8.26,2.2,2.57,5.49,4.04,9.01,4.04h121.08c3.52,0,6.81-1.47,9.01-4.04,2.01-2.35,2.87-5.28,2.41-8.26l-2.53-16.19c-4.98-31.83-17.87-62.71-37.29-89.3l-7.42-10.17c-2.13-2.92-5.67-4.68-9.47-4.71l-15.24-.09h0Z"/></g><path class="i" d="M239.1,60.53c1.35,5.54,10.52,16.56,13.47,16.56s13.05-11.02,14.39-16.56h0c-1.74,3.79,2.78,10.32,4.82,11.58,2.61,1.62,9.27,3.3,14.15,.31h0c-2.14,4.16-.41,9.16,1.42,11,2.23,2.22,13.94,5.38,19.18,1.92h0l-33.87,19.44-20.59,.37-20.59-.37-33.87-19.44h0c5.46,3.79,15.77-.19,18.08-2.5,1.93-1.93,7.57-7.92,5.17-12.32h0c5.13,3.31,10.77,2.76,13.57,1.46,3.17-1.47,6.68-7.41,4.68-11.45"/><rect class="h" x="227.45" y="102.4" width="50.89" height="5.52"/><rect class="h" x="247.92" y="140.22" width="9.3" height="8.02" rx="4.01" ry="4.01"/><rect class="h" x="248.48" y="192.12" width="9.37" height="11.33" rx="4.01" ry="4.01"/><path class="h" d="M241.94,182.72c1.54,0,2.89,.91,3.61,2.27,1.41,2.69,4.14,4.31,7.87,4.31,5.78,0,7.63-2.77,7.63-5.91,0-3.84-2.03-5.71-9.29-7.78-13.21-3.8-17.07-8.68-17.07-16.03,0-9.47,8.28-14.68,17.71-14.68s14.69,3.56,17,8.17c1.32,2.64-.66,5.75-3.62,5.75h-3.09c-1.49,0-2.9-.81-3.55-2.15-.86-1.79-2.61-3.54-6.83-3.54-5.03,0-6.45,2.96-6.45,5.37,0,3.42,1.85,4.95,10.22,7.31,11.69,3.26,16.08,7.97,16.08,16.31,0,10.4-7.95,15.4-19.13,15.39-9.05,0-15.18-3.52-17.89-9.07-1.29-2.64,.69-5.72,3.63-5.72h3.15Z"/></g><rect class="h" x="234.69" y="107.92" width="8.56" height="17.87"/></g><rect class="g" x="299.56" y="201.59" width="59.15" height="5.95" transform="translate(410.35 -174.36) rotate(70.24)"/><rect class="g" x="313.82" y="203.26" width="59.15" height="5.95" transform="translate(327 -193.99) rotate(56.67)"/><rect class="g" x="347.35" y="214.85" width="59.15" height="5.95" transform="translate(116.06 -130.7) rotate(23.16)"/><path class="l" d="M322.58,214.14s55.96,5.2,37.26,13.14,12.09,31.39,23.02,26.55,27.67-3.67,27.67-3.67l-43.01-33.6-44.94-2.42Z"/><path class="l" d="M410.38,168.36s-43.25,35.89-35.63,17.05c7.61-18.84-30.75-13.65-35.05-2.5s-16.97,22.16-16.97,22.16l54.17-6.65,33.49-30.07Z"/><path class="f" d="M224.12,238.36s-21.15,6.69-21.02-30.12"/><path class="f" d="M196.09,191.46s-14.52,36.62,9.84,46.82"/><path class="l" d="M235.5,18.21s-170.58,24.35-68.92,54.93c101.65,30.58,156.82,70.55,108.87,70.88-40.44,.27-109.84,52.39-73.16,63.79,36.68,11.4,63.72,22.5,63.89,23.66,3.36,22.93-94.87,14.67-94.87,14.67l19.21-86.11,5.59-16.75s25.8-17.25,15.81-21.75c-54.8-24.64-32.64-103.32-32.64-103.32h56.23Z"/></g></g></svg>