<svg version="1.2" xmlns="http://www.w3.org/2000/svg" viewBox="0 0 1200 800" width="1200" height="800"><style>.a{fill:#222}.b{fill:#eddfd6}.c{opacity:1;fill:#222}</style><path class="a" d="m-117-55h1434v957h-1434z"/><path class="b" d="m476 453.9c-2.5-0.2-11.3-1-19.5-1.7-10.6-0.9-15.3-1-16.4-0.3-0.8 0.5-2.6 2.5-3.9 4.5-1.2 2-2.3 4.1-2.3 4.7 0 0.6-0.4 1.1-0.9 1.1-0.5 0-0.9 0.4-0.9 0.8 0 0.5-0.4 1.4-0.9 2-0.5 0.6-2.5 3.6-4.5 6.7-2 3.1-6.1 9.4-9.1 14-2.9 4.7-5.3 8.8-5.3 9.3 0 0.5-0.3 1-0.7 1.1-0.3 0.1-2.7 3.3-5.2 7.1-2.4 3.8-4.5 7.4-4.5 8 0 0.6-0.4 1.1-0.9 1.1-0.4 0-0.8 0.6-0.8 1.3 0 0.7-0.4 1.3-0.9 1.3-0.5 0-0.9 0.6-0.9 1.3 0 0.7-0.2 1.3-0.6 1.3-0.4 0-1.4 1.4-2.4 3.2-0.9 1.8-3.3 4.9-5.2 7-1.9 2.1-4.8 4.6-6.4 5.6-1.7 1-3.3 2-3.5 2.3-0.2 0.2-1.8 1-3.4 1.6-2.3 0.8-8.5 1.1-23.4 1.1-15.3 0-20.5-0.3-21.2-1.1-0.6-0.6-1.5-2.5-2-4.2-0.6-1.6-1.7-5.1-2.4-7.7-0.7-2.6-1.4-5.4-1.5-6.1-0.2-0.7-0.6-2.8-1-4.7-0.3-1.9-0.8-4.3-0.9-5.2-0.2-1-0.6-2.9-0.9-4.3-0.3-1.5-0.5-5.7-0.6-9.5 0-3.8 0.2-8.3 0.5-10 0.3-1.6 0.6-3.1 0.6-3.2 0-0.1 0.1-0.5 0.1-0.9 0.1-0.3 0.5-1.1 1.1-1.7 0.6-0.7 0.6-1.1 0.1-1.1-0.5 0-0.4-0.3 0.1-0.6 0.5-0.4 1.5-1.7 2.2-3 0.6-1.3 3.5-5.7 6.4-9.9 2.8-4.2 5.8-8.4 6.7-9.4 0.8-0.9 1.5-2.2 1.5-2.8 0-0.6 0.3-1.2 0.6-1.3 0.4-0.1 1.7-1.7 3-3.4 1.4-1.8 2.4-3.5 2.4-3.7 0-0.2 1-1.5 2.1-2.8 1.2-1.3 2-2.6 1.8-2.8-0.2-0.3 0.6-1.4 1.8-2.6 1.2-1.2 2.1-2.7 2.1-3.3 0-0.5 0.3-1 0.6-1 0.4 0 1.5-1.4 2.4-3 1-1.7 2-3.1 2.4-3.1 0.3 0 0.8-0.7 1-1.5 0.2-0.8 1.6-2.9 3-4.5 1.5-1.7 2.7-3.5 2.7-4.1 0-0.6 0.4-1.1 0.8-1.1 0.5 0 0.9-0.4 0.9-0.9 0-0.5 0.4-1.3 0.9-1.9 0.5-0.6 4-5.5 7.8-10.8 3.8-5.4 6.9-10.1 6.9-10.6 0-0.5 0.3-1 0.6-1.1 0.4-0.1 2.7-3 5.2-6.5 2.5-3.4 4.3-6.2 4-6.2-0.3 0 0.2-0.7 1-1.5 0.9-0.9 3.7-4.9 6.3-8.9 2.7-4 5.7-8.3 6.7-9.5 1.1-1.2 1.8-2.5 1.6-2.8-0.2-0.4-0.1-0.6 0.2-0.6 0.4 0 2.8-3.2 5.4-7.1 2.6-4 5-7.4 5.2-7.6 0.3-0.3 1.5-1.9 2.8-3.7 1.3-1.8 2.2-3.3 2-3.3-0.3 0 0.5-0.9 1.7-2.1 1.2-1.2 2.1-2.5 1.9-2.8-0.1-0.4 0.9-1.9 2.2-3.3 1.3-1.4 2.8-3.5 3.4-4.7 0.6-1.2 1.3-2.4 1.6-2.6 0.3-0.2 2.3-3.1 8.6-12.1l-4.7-11.4c-2.6-6.3-5.2-13.3-5.8-15.6-0.7-2.3-1.4-4.1-1.6-4.1-0.2 0-0.5-0.7-0.6-1.5-0.1-0.8-1.2-5.6-2.4-10.6-1.2-5-2.7-13.1-3.2-18.1-0.8-7-0.7-11.2 0.1-18.2 0.6-5 2-12.3 3.2-16.4 1.2-4 3.4-10.1 4.9-13.4 1.6-3.3 5.1-9.5 7.8-13.8 3.2-4.9 8.5-11.2 14.3-16.9 5-5 12.8-11.7 17.3-14.8 4.5-3.2 12.1-7.7 16.9-10 4.7-2.4 10.2-5 12.1-5.8 1.9-0.8 6.1-2.4 9.5-3.5 3.3-1.1 9.3-2.8 13.3-3.8 4.1-1 9.7-2.2 12.6-2.6 2.8-0.5 12.3-0.7 21.1-0.6 13.9 0.3 17.2 0.6 24.7 2.6 4.7 1.2 10.7 3.1 13.3 4.1 2.7 1 7.9 3.4 11.7 5.3 3.8 1.8 10.2 5.6 14.3 8.2 4 2.7 11 8.6 15.6 13.1 4.5 4.5 10.3 10.9 12.7 14.3 2.5 3.3 6.5 9.7 9 14.2 2.5 4.5 4.6 8.4 4.6 8.7 0 0.2 1.2 3.3 2.6 6.9 1.4 3.5 2.6 6.7 2.7 7.1 0.2 0.4 0.3 0.8 0.3 1.1 0 0.2 0 0.6 0 0.8 0 0.3 0.6 2.9 1.3 5.9 0.8 2.9 1.8 7.9 2.3 11 0.5 3.1 1 13.2 1.2 22.4 0.1 11.2-0.2 18.9-0.9 22.9-0.6 3.4-1.4 7.4-1.6 9.1-0.3 1.7-0.9 4.5-1.4 6.3-0.5 1.8-0.6 3.2-0.2 3.2 0.3-0.1 0.1 0.4-0.5 1.1-0.6 0.6-0.9 1.3-0.7 1.5 0.1 0.2-0.7 2.9-4.2 11.6"/><path class="c" d="m461.9 322.5c0.3 0 1.8 1.3 6 5.6l-7.3 10.4c-4 5.7-8 10.8-8.8 11.4-0.8 0.6-1.1 1.1-0.8 1.1 0.4 0-1.9 3.6-5.1 8-3.1 4.4-6 8.1-6.4 8.2-0.4 0.1-0.8 0.6-0.8 1.1 0 0.5-2.3 4.2-5.3 8.4-2.9 4.2-5.6 7.7-6 7.8-0.4 0.1-0.8 0.6-0.8 1.1 0 0.4-1.2 2.6-2.8 4.7-1.5 2.2-3.1 3.9-3.4 3.9-0.4 0-0.7 0.6-0.7 1.3 0 0.7-0.4 1.3-0.8 1.3-0.5 0-0.9 0.6-0.9 1.3 0 0.7-0.6 1.5-1.3 1.7-0.7 0.2-1.3 0.9-1.3 1.5 0 0.6-1 2.3-2.1 3.7-1.2 1.4-2.6 3.1-3.1 3.7-0.4 0.6-0.8 1.2-0.8 1.5 0 0.2-3.4 5.1-7.6 10.9-4.2 5.7-8.1 11.2-8.9 12.3-0.7 1-1.5 1.9-1.9 2-0.4 0.2-0.7 0.6-0.7 1.1 0 0.5-3.3 5.6-7.4 11.5-4.1 5.8-9.1 12.7-11 15.3-1.9 2.6-3.8 4.8-4.2 5-0.4 0.1-0.7 0.8-0.7 1.5 0 0.7-0.4 1.3-0.8 1.3-0.5 0-0.9 0.4-0.9 1 0 0.6-1 2.2-2.2 3.5-1.2 1.3-2.1 2.6-2.1 2.8 0 0.2-1.6 2.7-3.5 5.4-2 2.7-4.9 5.6-9.5 8v-2.6c0-1.4 0.5-3.5 1.1-4.5 0.6-1.1 1.3-2.2 1.5-2.4 0.3-0.3 2-2.9 3.9-5.8 1.9-3 3.7-5.4 4.1-5.4 0.3 0 0.6-0.6 0.6-1.3 0-0.8 0.6-1.5 1.3-1.8 0.7-0.2 1.3-0.9 1.3-1.5 0-0.6 0.8-1.9 1.7-3 1-1.1 1.8-2.1 1.8-2.4 0-0.2 1.8-3.1 4.1-6.5 2.3-3.3 4.4-6 4.7-6 0.4 0 0.7-0.4 0.7-0.9 0-0.4 3.6-6 8-12.3 4.3-6.3 8.2-11.5 8.6-11.6 0.4-0.1 0.7-0.6 0.7-1.1 0-0.5 2.2-4.1 4.9-8 2.7-3.9 5.3-7.2 5.6-7.3 0.4-0.2 0.7-0.6 0.7-1.1 0-0.5 2.4-4.4 5.4-8.7 3-4.3 5.7-7.8 6.1-7.7 0.3 0 0.6-0.4 0.6-0.9 0-0.5 1.2-2.7 2.8-5 1.5-2.2 3-4.3 3.3-4.5 0.3-0.2 1.3-1.7 2.2-3.2 0.9-1.6 1.9-2.9 2.3-2.9 0.3 0.1 0.6-0.5 0.6-1.2 0-0.7 0.4-1.3 0.9-1.3 0.5 0 0.9-0.5 0.9-1.1 0-0.6 1.4-3 3.2-5.4 1.7-2.4 5.3-7.4 7.9-11.2 2.6-3.8 5-7 5.4-7.2 0.4-0.1 0.8-0.8 0.8-1.5 0-0.7 0.3-1.3 0.8-1.3 0.5 0 0.9-0.5 0.9-1 0-0.6 0.9-2.2 2.1-3.5 1.2-1.3 2.2-2.7 2.2-3 0-0.4 0.7-1.5 1.5-2.4 0.9-1 2.5-3.3 3.7-5.2 1.2-1.8 2.7-3.9 3.3-4.5 0.6-0.6 1.4-1.1 1.7-1.1z"/><path class="c" d="m573.5 164c5 0.2 10.9 1 13 1.6 2.1 0.7 6 2.2 8.6 3.4 2.6 1.2 6.7 3.6 9.1 5.4 2.4 1.8 5.8 4.9 7.6 6.8 1.8 2 4.4 5.1 5.7 7 1.3 1.9 3.4 5.6 4.6 8.2 1.2 2.6 2.8 7.3 3.6 10.4 0.8 3.1 1.4 9.2 1.4 13.8 0 5.2-0.6 10.4-1.6 14.3-0.8 3.3-2.9 8.7-4.5 12-1.7 3.2-4.9 8.1-7.3 10.7-2.4 2.6-5.4 5.2-6.7 5.9-1.3 0.6-2.7 1.2-3 1.3-0.4 0-1.1 0.2-1.5 0.5-0.5 0.2-3 0.2-5.7-0.1-2.6-0.2-5.3-0.5-6-0.7-0.7-0.3-2.4-0.7-3.7-1-1.3-0.3-2.4-1-2.4-1.4 0-0.5-1.3-1.3-3-1.8-1.6-0.4-3-1.2-3-1.7 0-0.5-0.5-0.9-1.1-0.8-0.6 0-1.9-0.8-3-1.8-1.1-0.9-2.3-1.7-2.8-1.7-0.5 0-1.1-0.6-1.3-1.3-0.2-0.7-0.7-1.1-1.1-0.9-0.3 0.2-1.9-0.8-3.4-2.2-1.6-1.4-3.1-2.5-3.5-2.5-0.4 0-1.7-0.9-2.9-1.9-1.2-1.1-3.2-2.6-4.3-3.2-1.1-0.7-6.5-4.4-11.9-8.2-5.5-3.9-12-9-14.6-11.4-2.6-2.3-5.9-6.2-7.2-8.6-2-3.4-2.5-5.4-2.5-9.5 0-4.2 0.5-6.3 3-11.2 1.6-3.4 4.9-8.2 7.1-10.8 2.3-2.5 6.3-6.2 8.9-8.1 2.6-1.9 7.1-4.5 10-5.8 2.8-1.2 6.9-2.7 9-3.2 2.2-0.6 4.7-1.2 5.6-1.4 1-0.2 5.8-0.3 10.8-0.1z"/><path class="a" d="m667.5 689c-115.3 0-208.5-93.2-208.5-208.5 0-115.3 93.2-208.5 208.5-208.5 115.3 0 208.5 93.2 208.5 208.5 0 115.3-93.2 208.5-208.5 208.5z"/><path class="b" d="m654.5 297.4v96.4l18.1 0.4v-97.2l5.9 0.7c3.2 0.4 10.6 1.7 16.4 2.8 5.8 1.2 14.9 3.5 20.3 5.2 5.3 1.7 15.1 5.8 21.8 9 6.6 3.3 15.4 8.1 19.4 10.9 4.1 2.7 10.9 7.7 15.1 11.2 4.3 3.4 10.5 9.1 13.9 12.6 3.3 3.5 7.8 8.5 10 11.1 2.2 2.6 6.9 9.1 10.4 14.3 3.5 5.2 8.6 14 11.3 19.4 2.7 5.5 6.5 14.6 8.4 20.3 2 5.7 4.5 14.7 5.6 19.9 1.1 5.2 2.5 14.2 3.1 19.9 0.6 6.3 0.9 15.3 0.6 23.3-0.3 7.1-1.3 17.4-2.3 22.9-0.9 5.4-2.9 14-4.4 19-1.4 5-3.6 11.8-4.9 15.1-1.3 3.3-4.6 10.5-7.4 16-2.8 5.4-7.5 13.4-10.4 17.7-2.9 4.3-7.6 10.7-10.6 14.2-3 3.6-9 10-13.5 14.3-4.4 4.3-10.4 9.6-13.3 11.8-2.8 2.1-8.1 5.9-11.6 8.2-3.6 2.4-9.8 6.2-13.9 8.3-4 2.2-11.2 5.5-15.9 7.4-4.8 1.9-12.8 4.7-17.8 6.1-4.9 1.4-12.5 3.2-16.8 3.9-4.3 0.8-10.4 1.7-19.5 2.7l0.1-97.7-3.2 0.7c-1.8 0.3-5.9 0.6-15 0.6v96.3l-8.4-0.6c-4.6-0.3-11.9-1.2-16.2-1.9-4.3-0.8-12-2.6-17.3-4.1-5.2-1.5-13.9-4.6-19.4-6.9-5.5-2.3-14-6.5-19-9.4-5-2.8-12.6-7.8-16.9-11-4.2-3.2-12.1-10-17.5-15.3-5.4-5.2-12.3-12.6-15.2-16.4-3-3.8-7.7-10.4-10.5-14.7-2.7-4.3-7.4-12.9-10.4-19-2.9-6.2-6.7-15.5-8.4-20.8-1.6-5.2-3.8-13.2-4.7-17.7-1-4.5-2.3-12.9-2.9-18.6-0.6-6.1-0.8-15.9-0.5-24.1 0.3-7.6 1.2-17.6 1.9-22.1 0.7-4.5 2.7-12.8 4.4-18.5 1.6-5.7 4.5-14.3 6.5-19.1 1.9-4.7 5.2-11.9 7.4-15.9 2.2-4.1 5.9-10.3 8.3-13.9 2.4-3.5 6.5-9.1 9.2-12.5 2.7-3.3 7.2-8.5 10-11.5 2.9-3.1 8.7-8.6 13-12.2 4.3-3.7 11.7-9.3 16.4-12.5 4.8-3.2 13.7-8.3 19.9-11.4 6.2-3 15.9-7 21.6-8.9 5.7-1.8 13.3-4 16.8-4.8 3.6-0.7 9.8-1.9 13.9-2.5 4-0.7 9.7-1.2 18.1-1.4z"/><path class="a" d="m631 318.7c0.8-0.1 1 8.2 1 77.2l-4.9 2.5c-2.8 1.3-7.4 4.1-10.2 6.2-2.9 2-7 5.4-9.2 7.4-2.2 2.1-5.9 6.1-8.1 9-2.3 2.8-6 9-8.3 13.8-2.2 4.7-4.7 11.2-5.5 14.3-0.8 3-1.7 9.6-1.9 14.6-0.4 5.6-0.1 11.7 0.5 16 0.6 3.8 2.3 10.2 3.7 14.3 1.4 4 3.5 9.1 4.7 11.2 1.3 2.1 4.3 6.6 6.7 9.9 2.4 3.3 6.7 8.1 9.6 10.6 2.8 2.6 8.3 6.6 12.1 9 3.8 2.3 7.8 4.4 8.8 4.7 1.9 0.4 2 0.6 2 12.5 0 9.1-0.3 12.1-1.1 12-0.6 0-4.4-1.3-8.4-3-4.1-1.7-10.1-4.7-13.4-6.7-3.3-1.9-8.8-5.9-12.1-8.7-3.3-2.7-8.3-7.6-11.2-10.8-2.8-3.2-6.5-7.9-8.3-10.5-1.7-2.6-4.6-7.6-6.3-11-1.7-3.5-4.1-9.1-5.3-12.5-1.1-3.5-2.7-9.2-3.5-12.8-0.7-3.5-1.6-10.7-1.8-16-0.3-6.6-0.1-12 0.9-18.1 0.8-4.8 2.3-11.4 3.3-14.7 0.9-3.3 3.4-9.5 5.4-13.8 2.1-4.3 5.4-10.3 7.5-13.3 3.3-4.8 4.3-5.7 8.1-6.9 2.4-0.8 5.4-2.1 6.7-2.9 1.3-0.8 3.3-2.8 4.4-4.3 1.1-1.6 2.6-4.4 3.2-6.3 0.6-2.1 0.8-5.1 0.5-7.8-0.3-2.3-1.5-5.8-2.5-7.6-1.1-1.8-3.7-4.5-5.8-5.9-2.2-1.4-5.3-2.7-6.9-3-1.7-0.3-4.6-0.4-6.5-0.2-1.9 0.2-5.2 1.5-7.4 2.8-2.1 1.2-5 3.9-6.3 6-1.3 2-2.6 5.7-3 8.4-0.6 3.6-1.9 6.4-5.8 12-2.7 4.1-6.6 10.7-8.6 14.7-2 4.1-4.9 10.9-6.5 15.1-1.5 4.3-3.5 11.3-4.4 15.6-1.1 4.8-1.9 12.8-2.3 21.2-0.3 8.7-0.1 16.4 0.6 22 0.6 4.7 2 11.9 3.1 16 1.1 4 3.2 10.4 4.6 14.2 1.5 3.8 4.7 10.4 7.1 14.7 2.4 4.3 6.6 10.7 9.2 14.3 2.6 3.5 8.5 10.2 13.1 14.7 4.7 4.6 12 10.7 16.9 14 4.8 3.1 12.5 7.6 17.3 9.9 4.8 2.3 12.4 5.3 25.5 9.3v12.8c0 11.5-0.2 12.7-1.5 12.7-0.9 0-5.3-1-9.8-2.2-4.5-1.2-11.7-3.6-15.9-5.3-4.3-1.7-10.3-4.4-13.4-5.9-3.1-1.6-9.3-5.3-13.9-8.2-4.5-3-11.1-7.8-14.6-10.8-3.6-2.9-9.4-8.4-12.9-12.2-3.5-3.7-8.7-9.9-11.5-13.7-2.9-3.8-6.8-9.6-8.7-13-2-3.3-5-8.9-6.7-12.5-1.8-3.6-4.8-11.1-6.7-16.8-1.9-5.8-4.1-13.3-4.8-16.9-0.8-3.6-1.8-10.4-2.4-15.1-0.6-5.4-0.8-14-0.5-22.9 0.4-10.2 1.2-17.2 2.7-24.6 1.2-5.7 3.9-15.3 6.1-21.2 2.2-5.9 6.1-14.7 8.6-19.4 2.5-4.8 6.9-12 9.8-16 2.9-4 7.9-10.4 11.2-14 3.2-3.7 8.6-9.1 11.9-12 3.4-3 8.8-7.4 12.1-9.8 3.3-2.4 7.6-5.4 9.5-6.6 1.9-1.3 7.4-4.2 12.1-6.6 4.8-2.4 11.4-5.3 14.7-6.6 3.3-1.2 9.8-3.2 14.3-4.4 4.5-1.1 8.7-2.1 9.3-2.1zm64.1 0.8l2.4 0.5c1.3 0.3 6.9 2.1 12.5 3.9 5.6 1.9 14.1 5.4 19 7.8 4.9 2.5 12.2 6.7 16.2 9.4 4 2.7 9.7 6.9 12.5 9.2 2.9 2.4 8.5 7.7 12.5 11.9 4.1 4.1 10.2 11.3 13.6 15.9 3.5 4.6 8.2 11.9 10.6 16.1 2.4 4.3 5.7 11.3 7.4 15.6 1.8 4.3 3.9 10.1 4.8 13 0.9 2.8 2.3 8.4 3.3 12.5 0.9 4 2.1 11.1 2.6 15.7 0.5 4.7 0.9 12.8 0.9 18.2 0 5.3-0.6 13.8-1.2 18.8-0.7 5-2.3 13.1-3.6 18.1-1.3 5-3.7 12.6-5.3 16.9-1.6 4.2-4.7 11-6.8 15.1-2.1 4-6.1 10.8-9 15.1-2.9 4.3-8 11.1-11.5 15.1-3.5 4-9.8 10.4-14 14.2-4.3 3.7-11.9 9.5-16.9 12.8-4.9 3.3-12.9 7.9-17.7 10.2-4.7 2.3-12.7 5.5-17.7 7.2-5 1.6-10.3 3.2-14.7 4l0.5-78.9 5.6-3.4c3.1-1.9 7.7-5.2 10.1-7.2 2.5-2.1 4.6-4.3 4.6-4.9 0-0.6-3.3-4.4-14.5-15.8l-5.1 4.3c-2.8 2.3-8.1 5.7-11.9 7.4-3.8 1.8-9 3.7-11.5 4.2-2.5 0.5-7.9 1-12.1 0.9-4.1 0-9.9-0.5-12.7-1.2-2.9-0.7-7.5-2.3-10.4-3.6-2.9-1.4-7.1-3.9-9.5-5.6-2.4-1.8-5.9-4.9-7.8-6.9-1.9-2.1-4.7-5.8-6.2-8.1-1.5-2.4-3.7-6.7-4.9-9.5-1.1-2.9-2.6-8.5-3.2-12.6-0.6-4.3-0.8-9.6-0.4-12.9 0.3-3.1 1.5-8.6 2.7-12.1 1.1-3.6 3.6-8.9 5.5-11.9 1.9-3 5.8-7.6 8.6-10.4 2.8-2.7 7.2-6.2 9.7-7.7 2.6-1.6 7.6-3.9 11.1-5.2 5.8-2.1 7.7-2.3 17.8-2.3 9.5 0 12 0.3 16.8 2 3.1 1.1 7.8 3.2 10.4 4.7 2.6 1.5 6.9 4.6 14.2 10.9l7.5-7.5c6.2-6.2 7.4-7.9 6.7-9.1-0.4-0.8-3.6-3.7-7.1-6.3-3.4-2.7-8-5.9-14.3-9.5l-0.3-11.9c-0.1-6.6 0-12.1 0.4-12.3 0.4-0.2 3.9 1.1 7.8 2.9 3.9 1.8 10 5.2 13.6 7.6 3.5 2.3 10.2 7.9 14.7 12.4 4.5 4.6 10 10.8 12 13.9 2.1 3.1 5.3 8.5 7.1 12.1 1.8 3.5 4.2 9.4 5.5 12.9 1.2 3.6 2.8 9.8 3.6 13.9 0.8 4.4 1.3 11.5 1.3 18.1-0.1 5.9-0.5 13.5-1 16.8-0.5 3.4-2.2 9.8-3.6 14.3-1.5 4.5-4.4 11.5-6.5 15.5-2.1 4.1-5.3 9.3-7 11.6-2.3 3-4.3 4.6-6.7 5.5-1.9 0.6-4.9 2.6-6.7 4.4-1.8 1.7-3.9 4.9-4.7 7-1 2.7-1.3 5.5-1 8.7 0.3 3.3 1.2 5.9 2.9 8.6 1.8 2.6 4.1 4.6 7.3 6.3 3.3 1.7 6 2.4 8.9 2.4 2.2 0 5.3-0.6 6.9-1.2 1.5-0.6 4.1-2.3 5.7-3.7 1.6-1.3 3.7-4 4.7-5.9 1-2.1 1.8-5.4 1.8-8.2 0.1-4.2 0.7-5.7 4.8-12.1 2.6-4.1 6.5-11.3 8.8-16 2.2-4.8 4.9-11.2 5.9-14.3 1-3 2.7-9.5 3.7-14.2 1.6-7.3 1.9-11.4 1.9-25.5 0-14.3-0.3-18.1-1.9-25.5-1.1-4.7-3.2-12.1-4.6-16.4-1.5-4.3-4.3-10.9-6.2-14.7-1.9-3.8-4.4-8.5-5.7-10.4-1.2-1.9-3.9-5.7-6-8.6-2.1-2.8-6.8-8.2-10.4-12-3.6-3.7-9.1-8.8-12.2-11.2-3.1-2.5-7.4-5.7-9.5-7.2-2.1-1.4-6.5-4-9.7-5.8-3.2-1.7-9.2-4.4-13.4-6.1-4.2-1.6-8.6-3.1-12.3-3.9v-13.4z"/></svg>