<?xml version="1.0" encoding="UTF-8"?><svg xmlns="http://www.w3.org/2000/svg" xmlns:xlink="http://www.w3.org/1999/xlink" viewBox="0 0 493.26 299.05"><defs><style>.e,.f{fill:none;}.g{fill:#eddfd6;}.h,.i,.j{fill:#1d1d1b;}.f{stroke-width:17px;}.f,.j{stroke:#eddfd6;stroke-miterlimit:10;}.i{opacity:.19;}.j{stroke-width:.42px;}.k{clip-path:url(#d);}</style><clipPath id="d"><rect class="e" x=".21" y=".21" width="492.84" height="298.63"/></clipPath></defs><g id="a"/><g id="b"><g id="c"><g class="k"><rect class="j" x=".21" y=".21" width="492.84" height="298.63"/></g><g><rect class="g" x="200.79" y="39.99" width="44.59" height="219.08"/><path class="f" d="M228.67,245.02l11.53-14.15c5.38-6.6,11.13-12.92,17.43-18.65,47.58-43.25,44.56-86.82,.9-119.8-15.12-11.42-26.86-26.71-33.22-44.56h0"/><g><rect class="h" x="193.67" y="143.25" width="58.84" height="19.93" rx=".21" ry=".21"/><path class="g" d="M252.29,143.46v19.51h-58.42v-19.51h58.42m0-.42h-58.42c-.23,0-.42,.19-.42,.42v19.51c0,.23,.19,.42,.42,.42h58.42c.23,0,.42-.19,.42-.42v-19.51c0-.23-.19-.42-.42-.42h0Z"/></g></g><g><rect class="h" x="221.53" y="60.64" width="3.11" height="23.77" rx=".21" ry=".21"/><path class="g" d="M224.43,60.85v23.34h-2.69v-23.34h2.69m0-.42h-2.69c-.23,0-.42,.19-.42,.42v23.34c0,.23,.19,.42,.42,.42h2.69c.23,0,.42-.19,.42-.42v-23.34c0-.23-.19-.42-.42-.42h0Z"/></g><g><rect class="h" x="221.53" y="108.53" width="3.11" height="23.77" rx=".21" ry=".21"/><path class="g" d="M224.43,108.74v23.34h-2.69v-23.34h2.69m0-.42h-2.69c-.23,0-.42,.19-.42,.42v23.34c0,.23,.19,.42,.42,.42h2.69c.23,0,.42-.19,.42-.42v-23.34c0-.23-.19-.42-.42-.42h0Z"/></g><g><rect class="h" x="221.53" y="164.03" width="3.11" height="16.16" rx=".21" ry=".21"/><path class="g" d="M224.43,164.24v15.73h-2.69v-15.73h2.69m0-.42h-2.69c-.23,0-.42,.19-.42,.42v15.73c0,.23,.19,.42,.42,.42h2.69c.23,0,.42-.19,.42-.42v-15.73c0-.23-.19-.42-.42-.42h0Z"/></g><g><rect class="h" x="221.53" y="204.31" width="3.11" height="23.77" rx=".21" ry=".21"/><path class="g" d="M224.43,204.52v23.34h-2.69v-23.34h2.69m0-.42h-2.69c-.23,0-.42,.19-.42,.42v23.34c0,.23,.19,.42,.42,.42h2.69c.23,0,.42-.19,.42-.42v-23.34c0-.23-.19-.42-.42-.42h0Z"/></g><path class="i" d="M205.6,12.43S16.56,44.79,130.61,75.67c114.05,30.88,155.12,32.64,123.32,75.49-31.8,42.86-120.59,61.69-79.43,73.24,41.16,11.55,71.59,23.06,71.82,24.35,4.45,25.41-105.1,19.25-105.1,19.25l-65.93-60.32,63.27-97.79S71.71,31.71,60.45,27.02C-1.28,1.3,143.04,14.16,143.04,14.16l62.56-1.74Z"/></g></g></svg>