<svg width="1000" height="600" viewBox="0 0 1000 600" fill="none" xmlns="http://www.w3.org/2000/svg">
<rect width="1000" height="600" fill="#1D1D1B"/>
<mask id="mask0_33_73" style="mask-type:luminance" maskUnits="userSpaceOnUse" x="366" y="240" width="268" height="258">
<path d="M366.769 240.921H633.875V497H366.769V240.921Z" fill="white"/>
</mask>
<g mask="url(#mask0_33_73)">
<path fill-rule="evenodd" clip-rule="evenodd" d="M564.352 497.231H436.298C417.79 497.231 400.404 490.034 387.295 476.929C374.188 463.822 366.995 446.437 366.995 427.928V301.153C366.995 292.244 368.558 283.461 371.604 275.09L382.458 245.368C383.355 242.935 385.659 241.323 388.216 241.323H612.378C614.967 241.323 617.271 242.935 618.137 245.368L628.995 275.09C632.068 283.461 633.599 292.244 633.599 301.153V427.928C633.599 446.437 626.409 463.822 613.299 476.929C600.195 490.034 582.861 497.231 564.352 497.231ZM392.546 253.613L383.175 279.314C380.617 286.332 379.307 293.702 379.307 301.177V427.952C379.307 443.186 385.25 457.495 396 468.251C406.756 479 421.089 484.943 436.298 484.943H564.352C579.586 484.943 593.894 479 604.65 468.251C615.4 457.495 621.338 443.162 621.338 427.952V301.177C621.338 293.702 620.033 286.356 617.475 279.314L608.105 253.613H392.546Z" fill="#EBDBD3"/>
</g>
<mask id="mask1_33_73" style="mask-type:luminance" maskUnits="userSpaceOnUse" x="364" y="189" width="273" height="65">
<path d="M364 189.771H636.65V253.993H364V189.771Z" fill="white"/>
</mask>
<g mask="url(#mask1_33_73)">
<path fill-rule="evenodd" clip-rule="evenodd" d="M630.504 253.613H370.145C366.737 253.613 364 250.871 364 247.468V210.067C364 199.109 372.907 190.2 383.867 190.2H616.782C627.738 190.2 636.65 199.109 636.65 210.067V247.468C636.65 250.847 633.908 253.613 630.504 253.613ZM376.288 241.323H624.386V210.067C624.386 205.891 620.978 202.488 616.807 202.488H383.867C379.691 202.488 376.288 205.891 376.288 210.067V241.323Z" fill="#EBDBD3"/>
</g>
<mask id="mask2_33_73" style="mask-type:luminance" maskUnits="userSpaceOnUse" x="433" y="104" width="135" height="99">
<path d="M433.264 104H567.389V202.843H433.264V104Z" fill="white"/>
</mask>
<g mask="url(#mask2_33_73)">
<path fill-rule="evenodd" clip-rule="evenodd" d="M555.572 202.488C554.727 202.488 553.856 202.308 553.035 201.95C549.94 200.541 548.582 196.909 549.989 193.807C553.239 186.665 554.882 179.037 554.882 171.098C554.882 140.893 530.406 116.288 500.325 116.288C470.245 116.288 445.769 140.864 445.769 171.098C445.769 179.011 447.408 186.665 450.658 193.807C452.065 196.909 450.687 200.541 447.612 201.95C444.515 203.358 440.879 201.975 439.473 198.904C435.502 190.149 433.481 180.802 433.481 171.127C433.481 153.207 440.419 136.359 453.04 123.69C465.688 110.989 482.453 104 500.325 104C518.194 104 534.964 110.989 547.585 123.663C560.206 136.335 567.145 153.181 567.145 171.098C567.145 180.778 565.119 190.12 561.154 198.878C560.152 201.153 557.928 202.488 555.572 202.488Z" fill="#EBDBD3"/>
</g>
<path fill-rule="evenodd" clip-rule="evenodd" d="M513.151 202.741C510.772 202.741 508.516 201.362 507.517 199.058C506.163 195.932 507.597 192.324 510.692 190.966C511.28 190.712 511.613 190.428 511.817 189.558C512.05 188.586 511.946 187.358 511.766 186.537C510.487 180.625 503.834 178.294 498.892 177.039C485.141 173.84 477.282 166.341 477.282 156.431C477.282 144.989 487.625 135.669 500.351 135.669C510.743 135.669 519.885 141.969 522.598 150.976C523.572 154.231 521.725 157.661 518.475 158.631C515.225 159.605 511.793 157.76 510.82 154.51C509.666 150.723 505.266 147.957 500.324 147.957C494.383 147.957 489.546 151.773 489.546 156.431C489.546 158.173 490.725 162.522 501.709 165.055C501.734 165.055 501.783 165.087 501.809 165.087C514.355 168.232 521.75 174.557 523.776 183.899C525.541 192.067 522.313 199.262 515.585 202.179C514.788 202.592 513.971 202.741 513.151 202.741Z" fill="#EBDBD3"/>
<path fill-rule="evenodd" clip-rule="evenodd" d="M500.324 202.488C496.92 202.488 494.179 199.75 494.179 196.34V133.16C494.179 129.755 496.92 127.013 500.324 127.013C503.729 127.013 506.467 129.755 506.467 133.16V196.34C506.467 199.719 503.729 202.488 500.324 202.488Z" fill="#EBDBD3"/>
<path fill-rule="evenodd" clip-rule="evenodd" d="M500.324 398.768C482.452 398.768 465.687 391.781 453.066 379.105C440.443 366.435 433.505 349.587 433.505 331.669C433.505 313.749 440.443 296.904 453.066 284.232C465.687 271.555 482.479 264.569 500.324 264.569C518.166 264.569 534.963 271.555 547.584 284.232C560.205 296.904 567.145 313.749 567.145 331.669C567.145 349.587 560.205 366.435 547.584 379.105C534.963 391.781 518.193 398.768 500.324 398.768ZM500.324 276.857C470.244 276.857 445.768 301.437 445.768 331.669C445.768 361.88 470.244 386.48 500.324 386.48C530.405 386.48 554.881 361.904 554.881 331.669C554.881 301.461 530.405 276.857 500.324 276.857Z" fill="#EBDBD3"/>
<path fill-rule="evenodd" clip-rule="evenodd" d="M500.324 367.077C489.854 367.077 480.661 360.701 478.024 351.612C477.078 348.36 478.949 344.954 482.2 343.984C485.45 343.038 488.853 344.905 489.83 348.155C490.953 351.996 495.358 354.758 500.324 354.758C506.263 354.758 511.1 350.946 511.1 346.288C511.1 344.905 511.1 340.705 498.892 337.632C485.141 334.433 477.282 326.932 477.282 317.024C477.282 305.582 487.625 296.262 500.351 296.262C510.743 296.262 519.885 302.56 522.598 311.574C523.572 314.824 521.725 318.254 518.475 319.224C515.225 320.198 511.793 318.354 510.82 315.103C509.666 311.316 505.266 308.552 500.324 308.552C494.383 308.552 489.546 312.366 489.546 317.024C489.546 318.766 490.725 323.116 501.709 325.653C501.734 325.653 501.783 325.68 501.809 325.68C507.905 327.216 512.563 329.263 516.042 331.925C520.83 335.612 523.368 340.578 523.368 346.262C523.392 357.755 513.047 367.077 500.324 367.077Z" fill="#EBDBD3"/>
<path fill-rule="evenodd" clip-rule="evenodd" d="M500.324 375.755C496.92 375.755 494.179 373.013 494.179 369.61V293.753C494.179 290.348 496.92 287.61 500.324 287.61C503.729 287.61 506.467 290.348 506.467 293.753V369.61C506.467 372.989 503.729 375.755 500.324 375.755Z" fill="#EBDBD3"/>
<path fill-rule="evenodd" clip-rule="evenodd" d="M566.656 448.432H461.258C454.269 448.432 448.586 442.749 448.586 435.763V422.194C448.586 415.203 454.269 409.524 461.258 409.524H566.656C573.645 409.524 579.328 415.203 579.328 422.194V435.763C579.328 442.749 573.645 448.432 566.656 448.432ZM461.258 421.783C461.027 421.783 460.874 421.961 460.874 422.169V435.736C460.874 435.965 461.054 436.12 461.258 436.12H566.656C566.885 436.12 567.041 435.94 567.041 435.736V422.169C567.041 421.936 566.861 421.783 566.656 421.783H461.258Z" fill="#EBDBD3"/>
<path fill-rule="evenodd" clip-rule="evenodd" d="M541.951 475.084H436.551C429.564 475.084 423.881 469.401 423.881 462.412V448.845C423.881 441.854 429.564 436.169 436.551 436.169H541.951C548.938 436.169 554.621 441.854 554.621 448.845V462.412C554.648 469.401 548.964 475.084 541.951 475.084ZM436.551 448.432C436.322 448.432 436.169 448.612 436.169 448.821V462.387C436.169 462.616 436.346 462.772 436.551 462.772H541.951C542.18 462.772 542.333 462.592 542.333 462.387V448.821C542.333 448.588 542.156 448.432 541.951 448.432H436.551Z" fill="#EBDBD3"/>
</svg>
