<svg width="1000" height="600" viewBox="0 0 1000 600" fill="none" xmlns="http://www.w3.org/2000/svg">
<rect width="1000" height="600" fill="#1D1D1B"/>
<path d="M492.759 334.207L511.25 341.359L511.229 341.352C518.442 344.155 522.577 349.944 522.577 357.243C522.577 365.202 516.906 372.059 508.784 373.92C507.664 374.18 506.516 374.363 505.368 374.51V379.828C505.368 382.8 502.952 385.203 499.979 385.203C497.006 385.203 494.59 382.8 494.59 379.828V374.265C490.525 373.576 486.609 372.234 483.15 370.26C480.572 368.785 479.677 365.497 481.157 362.926C482.643 360.355 485.926 359.456 488.518 360.938C491.751 362.786 495.703 363.846 499.676 364.022L499.695 364.021C499.793 364.014 499.886 364.008 499.986 364.008C500.211 364.008 500.43 364.022 500.648 364.05C502.592 364.064 504.529 363.867 506.382 363.446C509.573 362.708 511.806 360.165 511.806 357.25C511.806 355.472 511.348 352.936 507.333 351.377L488.715 344.176C479.318 340.256 477.367 333.378 477.367 328.285C477.367 320.319 483.044 313.462 491.167 311.608C492.301 311.348 493.449 311.151 494.604 311.004V307.695C494.604 304.723 497.02 302.321 499.993 302.321C502.966 302.321 505.382 304.723 505.382 307.695V311.256C509.439 311.945 513.349 313.294 516.801 315.268C519.386 316.743 520.273 320.031 518.794 322.609C517.315 325.18 514.018 326.072 511.44 324.597C506.361 321.696 499.514 320.733 493.583 322.096C490.392 322.827 488.159 325.37 488.159 328.292C488.159 330.765 488.926 332.613 492.759 334.207Z" fill="#EDDFD6"/>
<path fill-rule="evenodd" clip-rule="evenodd" d="M433.384 185.163C432.272 180.358 431.684 175.354 431.684 170.212C431.684 133.644 461.409 104 498.077 104C534.744 104 564.469 133.644 564.469 170.212C564.469 175.354 563.881 180.358 562.769 185.163H591.639C600.557 185.163 607.812 192.399 607.812 201.293V217.422C607.812 224.426 603.304 230.405 597.028 232.625V253.665L612.736 272.471H612.75C620.006 281.147 624 292.148 624 303.445V453.985C624 477.702 604.649 497 580.868 497H419.132C395.351 497 376 477.702 376 453.985V303.445C376 292.148 379.987 281.147 387.243 272.471L402.951 253.665V232.625C396.675 230.405 392.167 224.433 392.167 217.422V201.293C392.167 192.399 399.422 185.163 408.34 185.163H433.384ZM553.761 170.212C553.761 175.392 553.05 180.406 551.719 185.163H519.717C519.724 184.96 519.728 184.757 519.728 184.553C519.728 177.254 515.593 171.465 508.38 168.662L508.401 168.669L489.91 161.517C486.078 159.923 485.31 158.075 485.31 155.602C485.31 152.68 487.543 150.137 490.734 149.406C496.665 148.043 503.512 149.006 508.591 151.907C511.169 153.382 514.466 152.49 515.945 149.919C517.424 147.341 516.537 144.053 513.952 142.578C510.5 140.604 506.59 139.255 502.533 138.566V135.005C502.533 132.033 500.117 129.63 497.144 129.63C494.171 129.63 491.755 132.033 491.755 135.005V138.313C490.6 138.461 489.452 138.658 488.318 138.918C480.196 140.772 474.518 147.629 474.518 155.595C474.518 160.688 476.469 167.566 485.866 171.486L504.484 178.687C508.499 180.246 508.957 182.782 508.957 184.56C508.957 184.763 508.946 184.964 508.925 185.163H444.434C443.104 180.406 442.393 175.392 442.393 170.212C442.393 139.542 467.323 114.679 498.077 114.679C528.83 114.679 553.761 139.542 553.761 170.212ZM413.729 233.552V249.682H586.243V233.552H413.729ZM408.333 195.918C405.36 195.918 402.944 198.328 402.944 201.293H402.951V217.422C402.951 220.387 405.367 222.796 408.34 222.796H591.611C594.583 222.796 596.999 220.387 596.999 217.422V201.293C596.999 198.328 594.583 195.918 591.611 195.918H570.048V206.674C570.048 209.645 567.632 212.048 564.659 212.048C561.687 212.048 559.27 209.645 559.27 206.674V195.918H526.923V206.674C526.923 209.645 524.507 212.048 521.534 212.048C518.562 212.048 516.145 209.645 516.145 206.674V195.918H483.798V206.674C483.798 209.645 481.382 212.048 478.409 212.048C475.437 212.048 473.021 209.645 473.021 206.674V195.918H440.673V206.674C440.673 209.645 438.257 212.048 435.284 212.048C432.312 212.048 429.896 209.645 429.896 206.674V195.918H408.333ZM569.724 486.245C572.887 486.245 575.458 483.673 575.458 480.526V474.091C575.458 470.937 572.887 468.373 569.724 468.373H462.588C459.425 468.373 456.854 470.944 456.854 474.091V480.526C456.854 483.68 459.425 486.245 462.588 486.245H569.724ZM440.68 416.689V423.124H440.687C440.687 426.278 443.259 428.842 446.421 428.842H553.55C556.713 428.842 559.284 426.271 559.284 423.124V416.689C559.284 413.535 556.713 410.971 553.55 410.971H446.414C443.251 410.971 440.68 413.542 440.68 416.689ZM543.111 445.478C543.111 442.324 540.54 439.759 537.377 439.759H430.248C427.085 439.759 424.514 442.331 424.514 445.478V451.913C424.514 455.067 427.085 457.631 430.248 457.631H537.377C540.54 457.631 543.111 455.06 543.111 451.913V445.478ZM585.32 485.928C601.05 483.751 613.194 470.262 613.194 453.985H613.173V303.445C613.173 294.663 610.066 286.1 604.424 279.356L588.617 260.43H411.299L395.484 279.356C389.849 286.1 386.742 294.663 386.742 303.445V453.985C386.742 471.773 401.254 486.245 419.09 486.245H447.069C446.407 484.46 446.041 482.535 446.041 480.526V474.091C446.041 472.082 446.407 470.157 447.069 468.373H430.213C421.104 468.373 413.694 460.982 413.694 451.899V445.464C413.694 436.38 421.104 428.99 430.213 428.99H430.959C430.255 427.163 429.867 425.182 429.867 423.11V416.675C429.867 407.592 437.278 400.201 446.386 400.201H463.433C444.879 388.216 432.572 367.387 432.572 343.748C432.572 306.683 462.799 276.538 499.965 276.538C537.13 276.538 567.357 306.69 567.357 343.748C567.357 367.394 555.051 388.216 536.496 400.201H553.543C562.652 400.201 570.062 407.592 570.062 416.675V423.11C570.062 432.193 562.652 439.584 553.543 439.584H552.797C553.501 441.41 553.889 443.391 553.889 445.464V451.899C553.889 453.908 553.522 455.833 552.86 457.617H569.717C578.825 457.617 586.236 465.008 586.236 474.091V480.526C586.236 482.416 585.912 484.235 585.32 485.928ZM443.371 343.769C443.371 374.897 468.766 400.222 499.979 400.222C531.192 400.222 556.586 374.897 556.586 343.769C556.586 312.64 531.192 287.315 499.979 287.315C468.766 287.315 443.371 312.64 443.371 343.769Z" fill="#EDDFD6"/>
</svg>
