<?xml version="1.0" encoding="UTF-8"?>
<svg id="Layer_1" xmlns="http://www.w3.org/2000/svg" version="1.1" viewBox="0 0 1000 600">
  <!-- Generator: Adobe Illustrator 29.0.0, SVG Export Plug-In . SVG Version: 2.1.0 Build 186)  -->
  <defs>
    <style>
      .st0 {
        fill: #1d1d1b;
      }

      .st1 {
        fill: #ebdbd3;
      }
    </style>
  </defs>
  <rect class="st0" x=".8" width="1000" height="600"/>
  <g>
    <path class="st1" d="M453.3,330.8c-4.7-14.5-8.2-29.3-10.9-44.1-3.6-2.1-7.2-4.8-10.6-8.1l8.6-4.3c-3.5-23.9-4.6-47.3-4.3-68.4-9.9-2.6-19.8-5.1-30-5.1-16,0-31.3,6.2-47.1,9-15.8,2.8-34.2,1.1-44.4-11.2-5.4-6.5-7.7-14.9-12.2-22-4.5-7.1-13.1-13.1-20.9-10.1-7.5,2.8-10.1,11.9-11.4,19.8-10.4,62.5-3.8,134.8,22.5,192.8,16.2,35.6,45.1,67.5,82.9,77.6,39.5,10.6,83.2-4.9,112.5-33.4,3.8-3.7,7.4-7.7,10.9-11.8-19.4-19.8-34.8-46.9-45.7-80.7ZM308.5,249.9l77,31.4c-30.5,30.4-78.2,13.2-77-31.4ZM333,389.5c28.4-51.2,118.2-53.6,145.9-.2l-145.9.2Z"/>
    <path class="st1" d="M725.6,143.8c1.4,3,2.3,6.4,2.9,9.7,20.9,102.9-9.4,298.5-153.5,277.7-109.4-15.8-124.7-193.7-117.7-266.1.6-6.4,4.9-21.3,11-23.2,8.8-2.7,27.2,11.3,34.3,14,53,20.4,122.6,20.7,176,.9,11.7-4.3,25.1-13.2,36.2-16.2,5.3-1.4,9.4.3,10.8,3.3ZM574.5,264.2c-16.6-39.8-67.3-42-83.2-.4l83.2.4ZM702.7,267.6c-15.1-39.8-67.4-43.3-82.6-1.4l82.6,1.4ZM667.1,324.2l-145.9-.2c28.4,51.2,118.2,53.6,145.9.2Z"/>
  </g>
</svg>