<?xml version="1.0" encoding="UTF-8"?><svg xmlns="http://www.w3.org/2000/svg" viewBox="0 0 493.26 299.05"><defs><style>.d{fill:#eddfd6;}.e,.f,.g{fill:#1d1d1b;}.h{fill:none;stroke:#1d1d1b;stroke-linecap:round;}.h,.g{stroke-miterlimit:10;stroke-width:.42px;}.f{opacity:.19;}.g{stroke:#eddfd6;}</style></defs><g id="a"/><g id="b"><g id="c"><rect class="g" x=".21" y=".21" width="492.84" height="298.63"/><g><path class="d" d="M365.03,93.62v126.6H119.85V93.62c0,.76,.01,1.5,.03,2.23l.04,1.08c1.19,30.83,19.01,55.31,40.8,55.31s38.15-22.52,40.56-51.59c.13-1.5,.21-3.04,.25-4.58,0-.05,0-.12,.01-.17,.01-.76,.03-1.51,.03-2.27,0,.52,0,1.04,.03,1.55,.01,1.42,.08,2.81,.17,4.21h0c2.02,29.68,19.46,52.85,40.67,52.85s38.69-23.23,40.68-52.96v-.04c.07-1.01,.12-2.02,.13-3.04,.04-.85,.05-1.71,.05-2.58,0,.69,.01,1.38,.03,2.07,.04,1.55,.12,3.08,.24,4.59v.08c2.34,29.21,19.6,51.87,40.59,51.87s39.12-23.77,40.75-54v-.11c.04-.7,.07-1.42,.09-2.14,.01-.8,.03-1.58,.03-2.38Z"/><g><path class="d" d="M298.77,81.37c-4.28,0-8.15,1.73-10.95,4.54-2.8,2.8-4.54,6.67-4.54,10.95,0-4.28-1.73-8.15-4.54-10.95-2.8-2.8-6.67-4.54-10.95-4.54,4.28,0,8.15-1.73,10.95-4.54,2.8-2.8,4.54-6.67,4.54-10.95,0,8.55,6.93,15.48,15.49,15.48Z"/><path class="d" d="M217,81.37c-4.28,0-8.15,1.73-10.95,4.54-2.8,2.8-4.54,6.67-4.54,10.95,0-4.28-1.73-8.15-4.54-10.95-2.8-2.8-6.67-4.54-10.95-4.54,4.28,0,8.15-1.73,10.95-4.54,2.8-2.8,4.54-6.67,4.54-10.95,0,8.55,6.93,15.48,15.49,15.48Z"/><path class="d" d="M365.03,65.88v30.98c0-.29-.01-.58-.03-.86-.21-3.94-1.9-7.47-4.51-10.09-2.8-2.81-6.66-4.54-10.95-4.54,4.29,0,8.15-1.74,10.95-4.54,2.8-2.8,4.54-6.68,4.54-10.95Z"/><path class="d" d="M135.34,81.37c-4.29,0-8.15,1.73-10.95,4.54-2.81,2.8-4.54,6.66-4.54,10.95v-30.98c0,8.55,6.93,15.49,15.49,15.49Z"/></g><g><ellipse class="e" cx="162.82" cy="181.69" rx="5.55" ry="7.87"/><path class="d" d="M162.82,174.03c2.95,0,5.34,3.43,5.34,7.66s-2.39,7.66-5.34,7.66-5.34-3.43-5.34-7.66,2.39-7.66,5.34-7.66m0-.42c-3.18,0-5.76,3.63-5.76,8.08s2.58,8.08,5.76,8.08,5.76-3.63,5.76-8.08-2.59-8.08-5.76-8.08h0Z"/></g><g><ellipse class="e" cx="244.31" cy="181.69" rx="5.13" ry="7.45"/><path class="d" d="M244.31,174.46c2.71,0,4.92,3.25,4.92,7.24s-2.21,7.24-4.92,7.24-4.92-3.25-4.92-7.24,2.21-7.24,4.92-7.24m0-.42c-2.95,0-5.34,3.43-5.34,7.66s2.39,7.66,5.34,7.66,5.34-3.43,5.34-7.66-2.39-7.66-5.34-7.66h0Z"/></g><g><ellipse class="e" cx="328.88" cy="181.69" rx="5.13" ry="7.45"/><path class="d" d="M328.88,174.46c2.71,0,4.92,3.25,4.92,7.24s-2.21,7.24-4.92,7.24-4.92-3.25-4.92-7.24,2.21-7.24,4.92-7.24m0-.42c-2.95,0-5.34,3.43-5.34,7.66s2.39,7.66,5.34,7.66,5.34-3.43,5.34-7.66-2.39-7.66-5.34-7.66h0Z"/></g><path class="d" d="M246.55,181.69c-.62,0-1.18,.25-1.58,.66-.41,.41-.66,.97-.66,1.58,0-.62-.25-1.18-.66-1.58-.4-.41-.97-.66-1.58-.66,.62,0,1.18-.25,1.58-.66,.41-.41,.66-.97,.66-1.58,0,1.24,1,2.24,2.24,2.24Z"/><g/><g><path class="e" d="M298.77,181.69c-4.28,0-8.15,1.73-10.95,4.54-2.8,2.8-4.54,6.67-4.54,10.95,0-4.28-1.73-8.15-4.54-10.95-2.8-2.8-6.67-4.54-10.95-4.54,4.28,0,8.15-1.73,10.95-4.54,2.8-2.8,4.54-6.67,4.54-10.95,0,8.55,6.93,15.48,15.49,15.48Z"/><path class="e" d="M217,181.69c-4.28,0-8.15,1.73-10.95,4.54-2.8,2.8-4.54,6.67-4.54,10.95,0-4.28-1.73-8.15-4.54-10.95-2.8-2.8-6.67-4.54-10.95-4.54,4.28,0,8.15-1.73,10.95-4.54,2.8-2.8,4.54-6.67,4.54-10.95,0,8.55,6.93,15.48,15.49,15.48Z"/><path class="e" d="M365.03,166.21v30.97c0-4.27-1.74-8.15-4.54-10.95-2.8-2.8-6.66-4.53-10.94-4.53,4.27,0,8.14-1.74,10.94-4.54,2.8-2.8,4.54-6.68,4.54-10.95Z"/><path class="e" d="M135.33,181.7c-4.27,0-8.15,1.73-10.95,4.53-2.8,2.8-4.54,6.68-4.54,10.95v-30.97c0,8.55,6.93,15.49,15.49,15.49Z"/></g><path class="d" d="M331.12,181.69c-.62,0-1.18,.25-1.58,.66-.41,.41-.66,.97-.66,1.58,0-.62-.25-1.18-.66-1.58-.4-.41-.97-.66-1.58-.66,.62,0,1.18-.25,1.58-.66,.41-.41,.66-.97,.66-1.58,0,1.24,1,2.24,2.24,2.24Z"/><path class="d" d="M165.06,181.69c-.62,0-1.18,.25-1.58,.66-.41,.41-.66,.97-.66,1.58,0-.62-.25-1.18-.66-1.58-.4-.41-.97-.66-1.58-.66,.62,0,1.18-.25,1.58-.66,.41-.41,.66-.97,.66-1.58,0,1.24,1,2.24,2.24,2.24Z"/><path class="e" d="M283.73,123.81h0m-81.74,0h0m-81.72,0h0m81.3,8.44c2.98,28.58,21.35,32.6,40.87,32.6,12.81,0,21.38-1.98,27.79-6.41,7.47-5.17,11.76-13.73,13.07-26.18,1.31,12.75,5.68,21.44,13.34,26.53,8.05,5.36,18.94,6.05,27.52,6.05,17.88,0,36.33-3.68,40.45-29.43v84.39H120.27v-84.48c1.63,10.17,5.61,17.52,12.07,22.35,6.55,4.9,15.57,7.18,28.38,7.18,8.57,0,19.43-.68,27.45-5.97,7.71-5.08,12.1-13.8,13.41-26.64m163.46-8.44c0,.8-.01,1.58-.03,2.38-.03,.72-.05,1.43-.09,2.14v.11c-1.63,30.22-19.26,36-40.75,36s-38.25-4.66-40.59-33.87v-.08c-.12-1.51-.2-3.04-.24-4.59-.01-.69-.03-1.38-.03-2.07,0,.86-.01,1.73-.05,2.58-.01,1.02-.07,2.03-.13,3.04v.04c-1.99,29.73-19.46,34.96-40.68,34.96s-38.65-5.18-40.67-34.84h0c-.09-1.41-.16-2.8-.17-4.22-.03-.52-.03-1.04-.03-1.55,0,.76-.01,1.51-.03,2.27-.01,.05-.01,.12-.01,.17-.04,1.54-.12,3.08-.25,4.58-2.42,29.07-19.66,33.59-40.56,33.59s-39.61-6.48-40.8-37.31c-.01-.36-.03-.72-.04-1.08-.01-.73-.03-1.47-.03-2.23v96.42h245.18V123.81h0Z"/><g><rect class="e" x="120.48" y="219.94" width="243.92" height="8.12"/><path class="d" d="M364.18,220.15v7.7H120.69v-7.7h243.49m.42-.42H120.27v8.55h244.34v-8.55h0Z"/></g></g><path class="f" d="M269.38,230.9c-14.45,35.86-89.43,37.52-68.85,44.93,2.43,.88,4.89,2.9,7.17,3.76H119.87V148.29c-.05-10.09-.02-50-.02-50,.17,.15,7.01,25.65,8.43,31.72,7.46,22.82,19.22,34.88,32.44,34.42,16.05-.56,25.21-2.98,30.29-8.28,13.97,49.49,92.62,39.44,78.38,74.76Z"/><path class="d" d="M217,81.37c-4.28,0-8.15,1.73-10.95,4.54-2.8,2.8-4.54,6.67-4.54,10.95,0-4.28-1.73-8.15-4.54-10.95-2.8-2.8-6.67-4.54-10.95-4.54,4.28,0,8.15-1.73,10.95-4.54,2.8-2.8,4.54-6.67,4.54-10.95,0,8.55,6.93,15.48,15.49,15.48Z"/><path class="d" d="M365.03,65.88v30.98c0-.29-.01-.58-.03-.86-.21-3.94-1.9-7.47-4.51-10.09-2.8-2.81-6.66-4.54-10.95-4.54,4.29,0,8.15-1.74,10.95-4.54,2.8-2.8,4.54-6.68,4.54-10.95Z"/><path class="d" d="M135.34,81.37c-4.29,0-8.15,1.73-10.95,4.54-2.81,2.8-4.54,6.66-4.54,10.95v-30.98c0,8.55,6.93,15.49,15.49,15.49Z"/><line class="h" x1="119.85" y1="209.35" x2="365.03" y2="209.35"/></g></g></svg>