<?xml version="1.0" encoding="utf-8"?>
<!-- Generator: Adobe Illustrator 26.1.0, SVG Export Plug-In . SVG Version: 6.00 Build 0)  -->
<svg version="1.1" id="Layer_1" xmlns="http://www.w3.org/2000/svg" xmlns:xlink="http://www.w3.org/1999/xlink" x="0px" y="0px"
	 viewBox="0 0 493 299" style="enable-background:new 0 0 493 299;" xml:space="preserve">
<style type="text/css">
	.st0{fill:#1D1D1B;stroke:#EDDFD6;stroke-width:0.42;stroke-miterlimit:10;}
	.st1{fill:#EDDFD6;}
	.st2{clip-path:url(#SVGID_00000083803506623892831040000006684210754641174951_);}
	.st3{fill-rule:evenodd;clip-rule:evenodd;fill:#1D1D1A;}
	.st4{fill:#1D1D1A;}
	.st5{fill:none;stroke:#EDDFD6;stroke-width:0.42;stroke-miterlimit:10;}
	.st6{opacity:0.19;fill:#1D1D1B;enable-background:new    ;}
	.st7{opacity:0.19;fill:#EDDFD6;enable-background:new    ;}
</style>
<g id="a">
</g>
<g id="b">
	<g id="c">
		<rect x="0.2" y="0.2" class="st0" width="492.8" height="298.6"/>
		<g>
			<path class="st1" d="M327,98.7v15.1h26.5v-6.9c0-1.3-1-2.3-2.3-2.3l0,0c-1.6,0-3-1.3-3-3l0,0c0-1.6,1.3-3,3-3h14.6
				c1.6,0,3,1.3,3,3v1.5c0,1.6-1.3,3-3,3l0,0c-1.8,0-3.2,1.5-3.2,3.2v4.8h26.6V92.4c0-2.3-1.9-4.2-4.2-4.2h-0.2
				c-1.2,0-2.2,0.9-2.2,2.1v0.3c0,2.7-2.2,4.8-4.8,4.8h-0.1c-2.7,0-5-2.2-5-5V76.1c0-2.8,2.2-5,5-5h0.2c2.7,0,4.9,2.2,4.9,4.9v0.2
				c0,1.1,0.9,2,2,2h0.1c2.3,0,4.2-1.9,4.2-4.2V52.7h-22.3c-1.8,0-3.3-1.5-3.3-3.3l0,0c0-1.7,1.4-3.2,3.1-3.2l0,0
				c1.5,0,2.6-1.2,2.6-2.6v-4.2c0-1.5-1.2-2.6-2.6-2.6h-17c-1.5,0-2.6,1.2-2.6,2.6v3.5c0,1.5,1.2,2.6,2.6,2.6l0,0
				c1.4,0,2.4,1.1,2.4,2.4l0,0c0,2.4-2,4.4-4.4,4.4H327v17.8c0,3.5-2.9,6.4-6.4,6.4l0,0v-2.4c0-2.2-1.8-3.9-3.9-3.9h-1.2
				c-2.2,0-3.9,1.8-3.9,3.9v17.2c0,2.1,1.7,3.8,3.8,3.8h0.1c2.2,0,3.9-1.8,3.9-3.9v-0.1l0,0C323.7,91.2,327,94.5,327,98.7L327,98.7z
				"/>
			<path class="st1" d="M282.9,101l-5.1,16.2c-0.5,1.4-1.9,2.2-3.3,1.7l-4-1.3c-1.1-0.4-1.8-1.4-1.8-2.5c0-0.3,0-0.5,0.1-0.8
				c0.1-0.3,0.1-0.6,0.1-0.9c0-1.3-0.9-2.6-2.2-3c-1.7-0.5-3.5,0.4-4.1,2.1l-6.8,21.2l-17.8-5.7l-2.4-0.8c-2.2-0.7-3.5-3.1-2.8-5.3
				c0,0,0-0.1,0-0.1c0.3-1,1.4-1.6,2.5-1.3l0.1,0.1c2.6,0.8,5.3-0.6,6.1-3.2l0.1-0.2c0.8-2.6-0.6-5.4-3.2-6.2l-13.6-4.3
				c-2.6-0.8-5.4,0.6-6.2,3.2c0,0.1,0,0.1-0.1,0.2c-0.8,2.5,0.6,5.2,3.1,6.1c0.1,0,0.2,0.1,0.3,0.1c1.1,0.3,1.7,1.5,1.3,2.7
				l-0.1,0.2c-0.7,2.2-3.1,3.4-5.3,2.7l-20.8-6.6l8.1-25.3l4.6,1.5c1.4,0.4,2.3,1.7,2.3,3.1c0,0.3-0.1,0.7-0.2,1
				c-0.5,1.6,0.4,3.2,1.9,3.7l1.4,0.5c1.6,0.5,3.2-0.4,3.7-1.9l4.4-13.9c0.1-0.3,0.1-0.6,0.1-0.9c0-1.3-0.8-2.4-2.1-2.8
				c-0.3-0.1-0.6-0.1-0.9-0.1c-1.3,0-2.4,0.8-2.8,2.1c-0.4,1.2-1.7,1.9-2.9,1.5l-3.2-1l-3.3-1.1l8-25.2l14.4,4.6
				c0.8,0.2,1.5,0.3,2.3,0.3c3.2,0,6.1-2,7.1-5.3l-0.1,0c-2.1-0.7-3.2-2.9-2.5-4.9l0-0.1c0.6-2,2.8-3.1,4.8-2.5l16.3,5.2
				c2.1,0.7,3.2,2.9,2.5,4.9l-0.4,1.1c-0.7,2.1-2.9,3.2-4.9,2.5l-2.3-0.7c-1.1,3.4,0.8,6.9,4.1,8l17,5.4l-6.3,19.8
				c-0.1,0.4-0.2,0.9-0.2,1.3c0,1.9,1.2,3.6,3.1,4.2c0.2,0.1,0.5,0.1,0.7,0.1c1,0,2-0.7,2.3-1.7c0.4-1.4,1.9-2.2,3.3-1.7l3.4,1.1
				C282.6,98.1,283.3,99.6,282.9,101L282.9,101z"/>
			<g>
				<defs>
					<path id="SVGID_1_" d="M327,98.7v15.1h26.5v-6.9c0-1.3-1-2.3-2.3-2.3l0,0c-1.6,0-3-1.3-3-3l0,0c0-1.6,1.3-3,3-3h14.6
						c1.6,0,3,1.3,3,3v1.5c0,1.6-1.3,3-3,3l0,0c-1.8,0-3.2,1.5-3.2,3.2v4.8h26.6V92.4c0-2.3-1.9-4.2-4.2-4.2h-0.2
						c-1.2,0-2.2,0.9-2.2,2.1v0.3c0,2.7-2.2,4.8-4.8,4.8h-0.1c-2.7,0-5-2.2-5-5V76.1c0-2.8,2.2-5,5-5h0.2c2.7,0,4.9,2.2,4.9,4.9v0.2
						c0,1.1,0.9,2,2,2h0.1c2.3,0,4.2-1.9,4.2-4.2V52.7h-22.3c-1.8,0-3.3-1.5-3.3-3.3l0,0c0-1.7,1.4-3.2,3.1-3.2l0,0
						c1.5,0,2.6-1.2,2.6-2.6v-4.2c0-1.5-1.2-2.6-2.6-2.6h-17c-1.5,0-2.6,1.2-2.6,2.6v3.5c0,1.5,1.2,2.6,2.6,2.6l0,0
						c1.4,0,2.4,1.1,2.4,2.4l0,0c0,2.4-2,4.4-4.4,4.4H327v17.8c0,3.5-2.9,6.4-6.4,6.4l0,0v-2.4c0-2.2-1.8-3.9-3.9-3.9h-1.2
						c-2.2,0-3.9,1.8-3.9,3.9v17.2c0,2.1,1.7,3.8,3.8,3.8h0.1c2.2,0,3.9-1.8,3.9-3.9v-0.1l0,0C323.7,91.2,327,94.5,327,98.7
						L327,98.7z"/>
				</defs>
				<clipPath id="SVGID_00000061439612810852473840000007113617991590430642_">
					<use xlink:href="#SVGID_1_"  style="overflow:visible;"/>
				</clipPath>
				<g style="clip-path:url(#SVGID_00000061439612810852473840000007113617991590430642_);">
					<polygon class="st3" points="345.4,70.3 525.8,70.3 494.7,122.2 345.4,122.2 					"/>
				</g>
			</g>
			<path class="st1" d="M342.6,170.4l-7.9,19.6c-0.9,2.2-3.3,3.2-5.5,2.3c0,0-0.1,0-0.1,0c-1-0.4-1.5-1.6-1.1-2.6l0.1-0.1
				c1-2.5-0.2-5.4-2.7-6.4l-0.2-0.1c-2.5-1-5.5,0.2-6.5,2.8l-5.4,13.3c-1,2.5,0.2,5.4,2.7,6.5c0,0,0.1,0,0.1,0.1
				c2.5,1,5.3-0.2,6.3-2.6c0-0.1,0.1-0.2,0.1-0.3c0.4-1.1,1.7-1.6,2.8-1.1l0.1,0.1c2.1,0.9,3.2,3.3,2.3,5.5l-8.2,20.2l-24.6-9.9
				l1.8-4.5c0.5-1.3,1.7-2,3-2c0.4,0,0.8,0.1,1.2,0.2c1.5,0.6,3.2-0.1,3.9-1.6l0.6-1.4c0.6-1.5-0.1-3.3-1.6-3.9l-8.8-3.5l-4.8-1.9
				c-0.4-0.1-0.7-0.2-1.1-0.2c-1.2,0-2.3,0.7-2.8,1.9c-0.1,0.4-0.2,0.7-0.2,1.1c0,1.2,0.7,2.3,1.9,2.8c1.2,0.5,1.7,1.8,1.3,3
				l-2.6,6.4l-24.5-9.9l5.7-14c0.4-0.9,0.5-1.9,0.5-2.8c0-3-1.8-5.8-4.7-6.9l0,0.1c-0.8,2-3.1,3-5.1,2.2l-0.1,0
				c-2-0.8-2.9-3-2.1-4.9l6.4-15.9c0.8-2,3.1-3,5.1-2.2l1.1,0.4c2,0.8,3,3.1,2.2,5.1l-0.9,2.2c3.3,1.3,7-0.3,8.3-3.5l6.7-16.5
				l19.2,7.8c0.5,0.2,1.1,0.3,1.6,0.3c1.8,0,3.4-1,4.1-2.8c0.1-0.3,0.2-0.6,0.2-0.9c0-1-0.6-1.9-1.5-2.3c-1.4-0.5-2-2.1-1.5-3.4
				l1.3-3.3c0.5-1.4,2.1-2,3.4-1.5l7.9,3.2l7.8,3.1c1.4,0.6,2,2.1,1.5,3.4l-1.6,3.9c-0.4,1-1.4,1.6-2.5,1.6c-0.3,0-0.7-0.1-1-0.2
				c-0.4-0.2-0.8-0.2-1.2-0.2c-1.2,0-2.4,0.8-2.9,2c-0.7,1.7,0.1,3.6,1.8,4.2L342.6,170.4L342.6,170.4z"/>
			<path class="st4" d="M165.3,199l-13.9,5.9l10.4,24.3l6.3-2.7c1.2-0.5,1.7-1.8,1.2-3l0,0c-0.6-1.5,0.1-3.3,1.6-3.9l0,0
				c1.5-0.6,3.3,0.1,3.9,1.6l5.7,13.4c0.6,1.5-0.1,3.3-1.6,3.9l-1.4,0.6c-1.5,0.6-3.3-0.1-3.9-1.6l0,0c-0.7-1.6-2.6-2.4-4.3-1.7
				l-4.4,1.9l10.4,24.4l20.1-8.6c2.1-0.9,3.1-3.4,2.2-5.5l-0.1-0.1c-0.5-1.1-1.7-1.6-2.8-1.2l-0.3,0.1c-2.4,1.1-5.3-0.1-6.3-2.6
				l-0.1-0.1c-1.1-2.5,0.1-5.4,2.6-6.5l13.2-5.6c2.5-1.1,5.4,0.1,6.5,2.6l0.1,0.2c1.1,2.5-0.1,5.4-2.6,6.4l-0.1,0.1
				c-1,0.4-1.5,1.6-1.1,2.6l0,0.1c0.9,2.1,3.4,3.1,5.6,2.2L232,238l-8.8-20.5c-0.7-1.7,0.1-3.6,1.7-4.3l0,0c1.6-0.7,3.4,0.1,4.1,1.6
				l0,0c0.6,1.3,2.1,2,3.5,1.4l3.8-1.6c1.3-0.6,2-2.1,1.4-3.5l-6.7-15.6c-0.6-1.3-2.1-2-3.5-1.4l-3.3,1.4c-1.3,0.6-2,2.1-1.4,3.5
				l0,0c0.5,1.2,0,2.7-1.3,3.2l0,0c-2.2,1-4.8-0.1-5.8-2.3l-8.2-19.1l-16.4,7c-3.2,1.4-7-0.1-8.4-3.4l0,0l2.2-0.9
				c2-0.9,2.9-3.1,2.1-5.1l-0.5-1.1c-0.9-2-3.1-2.9-5.1-2.1l-15.8,6.7c-1.9,0.8-2.8,3.1-2,5l0,0.1c0.9,2,3.2,2.9,5.1,2.1l0.1,0l0,0
				C170.9,192.9,169.1,197.3,165.3,199L165.3,199z"/>
			<path class="st1" d="M106.2,194.3l10.6,10.8l18.9-18.5l-4.8-4.9c-0.9-0.9-2.3-0.9-3.2,0l0,0c-1.2,1.1-3.1,1.1-4.2-0.1l0,0
				c-1.2-1.2-1.1-3.1,0.1-4.2l10.4-10.2c1.2-1.1,3.1-1.1,4.2,0.1l1.1,1.1c1.1,1.2,1.1,3.1-0.1,4.2l0,0c-1.3,1.3-1.3,3.3-0.1,4.6
				l3.4,3.5l19-18.5l-15.2-15.6c-1.6-1.7-4.3-1.7-5.9-0.1l-0.1,0.1c-0.9,0.8-0.9,2.2-0.1,3l0.2,0.2c1.9,1.9,1.8,5-0.1,6.8l-0.1,0.1
				c-2,1.9-5.1,1.9-7-0.1l-10-10.3c-1.9-2-1.9-5.1,0.1-7l0.2-0.2c1.9-1.9,5-1.9,6.9,0.1l0.1,0.1c0.8,0.8,2.1,0.8,2.8,0.1l0.1-0.1
				c1.7-1.6,1.7-4.3,0.1-6L118.6,118l-16,15.6c-1.3,1.3-3.4,1.2-4.6-0.1l0,0c-1.2-1.2-1.2-3.2,0.1-4.4l0,0c1-1,1.1-2.7,0.1-3.7
				l-2.9-3c-1-1-2.7-1.1-3.7-0.1l-12.1,11.8c-1,1-1.1,2.7-0.1,3.7l2.5,2.5c1,1,2.7,1.1,3.7,0.1l0,0c1-0.9,2.5-0.9,3.4,0l0,0
				c1.7,1.7,1.7,4.5-0.1,6.2L74,161.2L86.4,174c2.5,2.5,2.4,6.6-0.1,9l0,0l-1.7-1.7c-1.5-1.6-4-1.6-5.5-0.1l-0.8,0.8
				c-1.6,1.5-1.6,4-0.1,5.5l12,12.3c1.5,1.5,3.9,1.5,5.4,0.1l0.1-0.1c1.6-1.5,1.6-4,0.1-5.6l-0.1-0.1l0,0
				C98.6,191.3,103.3,191.3,106.2,194.3L106.2,194.3z"/>
			<path class="st3" d="M342.6,170.4l-7.9,19.6c-0.9,2.2-3.3,3.2-5.5,2.3c0,0-0.1,0-0.1,0c-1-0.4-1.5-1.6-1.1-2.6l0.1-0.1
				c1-2.5-0.2-5.4-2.7-6.4l-0.2-0.1c-2.5-1-5.5,0.2-6.5,2.8l-5.4,13.3c-1,2.5,0.2,5.4,2.7,6.5c0,0,0.1,0,0.1,0.1
				c2.5,1,5.3-0.2,6.3-2.6c0-0.1,0.1-0.2,0.1-0.3c0.4-1.1,1.7-1.6,2.8-1.1l0.1,0.1c2.1,0.9,3.2,3.3,2.3,5.5l-8.2,20.2l-24.6-9.9
				l1.8-4.5c0.5-1.3,1.7-2,3-2c0.4,0,0.8,0.1,1.2,0.2c1.5,0.6,3.2-0.1,3.9-1.6l0.6-1.4c0.6-1.5-0.1-3.3-1.6-3.9l-8.8-3.5l24.9-56.6
				l7.8,3.1c1.4,0.6,2,2.1,1.5,3.4l-1.6,3.9c-0.4,1-1.4,1.6-2.5,1.6c-0.3,0-0.7-0.1-1-0.2c-0.4-0.2-0.8-0.2-1.2-0.2
				c-1.2,0-2.4,0.8-2.9,2c-0.7,1.7,0.1,3.6,1.8,4.2L342.6,170.4L342.6,170.4z"/>
			<path class="st3" d="M262.7,72.2L238.1,128l-2.4-0.8c-2.2-0.7-3.5-3.1-2.8-5.3c0,0,0-0.1,0-0.1c0.3-1,1.4-1.6,2.5-1.3l0.1,0.1
				c2.6,0.8,5.3-0.6,6.1-3.2l0.1-0.2c0.8-2.6-0.6-5.4-3.2-6.2l-13.6-4.3c-2.6-0.8-5.4,0.6-6.2,3.2c0,0.1,0,0.1-0.1,0.2
				c-0.8,2.5,0.6,5.2,3.1,6.1c0.1,0,0.2,0.1,0.3,0.1c1.1,0.3,1.7,1.5,1.3,2.7l-0.1,0.2c-0.7,2.2-3.1,3.4-5.3,2.7l-20.8-6.6l8.1-25.3
				l4.6,1.5c1.4,0.4,2.3,1.7,2.3,3.1c0,0.3-0.1,0.7-0.2,1c-0.5,1.6,0.4,3.2,1.9,3.7l1.4,0.5c1.6,0.5,3.2-0.4,3.7-1.9l4.4-13.9
				c0.1-0.3,0.1-0.6,0.1-0.9c0-1.3-0.8-2.4-2.1-2.8c-0.3-0.1-0.6-0.1-0.9-0.1c-1.3,0-2.4,0.8-2.8,2.1c-0.4,1.2-1.7,1.9-2.9,1.5
				l-3.2-1c5.4-3,11.4-5.1,17.7-5.9L262.7,72.2z"/>
			<path class="st5" d="M327,98.7v15.1h26.5v-6.9c0-1.3-1-2.3-2.3-2.3l0,0c-1.6,0-3-1.3-3-3l0,0c0-1.6,1.3-3,3-3h14.6
				c1.6,0,3,1.3,3,3v1.5c0,1.6-1.3,3-3,3l0,0c-1.8,0-3.2,1.5-3.2,3.2v4.8h26.6V92.4c0-2.3-1.9-4.2-4.2-4.2h-0.2
				c-1.2,0-2.2,0.9-2.2,2.1v0.3c0,2.7-2.2,4.8-4.8,4.8h-0.1c-2.7,0-5-2.2-5-5V76.1c0-2.8,2.2-5,5-5h0.2c2.7,0,4.9,2.2,4.9,4.9v0.2
				c0,1.1,0.9,2,2,2h0.1c2.3,0,4.2-1.9,4.2-4.2V52.7h-22.3c-1.8,0-3.3-1.5-3.3-3.3l0,0c0-1.7,1.4-3.2,3.1-3.2l0,0
				c1.5,0,2.6-1.2,2.6-2.6v-4.2c0-1.5-1.2-2.6-2.6-2.6h-17c-1.5,0-2.6,1.2-2.6,2.6v3.5c0,1.5,1.2,2.6,2.6,2.6l0,0
				c1.4,0,2.4,1.1,2.4,2.4l0,0c0,2.4-2,4.4-4.4,4.4H327v17.8c0,3.5-2.9,6.4-6.4,6.4l0,0v-2.4c0-2.2-1.8-3.9-3.9-3.9h-1.2
				c-2.2,0-3.9,1.8-3.9,3.9v17.2c0,2.1,1.7,3.8,3.8,3.8h0.1c2.2,0,3.9-1.8,3.9-3.9v-0.1l0,0C323.7,91.2,327,94.5,327,98.7L327,98.7z
				"/>
			<path class="st5" d="M230.9,60.6L216.5,56l-8,25.2l6.5,2.1c1.2,0.4,2.5-0.3,2.9-1.5l0,0c0.5-1.6,2.2-2.4,3.7-1.9l0,0
				c1.6,0.5,2.4,2.2,1.9,3.7l-4.4,13.9c-0.5,1.6-2.2,2.4-3.7,1.9l-1.4-0.4c-1.6-0.5-2.4-2.2-1.9-3.7l0,0c0.6-1.7-0.4-3.5-2.1-4.1
				l-4.6-1.5l-8.1,25.3l20.8,6.6c2.2,0.7,4.6-0.5,5.3-2.7l0.1-0.2c0.4-1.2-0.2-2.3-1.3-2.7l-0.3-0.1c-2.5-0.8-3.9-3.5-3.1-6.1
				l0.1-0.1c0.9-2.6,3.6-4,6.2-3.2l13.6,4.3c2.6,0.8,4.1,3.6,3.2,6.2l-0.1,0.2c-0.8,2.6-3.6,4-6.1,3.2l-0.1-0.1
				c-1.1-0.3-2.2,0.2-2.5,1.3l0,0.1c-0.7,2.2,0.5,4.6,2.8,5.3l20.2,6.4l6.8-21.2c0.5-1.7,2.4-2.7,4.1-2.1l0,0c1.7,0.5,2.6,2.3,2,3.9
				l0,0c-0.4,1.4,0.3,2.9,1.7,3.3l4,1.3c1.4,0.4,2.9-0.3,3.3-1.7l5.1-16.2c0.4-1.4-0.3-2.9-1.7-3.3l-3.4-1.1
				c-1.4-0.4-2.9,0.3-3.3,1.7l0,0c-0.4,1.3-1.8,2-3.1,1.6l0,0c-2.3-0.7-3.6-3.2-2.9-5.5l6.3-19.8l-17-5.4c-3.4-1.1-5.2-4.7-4.1-8
				l0,0l2.3,0.7c2.1,0.7,4.3-0.5,4.9-2.5l0.4-1.1c0.7-2.1-0.5-4.3-2.5-4.9l-16.4-5.2c-2-0.6-4.1,0.5-4.8,2.5l0,0.1
				c-0.7,2.1,0.5,4.3,2.5,4.9l0.1,0l0,0C239.1,59.7,234.9,61.9,230.9,60.6L230.9,60.6z"/>
			<path class="st5" d="M165.3,199l-13.9,5.9l10.4,24.3l6.3-2.7c1.2-0.5,1.7-1.8,1.2-3l0,0c-0.6-1.5,0.1-3.3,1.6-3.9l0,0
				c1.5-0.6,3.3,0.1,3.9,1.6l5.7,13.4c0.6,1.5-0.1,3.3-1.6,3.9l-1.4,0.6c-1.5,0.6-3.3-0.1-3.9-1.6l0,0c-0.7-1.6-2.6-2.4-4.3-1.7
				l-4.4,1.9l10.4,24.4l20.1-8.6c2.1-0.9,3.1-3.4,2.2-5.5l-0.1-0.1c-0.5-1.1-1.7-1.6-2.8-1.2l-0.3,0.1c-2.4,1.1-5.3-0.1-6.3-2.6
				l-0.1-0.1c-1.1-2.5,0.1-5.4,2.6-6.5l13.2-5.6c2.5-1.1,5.4,0.1,6.5,2.6l0.1,0.2c1.1,2.5-0.1,5.4-2.6,6.4l-0.1,0.1
				c-1,0.4-1.5,1.6-1.1,2.6l0,0.1c0.9,2.1,3.4,3.1,5.6,2.2L232,238l-8.8-20.5c-0.7-1.7,0.1-3.6,1.7-4.3l0,0c1.6-0.7,3.4,0.1,4.1,1.6
				l0,0c0.6,1.3,2.1,2,3.5,1.4l3.8-1.6c1.3-0.6,2-2.1,1.4-3.5l-6.7-15.6c-0.6-1.3-2.1-2-3.5-1.4l-3.3,1.4c-1.3,0.6-2,2.1-1.4,3.5
				l0,0c0.5,1.2,0,2.7-1.3,3.2l0,0c-2.2,1-4.8-0.1-5.8-2.3l-8.2-19.1l-16.4,7c-3.2,1.4-7-0.1-8.4-3.4l0,0l2.2-0.9
				c2-0.9,2.9-3.1,2.1-5.1l-0.5-1.1c-0.9-2-3.1-2.9-5.1-2.1l-15.8,6.7c-1.9,0.8-2.8,3.1-2,5l0,0.1c0.9,2,3.2,2.9,5.1,2.1l0.1,0l0,0
				C170.9,192.9,169.1,197.3,165.3,199L165.3,199z"/>
			<path class="st5" d="M342.6,170.4l-7.9,19.6c-0.9,2.2-3.3,3.2-5.5,2.3c0,0-0.1,0-0.1,0c-1-0.4-1.5-1.6-1.1-2.6l0.1-0.1
				c1-2.5-0.2-5.4-2.7-6.4l-0.2-0.1c-2.5-1-5.5,0.2-6.5,2.8l-5.4,13.3c-1,2.5,0.2,5.4,2.7,6.5c0,0,0.1,0,0.1,0.1
				c2.5,1,5.3-0.2,6.3-2.6c0-0.1,0.1-0.2,0.1-0.3c0.4-1.1,1.7-1.6,2.8-1.1l0.1,0.1c2.1,0.9,3.2,3.3,2.3,5.5l-8.2,20.2l-24.6-9.9
				l1.8-4.5c0.5-1.3,1.7-2,3-2c0.4,0,0.8,0.1,1.2,0.2c1.5,0.6,3.2-0.1,3.9-1.6l0.6-1.4c0.6-1.5-0.1-3.3-1.6-3.9l-8.8-3.5l-4.8-1.9
				c-0.4-0.1-0.7-0.2-1.1-0.2c-1.2,0-2.3,0.7-2.8,1.9c-0.1,0.4-0.2,0.7-0.2,1.1c0,1.2,0.7,2.3,1.9,2.8c1.2,0.5,1.7,1.8,1.3,3
				l-2.6,6.4l-24.5-9.9l5.7-14c0.4-0.9,0.5-1.9,0.5-2.8c0-3-1.8-5.8-4.7-6.9l0,0.1c-0.8,2-3.1,3-5.1,2.2l-0.1,0
				c-2-0.8-2.9-3-2.1-4.9l6.4-15.9c0.8-2,3.1-3,5.1-2.2l1.1,0.4c2,0.8,3,3.1,2.2,5.1l-0.9,2.2c3.3,1.3,7-0.3,8.3-3.5l6.7-16.5
				l19.2,7.8c0.5,0.2,1.1,0.3,1.6,0.3c1.8,0,3.4-1,4.1-2.8c0.1-0.3,0.2-0.6,0.2-0.9c0-1-0.6-1.9-1.5-2.3c-1.4-0.5-2-2.1-1.5-3.4
				l1.3-3.3c0.5-1.4,2.1-2,3.4-1.5l7.9,3.2l7.8,3.1c1.4,0.6,2,2.1,1.5,3.4l-1.6,3.9c-0.4,1-1.4,1.6-2.5,1.6c-0.3,0-0.7-0.1-1-0.2
				c-0.4-0.2-0.8-0.2-1.2-0.2c-1.2,0-2.4,0.8-2.9,2c-0.7,1.7,0.1,3.6,1.8,4.2L342.6,170.4L342.6,170.4z"/>
		</g>
		<path class="st6" d="M136,203.8c0,0-163.4-113.3-50-57.5c109.2,53.8,167.9,16.1,139.7-33.6c-25-43.9-95.8-73.1-50.5-66.8
			c45.3,6.3,67.2,12.7,80.8-23.8c9.4-25.2-99,0.7-99,0.7l-36.2-10.2L23.9,56.8c0,0-6.8,79.5-4.8,79.2s52.7,76,52.7,76L136,203.8
			L136,203.8z"/>
		<path class="st7" d="M182.6,226.9c2.4-15.2,16-26.4,30-34.7l3.3,7.7c0.7,1.7,2.3,2.7,4,2.7c0.6,0,1.2-0.1,1.7-0.4
			c0.9-0.4,1.5-1.3,1.5-2.2c0-0.3-0.1-0.6-0.2-1c-0.6-1.3,0.1-2.9,1.4-3.5l3.3-1.4c1.3-0.6,2.9,0.1,3.5,1.4l6.7,15.6
			c0.6,1.3,0,2.9-1.4,3.4l-3.8,1.6c-0.3,0.1-0.7,0.2-1,0.2c-1,0-2-0.6-2.4-1.6c-0.5-1.2-1.7-1.9-2.9-1.9c-0.4,0-0.8,0.1-1.2,0.3
			c-1.7,0.7-2.4,2.6-1.7,4.3L232,238l-19.5,8.3c-2.1,0.9-4.6-0.1-5.6-2.2c0,0,0-0.1,0-0.1c-0.4-1,0-2.2,1.1-2.6l0.1-0.1
			c2.5-1.1,3.6-3.9,2.6-6.4l-0.1-0.2c-1.1-2.5-4-3.7-6.5-2.6l-13.2,5.6c-2.5,1.1-3.7,4-2.6,6.5c0,0,0,0.1,0.1,0.1
			c1,2.5,3.9,3.6,6.3,2.6l0.3-0.1c1.1-0.5,2.3,0.1,2.8,1.2l0.1,0.1c0.9,2.1-0.1,4.6-2.2,5.5l-3,1.3
			C181.7,245.3,181.2,235.9,182.6,226.9L182.6,226.9z"/>
		<path class="st5" d="M236.4,214.6l-3.8,1.6c-0.3,0.1-0.7,0.2-1,0.2c-1,0-2-0.6-2.4-1.6c-0.5-1.2-1.7-1.9-2.9-1.9
			c-0.4,0-0.8,0.1-1.2,0.3c-1.7,0.7-2.4,2.6-1.7,4.3L232,238l-19.5,8.3c-2.1,0.9-4.6-0.1-5.6-2.2c0,0,0-0.1,0-0.1
			c-0.4-1,0-2.2,1.1-2.6l0.1-0.1c2.5-1.1,3.6-3.9,2.6-6.4l-0.1-0.2c-1.1-2.5-4-3.7-6.5-2.6l-13.2,5.6c-2.5,1.1-3.7,4-2.6,6.5
			c0,0,0,0.1,0.1,0.1c1,2.5,3.9,3.6,6.3,2.6l0.3-0.1c1.1-0.5,2.3,0.1,2.8,1.2l0.1,0.1c0.9,2.1-0.1,4.6-2.2,5.5l-3,1.3l-17.1,7.3
			L165,237.8l4.4-1.9c0.4-0.2,0.9-0.3,1.3-0.3c1.3,0,2.5,0.7,3,2c0.6,1.5,2.4,2.2,3.9,1.6l1.4-0.6c1.5-0.6,2.2-2.4,1.6-3.9
			l-5.7-13.4c-0.5-1.1-1.6-1.8-2.7-1.8c-0.4,0-0.8,0.1-1.2,0.2c-1.1,0.5-1.8,1.6-1.8,2.8c0,0.4,0.1,0.8,0.2,1.2c0.5,1.1,0,2.5-1.2,3
			l-6.3,2.7l-10.4-24.4l13.9-5.9c2.8-1.2,4.5-4,4.5-6.9c0-1-0.2-2-0.6-3l-0.1,0c-2,0.9-4.3-0.1-5.1-2.1l0-0.1c-0.8-1.9,0.1-4.2,2-5
			l15.8-6.8c2-0.8,4.3,0.1,5.1,2.1l0.5,1.1c0.9,2-0.1,4.3-2.1,5.1l-2.2,0.9c1.4,3.2,5.1,4.7,8.4,3.4l16.4-7l4.9,11.4l3.3,7.7
			c0.7,1.7,2.3,2.7,4,2.7c0.6,0,1.2-0.1,1.7-0.4c0.9-0.4,1.5-1.3,1.5-2.2c0-0.3-0.1-0.6-0.2-1c-0.6-1.3,0.1-2.9,1.4-3.5l3.3-1.4
			c1.3-0.6,2.9,0.1,3.5,1.4l6.7,15.6C238.3,212.5,237.7,214,236.4,214.6L236.4,214.6z"/>
		<path class="st7" d="M306.9,173.8l13-29.6l7.8,3.1c1.4,0.6,2,2.1,1.5,3.4l-1.6,3.9c-0.4,1-1.4,1.6-2.5,1.6c-0.3,0-0.7-0.1-1-0.2
			c-0.4-0.2-0.8-0.2-1.2-0.2c-1.2,0-2.4,0.8-2.9,2c-0.7,1.7,0.1,3.6,1.8,4.2l20.7,8.4l-7.9,19.6c-0.9,2.2-3.3,3.2-5.5,2.3
			c0,0-0.1,0-0.1,0c-1-0.4-1.5-1.6-1.1-2.6l0.1-0.1c1-2.5-0.2-5.4-2.7-6.4l-0.2-0.1c-2.5-1-5.5,0.2-6.5,2.8l-2.3,5.8
			C309.8,185.7,307.4,179.6,306.9,173.8L306.9,173.8z"/>
	</g>
</g>
</svg>
