<svg version="1.2" xmlns="http://www.w3.org/2000/svg" viewBox="0 0 1000 650" width="1000" height="650"><style>.a{fill:#222}.b{fill:#c6bab3}.c{fill:#eddfd6}</style><path class="a" d="m-217-120h1517v995h-1517z"/><path class="b" d="m477.9 435.7h43.5l7.3 18.3c3.9 10 7.2 18.4 7.2 18.5 0 0.2-16.3 0.3-36.2 0.3-34.2 0-36.1 0-36-0.6 0.1-0.4 3.3-8.7 7.2-18.6z"/><path class="c" d="m471.2 334.3c0.2 0 0.3 14.8-0.1 73h56.9l-0.1-36.5c0-20.1 0-36.5 0.1-36.5 0.1 0 7.2 3.6 31.3 16l0.2 101.8-7.2 6.8c-4 3.8-7.4 6.7-7.5 6.6-0.1-0.2-3.9-9.1-8.4-20-4.4-10.8-8.2-19.8-8.3-20.1-0.1-0.4-6-0.4-56.8-0.3l-8.4 20.1c-4.5 11-8.3 20.2-8.4 20.4-0.1 0.1-3.4-2.6-14.9-12.8l-0.1-102.3 15.7-8.1c8.6-4.4 15.8-8.1 16-8.1z"/><path class="b" d="m376.7 299.1c0.3 0 7 4.7 29.4 20.8l0.2 14.2 22.5 16.1-0.1 46.7c0 30.9-0.1 46.8-0.3 46.8-0.2 0-9.8-8-21.3-17.7-11.5-9.7-21.2-18-21.6-18.3-0.7-0.7-0.9-2.3-2.2-18.8-0.7-10-2.6-33.4-4-52.2-1.4-18.7-2.7-34.9-2.8-35.8-0.2-1.4-0.1-1.8 0.2-1.8z"/><path class="b" d="m622.6 299.6c0.1 0.4-1.2 18.3-2.8 39.7-1.7 21.5-3.5 45.5-4.2 53.4-0.6 8-1.2 14.5-1.4 14.7-0.1 0.1-9.9 8.5-21.7 18.6-11.8 10.1-21.5 18.4-21.6 18.3 0 0-0.2-21.1-0.6-93.7l0.9-0.8c0.4-0.4 5.5-4.1 21.6-15.5v-14.1l14.8-10.7c13.1-9.5 14.9-10.6 15-9.9z"/><path class="b" d="m473 271c0.1 0 6.1 4.1 26.7 18.3l2.5-1.7c1.3-1 7.2-5.1 13.2-9.2 5.9-4.1 10.8-7.4 10.9-7.3 0.1 0-1.7 12.3-8 54.6v71.1h-37.5v-72.3l-3.9-25.9c-2.2-14.3-4-26.3-4-26.8 0-0.4 0.1-0.8 0.1-0.8z"/><path class="c" d="m648.2 192.4c0.5-0.1 0.8 0.1 0.8 0.5 0 0.3-0.5 2.9-1.1 5.7-0.7 2.8-3.4 15.5-6.2 28.2-2.8 12.6-6.5 30-8.4 38.5-1.9 8.5-3.4 15.5-3.4 15.6 0 0.1-10.2 7.5-22.6 16.4-12.4 8.8-22.8 16.3-23.1 16.5-0.3 0.3-12.9 2.4-28.1 4.8-15.1 2.5-27.6 4.4-27.7 4.3-0.1 0 1.9-13.3 9.2-59.1l28.6-18.9c15.8-10.4 28.9-19.1 29.1-19.4 0.2-0.2 1.7-6.9 3.4-14.9 2.9-14.5 2.9-14.6 3.8-14.6 0.6 0 10.8-0.8 22.9-1.8 12.1-1 22.3-1.8 22.8-1.8z"/><path class="a" d="m618.5 250c0.2 0 0.3 0.2 0.3 0.5 0 0.2-0.5 2.3-2.2 8.6l-8.2 5.6c-4.6 3-19.2 12.9-32.6 22-13.4 9-24.5 16.3-24.6 16.2-0.2-0.2 0.1-2.2 1.3-8.9l32.8-22c18-12.1 33-22 33.2-22zm5.1-26.6c0.1 0 0.1 0.4 0.1 0.8-0.1 0.5-0.5 2.6-0.9 4.6-0.5 2.1-1 4-1.3 4.2-0.2 0.2-6.1 4.3-13.1 9-7 4.8-21.7 14.6-32.5 22-10.9 7.3-19.9 13.3-20 13.3-0.1-0.1 0.1-2.1 0.5-4.5 0.3-2.4 0.7-4.5 0.8-4.5 0.1-0.1 12.3-8.4 27-18.3 14.7-10 29.6-20 33-22.4 3.4-2.3 6.2-4.2 6.4-4.2z"/><path class="c" d="m350 192.3l2.2 0.2c1.2 0.1 10.7 0.9 21.1 1.7 10.4 0.8 20.1 1.5 21.6 1.7 2.2 0.1 2.8 0.3 2.9 0.8 0.1 0.4 1.5 7 3 14.7 1.6 7.7 2.9 14.1 2.9 14.1 0.1 0.1 12.9 8.6 28.6 18.9 15.7 10.3 28.7 19 28.9 19.2 0.3 0.3 1.7 7.9 3.3 18.1 1.6 9.6 3.7 22.9 4.7 29.4 1 6.5 1.8 11.8 1.8 11.8-0.1 0.1-11.2-1.6-24.7-3.8-13.5-2.2-25.8-4.1-27.3-4.3-1.6-0.3-3.2-0.6-3.6-0.8-0.4-0.3-10.8-7.7-23.2-16.5-12.4-8.9-22.5-16.2-22.6-16.2 0 0-0.4-1.5-0.8-3.4-0.5-1.8-4.7-21.4-9.6-43.4-4.8-22.1-8.8-40.6-8.9-41.2z"/><path class="a" d="m413.3 271.6c18.1 12.1 33 22.1 33.1 22.2 0.2 0.1 0.7 2.3 1.2 4.8 0.4 2.6 0.6 4.5 0.4 4.4-0.2 0-4.9-3.2-10.6-7-5.6-3.8-20.1-13.5-32.1-21.7-12.1-8.1-22.1-14.8-22.3-14.9-0.2-0.1-0.8-2.1-1.5-4.3-0.6-2.3-1.1-4.5-1.1-4.8 0-0.5 9.8 5.8 32.9 21.3zm-37.3-48c0.3 0.2 4.3 2.9 8.9 6 4.6 3.1 19.2 13 32.4 21.9 13.2 8.9 24.2 16.4 24.4 16.6 0.3 0.3 0.8 2.1 1.1 4.2 0.3 2 0.6 4 0.5 4.4-0.1 0.5-4-2-17.2-10.9-9.4-6.3-24.1-16.3-32.8-22.1-8.6-5.9-15.8-10.9-16-11.1-0.1-0.2-0.6-2.2-1-4.3-0.4-2.2-0.7-4.2-0.7-4.5 0-0.2 0.2-0.3 0.4-0.2z"/><path class="b" d="m498.6 177c7.8 0 15.2 0.2 19.9 0.5 4.1 0.3 8.4 0.7 9.5 0.8 1.1 0.1 3.7 0.5 5.6 0.8 2 0.3 5.7 0.9 8.3 1.5 2.5 0.5 7.1 1.5 10.1 2.2 3 0.7 7.6 1.9 10.3 2.6 2.7 0.8 7.4 2.3 10.5 3.4 3.1 1.2 8.2 3.2 11.4 4.5 3.2 1.4 5.9 2.5 5.9 2.5 0.1 0-1 5.5-2.3 12.2-1.4 6.7-2.6 12.3-2.8 12.4-0.1 0.2-19.2 12.8-42.4 28.1-23.2 15.3-42.3 28-42.5 28.1-0.2 0.2-17.9-11.3-42.9-27.7-23.4-15.5-42.7-28.4-42.9-28.6-0.3-0.3-1.5-5.8-2.8-12.3-1.4-6.5-2.3-12-2.2-12.1 0.1-0.1 3-1.4 6.5-2.9 3.5-1.4 8.7-3.4 11.4-4.4 2.8-1.1 7.5-2.6 10.5-3.4 3-0.8 7.6-2 10.1-2.6 2.6-0.6 7.3-1.6 10.5-2.2 3.2-0.6 7.2-1.3 8.8-1.6 1.7-0.2 6.7-0.7 11.1-1.1 5.3-0.4 12.3-0.7 20.4-0.7z"/><path class="a" d="m499.5 209.9c26.4 0 48.1 0.1 48.2 0.3 0.1 0.2-10.7 7.5-23.9 16.3-13.3 8.8-24.2 16-24.5 15.9-0.2-0.1-11-7.3-24-15.9-13.1-8.7-23.7-16-23.7-16.2 0-0.3 16.2-0.4 47.9-0.4z"/></svg>