<?xml version="1.0" encoding="UTF-8"?><svg xmlns="http://www.w3.org/2000/svg" xmlns:xlink="http://www.w3.org/1999/xlink" viewBox="0 0 493.26 299.27"><defs><style>.e,.f{fill:none;}.f{stroke-width:.42px;}.f,.g{stroke:#1d1d1b;}.f,.g,.h{stroke-miterlimit:10;}.i,.j,.h{fill:#1d1d1b;}.j{opacity:.19;}.g{fill:#eddfd6;}.g,.h{stroke-width:.42px;}.h{stroke:#eddfd6;}.k{clip-path:url(#d);}</style><clipPath id="d"><rect class="e" x=".21" y=".21" width="492.84" height="298.63"/></clipPath></defs><g id="a"/><g id="b"><g id="c"><g class="k"><rect class="h" x=".21" y=".21" width="492.84" height="298.63"/></g><g><g><rect class="g" x="86.25" y="90.08" width="80.98" height="127.99"/><rect class="g" x="88.32" y="92.67" width="76.48" height="125.4"/><rect class="g" x="94.97" y="100.17" width="63.19" height="117.9"/><ellipse class="h" cx="147.29" cy="161.16" rx="1.71" ry="2.53"/><polygon class="i" points="94.97 100.17 144.12 109.15 144.12 218.08 158.16 218.08 158.16 100.17 94.97 100.17"/><polygon class="i" points="94.97 218.08 154 205.57 154 218.08 94.97 218.08"/><circle class="f" cx="138.88" cy="159.73" r="2.8"/><rect class="i" x="137.26" y="161.83" width="8.62" height="36.24" rx="3.86" ry="3.86" transform="translate(109.18 -46.71) rotate(30.06)"/><rect class="i" x="121.32" y="178.75" width="8.62" height="26.49" rx="3.86" ry="3.86" transform="translate(-66.36 317.63) rotate(-90)"/><path class="i" d="M112.38,187.69h6.29v8.92c0,3.11-2.53,5.64-5.64,5.64h-.65v-14.57h0Z"/></g><g><rect class="g" x="326.04" y="90.08" width="80.98" height="127.99" transform="translate(733.05 308.16) rotate(-180)"/><rect class="g" x="328.46" y="92.67" width="76.48" height="125.4" transform="translate(733.41 310.75) rotate(-180)"/><rect class="g" x="335.11" y="100.17" width="63.19" height="117.9" transform="translate(733.41 318.25) rotate(-180)"/><ellipse class="h" cx="345.97" cy="161.16" rx="1.71" ry="2.53"/><polygon class="i" points="398.3 100.17 349.15 109.15 349.15 218.08 335.11 218.08 335.11 100.17 398.3 100.17"/><polygon class="i" points="398.3 218.08 339.26 205.57 339.26 218.08 398.3 218.08"/><circle class="f" cx="354.39" cy="159.73" r="2.8"/><rect class="i" x="347.38" y="161.83" width="8.62" height="36.24" rx="3.86" ry="3.86" transform="translate(746.22 159.53) rotate(149.94)"/><rect class="i" x="363.32" y="178.75" width="8.62" height="26.49" rx="3.86" ry="3.86" transform="translate(175.64 559.63) rotate(-90)"/><path class="i" d="M374.59,187.69h.65c3.11,0,5.64,2.53,5.64,5.64v8.92h-6.29v-14.57h0Z" transform="translate(755.47 389.94) rotate(180)"/></g><path class="g" d="M167.23,218.08l48.93-9.75c20.12-4.01,40.83-4.01,60.95,0l48.93,9.75V90.08l-48.72,10c-21.38,4.39-43.45,4.29-64.79-.29l-45.29-9.71v127.99Z"/></g><path class="j" d="M333.29,226.86s155.13-32.33,69.02-54c-70.2-17.66-74.46-36.74-71.76-53.84,6.25-39.62,87.85-51.43,56.48-58.34-31.38-6.91-55.24-14.27-54.93-15.21s77.13,1.44,77.13,1.44l78.26,12.33-28.81,142.36s-31.86,52.86-33.1,52.19-5.98-36.69-5.98-36.69l-86.31,9.77Z"/><path class="j" d="M164.8,290.53s158.44,.35,72.33-21.31c-70.2-17.66-74.46-36.74-71.76-53.84,6.25-39.62,87.85-51.43,56.48-58.34-31.38-6.91-55.24-14.27-54.93-15.21,.25-.76,51.81,.69,70.48,1.24h.13c7.94,.25,15.46,3.6,21.14,9.15l67.36,65.86v31.58s-26.38,43.82-27.62,43.15-47.31-12.05-47.31-12.05l-86.31,9.77Z"/><path class="j" d="M139.37,272.31S-15.76,239.97,70.35,218.31c70.2-17.66,74.46-36.74,71.76-53.84-6.25-39.62-87.85-51.43-56.48-58.34,31.38-6.91,55.24-14.27,54.93-15.21s-77.13,1.44-77.13,1.44L20.39,60.71l4.44,119.26s19.25,106.08,22.25,119.26c.31,1.38,5.98-36.69,5.98-36.69l86.31,9.77Z"/></g></g></svg>