<svg version="1.2" xmlns="http://www.w3.org/2000/svg" viewBox="0 0 1000 600" width="1000" height="600"><style>.a{fill:#222}.b{fill:#eddfd6}</style><path class="a" d="m0-6h1000v612h-1000v-306z"/><path class="b" d="m613.8 325.3l5.7 1.9c3.2 1.1 7.9 3 10.6 4.4 2.7 1.3 7.1 4 9.8 5.9 2.6 1.9 7 5.8 9.7 8.6 2.7 2.9 6.3 7.4 7.9 10.1 1.7 2.7 4.1 7.8 5.4 11.4 1.3 3.6 2.8 9.1 3.4 12.2 0.7 3.6 0.9 8.9 0.6 14.6-0.3 5.7-1.2 11.1-2.3 14.7-0.9 3.1-3 8.2-4.6 11.4-1.6 3.1-4.2 7.5-5.9 9.7-1.7 2.2-5 5.9-7.4 8.2-2.4 2.2-6.1 5.2-8.1 6.6-2 1.4-5.9 3.6-8.7 5-2.8 1.4-7.9 3.4-17.7 6.2h-112.6c-104.7 0-113.1-0.1-118-1.4-2.9-0.8-9.1-3.3-13.8-5.6-7.4-3.7-9.5-5.2-16-11.6-4.7-4.7-8.6-9.6-10.9-13.5-1.9-3.3-4.4-8.7-5.4-11.8-1.1-3.1-2.3-8.1-2.8-11-0.5-3-0.7-9.1-0.5-14.2 0.3-5.5 1.2-11.1 2.2-14.6 0.9-3.2 2.6-7.7 3.8-10.2 1.1-2.5 3.6-6.7 5.6-9.4 1.9-2.6 6-7.2 9-10.1 3.1-2.9 7.8-6.7 10.5-8.3 2.7-1.7 7.5-4 10.6-5.2 3.1-1.2 8.1-2.6 11-3.2 4.2-0.9 27.3-1.1 228.9-0.8z"/><path class="a" d="m619.1 364.7v7.4h-26v17h21.9v7.4h-21.9v22.7h-8.1l-0.2-26.7c-0.1-14.7 0.2-26.9 0.6-27.2 0.3-0.3 8.1-0.6 33.7-0.6zm-76.4 0h34.1v7.4h-26.8v17h22.8v7.4h-22.8v22.7h-7.3v-27.2zm-31.4 0c3 0 6.2 0.6 8.2 1.5 1.8 0.8 4.3 2.6 5.5 3.9 1.3 1.3 2.9 3.6 3.7 5.2 1 2.1 1.4 5.7 1.6 14.2 0.2 6.4-0.1 13.2-0.6 15.4-0.4 2.3-1.9 5.7-3.3 7.6-1.3 1.9-4 4.2-5.9 5.2-2.6 1.3-4.9 1.8-9.2 1.8-4.2 0-6.4-0.4-8.9-1.7-1.8-0.9-4-2.6-5-3.6-0.9-1.1-2.4-3.2-3.2-4.8-1.4-2.5-1.6-4.7-1.6-32.2l2.5-4c1.8-3.1 3.5-4.6 6.9-6.3 3.4-1.7 5.6-2.2 9.3-2.2z"/><path class="b" d="m511.1 372.1c1.7 0 4.2 0.5 5.5 1.2 1.4 0.6 3.2 2.4 4.1 3.8 1.4 2.4 1.6 4.1 1.6 14.7 0 9-0.3 12.6-1.2 14.4-0.7 1.4-2.2 3.2-3.4 4.1-1.6 1.2-3.5 1.7-6.6 1.6-3.7 0-4.6-0.4-10.3-5.6l-0.3-12.8c-0.3-10.6-0.1-13.4 1-15.5 0.7-1.5 2.5-3.4 4-4.3 1.4-0.9 4-1.6 5.6-1.6z"/><path class="a" d="m397.5 333.9c5.8-0.1 10 0.4 14.6 1.6 3.6 0.9 8.9 2.9 11.8 4.5 2.9 1.5 7.4 4.4 10 6.4 2.5 2 6.3 5.8 8.4 8.4 2 2.5 5.1 7.6 6.9 11.2 1.7 3.5 3.7 9.2 4.5 12.6 0.9 4.4 1.2 8.5 0.9 15-0.3 6.1-1 10.6-2.2 14.2-1 3-2.9 7.3-4.2 9.8-1.3 2.5-4 6.6-6 9.2-2 2.5-5.8 6.3-8.3 8.3-2.6 2.1-7.6 5.2-11.2 6.9-3.6 1.8-8.9 3.7-11.8 4.4-2.9 0.7-8.8 1.3-13 1.3-5.2 0-9.9-0.5-14.2-1.7-3.6-0.9-9.5-3.1-13.1-5-4.8-2.5-8.2-5.1-13-10-3.6-3.6-7.7-8.5-9.1-11-1.5-2.4-3.6-7.2-4.7-10.5-1.2-3.4-2.4-9.1-2.8-12.6-0.4-3.7-0.4-9.2 0-12.6 0.4-3.4 1.5-8.5 2.4-11.4 1-2.9 3.3-7.9 5.1-11 1.9-3.1 5.5-7.9 8-10.6 2.5-2.7 6.9-6.4 9.7-8.3 2.9-1.9 7.3-4.2 9.7-5.2 2.5-1 6.5-2.2 9-2.8 2.4-0.5 8.1-1 12.6-1.1z"/><path class="b" d="m613.8 143.1l5.7 1.9c3.2 1.1 9 3.6 13 5.7 5.1 2.7 9.2 5.6 13.7 9.9 3.5 3.3 8 8.6 10 11.6 2 3 4.7 8.1 6 11.4 1.3 3.2 3 8.8 3.7 12.4 1.1 4.9 1.3 8.8 1 15.8-0.3 5.7-1.1 11.5-2.1 14.7-0.8 2.9-2.9 8-4.6 11.4-1.7 3.3-4.6 8.1-6.5 10.5-1.9 2.5-5.3 6.2-7.4 8.2-2.2 2-5.7 4.8-7.7 6.2-2 1.4-5.9 3.6-8.7 5-2.8 1.4-7.9 3.4-17.7 6.2h-112.6c-104.7 0-113.1-0.1-118-1.4-2.9-0.8-9-3.2-13.6-5.5-7.2-3.5-9.4-5.1-16-11.6-4.7-4.7-8.8-9.6-10.9-13.2-1.8-3.1-4-7.5-4.9-9.7-0.9-2.3-2.2-6.9-2.9-10.4-0.7-3.5-1.3-9.9-1.3-14.2 0-5.5 0.5-10.1 1.7-14.9 1-3.8 2.9-9.3 4.2-12.2 1.3-2.9 3.9-7.5 5.9-10.1 1.9-2.7 6-7.3 9-10.2 3.1-3 8.2-6.8 11.3-8.7 3.2-1.8 7.9-4.1 10.6-5.1 2.7-1 7.3-2.3 10.2-2.9 4.2-0.9 27.1-1 228.9-0.8z"/><path class="a" d="m467 181.7l6.9 0.1 6.5 10.3c3.6 5.7 9 14.3 12 19.1 3 4.8 5.9 8.8 6.3 8.8 0.6 0 0.9-7 0.9-38.3h7.3v53.7h-7.3l-11.5-18.1c-6.4-9.9-12-18.6-12.7-19.3-0.9-1-1.1 1.6-1.1 37.4h-7.3v-26.8zm-31.3-0.8c2.6 0 5.6 0.7 8.1 1.8 2.3 1.1 5.1 3.2 6.2 4.7 1.2 1.6 2.6 4.1 3.3 5.7 0.8 2 1.1 6.5 1.1 15.4 0 9-0.3 13.4-1.1 15.5-0.7 1.5-2.1 4.1-3.3 5.6-1.1 1.6-3.9 3.7-6.2 4.7-2.3 1.1-5.6 1.9-7.7 1.9-2 0-4.9-0.4-6.5-0.8-1.6-0.4-4.1-1.6-5.7-2.7-1.7-1.1-3.7-3.6-5.1-6.3-2.2-4.3-2.2-4.8-2.2-17.9 0-13 0-13.5 2.2-17.8 1.3-2.4 3.4-5.2 4.7-6.1 1.3-0.9 3.7-2.1 5.3-2.7 1.6-0.5 4.7-1 6.9-1z"/><path class="b" d="m436.5 188.6c1.8 0.2 4.2 1.1 5.3 1.9 1.1 0.8 2.7 2.8 3.5 4.3 1.1 2.3 1.4 4.9 1.4 13.8 0 8.8-0.3 11.5-1.4 13.7-0.8 1.6-2.5 3.6-3.8 4.5-1.5 1.2-3.5 1.7-6.2 1.7-2.7 0-4.7-0.5-6.2-1.7-1.3-0.9-2.9-2.8-3.6-4.1-0.8-1.6-1.3-5.5-1.5-12.5-0.1-6.3 0.1-11.4 0.7-13.4 0.6-1.8 1.4-4 2-4.8 0.5-0.9 2.2-2.1 3.8-2.7 1.5-0.6 4.2-0.9 6-0.7z"/><path class="a" d="m603.3 152c8.2 0.2 11.6 0.7 15.4 2 2.7 1 7.3 3 10.2 4.6 2.9 1.5 7.6 4.9 10.5 7.4 2.8 2.6 6.7 7 8.6 9.6 1.9 2.7 4.4 6.9 5.5 9.4 1.1 2.4 2.6 7 3.4 10.2 0.8 3.4 1.4 8.7 1.3 13.4 0 4.2-0.4 9.4-0.8 11.6-0.5 2.1-1.7 6.1-2.8 8.9-1 2.8-3.4 7.5-5.2 10.4-1.8 2.9-5.4 7.3-8.1 9.8-2.6 2.5-6.7 5.9-9.2 7.4-2.4 1.6-6.8 3.8-9.7 5-2.9 1.2-7.3 2.5-9.8 3-2.5 0.4-7.8 0.8-11.8 0.8-4.5 0-9.7-0.6-13.4-1.5-3.4-0.9-8.7-2.9-11.8-4.4-3.1-1.6-7.8-4.6-10.4-6.6-2.5-2.1-6.3-5.9-8.3-8.4-2-2.6-4.9-7.1-6.5-10-1.5-2.9-3.5-8.2-4.5-11.8-1.1-4.3-1.6-9-1.6-13.8 0-4 0.6-9.9 1.2-13 0.7-3.2 2.7-8.7 4.4-12.2 1.8-3.6 4.9-8.6 7-11.2 2-2.6 5.8-6.4 8.3-8.4 2.6-2 7.3-5 10.4-6.6 3.1-1.6 8.3-3.6 11.4-4.4 4.6-1.3 7.7-1.5 16.3-1.2z"/></svg>