<?xml version="1.0" encoding="UTF-8"?><svg xmlns="http://www.w3.org/2000/svg" viewBox="0 0 493.26 299.05"><defs><style>.d{fill:#eddfd6;font-family:Helvetica-Bold, Helvetica;font-size:73.4px;stroke:#1d1d1b;stroke-width:.42px;}.d,.e,.f{stroke-miterlimit:10;}.e{fill:none;stroke-width:.42px;}.e,.f{stroke:#eddfd6;}.g{opacity:.19;}.g,.f{fill:#1d1d1b;}.h{letter-spacing:-.05em;}.f{stroke-width:.42px;}</style></defs><g id="a"/><g id="b"><g id="c"><rect class="f" x=".21" y=".21" width="492.84" height="298.63"/><text class="d" transform="translate(77.71 173.6)"><tspan class="h" x="0" y="0">F</tspan><tspan x="40.82" y="0">AL1OUT</tspan></text><polyline class="e" points="177.06 181.41 180.44 187.41 183.83 181.41 187.21 187.41 190.59 181.41 193.97 187.41 197.35 181.41 200.73 187.41 204.12 181.41 207.5 187.41 210.89 181.41 214.27 187.41 217.66 181.41 221.04 187.41 224.43 181.41 227.81 187.41 231.2 181.41 234.59 187.41 237.98 181.41 241.37 187.41 244.76 181.41"/><path class="g" d="M325.11,174.07s-163.36-113.32-49.97-57.47c109.16,53.77,163.13,25.36,150.32-30.28-12.81-55.64-106.37-76.42-61.08-70.11,45.3,6.31,71.34,28.67,71.39,27.27S327.09,9.4,327.09,9.4l-53.44,16.75-102.4,5.46s-18.03,77.82-16.04,77.53c1.99-.29,105.77,73.08,105.77,73.08l64.13-8.14Z"/></g></g></svg>