<?xml version="1.0" encoding="UTF-8"?><svg xmlns="http://www.w3.org/2000/svg" xmlns:xlink="http://www.w3.org/1999/xlink" viewBox="0 0 492.84 298.63"><defs><style>.e{fill:none;}.f,.g,.h,.i{fill:#eddfd6;}.j,.k,.l{fill:#1d1d1b;}.g,.h,.l{stroke-miterlimit:10;}.g,.h,.i{stroke:#1d1d1b;}.k{opacity:.19;}.h,.l,.i{stroke-width:.42px;}.l{stroke:#eddfd6;}.i{stroke-linecap:round;stroke-linejoin:round;}.m{clip-path:url(#d);}</style><clipPath id="d"><rect class="e" x="0" width="492.84" height="298.63"/></clipPath></defs><g id="a"/><g id="b"><g id="c"><g class="m"><rect class="l" x="0" width="492.84" height="298.63"/><g><g><polygon class="h" points="183.33 122.48 177.29 128.52 177.29 122.48 183.33 122.48"/><polygon class="h" points="205.5 122.48 186.24 141.73 177.29 141.73 177.29 136.04 190.84 122.48 205.5 122.48"/><polygon class="h" points="227.67 122.48 208.42 141.73 193.76 141.73 213.02 122.48 227.67 122.48"/><polygon class="h" points="249.84 122.48 230.59 141.73 215.93 141.73 235.19 122.48 249.84 122.48"/><polygon class="h" points="272.01 122.48 252.76 141.73 238.1 141.73 257.36 122.48 272.01 122.48"/><polygon class="h" points="294.18 122.48 274.93 141.73 260.28 141.73 279.53 122.48 294.18 122.48"/><polygon class="h" points="310.66 122.48 310.66 128.17 297.1 141.73 282.45 141.73 301.7 122.48 310.66 122.48"/><polygon class="h" points="304.62 141.73 310.66 135.7 310.66 141.73 304.62 141.73"/></g><g><polygon class="h" points="183.33 150.75 177.29 156.8 177.29 150.75 183.33 150.75"/><polygon class="h" points="205.5 150.75 186.24 170.01 177.29 170.01 177.29 164.31 190.84 150.75 205.5 150.75"/><polygon class="h" points="227.67 150.75 208.42 170.01 193.76 170.01 213.02 150.75 227.67 150.75"/><polygon class="h" points="249.84 150.75 230.59 170.01 215.93 170.01 235.19 150.75 249.84 150.75"/><polygon class="h" points="272.01 150.75 252.76 170.01 238.1 170.01 257.36 150.75 272.01 150.75"/><polygon class="h" points="294.18 150.75 274.93 170.01 260.28 170.01 279.53 150.75 294.18 150.75"/><polygon class="h" points="310.66 150.75 310.66 156.45 297.1 170.01 282.45 170.01 301.7 150.75 310.66 150.75"/><polygon class="h" points="304.62 170.01 310.66 163.97 310.66 170.01 304.62 170.01"/></g><rect class="i" x="234.11" y="116.67" width="20.45" height="4.99"/><g><path class="j" d="M234.69,115.9v-1.74c0-5.32,4.33-9.65,9.65-9.65s9.65,4.33,9.65,9.65v1.74h-19.3Z"/><path class="f" d="M244.34,104.72c5.2,0,9.44,4.23,9.44,9.44v1.53h-18.87v-1.53c0-5.2,4.23-9.44,9.44-9.44m0-.42c-5.45,0-9.86,4.41-9.86,9.86v1.95h19.72v-1.95c0-5.45-4.41-9.86-9.86-9.86h0Z"/></g><rect class="i" x="189.56" y="100.67" width="20.45" height="4.99"/><g><path class="j" d="M190.14,99.3v-1.74c0-5.32,4.33-9.65,9.65-9.65s9.65,4.33,9.65,9.65v1.74h-19.3Z"/><path class="f" d="M199.78,88.12c5.2,0,9.44,4.23,9.44,9.44v1.53h-18.87v-1.53c0-5.2,4.23-9.44,9.44-9.44m0-.42c-5.45,0-9.86,4.41-9.86,9.86v1.95h19.72v-1.95c0-5.45-4.42-9.86-9.86-9.86h0Z"/></g><rect class="i" x="278.24" y="100.67" width="20.45" height="4.99"/><g><path class="j" d="M278.81,99.3v-1.74c0-5.32,4.33-9.65,9.65-9.65s9.65,4.33,9.65,9.65v1.74h-19.3Z"/><path class="f" d="M288.46,88.12c5.2,0,9.44,4.23,9.44,9.44v1.53h-18.87v-1.53c0-5.2,4.23-9.44,9.44-9.44m0-.42c-5.45,0-9.86,4.41-9.86,9.86v1.95h19.72v-1.95c0-5.45-4.41-9.86-9.86-9.86h0Z"/></g><rect class="g" x="194.06" y="106.47" width="11.44" height="119.5"/><rect class="g" x="282.74" y="106.47" width="11.44" height="119.5"/><rect class="h" x="205.5" y="191.16" width="77.24" height="7.94"/></g><g><g><polygon class="h" points="340.06 122.48 334.02 128.52 334.02 122.48 340.06 122.48"/><polygon class="h" points="362.23 122.48 342.97 141.73 334.02 141.73 334.02 136.04 347.57 122.48 362.23 122.48"/><polygon class="h" points="384.4 122.48 365.15 141.73 350.49 141.73 369.75 122.48 384.4 122.48"/><polygon class="h" points="406.57 122.48 387.32 141.73 372.66 141.73 391.92 122.48 406.57 122.48"/><polygon class="h" points="428.74 122.48 409.49 141.73 394.83 141.73 414.09 122.48 428.74 122.48"/><polygon class="h" points="450.91 122.48 431.66 141.73 417.01 141.73 436.26 122.48 450.91 122.48"/><polygon class="h" points="467.39 122.48 467.39 128.17 453.83 141.73 439.18 141.73 458.43 122.48 467.39 122.48"/><polygon class="h" points="461.35 141.73 467.39 135.7 467.39 141.73 461.35 141.73"/></g><g><polygon class="h" points="340.06 150.75 334.02 156.8 334.02 150.75 340.06 150.75"/><polygon class="h" points="362.23 150.75 342.97 170.01 334.02 170.01 334.02 164.31 347.57 150.75 362.23 150.75"/><polygon class="h" points="384.4 150.75 365.15 170.01 350.49 170.01 369.75 150.75 384.4 150.75"/><polygon class="h" points="406.57 150.75 387.32 170.01 372.66 170.01 391.92 150.75 406.57 150.75"/><polygon class="h" points="428.74 150.75 409.49 170.01 394.83 170.01 414.09 150.75 428.74 150.75"/><polygon class="h" points="450.91 150.75 431.66 170.01 417.01 170.01 436.26 150.75 450.91 150.75"/><polygon class="h" points="467.39 150.75 467.39 156.45 453.83 170.01 439.18 170.01 458.43 150.75 467.39 150.75"/><polygon class="h" points="461.35 170.01 467.39 163.97 467.39 170.01 461.35 170.01"/></g><rect class="i" x="390.84" y="116.67" width="20.45" height="4.99"/><g><path class="j" d="M391.42,115.9v-1.74c0-5.32,4.33-9.65,9.65-9.65s9.65,4.33,9.65,9.65v1.74h-19.3Z"/><path class="f" d="M401.07,104.72c5.2,0,9.44,4.23,9.44,9.44v1.53h-18.87v-1.53c0-5.2,4.23-9.44,9.44-9.44m0-.42c-5.45,0-9.86,4.41-9.86,9.86v1.95h19.72v-1.95c0-5.45-4.41-9.86-9.86-9.86h0Z"/></g><rect class="i" x="346.29" y="100.67" width="20.45" height="4.99"/><g><path class="j" d="M346.87,99.3v-1.74c0-5.32,4.33-9.65,9.65-9.65s9.65,4.33,9.65,9.65v1.74h-19.3Z"/><path class="f" d="M356.52,88.12c5.2,0,9.44,4.23,9.44,9.44v1.53h-18.87v-1.53c0-5.2,4.23-9.44,9.44-9.44m0-.42c-5.45,0-9.86,4.41-9.86,9.86v1.95h19.72v-1.95c0-5.45-4.41-9.86-9.86-9.86h0Z"/></g><rect class="i" x="434.97" y="100.67" width="20.45" height="4.99"/><g><path class="j" d="M435.55,99.3v-1.74c0-5.32,4.33-9.65,9.65-9.65s9.65,4.33,9.65,9.65v1.74h-19.3Z"/><path class="f" d="M445.19,88.12c5.2,0,9.44,4.23,9.44,9.44v1.53h-18.87v-1.53c0-5.2,4.23-9.44,9.44-9.44m0-.42c-5.45,0-9.86,4.41-9.86,9.86v1.95h19.72v-1.95c0-5.45-4.41-9.86-9.86-9.86h0Z"/></g><rect class="g" x="350.8" y="106.47" width="11.44" height="119.5"/><rect class="g" x="439.48" y="106.47" width="11.44" height="119.5"/><rect class="h" x="362.23" y="191.16" width="77.24" height="7.94"/></g><g><g><polygon class="h" points="26.3 122.48 20.25 128.52 20.25 122.48 26.3 122.48"/><polygon class="h" points="48.47 122.48 29.2 141.73 20.25 141.73 20.25 136.04 33.8 122.48 48.47 122.48"/><polygon class="h" points="70.64 122.48 51.38 141.73 36.73 141.73 55.98 122.48 70.64 122.48"/><polygon class="h" points="92.81 122.48 73.55 141.73 58.9 141.73 78.15 122.48 92.81 122.48"/><polygon class="h" points="114.98 122.48 95.72 141.73 81.07 141.73 100.32 122.48 114.98 122.48"/><polygon class="h" points="137.15 122.48 117.89 141.73 103.25 141.73 122.49 122.48 137.15 122.48"/><polygon class="h" points="153.62 122.48 153.62 128.17 140.06 141.73 125.42 141.73 144.66 122.48 153.62 122.48"/><polygon class="h" points="147.59 141.73 153.62 135.7 153.62 141.73 147.59 141.73"/></g><g><polygon class="h" points="26.3 150.75 20.25 156.8 20.25 150.75 26.3 150.75"/><polygon class="h" points="48.47 150.75 29.2 170.01 20.25 170.01 20.25 164.31 33.8 150.75 48.47 150.75"/><polygon class="h" points="70.64 150.75 51.38 170.01 36.73 170.01 55.98 150.75 70.64 150.75"/><polygon class="h" points="92.81 150.75 73.55 170.01 58.9 170.01 78.15 150.75 92.81 150.75"/><polygon class="h" points="114.98 150.75 95.72 170.01 81.07 170.01 100.32 150.75 114.98 150.75"/><polygon class="h" points="137.15 150.75 117.89 170.01 103.25 170.01 122.49 150.75 137.15 150.75"/><polygon class="h" points="153.62 150.75 153.62 156.45 140.06 170.01 125.42 170.01 144.66 150.75 153.62 150.75"/><polygon class="h" points="147.59 170.01 153.62 163.97 153.62 170.01 147.59 170.01"/></g><rect class="i" x="77.08" y="116.67" width="20.45" height="4.99"/><g><path class="j" d="M77.65,115.9v-1.74c0-5.32,4.33-9.65,9.65-9.65s9.65,4.33,9.65,9.65v1.74h-19.3Z"/><path class="f" d="M87.3,104.72c5.2,0,9.44,4.23,9.44,9.44v1.53h-18.87v-1.53c0-5.2,4.23-9.44,9.44-9.44m0-.42c-5.45,0-9.86,4.41-9.86,9.86v1.95h19.72v-1.95c0-5.45-4.41-9.86-9.86-9.86h0Z"/></g><rect class="i" x="32.53" y="100.67" width="20.45" height="4.99"/><g><path class="j" d="M33.1,99.3v-1.74c0-5.32,4.33-9.65,9.65-9.65s9.65,4.33,9.65,9.65v1.74h-19.3Z"/><path class="f" d="M42.75,88.12c5.2,0,9.44,4.23,9.44,9.44v1.53h-18.87v-1.53c0-5.2,4.23-9.44,9.44-9.44m0-.42c-5.45,0-9.86,4.41-9.86,9.86v1.95h19.72v-1.95c0-5.45-4.41-9.86-9.86-9.86h0Z"/></g><rect class="i" x="121.2" y="100.67" width="20.45" height="4.99"/><g><path class="j" d="M121.78,99.3v-1.74c0-5.32,4.33-9.65,9.65-9.65s9.65,4.33,9.65,9.65v1.74h-19.3Z"/><path class="f" d="M131.43,88.12c5.2,0,9.44,4.23,9.44,9.44v1.53h-18.87v-1.53c0-5.2,4.23-9.44,9.44-9.44m0-.42c-5.45,0-9.86,4.41-9.86,9.86v1.95h19.72v-1.95c0-5.45-4.41-9.86-9.86-9.86h0Z"/></g><rect class="g" x="37.03" y="106.47" width="11.44" height="119.5"/><rect class="g" x="125.71" y="106.47" width="11.44" height="119.5"/><rect class="h" x="48.47" y="191.16" width="77.24" height="7.94"/></g></g><path class="k" d="M213.39,176.9s123.91-17.69,50.07-39.9c-73.84-22.21-100.61-24.1-79.09-51.49,21.52-27.38,79.79-38.06,53.15-46.34-26.64-8.28-46.29-16.34-46.41-17.18-2.44-16.66,68.92-10.66,68.92-10.66l41.92,40.54,40.94,65.19s-10.26,47.64-11.28,46.96-77.37,12.87-77.37,12.87h-40.84Z"/><path class="k" d="M385.29,269.58s123.91-17.69,50.07-39.9c-73.84-22.21-100.61-24.1-79.09-51.49,21.52-27.38,79.79-38.06,53.15-46.34-26.64-8.28-46.29-16.34-46.41-17.18-2.44-16.66,68.92-10.66,68.92-10.66l41.92,40.54,1.98,69.93s-32.04,32.97-1.45,40.32c1.19,.29-48.23,14.77-48.23,14.77h-40.84Z"/><path class="k" d="M129.49,116.1s-123.91,17.69-50.07,39.9c73.84,22.21,100.61,24.1,79.09,51.49-21.52,27.38-79.79,38.06-53.15,46.34,26.64,8.28,46.29,16.34,46.41,17.18,2.44,16.66-68.92,10.66-68.92,10.66l-41.92-40.54L0,175.94s10.26-47.64,11.28-46.96,77.37-12.87,77.37-12.87h40.84Z"/></g></g></svg>