<?xml version="1.0" encoding="UTF-8"?><svg xmlns="http://www.w3.org/2000/svg" xmlns:xlink="http://www.w3.org/1999/xlink" viewBox="0 0 493.26 299.05"><defs><style>.e{fill:none;}.f,.g,.h{fill:#eddfd6;}.i,.j,.k{fill:#1d1d1b;}.j,.g{opacity:.19;}.h{stroke:#1d1d1b;stroke-width:.42px;}.h,.k{stroke-miterlimit:10;}.k{stroke:#eddfd6;stroke-width:.42px;}.l{clip-path:url(#d);}</style><clipPath id="d"><rect class="e" x=".21" y=".21" width="492.84" height="298.63"/></clipPath></defs><g id="a"/><g id="b"><g id="c"><g class="l"><rect class="k" x=".21" y=".21" width="492.84" height="298.63"/></g><g><path class="i" d="M296.65,141.01c-.98-9.98-5.34-19.23-12.52-26.41-7.17-7.18-16.42-11.54-26.39-12.52,9.98-.98,19.22-5.34,26.39-12.52,7.18-7.18,11.54-16.43,12.52-26.41,2.03,20.52,18.41,36.89,38.94,38.93-9.98,.98-19.24,5.34-26.42,12.52-7.18,7.18-11.54,16.43-12.52,26.41Z"/><path class="f" d="M296.65,64.94c2.7,19.2,17.94,34.44,37.15,37.14-9.35,1.3-17.99,5.58-24.78,12.37-6.79,6.79-11.07,15.42-12.37,24.76-1.3-9.35-5.58-17.97-12.37-24.76-6.78-6.79-15.4-11.07-24.75-12.37,9.35-1.3,17.97-5.58,24.75-12.37,6.79-6.79,11.07-15.42,12.37-24.77m0-6.11c0,11.93-4.84,22.75-12.67,30.58-7.81,7.83-18.63,12.67-30.58,12.67,11.95,0,22.76,4.84,30.58,12.67,7.83,7.83,12.67,18.64,12.67,30.59,0-11.95,4.84-22.76,12.67-30.59,7.83-7.83,18.64-12.67,30.59-12.67-23.89,0-43.26-19.37-43.26-43.25h0Z"/></g><path class="f" d="M121.43,165.42c-.77,0-1.47,.31-1.98,.82-.51,.51-.82,1.2-.82,1.98,0-.77-.31-1.47-.82-1.98-.5-.51-1.2-.82-1.97-.82,.77,0,1.47-.31,1.97-.82,.51-.51,.82-1.2,.82-1.97,0,1.54,1.25,2.79,2.79,2.79Z"/><path class="g" d="M231.13,139.8s154.37,27.41,106.55,67.42c0,0,44.77-33.71-106.55-67.42"/><path class="h" d="M215.11,82.48c0,1.29-.37,3.28-1.12,5.94-.94,3.22-2.2,5.97-3.78,8.25-.6,.87-1.25,1.68-1.95,2.42-3.68,3.89-8.46,6.49-14.32,7.79-3.51,.78-9.55,1.37-18.09,1.78-.41,.02-.82,.04-1.24,.06v19.9h34.97v102.53h29.94V82.48h-24.41Z"/><path class="g" d="M195.07,207.81s-107.21-27.41-74-67.42c0,0-31.09,33.71,74,67.42"/><path class="f" d="M310.52,174.73c-1.54,0-2.94,.63-3.95,1.64-1.01,1.01-1.64,2.41-1.64,3.95,0-1.54-.63-2.94-1.64-3.95-1.01-1.01-2.41-1.64-3.95-1.64,1.54,0,2.94-.63,3.95-1.64,1.01-1.01,1.64-2.41,1.64-3.95,0,3.09,2.5,5.59,5.59,5.59Z"/><path class="j" d="M250.55,18.78S59.49-6.24,173.53,24.64c114.05,30.88,155.12,32.64,123.32,75.49-31.8,42.86-120.59,61.69-79.43,73.24,41.16,11.55,71.59,23.06,71.82,24.35,4.45,25.41-105.1,19.25-105.1,19.25l-65.93-60.32,63.27-97.79s-63.7-27-74.96-31.69C44.8,1.45,186.06,11.24,186.06,11.24l64.49,7.53Z"/><g><path class="f" d="M277.73,225.05c-.75-6.02-3.46-11.59-7.81-15.94-4.35-4.36-9.91-7.07-15.93-7.81,6.02-.75,11.58-3.46,15.93-7.81,4.36-4.36,7.07-9.93,7.82-15.95,1.55,12.38,11.39,22.21,23.77,23.76-6.02,.75-11.59,3.46-15.95,7.82-4.36,4.36-7.07,9.92-7.81,15.94Z"/><path class="i" d="M277.73,178.95c2.02,11.35,10.99,20.32,22.34,22.34-5.53,.97-10.63,3.61-14.68,7.67-4.05,4.05-6.69,9.14-7.66,14.67-.98-5.53-3.61-10.62-7.66-14.67-4.04-4.05-9.13-6.69-14.66-7.66,5.53-.98,10.61-3.61,14.66-7.66,4.05-4.05,6.69-9.15,7.67-14.67m0-4.84c0,7.5-3.04,14.3-7.96,19.22-4.91,4.92-11.71,7.96-19.22,7.96,7.51,0,14.31,3.04,19.22,7.96,4.92,4.92,7.96,11.72,7.96,19.23,0-7.51,3.04-14.31,7.96-19.23,4.92-4.92,11.72-7.96,19.23-7.96-15.02,0-27.19-12.17-27.19-27.18h0Z"/></g><g><path class="i" d="M174.53,187.06c-.54-3.31-2.09-6.35-4.51-8.76-2.41-2.41-5.45-3.97-8.76-4.51,3.3-.54,6.35-2.09,8.76-4.51,2.42-2.42,3.97-5.46,4.51-8.77,1.11,6.79,6.49,12.16,13.28,13.28-3.31,.54-6.36,2.09-8.77,4.51s-3.97,5.46-4.51,8.76Z"/><path class="f" d="M174.54,161.61c1.41,6.02,6.16,10.78,12.19,12.18-2.94,.68-5.64,2.17-7.83,4.36-2.19,2.19-3.68,4.88-4.36,7.82-.68-2.94-2.17-5.64-4.36-7.82-2.18-2.19-4.88-3.68-7.82-4.36,2.94-.68,5.63-2.17,7.82-4.36,2.19-2.19,3.68-4.89,4.36-7.83m0-3.71c0,4.39-1.78,8.36-4.66,11.24-2.87,2.88-6.85,4.66-11.24,4.66,4.39,0,8.37,1.78,11.24,4.66,2.88,2.88,4.66,6.85,4.66,11.24,0-4.39,1.78-8.37,4.66-11.24s6.85-4.66,11.24-4.66c-8.78,0-15.9-7.12-15.9-15.89h0Z"/></g><path class="f" d="M200.66,88.77c-1.54,0-2.94,.63-3.95,1.64-1.01,1.01-1.64,2.41-1.64,3.95,0-1.54-.63-2.94-1.64-3.95-1.01-1.01-2.41-1.64-3.95-1.64,1.54,0,2.94-.63,3.95-1.64,1.01-1.01,1.64-2.41,1.64-3.95,0,3.09,2.5,5.59,5.59,5.59Z"/></g></g></svg>