<?xml version="1.0" encoding="UTF-8"?><svg xmlns="http://www.w3.org/2000/svg" xmlns:xlink="http://www.w3.org/1999/xlink" viewBox="0 0 492.84 298.63"><defs><style>.e,.f{fill:none;}.f,.g,.h,.i,.j{stroke-miterlimit:10;}.f,.g,.i{stroke:#1d1d1b;}.f,.i,.j{stroke-width:.42px;}.g{stroke-width:.53px;}.g,.k,.i{fill:#eddfd6;}.l,.h,.m,.j{fill:#1d1d1b;}.h{stroke-width:.5px;}.h,.j{stroke:#eddfd6;}.m{opacity:.19;}.n{clip-path:url(#d);}</style><clipPath id="d"><rect class="e" width="492.84" height="298.63"/></clipPath></defs><g id="a"/><g id="b"><g id="c"><g class="n"><rect class="j" width="492.84" height="298.63"/></g><circle class="g" cx="228.78" cy="155.23" r="100"/><circle class="h" cx="228.78" cy="155.23" r="75.06"/><circle class="i" cx="228.78" cy="155.23" r="64.06"/><circle class="j" cx="228.78" cy="155.23" r="41.43"/><path class="k" d="M257.47,156.35c-7.92,0-15.1,3.21-20.29,8.4-5.19,5.19-8.4,12.36-8.4,20.29,0-7.92-3.21-15.1-8.4-20.29-5.18-5.19-12.36-8.4-20.28-8.4,7.92,0,15.1-3.21,20.28-8.4,5.19-5.19,8.4-12.36,8.4-20.28,0,15.84,12.84,28.68,28.69,28.68Z"/><path class="m" d="M219.71,12.86S11.31,28.79,135.1,62.31c123.79,33.52,168.38,35.42,133.86,81.95-34.52,46.52-130.9,66.96-86.22,79.5,44.68,12.54,77.71,25.03,77.96,26.43,4.83,27.58-114.08,20.9-114.08,20.9l-71.56-65.47,68.68-106.15S71.38,20.31,59.15,15.22c-67.01-27.91,89.18-.54,89.18-.54l71.38-1.82Z"/><circle class="f" cx="228.78" cy="155.23" r="58.09"/><circle class="f" cx="228.78" cy="155.23" r="44.91"/><g><path class="l" d="M319.43,126.87c-.98-4.87-3.36-9.34-6.95-12.94-3.59-3.59-8.06-5.98-12.93-6.95,4.87-.98,9.34-3.36,12.93-6.95,3.59-3.59,5.98-8.07,6.96-12.94,2.02,9.99,9.91,17.88,19.9,19.89-4.87,.98-9.35,3.36-12.95,6.96-3.59,3.59-5.98,8.07-6.95,12.94Z"/><path class="k" d="M319.43,89.19c2.46,8.56,9.22,15.32,17.78,17.78-4.19,1.2-8.02,3.44-11.19,6.6-3.16,3.16-5.4,6.99-6.6,11.17-1.2-4.18-3.44-8.01-6.6-11.17-3.15-3.16-6.98-5.4-11.16-6.6,4.18-1.2,8.01-3.44,11.16-6.6,3.16-3.16,5.41-7,6.6-11.18m0-7.16c0,6.88-2.79,13.12-7.31,17.64-4.51,4.51-10.74,7.31-17.64,7.31,6.89,0,13.13,2.79,17.64,7.31,4.51,4.52,7.31,10.75,7.31,17.64,0-6.89,2.79-13.13,7.31-17.64,4.51-4.51,10.75-7.31,17.64-7.31-13.78,0-24.95-11.17-24.95-24.94h0Z"/></g><circle class="f" cx="228.78" cy="155.23" r="79.39"/></g></g></svg>