<?xml version="1.0" encoding="UTF-8"?><svg xmlns="http://www.w3.org/2000/svg" viewBox="0 0 493.26 299.05"><defs><style>.d,.e{fill:#eddfd6;}.f,.g,.h,.i,.j{fill:#1d1d1b;}.k,.e,.h,.i,.j,.l{stroke-width:.42px;}.k,.e,.h,.j,.l{stroke:#1d1d1b;}.k,.e,.i,.j{stroke-miterlimit:10;}.k,.h,.l{stroke-linecap:round;}.k,.l{fill:none;}.g{opacity:.19;}.h,.l{stroke-linejoin:round;}.i{stroke:#eddfd6;}</style></defs><g id="a"/><g id="b"><g id="c"><rect class="i" x=".21" y=".21" width="492.84" height="298.63"/><line class="k" x1="119.85" y1="209.35" x2="365.03" y2="209.35"/><g><path class="e" d="M301.3,95.43c-11.09-15.49-29-24.69-48.04-24.69h-13.26c-19.04,0-36.95,9.2-48.04,24.69-7.3,10.18-11.06,22.25-11.06,34.44,0,6.75,1.16,13.54,3.51,20.08,8.92,24.72,23.75,46.88,43.18,64.57l.46,.43c5.26,4.8,11.89,7.3,18.58,7.43,6.69-.12,13.32-2.63,18.58-7.43l.46-.43c19.44-17.69,34.26-39.85,43.18-64.57,2.35-6.54,3.51-13.32,3.51-20.08,0-12.19-3.76-24.26-11.06-34.44Z"/><ellipse class="h" cx="214.08" cy="154.47" rx="11.1" ry="24.79" transform="translate(-38.57 77.91) rotate(-18.95)"/><ellipse class="h" cx="278.2" cy="154.47" rx="24.79" ry="11.1" transform="translate(41.74 367.42) rotate(-71.05)"/><path class="h" d="M247.15,201.88l-7.49,.08c.04,4.08,3.41,7.41,7.49,7.41s7.49-3.38,7.49-7.49h-7.49Z"/></g><path class="g" d="M231.56,231.97s123.91-17.69,50.07-39.9c-73.84-22.21-100.61-24.1-79.09-51.49,21.52-27.38,79.79-38.06,53.15-46.34-26.64-8.28-46.29-16.34-46.41-17.18-2.44-16.66,68.92-10.66,68.92-10.66l41.92,40.54,40.94,65.19s-10.26,47.64-11.28,46.96-77.37,12.87-77.37,12.87h-40.84Z"/><g><path class="d" d="M332.37,70.61h79.12c3.65,0,6.62,2.97,6.62,6.62v29.46c0,3.65-2.97,6.62-6.62,6.62h-85.74v-36.08c0-3.65,2.97-6.62,6.62-6.62Z"/><line class="h" x1="338.84" y1="76.78" x2="338.84" y2="85.22"/><line class="h" x1="338.52" y1="88.78" x2="338.52" y2="96.79"/><polyline class="l" points="335.04 76.78 338.84 81.39 342.73 81.39"/><line class="h" x1="374.3" y1="87.91" x2="374.3" y2="96.35"/><polyline class="l" points="370.5 87.91 374.3 92.52 378.2 92.52"/><line class="h" x1="362.49" y1="98.76" x2="362.49" y2="107.21"/><polyline class="l" points="358.69 98.76 362.49 103.38 366.39 103.38"/><line class="h" x1="405.7" y1="85.22" x2="405.7" y2="76.78"/><polyline class="l" points="409.5 85.22 405.7 80.61 401.81 80.61"/><line class="h" x1="373.59" y1="85.22" x2="373.59" y2="76.78"/><polyline class="l" points="377.39 85.22 373.59 80.61 369.7 80.61"/><line class="h" x1="385.92" y1="107.48" x2="385.92" y2="99.04"/><polyline class="l" points="389.73 107.48 385.92 102.87 382.03 102.87"/><line class="h" x1="350.77" y1="96.57" x2="350.77" y2="88.12"/><polyline class="l" points="354.57 96.57 350.77 91.96 346.88 91.96"/><line class="h" x1="338.57" y1="108.49" x2="338.57" y2="100.04"/><polyline class="l" points="342.37 108.49 338.57 103.87 334.67 103.87"/><line class="h" x1="383.57" y1="85.22" x2="383.57" y2="76.78"/><polyline class="l" points="388.18 77.53 383.57 81.33 383.57 85.22"/><line class="h" x1="405.38" y1="107.48" x2="405.38" y2="99.04"/><polyline class="l" points="410 99.79 405.38 103.59 405.38 107.48"/><line class="h" x1="397.36" y1="96.35" x2="397.36" y2="87.91"/><polyline class="l" points="392.75 88.66 397.36 92.46 397.36 96.35"/><polygon class="l" points="362.54 76.82 357.73 85.15 367.35 85.15 362.54 76.82"/><polygon class="f" points="350.73 99.71 345.92 108.04 355.54 108.04 350.73 99.71"/><polygon class="l" points="405.7 87.79 400.89 96.12 410.51 96.12 405.7 87.79"/><polygon class="l" points="374.35 99.21 369.54 107.54 379.16 107.54 374.35 99.21"/><polygon class="l" points="338.52 88.47 333.71 96.79 343.33 96.79 338.52 88.47"/><polygon class="f" points="395.76 85.16 400.57 76.83 390.96 76.83 395.76 85.16"/><polygon class="f" points="362.54 96.12 367.35 87.79 357.73 87.79 362.54 96.12"/><circle class="e" cx="349.97" cy="81.39" r="4.22"/><circle class="e" cx="396.97" cy="103.26" r="4.22"/><circle class="j" cx="385.88" cy="92.13" r="4.22"/></g><g><path class="d" d="M72.28,171.48h85.74c3.65,0,6.62,2.97,6.62,6.62v29.46c0,3.65-2.97,6.62-6.62,6.62H78.9c-3.65,0-6.62-2.97-6.62-6.62v-36.08h0Z" transform="translate(236.93 385.66) rotate(-180)"/><line class="h" x1="151.55" y1="177.65" x2="151.55" y2="186.09"/><line class="h" x1="151.87" y1="189.66" x2="151.87" y2="197.67"/><polyline class="l" points="155.36 177.65 151.55 182.26 147.66 182.26"/><line class="h" x1="116.09" y1="188.78" x2="116.09" y2="197.23"/><polyline class="l" points="119.89 188.78 116.09 193.39 112.2 193.39"/><line class="h" x1="127.9" y1="199.64" x2="127.9" y2="208.08"/><polyline class="l" points="131.7 199.64 127.9 204.25 124.01 204.25"/><line class="h" x1="84.69" y1="186.09" x2="84.69" y2="177.65"/><polyline class="l" points="80.89 186.09 84.69 181.48 88.58 181.48"/><line class="h" x1="116.8" y1="186.09" x2="116.8" y2="177.65"/><polyline class="l" points="113 186.09 116.8 181.48 120.69 181.48"/><line class="h" x1="104.47" y1="208.36" x2="104.47" y2="199.91"/><polyline class="l" points="100.67 208.36 104.47 203.75 108.36 203.75"/><line class="h" x1="139.62" y1="197.44" x2="139.62" y2="189"/><polyline class="l" points="135.82 197.44 139.62 192.83 143.51 192.83"/><line class="h" x1="151.83" y1="209.36" x2="151.83" y2="200.91"/><polyline class="l" points="148.02 209.36 151.83 204.75 155.72 204.75"/><line class="h" x1="106.82" y1="186.09" x2="106.82" y2="177.65"/><polyline class="l" points="102.21 178.4 106.82 182.2 106.82 186.09"/><line class="h" x1="85.01" y1="208.36" x2="85.01" y2="199.91"/><polyline class="l" points="80.4 200.66 85.01 204.46 85.01 208.36"/><line class="h" x1="93.03" y1="197.23" x2="93.03" y2="188.78"/><polyline class="l" points="97.64 189.53 93.03 193.33 93.03 197.23"/><polygon class="l" points="127.85 177.7 132.66 186.02 123.04 186.02 127.85 177.7"/><polygon class="f" points="139.66 200.58 144.47 208.91 134.86 208.91 139.66 200.58"/><polygon class="l" points="84.69 188.67 89.5 196.99 79.88 196.99 84.69 188.67"/><polygon class="l" points="116.04 200.09 120.85 208.41 111.23 208.41 116.04 200.09"/><polygon class="l" points="151.87 189.34 156.68 197.67 147.06 197.67 151.87 189.34"/><polygon class="f" points="94.63 186.03 89.82 177.71 99.44 177.71 94.63 186.03"/><polygon class="f" points="127.85 196.99 123.04 188.67 132.66 188.67 127.85 196.99"/><circle class="e" cx="140.43" cy="182.26" r="4.22"/><circle class="e" cx="93.42" cy="204.13" r="4.22"/><circle class="j" cx="104.51" cy="193" r="4.22"/></g></g></g></svg>