<?xml version="1.0" encoding="UTF-8"?><svg xmlns="http://www.w3.org/2000/svg" viewBox="0 0 493.26 299.05"><defs><style>.d,.e{stroke-width:.53px;}.d,.e,.f,.g{stroke-miterlimit:10;}.d,.f{fill:#eddfd6;stroke:#1d1d1b;}.e,.h,.g{fill:#1d1d1b;}.e,.g{stroke:#eddfd6;}.h{opacity:.19;}.f,.g{stroke-width:.42px;}</style></defs><g id="a"/><g id="b"><g id="c"><rect class="g" x=".21" y=".21" width="492.84" height="298.63"/><g><g><ellipse class="e" cx="133.57" cy="115.31" rx="18.4" ry="39.27"/><ellipse class="g" cx="133.57" cy="115.31" rx="14.74" ry="31.46"/></g><path class="f" d="M142.91,115.31c-2.58,0-4.91,2.23-6.6,5.84-1.69,3.61-2.73,8.59-2.73,14.09,0-5.5-1.04-10.48-2.73-14.09-1.69-3.61-4.02-5.84-6.6-5.84,2.58,0,4.91-2.23,6.6-5.84,1.69-3.61,2.73-8.59,2.73-14.08,0,11,4.18,19.92,9.34,19.92Z"/></g><g><g><ellipse class="e" cx="338.15" cy="128.62" rx="39.27" ry="20.91"/><ellipse class="g" cx="338.15" cy="128.62" rx="31.46" ry="16.75"/></g><path class="f" d="M358.08,128.62c-5.5,0-10.48,1.19-14.09,3.11-3.61,1.92-5.84,4.57-5.84,7.5,0-2.93-2.23-5.58-5.84-7.5-3.6-1.92-8.58-3.11-14.08-3.11,5.5,0,10.48-1.19,14.08-3.11,3.61-1.92,5.84-4.57,5.84-7.5,0,5.86,8.92,10.6,19.93,10.6Z"/></g><g><g><ellipse class="e" cx="245.38" cy="74.4" rx="37" ry="39.27"/><ellipse class="g" cx="245.38" cy="74.4" rx="29.64" ry="31.46"/></g><path class="f" d="M264.15,74.4c-5.18,0-9.88,2.23-13.27,5.84-3.4,3.61-5.5,8.59-5.5,14.09,0-5.5-2.1-10.48-5.5-14.09-3.39-3.61-8.08-5.84-13.27-5.84,5.18,0,9.88-2.23,13.27-5.84,3.4-3.61,5.5-8.59,5.5-14.08,0,11,8.4,19.92,18.77,19.92Z"/></g><g><g><ellipse class="e" cx="153.5" cy="218.21" rx="39.27" ry="7.25"/><ellipse class="g" cx="153.5" cy="218.21" rx="31.46" ry="5.81"/></g><path class="f" d="M173.42,218.21c-5.5,0-10.48,.41-14.09,1.08-3.61,.67-5.84,1.59-5.84,2.6,0-1.02-2.23-1.94-5.84-2.6-3.6-.67-8.58-1.08-14.08-1.08,5.5,0,10.48-.41,14.08-1.08,3.61-.67,5.84-1.59,5.84-2.6,0,2.03,8.92,3.68,19.93,3.68Z"/></g><g><g><ellipse class="d" cx="199.61" cy="125.33" rx="19.92" ry="3.68"/><ellipse class="f" cx="199.61" cy="125.33" rx="15.96" ry="2.95"/></g><path class="g" d="M209.71,125.33c-2.79,0-5.32,.21-7.15,.55-1.83,.34-2.96,.8-2.96,1.32,0-.52-1.13-.98-2.96-1.32-1.83-.34-4.35-.55-7.14-.55,2.79,0,5.32-.21,7.14-.55,1.83-.34,2.96-.8,2.96-1.32,0,1.03,4.53,1.87,10.11,1.87Z"/></g><g><g><ellipse class="d" cx="352.5" cy="76.95" rx="10.66" ry="1.84"/><ellipse class="f" cx="352.5" cy="76.95" rx="8.54" ry="1.47"/></g><path class="g" d="M357.91,76.95c-1.49,0-2.85,.1-3.82,.27-.98,.17-1.58,.4-1.58,.66,0-.26-.61-.49-1.58-.66-.98-.17-2.33-.27-3.82-.27,1.49,0,2.85-.1,3.82-.27,.98-.17,1.58-.4,1.58-.66,0,.52,2.42,.93,5.41,.93Z"/></g><g><g><ellipse class="d" cx="89.32" cy="181.43" rx="10.66" ry="1.84"/><ellipse class="f" cx="89.32" cy="181.43" rx="8.54" ry="1.47"/></g><path class="g" d="M94.73,181.43c-1.49,0-2.85,.1-3.82,.27-.98,.17-1.58,.4-1.58,.66,0-.26-.61-.49-1.58-.66-.98-.17-2.33-.27-3.82-.27,1.49,0,2.85-.1,3.82-.27,.98-.17,1.58-.4,1.58-.66,0,.52,2.42,.93,5.41,.93Z"/></g><g><g><ellipse class="d" cx="290.09" cy="173.51" rx="8.48" ry="3.68"/><ellipse class="f" cx="290.09" cy="173.51" rx="6.79" ry="2.95"/></g><path class="g" d="M294.39,173.51c-1.19,0-2.26,.21-3.04,.55-.78,.34-1.26,.8-1.26,1.32,0-.52-.48-.98-1.26-1.32-.78-.34-1.85-.55-3.04-.55,1.19,0,2.26-.21,3.04-.55,.78-.34,1.26-.8,1.26-1.32,0,1.03,1.93,1.87,4.3,1.87Z"/></g><g><g><ellipse class="d" cx="174.04" cy="250.51" rx="8.48" ry="3.68"/><ellipse class="f" cx="174.04" cy="250.51" rx="6.79" ry="2.95"/></g><path class="g" d="M178.35,250.51c-1.19,0-2.26,.21-3.04,.55-.78,.34-1.26,.8-1.26,1.32,0-.52-.48-.98-1.26-1.32-.78-.34-1.85-.55-3.04-.55,1.19,0,2.26-.21,3.04-.55,.78-.34,1.26-.8,1.26-1.32,0,1.03,1.93,1.87,4.3,1.87Z"/></g><g><g><ellipse class="d" cx="122.03" cy="37.91" rx="4.87" ry="5.03"/><ellipse class="f" cx="122.03" cy="37.91" rx="3.9" ry="4.03"/></g><path class="g" d="M124.5,37.91c-.68,0-1.3,.29-1.75,.75-.45,.46-.72,1.1-.72,1.8,0-.7-.28-1.34-.72-1.8-.45-.46-1.06-.75-1.75-.75,.68,0,1.3-.29,1.75-.75,.45-.46,.72-1.1,.72-1.8,0,1.41,1.11,2.55,2.47,2.55Z"/></g><g><g><ellipse class="d" cx="396.09" cy="185.46" rx="4.87" ry="5.03"/><ellipse class="f" cx="396.09" cy="185.46" rx="3.9" ry="4.03"/></g><path class="g" d="M398.56,185.46c-.68,0-1.3,.29-1.75,.75-.45,.46-.72,1.1-.72,1.8,0-.7-.28-1.34-.72-1.8-.45-.46-1.06-.75-1.75-.75,.68,0,1.3-.29,1.75-.75,.45-.46,.72-1.1,.72-1.8,0,1.41,1.11,2.55,2.47,2.55Z"/></g><g><g><ellipse class="e" cx="325.78" cy="229.53" rx="39.27" ry="34.11"/><ellipse class="g" cx="325.78" cy="229.53" rx="31.46" ry="27.33"/></g><path class="f" d="M345.7,229.53c-5.5,0-10.48,1.94-14.09,5.07-3.61,3.13-5.84,7.46-5.84,12.24,0-4.78-2.23-9.11-5.84-12.24-3.6-3.13-8.58-5.07-14.08-5.07,5.5,0,10.48-1.94,14.08-5.07,3.61-3.13,5.84-7.46,5.84-12.23,0,9.55,8.92,17.3,19.93,17.3Z"/></g><g><g><ellipse class="e" cx="236.23" cy="176.26" rx="20.5" ry="39.27"/><ellipse class="g" cx="236.23" cy="176.26" rx="16.42" ry="31.46"/></g><path class="f" d="M246.63,176.25c-2.87,0-5.47,2.23-7.35,5.84-1.88,3.61-3.05,8.59-3.05,14.09,0-5.5-1.16-10.48-3.05-14.09-1.88-3.61-4.48-5.84-7.35-5.84,2.87,0,5.47-2.23,7.35-5.84,1.88-3.61,3.05-8.59,3.05-14.08,0,11,4.66,19.92,10.4,19.92Z"/></g><path class="h" d="M231.36,86.03s-45.5-31.56-13.92-16.01c30.4,14.97,45.43,7.06,41.87-8.43-3.57-15.49-29.63-21.28-17.01-19.53,12.62,1.76,19.87,7.98,19.88,7.6s-24.97-14.03-24.97-14.03l-8.48-24.45-40.22,35.18s-7.8,16.51-7.24,16.43,32.23,25.52,32.23,25.52l17.86-2.27Z"/><path class="h" d="M143.22,129.15s-45.5-31.56-13.92-16.01c30.4,14.97,45.43,7.06,41.87-8.43s-29.63-21.28-17.01-19.53,19.87,7.98,19.88,7.6-24.97-14.03-24.97-14.03l-8.48-24.45-40.22,35.18s-7.8,16.51-7.24,16.43,32.23,25.52,32.23,25.52l17.86-2.27Z"/><path class="h" d="M262.31,231.71s-45.5-31.56-13.92-16.01c30.4,14.97,45.43,7.06,41.87-8.43-3.57-15.49-29.63-21.28-17.01-19.53,12.62,1.76,19.87,7.98,19.88,7.6s-24.97-14.03-24.97-14.03l-8.48-24.45-40.22,35.18s-7.8,16.51-7.24,16.43,32.23,25.52,32.23,25.52l17.86-2.27Z"/><path class="h" d="M365.27,272.31s-45.5-31.56-13.92-16.01c30.4,14.97,45.43,7.06,41.87-8.43-3.57-15.49-29.63-21.28-17.01-19.53,12.62,1.76,19.87,7.98,19.88,7.6s-24.97-14.03-24.97-14.03l-8.48-24.45-40.22,35.18s-7.8,16.51-7.24,16.43,32.23,25.52,32.23,25.52l17.86-2.27Z"/><path class="h" d="M118.13,260.31s-45.5-31.56-13.92-16.01c30.4,14.97,45.43,7.06,41.87-8.43s-29.63-21.28-17.01-19.53c12.62,1.76,19.87,7.98,19.88,7.6s-24.97-14.03-24.97-14.03l-8.48-24.45-40.22,35.18s-7.8,16.51-7.24,16.43,32.23,25.52,32.23,25.52l17.86-2.27Z"/><path class="g" d="M363.02,177.72c-.68,0-1.3,.29-1.75,.75-.45,.46-.72,1.1-.72,1.8,0-.7-.28-1.34-.72-1.8-.45-.46-1.06-.75-1.75-.75,.68,0,1.3-.29,1.75-.75,.45-.46,.72-1.1,.72-1.8,0,1.41,1.11,2.55,2.47,2.55Z"/><path class="g" d="M180.82,82.67c-.68,0-1.3,.29-1.75,.75-.45,.46-.72,1.1-.72,1.8,0-.7-.28-1.34-.72-1.8-.45-.46-1.06-.75-1.75-.75,.68,0,1.3-.29,1.75-.75,.45-.46,.72-1.1,.72-1.8,0,1.41,1.11,2.55,2.47,2.55Z"/><path class="g" d="M275.02,139.23c-.68,0-1.3,.29-1.75,.75-.45,.46-.72,1.1-.72,1.8,0-.7-.28-1.34-.72-1.8-.45-.46-1.06-.75-1.75-.75,.68,0,1.3-.29,1.75-.75,.45-.46,.72-1.1,.72-1.8,0,1.41,1.11,2.55,2.47,2.55Z"/><path class="g" d="M141.32,190.49c-.68,0-1.3,.29-1.75,.75-.45,.46-.72,1.1-.72,1.8,0-.7-.28-1.34-.72-1.8-.45-.46-1.06-.75-1.75-.75,.68,0,1.3-.29,1.75-.75,.45-.46,.72-1.1,.72-1.8,0,1.41,1.11,2.55,2.47,2.55Z"/><path class="g" d="M225.84,151.18c-2.09,0-3.99,.88-5.36,2.29-1.37,1.42-2.22,3.37-2.22,5.53,0-2.16-.85-4.11-2.22-5.53-1.37-1.42-3.26-2.29-5.36-2.29,2.09,0,3.99-.88,5.36-2.29,1.37-1.42,2.22-3.37,2.22-5.53,0,4.32,3.39,7.82,7.58,7.82Z"/><path class="g" d="M279.3,103.3c-2.09,0-3.99,.88-5.36,2.29-1.37,1.42-2.22,3.37-2.22,5.53,0-2.16-.85-4.11-2.22-5.53-1.37-1.42-3.26-2.29-5.36-2.29,2.09,0,3.99-.88,5.36-2.29,1.37-1.42,2.22-3.37,2.22-5.53,0,4.32,3.39,7.82,7.58,7.82Z"/></g></g></svg>