<svg width="1200" height="900" viewBox="0 0 1200 900" fill="none" xmlns="http://www.w3.org/2000/svg">
<rect width="1200" height="900" fill="#222222"/>
<path fill-rule="evenodd" clip-rule="evenodd" d="M363.188 161.309C362.758 161.466 362.407 162.132 362.407 162.788C362.407 164.301 433.291 164.745 591.456 164.223C651.118 164.026 732.724 163.871 772.802 163.878C840.985 163.89 850.825 163.601 849.033 161.641C848.494 161.051 364.802 160.721 363.188 161.309ZM445.13 184.498L358.895 184.936L358.698 416.182L358.502 647.428L360.166 651.026C361.082 653.006 362.508 655.678 363.337 656.966C364.166 658.253 364.895 660.048 364.958 660.957C365.045 662.218 365.377 662.429 366.365 661.85C367.641 661.103 405.534 660.978 705.428 660.726C845.719 660.609 853.852 660.522 855.842 659.095C856.999 658.267 858.616 656.15 859.435 654.392C860.831 651.398 860.954 648.215 861.377 604.233C861.625 578.404 862.065 473.635 862.356 371.414L862.884 185.556L850.084 185.023C832.984 184.31 553.414 183.948 445.13 184.498ZM818.944 412.334V620.277L686.08 619.741C613.005 619.447 518.8 619.202 476.736 619.195L400.257 619.184L400.224 411.88L400.192 204.578L609.568 204.484L818.944 204.39V412.334ZM649.596 281.44V289.558L718.857 289.339L788.118 289.122L788.343 281.222L788.567 273.323H719.082H649.596V281.44ZM432.643 281.724V289.271L464.835 289.836C482.541 290.146 514.674 290.401 536.242 290.402L575.458 290.403V282.29V274.177H504.051H432.643V281.724ZM433.424 350.181V357.867H504.441H575.458V350.181V342.495H504.441H433.424V350.181ZM649.596 350.181V357.867H719.052H788.509V350.181V342.495H719.052H649.596V350.181ZM433.424 417.219V425.331H504.441H575.458V417.219V409.106H504.441H433.424V417.219ZM649.762 416.787L649.986 424.469L719.052 424.687L788.118 424.904L788.343 417.005L788.567 409.106H719.052H649.538L649.762 416.787ZM433.424 485.398V493.65H504.441H575.458V485.964V478.278L536.632 478.277C515.278 478.276 483.321 478.022 465.616 477.711L433.424 477.147V485.398ZM650.121 477.989C649.832 478.305 649.596 481.957 649.596 486.106V493.65H719.082H788.567L788.343 485.75L788.118 477.851L719.382 477.633C681.577 477.513 650.409 477.673 650.121 477.989ZM489.39 545.535L432.587 545.754L432.81 554.075L433.034 562.395L504.273 562.613L575.512 562.831L575.29 554.073L575.067 545.315H560.63C552.689 545.315 520.631 545.414 489.39 545.535ZM649.762 553.642L649.986 561.541H719.052H788.118L788.343 553.642L788.567 545.742H719.052H649.538L649.762 553.642ZM364.882 667.005C364.814 668.885 365.093 670.423 365.501 670.423C366.247 670.423 366.167 664.86 365.41 664.03C365.187 663.786 364.949 665.125 364.882 667.005ZM410.792 711.414V737.888H419.991C427.993 737.888 429.639 737.638 432.628 735.966C438.636 732.607 441.067 726.618 439.555 718.903C438.944 715.784 438.045 714.154 435.8 712.092L432.849 709.379L435.478 706.667C437.952 704.113 438.106 703.62 438.106 698.251C438.106 693.304 437.847 692.266 436.151 690.409C432.373 686.275 428.34 684.98 419.181 684.96L410.792 684.941V711.414ZM457.21 686.131C452.037 687.905 449.974 689.947 447.178 696.062C442.249 706.845 442.649 719.795 448.2 729.117C451.835 735.221 453.284 736.643 457.558 738.293C466.203 741.63 473.565 737.859 478.28 727.678C483.708 715.954 482.089 699.725 474.553 690.333C470.357 685.103 464.41 683.663 457.21 686.131ZM493.515 687.339C489.697 689.384 488.942 690.251 486.677 695.189C483.296 702.562 482.515 707.649 483.471 716.089C484.75 727.38 488.764 734.835 495.194 737.862C502.349 741.23 509.723 739.011 515.954 731.613C520.979 725.648 521.899 722.659 521.911 712.268C521.919 704.878 521.61 702.476 520.15 698.605C515.441 686.116 504.466 681.475 493.515 687.339ZM526.292 711.457V737.973L530.779 737.717L535.267 737.461L535.485 726.573C535.605 720.584 535.957 715.684 536.267 715.684C536.932 715.684 543.225 726.982 546.136 733.404L548.17 737.888H554.01C557.222 737.888 559.85 737.688 559.85 737.444C559.85 736.759 556.012 730.25 552.811 725.505C548.886 719.686 543.235 708.165 543.684 706.898C543.886 706.329 547.48 701.252 551.671 695.616L559.29 685.368L554.692 685.095L550.095 684.821L546.583 689.36C544.651 691.856 541.41 695.822 539.381 698.173L535.691 702.448L535.674 693.694L535.657 684.941H530.975H526.292V711.457ZM590.285 710.88V737.034L599.455 737.029C610.467 737.024 613.609 736.181 617.699 732.137C625.281 724.642 624.775 714.407 616.545 708.823C614.419 707.382 614.394 707.289 615.961 706.745C618.628 705.818 621.502 700.98 621.502 697.414C621.502 692.91 619.822 689.933 615.931 687.539C612.892 685.67 611.416 685.422 601.417 685.092L590.285 684.726V710.88ZM636.609 686.635C629.82 689.939 625.927 699.906 626.023 713.729C626.076 721.232 626.373 723.223 628.002 727.018C630.017 731.711 632.68 735.203 636.129 737.675C637.656 738.77 639.75 739.141 644.174 739.1C649.169 739.055 650.733 738.676 653.656 736.802C660.392 732.481 663.558 725.458 664.22 713.374C664.547 707.371 664.327 704.242 663.287 700.138C661.535 693.225 659.209 689.925 654.148 687.164C649.106 684.416 641.632 684.19 636.609 686.635ZM678.115 686.883C671.533 690.962 667.948 700.075 667.94 712.74C667.936 720.795 668.097 721.672 670.555 726.971C673.751 733.86 676.16 736.45 681.035 738.231C685.464 739.849 687.519 739.923 692.214 738.629C698.963 736.769 705.421 725.044 706.346 712.969C706.768 707.459 706.656 706.982 703.051 698.98C697.838 687.409 695.023 685.12 685.885 685.02C682.411 684.982 680.406 685.463 678.115 686.883ZM712.029 711.841V738.742H715.931H719.833V729.418C719.833 718.763 720.133 717.385 722.453 717.409C724.296 717.429 729.856 724.546 733.538 731.602C737.107 738.439 737.629 738.872 742.045 738.66C744.207 738.556 746.222 738.328 746.523 738.155C746.824 737.982 743.224 731.457 738.524 723.656L729.979 709.473L731.734 706.306C734.028 702.168 737.463 696.272 741.1 690.231L744.026 685.368L739.947 685.103C735.3 684.802 734.876 685.194 727.64 696.47C725.53 699.758 723.094 703.408 722.226 704.583L720.648 706.718L720.63 695.829L720.613 684.941H716.321H712.029V711.841ZM749.993 691.475C749.715 695.068 749.488 706.981 749.488 717.948V737.888H760.804H772.12V733.191V728.494H765.487H758.853V720.381V712.268H764.691C770.267 712.268 770.551 712.172 771.019 710.135C771.953 706.063 771.111 705.437 764.699 705.437H758.79L759.017 698.391L759.243 691.346L766.462 691.1L773.681 690.855V687.898V684.941H762.089H750.497L749.993 691.475ZM780.56 706.504C780.481 718.364 780.438 730.181 780.464 732.764L780.513 737.461L784.901 737.717L789.289 737.973V726.829V715.684H791.981C794.107 715.684 795.072 716.268 796.576 718.46C798.509 721.28 802.556 733.338 802.556 736.277C802.556 737.702 803.186 737.888 808.019 737.888C813.412 737.888 814.687 737.077 812.788 734.856C812.406 734.41 811.524 731.856 810.827 729.181C808.447 720.042 806.775 716.758 803.577 714.948L800.605 713.267L802.556 712.426C805.066 711.345 808.469 707.387 809.53 704.314C810.783 700.683 810.528 694.483 809.009 691.67C808.266 690.293 805.915 688.216 803.783 687.054C800.292 685.15 798.957 684.941 790.307 684.941H780.705L780.56 706.504ZM611.842 693.646C613.488 695.448 613.467 699.087 611.796 701.107C610.137 703.114 604.042 704.836 601.103 704.13C598.936 703.609 598.87 703.435 598.87 698.252C598.87 695.315 599.133 692.619 599.455 692.262C600.546 691.052 610.486 692.162 611.842 693.646ZM650.301 693.763C650.907 694.313 652.402 697.068 653.622 699.886C656.776 707.177 656.771 715.662 653.608 722.98C651.113 728.749 648.569 731.056 644.702 731.056C642.163 731.056 637.42 728.035 636.193 725.635C635.879 725.021 635.26 722.04 634.818 719.01C633.853 712.405 634.738 705.101 637.21 699.267C639.894 692.929 646.371 690.206 650.301 693.763ZM798.623 692.609C800.763 693.863 801.864 698.069 800.87 701.192C799.863 704.354 796.664 706.291 792.45 706.291H789.289V699.032V691.773H793.242C795.417 691.773 797.838 692.149 798.623 692.609ZM423.908 693.149C427.145 693.857 429.522 696.471 429.522 699.321C429.522 702.794 428.165 703.729 423.122 703.729H418.596V698.747C418.596 692.301 418.843 692.04 423.908 693.149ZM505.977 693.893C509.796 696.055 512.518 703.466 512.888 712.708C513.155 719.391 512.963 721.01 511.544 724.054C507.788 732.111 498.645 732.323 494.176 724.458C491.578 719.886 491.57 707.874 494.16 701.625C497.536 693.477 501.109 691.139 505.977 693.893ZM467.258 694.655C474.815 698.11 476.434 724.043 469.343 728.056C464.157 730.99 457.129 728.8 454.783 723.518C453.083 719.691 452.465 709.66 453.636 704.9C455.228 698.432 459.382 693.529 463.299 693.494C464.064 693.487 465.846 694.009 467.258 694.655ZM691.049 694.957C694.661 697.291 696.589 702.709 697.02 711.727C697.347 718.568 697.175 720.034 695.624 723.644C693.591 728.378 691.46 730.193 687.281 730.751C683.845 731.21 680.153 729.085 677.928 725.37C675.827 721.861 675.889 704.694 678.019 699.998C680.699 694.091 686.335 691.91 691.049 694.957ZM612.422 714.893C613.879 716.146 614.475 717.453 614.467 719.376C614.441 726.299 612.01 728.494 604.372 728.494H599.65V720.808V713.122H605.008C609.246 713.122 610.795 713.492 612.422 714.893ZM427.961 715.063C430.752 716.582 432.893 721.685 431.918 724.492C430.976 727.203 429.073 728.36 424.404 729.06C419.795 729.751 419.404 729.091 419.388 720.595L419.376 713.976L422.693 713.989C424.517 713.996 426.888 714.479 427.961 715.063ZM949.272 871.109V877.94H980.488H1011.7V871.109V864.277H980.488H949.272V871.109Z" fill="#EDDFD6"/>
<rect x="366.246" y="683.979" width="475.117" height="71.4671" fill="#222222"/>
<path d="M457.909 722.727C457.909 727.636 457.023 731.879 455.25 735.455C453.477 739.03 451.045 741.788 447.955 743.727C444.864 745.667 441.333 746.636 437.364 746.636C433.394 746.636 429.864 745.667 426.773 743.727C423.682 741.788 421.25 739.03 419.477 735.455C417.705 731.879 416.818 727.636 416.818 722.727C416.818 717.818 417.705 713.576 419.477 710C421.25 706.424 423.682 703.667 426.773 701.727C429.864 699.788 433.394 698.818 437.364 698.818C441.333 698.818 444.864 699.788 447.955 701.727C451.045 703.667 453.477 706.424 455.25 710C457.023 713.576 457.909 717.818 457.909 722.727ZM452.455 722.727C452.455 718.697 451.78 715.295 450.432 712.523C449.098 709.75 447.288 707.652 445 706.227C442.727 704.803 440.182 704.091 437.364 704.091C434.545 704.091 431.992 704.803 429.705 706.227C427.432 707.652 425.621 709.75 424.273 712.523C422.939 715.295 422.273 718.697 422.273 722.727C422.273 726.758 422.939 730.159 424.273 732.932C425.621 735.705 427.432 737.803 429.705 739.227C431.992 740.652 434.545 741.364 437.364 741.364C440.182 741.364 442.727 740.652 445 739.227C447.288 737.803 449.098 735.705 450.432 732.932C451.78 730.159 452.455 726.758 452.455 722.727ZM467.386 746V699.455H483.114C486.75 699.455 489.735 700.076 492.068 701.318C494.402 702.545 496.129 704.235 497.25 706.386C498.371 708.538 498.932 710.985 498.932 713.727C498.932 716.47 498.371 718.902 497.25 721.023C496.129 723.144 494.409 724.811 492.091 726.023C489.773 727.22 486.811 727.818 483.205 727.818H470.477V722.727H483.023C485.508 722.727 487.508 722.364 489.023 721.636C490.553 720.909 491.659 719.879 492.341 718.545C493.038 717.197 493.386 715.591 493.386 713.727C493.386 711.864 493.038 710.235 492.341 708.841C491.644 707.447 490.53 706.371 489 705.614C487.47 704.841 485.447 704.455 482.932 704.455H473.023V746H467.386ZM489.295 725.091L500.75 746H494.205L482.932 725.091H489.295ZM522.688 746H508.324V699.455H523.324C527.839 699.455 531.703 700.386 534.915 702.25C538.127 704.098 540.589 706.758 542.301 710.227C544.013 713.682 544.869 717.818 544.869 722.636C544.869 727.485 544.006 731.659 542.278 735.159C540.551 738.644 538.036 741.326 534.733 743.205C531.43 745.068 527.415 746 522.688 746ZM513.96 741H522.324C526.172 741 529.362 740.258 531.892 738.773C534.422 737.288 536.309 735.174 537.551 732.432C538.794 729.689 539.415 726.424 539.415 722.636C539.415 718.879 538.801 715.644 537.574 712.932C536.347 710.205 534.513 708.114 532.074 706.659C529.634 705.189 526.597 704.455 522.96 704.455H513.96V741ZM554.324 746V699.455H582.415V704.455H559.96V720.182H580.96V725.182H559.96V741H582.778V746H554.324ZM592.574 746V699.455H608.301C611.938 699.455 614.922 700.076 617.256 701.318C619.589 702.545 621.316 704.235 622.438 706.386C623.559 708.538 624.119 710.985 624.119 713.727C624.119 716.47 623.559 718.902 622.438 721.023C621.316 723.144 619.597 724.811 617.278 726.023C614.96 727.22 611.998 727.818 608.392 727.818H595.665V722.727H608.21C610.695 722.727 612.695 722.364 614.21 721.636C615.741 720.909 616.847 719.879 617.528 718.545C618.225 717.197 618.574 715.591 618.574 713.727C618.574 711.864 618.225 710.235 617.528 708.841C616.831 707.447 615.718 706.371 614.188 705.614C612.657 704.841 610.634 704.455 608.119 704.455H598.21V746H592.574ZM614.483 725.091L625.938 746H619.392L608.119 725.091H614.483ZM651.511 746V699.455H667.784C671.027 699.455 673.701 700.015 675.807 701.136C677.913 702.242 679.481 703.735 680.511 705.614C681.542 707.477 682.057 709.545 682.057 711.818C682.057 713.818 681.701 715.47 680.989 716.773C680.292 718.076 679.367 719.106 678.216 719.864C677.08 720.621 675.845 721.182 674.511 721.545V722C675.936 722.091 677.367 722.591 678.807 723.5C680.246 724.409 681.451 725.712 682.42 727.409C683.39 729.106 683.875 731.182 683.875 733.636C683.875 735.97 683.345 738.068 682.284 739.932C681.223 741.795 679.549 743.273 677.261 744.364C674.973 745.455 671.996 746 668.33 746H651.511ZM657.148 741H668.33C672.011 741 674.625 740.288 676.17 738.864C677.731 737.424 678.511 735.682 678.511 733.636C678.511 732.061 678.11 730.606 677.307 729.273C676.504 727.924 675.36 726.848 673.875 726.045C672.39 725.227 670.633 724.818 668.602 724.818H657.148V741ZM657.148 719.909H667.602C669.299 719.909 670.83 719.576 672.193 718.909C673.572 718.242 674.663 717.303 675.466 716.091C676.284 714.879 676.693 713.455 676.693 711.818C676.693 709.773 675.981 708.038 674.557 706.614C673.133 705.174 670.875 704.455 667.784 704.455H657.148V719.909ZM732.409 722.727C732.409 727.636 731.523 731.879 729.75 735.455C727.977 739.03 725.545 741.788 722.455 743.727C719.364 745.667 715.833 746.636 711.864 746.636C707.894 746.636 704.364 745.667 701.273 743.727C698.182 741.788 695.75 739.03 693.977 735.455C692.205 731.879 691.318 727.636 691.318 722.727C691.318 717.818 692.205 713.576 693.977 710C695.75 706.424 698.182 703.667 701.273 701.727C704.364 699.788 707.894 698.818 711.864 698.818C715.833 698.818 719.364 699.788 722.455 701.727C725.545 703.667 727.977 706.424 729.75 710C731.523 713.576 732.409 717.818 732.409 722.727ZM726.955 722.727C726.955 718.697 726.28 715.295 724.932 712.523C723.598 709.75 721.788 707.652 719.5 706.227C717.227 704.803 714.682 704.091 711.864 704.091C709.045 704.091 706.492 704.803 704.205 706.227C701.932 707.652 700.121 709.75 698.773 712.523C697.439 715.295 696.773 718.697 696.773 722.727C696.773 726.758 697.439 730.159 698.773 732.932C700.121 735.705 701.932 737.803 704.205 739.227C706.492 740.652 709.045 741.364 711.864 741.364C714.682 741.364 717.227 740.652 719.5 739.227C721.788 737.803 723.598 735.705 724.932 732.932C726.28 730.159 726.955 726.758 726.955 722.727ZM781.159 722.727C781.159 727.636 780.273 731.879 778.5 735.455C776.727 739.03 774.295 741.788 771.205 743.727C768.114 745.667 764.583 746.636 760.614 746.636C756.644 746.636 753.114 745.667 750.023 743.727C746.932 741.788 744.5 739.03 742.727 735.455C740.955 731.879 740.068 727.636 740.068 722.727C740.068 717.818 740.955 713.576 742.727 710C744.5 706.424 746.932 703.667 750.023 701.727C753.114 699.788 756.644 698.818 760.614 698.818C764.583 698.818 768.114 699.788 771.205 701.727C774.295 703.667 776.727 706.424 778.5 710C780.273 713.576 781.159 717.818 781.159 722.727ZM775.705 722.727C775.705 718.697 775.03 715.295 773.682 712.523C772.348 709.75 770.538 707.652 768.25 706.227C765.977 704.803 763.432 704.091 760.614 704.091C757.795 704.091 755.242 704.803 752.955 706.227C750.682 707.652 748.871 709.75 747.523 712.523C746.189 715.295 745.523 718.697 745.523 722.727C745.523 726.758 746.189 730.159 747.523 732.932C748.871 735.705 750.682 737.803 752.955 739.227C755.242 740.652 757.795 741.364 760.614 741.364C763.432 741.364 765.977 740.652 768.25 739.227C770.538 737.803 772.348 735.705 773.682 732.932C775.03 730.159 775.705 726.758 775.705 722.727ZM790.636 746V699.455H796.273V722.545H796.818L817.727 699.455H825.091L805.545 720.455L825.091 746H818.273L802.091 724.364L796.273 730.909V746H790.636Z" fill="#EDDFD6"/>
<path d="M455.25 735.455L454.802 735.232L454.802 735.232L455.25 735.455ZM447.955 743.727L448.22 744.151L448.22 744.151L447.955 743.727ZM426.773 743.727L426.507 744.151L426.507 744.151L426.773 743.727ZM419.477 735.455L419.925 735.232L419.925 735.232L419.477 735.455ZM419.477 710L419.029 709.778L419.477 710ZM447.955 701.727L448.22 701.304L448.22 701.304L447.955 701.727ZM455.25 710L454.802 710.222L454.802 710.222L455.25 710ZM450.432 712.523L449.981 712.739L449.982 712.741L450.432 712.523ZM445 706.227L444.734 706.651L444.736 706.652L445 706.227ZM429.705 706.227L429.44 705.803L429.439 705.804L429.705 706.227ZM424.273 712.523L423.823 712.304L423.822 712.306L424.273 712.523ZM424.273 732.932L423.822 733.149L423.823 733.15L424.273 732.932ZM429.705 739.227L429.439 739.651L429.44 739.652L429.705 739.227ZM445 739.227L444.736 738.803L444.734 738.804L445 739.227ZM450.432 732.932L449.982 732.713L449.981 732.715L450.432 732.932ZM457.409 722.727C457.409 727.577 456.534 731.74 454.802 735.232L455.698 735.677C457.512 732.018 458.409 727.696 458.409 722.727H457.409ZM454.802 735.232C453.066 738.734 450.694 741.418 447.689 743.304L448.22 744.151C451.397 742.158 453.888 739.327 455.698 735.677L454.802 735.232ZM447.689 743.304C444.684 745.189 441.248 746.136 437.364 746.136V747.136C441.419 747.136 445.043 746.145 448.22 744.151L447.689 743.304ZM437.364 746.136C433.479 746.136 430.043 745.189 427.038 743.304L426.507 744.151C429.684 746.145 433.309 747.136 437.364 747.136V746.136ZM427.038 743.304C424.033 741.418 421.661 738.734 419.925 735.232L419.029 735.677C420.839 739.327 423.331 742.158 426.507 744.151L427.038 743.304ZM419.925 735.232C418.194 731.74 417.318 727.577 417.318 722.727H416.318C416.318 727.696 417.215 732.018 419.029 735.677L419.925 735.232ZM417.318 722.727C417.318 717.878 418.194 713.715 419.925 710.222L419.029 709.778C417.215 713.437 416.318 717.759 416.318 722.727H417.318ZM419.925 710.222C421.661 706.721 424.033 704.037 427.038 702.151L426.507 701.304C423.331 703.297 420.839 706.127 419.029 709.778L419.925 710.222ZM427.038 702.151C430.043 700.266 433.479 699.318 437.364 699.318V698.318C433.309 698.318 429.684 699.31 426.507 701.304L427.038 702.151ZM437.364 699.318C441.248 699.318 444.684 700.266 447.689 702.151L448.22 701.304C445.043 699.31 441.419 698.318 437.364 698.318V699.318ZM447.689 702.151C450.694 704.037 453.066 706.721 454.802 710.222L455.698 709.778C453.888 706.127 451.397 703.297 448.22 701.304L447.689 702.151ZM454.802 710.222C456.534 713.715 457.409 717.878 457.409 722.727H458.409C458.409 717.759 457.512 713.437 455.698 709.778L454.802 710.222ZM452.955 722.727C452.955 718.644 452.272 715.163 450.881 712.304L449.982 712.741C451.289 715.428 451.955 718.75 451.955 722.727H452.955ZM450.882 712.306C449.514 709.46 447.644 707.284 445.264 705.803L444.736 706.652C446.932 708.019 448.683 710.04 449.981 712.739L450.882 712.306ZM445.266 705.804C442.909 704.327 440.271 703.591 437.364 703.591V704.591C440.093 704.591 442.545 705.279 444.734 706.651L445.266 705.804ZM437.364 703.591C434.457 703.591 431.811 704.327 429.44 705.803L429.969 706.652C432.174 705.279 434.634 704.591 437.364 704.591V703.591ZM429.439 705.804C427.076 707.285 425.206 709.46 423.823 712.304L424.722 712.741C426.036 710.04 427.788 708.018 429.97 706.651L429.439 705.804ZM423.822 712.306C422.448 715.164 421.773 718.644 421.773 722.727H422.773C422.773 718.75 423.431 715.427 424.723 712.739L423.822 712.306ZM421.773 722.727C421.773 726.81 422.448 730.291 423.822 733.149L424.723 732.715C423.431 730.028 422.773 726.705 422.773 722.727H421.773ZM423.823 733.15C425.206 735.995 427.076 738.17 429.439 739.651L429.97 738.804C427.788 737.436 426.036 735.415 424.722 732.713L423.823 733.15ZM429.44 739.652C431.811 741.128 434.457 741.864 437.364 741.864V740.864C434.634 740.864 432.174 740.175 429.969 738.803L429.44 739.652ZM437.364 741.864C440.271 741.864 442.909 741.128 445.266 739.651L444.734 738.804C442.545 740.175 440.093 740.864 437.364 740.864V741.864ZM445.264 739.652C447.644 738.171 449.514 735.994 450.882 733.149L449.981 732.715C448.683 735.415 446.932 737.436 444.736 738.803L445.264 739.652ZM450.881 733.15C452.272 730.292 452.955 726.811 452.955 722.727H451.955C451.955 726.704 451.289 730.026 449.982 732.713L450.881 733.15ZM467.386 746H466.886V746.5H467.386V746ZM467.386 699.455V698.955H466.886V699.455H467.386ZM492.068 701.318L491.833 701.76L491.835 701.761L492.068 701.318ZM497.25 706.386L496.807 706.617L496.807 706.617L497.25 706.386ZM497.25 721.023L496.808 720.789L496.808 720.789L497.25 721.023ZM492.091 726.023L492.32 726.467L492.323 726.466L492.091 726.023ZM470.477 727.818H469.977V728.318H470.477V727.818ZM470.477 722.727V722.227H469.977V722.727H470.477ZM489.023 721.636L488.808 721.185L488.806 721.186L489.023 721.636ZM492.341 718.545L491.897 718.316L491.896 718.318L492.341 718.545ZM489 705.614L488.775 706.06L488.778 706.062L489 705.614ZM473.023 704.455V703.955H472.523V704.455H473.023ZM473.023 746V746.5H473.523V746H473.023ZM489.295 725.091L489.734 724.851L489.592 724.591H489.295V725.091ZM500.75 746V746.5H501.594L501.189 745.76L500.75 746ZM494.205 746L493.764 746.237L493.906 746.5H494.205V746ZM482.932 725.091V724.591H482.094L482.492 725.328L482.932 725.091ZM467.886 746V699.455H466.886V746H467.886ZM467.386 699.955H483.114V698.955H467.386V699.955ZM483.114 699.955C486.697 699.955 489.594 700.567 491.833 701.76L492.303 700.877C489.875 699.584 486.803 698.955 483.114 698.955V699.955ZM491.835 701.761C494.087 702.945 495.737 704.564 496.807 706.617L497.693 706.155C496.521 703.906 494.716 702.146 492.301 700.876L491.835 701.761ZM496.807 706.617C497.886 708.689 498.432 711.055 498.432 713.727H499.432C499.432 710.915 498.856 708.387 497.693 706.155L496.807 706.617ZM498.432 713.727C498.432 716.4 497.886 718.75 496.808 720.789L497.692 721.256C498.856 719.053 499.432 716.539 499.432 713.727H498.432ZM496.808 720.789C495.738 722.813 494.096 724.41 491.859 725.58L492.323 726.466C494.722 725.211 496.519 723.475 497.692 721.256L496.808 720.789ZM491.862 725.578C489.636 726.728 486.76 727.318 483.205 727.318V728.318C486.862 728.318 489.909 727.712 492.32 726.467L491.862 725.578ZM483.205 727.318H470.477V728.318H483.205V727.318ZM470.977 727.818V722.727H469.977V727.818H470.977ZM470.477 723.227H483.023V722.227H470.477V723.227ZM483.023 723.227C485.55 723.227 487.632 722.859 489.239 722.087L488.806 721.186C487.383 721.869 485.466 722.227 483.023 722.227V723.227ZM489.237 722.088C490.853 721.32 492.048 720.217 492.786 718.773L491.896 718.318C491.271 719.54 490.253 720.498 488.808 721.185L489.237 722.088ZM492.785 718.775C493.526 717.341 493.886 715.653 493.886 713.727H492.886C492.886 715.529 492.55 717.053 491.897 718.316L492.785 718.775ZM493.886 713.727C493.886 711.801 493.526 710.093 492.788 708.617L491.894 709.065C492.55 710.377 492.886 711.926 492.886 713.727H493.886ZM492.788 708.617C492.038 707.117 490.84 705.967 489.222 705.166L488.778 706.062C490.221 706.776 491.25 707.777 491.894 709.065L492.788 708.617ZM489.225 705.167C487.6 704.347 485.491 703.955 482.932 703.955V704.955C485.402 704.955 487.339 705.335 488.775 706.06L489.225 705.167ZM482.932 703.955H473.023V704.955H482.932V703.955ZM472.523 704.455V746H473.523V704.455H472.523ZM473.023 745.5H467.386V746.5H473.023V745.5ZM488.857 725.331L500.311 746.24L501.189 745.76L489.734 724.851L488.857 725.331ZM500.75 745.5H494.205V746.5H500.75V745.5ZM494.645 745.763L483.372 724.854L482.492 725.328L493.764 746.237L494.645 745.763ZM482.932 725.591H489.295V724.591H482.932V725.591ZM508.324 746H507.824V746.5H508.324V746ZM508.324 699.455V698.955H507.824V699.455H508.324ZM534.915 702.25L534.664 702.682L534.665 702.683L534.915 702.25ZM542.301 710.227L541.853 710.449L541.853 710.449L542.301 710.227ZM542.278 735.159L542.726 735.381L542.727 735.38L542.278 735.159ZM534.733 743.205L534.979 743.64L534.98 743.639L534.733 743.205ZM513.96 741H513.46V741.5H513.96V741ZM531.892 738.773L531.639 738.341L531.892 738.773ZM537.574 712.932L537.118 713.137L537.118 713.138L537.574 712.932ZM532.074 706.659L531.816 707.087L531.818 707.089L532.074 706.659ZM513.96 704.455V703.955H513.46V704.455H513.96ZM522.688 745.5H508.324V746.5H522.688V745.5ZM508.824 746V699.455H507.824V746H508.824ZM508.324 699.955H523.324V698.955H508.324V699.955ZM523.324 699.955C527.77 699.955 531.543 700.872 534.664 702.682L535.166 701.818C531.862 699.901 527.908 698.955 523.324 698.955V699.955ZM534.665 702.683C537.788 704.48 540.182 707.064 541.853 710.449L542.75 710.006C540.996 706.452 538.466 703.717 535.164 701.817L534.665 702.683ZM541.853 710.449C543.524 713.82 544.369 717.876 544.369 722.636H545.369C545.369 717.76 544.503 713.544 542.749 710.005L541.853 710.449ZM544.369 722.636C544.369 727.426 543.516 731.521 541.83 734.938L542.727 735.38C544.495 731.797 545.369 727.543 545.369 722.636H544.369ZM541.83 734.937C540.146 738.335 537.7 740.942 534.486 742.77L534.98 743.639C538.372 741.71 540.956 738.953 542.726 735.381L541.83 734.937ZM534.487 742.769C531.276 744.581 527.35 745.5 522.688 745.5V746.5C527.48 746.5 531.584 745.555 534.979 743.64L534.487 742.769ZM513.96 741.5H522.324V740.5H513.96V741.5ZM522.324 741.5C526.234 741.5 529.518 740.746 532.145 739.204L531.639 738.341C529.206 739.769 526.11 740.5 522.324 740.5V741.5ZM532.145 739.204C534.767 737.665 536.723 735.472 538.007 732.638L537.096 732.225C535.895 734.876 534.078 736.91 531.639 738.341L532.145 739.204ZM538.007 732.638C539.285 729.816 539.915 726.478 539.915 722.636H538.915C538.915 726.371 538.302 729.562 537.096 732.225L538.007 732.638ZM539.915 722.636C539.915 718.826 539.293 715.517 538.029 712.726L537.118 713.138C538.31 715.771 538.915 718.932 538.915 722.636H539.915ZM538.03 712.727C536.763 709.911 534.862 707.74 532.33 706.23L531.818 707.089C534.164 708.488 535.93 710.498 537.118 713.137L538.03 712.727ZM532.332 706.231C529.796 704.703 526.663 703.955 522.96 703.955V704.955C526.53 704.955 529.473 705.676 531.816 707.087L532.332 706.231ZM522.96 703.955H513.96V704.955H522.96V703.955ZM513.46 704.455V741H514.46V704.455H513.46ZM554.324 746H553.824V746.5H554.324V746ZM554.324 699.455V698.955H553.824V699.455H554.324ZM582.415 699.455H582.915V698.955H582.415V699.455ZM582.415 704.455V704.955H582.915V704.455H582.415ZM559.96 704.455V703.955H559.46V704.455H559.96ZM559.96 720.182H559.46V720.682H559.96V720.182ZM580.96 720.182H581.46V719.682H580.96V720.182ZM580.96 725.182V725.682H581.46V725.182H580.96ZM559.96 725.182V724.682H559.46V725.182H559.96ZM559.96 741H559.46V741.5H559.96V741ZM582.778 741H583.278V740.5H582.778V741ZM582.778 746V746.5H583.278V746H582.778ZM554.824 746V699.455H553.824V746H554.824ZM554.324 699.955H582.415V698.955H554.324V699.955ZM581.915 699.455V704.455H582.915V699.455H581.915ZM582.415 703.955H559.96V704.955H582.415V703.955ZM559.46 704.455V720.182H560.46V704.455H559.46ZM559.96 720.682H580.96V719.682H559.96V720.682ZM580.46 720.182V725.182H581.46V720.182H580.46ZM580.96 724.682H559.96V725.682H580.96V724.682ZM559.46 725.182V741H560.46V725.182H559.46ZM559.96 741.5H582.778V740.5H559.96V741.5ZM582.278 741V746H583.278V741H582.278ZM582.778 745.5H554.324V746.5H582.778V745.5ZM592.574 746H592.074V746.5H592.574V746ZM592.574 699.455V698.955H592.074V699.455H592.574ZM617.256 701.318L617.021 701.76L617.023 701.761L617.256 701.318ZM622.438 706.386L621.994 706.617L621.994 706.617L622.438 706.386ZM622.438 721.023L621.995 720.789L621.995 720.789L622.438 721.023ZM617.278 726.023L617.508 726.467L617.51 726.466L617.278 726.023ZM595.665 727.818H595.165V728.318H595.665V727.818ZM595.665 722.727V722.227H595.165V722.727H595.665ZM614.21 721.636L613.996 721.185L613.994 721.186L614.21 721.636ZM617.528 718.545L617.084 718.316L617.083 718.318L617.528 718.545ZM614.188 705.614L613.962 706.06L613.966 706.062L614.188 705.614ZM598.21 704.455V703.955H597.71V704.455H598.21ZM598.21 746V746.5H598.71V746H598.21ZM614.483 725.091L614.921 724.851L614.779 724.591H614.483V725.091ZM625.938 746V746.5H626.782L626.376 745.76L625.938 746ZM619.392 746L618.952 746.237L619.094 746.5H619.392V746ZM608.119 725.091V724.591H607.282L607.679 725.328L608.119 725.091ZM593.074 746V699.455H592.074V746H593.074ZM592.574 699.955H608.301V698.955H592.574V699.955ZM608.301 699.955C611.885 699.955 614.782 700.567 617.021 701.76L617.491 700.877C615.063 699.584 611.99 698.955 608.301 698.955V699.955ZM617.023 701.761C619.274 702.945 620.924 704.564 621.994 706.617L622.881 706.155C621.709 703.906 619.904 702.146 617.488 700.876L617.023 701.761ZM621.994 706.617C623.074 708.689 623.619 711.055 623.619 713.727H624.619C624.619 710.915 624.044 708.387 622.881 706.155L621.994 706.617ZM623.619 713.727C623.619 716.4 623.073 718.75 621.995 720.789L622.88 721.256C624.044 719.053 624.619 716.539 624.619 713.727H623.619ZM621.995 720.789C620.926 722.813 619.284 724.41 617.047 725.58L617.51 726.466C619.909 725.211 621.707 723.475 622.88 721.256L621.995 720.789ZM617.049 725.578C614.824 726.728 611.947 727.318 608.392 727.318V728.318C612.049 728.318 615.097 727.712 617.508 726.467L617.049 725.578ZM608.392 727.318H595.665V728.318H608.392V727.318ZM596.165 727.818V722.727H595.165V727.818H596.165ZM595.665 723.227H608.21V722.227H595.665V723.227ZM608.21 723.227C610.737 723.227 612.819 722.859 614.427 722.087L613.994 721.186C612.571 721.869 610.653 722.227 608.21 722.227V723.227ZM614.425 722.088C616.041 721.32 617.235 720.217 617.974 718.773L617.083 718.318C616.458 719.54 615.44 720.498 613.996 721.185L614.425 722.088ZM617.973 718.775C618.714 717.341 619.074 715.653 619.074 713.727H618.074C618.074 715.529 617.737 717.053 617.084 718.316L617.973 718.775ZM619.074 713.727C619.074 711.801 618.713 710.093 617.976 708.617L617.081 709.065C617.737 710.377 618.074 711.926 618.074 713.727H619.074ZM617.976 708.617C617.225 707.117 616.027 705.967 614.409 705.166L613.966 706.062C615.408 706.776 616.438 707.777 617.081 709.065L617.976 708.617ZM614.413 705.167C612.788 704.347 610.679 703.955 608.119 703.955V704.955C610.59 704.955 612.527 705.335 613.962 706.06L614.413 705.167ZM608.119 703.955H598.21V704.955H608.119V703.955ZM597.71 704.455V746H598.71V704.455H597.71ZM598.21 745.5H592.574V746.5H598.21V745.5ZM614.044 725.331L625.499 746.24L626.376 745.76L614.921 724.851L614.044 725.331ZM625.938 745.5H619.392V746.5H625.938V745.5ZM619.832 745.763L608.559 724.854L607.679 725.328L618.952 746.237L619.832 745.763ZM608.119 725.591H614.483V724.591H608.119V725.591ZM651.511 746H651.011V746.5H651.511V746ZM651.511 699.455V698.955H651.011V699.455H651.511ZM675.807 701.136L675.572 701.578L675.574 701.579L675.807 701.136ZM680.511 705.614L680.073 705.854L680.074 705.856L680.511 705.614ZM680.989 716.773L680.55 716.533L680.548 716.537L680.989 716.773ZM678.216 719.864L677.941 719.446L677.939 719.448L678.216 719.864ZM674.511 721.545L674.38 721.063L674.011 721.164V721.545H674.511ZM674.511 722H674.011V722.469L674.48 722.499L674.511 722ZM678.807 723.5L678.54 723.923L678.54 723.923L678.807 723.5ZM682.284 739.932L682.719 740.179L682.719 740.179L682.284 739.932ZM677.261 744.364L677.046 743.912L677.046 743.912L677.261 744.364ZM657.148 741H656.648V741.5H657.148V741ZM676.17 738.864L676.509 739.231L676.509 739.231L676.17 738.864ZM677.307 729.273L676.877 729.529L676.879 729.531L677.307 729.273ZM673.875 726.045L673.634 726.483L673.637 726.485L673.875 726.045ZM657.148 724.818V724.318H656.648V724.818H657.148ZM657.148 719.909H656.648V720.409H657.148V719.909ZM672.193 718.909L671.976 718.459L671.974 718.46L672.193 718.909ZM675.466 716.091L675.051 715.811L675.049 715.815L675.466 716.091ZM674.557 706.614L674.201 706.965L674.203 706.967L674.557 706.614ZM657.148 704.455V703.955H656.648V704.455H657.148ZM652.011 746V699.455H651.011V746H652.011ZM651.511 699.955H667.784V698.955H651.511V699.955ZM667.784 699.955C670.973 699.955 673.559 700.506 675.572 701.578L676.042 700.695C673.842 699.524 671.08 698.955 667.784 698.955V699.955ZM675.574 701.579C677.603 702.645 679.095 704.071 680.073 705.854L680.95 705.373C679.867 703.399 678.222 701.84 676.039 700.694L675.574 701.579ZM680.074 705.856C681.06 707.64 681.557 709.624 681.557 711.818H682.557C682.557 709.467 682.023 707.314 680.949 705.372L680.074 705.856ZM681.557 711.818C681.557 713.762 681.21 715.325 680.55 716.533L681.427 717.013C682.191 715.615 682.557 713.874 682.557 711.818H681.557ZM680.548 716.537C679.887 717.772 679.018 718.737 677.941 719.446L678.491 720.281C679.717 719.475 680.696 718.38 681.43 717.009L680.548 716.537ZM677.939 719.448C676.847 720.175 675.662 720.713 674.38 721.063L674.643 722.028C676.027 721.65 677.312 721.067 678.493 720.28L677.939 719.448ZM674.011 721.545V722H675.011V721.545H674.011ZM674.48 722.499C675.806 722.584 677.158 723.05 678.54 723.923L679.074 723.077C677.577 722.132 676.066 721.598 674.543 721.501L674.48 722.499ZM678.54 723.923C679.9 724.782 681.051 726.021 681.986 727.657L682.855 727.161C681.85 725.404 680.592 724.036 679.074 723.077L678.54 723.923ZM681.986 727.657C682.903 729.262 683.375 731.247 683.375 733.636H684.375C684.375 731.117 683.877 728.951 682.855 727.161L681.986 727.657ZM683.375 733.636C683.375 735.891 682.864 737.903 681.85 739.685L682.719 740.179C683.826 738.234 684.375 736.049 684.375 733.636H683.375ZM681.85 739.685C680.848 741.444 679.259 742.857 677.046 743.912L677.477 744.815C679.839 743.688 681.599 742.147 682.719 740.179L681.85 739.685ZM677.046 743.912C674.849 744.96 671.953 745.5 668.33 745.5V746.5C672.04 746.5 675.098 745.949 677.477 744.815L677.046 743.912ZM668.33 745.5H651.511V746.5H668.33V745.5ZM657.148 741.5H668.33V740.5H657.148V741.5ZM668.33 741.5C672.051 741.5 674.823 740.785 676.509 739.231L675.832 738.496C674.427 739.791 671.972 740.5 668.33 740.5V741.5ZM676.509 739.231C678.168 737.701 679.011 735.827 679.011 733.636H678.011C678.011 735.536 677.294 737.147 675.831 738.496L676.509 739.231ZM679.011 733.636C679.011 731.971 678.586 730.427 677.735 729.015L676.879 729.531C677.634 730.785 678.011 732.15 678.011 733.636H679.011ZM677.736 729.017C676.884 727.585 675.671 726.448 674.113 725.606L673.637 726.485C675.049 727.249 676.124 728.263 676.877 729.529L677.736 729.017ZM674.116 725.608C672.544 724.741 670.7 724.318 668.602 724.318V725.318C670.565 725.318 672.236 725.713 673.634 726.483L674.116 725.608ZM668.602 724.318H657.148V725.318H668.602V724.318ZM656.648 724.818V741H657.648V724.818H656.648ZM657.148 720.409H667.602V719.409H657.148V720.409ZM667.602 720.409C669.366 720.409 670.973 720.062 672.413 719.358L671.974 718.46C670.686 719.089 669.232 719.409 667.602 719.409V720.409ZM672.411 719.359C673.866 718.656 675.027 717.658 675.883 716.367L675.049 715.815C674.298 716.948 673.278 717.829 671.976 718.459L672.411 719.359ZM675.88 716.371C676.761 715.066 677.193 713.542 677.193 711.818H676.193C676.193 713.367 675.807 714.691 675.051 715.811L675.88 716.371ZM677.193 711.818C677.193 709.642 676.43 707.78 674.91 706.26L674.203 706.967C675.532 708.296 676.193 709.903 676.193 711.818H677.193ZM674.912 706.262C673.355 704.688 670.939 703.955 667.784 703.955V704.955C670.811 704.955 672.911 705.661 674.201 706.965L674.912 706.262ZM667.784 703.955H657.148V704.955H667.784V703.955ZM656.648 704.455V719.909H657.648V704.455H656.648ZM729.75 735.455L729.302 735.232L729.302 735.232L729.75 735.455ZM722.455 743.727L722.72 744.151L722.72 744.151L722.455 743.727ZM701.273 743.727L701.007 744.151L701.007 744.151L701.273 743.727ZM693.977 735.455L694.425 735.232L694.425 735.232L693.977 735.455ZM693.977 710L693.529 709.778L693.977 710ZM722.455 701.727L722.72 701.304L722.72 701.304L722.455 701.727ZM729.75 710L729.302 710.222L729.302 710.222L729.75 710ZM724.932 712.523L724.481 712.739L724.482 712.741L724.932 712.523ZM719.5 706.227L719.234 706.651L719.236 706.652L719.5 706.227ZM704.205 706.227L703.94 705.803L703.939 705.804L704.205 706.227ZM698.773 712.523L698.323 712.304L698.322 712.306L698.773 712.523ZM698.773 732.932L698.322 733.149L698.323 733.15L698.773 732.932ZM704.205 739.227L703.939 739.651L703.94 739.652L704.205 739.227ZM719.5 739.227L719.236 738.803L719.234 738.804L719.5 739.227ZM724.932 732.932L724.482 732.713L724.481 732.715L724.932 732.932ZM731.909 722.727C731.909 727.577 731.034 731.74 729.302 735.232L730.198 735.677C732.012 732.018 732.909 727.696 732.909 722.727H731.909ZM729.302 735.232C727.566 738.734 725.194 741.418 722.189 743.304L722.72 744.151C725.897 742.158 728.388 739.327 730.198 735.677L729.302 735.232ZM722.189 743.304C719.184 745.189 715.748 746.136 711.864 746.136V747.136C715.919 747.136 719.543 746.145 722.72 744.151L722.189 743.304ZM711.864 746.136C707.979 746.136 704.543 745.189 701.538 743.304L701.007 744.151C704.184 746.145 707.809 747.136 711.864 747.136V746.136ZM701.538 743.304C698.533 741.418 696.161 738.734 694.425 735.232L693.529 735.677C695.339 739.327 697.831 742.158 701.007 744.151L701.538 743.304ZM694.425 735.232C692.694 731.74 691.818 727.577 691.818 722.727H690.818C690.818 727.696 691.715 732.018 693.529 735.677L694.425 735.232ZM691.818 722.727C691.818 717.878 692.694 713.715 694.425 710.222L693.529 709.778C691.715 713.437 690.818 717.759 690.818 722.727H691.818ZM694.425 710.222C696.161 706.721 698.533 704.037 701.538 702.151L701.007 701.304C697.831 703.297 695.339 706.127 693.529 709.778L694.425 710.222ZM701.538 702.151C704.543 700.266 707.979 699.318 711.864 699.318V698.318C707.809 698.318 704.184 699.31 701.007 701.304L701.538 702.151ZM711.864 699.318C715.748 699.318 719.184 700.266 722.189 702.151L722.72 701.304C719.543 699.31 715.919 698.318 711.864 698.318V699.318ZM722.189 702.151C725.194 704.037 727.566 706.721 729.302 710.222L730.198 709.778C728.388 706.127 725.897 703.297 722.72 701.304L722.189 702.151ZM729.302 710.222C731.034 713.715 731.909 717.878 731.909 722.727H732.909C732.909 717.759 732.012 713.437 730.198 709.778L729.302 710.222ZM727.455 722.727C727.455 718.644 726.772 715.163 725.381 712.304L724.482 712.741C725.789 715.428 726.455 718.75 726.455 722.727H727.455ZM725.382 712.306C724.014 709.46 722.144 707.284 719.764 705.803L719.236 706.652C721.432 708.019 723.183 710.04 724.481 712.739L725.382 712.306ZM719.766 705.804C717.409 704.327 714.771 703.591 711.864 703.591V704.591C714.593 704.591 717.045 705.279 719.234 706.651L719.766 705.804ZM711.864 703.591C708.957 703.591 706.311 704.327 703.94 705.803L704.469 706.652C706.674 705.279 709.134 704.591 711.864 704.591V703.591ZM703.939 705.804C701.576 707.285 699.706 709.46 698.323 712.304L699.222 712.741C700.536 710.04 702.288 708.018 704.47 706.651L703.939 705.804ZM698.322 712.306C696.948 715.164 696.273 718.644 696.273 722.727H697.273C697.273 718.75 697.931 715.427 699.223 712.739L698.322 712.306ZM696.273 722.727C696.273 726.81 696.948 730.291 698.322 733.149L699.223 732.715C697.931 730.028 697.273 726.705 697.273 722.727H696.273ZM698.323 733.15C699.706 735.995 701.576 738.17 703.939 739.651L704.47 738.804C702.288 737.436 700.536 735.415 699.222 732.713L698.323 733.15ZM703.94 739.652C706.311 741.128 708.957 741.864 711.864 741.864V740.864C709.134 740.864 706.674 740.175 704.469 738.803L703.94 739.652ZM711.864 741.864C714.771 741.864 717.409 741.128 719.766 739.651L719.234 738.804C717.045 740.175 714.593 740.864 711.864 740.864V741.864ZM719.764 739.652C722.144 738.171 724.014 735.994 725.382 733.149L724.481 732.715C723.183 735.415 721.432 737.436 719.236 738.803L719.764 739.652ZM725.381 733.15C726.772 730.292 727.455 726.811 727.455 722.727H726.455C726.455 726.704 725.789 730.026 724.482 732.713L725.381 733.15ZM778.5 735.455L778.052 735.232L778.052 735.232L778.5 735.455ZM771.205 743.727L771.47 744.151L771.47 744.151L771.205 743.727ZM750.023 743.727L749.757 744.151L749.757 744.151L750.023 743.727ZM742.727 735.455L743.175 735.232L743.175 735.232L742.727 735.455ZM742.727 710L742.279 709.778L742.727 710ZM771.205 701.727L771.47 701.304L771.47 701.304L771.205 701.727ZM778.5 710L778.052 710.222L778.052 710.222L778.5 710ZM773.682 712.523L773.231 712.739L773.232 712.741L773.682 712.523ZM768.25 706.227L767.984 706.651L767.986 706.652L768.25 706.227ZM752.955 706.227L752.69 705.803L752.689 705.804L752.955 706.227ZM747.523 712.523L747.073 712.304L747.072 712.306L747.523 712.523ZM747.523 732.932L747.072 733.149L747.073 733.15L747.523 732.932ZM752.955 739.227L752.689 739.651L752.69 739.652L752.955 739.227ZM768.25 739.227L767.986 738.803L767.984 738.804L768.25 739.227ZM773.682 732.932L773.232 732.713L773.231 732.715L773.682 732.932ZM780.659 722.727C780.659 727.577 779.784 731.74 778.052 735.232L778.948 735.677C780.762 732.018 781.659 727.696 781.659 722.727H780.659ZM778.052 735.232C776.316 738.734 773.944 741.418 770.939 743.304L771.47 744.151C774.647 742.158 777.138 739.327 778.948 735.677L778.052 735.232ZM770.939 743.304C767.934 745.189 764.498 746.136 760.614 746.136V747.136C764.669 747.136 768.293 746.145 771.47 744.151L770.939 743.304ZM760.614 746.136C756.729 746.136 753.293 745.189 750.288 743.304L749.757 744.151C752.934 746.145 756.559 747.136 760.614 747.136V746.136ZM750.288 743.304C747.283 741.418 744.911 738.734 743.175 735.232L742.279 735.677C744.089 739.327 746.581 742.158 749.757 744.151L750.288 743.304ZM743.175 735.232C741.444 731.74 740.568 727.577 740.568 722.727H739.568C739.568 727.696 740.465 732.018 742.279 735.677L743.175 735.232ZM740.568 722.727C740.568 717.878 741.444 713.715 743.175 710.222L742.279 709.778C740.465 713.437 739.568 717.759 739.568 722.727H740.568ZM743.175 710.222C744.911 706.721 747.283 704.037 750.288 702.151L749.757 701.304C746.581 703.297 744.089 706.127 742.279 709.778L743.175 710.222ZM750.288 702.151C753.293 700.266 756.729 699.318 760.614 699.318V698.318C756.559 698.318 752.934 699.31 749.757 701.304L750.288 702.151ZM760.614 699.318C764.498 699.318 767.934 700.266 770.939 702.151L771.47 701.304C768.293 699.31 764.669 698.318 760.614 698.318V699.318ZM770.939 702.151C773.944 704.037 776.316 706.721 778.052 710.222L778.948 709.778C777.138 706.127 774.647 703.297 771.47 701.304L770.939 702.151ZM778.052 710.222C779.784 713.715 780.659 717.878 780.659 722.727H781.659C781.659 717.759 780.762 713.437 778.948 709.778L778.052 710.222ZM776.205 722.727C776.205 718.644 775.522 715.163 774.131 712.304L773.232 712.741C774.539 715.428 775.205 718.75 775.205 722.727H776.205ZM774.132 712.306C772.764 709.46 770.894 707.284 768.514 705.803L767.986 706.652C770.182 708.019 771.933 710.04 773.231 712.739L774.132 712.306ZM768.516 705.804C766.159 704.327 763.521 703.591 760.614 703.591V704.591C763.343 704.591 765.795 705.279 767.984 706.651L768.516 705.804ZM760.614 703.591C757.707 703.591 755.061 704.327 752.69 705.803L753.219 706.652C755.424 705.279 757.884 704.591 760.614 704.591V703.591ZM752.689 705.804C750.326 707.285 748.456 709.46 747.073 712.304L747.972 712.741C749.286 710.04 751.038 708.018 753.22 706.651L752.689 705.804ZM747.072 712.306C745.698 715.164 745.023 718.644 745.023 722.727H746.023C746.023 718.75 746.681 715.427 747.973 712.739L747.072 712.306ZM745.023 722.727C745.023 726.81 745.698 730.291 747.072 733.149L747.973 732.715C746.681 730.028 746.023 726.705 746.023 722.727H745.023ZM747.073 733.15C748.456 735.995 750.326 738.17 752.689 739.651L753.22 738.804C751.038 737.436 749.286 735.415 747.972 732.713L747.073 733.15ZM752.69 739.652C755.061 741.128 757.707 741.864 760.614 741.864V740.864C757.884 740.864 755.424 740.175 753.219 738.803L752.69 739.652ZM760.614 741.864C763.521 741.864 766.159 741.128 768.516 739.651L767.984 738.804C765.795 740.175 763.343 740.864 760.614 740.864V741.864ZM768.514 739.652C770.894 738.171 772.764 735.994 774.132 733.149L773.231 732.715C771.933 735.415 770.182 737.436 767.986 738.803L768.514 739.652ZM774.131 733.15C775.522 730.292 776.205 726.811 776.205 722.727H775.205C775.205 726.704 774.539 730.026 773.232 732.713L774.131 733.15ZM790.636 746H790.136V746.5H790.636V746ZM790.636 699.455V698.955H790.136V699.455H790.636ZM796.273 699.455H796.773V698.955H796.273V699.455ZM796.273 722.545H795.773V723.045H796.273V722.545ZM796.818 722.545V723.045H797.04L797.189 722.881L796.818 722.545ZM817.727 699.455V698.955H817.506L817.357 699.119L817.727 699.455ZM825.091 699.455L825.457 699.795L826.239 698.955H825.091V699.455ZM805.545 720.455L805.179 720.114L804.892 720.423L805.148 720.758L805.545 720.455ZM825.091 746V746.5H826.103L825.488 745.696L825.091 746ZM818.273 746L817.872 746.299L818.022 746.5H818.273V746ZM802.091 724.364L802.491 724.064L802.124 723.573L801.717 724.031L802.091 724.364ZM796.273 730.909L795.899 730.577L795.773 730.719V730.909H796.273ZM796.273 746V746.5H796.773V746H796.273ZM791.136 746V699.455H790.136V746H791.136ZM790.636 699.955H796.273V698.955H790.636V699.955ZM795.773 699.455V722.545H796.773V699.455H795.773ZM796.273 723.045H796.818V722.045H796.273V723.045ZM797.189 722.881L818.098 699.79L817.357 699.119L796.448 722.21L797.189 722.881ZM817.727 699.955H825.091V698.955H817.727V699.955ZM824.725 699.114L805.179 720.114L805.911 720.795L825.457 699.795L824.725 699.114ZM805.148 720.758L824.694 746.304L825.488 745.696L805.943 720.151L805.148 720.758ZM825.091 745.5H818.273V746.5H825.091V745.5ZM818.673 745.701L802.491 724.064L801.691 724.663L817.872 746.299L818.673 745.701ZM801.717 724.031L795.899 730.577L796.646 731.241L802.465 724.696L801.717 724.031ZM795.773 730.909V746H796.773V730.909H795.773ZM796.273 745.5H790.636V746.5H796.273V745.5Z" fill="#EDDFD6"/>
<rect x="936" y="828" width="99" height="50" fill="#222222"/>
</svg>
