<?xml version="1.0" encoding="UTF-8"?>
<svg id="Layer_1" xmlns="http://www.w3.org/2000/svg" version="1.1" viewBox="0 0 1000 600">
  <!-- Generator: Adobe Illustrator 29.8.1, SVG Export Plug-In . SVG Version: 2.1.1 Build 2)  -->
  <defs>
    <style>
      .st0 {
        fill: #1d1d1b;
      }

      .st1 {
        fill: #ebdbd3;
      }
    </style>
  </defs>
  <rect class="st0" width="1000" height="600"/>
  <g>
    <path class="st1" d="M595.5,390.7c24.5-7.4,55.3-27.5,81.4-25.9,21.4,1.3,38.5,23.4,26.5,43.6-9,15.1-62.8,40.3-80.8,49.4-23.8,12-69,37-94,39s-50.4-1.9-72-6.1c-17.7-3.4-50.9-15.6-67.3-9.8-7,2.5-18.8,15.1-24.5,14.9-2.7,0-7.6-3-10.1-4.4-30.5-17.3-52.1-70-47.2-104,.4-2.9,2.1-6.3,4.8-7.7,5-2.6,17.9-5,24.5-7.3,43.2-15.2,83.7-37.2,131.6-27.5,14.1,2.8,26.5,10.9,41,12.1,21.7,1.8,45.7-9.8,66.3-2.6,14,4.9,23.7,22.1,20,36.4ZM322.7,392.8c-2,24.7,8.2,52.8,24,71.7,3.2,3.8,14.2,15.8,19.2,13.5,4.7-2.1,10.1-8.3,16.2-10.9,22-9.2,57,4.9,80.1,9.1,26.7,4.9,60.3,9.5,86-.2,37-14,92.1-42.2,126-63,8.7-5.3,23.1-13.3,15.2-25.2-10.5-15.8-40.4-2-54.4,3.3-45.5,17.4-90.6,49.8-141.1,36.9-6.1-1.6-9.2-8.5-5-13.2,4.4-5,23.9.6,30.8,1,15.4.8,50.3-8.8,58.6-22.5,6.1-10.1,0-23.6-11.6-25.6-17.2-2.9-39.1,6.1-58.6,4.6-19.9-1.6-36.8-13.5-56.9-14.5-6.3-.3-14.8.4-21.2,1-38.4,4-70.6,24.2-107.4,33.9Z"/>
    <path class="st1" d="M360.2,313.6c2.2-1.3,3.7-3.9,5.2-5.9,4.3-5.8,11.4-18.4,16-22.6,6.8-6.2,16.5,1.7,12.3,9.4l-31.6,44.3c-2.7,2.9-6.5,3.7-10,1.6l-44.5-31.7c-6.2-6.7-.5-16,8.2-13.1l28.9,19.8-3.9-32.3c-1.9-88.6,62.3-166.6,150.1-179.7,127.7-19.1,232.1,99.2,196.8,223.8-1.5,5.2-5,18.9-10.3,20.6-3.4,1.1-8.5-.7-9.5-4.1-1.5-5.2,5.7-23.1,7.2-30,26-116.7-78.8-220.2-195.3-192.4-85.1,20.3-138.4,106.6-119.7,192.2Z"/>
    <path class="st1" d="M509.4,148c82.9-7.3,133.7,90.1,78.8,153-38.9,44.6-109.5,41.8-144.6-5.9-42.4-57.6-5.2-140.9,65.8-147.2ZM511.4,163.5c-60.4,5.3-91.6,76.7-53.8,124.6,39.2,49.5,119.3,33.4,135.2-27.7,13.6-52.1-27.8-101.5-81.5-96.9Z"/>
    <path class="st1" d="M526.2,284.8c0,7.5,1.6,20.5-10,18-7.5-1.6-5.3-11.5-5.5-17.2-7.7.7-27.7-6.8-19.8-17.3,5.2-6.9,16.6,3.1,24.9,2.8,9.1-.3,22.1-8.9,13.8-18-4.8-5.3-23.6-9.1-31.4-15.3-16.8-13.3-7.7-38.9,12.4-42,.4-6.5-2.2-17.9,7.3-18.3,10.4-.4,7.6,10.7,8.6,17.5,7,2,23.8,7.1,16.4,17.3-5.2,7.2-12.1-.7-17.6-1.7-7.4-1.3-23.4.6-20.1,11.4,1.9,6.3,23.3,11.9,30,16.3,20.7,13.7,13.3,40.6-9.1,46.4Z"/>
  </g>
</svg>