<?xml version="1.0" encoding="UTF-8"?><svg xmlns="http://www.w3.org/2000/svg" viewBox="0 0 493.26 299.05"><defs><style>.d,.e{fill:none;stroke:#1d1d1b;}.d,.e,.f{stroke-miterlimit:10;}.d,.f{stroke-width:.42px;}.e{stroke-width:.42px;}.g{fill:#eddfd6;}.h,.i,.f{fill:#1d1d1b;}.i{opacity:.19;}.f{stroke:#eddfd6;}</style></defs><g id="a"/><g id="b"><g id="c"><rect class="f" x=".21" y=".21" width="492.84" height="298.63"/><g><g><g><path class="g" d="M388.79,252.3c-3.15,0-6.24-.86-8.95-2.5l-43.92-26.47c-6.04-3.64-9.27-10.5-8.21-17.48l4.14-27.32,23.76-14.54,36.59-14.31,24.44,40.48-6.95,43.02-5.74,10.25c-3.07,5.47-8.88,8.86-15.16,8.86h0Z"/><path class="h" d="M392.12,149.94l24.31,40.26-6.94,42.95-5.72,10.18c-3.16,5.62-8.99,8.76-14.98,8.76-3.01,0-6.07-.79-8.84-2.47l-43.92-26.47c-5.95-3.58-9.15-10.4-8.11-17.27l4.12-27.23,23.68-14.49,36.39-14.22m.18-.52l-.33,.13-36.39,14.22h-.03l-.03,.03-23.68,14.49-.17,.1-.03,.19-4.12,27.23c-1.07,7.06,2.19,14.01,8.31,17.69l43.92,26.47c2.74,1.65,5.88,2.53,9.06,2.53,6.36,0,12.24-3.44,15.35-8.97l5.72-10.18,.04-.07v-.07l6.95-42.95,.02-.15-.08-.13-24.31-40.26-.18-.31h0Z"/></g><g><path class="g" d="M357.28,188.17c-1.81,0-3.6-.47-5.19-1.36-5.1-2.87-6.91-9.34-4.05-14.44l42.24-75.16c1.88-3.34,5.42-5.41,9.25-5.41,1.81,0,3.6,.47,5.19,1.36,2.47,1.39,4.25,3.65,5.01,6.38s.42,5.59-.97,8.06l-42.24,75.16c-1.88,3.34-5.42,5.41-9.25,5.41Z"/><path class="h" d="M399.53,92.02c1.72,0,3.47,.43,5.08,1.33,5,2.81,6.78,9.15,3.97,14.15l-42.24,75.16c-1.91,3.39-5.44,5.3-9.07,5.3-1.72,0-3.47-.43-5.08-1.33-5-2.81-6.78-9.15-3.97-14.15l42.24-75.16c1.91-3.39,5.44-5.3,9.07-5.3m0-.42h0c-3.91,0-7.53,2.11-9.44,5.52l-42.24,75.16c-2.92,5.2-1.07,11.81,4.13,14.73,1.62,.91,3.45,1.39,5.29,1.39,3.91,0,7.52-2.11,9.44-5.52l42.24-75.16c1.42-2.52,1.77-5.44,.99-8.22-.78-2.78-2.6-5.09-5.11-6.51-1.62-.91-3.45-1.39-5.29-1.39h0Z"/></g><g><path class="g" d="M383.69,183.59c-1.81,0-3.6-.47-5.19-1.36-5.1-2.87-6.91-9.34-4.05-14.44l42.24-75.16c1.88-3.34,5.42-5.41,9.25-5.41,1.81,0,3.6,.47,5.19,1.36,5.1,2.86,6.91,9.34,4.05,14.44l-42.24,75.16c-1.88,3.34-5.42,5.41-9.25,5.41Z"/><path class="h" d="M425.95,87.43c1.72,0,3.47,.43,5.08,1.33,5,2.81,6.78,9.15,3.97,14.15l-42.24,75.16c-1.91,3.39-5.44,5.3-9.07,5.3-1.72,0-3.47-.43-5.08-1.33-5-2.81-6.78-9.15-3.97-14.15l42.24-75.16c1.91-3.39,5.43-5.3,9.07-5.3m0-.42h0c-3.91,0-7.53,2.11-9.44,5.52l-42.24,75.16c-2.92,5.2-1.07,11.81,4.13,14.73,1.62,.91,3.45,1.39,5.29,1.39,3.91,0,7.52-2.11,9.44-5.52l42.24-75.16c2.92-5.2,1.07-11.81-4.13-14.73-1.62-.91-3.45-1.39-5.29-1.39h0Z"/></g><g><path class="g" d="M396,204.11c-1.81,0-3.6-.47-5.19-1.36-2.47-1.39-4.25-3.65-5.01-6.38s-.42-5.59,.97-8.06l42.24-75.16c1.88-3.34,5.42-5.41,9.25-5.41,1.81,0,3.6,.47,5.19,1.36,2.47,1.39,4.25,3.65,5.01,6.38s.42,5.59-.97,8.06l-42.24,75.16c-1.88,3.34-5.42,5.41-9.25,5.41Z"/><path class="h" d="M438.26,107.96c1.72,0,3.47,.43,5.08,1.33,5,2.81,6.78,9.15,3.97,14.15l-42.24,75.16c-1.91,3.39-5.44,5.3-9.07,5.3-1.72,0-3.47-.43-5.08-1.33-5-2.81-6.78-9.15-3.97-14.15l42.24-75.16c1.91-3.39,5.44-5.3,9.07-5.3m0-.42h0c-3.91,0-7.53,2.11-9.44,5.52l-42.24,75.16c-1.42,2.52-1.77,5.44-.99,8.22,.78,2.78,2.6,5.09,5.12,6.51,1.62,.91,3.45,1.39,5.29,1.39,3.91,0,7.52-2.11,9.44-5.52l42.24-75.16c1.42-2.52,1.77-5.44,.99-8.22-.78-2.78-2.6-5.09-5.12-6.51-1.62-.91-3.45-1.39-5.29-1.39h0Z"/></g><g><path class="g" d="M400.42,238.67c-1.81,0-3.6-.47-5.18-1.36-5.1-2.87-6.91-9.34-4.05-14.44l42.24-75.16c1.88-3.34,5.42-5.41,9.25-5.41,1.81,0,3.6,.47,5.19,1.36,5.1,2.86,6.91,9.34,4.05,14.44l-42.24,75.16c-1.88,3.34-5.42,5.41-9.25,5.41Z"/><path class="h" d="M442.68,142.51c1.72,0,3.47,.43,5.08,1.33,5,2.81,6.78,9.15,3.97,14.15l-42.24,75.16c-1.91,3.39-5.44,5.3-9.07,5.3-1.72,0-3.47-.43-5.08-1.33-5-2.81-6.78-9.15-3.97-14.15l42.24-75.16c1.91-3.39,5.44-5.3,9.07-5.3m0-.42h0c-3.91,0-7.52,2.11-9.44,5.52l-42.24,75.16c-2.92,5.2-1.07,11.81,4.13,14.73,1.62,.91,3.45,1.39,5.29,1.39,3.91,0,7.52-2.11,9.44-5.52l42.24-75.16c2.92-5.2,1.07-11.81-4.13-14.73-1.62-.91-3.45-1.39-5.29-1.39h0Z"/></g><g><path class="g" d="M343.2,201.27c-.49,0-.98-.03-1.47-.09-3.3-.39-6.26-2.04-8.32-4.65s-2.98-5.87-2.59-9.17l5.88-50.05c.74-6.27,6.05-11,12.35-11,.49,0,.98,.03,1.47,.09,3.3,.39,6.26,2.04,8.32,4.65s2.98,5.87,2.59,9.17l-5.88,50.05c-.74,6.27-6.05,11-12.35,11Z"/><path class="h" d="M349.05,126.52c.48,0,.96,.03,1.44,.08,6.71,.79,11.52,6.87,10.73,13.58l-5.88,50.05c-.73,6.23-6.02,10.81-12.14,10.81-.48,0-.96-.03-1.44-.08-6.71-.79-11.52-6.87-10.73-13.58l5.88-50.05c.73-6.23,6.02-10.81,12.14-10.81m0-.42h0c-6.41,0-11.81,4.81-12.56,11.19l-5.88,50.05c-.81,6.93,4.16,13.24,11.1,14.05,.5,.06,1,.09,1.49,.09,6.41,0,11.81-4.81,12.56-11.18l5.88-50.05c.4-3.36-.54-6.67-2.64-9.32-2.1-2.65-5.1-4.33-8.46-4.73-.5-.06-1-.09-1.49-.09h0Z"/></g><path class="g" d="M332.05,178.66l-4.13,27.23c-1.04,6.87,2.16,13.68,8.11,17.27l43.92,26.47c8.29,5,19.07,2.15,23.82-6.29l5.72-10.18,6.94-42.95-24.31-40.26-33.38,15.69-26.69,13.02Z"/><rect class="g" x="370.48" y="154.13" width="40.78" height="53.18" transform="translate(41.84 432.94) rotate(-60.67)"/><line class="e" x1="378.86" y1="150.58" x2="423.6" y2="175.72"/><path class="d" d="M358.74,165.64l.82,.46c16.47,9.26,22.32,30.12,13.07,46.59h0"/></g><path class="i" d="M352.79,240.45s-88.57-61.44-27.09-31.16,88.45,13.75,81.5-16.42c-6.95-30.16-57.67-41.43-33.12-38.01,24.56,3.42,38.68,15.54,38.71,14.79s-48.61-27.32-48.61-27.32l-16.5-47.6-78.31,68.48s-9.78,42.19-8.7,42.04,57.35,39.62,57.35,39.62l34.77-4.42Z"/></g><g><g><g><g><path class="g" d="M270.96,216.48l-51.25-1.56c-7.05-.21-13.22-4.62-15.72-11.22l-9.78-25.85,13.59-24.32,24.89-30.4,41.14,23.32,15.02,40.91v11.75c.01,4.65-1.8,9.01-5.08,12.29-3.28,3.27-7.63,5.08-12.26,5.08,0,0-.36,0-.54,0Z"/><path class="h" d="M232.74,123.42l40.91,23.19,14.99,40.84v11.67c0,9.5-7.71,17.16-17.15,17.16-.18,0-.35,0-.53,0l-51.25-1.56c-6.94-.21-13.07-4.59-15.53-11.08l-9.74-25.76,13.54-24.23,24.76-30.23m-.1-.54l-.23,.28-24.76,30.23-.02,.03-.02,.03-13.54,24.23-.1,.17,.07,.18,9.74,25.76c2.53,6.68,8.77,11.14,15.91,11.35l51.25,1.56c.18,0,.36,0,.54,0,9.69,0,17.57-7.89,17.57-17.58v-11.75l-.03-.07-14.99-40.84-.05-.15-.13-.08-40.91-23.19-.31-.18h0Z"/></g><g><path class="g" d="M215.9,175.17c-5.85,0-10.6-4.76-10.6-10.6V78.35c0-5.85,4.76-10.6,10.6-10.6s10.6,4.76,10.6,10.6v86.21c0,5.85-4.76,10.6-10.6,10.6Z"/><path class="h" d="M215.9,67.96c5.74,0,10.39,4.65,10.39,10.39v86.21c0,5.74-4.65,10.39-10.39,10.39s-10.39-4.65-10.39-10.39V78.35c0-5.74,4.65-10.39,10.39-10.39m0-.42c-5.96,0-10.81,4.85-10.81,10.81v86.21c0,5.96,4.85,10.82,10.81,10.82s10.81-4.85,10.81-10.82V78.35c0-5.96-4.85-10.81-10.81-10.81h0Z"/></g><g><path class="g" d="M236.69,158.23c-5.85,0-10.6-4.76-10.6-10.6V61.42c0-5.85,4.76-10.6,10.6-10.6s10.6,4.76,10.6,10.6v86.21c0,5.85-4.76,10.6-10.6,10.6Z"/><path class="h" d="M236.69,51.03c5.74,0,10.39,4.65,10.39,10.39v86.21c0,5.74-4.65,10.39-10.39,10.39s-10.39-4.65-10.39-10.39V61.42c0-5.74,4.65-10.39,10.39-10.39m0-.42c-5.96,0-10.81,4.85-10.81,10.81v86.21c0,5.96,4.85,10.82,10.81,10.82s10.81-4.85,10.81-10.82V61.42c0-5.96-4.85-10.81-10.81-10.81h0Z"/></g><g><path class="g" d="M257.47,170.09c-5.85,0-10.6-4.76-10.6-10.6V73.28c0-5.85,4.76-10.6,10.6-10.6s10.6,4.76,10.6,10.6v86.21c0,5.85-4.76,10.6-10.6,10.6Z"/><path class="h" d="M257.47,62.88c5.74,0,10.39,4.65,10.39,10.39v86.21c0,5.74-4.65,10.39-10.39,10.39h0c-5.74,0-10.39-4.65-10.39-10.39V73.28c0-5.74,4.65-10.39,10.39-10.39h0m0-.42c-5.96,0-10.82,4.85-10.82,10.81v86.21c0,5.96,4.85,10.81,10.81,10.81s10.82-4.85,10.82-10.81V73.28c0-5.96-4.85-10.81-10.81-10.81h0Z"/></g><g><path class="g" d="M278.25,198.05c-5.85,0-10.6-4.76-10.6-10.6V101.23c0-5.85,4.76-10.6,10.6-10.6s10.6,4.76,10.6,10.6v86.21c0,5.85-4.76,10.6-10.6,10.6Z"/><path class="h" d="M278.25,90.84c5.74,0,10.39,4.65,10.39,10.39v86.21c0,5.74-4.65,10.39-10.39,10.39s-10.39-4.65-10.39-10.39V101.24c0-5.74,4.65-10.39,10.39-10.39m0-.42c-5.96,0-10.81,4.85-10.81,10.82v86.21c0,5.96,4.85,10.81,10.81,10.81s10.81-4.85,10.81-10.81V101.24c0-5.96-4.85-10.82-10.81-10.82h0Z"/></g><g><path class="g" d="M209.12,193.73c-5.04,0-9.56-3.01-11.5-7.66l-19.39-46.51c-1.28-3.07-1.29-6.45-.02-9.53s3.65-5.47,6.72-6.75c1.53-.64,3.14-.96,4.79-.96,5.04,0,9.56,3.01,11.5,7.66l19.39,46.52c2.64,6.34-.36,13.64-6.7,16.28-1.53,.64-3.14,.96-4.79,.96Z"/><path class="h" d="M189.72,122.52c4.79,0,9.34,2.83,11.3,7.53l19.39,46.52c2.6,6.24-.35,13.4-6.59,16.01-1.54,.64-3.14,.95-4.7,.95-4.79,0-9.34-2.83-11.3-7.53l-19.39-46.52c-2.6-6.24,.35-13.4,6.59-16.01,1.54-.64,3.13-.95,4.7-.95m0-.42h0c-1.67,0-3.31,.33-4.87,.98-6.44,2.69-9.5,10.11-6.81,16.56l19.39,46.52c1.97,4.73,6.56,7.79,11.69,7.79,1.67,0,3.31-.33,4.87-.98,6.44-2.69,9.5-10.11,6.81-16.56l-19.39-46.52c-1.97-4.73-6.56-7.79-11.69-7.79h0Z"/></g><path class="g" d="M194.44,177.88l9.74,25.76c2.46,6.5,8.59,10.87,15.53,11.08l51.25,1.56c9.68,.29,17.68-7.47,17.68-17.15v-11.67l-14.99-40.84-40.91-23.19-21.41,30.03-16.89,24.43Z"/><rect class="g" x="220.14" y="130.47" width="53.18" height="40.78"/><line class="e" x1="221.49" y1="130.47" x2="272.81" y2="130.47"/><path class="d" d="M211.33,153.45h.94c18.9,0,34.22,15.32,34.22,34.22h0"/></g><path class="i" d="M242.79,221.58s-107.32-10.17-38.89-13.89c65.88-3.58,83.84-31.35,63.01-54.24-20.83-22.89-70.58-7.86-47.49-16.91,23.08-9.05,41.34-5.4,40.99-6.07s-55.76,0-55.76,0l-37.71-33.41-34.72,98.06s12.15,41.57,13.01,40.91,69.41,6.45,69.41,6.45l28.15-20.88Z"/></g><g><path class="h" d="M302.68,188.96c-.87-7.89-4.36-15.2-10.05-20.89-5.68-5.69-12.99-9.19-20.88-10.05,7.89-.87,15.19-4.36,20.88-10.05,5.7-5.7,9.19-13,10.05-20.89,1.79,16.23,14.72,29.15,30.95,30.94-7.89,.86-15.2,4.36-20.9,10.05-5.69,5.69-9.19,13-10.05,20.89Z"/><path class="g" d="M302.68,128.68c2.36,15.05,14.29,26.97,29.34,29.34-7.33,1.14-14.1,4.56-19.44,9.9-5.34,5.34-8.76,12.1-9.9,19.43-1.14-7.33-4.56-14.09-9.9-19.43-5.33-5.34-12.09-8.76-19.42-9.9,7.33-1.14,14.08-4.56,19.42-9.9,5.35-5.35,8.77-12.11,9.9-19.44m0-5.48c0,9.61-3.9,18.31-10.2,24.62-6.29,6.3-15,10.2-24.62,10.2,9.62,0,18.32,3.9,24.62,10.2,6.3,6.3,10.2,15.01,10.2,24.63,0-9.62,3.9-18.32,10.2-24.63,6.3-6.3,15.01-10.2,24.63-10.2-19.24,0-34.83-15.59-34.83-34.82h0Z"/></g><g><path class="h" d="M325.14,133.13c-.4-1.96-1.37-3.76-2.81-5.2-1.44-1.45-3.24-2.41-5.2-2.81,1.96-.4,3.76-1.37,5.2-2.81,1.45-1.45,2.41-3.25,2.81-5.21,.83,4.02,4,7.19,8.02,8.02-1.96,.4-3.76,1.37-5.21,2.81-1.45,1.45-2.41,3.25-2.81,5.2Z"/><path class="g" d="M325.15,117.97c1.01,3.43,3.72,6.14,7.14,7.14-1.68,.49-3.21,1.4-4.48,2.66-1.27,1.27-2.17,2.8-2.66,4.48-.49-1.67-1.4-3.21-2.66-4.48-1.27-1.27-2.8-2.17-4.47-2.66,1.67-.49,3.21-1.4,4.47-2.66,1.27-1.27,2.18-2.81,2.67-4.48m0-2.97c0,2.79-1.13,5.32-2.96,7.15-1.83,1.83-4.36,2.96-7.15,2.96,2.79,0,5.32,1.13,7.15,2.96,1.83,1.83,2.96,4.36,2.96,7.15,0-2.79,1.13-5.32,2.96-7.15,1.83-1.83,4.36-2.96,7.15-2.96-5.59,0-10.11-4.53-10.11-10.11h0Z"/></g><g><path class="h" d="M309.1,109.58c-.2-.6-.54-1.16-1-1.62-.46-.46-1.01-.8-1.62-1,.6-.2,1.15-.54,1.62-1,.46-.46,.8-1.02,1-1.62,.41,1.23,1.39,2.21,2.62,2.62-.6,.2-1.16,.54-1.62,1-.46,.46-.8,1.01-1,1.62Z"/><path class="g" d="M309.11,104.9c.43,.9,1.16,1.63,2.06,2.06-.44,.21-.85,.5-1.21,.85-.36,.36-.64,.76-.85,1.2-.21-.44-.5-.85-.85-1.2-.36-.36-.76-.64-1.2-.85,.44-.21,.85-.5,1.2-.85,.36-.36,.64-.76,.85-1.21m0-1.88c0,1.09-.44,2.07-1.15,2.78-.71,.71-1.69,1.15-2.78,1.15,1.09,0,2.07,.44,2.78,1.15,.71,.71,1.15,1.7,1.15,2.78,0-1.09,.44-2.07,1.15-2.78,.71-.71,1.7-1.15,2.78-1.15-2.17,0-3.94-1.76-3.94-3.93h0Z"/></g></g><g><g><g><path class="g" d="M105.14,243.13c-5.17,0-10.04-2.28-13.35-6.26l-17.68-21.24,4.9-27.42,13.6-36.86,46.5,8.6,27.56,33.76,3.85,11.1c1.55,4.48,1.22,9.28-.91,13.51-2.14,4.23-5.81,7.34-10.33,8.75l-48.95,15.27c-1.68,.52-3.42,.79-5.17,.79h0Z"/><path class="h" d="M92.74,151.59l46.25,8.56,27.51,33.7,3.81,11.03c3.16,9.15-1.87,19.1-11.11,21.99l-48.95,15.27c-1.68,.52-3.4,.78-5.11,.78-5.01,0-9.87-2.2-13.19-6.18l-17.62-21.16,4.88-27.33,13.52-36.66m-.27-.48l-.12,.33-13.52,36.66v.04l-.02,.04-4.88,27.33-.03,.19,.13,.15,17.62,21.16c3.35,4.02,8.28,6.33,13.51,6.33,1.77,0,3.54-.27,5.23-.8l48.95-15.27c4.58-1.43,8.29-4.57,10.46-8.86,2.16-4.28,2.49-9.14,.92-13.67l-3.81-11.03-.02-.07-.05-.06-27.51-33.7-.1-.12-.15-.03-46.25-8.56-.35-.06h0Z"/></g><g><path class="g" d="M90.27,206.59c-4.52,0-8.54-2.87-10.02-7.14l-28.16-81.48c-1.91-5.53,1.03-11.58,6.56-13.49,1.12-.39,2.29-.58,3.46-.58,4.52,0,8.54,2.87,10.02,7.14l28.16,81.48c.93,2.68,.75,5.55-.49,8.1-1.24,2.55-3.39,4.46-6.07,5.38-1.12,.39-2.29,.58-3.46,.58Z"/><path class="h" d="M62.1,104.11c4.31,0,8.34,2.7,9.82,7l28.16,81.48c1.87,5.42-1,11.34-6.43,13.22h0c-1.12,.39-2.27,.57-3.4,.57-4.31,0-8.33-2.7-9.82-7l-28.16-81.48c-1.88-5.42,1-11.34,6.43-13.22,1.12-.39,2.27-.57,3.4-.57m0-.42c-1.2,0-2.39,.2-3.53,.6-2.73,.94-4.93,2.89-6.19,5.49-1.26,2.6-1.44,5.53-.5,8.26l28.16,81.48c1.51,4.36,5.61,7.28,10.22,7.28,1.2,0,2.39-.2,3.53-.6,5.64-1.95,8.64-8.12,6.69-13.75l-28.16-81.48c-1.51-4.36-5.61-7.28-10.22-7.28h0Z"/></g><g><path class="g" d="M104.38,183.8c-4.52,0-8.54-2.87-10.02-7.14l-28.16-81.48c-1.91-5.53,1.03-11.58,6.56-13.49,1.12-.39,2.29-.58,3.46-.58,4.52,0,8.54,2.87,10.02,7.14l28.16,81.48c1.91,5.53-1.03,11.58-6.56,13.49-1.12,.39-2.29,.58-3.46,.58Z"/><path class="h" d="M76.21,81.31c4.31,0,8.33,2.7,9.82,7l28.16,81.48c1.88,5.42-1,11.34-6.43,13.22-1.12,.39-2.27,.57-3.4,.57-4.31,0-8.33-2.7-9.82-7l-28.16-81.48c-1.88-5.42,1-11.34,6.43-13.22,1.12-.39,2.27-.57,3.4-.57m0-.42c-1.2,0-2.39,.2-3.53,.6-2.73,.94-4.93,2.89-6.19,5.49-1.26,2.6-1.44,5.53-.5,8.26l28.16,81.48c1.51,4.36,5.61,7.28,10.22,7.28,1.2,0,2.39-.2,3.53-.6,2.73-.94,4.93-2.89,6.19-5.49,1.26-2.6,1.44-5.53,.5-8.26l-28.16-81.48c-1.51-4.36-5.61-7.28-10.22-7.28h0Z"/></g><g><path class="g" d="M127.89,188.22c-4.52,0-8.54-2.87-10.02-7.14l-28.16-81.48c-1.91-5.53,1.03-11.58,6.56-13.49,1.12-.39,2.29-.58,3.46-.58,4.52,0,8.54,2.87,10.02,7.14l28.16,81.48c1.91,5.53-1.03,11.58-6.56,13.49-1.12,.39-2.29,.58-3.46,.58Z"/><path class="h" d="M99.73,85.73c4.31,0,8.33,2.7,9.82,7l28.16,81.48c1.87,5.42-1,11.34-6.43,13.22h0c-1.12,.39-2.27,.57-3.4,.57-4.31,0-8.33-2.7-9.82-7l-28.16-81.48c-1.88-5.42,1-11.34,6.43-13.22,1.12-.39,2.27-.57,3.4-.57m0-.42h0c-1.2,0-2.39,.2-3.53,.6-2.73,.94-4.93,2.89-6.19,5.49-1.26,2.6-1.44,5.53-.5,8.26l28.16,81.48c1.51,4.36,5.61,7.28,10.22,7.28,1.2,0,2.39-.2,3.53-.6,5.64-1.95,8.64-8.12,6.69-13.75l-28.16-81.48c-1.51-4.36-5.61-7.28-10.22-7.28h0Z"/></g><g><path class="g" d="M156.67,207.85c-4.52,0-8.54-2.87-10.02-7.14l-28.16-81.48c-1.91-5.53,1.03-11.58,6.56-13.49,1.12-.39,2.29-.58,3.46-.58,4.52,0,8.55,2.87,10.02,7.14l28.16,81.48c.93,2.68,.75,5.55-.49,8.1-1.24,2.55-3.4,4.46-6.07,5.38-1.12,.39-2.29,.58-3.46,.58Z"/><path class="h" d="M128.51,105.37c4.31,0,8.33,2.7,9.82,7l28.16,81.48c1.87,5.42-1,11.34-6.43,13.22-1.12,.39-2.27,.57-3.4,.57-4.31,0-8.33-2.7-9.82-7l-28.16-81.48c-1.88-5.42,1-11.34,6.43-13.22,1.12-.39,2.27-.57,3.4-.57m0-.42c-1.2,0-2.39,.2-3.53,.6-2.73,.94-4.93,2.89-6.19,5.49-1.26,2.6-1.44,5.53-.5,8.26l28.16,81.48c1.51,4.36,5.61,7.28,10.22,7.28,1.2,0,2.39-.2,3.53-.6,5.64-1.95,8.64-8.12,6.69-13.75l-28.16-81.48c-1.51-4.36-5.61-7.28-10.22-7.28h0Z"/></g><g><path class="g" d="M89.32,226.45c-3.55,0-6.94-1.52-9.3-4.17l-33.52-37.63c-2.21-2.48-3.32-5.68-3.13-9s1.66-6.37,4.15-8.58c2.28-2.03,5.22-3.15,8.28-3.15,3.55,0,6.94,1.52,9.3,4.17l33.52,37.63c2.21,2.48,3.32,5.68,3.13,9s-1.66,6.37-4.15,8.58c-2.28,2.03-5.22,3.15-8.28,3.15Z"/><path class="h" d="M55.79,164.13c3.37,0,6.72,1.38,9.14,4.1l33.52,37.63c4.5,5.05,4.05,12.78-1,17.28-2.33,2.08-5.24,3.1-8.14,3.1-3.37,0-6.72-1.38-9.14-4.1l-33.52-37.63c-4.5-5.05-4.05-12.78,1-17.28,2.33-2.08,5.24-3.1,8.14-3.1m0-.42h0c-3.11,0-6.1,1.14-8.42,3.21-5.21,4.64-5.68,12.66-1.03,17.88l33.52,37.63c2.4,2.69,5.85,4.24,9.46,4.24,3.11,0,6.1-1.14,8.42-3.21,5.21-4.64,5.68-12.66,1.03-17.88l-33.52-37.63c-2.4-2.69-5.85-4.24-9.46-4.24h0Z"/></g><path class="g" d="M74.33,215.58l17.62,21.16c4.44,5.34,11.67,7.47,18.3,5.4l48.95-15.27c9.24-2.88,14.27-12.84,11.11-21.99l-3.81-11.03-27.51-33.7-46.25-8.56-10.42,35.38-7.98,28.6Z"/><rect class="g" x="88.33" y="152.57" width="53.18" height="40.78" transform="translate(-50.2 47.03) rotate(-19.07)"/><line class="e" x1="84.4" y1="161.93" x2="132.92" y2="145.17"/><path class="d" d="M82.31,186.98l.88-.31c17.86-6.17,37.34,3.3,43.52,21.16h0"/></g><path class="i" d="M134.3,241.09s-104.75,25.44-41.29-.43c61.1-24.91,69-57.02,41.83-71.85-27.17-14.83-69.27,15.62-50.41-.47,18.86-16.1,37.3-18.61,36.75-19.13s-52.7,18.22-52.7,18.22l-46.56-19.26-.78,104.02s25.06,35.32,25.66,34.41,67.7-16.58,67.7-16.58l19.78-28.93Z"/></g></g></g></svg>