<?xml version="1.0" encoding="UTF-8"?><svg xmlns="http://www.w3.org/2000/svg" xmlns:xlink="http://www.w3.org/1999/xlink" viewBox="0 0 492.84 298.63"><defs><style>.e,.f{fill:none;}.g{fill:#231f20;}.g,.f{font-family:Helvetica-Bold, Helvetica;font-size:19.53px;}.h{letter-spacing:-.02em;}.i{letter-spacing:0em;}.j{letter-spacing:-.02em;}.k{fill:#eddfd6;}.l{letter-spacing:0em;}.m{opacity:.19;}.m,.n{fill:#1d1d1b;}.f{stroke:#231f20;stroke-width:.25px;}.n{stroke:#eddfd6;stroke-miterlimit:10;stroke-width:.42px;}.o{clip-path:url(#d);}</style><clipPath id="d"><rect class="e" width="492.84" height="298.63"/></clipPath></defs><g id="a"/><g id="b"><g id="c"><g class="o"><rect class="n" width="492.84" height="298.63"/></g><g><path class="k" d="M276.48,42.57c-2.5,0-4.53,2.03-4.53,4.53v47.3c0,6.58-3.78,10.36-10.36,10.36l-28.14,3.53c-2.03,.25-4.09,.14-6.08-.33l-14.71-3.51c-.31-.07-.63-.11-.95-.12-5.79-.12-10.98-2.52-10.98-8.34l-.2-27.22c-.02-2.34,.08-4.67,.29-7l1.31-14.27c.24-2.66-1.85-4.95-4.52-4.95h-19.14c-2.45,0-4.46,1.94-4.53,4.39l-1.72,54.73-1.04,50.83c.09,2.61-.1,5.23-.57,7.8l-3.19,17.5c-2.96,16.23-3.39,32.82-1.29,49.18l2.9,22.59c.29,2.26,2.22,3.96,4.5,3.96h128.49c2.67,0,4.76-2.29,4.52-4.94l-3.78-41.87c-.71-7.9-.54-15.86,.51-23.72l4.48-33.53c1.06-7.92-6.11-15.91-6.31-23.9l-1.95-78.59c-.06-2.46-2.07-4.42-4.53-4.42h-18.48Z"/><text class="g" transform="translate(182.64 154.31)"><tspan x="0" y="0">THANK</tspan><tspan class="h" x="68.34" y="0"> </tspan><tspan class="i" x="73.42" y="0">YOU</tspan></text><text class="f" transform="translate(179.59 171.87)"><tspan x="0" y="0">THANK</tspan><tspan class="h" x="68.34" y="0"> </tspan><tspan class="i" x="73.42" y="0">YOU</tspan></text><text class="g" transform="translate(177.05 189.43)"><tspan x="0" y="0">THANK</tspan><tspan class="j" x="68.34" y="0"> </tspan><tspan class="l" x="73.42" y="0">YOU</tspan></text><text class="f" transform="translate(174.92 206.99)"><tspan x="0" y="0">THANK</tspan><tspan class="h" x="68.34" y="0"> </tspan><tspan class="i" x="73.42" y="0">YOU</tspan></text><text class="g" transform="translate(177.05 224.55)"><tspan x="0" y="0">THANK</tspan><tspan class="j" x="68.34" y="0"> </tspan><tspan class="l" x="73.42" y="0">YOU</tspan></text></g><path class="m" d="M244.44,253.54s149.02-14.57,60.61-49.27c-84-32.97-117.74-28.21-92.55-60.25,25.19-32.05,93.38-44.54,62.2-54.23-31.18-9.69-45.84-31.54-45.99-32.52-2.85-19.5,87.41-21.92,87.41-21.92l33.96,69.32,1.51,66.26s-3.11,70,5.99,71.99c47.92,10.48-63.72,10.48-63.72,10.48l-49.42,.16Z"/><path class="m" d="M157.75,110.04s-89.34,28.31-.94,63.01c84,32.97,117.74,28.21,92.55,60.25-25.19,32.05-93.38,44.54-62.2,54.23,31.18,9.69,54.78-14.39,54.92-13.4,2.85,19.5-98.32,8.02-98.32,8.02l-32-9.49-1.51-66.26s3.11-70-5.99-71.99c-47.92-10.48,63.72-10.48,63.72-10.48l-10.25-13.89Z"/><path class="m" d="M154.49,219.24s39.58,18.17,52.16,14.05,1.49,8.53-21.44,3.33-31.19-12.1-31.19-12.1"/><path class="m" d="M348.85,150.17s-73.59,9.09-96.98,7.03c-23.39-2.06-2.78,4.27,39.86,1.66s57.98-6.05,57.98-6.05"/><path class="m" d="M165.76,221.98s25.85,9.87,33.63,2.71c7.78-7.16-33.41,2.63-36.91-9.38"/></g></g></svg>