<?xml version="1.0" encoding="UTF-8"?><svg xmlns="http://www.w3.org/2000/svg" xmlns:xlink="http://www.w3.org/1999/xlink" viewBox="0 0 492.84 298.63"><defs><style>.e,.f,.g,.h{fill:none;}.f,.g,.h,.i,.j{stroke-miterlimit:10;}.f,.g,.i,.j{stroke-width:.42px;}.f,.j{stroke:#eddfd6;}.g,.h,.i{stroke:#1d1d1b;}.h{stroke-width:.42px;}.k,.i{fill:#eddfd6;}.l,.m,.j{fill:#1d1d1b;}.m{opacity:.19;}.n{clip-path:url(#d);}</style><clipPath id="d"><rect class="e" width="492.84" height="298.63"/></clipPath></defs><g id="a"/><g id="b"><g id="c"><g class="n"><rect class="j" width="492.84" height="298.63"/></g><rect class="i" x="206.12" y="52.46" width="122.56" height="193.7" transform="translate(534.81 298.63) rotate(-180)"/><rect class="i" x="209.8" y="56.38" width="115.74" height="189.79" transform="translate(535.34 302.55) rotate(-180)"/><ellipse class="j" cx="236.29" cy="160.03" rx="2.59" ry="3.83"/><polygon class="l" points="315.49 67.73 241.1 81.32 241.1 246.17 219.85 246.17 219.85 67.73 315.49 67.73"/><polygon class="l" points="315.49 246.17 226.14 227.24 226.14 246.17 315.49 246.17"/><circle class="h" cx="249.03" cy="157.87" r="4.23"/><g><path class="f" d="M230.34,157.87c0,33.34,27.03,60.37,60.37,60.37h4.64c33.19,0,60.12-26.78,60.37-59.91"/><polygon class="k" points="357.4 159.78 357.08 160.06 355.7 158.49 354.24 159.99 353.94 159.69 355.72 157.87 357.4 159.78"/></g><g><path class="f" d="M104.97,153.64c0,33.34,27.03,60.37,60.37,60.37h4.64c33.19,0,60.12-26.78,60.37-59.91"/><polygon class="k" points="232.03 155.54 231.71 155.82 230.33 154.26 228.87 155.75 228.57 155.46 230.34 153.64 232.03 155.54"/></g><path class="g" d="M241.09,192.25c10.89,15.7,29.06,25.99,49.61,25.99h4.64c12.32,0,23.8-3.7,33.36-10.05"/><path class="g" d="M219.87,187.62c-3.75,5.52-8.41,10.39-13.75,14.38"/><path class="m" d="M211.28,237.36s155.13-32.33,69.02-54c-70.2-17.66-74.46-36.74-71.76-53.84,6.25-39.62,87.85-51.43,56.48-58.34-31.38-6.91-55.24-14.27-54.93-15.21s77.13,1.44,77.13,1.44l78.26,12.33,78.19,130.27s-138.86,64.95-140.1,64.27-5.98-36.69-5.98-36.69l-86.31,9.77Z"/></g></g></svg>