<svg version="1.2" xmlns="http://www.w3.org/2000/svg" viewBox="0 0 1300 800" width="1300" height="800"><style>.a{fill:#222}.b{fill:#eddfd6}.c{opacity:1;fill:#222}</style><path class="a" d="m-129-18h1517v835h-1517z"/><path class="b" d="m444.2 206c5.3-0.1 12.2 3 22.2 10 8 5.5 16.2 10.6 18.1 11.4 1.9 0.8 10.3 0 18.7-1.6 9.5-1.9 17.8-2.3 22.2-1.1 3.8 1.1 9.2 4.4 12 7.4 2.8 2.9 8.2 12.1 12.1 20.5 5.3 11.3 9 16.1 14.8 19.1 4.3 2.1 13.8 6.6 21.2 9.9 8.4 3.8 15.3 8.8 18.5 13.6 4.7 7 4.9 9.4 2 54.3l11.9 14c6.5 7.7 13.3 16.9 15.1 20.4 1.8 3.5 3.2 9.6 3.2 13.4 0 3.9-1.1 9.9-2.5 13.4-1.4 3.6-8.2 13-27.8 35.6l3 50.2-6.8 8c-4.1 5-14.1 11.4-45.2 25.9l-8.8 18.1c-6.2 12.7-11.1 19.7-16.9 23.5-6.3 4.2-10 5.1-16.3 4-4.5-0.8-13.5-2.1-19.9-2.8-10.9-1.3-12.5-0.8-23.3 7.5-6.5 4.8-15.1 10.2-19.3 11.9-5.5 2.3-9.6 2.5-15.2 0.8-4.1-1.2-13.3-6.6-20.4-11.9-12.5-9.4-13.1-9.6-25.7-7.9-7 1-16.7 1.9-21.4 2.1-5.2 0.1-11.1-1.6-15.2-4.6-3.7-2.7-10.4-12.6-24.1-40.7l-19.2-9c-11.9-5.5-21.9-11.9-32.8-24.9l3-50.2-11.6-13.4c-6.4-7.4-13.3-16.8-15.2-21-1.9-4.2-3.6-11-3.6-15.2 0-4.4 2.5-11.4 6.2-16.9 3.4-5.1 10.3-14 24.4-30.3l-1.4-23.4c-1.3-20.4-0.9-24.2 3-30.3 2.4-3.9 9-9.4 14.7-12.2 5.7-2.9 15.4-7.3 21.5-9.9 10.1-4.3 11.7-6.3 19-21.7 4.3-9.3 9.8-18.7 12.2-20.8 2.4-2.2 7.2-5.1 10.8-6.5 4.7-1.8 10.4-1.6 22.1 0.8 8.8 1.9 17.9 2.5 20.5 1.5 2.5-1 7.8-4.4 11.6-7.6 3.9-3.2 10.2-7.5 14-9.6 3.9-2 10.5-3.7 14.6-3.8z"/><path class="c" d="m443.4 215.2c2.7-0.1 10.2 3.6 16.6 8.2 6.4 4.5 15.3 9.9 19.8 11.9 6.7 2.9 10.3 3.1 19.3 1.1 6.1-1.4 14.5-2.5 18.7-2.5 4.9-0.1 9.3 1.8 12.6 5.2 2.7 2.9 7.4 11 10.5 17.9 3 7 8.6 15.4 12.5 18.8 3.8 3.4 12.7 8.2 19.6 10.7 6.9 2.5 15.9 7.6 27.1 18l-4 47.3 11.5 14c6.3 7.7 13.4 17.2 15.8 21 3.1 5.2 3.9 9.2 2.7 15.2-0.9 4.5-6.1 13.3-11.6 19.8-5.6 6.5-11.8 14.3-14 17.5-3.4 5-3.8 9.6-1.1 54.9l-6.7 6.2c-3.6 3.5-12.2 8.5-18.9 11.1-6.7 2.7-15 6.7-18.3 9-3.3 2.2-9.7 11.4-14.2 20.4-4.5 9-9.9 18.2-12 20.5-2.6 2.7-7.2 4.1-13.3 4-5.1-0.1-13.8-1.1-19.2-2.4-5.9-1.4-12.1-1.4-15.2-0.2-2.9 1.1-11 6.4-18.1 11.7-8.3 6.2-15.3 9.6-19.8 9.7-4.5 0-11.2-3.1-18.7-8.7-6.4-4.7-15.1-10-19.3-11.7-5.6-2.3-9.9-2.5-16.3-0.8-4.8 1.3-13 2.4-18.1 2.4-6.8 0.1-10.7-1.3-14.3-5.2-2.7-2.9-6.9-10.5-9.3-16.7-2.4-6.3-7.6-14.7-11.5-18.7-3.9-4-13.3-9.6-21-12.5-7.7-2.9-17.1-8.4-27.9-19.5l1.7-23.2c1.2-16.2 0.9-24.9-0.9-28.5-1.5-2.9-7.2-10.5-12.6-16.9-5.4-6.5-11.1-14.3-12.7-17.5-1.6-3.2-2.3-9-1.6-12.9 0.8-3.8 6.8-13.3 13.4-21 6.7-7.7 13.1-16.1 14.4-18.7 1.4-2.9 1.5-12.9-1.7-49.7l7-6.2c3.8-3.5 14.8-9.6 42-21.1l8.8-17.5c4.8-9.6 10.6-19.4 12.8-21.7 2.5-2.5 7.4-4.1 12.8-4.1 4.8 0.1 13.2 1.3 18.7 2.7 8 2 11.5 1.8 18.1-1.2 4.5-2 13.3-7.3 19.5-11.8 6.3-4.6 13.7-8.3 16.4-8.3z"/><path class="b" d="m442.5 252.7c10.9-0.1 26.1 1.5 33.8 3.4 7.7 2 21.9 7.4 31.5 12.2 11.5 5.6 23.2 14 33.9 24.2 9 8.6 20.3 22.3 25.2 30.4 4.8 8.2 11.5 23.3 14.8 33.6 4.6 14.3 6.1 23.8 6.2 40.8 0.2 12.2-1.1 28-2.8 35-1.7 7.1-7.3 21.8-12.5 32.7-7.5 15.6-13.3 23.7-27.2 37.5-13.5 13.5-22.4 20-37.6 27.5-10.9 5.4-27.1 11.3-36.1 13.2-9 1.9-21.4 3.5-27.5 3.5-6.1 0-19.2-1.7-29.1-3.7-10-2-24.4-6.9-32.1-10.7-7.7-3.8-18.8-10.4-24.5-14.7-5.8-4.2-14.5-12-19.3-17.3-4.8-5.3-13-16.2-18.2-24.2-5.2-8-12.1-23-15.3-33.3-4.6-14.6-5.9-23.6-5.9-42 0-12.8 1.2-28.6 2.7-35 1.5-6.4 7-20.6 12.2-31.5 7.6-16 13-23.5 28.3-38.7 14.2-14.2 23.4-21.1 36.5-27.4 9.6-4.7 23.2-10.1 30.3-11.9 7.1-1.9 21.8-3.5 32.7-3.6z"/><path class="c" d="m448.3 262.9c14.5 0.5 28.2 2.5 36.2 5.2 7.1 2.4 19.1 8 26.7 12.5 7.6 4.5 19.7 14.1 26.8 21.3 7.2 7.2 16.4 18.8 20.6 25.7 4.1 6.9 9.8 18.8 12.6 26.5 3.5 9.7 5.4 21.6 6.1 38.6 0.9 18.3 0.2 28.3-2.8 39.6-2.1 8.4-7.3 22-11.4 30.4-4.9 10-13.3 21.1-24.9 32.9-13.2 13.3-21.8 19.7-35 26-9.6 4.5-23.3 9.7-30.4 11.3-7 1.7-21.2 3.1-31.5 3-10.6 0-24.7-1.8-32.7-4.1-7.7-2.3-20.8-7.9-29.1-12.5-8.4-4.6-22-15.3-30.4-23.7-9-9.2-18.6-22-23.7-31.7-4.7-9-10.4-22.7-12.6-30.4-2.5-9-3.9-21.3-3.7-34.4 0.2-11.3 1.5-25.4 3-31.5 1.5-6.1 5.5-17.4 9-25.1 3.5-7.7 10.4-19.4 15.4-26.1 5-6.6 13.8-16.2 19.6-21.3 5.8-5.1 17.3-13 25.7-17.6 8.3-4.6 21.5-10 29.2-11.9 9.4-2.4 21.5-3.3 37.3-2.7z"/><path class="b" d="m449.5 277.1c9.6 0.5 23.3 2.9 30.3 5.2 7.1 2.3 17.6 7 23.4 10.4 5.8 3.4 16.8 12.4 24.5 20.1 8 8 17.2 20.3 21.5 28.8 4.2 8.2 9.2 21.2 11.1 28.9 2 7.7 3.6 20.8 3.6 29.2 0 8.3-1.6 21.4-3.6 29.1-2 7.7-6.3 19.8-9.7 26.9-3.7 7.6-12.9 19.6-22.7 29.4-9.1 9.1-21.8 19.3-28.2 22.5-6.4 3.3-17.5 7.6-24.5 9.7-7.1 2.1-21.2 3.8-31.5 3.8-12 0-24.2-1.6-33.9-4.6-8.3-2.5-21.5-8.6-29.2-13.6-7.7-4.9-19.2-14.9-25.7-22-6.4-7.2-14.4-18.7-17.9-25.5-3.4-6.9-7.9-19.4-9.9-27.7-2-8.4-3.6-21.2-3.6-28.6 0-7.4 1.1-19 2.5-25.7 1.4-6.7 6.4-20.1 11.1-29.7 5.6-11.5 13.3-22.2 22.6-31.5 7.8-7.7 20.4-17.4 28.1-21.3 7.6-4 18.6-8.5 24.3-9.9 5.8-1.4 12.6-3.1 15.2-3.7 2.6-0.6 12.6-0.7 22.2-0.2z"/><path class="c" d="m506.7 321.9c2.5 0.6 6 2.9 7.6 5 1.6 2.2 2.9 5.5 2.9 7.4 0 1.9-7.5 22.9-16.7 46.7-9.1 23.7-22.8 58.4-30.3 77-7.6 18.6-15.6 35.2-17.8 36.8-2.2 1.6-6.7 3-9.9 3-3.2 0-7.6-1.4-9.7-3-2.2-1.6-12.5-23.9-23-49.6-16.1-39.5-18.7-47.5-16.5-52 1.4-2.9 5.1-6.5 8.4-8.1 5-2.5 6.7-2.3 11.9 1.7 3.8 3 9.8 13.9 16.5 30.4 5.8 14.1 11 26.2 11.6 26.8 0.6 0.7 2-0.4 3.1-2.3 1.2-2 12.4-29.2 25-60.5 16.8-41.9 24.1-57.4 27.5-58.8 2.6-1 6.8-1.2 9.4-0.5z"/><path class="b" d="m875.5 225.4c28.2 0.7 35.1 1.7 50.2 7 9.6 3.4 24.9 10.6 33.8 15.9 9.1 5.4 24.7 18.1 35.1 28.6 10.4 10.4 22.6 25.2 27.3 32.9 4.6 7.7 10.8 19.8 13.6 26.8 2.8 7.1 6.6 18.1 8.4 24.5 1.8 6.5 3.9 22.2 4.6 35.1 1.1 18.8 0.4 27.6-3.5 45.5-2.7 12.2-8.7 30-13.3 39.7-4.6 9.6-12.8 23.8-18.3 31.5-5.5 7.7-15.2 18.7-21.5 24.5-6.4 5.8-17.9 14.6-25.5 19.7-7.6 5-21.2 12.2-30.2 15.8-9 3.6-24 8.2-33.3 10.1-9.3 1.9-24.2 3.4-33.2 3.4-9 0-24.5-1.6-34.5-3.6-11.1-2.2-27-7.9-41.4-14.9-17.7-8.6-27.8-15.5-41.8-28.5-10.2-9.5-23.4-24.5-29.3-33.5-5.9-9-13.5-23.2-16.9-31.5-3.3-8.4-7.9-24.1-10.1-35.1-3-14.7-3.7-25.9-2.7-43.1 0.7-12.9 2.9-29.7 5-37.4 2-7.7 8.3-23.5 14-35 5.7-11.6 15.4-27.1 21.6-34.6 6.1-7.4 17.5-18.7 25.2-25.1 7.7-6.4 21.9-15.7 31.5-20.8 9.6-5 25.4-11.3 35-13.9 14.7-4 22.8-4.7 50.2-4z"/><path class="c" d="m868.5 261c2.6 0.7 6.6 3.6 8.9 6.4 2.7 3.3 4.1 8.7 3.9 26l16.9 4.1c9 3.6 18 7.6 22 11.7 3.1 3.1 5.5 6.7 5.5 9.9 0 3.3 0.1 10.3-3.8 14.3-3.7 3.8-11.2 5.6-12.9 5.6-1.8 0-7.9-1.6-13.7-3.5-5.7-2-11.2-3.6-12.2-3.6-1 0-1.8 11.1-1.8 49.1l12.3 2.6c6.7 1.5 17 5 22.8 7.9 5.7 2.8 14.1 9.3 18.6 14.5 4.6 5.2 10.2 15.4 12.6 23.1 3 9.2 4.1 17.6 3.3 25.4-0.7 6.4-4 16.9-7.4 23.4-3.4 6.4-10.1 14.8-14.9 18.6-4.8 3.8-14.5 9.3-21.6 12.2-7 2.9-15.7 5.3-19.2 5.3-6.3 0-6.5 0.4-6.4 13.5 0.1 9.4-1.1 15.1-4 18.9-2.8 3.7-6.8 5.7-11.6 5.9-4.4 0.1-9.3-1.6-12.3-4.4-4-3.8-5-7.3-4.8-32.7l-11.1-2.6c-6.1-1.4-17.4-5.6-25.1-9.3-9.4-4.5-15-8.9-16.9-13.2-2.4-5.2-2.4-7.9 0.1-14 2-4.9 5.3-8.2 9.4-9.3 4.4-1.3 10.7-0.1 21.4 4.1 8.3 3.2 16.7 5.8 18.7 5.8 2.9 0 3.5-5.1 3.5-63l-11.1-2.6c-6.1-1.4-14.8-4.4-19.3-6.8-4.5-2.3-10.9-7.2-14.3-10.8-3.4-3.7-8-10.4-10.2-14.9-2.2-4.4-4.6-13.4-5.3-19.8-0.6-6.6 0.1-15.7 1.9-21 1.6-5.1 5.7-13.4 9-18.3 3.4-5 10.8-12.1 16.6-15.8 5.8-3.7 15-7.3 20.4-7.9 9.7-1.2 9.9-1.4 10-9.9 0-4.9 1.6-11.4 3.6-14.6 2-3.2 5.9-7.1 8.7-8.7 2.8-1.6 7.2-2.3 9.8-1.6z"/><path class="b" d="m884.2 418.4c1.6 0 7.4 2.1 12.9 4.7 6 2.7 11.3 7.4 13.4 11.6 1.9 3.8 3.5 10.1 3.5 14 0 3.8-1.3 9.7-2.9 13-1.6 3.4-6.1 8-9.9 10.3-3.9 2.4-9.6 4.6-18.7 5.9l-0.6-29.8c-0.5-23 0-29.8 2.3-29.7zm-38.5-88.8c2.2 0 3 6.2 3 23.4 0 19.2-0.7 23.3-3.5 23.3-2 0-6.7-1.6-10.5-3.5-3.9-1.9-8.1-5.6-9.4-8.2-1.3-2.5-2.3-7.3-2.3-10.5 0-3.2 1-7.9 2.3-10.5 1.3-2.5 5.8-6.7 9.9-9.3 4.2-2.6 8.9-4.7 10.5-4.7z"/></svg>