<?xml version="1.0" encoding="UTF-8"?><svg xmlns="http://www.w3.org/2000/svg" xmlns:xlink="http://www.w3.org/1999/xlink" viewBox="0 0 492.84 298.63"><defs><style>.e,.f{fill:none;}.g{fill:#eddfd6;}.h,.i,.j{fill:#1d1d1b;}.i{opacity:.19;}.j{stroke-width:.42px;}.j,.f{stroke:#eddfd6;stroke-miterlimit:10;}.k{clip-path:url(#d);}.f{stroke-width:18px;}</style><clipPath id="d"><rect class="e" width="492.84" height="298.63"/></clipPath></defs><g id="a"/><g id="b"><g id="c"><g class="k"><rect class="j" width="492.84" height="298.63"/></g><g><circle class="f" cx="224.27" cy="154.15" r="99.24"/><rect class="h" x="288.2" y="95.3" width="102.3" height="117.34"/><polygon class="g" points="314.29 115.86 267.61 100.34 327.29 74.73 314.29 115.86"/><rect class="h" x="269.7" y="202.08" width="18.83" height="67.68" transform="translate(-72.11 336.94) rotate(-56.25)"/><rect class="h" x="229.77" y="208.25" width="18.83" height="67.68" transform="translate(-96.73 187.5) rotate(-36.12)"/></g><path class="i" d="M151.93,2.53S-37.1,34.9,76.94,65.78c114.05,30.88,155.12,32.64,123.32,75.49-31.8,42.86-120.59,61.69-79.43,73.24,41.16,11.55,71.59,23.06,71.82,24.35,4.45,25.41-105.1,19.25-105.1,19.25L21.62,197.79l63.27-97.79S45.33,47.55,34.07,42.86C-27.66,17.14,89.37,4.27,89.37,4.27l62.56-1.74Z"/></g></g></svg>