<svg width="147" height="24" viewBox="0 0 147 24" fill="none" xmlns="http://www.w3.org/2000/svg">
<path d="M35.2124 17.7087C31.7393 17.7087 29.1836 15.0967 29.1836 11.5916C29.1836 8.12013 31.7557 5.47444 35.2287 5.47444C38.7018 5.47444 41.2739 8.15384 41.2739 11.5916C41.2739 15.063 38.6855 17.7087 35.2124 17.7087ZM35.2287 15.5685C37.424 15.5685 38.9967 13.8834 38.9967 11.5916C38.9967 9.33345 37.424 7.61459 35.2287 7.61459C33.0171 7.61459 31.4444 9.33345 31.4444 11.5916C31.4444 13.8834 33.0171 15.5685 35.2287 15.5685ZM43.5996 21.3654V8.62568H45.6966V9.75473H45.8113C46.0406 9.384 46.827 8.40661 48.3997 8.40661C50.8079 8.40661 52.4626 10.2603 52.4626 13.0239C52.4626 15.7876 50.8243 17.7087 48.4652 17.7087C46.9417 17.7087 46.1225 16.8324 45.844 16.3437H45.7293V21.3654H43.5996ZM47.9901 15.7202C49.3663 15.7202 50.3001 14.6248 50.3001 13.0576C50.3001 11.4399 49.3663 10.3951 47.9738 10.3951C46.5649 10.3951 45.6802 11.5578 45.6802 13.0576C45.6802 14.7091 46.6631 15.7202 47.9901 15.7202ZM58.5563 17.7087C56.017 17.7087 54.2149 15.7539 54.2149 13.1082C54.2149 10.3108 56.0333 8.40661 58.5563 8.40661C61.3249 8.40661 62.8321 10.5131 62.8321 13.0071V13.698H56.2791C56.3446 15.0461 57.2457 15.9561 58.6218 15.9561C59.6703 15.9561 60.473 15.4506 60.7679 14.7259H62.7502C62.3242 16.529 60.7843 17.7087 58.5563 17.7087ZM56.3119 12.1477H60.8007C60.7024 10.9512 59.8013 10.1592 58.5563 10.1592C57.3603 10.1592 56.4429 11.0354 56.3119 12.1477ZM65.125 17.4896V8.62568H67.1565V9.70418H67.2712C67.6152 9.04697 68.4671 8.40661 69.6958 8.40661C71.6289 8.40661 72.8085 9.80529 72.8085 11.6927V17.4896H70.6787V12.2656C70.6787 11.1871 70.007 10.4625 69.0241 10.4625C67.992 10.4625 67.2548 11.3051 67.2548 12.4173V17.4896H65.125ZM74.9212 17.4896V15.4843L80.8844 7.7494V7.63144H75.1342V5.69351H83.6039V7.68199L77.6407 15.4168V15.5517H83.6367V17.4896H74.9212ZM89.4027 17.7087C86.8635 17.7087 85.0614 15.7539 85.0614 13.1082C85.0614 10.3108 86.8798 8.40661 89.4027 8.40661C92.1714 8.40661 93.6786 10.5131 93.6786 13.0071V13.698H87.1256C87.1911 15.0461 88.0921 15.9561 89.4683 15.9561C90.5168 15.9561 91.3195 15.4506 91.6144 14.7259H93.5967C93.1707 16.529 91.6308 17.7087 89.4027 17.7087ZM87.1583 12.1477H91.6472C91.5489 10.9512 90.6478 10.1592 89.4027 10.1592C88.2068 10.1592 87.2894 11.0354 87.1583 12.1477ZM95.9715 21.3654V8.62568H98.0685V9.75473H98.1832C98.4125 9.384 99.1989 8.40661 100.772 8.40661C103.18 8.40661 104.834 10.2603 104.834 13.0239C104.834 15.7876 103.196 17.7087 100.837 17.7087C99.3136 17.7087 98.4944 16.8324 98.2159 16.3437H98.1013V21.3654H95.9715ZM100.362 15.7202C101.738 15.7202 102.672 14.6248 102.672 13.0576C102.672 11.4399 101.738 10.3951 100.346 10.3951C98.9368 10.3951 98.0521 11.5578 98.0521 13.0576C98.0521 14.7091 99.0351 15.7202 100.362 15.7202ZM107.127 21.3654V8.62568H109.224V9.75473H109.339C109.568 9.384 110.355 8.40661 111.928 8.40661C114.336 8.40661 115.99 10.2603 115.99 13.0239C115.99 15.7876 114.352 17.7087 111.993 17.7087C110.469 17.7087 109.65 16.8324 109.372 16.3437H109.257V21.3654H107.127ZM111.518 15.7202C112.894 15.7202 113.828 14.6248 113.828 13.0576C113.828 11.4399 112.894 10.3951 111.502 10.3951C110.093 10.3951 109.208 11.5578 109.208 13.0576C109.208 14.7091 110.191 15.7202 111.518 15.7202ZM122.084 17.7087C119.545 17.7087 117.743 15.7539 117.743 13.1082C117.743 10.3108 119.561 8.40661 122.084 8.40661C124.853 8.40661 126.36 10.5131 126.36 13.0071V13.698H119.807C119.872 15.0461 120.773 15.9561 122.15 15.9561C123.198 15.9561 124.001 15.4506 124.296 14.7259H126.278C125.852 16.529 124.312 17.7087 122.084 17.7087ZM119.84 12.1477H124.328C124.23 10.9512 123.329 10.1592 122.084 10.1592C120.888 10.1592 119.971 11.0354 119.84 12.1477ZM130.75 17.4896C129.243 17.4896 128.391 16.5628 128.391 14.9956V4.85094H130.52V14.7933C130.52 15.2989 130.766 15.5685 131.209 15.5685H131.553V17.4896H130.75ZM134.665 7.44607C133.895 7.44607 133.354 6.95738 133.354 6.16536C133.354 5.40704 133.895 4.90149 134.665 4.90149C135.435 4.90149 135.975 5.40704 135.975 6.16536C135.975 6.95738 135.435 7.44607 134.665 7.44607ZM133.6 17.4896V8.62568H135.73V17.4896H133.6ZM138.317 17.4896V8.62568H140.349V9.70418H140.463C140.807 9.04697 141.659 8.40661 142.888 8.40661C144.821 8.40661 146.001 9.80529 146.001 11.6927V17.4896H143.871V12.2656C143.871 11.1871 143.199 10.4625 142.216 10.4625C141.184 10.4625 140.447 11.3051 140.447 12.4173V17.4896H138.317Z" fill="#1C1614"/>
<path fill-rule="evenodd" clip-rule="evenodd" d="M20.7088 23.7061H7.77799L9.88741 20.0608C10.7937 18.4946 12.4327 17.5353 14.2022 17.5353H20.7088V23.7061ZM0 0H20.7088L17.1379 6.17083H0V0ZM8.20202 9.64406C9.19595 7.93138 10.99 6.88285 12.9264 6.88285H16.7763L6.99072 23.7061H0.0188698L8.20202 9.64406Z" fill="#1C1614"/>
</svg>
