<svg id="Layer_1" data-name="Layer 1" xmlns="http://www.w3.org/2000/svg" viewBox="0 0 4756 1000"><path d="M751.69,585.19a1115.07,1115.07,0,0,1,299.75-112L973.87,234.43q-49.85,21.76-102.63,39a1129.3,1129.3,0,0,1-206.1,46.26A1115.08,1115.08,0,0,1,651.24,0h-251q5.3,54.14,5.39,109.67A1129.82,1129.82,0,0,1,385.9,320,1114.86,1114.86,0,0,1,77.56,234.4L0,473.14q53.13,11.7,106,28.77a1129.47,1129.47,0,0,1,193.92,83.72A1115,1115,0,0,1,123.22,852.44L326.3,1000q27.52-46.92,60.1-91.88A1129.59,1129.59,0,0,1,526,749.54,1115.47,1115.47,0,0,1,725.11,1000L928.19,852.45q-36.11-40.68-68.81-85.55A1130.4,1130.4,0,0,1,751.69,585.19Z"/><path d="M1397.5,0h753.75V240.77H1683.4v160h387.14V622.43H1683.4V978.11H1397.5Z"/><path d="M2136.24,630.64c0-212,150.48-370.72,383-370.72s380.3,158.69,380.3,370.72S2751.84,1000,2519.28,1000,2136.24,842.68,2136.24,630.64Zm500.68,0c0-117.65-41-197-120.38-197S2398.9,513,2398.9,630.64s38.3,197,117.64,197S2636.92,748.29,2636.92,630.64Z"/><path d="M3210.15,385.77h4.11c56.09-87.55,123.12-120.38,212-120.38,20.52,0,34.21,2.73,42.4,6.84V492.47h-5.46c-151.85-26-240.77,42.41-240.77,199.73V978.11H2963.92V280.44h246.23Z"/><path d="M3507,280.44h90.29V54.72h253.07V280.44h132.7v156h-132.7V719.56c0,69.77,49.25,71.14,130,65.67V975.38c-39.67,9.57-80.71,16.41-127.22,16.41-169.63,0-255.81-47.88-255.81-214.77V436.39H3507Z"/><path d="M4478.3,901.5h-2.72c-46.51,64.3-120.39,94.4-210.68,94.4-134.07,0-232.55-72.5-232.55-209.31,0-154.58,119-199.72,253.07-214.77,147.74-16.42,187.42-34.2,187.42-78,0-38.3-17.79-67-73.88-67s-84.81,32.84-91.65,83.45H4062.44c5.47-138.17,112.17-251.71,331-251.71,106.71,0,175.1,13.68,228.46,46.51C4694.46,350.21,4730,421.34,4730,514.36V863.2c0,58.83,4.11,90.29,26,104v10.94H4501.57C4492,961.7,4483.78,939.81,4478.3,901.5ZM4479.67,725V663.47c-24.62,12.32-56.08,23.26-99.85,32.84-75.25,16.41-98.5,38.3-98.5,79.34,0,46.51,38.3,67,80.71,67C4422.22,842.68,4479.67,808.48,4479.67,725Z"/></svg>