<?xml version="1.0" encoding="utf-8"?>
<!-- Generator: Adobe Illustrator 24.1.1, SVG Export Plug-In . SVG Version: 6.00 Build 0)  -->
<svg version="1.1" id="Capa_1" xmlns="http://www.w3.org/2000/svg" xmlns:xlink="http://www.w3.org/1999/xlink" x="0px" y="0px"
	 viewBox="0 0 134.9 134.9" style="enable-background:new 0 0 134.9 134.9;" xml:space="preserve">
<style type="text/css">
	.st0{fill:#1D1D1B;}
	.st1{fill:#EDDFD6;}
	.st2{fill:#222222;}
	.st3{fill:#EDDFD6;stroke:#1D1D1B;stroke-width:0.42;stroke-linecap:round;stroke-linejoin:round;}
	.st4{fill:#1D1D1B;stroke:#EDDFD6;stroke-width:0.42;stroke-miterlimit:10;}
	.st5{fill:none;stroke:#1D1D1B;stroke-width:0.42;stroke-miterlimit:10;}
	.st6{fill:#00AEEF;}
	.st7{enable-background:new    ;}
	.st8{fill:#EDDFD6;stroke:#1D1D1B;stroke-width:0.6437;stroke-miterlimit:10;}
	.st9{fill:#EDDFD6;stroke:#1D1D1B;stroke-width:0.6073;stroke-miterlimit:10;}
	.st10{fill:#EDDFD6;stroke:#1D1D1B;stroke-width:0.5101;stroke-miterlimit:10;}
	.st11{fill:#EDDFD6;stroke:#1D1D1B;stroke-width:0.42;stroke-miterlimit:10;}
	.st12{font-family:'NotoSans-Bold';}
	.st13{font-size:19px;}
</style>
<g id="_x30_4">
	<rect x="-0.2" y="-0.1" class="st0" width="135.2" height="135.2"/>
	<g>
		<circle class="st11" cx="67.4" cy="81" r="9.3"/>
		<g>
			<rect x="53.5" y="47.5" class="st1" width="4.3" height="10"/>
			<path class="st1" d="M57.6,47.7v9.6h-3.9v-9.6L57.6,47.7 M58,47.3h-4.7v10.4H58V47.3L58,47.3z"/>
		</g>
		<g>
			<rect x="77.7" y="47.5" class="st1" width="4.3" height="10"/>
			<path class="st1" d="M81.8,47.7v9.6h-3.9v-9.6L81.8,47.7 M82.2,47.3h-4.7v10.4h4.7V47.3L82.2,47.3z"/>
		</g>
		<g>
			<path class="st1" d="M31.2,100.4l7.5-38h12.2c0.1-5,2.2-6,5.3-6c1.2,0,2.5,0.1,3.9,0.3c1.8,0.2,3.8,0.4,5.9,0.4h2.9
				c2.2,0,4.2-0.2,5.9-0.4c1.4-0.2,2.8-0.3,3.9-0.3c3.1,0,5.2,1,5.3,6h13.6l6.1,38H31.2z"/>
			<path class="st1" d="M78.8,56.7c3.2,0,5.1,1.1,5.1,6h13.6l6,37.6h-72l7.4-37.6H51c0-4.9,1.9-6,5.1-6c2.5,0,5.9,0.7,9.8,0.7h2.9
				C72.8,57.4,76.2,56.7,78.8,56.7 M78.7,56.3L78.7,56.3c-1.2,0-2.5,0.1-3.9,0.3C73,56.8,71,57,68.9,57H66c-2.1,0-4.1-0.2-5.9-0.4
				c-1.4-0.2-2.8-0.3-3.9-0.3c-1.9,0-3.2,0.4-4,1.3c-1,1-1.4,2.5-1.5,4.7H38.5l-0.1,0.3L31,100.2l-0.1,0.5H104l-0.1-0.5l-6-37.6
				l-0.1-0.4H84.3C84.1,57,81.5,56.3,78.7,56.3L78.7,56.3L78.7,56.3z"/>
		</g>
		<path class="st1" d="M103.4,100.2v5.3h-72v-5.3H103.4 M103.9,99.8H31v6.2h72.9V99.8L103.9,99.8L103.9,99.8z"/>
		<circle class="st0" cx="67.4" cy="81" r="13.6"/>
		<g>
			<circle class="st1" cx="67.4" cy="81" r="8.7"/>
			<path class="st0" d="M67.4,72.5c4.7,0,8.4,3.8,8.4,8.4s-3.8,8.4-8.4,8.4S59,85.6,59,81S62.8,72.5,67.4,72.5 M67.4,72.1
				c-4.9,0-8.9,4-8.9,8.9s4,8.9,8.9,8.9s8.9-4,8.9-8.9S72.3,72.1,67.4,72.1L67.4,72.1z"/>
		</g>
		<g>
			<g>
				<path class="st1" d="M49,53.8V56c0,1.7-1.1,3-2.4,3H32.2c-1.3,0-2.4-1.4-2.4-3v-2.2H49 M49.4,53.4l-20.1,0.1v2.7
					c0,1.9,1.3,3.5,2.8,3.5l0,0h14.4c1.6,0,2.8-1.6,2.8-3.5v-2.8H49.4L49.4,53.4z"/>
				<path class="st1" d="M29.4,53.5c0-6.8,4.5-12.3,10-12.3s10,5.5,10,12.2C49.5,53.4,29.4,53.5,29.4,53.5z"/>
			</g>
			<g>
				<path class="st1" d="M105.1,53.7v2.2c0,1.7-1.1,3-2.4,3H88.3c-1.3,0-2.4-1.4-2.4-3v-2.2H105.1 M105.5,53.2l-20.1,0.1V56
					c0,1.9,1.3,3.5,2.8,3.5l0,0h14.4c1.6,0,2.8-1.6,2.8-3.5L105.5,53.2L105.5,53.2L105.5,53.2z"/>
				<path class="st1" d="M85.4,53.3c0-6.8,4.5-12.3,10-12.3s10,5.5,10.1,12.2L85.4,53.3z"/>
			</g>
			<path class="st1" d="M67.1,29c-17.8,0-32.5,10.7-34.7,24.5h14c2-8.9,9.4-15.7,21.2-15.8s17.7,6.7,19.7,15.6h14.4
				C99.6,39.5,84.9,28.9,67.1,29L67.1,29z"/>
		</g>
	</g>
	<g>
		<path class="st1" d="M-0.1-0.1h28.5V20c0,3.8-3.1,6.8-6.8,6.8H-0.1V-0.1z"/>
		<text transform="matrix(1 0 0 1 3.95 -5.661)" class="st0 st12 st13">04</text>
		<g>
			<path class="st0" d="M13.7,14c0,1.5-0.2,2.7-0.5,3.7s-0.8,1.8-1.5,2.4C11,20.7,10.1,21,8.9,21c-1.6,0-2.8-0.6-3.6-1.8
				S4.2,16.2,4.2,14c0-1.5,0.2-2.7,0.5-3.8s0.8-1.8,1.5-2.4C6.9,7.3,7.8,7,8.9,7c1.6,0,2.8,0.6,3.6,1.8C13.3,10.1,13.7,11.8,13.7,14
				z M7.1,14c0,1.5,0.1,2.7,0.4,3.5c0.3,0.8,0.8,1.2,1.5,1.2c0.7,0,1.2-0.4,1.5-1.2c0.3-0.8,0.4-1.9,0.4-3.5c0-1.5-0.1-2.7-0.4-3.5
				c-0.3-0.8-0.8-1.2-1.5-1.2c-0.7,0-1.2,0.4-1.5,1.2C7.2,11.3,7.1,12.5,7.1,14z"/>
			<path class="st0" d="M24.9,18h-1.6v2.8h-2.8V18h-5.8v-2l5.9-8.8h2.6v8.5h1.6V18z M20.5,15.7v-2.3c0-0.3,0-0.6,0-1.1
				c0-0.4,0-0.8,0-1.2c0-0.4,0-0.6,0-0.7h-0.1c-0.1,0.3-0.2,0.5-0.4,0.7c-0.1,0.2-0.3,0.5-0.4,0.7l-2.5,3.8H20.5z"/>
		</g>
	</g>
</g>
</svg>
