<svg id="Capa_1" data-name="Capa 1" xmlns="http://www.w3.org/2000/svg" viewBox="0 0 134.89 134.89"><defs><style>.cls-1{fill:#1d1d1b;}.cls-2{fill:#eddfd6;}.cls-3{fill:#ebdbd3;fill-rule:evenodd;}</style></defs><g id="_31" data-name=" 31"><path class="cls-1" d="M-.62-.15H135V135.59H-.62Z"/></g><path class="cls-2" d="M-.29-.18H28.19V20a6.84,6.84,0,0,1-6.84,6.84H-.29Z"/><path class="cls-1" d="M12.33,9.71A3,3,0,0,1,11.49,12a4.61,4.61,0,0,1-2.08,1.1v.05a4.4,4.4,0,0,1,2.47,1,2.75,2.75,0,0,1,.85,2.13,4,4,0,0,1-.58,2.12,3.93,3.93,0,0,1-1.79,1.48,7.63,7.63,0,0,1-3.1.54,9.94,9.94,0,0,1-3.92-.74V17.26a8.51,8.51,0,0,0,1.83.66A7.52,7.52,0,0,0,7,18.15a3.36,3.36,0,0,0,2.16-.53,1.89,1.89,0,0,0,.62-1.5,1.55,1.55,0,0,0-.29-1,1.73,1.73,0,0,0-1-.6,8,8,0,0,0-2-.2h-1V12.16h1a5.89,5.89,0,0,0,1.91-.23,1.67,1.67,0,0,0,.89-.65,1.83,1.83,0,0,0,.24-.94,1.46,1.46,0,0,0-.45-1.13A2.2,2.2,0,0,0,7.58,8.8a4.09,4.09,0,0,0-1.69.34,11.62,11.62,0,0,0-1.2.65l-1.33-2a7.84,7.84,0,0,1,1.87-1,7.68,7.68,0,0,1,2.56-.38,5.79,5.79,0,0,1,3.32.85A2.74,2.74,0,0,1,12.33,9.71Z"/><path class="cls-1" d="M21.34,20.24H18.47V11.11a12.11,12.11,0,0,1,.05-1.41c-.13.14-.26.27-.4.4l-.58.53L16,11.88l-1.39-1.73L19,6.67h2.36Z"/><path class="cls-3" d="M82.43,113.47h-30a16.23,16.23,0,0,1-16.2-16.22V67.57a17.9,17.9,0,0,1,1.08-6.1l2.54-7a1.44,1.44,0,0,1,1.35-.95H93.68a1.42,1.42,0,0,1,1.34.95l2.55,7a17.61,17.61,0,0,1,1.07,6.1V97.25A16.23,16.23,0,0,1,82.43,113.47Zm-40.22-57-2.19,6a14.88,14.88,0,0,0-.9,5.12V97.25A13.33,13.33,0,0,0,52.43,110.6h30A13.33,13.33,0,0,0,95.77,97.25h0V67.58a14.88,14.88,0,0,0-.9-5.12l-2.19-6Z"/><path class="cls-3" d="M97.92,56.44H37a1.43,1.43,0,0,1-1.47-1.39v-8.8a4.65,4.65,0,0,1,4.65-4.65H94.71a4.65,4.65,0,0,1,4.65,4.65h0V55a1.43,1.43,0,0,1-1.44,1.44ZM38.41,53.56H96.49V46.25a1.78,1.78,0,0,0-1.78-1.78H40.18a1.78,1.78,0,0,0-1.77,1.78Z"/><path class="cls-3" d="M80.38,44.47a1.53,1.53,0,0,1-.6-.12,1.45,1.45,0,0,1-.71-1.91h0a12.78,12.78,0,1,0-23.25,0,1.44,1.44,0,0,1-2.57,1.3.54.54,0,0,1,0-.11,15.65,15.65,0,1,1,28.48,0A1.43,1.43,0,0,1,80.38,44.47Z"/><path class="cls-3" d="M70.45,44.53A1.43,1.43,0,0,1,69,43.07a1.41,1.41,0,0,1,.84-1.29.37.37,0,0,0,.26-.33,1.42,1.42,0,0,0,0-.71c-.3-1.38-1.85-1.93-3-2.22-3.22-.75-5.06-2.51-5.06-4.83a5.15,5.15,0,0,1,5.4-4.86,5.35,5.35,0,0,1,5.21,3.58,1.44,1.44,0,0,1-2.76.83,2.52,2.52,0,0,0-2.46-1.53,2.3,2.3,0,0,0-2.52,2c0,.41.28,1.43,2.85,2h0c2.94.73,4.67,2.22,5.14,4.4A3.6,3.6,0,0,1,71,44.4,1.17,1.17,0,0,1,70.45,44.53Z"/><path class="cls-3" d="M67.44,44.47A1.43,1.43,0,0,1,66,43.05V28.24a1.44,1.44,0,0,1,2.87,0V43a1.43,1.43,0,0,1-1.39,1.47Z"/><path class="cls-3" d="M67.44,90.42a15.67,15.67,0,1,1,11.07-4.6h0A15.49,15.49,0,0,1,67.44,90.42Zm0-28.54a12.84,12.84,0,1,0,12.78,12.9v-.07A12.81,12.81,0,0,0,67.44,61.88Z"/><path class="cls-3" d="M67.44,83a5.31,5.31,0,0,1-5.22-3.62A1.45,1.45,0,1,1,65,78.57h0a2.48,2.48,0,0,0,2.45,1.55,2.31,2.31,0,0,0,2.53-2c0-.33,0-1.31-2.86-2-3.22-.75-5.06-2.5-5.06-4.82a5.15,5.15,0,0,1,5.4-4.86A5.35,5.35,0,0,1,72.66,70a1.44,1.44,0,0,1-2.76.83,2.52,2.52,0,0,0-2.46-1.54,2.31,2.31,0,0,0-2.52,2c0,.4.28,1.42,2.85,2h0a9,9,0,0,1,3.33,1.46,4.15,4.15,0,0,1,1.72,3.36A5.17,5.17,0,0,1,67.44,83Z"/><path class="cls-3" d="M67.44,85A1.43,1.43,0,0,1,66,83.6V65.84a1.44,1.44,0,0,1,2.87-.24,1,1,0,0,1,0,.24V83.6A1.43,1.43,0,0,1,67.44,85Z"/><path class="cls-3" d="M83,102.05H58.3a3,3,0,0,1-3-3V95.91a3,3,0,0,1,3-3H83a3,3,0,0,1,3,3v3.17A3,3,0,0,1,83,102.05ZM58.3,95.81a.08.08,0,0,0-.09.07v3.2a.09.09,0,0,0,.09.09H83a.09.09,0,0,0,.09-.09V95.9a.09.09,0,0,0-.09-.09Z"/><path class="cls-3" d="M77.19,108.29H52.52a3,3,0,0,1-3-3v-3.17a3,3,0,0,1,3-3H77.19a3,3,0,0,1,3,3v3.17A3,3,0,0,1,77.19,108.29Zm-24.67-6.24a.08.08,0,0,0-.09.07v3.2a.09.09,0,0,0,.09.09H77.19a.09.09,0,0,0,.09-.09v-3.18a.09.09,0,0,0-.09-.09Z"/></svg>