<?xml version="1.0" encoding="UTF-8"?><svg xmlns="http://www.w3.org/2000/svg" viewBox="0 0 134.89 134.89"><defs><style>.d{fill:#eddfd6;}.e,.f{fill:#1d1d1b;}.g{letter-spacing:-.07em;}.h{letter-spacing:0em;}.i{fill:none;stroke:#eddfd6;stroke-miterlimit:10;}.f{font-family:Helvetica, Helvetica;font-size:11.07px;}</style></defs><g id="a"/><g id="b"><g id="c"><g><g><rect class="e" x=".21" y=".21" width="134.46" height="134.46" rx=".21" ry=".21"/><path class="d" d="M134.46,.42V134.46H.42V.42H134.46m0-.42H.42c-.23,0-.42,.19-.42,.42V134.46c0,.23,.19,.42,.42,.42H134.46c.23,0,.42-.19,.42-.42V.42c0-.23-.19-.42-.42-.42h0Z"/></g><rect class="d" x=".42" y=".42" width="21.13" height="21.13"/><text class="f" transform="translate(5.12 15.21)"><tspan class="g" x="0" y="0">1</tspan><tspan class="h" x="5.34" y="0">1</tspan></text><g><g><rect class="d" x="38.14" y="29.29" width="7" height="84.63"/><rect class="d" x="67" y=".44" width="7" height="64.71" transform="translate(103.29 -37.7) rotate(90)"/><rect class="d" x="95.85" y="29.29" width="7" height="84.63"/></g><line class="i" x1="70.79" y1="39.28" x2="70.79" y2="113.92"/><rect class="i" x="48.1" y="39.72" width="44.8" height="74.2"/><rect class="i" x="53.84" y="21.6" width="32.8" height="2.96"/></g><rect class="d" x="24.47" y="69.49" width="6.43" height="11.02"/></g></g></g></svg>