<?xml version="1.0" encoding="utf-8"?>
<!-- Generator: Adobe Illustrator 26.1.0, SVG Export Plug-In . SVG Version: 6.00 Build 0)  -->
<svg version="1.1" id="Layer_1" xmlns="http://www.w3.org/2000/svg" xmlns:xlink="http://www.w3.org/1999/xlink" x="0px" y="0px"
	 viewBox="0 0 134.9 134.9" style="enable-background:new 0 0 134.9 134.9;" xml:space="preserve">
<style type="text/css">
	.st0{fill:#1D1D1B;}
	.st1{fill:#EDDFD6;}
	.st2{font-family:'MyriadPro-Regular';}
	.st3{font-size:12px;}
	.st4{fill:#EDDFD6;stroke:#1D1D1B;stroke-width:0.42;stroke-miterlimit:10;}
</style>
<g id="a">
</g>
<g id="b">
	<g id="c">
		<g>
			<g>
				<rect x="0.2" y="0.2" class="st0" width="134.5" height="134.5"/>
				<path class="st1" d="M134.5,0.4v134H0.4V0.4H134.5 M134.9,0H0v134.9h134.9L134.9,0L134.9,0L134.9,0z"/>
			</g>
			<rect x="0.4" y="0.4" class="st1" width="21.1" height="21.1"/>
			<text transform="matrix(1 0 0 1 5.12 15.21)" class="st0 st2 st3">04</text>
			<circle class="st4" cx="67.4" cy="83.5" r="9.3"/>
			<g>
				<rect x="53.5" y="50" class="st1" width="4.3" height="10"/>
				<path class="st1" d="M57.6,50.2v9.6h-3.9v-9.6H57.6 M58,49.8h-4.7v10.4H58V49.8L58,49.8z"/>
			</g>
			<g>
				<rect x="77.7" y="50" class="st1" width="4.3" height="10"/>
				<path class="st1" d="M81.8,50.2v9.6h-3.9v-9.6H81.8 M82.2,49.8h-4.7v10.4h4.7V49.8L82.2,49.8z"/>
			</g>
			<g>
				<path class="st1" d="M31.2,102.9l7.5-38h12.2c0.1-5,2.2-6,5.3-6c1.2,0,2.5,0.1,3.9,0.3c1.8,0.2,3.8,0.4,5.9,0.4h2.9
					c2.2,0,4.2-0.2,5.9-0.4c1.4-0.2,2.8-0.3,3.9-0.3c3.1,0,5.2,1,5.3,6h13.6l6.1,38H31.2z"/>
				<path class="st1" d="M78.8,59.2c3.2,0,5.1,1.1,5.1,6h13.6l6,37.6h-72l7.4-37.6H51c0-4.9,1.9-6,5.1-6c2.5,0,5.9,0.7,9.8,0.7h2.9
					C72.8,59.9,76.2,59.2,78.8,59.2 M78.7,58.8L78.7,58.8c-1.2,0-2.5,0.1-3.9,0.3c-1.8,0.2-3.8,0.4-5.9,0.4H66
					c-2.1,0-4.1-0.2-5.9-0.4c-1.4-0.2-2.8-0.3-3.9-0.3c-1.9,0-3.2,0.4-4,1.3c-1,1-1.4,2.5-1.5,4.7H38.5l-0.1,0.3L31,102.7l-0.1,0.5
					h73.1l-0.1-0.5l-6-37.6l-0.1-0.4H84.3C84.1,59.5,81.5,58.8,78.7,58.8L78.7,58.8L78.7,58.8z"/>
			</g>
			<path class="st1" d="M103.4,102.7v5.3h-72v-5.3H103.4 M103.9,102.3H31v6.2h72.9L103.9,102.3L103.9,102.3L103.9,102.3z"/>
			<circle class="st0" cx="67.4" cy="83.5" r="13.6"/>
			<g>
				<circle class="st1" cx="67.4" cy="83.5" r="8.7"/>
				<path class="st0" d="M67.4,75c4.7,0,8.4,3.8,8.4,8.4s-3.8,8.4-8.4,8.4S59,88.1,59,83.5S62.8,75,67.4,75 M67.4,74.6
					c-4.9,0-8.9,4-8.9,8.9s4,8.9,8.9,8.9s8.9-4,8.9-8.9S72.3,74.6,67.4,74.6L67.4,74.6z"/>
			</g>
			<g>
				<g>
					<path class="st1" d="M49,56.3v2.2c0,1.7-1.1,3-2.4,3l-14.4,0c-1.3,0-2.4-1.4-2.4-3v-2.2L49,56.3 M49.4,55.9l-20.1,0.1v2.7
						c0,1.9,1.3,3.5,2.8,3.5l0,0l14.4,0c1.6,0,2.8-1.6,2.8-3.5V55.9L49.4,55.9L49.4,55.9z"/>
					<path class="st1" d="M29.4,56c0-6.8,4.5-12.3,10-12.3s10,5.5,10,12.2C49.5,55.9,29.4,56,29.4,56z"/>
				</g>
				<g>
					<path class="st1" d="M105.1,56.2v2.2c0,1.7-1.1,3-2.4,3l-14.4,0c-1.3,0-2.4-1.4-2.4-3v-2.2L105.1,56.2 M105.5,55.7l-20.1,0.1
						v2.7c0,1.9,1.3,3.5,2.8,3.5l0,0l14.4,0c1.6,0,2.8-1.6,2.8-3.5V55.7L105.5,55.7L105.5,55.7z"/>
					<path class="st1" d="M85.4,55.8c0-6.8,4.5-12.3,10-12.3c5.5,0,10,5.5,10.1,12.2L85.4,55.8z"/>
				</g>
				<path class="st1" d="M67.1,31.5c-17.8,0-32.5,10.7-34.7,24.5l14,0c2-8.9,9.4-15.7,21.2-15.8s17.7,6.7,19.7,15.6l14.4,0
					C99.6,42,84.9,31.4,67.1,31.5L67.1,31.5z"/>
			</g>
		</g>
	</g>
</g>
</svg>
