<?xml version="1.0" encoding="UTF-8"?>
<svg id="Capa_1" data-name="Capa 1" xmlns="http://www.w3.org/2000/svg" viewBox="0 0 134.89 134.89">
  <defs>
    <style>
      .cls-1 {
        font-family: NotoSans-Bold, 'Noto Sans';
        font-size: 19px;
        font-weight: 700;
      }

      .cls-1, .cls-2 {
        fill: #1d1d1b;
      }

      .cls-1, .cls-3 {
        isolation: isolate;
      }

      .cls-4 {
        fill: #eddfd6;
      }

      .cls-5 {
        fill: #ebdbd3;
      }
    </style>
  </defs>
  <g id="_37" data-name=" 37">
    <path class="cls-2" d="M-.37-.15h135.62v135.74H-.37V-.15Z"/>
    <g>
      <path class="cls-5" d="M35.04,111.36c-.48-.43-1.11-.46-1.69-.78-1.89-1.04-3.13-2.95-3.41-5.09v-58.02c.2-3.12,3.23-6.03,6.38-6.03h15.39v-11.65c0-2.46,3.42-5.49,5.87-5.53h41.67c3.14.4,5.6,2.85,5.88,6.03v57.85c-.21,3.12-3.24,6.04-6.38,6.04h-15.39v11.65c0,.29-.49,1.56-.65,1.9-.95,1.95-2.77,3.06-4.79,3.63h-42.86ZM83.35,90.6h16.07c1,0,2.42-1.94,2.3-2.97V30.62c-.16-1.76-1.39-2.89-3.15-2.98h-40.49c-1.09-.16-2.97,1.47-2.97,2.47v11.31h4.42v-2.64c0-.05.35-.83.43-.93.67-.89,2.24-.46,3.32-1.27,2.02-1.53.43-4.09,3.13-4.35l24.32.02c2.31.64.83,2.97,2.9,4.41,1.65,1.15,3.4-.32,3.66,2.8l-.02,39.8c-.35,2.57-2.68,1.26-4.16,2.82-.9.95-.88,3.92-2.04,3.92h-7.74v4.59ZM63.11,41.43h13.86c2.58,0,6.38,2.84,6.38,5.53v35.64h5.78c.41-2.26,2.42-4.1,4.6-4.7l-.03-37.47c-1.56-.45-3.1-1.57-3.92-2.97-.31-.53-.54-1.72-1.07-1.82h-20.42c-.75-.02-.73.92-1.06,1.48-.76,1.28-1.5,2.07-2.81,2.81-.9.51-1.56.15-1.31,1.5ZM35.68,45.05c-1.33.22-2.27,1.63-2.34,2.93v57.01c.09,1.61,1.36,2.88,2.98,2.98h40.66c1.61-.09,2.88-1.36,2.98-2.98-.09-19.24.15-38.51-.12-57.73-.37-1.23-1.33-2.22-2.68-2.25l-41.47.05Z"/>
      <path class="cls-5" d="M44.52,48.28h25.26c2.16.56,1,2.69,2.5,4.14,1.41,1.36,2.99.36,3.96,1.99.29,14.04.06,28.16.12,42.22-.61,2.05-2.65.98-4.08,2.38-1.59,1.57-.2,3.92-2.96,4.18l-24.63-.05c-2.26-.43-1.08-2.64-2.53-4.11-1.36-1.39-2.88-.43-3.94-1.85-.29-14.16-.06-28.38-.12-42.56.59-1.77,2.38-.93,3.82-2.13,1.76-1.48.44-3.49,2.59-4.22ZM72.95,56.6c-1.6-.43-3.18-1.59-4.06-3-.45-.72-.53-1.88-1.26-1.97h-20.93c-.54.11-.67,1.08-.97,1.59-.98,1.68-2.28,2.76-4.14,3.34l-.08,38.17c2.44.88,4.05,2.53,4.94,4.97l21.5.06c.49-.74.61-1.48,1.16-2.24.91-1.26,2.35-2.28,3.86-2.69v-38.23Z"/>
      <path class="cls-5" d="M56.26,64.27c.55-.11,1.26.06,1.65.48.63.69,1.36,3.36,2,4.47.96,1.65,2.85,3.42,4.55,4.29,1.49.76,5.36,1.3,4.22,3.7-.46.96-3.49,1.74-4.6,2.37-1.88,1.05-3.44,2.67-4.43,4.58-.56,1.06-1.21,3.67-2.09,4.21-2.42,1.49-3.09-2.66-3.83-4.11-1.02-1.99-2.76-3.74-4.73-4.8-1.08-.58-3.92-1.28-4.39-2.25-1.13-2.38,2.62-2.89,4.11-3.64,1.85-.94,3.78-2.75,4.79-4.57.6-1.09,1.18-3.38,1.81-4.15.21-.26.64-.52.95-.58ZM62.6,76.65c.23-.31-1.55-1.22-1.86-1.46-1-.78-2.04-1.8-2.81-2.81-.22-.29-1.1-1.83-1.21-1.86-.29-.07-1.11,1.52-1.37,1.86-1.27,1.65-2.87,2.96-4.66,4.01,2.29,1.59,4.66,3.41,5.78,6.04l.35-.11c1.13-2.39,3.08-4.04,5.21-5.48.18-.13.55-.17.56-.2Z"/>
    </g>
    <path class="cls-4" d="M-.04-.18h28.48v20.18c0,3.78-3.06,6.84-6.84,6.84H-.04V-.18Z"/>
    <text class="cls-1" transform="translate(2.47 -2.32)"><tspan x="0" y="0">38</tspan></text>
    <g class="cls-3">
      <path class="cls-2" d="M12.58,9.71c0,.94-.28,1.69-.85,2.24-.56.56-1.26.94-2.08,1.14v.06c1.08.14,1.9.47,2.47,1.01s.85,1.24.85,2.13c0,.79-.19,1.49-.58,2.12-.39.63-.98,1.12-1.79,1.48-.8.36-1.84.54-3.11.54-1.47,0-2.77-.25-3.91-.74v-2.43c.58.29,1.19.51,1.82.67.63.15,1.23.23,1.79.23,1.03,0,1.75-.18,2.16-.53.41-.35.62-.85.62-1.5,0-.37-.09-.68-.29-.95-.19-.27-.52-.46-1-.6-.47-.13-1.14-.2-1.99-.2h-1.03v-2.2h1.04c.84,0,1.47-.08,1.91-.24.44-.16.73-.37.89-.65.16-.27.24-.58.24-.94,0-.48-.15-.86-.45-1.13-.3-.27-.79-.41-1.49-.41-.65,0-1.21.11-1.69.34-.48.23-.88.44-1.2.65l-1.33-1.98c.53-.38,1.16-.7,1.87-.95.71-.25,1.57-.38,2.55-.38,1.39,0,2.5.28,3.32.85.82.56,1.22,1.36,1.22,2.38Z"/>
      <path class="cls-2" d="M19.18,6.5c.79,0,1.5.12,2.16.36.65.24,1.18.61,1.58,1.09.4.49.6,1.09.6,1.81,0,.82-.23,1.49-.69,2.01s-1.04.95-1.74,1.29c.48.25.94.55,1.38.88.44.34.79.73,1.06,1.19s.41.98.41,1.58c0,.75-.2,1.4-.6,1.96-.4.56-.96.99-1.67,1.29-.71.3-1.54.46-2.48.46-1.52,0-2.7-.32-3.53-.97-.83-.65-1.24-1.53-1.24-2.66,0-.92.25-1.67.76-2.25.51-.58,1.12-1.04,1.84-1.4-.61-.38-1.12-.84-1.55-1.38-.42-.54-.64-1.21-.64-2.02,0-.71.2-1.31.61-1.79.41-.49.94-.85,1.61-1.09.67-.24,1.38-.36,2.14-.36ZM17.07,16.63c0,.49.17.9.52,1.22.35.32.86.47,1.55.47s1.24-.15,1.6-.46.53-.71.53-1.22c0-.34-.1-.64-.3-.9s-.46-.49-.76-.7-.61-.4-.91-.58l-.25-.13c-.59.28-1.07.6-1.43.97-.36.37-.54.81-.54,1.33ZM19.16,8.59c-.47,0-.86.12-1.17.37-.31.25-.47.59-.47,1.02,0,.47.17.85.49,1.14.33.29.72.54,1.16.76.43-.2.81-.45,1.14-.73s.49-.67.49-1.17c0-.43-.16-.77-.47-1.02s-.71-.37-1.18-.37Z"/>
    </g>
  </g>
</svg>