<?xml version="1.0" encoding="UTF-8"?><svg xmlns="http://www.w3.org/2000/svg" viewBox="0 0 134.46 134.46"><defs><style>.d,.e{fill:#eddfd6;}.e{stroke:#1d1d1b;stroke-width:.42px;}.e,.f{stroke-miterlimit:10;}.f{stroke:#eddfd6;stroke-width:.42px;}.f,.g{fill:#1d1d1b;}.g{font-family:Helvetica, Helvetica;font-size:11.07px;}</style></defs><g id="a"/><g id="b"><g id="c"><rect class="f" x=".21" y=".21" width="134.04" height="134.04"/><g><path class="e" d="M105.89,49.1l.63,7.69-14.39,3.19,9.61,16.54-2.49,1.92-10.64-16.44s-11.5,7.54-6.27,26l-30.89-1.4s9.24-23.8-15.31-27.62l-.71-2.05s-11.02,2.04-12.59-5.95l-.14-3.35,19.62,2.78s4.12,.89,5.07,3.84l18.24-1.2h0c-.16-3.86,2.85-7.12,6.71-7.28l12.46-.51c1.54-.06,2.84,1.14,2.91,2.68h0l4.56-.19-.52-12.8c-.04-1,.74-1.85,1.74-1.89h0c1-.04,1.85,.74,1.89,1.74l.32,7.76,2.77-.09c3.84-.13,7.1,2.78,7.41,6.61Z"/><circle class="e" cx="100.6" cy="78.15" r="5.92"/><path class="e" d="M99.92,61.55c-9.16,.37-16.29,8.11-15.92,17.28,.37,9.16,8.11,16.29,17.27,15.92s16.3-8.11,15.93-17.27c-.37-9.17-8.11-16.3-17.28-15.93Zm1.09,26.79c-5.63,.23-10.37-4.14-10.6-9.77s4.14-10.38,9.77-10.61,10.38,4.15,10.61,9.78-4.15,10.37-9.78,10.6Z"/><polygon class="e" points="40.28 59.92 32.44 78.39 35.35 79.31 43.36 61.06 40.28 59.92"/><circle class="e" cx="33.86" cy="78.33" r="5.92"/><path class="e" d="M33.18,61.73c-9.16,.37-16.29,8.11-15.92,17.28s8.11,16.29,17.27,15.92c9.17-.37,16.3-8.11,15.93-17.27-.37-9.17-8.11-16.3-17.28-15.93Zm1.09,26.79c-5.63,.23-10.37-4.14-10.6-9.77s4.14-10.38,9.77-10.61,10.38,4.15,10.61,9.78-4.15,10.37-9.78,10.6Z"/><line class="e" x1="52.22" y1="84.06" x2="81.72" y2="85.54"/><path class="e" d="M65.64,53.07v4.08h13.5c4.73,0,8.57-3.84,8.57-8.57v-.62"/><circle class="e" cx="96.39" cy="46.9" r="1.71"/></g><rect class="d" x=".43" y=".21" width="21.13" height="21.13"/><text class="g" transform="translate(5.13 15)"><tspan x="0" y="0">25</tspan></text></g></g></svg>