<?xml version="1.0" encoding="utf-8"?>
<!-- Generator: Adobe Illustrator 24.1.1, SVG Export Plug-In . SVG Version: 6.00 Build 0)  -->
<svg version="1.1" id="Capa_1" xmlns="http://www.w3.org/2000/svg" xmlns:xlink="http://www.w3.org/1999/xlink" x="0px" y="0px"
	 viewBox="0 0 134.9 134.9" style="enable-background:new 0 0 134.9 134.9;" xml:space="preserve">
<style type="text/css">
	.st0{fill:#1D1D1B;}
	.st1{fill:#EDDFD6;}
	.st2{fill:#EDDFD6;stroke:#1D1D1B;stroke-width:0.42;stroke-linecap:round;stroke-linejoin:round;}
	.st3{fill:#1D1D1B;stroke:#EDDFD6;stroke-width:0.42;stroke-miterlimit:10;}
	.st4{fill:none;stroke:#1D1D1B;stroke-width:0.42;stroke-miterlimit:10;}
	.st5{fill:#00AEEF;}
	.st6{enable-background:new    ;}
	.st7{fill:#EDDFD6;stroke:#1D1D1B;stroke-width:0.6437;stroke-miterlimit:10;}
	.st8{fill:#EDDFD6;stroke:#1D1D1B;stroke-width:0.6073;stroke-miterlimit:10;}
	.st9{fill:#EDDFD6;stroke:#1D1D1B;stroke-width:0.5101;stroke-miterlimit:10;}
	.st10{fill:#EDDFD6;stroke:#1D1D1B;stroke-width:0.42;stroke-miterlimit:10;}
	.st11{fill:#EDDFD6;stroke:#1D1D1B;stroke-width:0.6356;stroke-miterlimit:10;}
	.st12{fill:#EDDFD6;stroke:#1D1D1B;stroke-width:0.5996;stroke-miterlimit:10;}
	.st13{fill:#EDDFD6;stroke:#1D1D1B;stroke-width:0.5037;stroke-miterlimit:10;}
	.st14{fill:#EDDFD6;stroke:#1D1D1B;stroke-width:0.422;stroke-miterlimit:10;}
	.st15{fill:#1D1D1B;stroke:#EDDFD6;stroke-width:0.422;stroke-miterlimit:10;}
	.st16{fill:none;stroke:#1D1D1B;stroke-width:0.422;stroke-miterlimit:10;}
	.st17{fill:none;stroke:#EDDFD6;stroke-width:0.422;stroke-linecap:round;stroke-linejoin:round;}
	.st18{fill:none;stroke:#EDDFD6;stroke-width:17;stroke-miterlimit:10;}
	.st19{fill:#EDDFD6;stroke:#EDDFD6;stroke-width:0.42;stroke-miterlimit:10;}
	.st20{fill:#EDDFD6;stroke:#1D1D1B;stroke-width:0.4786;stroke-miterlimit:10;}
	.st21{fill:#1D1D1B;stroke:#EDDFD6;stroke-width:0.4786;stroke-miterlimit:10;}
	.st22{fill:none;stroke:#1D1D1B;stroke-width:0.4786;stroke-miterlimit:10;}
	.st23{fill:none;stroke:#EDDFD6;stroke-width:0.4786;stroke-miterlimit:10;}
	.st24{fill:none;stroke:#EDDFD6;stroke-width:0.9265;stroke-miterlimit:10;}
	.st25{fill:#1D1D1B;stroke:#EDDFD6;stroke-width:0.53;stroke-miterlimit:10;}
	.st26{fill:#1D1D1B;stroke:#EDDFD6;stroke-width:0.6436;stroke-miterlimit:10;}
	.st27{fill:#EDDFD6;stroke:#1D1D1B;stroke-width:0.6436;stroke-miterlimit:10;}
	.st28{fill:#EDDFD6;stroke:#1D1D1B;stroke-width:0.6072;stroke-miterlimit:10;}
	.st29{fill:#EDDFD6;stroke:#1D1D1B;stroke-width:0.51;stroke-miterlimit:10;}
	.st30{fill:none;stroke:#EDDFD6;stroke-width:10.3992;stroke-miterlimit:10;}
	.st31{fill:#1D1D1B;stroke:#1D1D1B;stroke-width:0.42;stroke-linecap:round;stroke-linejoin:round;}
	.st32{fill:none;stroke:#1D1D1B;stroke-width:0.42;stroke-linecap:round;stroke-miterlimit:10;}
	.st33{fill:#231F20;}
	.st34{fill:none;stroke:#231F20;stroke-width:0.3187;}
	.st35{font-family:'NotoSans-Bold';}
	.st36{font-size:19px;}
	.st37{fill:#EBDDD4;}
	.st38{fill:#222222;}
	.st39{fill:#DBCAC2;}
</style>
<g id="_x32_6">
	<rect x="-1.1" y="-0.7" class="st0" width="136.6" height="135.8"/>
	<g>
		<g>
			<rect x="10.1" y="33.2" class="st10" width="43" height="67.9"/>
			<rect x="11.2" y="34.6" class="st10" width="40.6" height="66.5"/>
			<rect x="14.7" y="38.6" class="st10" width="33.5" height="62.5"/>
			<ellipse class="st3" cx="42.5" cy="70.9" rx="0.9" ry="1.3"/>
			<polygon class="st0" points="14.7,38.6 40.8,43.3 40.8,101.1 48.3,101.1 48.3,38.6 			"/>
			<polygon class="st0" points="14.7,101.1 46.1,94.5 46.1,101.1 			"/>
			<circle class="st4" cx="38" cy="70.2" r="1.5"/>
			<path class="st0" d="M44.1,72.4l0.4,0.2c1,0.6,1.3,1.8,0.7,2.8l-7.6,13.1c-0.6,1-1.8,1.3-2.8,0.7l-0.4-0.2
				c-1-0.6-1.3-1.8-0.7-2.8l7.6-13.1C41.8,72.2,43.1,71.9,44.1,72.4z"/>
			<path class="st0" d="M24,87.5V87c0-1.1,0.9-2,2.1-2h10c1.1,0,2.1,0.9,2.1,2v0.5c0,1.1-0.9,2.1-2.1,2.1H26
				C24.9,89.6,24,88.6,24,87.5z"/>
			<path class="st0" d="M24,85h3.3v4.7c0,1.7-1.3,3-3,3H24V85L24,85L24,85z"/>
		</g>
		<g>
			<rect x="81.2" y="33.2" class="st10" width="43" height="67.9"/>
			<rect x="82.5" y="34.6" class="st10" width="40.6" height="66.5"/>
			<rect x="86.1" y="38.6" class="st10" width="33.5" height="62.5"/>
			<ellipse class="st3" cx="91.8" cy="70.9" rx="0.9" ry="1.3"/>
			<polygon class="st0" points="119.6,38.6 93.5,43.3 93.5,101.1 86.1,101.1 86.1,38.6 			"/>
			<polygon class="st0" points="119.6,101.1 88.3,94.5 88.3,101.1 			"/>
			<circle class="st4" cx="96.3" cy="70.2" r="1.5"/>
			<path class="st0" d="M99.9,89.1l-0.4,0.2c-1,0.6-2.2,0.2-2.8-0.7l-7.6-13.1c-0.6-1-0.2-2.2,0.7-2.8l0.4-0.2
				c1-0.6,2.2-0.2,2.8,0.7l7.6,13.1C101.2,87.3,100.9,88.5,99.9,89.1z"/>
			<path class="st0" d="M96.3,87.5V87c0-1.1,0.9-2.1,2.1-2.1h10c1.1,0,2.1,0.9,2.1,2.1v0.5c0,1.1-0.9,2.1-2.1,2.1h-10
				C97.2,89.6,96.3,88.6,96.3,87.5z"/>
			<path class="st0" d="M110.3,92.7H110c-1.7,0-3-1.3-3-3V85h3.3V92.7L110.3,92.7L110.3,92.7z"/>
		</g>
		<path class="st10" d="M53.1,101.1l8.7-5.2c3.6-2.1,7.2-2.1,10.8,0l8.7,5.2V33.2l-8.7,5.3c-3.8,2.3-7.7,2.3-11.5-0.2l-8-5.2
			L53.1,101.1L53.1,101.1z"/>
	</g>
	<g>
		<path class="st1" d="M-0.2-0.2h28.5V20c0,3.8-3.1,6.8-6.8,6.8H-0.2V-0.2z"/>
		<text transform="matrix(1 0 0 1 2.3385 -2.3119)" class="st0 st35 st36">26</text>
		<g>
			<path class="st0" d="M13.2,20.3H3.7v-2l3.4-3.4c0.7-0.7,1.2-1.3,1.7-1.8s0.7-0.9,0.9-1.3C9.9,11.5,10,11,10,10.6
				c0-0.5-0.1-0.9-0.4-1.2S8.8,9,8.3,9c-0.5,0-1,0.1-1.5,0.4s-1,0.6-1.6,1L3.7,8.5c0.4-0.3,0.8-0.6,1.2-0.9c0.4-0.3,1-0.5,1.5-0.7
				s1.3-0.3,2.1-0.3c0.9,0,1.6,0.2,2.3,0.5c0.6,0.3,1.1,0.8,1.5,1.3c0.3,0.6,0.5,1.2,0.5,1.9c0,0.7-0.1,1.4-0.4,2.1
				c-0.3,0.6-0.7,1.2-1.3,1.8s-1.2,1.3-2,2l-1.7,1.6v0.1h5.9V20.3z"/>
			<path class="st0" d="M14.5,14.6c0-0.8,0.1-1.5,0.2-2.3c0.1-0.8,0.3-1.5,0.6-2.2s0.7-1.3,1.2-1.8c0.5-0.5,1.2-0.9,2-1.2
				c0.8-0.3,1.8-0.4,2.9-0.4c0.3,0,0.6,0,0.9,0c0.4,0,0.7,0.1,0.9,0.1v2.3C22.9,9,22.6,9,22.3,8.9c-0.3,0-0.6-0.1-0.8-0.1
				c-1.1,0-2,0.2-2.6,0.5c-0.6,0.4-1,0.9-1.3,1.5c-0.3,0.6-0.4,1.4-0.4,2.2h0.1c0.3-0.4,0.6-0.8,1.1-1.1c0.5-0.3,1.1-0.5,1.9-0.5
				c1.2,0,2.1,0.4,2.8,1.1c0.7,0.7,1,1.8,1,3.2c0,1.5-0.4,2.6-1.2,3.5c-0.8,0.8-2,1.3-3.4,1.3c-0.9,0-1.8-0.2-2.5-0.6
				c-0.7-0.4-1.3-1.1-1.8-2S14.5,15.9,14.5,14.6z M19.4,18.2c0.6,0,1-0.2,1.4-0.6c0.4-0.4,0.5-1,0.5-1.8c0-0.7-0.2-1.2-0.5-1.6
				c-0.3-0.4-0.8-0.6-1.4-0.6c-0.4,0-0.8,0.1-1.1,0.3c-0.3,0.2-0.6,0.4-0.7,0.7c-0.2,0.3-0.3,0.6-0.3,0.9c0,0.4,0.1,0.8,0.2,1.2
				c0.2,0.4,0.4,0.7,0.7,1C18.6,18.1,19,18.2,19.4,18.2z"/>
		</g>
	</g>
</g>
</svg>
