<?xml version="1.0" encoding="UTF-8"?><svg xmlns="http://www.w3.org/2000/svg" viewBox="0 0 134.46 134.46"><defs><style>.d{fill:none;}.d,.e,.f{stroke-miterlimit:10;}.d,.e,.f,.g{stroke-width:.42px;}.d,.e,.g{stroke:#1d1d1b;}.h,.e,.g{fill:#eddfd6;}.i,.f,.j{fill:#1d1d1b;}.f{stroke:#eddfd6;}.g{stroke-linecap:round;stroke-linejoin:round;}.j{font-family:Helvetica, Helvetica;font-size:11.07px;}</style></defs><g id="a"/><g id="b"><g id="c"><rect class="f" x=".21" y=".21" width="134.04" height="134.04"/><rect class="h" x=".43" y=".42" width="21.13" height="21.13"/><text class="j" transform="translate(5.13 15.21)"><tspan x="0" y="0">14</tspan></text><g><polygon class="e" points="32.05 49.43 28.42 53.06 28.42 49.43 32.05 49.43"/><polygon class="e" points="45.37 49.43 33.8 61 28.42 61 28.42 57.57 36.56 49.43 45.37 49.43"/><polygon class="e" points="58.69 49.43 47.12 61 38.32 61 49.89 49.43 58.69 49.43"/><polygon class="e" points="72 49.43 60.44 61 51.64 61 63.2 49.43 72 49.43"/><polygon class="e" points="85.32 49.43 73.76 61 64.95 61 76.52 49.43 85.32 49.43"/><polygon class="e" points="98.64 49.43 87.07 61 78.27 61 89.84 49.43 98.64 49.43"/><polygon class="e" points="108.53 49.43 108.53 52.85 100.39 61 91.59 61 103.15 49.43 108.53 49.43"/><polygon class="e" points="104.91 61 108.53 57.37 108.53 61 104.91 61"/></g><g><polygon class="e" points="32.05 66.41 28.42 70.04 28.42 66.41 32.05 66.41"/><polygon class="e" points="45.37 66.41 33.8 77.98 28.42 77.98 28.42 74.56 36.56 66.41 45.37 66.41"/><polygon class="e" points="58.69 66.41 47.12 77.98 38.32 77.98 49.89 66.41 58.69 66.41"/><polygon class="e" points="72 66.41 60.44 77.98 51.64 77.98 63.2 66.41 72 66.41"/><polygon class="e" points="85.32 66.41 73.76 77.98 64.95 77.98 76.52 66.41 85.32 66.41"/><polygon class="e" points="98.64 66.41 87.07 77.98 78.27 77.98 89.84 66.41 98.64 66.41"/><polygon class="e" points="108.53 66.41 108.53 69.83 100.39 77.98 91.59 77.98 103.15 66.41 108.53 66.41"/><polygon class="e" points="104.91 77.98 108.53 74.35 108.53 77.98 104.91 77.98"/></g><rect class="d" x="28.42" y="49.43" width="80.11" height="11.57"/><rect class="d" x="28.42" y="66.41" width="80.11" height="11.57"/><rect class="g" x="62.56" y="45.94" width="12.28" height="3"/><g><path class="i" d="M62.99,45.39v-.96c0-3.15,2.56-5.71,5.71-5.71s5.71,2.56,5.71,5.71v.96h-11.42Z"/><path class="h" d="M68.7,38.94c3.03,0,5.5,2.47,5.5,5.5v.75h-11v-.75c0-3.03,2.47-5.5,5.5-5.5m0-.42h0c-3.27,0-5.92,2.65-5.92,5.92v1.17h11.85v-1.17c0-3.27-2.65-5.92-5.92-5.92h0Z"/></g><rect class="g" x="35.8" y="36.82" width="12.28" height="3"/><g><path class="i" d="M36.23,35.91v-.96c0-3.15,2.56-5.71,5.71-5.71s5.71,2.56,5.71,5.71v.96h-11.42Z"/><path class="h" d="M41.94,29.45c3.03,0,5.5,2.47,5.5,5.5v.75h-11v-.75c0-3.03,2.47-5.5,5.5-5.5m0-.42c-3.27,0-5.92,2.65-5.92,5.92v1.17h11.85v-1.17c0-3.27-2.65-5.92-5.92-5.92h0Z"/></g><rect class="g" x="89.06" y="36.82" width="12.28" height="3"/><g><path class="i" d="M89.49,35.91v-.96c0-3.15,2.56-5.71,5.71-5.71s5.71,2.56,5.71,5.71v.96h-11.42Z"/><path class="h" d="M95.2,29.45c3.03,0,5.5,2.47,5.5,5.5v.75h-11v-.75c0-3.03,2.47-5.5,5.5-5.5m0-.42c-3.27,0-5.92,2.65-5.92,5.92v1.17h11.85v-1.17c0-3.27-2.65-5.92-5.92-5.92h0Z"/></g><rect class="e" x="38.5" y="39.82" width="6.87" height="71.78"/><rect class="e" x="91.77" y="39.82" width="6.87" height="71.78"/><rect class="e" x="45.37" y="90.69" width="46.4" height="4.77"/></g></g></svg>