<svg width="135" height="135" viewBox="0 0 135 135" fill="none" xmlns="http://www.w3.org/2000/svg">
<g clip-path="url(#clip0_32_27)">
<path d="M-0.599609 -0.200012H135V135.5H-0.599609V67.7V-0.200012Z" fill="#1D1D1B"/>
<path d="M-0.299805 -0.200012H28.2002V20C28.2002 23.8 25.1002 26.8 21.4002 26.8H-0.299805V-0.200012Z" fill="#EDDFD6"/>
<path d="M12.9304 9.249C12.9304 9.86967 12.7974 10.408 12.5314 10.864C12.278 11.32 11.9297 11.6937 11.4864 11.985C11.0557 12.2763 10.5617 12.4917 10.0044 12.631V12.688C11.0937 12.8147 11.917 13.144 12.4744 13.676C13.0444 14.208 13.3294 14.9237 13.3294 15.823C13.3294 16.6083 13.133 17.3177 12.7404 17.951C12.3604 18.5717 11.765 19.0657 10.9544 19.433C10.1564 19.7877 9.12403 19.965 7.85736 19.965C7.11003 19.965 6.41336 19.9017 5.76736 19.775C5.12136 19.6483 4.51336 19.4647 3.94336 19.224V16.792C4.52603 17.0833 5.13403 17.305 5.76736 17.457C6.41336 17.609 7.00869 17.685 7.55336 17.685C8.57936 17.685 9.29503 17.5077 9.70036 17.153C10.1184 16.7983 10.3274 16.298 10.3274 15.652C10.3274 15.272 10.2324 14.9553 10.0424 14.702C9.85236 14.436 9.51669 14.2397 9.03536 14.113C8.56669 13.9737 7.90803 13.904 7.05936 13.904H6.03336V11.7H7.07836C7.91436 11.7 8.54769 11.624 8.97836 11.472C9.42169 11.3073 9.71936 11.092 9.87136 10.826C10.036 10.5473 10.1184 10.2307 10.1184 9.876C10.1184 9.39467 9.96636 9.021 9.66236 8.755C9.37103 8.47633 8.87703 8.337 8.18036 8.337C7.74969 8.337 7.35703 8.394 7.00236 8.508C6.64769 8.60933 6.32469 8.736 6.03336 8.888C5.75469 9.04 5.50769 9.18567 5.29236 9.325L3.96236 7.349C4.31703 7.09567 4.70969 6.86767 5.14036 6.665C5.58369 6.46233 6.07136 6.304 6.60336 6.19C7.13536 6.076 7.73069 6.019 8.38936 6.019C9.78269 6.019 10.8847 6.304 11.6954 6.874C12.5187 7.43133 12.9304 8.223 12.9304 9.249Z" fill="#1D1D1B"/>
<path d="M24.2594 12.992C24.2594 14.0813 24.1707 15.0567 23.9934 15.918C23.8287 16.7793 23.5564 17.514 23.1764 18.122C22.8091 18.7173 22.3214 19.1733 21.7134 19.49C21.1181 19.8067 20.3834 19.965 19.5094 19.965C18.4201 19.965 17.5271 19.6863 16.8304 19.129C16.1337 18.5717 15.6144 17.7737 15.2724 16.735C14.9431 15.6963 14.7784 14.4487 14.7784 12.992C14.7784 11.5227 14.9304 10.2687 15.2344 9.23C15.5384 8.19133 16.0387 7.39333 16.7354 6.836C17.4321 6.27867 18.3567 6 19.5094 6C20.5987 6 21.4917 6.27867 22.1884 6.836C22.8851 7.38067 23.4044 8.17867 23.7464 9.23C24.0884 10.2687 24.2594 11.5227 24.2594 12.992ZM17.6284 12.992C17.6284 14.018 17.6854 14.8793 17.7994 15.576C17.9134 16.26 18.1034 16.7793 18.3694 17.134C18.6481 17.476 19.0281 17.647 19.5094 17.647C19.9907 17.647 20.3644 17.476 20.6304 17.134C20.9091 16.792 21.1054 16.279 21.2194 15.595C21.3461 14.8983 21.4094 14.0307 21.4094 12.992C21.4094 11.9533 21.3461 11.092 21.2194 10.408C21.1054 9.71133 20.9091 9.192 20.6304 8.85C20.3644 8.49533 19.9907 8.318 19.5094 8.318C19.0281 8.318 18.6481 8.49533 18.3694 8.85C18.1034 9.192 17.9134 9.71133 17.7994 10.408C17.6854 11.092 17.6284 11.9533 17.6284 12.992Z" fill="#1D1D1B"/>
<path d="M94.2684 60.4385L90.6011 56.036V51.1106C92.0664 50.5909 93.1189 49.1914 93.1189 47.5518V43.7759C93.1189 41.6939 91.425 40 89.343 40H46.5501C44.4681 40 42.7742 41.6939 42.7742 43.7759V47.5518C42.7742 49.193 43.8268 50.5909 45.2921 51.1106V56.036L41.6247 60.4385C39.9308 62.4695 39 65.0449 39 67.6893V102.93C39 108.482 43.5176 113 49.0696 113H86.8285C92.3805 113 96.8981 108.482 96.8981 102.93V67.6893C96.8981 65.0449 95.9656 62.4695 94.2717 60.4385H94.2684ZM47.8082 55.1036V51.3277H88.0833V55.1036H47.8082ZM45.2904 43.7759C45.2904 43.0819 45.8545 42.5178 46.5485 42.5178H51.5825V45.0356C51.5825 45.7313 52.1465 46.2937 52.8405 46.2937C53.5345 46.2937 54.0986 45.7313 54.0986 45.0356V42.5178H61.6504V45.0356C61.6504 45.7313 62.2145 46.2937 62.9085 46.2937C63.6025 46.2937 64.1666 45.7313 64.1666 45.0356V42.5178H71.7184V45.0356C71.7184 45.7313 72.2824 46.2937 72.9764 46.2937C73.6704 46.2937 74.2345 45.7313 74.2345 45.0356V42.5178H81.7863V45.0356C81.7863 45.7313 82.3504 46.2937 83.0444 46.2937C83.7384 46.2937 84.3025 45.7313 84.3025 45.0356V42.5178H89.3364C90.0304 42.5178 90.5945 43.0819 90.5945 43.7759V47.5518C90.5945 48.2458 90.0304 48.8099 89.3364 48.8099H46.5501C45.8561 48.8099 45.2921 48.2458 45.2921 47.5518V43.7759H45.2904ZM67.9458 110.482H59.2148C58.4764 110.482 57.8762 109.882 57.8762 109.144V107.637C57.8762 106.9 58.4764 106.298 59.2148 106.298H84.2268C84.9652 106.298 85.5655 106.899 85.5655 107.637V109.144C85.5655 109.88 84.9652 110.482 84.2268 110.482H67.9441H67.9458ZM54.1003 95.7059V94.1995C54.1003 93.4627 54.7005 92.8608 55.4389 92.8608H80.4509C81.1893 92.8608 81.7896 93.4611 81.7896 94.1995V95.7059C81.7896 96.4427 81.1893 97.0446 80.4509 97.0446H55.4406C54.7022 97.0446 54.1019 96.4443 54.1019 95.7059H54.1003ZM76.675 99.6002C77.4134 99.6002 78.0137 100.2 78.0137 100.939V102.445C78.0137 103.182 77.4134 103.784 76.675 103.784H51.6647C50.9263 103.784 50.326 103.184 50.326 102.445V100.939C50.326 100.202 50.9263 99.6002 51.6647 99.6002H76.6767H76.675ZM94.3753 102.93C94.3753 106.741 91.5401 109.898 87.8678 110.408C88.006 110.012 88.0816 109.586 88.0816 109.144V107.637C88.0816 105.511 86.3516 103.781 84.2252 103.781H80.2898C80.4443 103.363 80.5299 102.912 80.5299 102.442V100.936C80.5299 100.45 80.4394 99.9867 80.275 99.5591H80.4493C82.5757 99.5591 84.3057 97.829 84.3057 95.7026V94.1962C84.3057 92.0698 82.5757 90.3397 80.4493 90.3397H76.4695C80.8012 87.5341 83.6742 82.6597 83.6742 77.1241C83.6742 68.4491 76.6175 61.3907 67.9408 61.3907C59.2642 61.3907 52.2074 68.4475 52.2074 77.1241C52.2074 82.658 55.0804 87.5341 59.4122 90.3397H55.4324C53.306 90.3397 51.5759 92.0698 51.5759 94.1962V95.7026C51.5759 96.1877 51.6663 96.6515 51.8308 97.0791H51.6565C49.5301 97.0791 47.8 98.8092 47.8 100.936V102.442C47.8 104.568 49.5301 106.298 51.6565 106.298H55.5919C55.4373 106.716 55.3518 107.167 55.3518 107.637V109.144C55.3518 109.614 55.4373 110.064 55.5919 110.482H49.0597C44.8957 110.482 41.5079 107.094 41.5079 102.93V67.6893C41.5079 65.6336 42.2332 63.6289 43.5488 62.0501L47.2408 57.6197H88.6375L92.3279 62.0501C93.6452 63.6289 94.3704 65.6336 94.3704 67.6893V102.93H94.3753ZM67.9441 90.3447C60.6571 90.3447 54.7285 84.416 54.7285 77.129C54.7285 69.842 60.6571 63.9134 67.9441 63.9134C75.2311 63.9134 81.1597 69.842 81.1597 77.129C81.1597 84.416 75.2311 90.3447 67.9441 90.3447Z" fill="#EDDFD6"/>
<path d="M70.5754 76.565L66.2584 74.8908C65.3638 74.5175 65.1845 74.085 65.1845 73.5061C65.1845 72.822 65.7059 72.2266 66.4509 72.0556C67.8356 71.7366 69.4341 71.9619 70.6198 72.6411C71.2217 72.9864 71.9913 72.7776 72.3367 72.1756C72.6821 71.5721 72.4748 70.8024 71.8713 70.4571C71.0655 69.995 70.1527 69.6792 69.2055 69.5181V68.6843C69.2055 67.9886 68.6414 67.4262 67.9474 67.4262C67.2534 67.4262 66.6893 67.9886 66.6893 68.6843V69.4589C66.4196 69.4934 66.1515 69.5394 65.8868 69.6003C63.9906 70.0344 62.6651 71.6395 62.6651 73.5044C62.6651 74.6967 63.1206 76.3068 65.3145 77.2244L69.661 78.9101C70.5984 79.2752 70.7053 79.8689 70.7053 80.2849C70.7053 80.9674 70.184 81.5627 69.439 81.7354C69.0065 81.8341 68.5542 81.8801 68.1003 81.8769C68.0494 81.8703 67.9984 81.867 67.9458 81.867C67.9211 81.867 67.8981 81.8686 67.8734 81.8703C66.9459 81.8292 66.0233 81.5808 65.2684 81.1483C64.6632 80.8013 63.8969 81.0118 63.5499 81.6137C63.2045 82.2156 63.4134 82.9853 64.0153 83.3306C64.8227 83.7928 65.7371 84.1069 66.686 84.268V85.5705C66.686 86.2662 67.2501 86.8286 67.9441 86.8286C68.6381 86.8286 69.2022 86.2662 69.2022 85.5705V84.3256C69.4703 84.2911 69.7383 84.2483 69.9998 84.1875C71.896 83.7516 73.2198 82.1466 73.2198 80.2833C73.2198 78.5746 72.2545 77.2195 70.5705 76.5633L70.5754 76.565Z" fill="#EDDFD6"/>
<path fill-rule="evenodd" clip-rule="evenodd" d="M80.0234 40C80.334 38.8864 80.5 37.7126 80.5 36.5C80.5 29.3203 74.6797 23.5 67.5 23.5C60.3203 23.5 54.5 29.3203 54.5 36.5C54.5 37.7126 54.666 38.8864 54.9766 40H52.3968C52.1372 38.8752 52 37.7036 52 36.5C52 27.9396 58.9396 21 67.5 21C76.0604 21 83 27.9396 83 36.5C83 37.7036 82.8628 38.8752 82.6032 40H80.0234ZM72.5521 40C72.5539 39.9525 72.5547 39.9049 72.5547 39.8571C72.5547 38.1484 71.5894 36.7933 69.9054 36.1371L69.9103 36.1388L65.5933 34.4646C64.6987 34.0913 64.5195 33.6588 64.5195 33.0799C64.5195 32.3958 65.0408 31.8004 65.7858 31.6294C67.1705 31.3104 68.769 31.5357 69.9547 32.2149C70.5566 32.5602 71.3263 32.3514 71.6716 31.7495C72.017 31.1459 71.8097 30.3763 71.2062 30.0309C70.4004 29.5688 69.4876 29.253 68.5404 29.0919V28.2581C68.5404 27.5624 67.9763 27 67.2823 27C66.5883 27 66.0242 27.5624 66.0242 28.2581V29.0327C65.7545 29.0672 65.4864 29.1132 65.2217 29.1741C63.3255 29.6083 62 31.2133 62 33.0783C62 34.2706 62.4555 35.8806 64.6494 36.7982L68.9959 38.4839C69.9333 38.849 70.0402 39.4427 70.0402 39.8587C70.0402 39.9063 70.0377 39.9534 70.0327 40H72.5521Z" fill="#EDDFD6"/>
</g>
<defs>
<clipPath id="clip0_32_27">
<rect width="134.9" height="134.9" fill="white"/>
</clipPath>
</defs>
</svg>
