<?xml version="1.0" encoding="iso-8859-1"?>
<!-- Generator: Adobe Illustrator 16.0.0, SVG Export Plug-In . SVG Version: 6.00 Build 0)  -->
<!DOCTYPE svg PUBLIC "-//W3C//DTD SVG 1.1//EN" "http://www.w3.org/Graphics/SVG/1.1/DTD/svg11.dtd">
<svg version="1.1" id="Capa_1" xmlns="http://www.w3.org/2000/svg" xmlns:xlink="http://www.w3.org/1999/xlink" x="0px" y="0px"
	 width="897.012px" height="897.011px" viewBox="0 0 897.012 897.011" style="enable-background:new 0 0 897.012 897.011;"
	 xml:space="preserve">
<g>
	<path d="M739.512,213.93h-72.732l42.25-41.747c20.625-20.379,20.826-53.62,0.445-74.245c-20.375-20.624-53.617-20.825-74.244-0.445
		L503.752,227.405c-9.906,9.787-15.518,23.107-15.602,37.03c-0.082,13.924,5.367,27.31,15.154,37.215l131.684,133.271
		c10.271,10.395,23.805,15.6,37.348,15.6c13.328,0,26.666-5.046,36.896-15.154c20.625-20.379,20.824-53.62,0.445-74.245
		l-41.689-42.192h71.521c28.949,0,52.5,23.551,52.5,52.5v285.744c0,28.949-23.551,52.5-52.5,52.5H157.5
		c-28.948,0-52.5-23.551-52.5-52.5V371.43c0-28.949,23.552-52.5,52.5-52.5h71.902l-41.688,42.192
		c-20.38,20.625-20.18,53.865,0.445,74.245c10.231,10.109,23.566,15.154,36.897,15.154c13.541,0,27.078-5.207,37.347-15.6
		l131.683-133.271c20.38-20.625,20.18-53.866-0.445-74.245L262.16,97.493c-20.624-20.379-53.866-20.18-74.244,0.445
		c-20.38,20.625-20.181,53.866,0.445,74.245l42.25,41.747H157.5C70.654,213.93,0,284.584,0,371.43v285.743
		c0,86.846,70.654,157.5,157.5,157.5h582.012c86.846,0,157.5-70.654,157.5-157.5V371.43
		C897.012,284.584,826.357,213.93,739.512,213.93z"/>
</g>
<g>
</g>
<g>
</g>
<g>
</g>
<g>
</g>
<g>
</g>
<g>
</g>
<g>
</g>
<g>
</g>
<g>
</g>
<g>
</g>
<g>
</g>
<g>
</g>
<g>
</g>
<g>
</g>
<g>
</g>
</svg>
