<?xml version="1.0" encoding="utf-8"?>
<!-- Generator: Adobe Illustrator 24.1.1, SVG Export Plug-In . SVG Version: 6.00 Build 0)  -->
<svg version="1.1" id="Capa_1" xmlns="http://www.w3.org/2000/svg" xmlns:xlink="http://www.w3.org/1999/xlink" x="0px" y="0px"
	 viewBox="0 0 134.9 134.9" style="enable-background:new 0 0 134.9 134.9;" xml:space="preserve">
<style type="text/css">
	.st0{fill:#1D1D1B;}
	.st1{fill:#EDDFD6;}
	.st2{fill:#222222;}
	.st3{fill:#EDDFD6;stroke:#1D1D1B;stroke-width:0.42;stroke-linecap:round;stroke-linejoin:round;}
	.st4{fill:#1D1D1B;stroke:#EDDFD6;stroke-width:0.42;stroke-miterlimit:10;}
	.st5{fill:none;stroke:#1D1D1B;stroke-width:0.42;stroke-miterlimit:10;}
	.st6{fill:#00AEEF;}
	.st7{enable-background:new    ;}
	.st8{fill:#EDDFD6;stroke:#1D1D1B;stroke-width:0.6437;stroke-miterlimit:10;}
	.st9{fill:#EDDFD6;stroke:#1D1D1B;stroke-width:0.6073;stroke-miterlimit:10;}
	.st10{fill:#EDDFD6;stroke:#1D1D1B;stroke-width:0.5101;stroke-miterlimit:10;}
	.st11{fill:#EDDFD6;stroke:#1D1D1B;stroke-width:0.42;stroke-miterlimit:10;}
	.st12{fill:#EDDFD6;stroke:#1D1D1B;stroke-width:0.6356;stroke-miterlimit:10;}
	.st13{fill:#EDDFD6;stroke:#1D1D1B;stroke-width:0.5996;stroke-miterlimit:10;}
	.st14{fill:#EDDFD6;stroke:#1D1D1B;stroke-width:0.5037;stroke-miterlimit:10;}
	.st15{fill:#EDDFD6;stroke:#1D1D1B;stroke-width:0.422;stroke-miterlimit:10;}
	.st16{fill:#1D1D1B;stroke:#EDDFD6;stroke-width:0.422;stroke-miterlimit:10;}
	.st17{fill:none;stroke:#1D1D1B;stroke-width:0.422;stroke-miterlimit:10;}
	.st18{fill:none;stroke:#EDDFD6;stroke-width:0.422;stroke-linecap:round;stroke-linejoin:round;}
	.st19{fill:none;stroke:#EDDFD6;stroke-width:17;stroke-miterlimit:10;}
	.st20{fill:#EDDFD6;stroke:#EDDFD6;stroke-width:0.42;stroke-miterlimit:10;}
	.st21{fill:#EDDFD6;stroke:#1D1D1B;stroke-width:0.4786;stroke-miterlimit:10;}
	.st22{fill:#1D1D1B;stroke:#EDDFD6;stroke-width:0.4786;stroke-miterlimit:10;}
	.st23{fill:none;stroke:#1D1D1B;stroke-width:0.4786;stroke-miterlimit:10;}
	.st24{fill:none;stroke:#EDDFD6;stroke-width:0.4786;stroke-miterlimit:10;}
	.st25{fill:none;stroke:#EDDFD6;stroke-width:0.9265;stroke-miterlimit:10;}
	.st26{fill:#1D1D1B;stroke:#EDDFD6;stroke-width:0.53;stroke-miterlimit:10;}
	.st27{fill:#1D1D1B;stroke:#EDDFD6;stroke-width:0.6436;stroke-miterlimit:10;}
	.st28{fill:#EDDFD6;stroke:#1D1D1B;stroke-width:0.6436;stroke-miterlimit:10;}
	.st29{fill:#EDDFD6;stroke:#1D1D1B;stroke-width:0.6072;stroke-miterlimit:10;}
	.st30{fill:#EDDFD6;stroke:#1D1D1B;stroke-width:0.51;stroke-miterlimit:10;}
	.st31{fill:none;stroke:#EDDFD6;stroke-width:10.3992;stroke-miterlimit:10;}
	.st32{fill:#1D1D1B;stroke:#1D1D1B;stroke-width:0.42;stroke-linecap:round;stroke-linejoin:round;}
	.st33{fill:none;stroke:#1D1D1B;stroke-width:0.42;stroke-linecap:round;stroke-miterlimit:10;}
	.st34{fill:#231F20;}
	.st35{fill:none;stroke:#231F20;stroke-width:0.3187;}
	.st36{font-family:'NotoSans-Bold';}
	.st37{font-size:19px;}
</style>
<g id="_x32_2">
	<rect x="-0.8" y="-0.3" class="st0" width="136.1" height="135.3"/>
	<g class="st7">
		<path class="st1" d="M43.9,86.7v-3.6c-1.8,2.8-4.5,4.2-8,4.2c-2.3,0-4.4-0.6-6.3-1.9c-1.9-1.3-3.4-3-4.4-5.3
			c-1-2.2-1.6-4.8-1.6-7.7c0-2.8,0.5-5.4,1.4-7.7c0.9-2.3,2.4-4.1,4.3-5.3c1.9-1.2,4-1.9,6.4-1.9c1.7,0,3.3,0.4,4.6,1.1
			c1.3,0.7,2.4,1.7,3.3,2.8V47.3h4.8v39.4H43.9z M28.6,72.5c0,3.7,0.8,6.4,2.3,8.2c1.5,1.8,3.4,2.7,5.5,2.7c2.1,0,3.9-0.9,5.4-2.6
			c1.5-1.7,2.2-4.4,2.2-7.9c0-3.9-0.8-6.8-2.3-8.6s-3.4-2.7-5.6-2.7c-2.1,0-3.9,0.9-5.4,2.6C29.3,65.9,28.6,68.7,28.6,72.5z"/>
		<path class="st1" d="M75.5,77.5l5,0.6c-0.8,2.9-2.2,5.2-4.4,6.8c-2.1,1.6-4.9,2.4-8.2,2.4c-4.2,0-7.5-1.3-9.9-3.9
			c-2.4-2.6-3.7-6.2-3.7-10.8c0-4.8,1.2-8.5,3.7-11.2s5.7-4,9.6-4c3.8,0,6.9,1.3,9.3,3.9c2.4,2.6,3.6,6.2,3.6,11c0,0.3,0,0.7,0,1.3
			H59.3c0.2,3.1,1.1,5.5,2.7,7.2c1.6,1.7,3.6,2.5,6,2.5c1.8,0,3.3-0.5,4.5-1.4C73.8,81.1,74.8,79.6,75.5,77.5z M59.6,69.7h15.9
			c-0.2-2.4-0.8-4.2-1.8-5.4c-1.5-1.9-3.5-2.8-6-2.8c-2.2,0-4.1,0.7-5.6,2.2C60.6,65.2,59.8,67.2,59.6,69.7z"/>
		<path class="st1" d="M83.3,86.7l10.4-14.8l-9.6-13.7h6l4.4,6.7c0.8,1.3,1.5,2.3,2,3.2c0.8-1.2,1.5-2.2,2.2-3.1l4.8-6.7h5.8
			l-9.9,13.4L110,86.7h-5.9l-5.9-8.9l-1.6-2.4l-7.5,11.3H83.3z"/>
	</g>
	<g>
		<path class="st1" d="M-0.1-0.1h28.5V20c0,3.8-3.1,6.8-6.8,6.8H-0.1V-0.1z"/>
		<text transform="matrix(1 0 0 1 2.4308 -2.248)" class="st0 st36 st37">22</text>
		<g>
			<path class="st0" d="M13.5,20.4H4v-2L7.4,15c0.7-0.7,1.2-1.3,1.7-1.8s0.7-0.9,0.9-1.3c0.2-0.4,0.3-0.8,0.3-1.2
				c0-0.5-0.1-0.9-0.4-1.2S9.1,9,8.6,9c-0.5,0-1,0.1-1.5,0.4s-1,0.6-1.6,1L4,8.6c0.4-0.3,0.8-0.6,1.2-0.9c0.4-0.3,1-0.5,1.5-0.7
				S8,6.6,8.8,6.6c0.9,0,1.6,0.2,2.3,0.5c0.6,0.3,1.1,0.8,1.5,1.3c0.3,0.6,0.5,1.2,0.5,1.9c0,0.7-0.1,1.4-0.4,2.1
				c-0.3,0.6-0.7,1.2-1.3,1.8s-1.2,1.3-2,2l-1.7,1.6V18h5.9V20.4z"/>
			<path class="st0" d="M24.4,20.4h-9.5v-2l3.4-3.4c0.7-0.7,1.2-1.3,1.7-1.8s0.7-0.9,0.9-1.3c0.2-0.4,0.3-0.8,0.3-1.2
				c0-0.5-0.1-0.9-0.4-1.2S20,9,19.5,9c-0.5,0-1,0.1-1.5,0.4s-1,0.6-1.6,1l-1.6-1.8c0.4-0.3,0.8-0.6,1.2-0.9c0.4-0.3,1-0.5,1.5-0.7
				s1.3-0.3,2.1-0.3c0.9,0,1.6,0.2,2.3,0.5c0.6,0.3,1.1,0.8,1.5,1.3C23.8,9,24,9.6,24,10.3c0,0.7-0.1,1.4-0.4,2.1
				c-0.3,0.6-0.7,1.2-1.3,1.8s-1.2,1.3-2,2l-1.7,1.6V18h5.9V20.4z"/>
		</g>
	</g>
</g>
</svg>
