<?xml version="1.0" encoding="UTF-8"?>
<svg id="Capa_1" data-name="Capa 1" xmlns="http://www.w3.org/2000/svg" viewBox="0 0 134.89 134.89">
  <defs>
    <style>
      .cls-1 {
        font-family: NotoSans-Bold, 'Noto Sans';
        font-size: 19px;
        font-weight: 700;
      }

      .cls-1, .cls-2 {
        fill: #1d1d1b;
      }

      .cls-1, .cls-3 {
        isolation: isolate;
      }

      .cls-4 {
        fill: #eddfd6;
      }
    </style>
  </defs>
  <g id="_37" data-name=" 37">
    <path class="cls-2" d="M-.37-.15h135.62v135.74H-.37V-.15Z"/>
    <path class="cls-4" d="M-.04-.18h28.48v20.18c0,3.78-3.06,6.84-6.84,6.84H-.04V-.18Z"/>
    <g>
      <path class="cls-4" d="M123.46,54.18c-7.21,7.21-16.3,12.85-26.61,13.99-3.71.41-8.06-.29-11.47.91-.75.26-1.46.63-2.15,1.01l4.57,24.72c-.28,3.22.38,7.11,0,10.25-.1.8-.74,1.28-1.52,1.3l-10.99-.06c-1.23-.48-1.21-1.93-1.7-3.03-3.76-8.44-18.49-8.15-21.85.53-.46,1.19-.26,2.4-1.94,2.56-3.64.34-7.8-.26-11.49,0-.71-.04-1.23-.66-1.4-1.3v-9.79c1-7.39,2.72-14.7,3.69-22.09.03-.24.21-1.27.12-1.38-.17-.03-.32-.06-.48-.14-8.35-3.92-17.02-7.88-25.22-12.05-1.41-.72-1.9-.67-2.47-2.26-.6-1.69-1.84-5.39-2.08-7.04-.14-.93,0-1.24.4-2.02,1.61-3.15,3.86-6.19,5.53-9.33.25-.49.65-.75,1.2-.83h66.32c1.13.12,1.09,1.02,1.71,1.66l8.64.03c1.26.17,1.25,1.46,1.81,1.56h29.06c8.09,1.64,1.49,9.63-1.68,12.8ZM84.53,38.9s0-.19-.12-.27c-.21-.15-.57-.29-.83-.3H17.92c-.44.03-.9.29-1.18.63-1.72,3.21-3.92,6.23-5.63,9.45-.45.85-.51,1.13-.31,2.11.33,1.58,1.08,3.8,1.58,5.4.15.5.52,1.83.75,2.18.12.19.47.45.66.58.39.25,1.04.54,1.49.76,8.28,4.11,16.88,7.52,25,11.94.23.13.56.13.76.47-.15.41-.05.82-.1,1.23-.65,5.42-2.02,11.21-2.92,16.68-.28,1.68-.74,3.81-.9,5.41-.3,3.06.22,6.57-.01,9.68.15.74.64,1.22,1.4,1.3l11.58-.04c.43-.13.69-.4.88-.8.77-1.61.79-2.8,2.08-4.34,5.08-6.07,17.1-5.46,20.7,1.92.31.62.67,2.37.96,2.72.17.2.6.12.75.51h11.11c.06-.19.35-.19.39-.24.1-.11-.08-.41.37-.31l-.11-.45.34.11v-10.31c-1.37-6.73-2.6-13.71-3.83-20.6-.18-.99-.53-2.04-.67-3.05-.02-.17-.1-1.21-.07-1.29.17-.39,1.76-1.01,2.22-1.17,3.25-1.15,6.29-.62,9.71-.82,1.92-.11,3.8-.42,5.68-.8,2.12-.43,4.38-1.03,6.35-1.87.23-.1.98-.36,1.11-.47.19-.17.08-.47.11-.51.03-.04.55.14.81.09.11-.02,1.04-.56,1.24-.66.38-.21,1.42-1.11,1.56-1.17.45-.2.34-.03.92-.43,3.07-2.06,6.36-4.21,8.93-6.83.09-.09.14-.29.19-.31.13-.07.39,0,.43-.02.14-.12-.45-.67-.34-.79l.9.06c.23-.13-.06-.46,0-.51.04-.04.27.13.45.06.2-.08.44-.61.78-.64-.38-.9.68-.88.87-1.1.1-.13-.12-.4-.07-.45s.28.16.45.06c.14-.08,1.46-1.86,1.65-2.14.9-1.35,1.34-2.35,1.63-3.94.04-.2.25-.33.23-.56-.02-.15-.18-.26-.2-.38-.08-.37-.19-1.31-.51-1.57-.16-.13-.43-.09-.51-.17-.09-.09-.05-.44-.16-.52-.07-.05-.29-.01-.42-.08-.45-.25-.79-.45-1.31-.61l-30.01-.06c-.05-.21-.53-.5-.55-.53-.05-.08.09-.25.07-.36-.05-.28-.68-.52-.94-.63-2.7-.02-5.4,0-8.11-.01-.22,0-.53.11-.66.09-.37-.07-.49-.9-.7-1.21-.08-.12-.25-.1-.27-.12.12.12-.1.35-.22.22s.1-.34.22-.22Z"/>
      <path class="cls-4" d="M84.53,38.9c-.12-.12-.35.1-.22.22s.34-.1.22-.22c.02.02.19,0,.27.12.21.31.33,1.14.7,1.21.13.02.44-.09.66-.09,2.7.02,5.4,0,8.11.01.26.11.88.35.94.63.02.11-.12.27-.07.36.02.03.49.32.55.53l30.01.06c.52.16.86.35,1.31.61.12.07.34.03.42.08.11.08.07.43.16.52.08.08.35.04.51.17.32.26.43,1.2.51,1.57.03.12.18.23.2.38.02.23-.19.36-.23.56-.28,1.6-.73,2.59-1.63,3.94-.18.27-1.5,2.05-1.65,2.14-.17.1-.4-.11-.45-.06s.17.33.07.45c-.19.23-1.25.2-.87,1.1-.34.04-.58.56-.78.64-.18.07-.4-.1-.45-.06-.06.05.23.38,0,.51l-.9-.06c-.12.12.48.67.34.79-.04.03-.29-.05-.43.02-.05.03-.1.23-.19.31-2.58,2.63-5.86,4.77-8.93,6.83-.59.39-.47.23-.92.43-.14.06-1.18.96-1.56,1.17-.19.11-1.12.64-1.24.66-.26.05-.77-.13-.81-.09-.03.03.07.34-.11.51-.12.11-.87.37-1.11.47-1.97.84-4.23,1.44-6.35,1.87-1.88.38-3.76.69-5.68.8-3.42.2-6.46-.34-9.71.82-.45.16-2.04.78-2.22,1.17-.03.07.04,1.12.07,1.29.13,1.01.49,2.06.67,3.05,1.23,6.89,2.46,13.87,3.84,20.6v10.31s-.34-.11-.34-.11l.11.45c-.45-.1-.27.19-.37.31-.04.05-.32.05-.39.25h-11.11c-.16-.4-.58-.32-.75-.52-.29-.35-.66-2.1-.96-2.72-3.61-7.38-15.62-7.99-20.7-1.92-1.29,1.54-1.31,2.73-2.08,4.34-.19.4-.46.67-.88.8l-11.58.04c-.77-.08-1.25-.56-1.4-1.3.23-3.11-.29-6.62.01-9.68.16-1.6.62-3.73.9-5.41.9-5.47,2.27-11.26,2.92-16.68.05-.4-.05-.82.1-1.23-.19-.34-.52-.34-.76-.47-8.12-4.42-16.72-7.83-25-11.94-.45-.22-1.1-.51-1.49-.76-.2-.12-.54-.39-.66-.58-.23-.35-.6-1.68-.75-2.18-.5-1.6-1.25-3.82-1.58-5.4-.2-.98-.14-1.26.31-2.11,1.71-3.23,3.91-6.25,5.63-9.45.27-.34.73-.6,1.18-.63h65.67c.26,0,.62.15.83.3.12.08.1.25.12.27ZM14.77,48.25h70.72c.26,0,.08-.49.05-.61-.47-1.59-1.56-3.76-2.23-5.23-.19-.42-.33-1.34-.85-1.38H18.71s-.22.12-.22.12c-1.15,2.16-2.37,4.29-3.62,6.39-.05.08-.62.54-.09.7ZM87.12,42.96s-.09-.12-.36-.09c-.68.07-.11.37-.1.4.04.12,0,.3.07.47.61,1.51,1.29,3,1.91,4.51h6.98c.47,0-.39-1.69-.62-1.86.16-.13.43.06.34-.28-.18,0-.37.04-.51-.11-.28-.31-.78-1.73-1.05-2.21-.1-.18-.45-.82-.58-.88l-5.52.06c-.19-.01-.38.02-.56,0ZM127.78,43.63h-.22v.34h.22v-.34ZM124.74,43.86h-.34v.22h.34v-.22ZM119.11,46.56c1.22,0,3.32-.82,4.37-1.45.33-.2,1.42-.5.64-.91h-26.58c-.25.03-.42.33-.35.57l1.71,3.49c3.75-.03,7.51.02,11.25-.01l.28-.33c.22,0,.45,0,.68,0,.37,0,.75.15,1.28.1.17-.02.6-.03.52-.32.15,0,.3,0,.45,0,.28.01,1.08.42,1.13-.23.11,0,.23,0,.34,0,.68.02.6.03,1.3-.1.34-.07.97.22.84-.35.11,0,.23,0,.34,0,.17,0,.63.39.68-.23.07,0,.15,0,.23,0,.19.01.62.38.68-.23.08,0,.15,0,.23,0ZM124.85,44.53c-.12-.12-.35.1-.22.22s.35-.1.22-.22ZM97.15,45.43c-.12-.12-.35.1-.22.22s.35-.1.22-.22ZM125.3,47.24c-.12-.12-.35.1-.22.22s.35-.1.22-.22ZM121.13,52.08c.18-.01.38.14.56.06.15-.06.29-.36.41-.5.07-.08.24-.11.25-.14.06-.11-.16-.32-.07-.52.02-.05.77-.65.88-.78.44-.52.81-1.11,1.16-1.68.14-.23.75-.46.24-.94-.4.3-.91.29-1.32.46-2.44,1.02-4.76,1.77-7.37,2.21-.3.05-1.24-.2-1.28.37-.07,0-.15,0-.23,0-.01,0-.12-.11-.27-.12-.38-.02-1.21-.14-1.19.34-.11,0-.23,0-.34,0-.47,0-1.04-.17-1.63-.11-.2.02-.57.03-.51.34-.15.01-.3-.01-.45,0-.12-.19-.43-.11-.62-.11-3.05-.04-6.14-.02-9.18.06-.05.02-.23.2-.23.22v13.06c0,.21.8.2.96.17,2.1-.3,5.66-1.78,7.51-2.74s3.5-2.21,5.36-3.3c.11-.07.14-.23.16-.24.17-.08.49.15.54.09.01-.02-.02-.28.06-.45.05-.09.57-.47.69-.55.73-.48,1.55-1.13,2.24-1.71.39-.32.46-.44.73-.79.71-.26.69-.52,1.21-.9.13-.09.38-.06.46-.14s.1-.51.14-.54c.1-.07.35.18.62.01.43-.27.3-.69.51-1.14ZM98.95,48.59c-.12-.12-.35.1-.22.22s.35-.1.22-.22ZM89.83,65.25c1.01-.03,2.03.05,3.04,0,.75.14,1.89.2,2.65.12.26-.03.39-.04.39-.34.11,0,.23,0,.34,0,.18,0,.44.22.83.09s.07-.39.07-.43c-.14-4.2-.19-9.1,0-13.29,0-.02.13-.12.12-.28-.04-.45-.44-.18-.74-.17-2.01.04-4.76-.25-6.65-.01-.19.02-.34.04-.45.23l-.06,13.8c.07.63.29.28.46.28ZM86.56,51.51s.28-.53.05-.56l-72.58.05c-.17.12-.11.37-.08.54.21,1.16.91,2.93,1.29,4.12.09.28-.02.65.27.86,2.76,1.28,5.47,2.58,8.23,3.91,5,2.4,10.17,4.81,15.24,7.31.22.11.76.23.88.33.15.12.04.27.08.34.02.03.26-.1.37-.08.08.01,1.35.61,1.4.67.07.08,0,.28.02.31.04.05.35-.13.49-.12.07,0,.06.18.16.22,2.7,1.04,4.28,1.71,6.1,3.95-.12-.12-.35.1-.22.22s.34-.1.22-.22c.01.01.2.01.32.18.21.3.63,1.01.68,1.35.23,1.39-.24,3.49,0,4.83.09.5.38.17.45.17,7.94-.26,16.03.19,23.99,0,.84.48.5-.89.56-1.41.68-6.09,5.12-10.96,10.96-12.45.09-.02.07-.19.16-.22.3-.08.7-.07,1.05-.23l-.11-.34c.18-4.52-.24-9.24,0-13.74ZM124.62,51.51c-.12-.12-.35.1-.22.22s.35-.1.22-.22ZM122.37,51.97c-.12-.12-.35.1-.22.22s.35-.1.22-.22ZM122.82,52.64c-.12-.12-.35.1-.22.22s.35-.1.22-.22ZM123.05,53.09c-.12-.12-.35.1-.22.22s.35-.1.22-.22ZM119.89,56.02c-.12-.12-.35.1-.22.22s.35-.1.22-.22ZM119.44,56.24c-.12-.12-.35.1-.22.22s.35-.1.22-.22ZM119.22,56.81c-.12-.12-.45.22-.34.34s.45-.22.34-.34ZM117.42,58.05c-.21-.07-.55.34-.45.45.21.07.55-.34.45-.45ZM114.26,58.5c-.12-.12-.35.1-.22.22s.35-.1.22-.22ZM110.43,60.97c-.12-.12-.35.1-.22.22s.35-.1.22-.22ZM44.22,72.46c-.12-.12-.35.1-.22.22s.35-.1.22-.22ZM45.01,72.69c-.16.03-.46-.33-.56-.23-.17.16.62.81.56.23ZM80.48,72.46c-.3-.32-1.3,1.35-1.42,1.56-.83,1.42-1.57,3.63-1.72,5.26-.05.55,0,1.12,0,1.67,1.26,1.73,2.53,3.46,3.83,5.16.58.75,1.26,1.74,1.89,2.42.11.12.12.31.36.26l-2.93-16.33ZM43.77,72.69c-.12-.12-.35.1-.22.22s.35-.1.22-.22ZM43.32,72.91c-.12-.12-.35.1-.22.22s.35-.1.22-.22ZM43.54,74.6c-.02.1.02.23,0,.34-.64.05-.24.76-.23,1.01,0,.07,0,.15,0,.23-.65.05-.24.85-.23,1.13,0,.11,0,.23,0,.34-.64.05-.24.76-.23,1.01,0,.07,0,.15,0,.23-.65.05-.24.85-.23,1.13,0,.11,0,.23,0,.34-.64.05-.24.76-.23,1.01,0,.07,0,.15,0,.23-.58,0-.23.8-.23,1.01,0,.11,0,.23,0,.34-.66-.15-.24.69-.23,1.01,0,.11,0,.23,0,.34-.65.05-.24.85-.23,1.13,0,.11,0,.23,0,.34-.63.05-.24.67-.23.9,0,.11-.01.23,0,.34-.5-.07-.38,1.09-.29,1.24.26.41.54-.41.62-.57.36-.03.51-.59.68-.9.53-.32,2.09-2.67,2.48-3.38.02-.02.12.03.2-.02.18-.43,1.6-2.01,1.6-2.28,0-.09-.11-.15-.11-.17-.07-1.67-.07-3.63,0-5.29,0-.02.11-.09.11-.18.03-.51-1.04-1.05-1.31-1.39-.15-.19-.14-.44-.16-.46-.04-.03-.26.12-.44.06-.2-.07-.77-.58-.98-.61-.28-.04-.72,1.33-.38,1.56ZM43.32,73.36c-.12-.12-.35.1-.22.22s.35-.1.22-.22ZM46.02,73.59c-.12-.12-.35.1-.22.22s.35-.1.22-.22ZM47.82,82.6c-.12-.12-.35.1-.22.22s.35-.1.22-.22ZM75.86,84.06c-.27-.45-.45-.97-.9-1.29l-25.84-.06-.35.21c-.65.95-1.29,1.92-1.97,2.85-.62.86-1.47,1.6-1.8,2.56-.42.27-2.59,3.12-2.82,3.65-.08.17-.22.42,0,.58.38.26,4.96-.08,5.78.03.36-.08.66-.63.92-.89.36-.36.56-.48.85-.89,2.83-1.72,4.48-2.97,7.85-3.8.27-.07.96.08.93-.36.07,0,.15,0,.23,0,.01,0,.13.11.27.12.31.01,1.03.05.97-.34.15-.02.3.02.45,0h4.62c.11.01.23-.01.34,0,.03.53.94.28,1.29.34,1.14.2,2.75.73,3.87,1.19,2.51,1.04,5.01,2.91,6.6,5.11h5.29c.07,0,.17-.19.17-.28,0-.08-.87-1.22-.93-1.27-.08-.05-.17-.01-.2-.02-.32-.64-.08-.47-.68-.9-.89-1.77-2.92-4.04-4.23-5.67-.32-.4-.22-.52-.72-.86ZM65.28,89.58c.07-.31-.31-.32-.51-.34-1.08-.1-2.84-.06-3.95,0-.2.01-.91-.02-.84.34-.07,0-.15,0-.23,0-.25-.21-1.04-.24-1.01.23-.07,0-.15,0-.23,0-2.67-.06-5.16,1.95-7.21,3.43-.17.13-.48.14-.53.2-.08.08-.05.33-.13.46-.07.11-.46.25-.46.36v5.57c.7-.02,1.03-.88,1.46-1.29,1.47-1.42,3.27-2.61,5.19-3.36.52-.2,1.25-.45,1.73-.52.25-.04.39-.02.39-.34.07,0,.15,0,.23,0,.22,0,.86.41.9-.23.11,0,.23,0,.34,0,.02,0,.13.11.27.12.38.01,1.51.18,1.53-.34.34,0,.68,0,1.01,0-.09.3.45.32.62.34.51.04.94-.1,1.29-.11.15,0,.3,0,.45,0,.05.62.59.23.79.23.07,0,.15,0,.23,0-.03.49,1.32.46,1.46.58.05.05-.02.27,0,.32.01.03.32-.11.48-.09.14.02,1.91.82,1.97.9.08.09,0,.26.03.31.01.03.28-.11.44-.06.18.06,1.34.87,1.69,1.07.13.18.73,1.01.82,1.1.08.07.29.03.37.14.09.12.01.36.07.44.05.06.34.04.47.12.12.07.4.79.7.35.25-.38-.08-3.84.05-4.56-.02-.11-.39-.62-.47-.71-.06-.06-.19-.01-.2-.02-.1-.12.18-.08-.23-.23-.36-1.01-3.19-2.79-4.22-3.27-.78-.36-1.53-.66-2.31-.67-.07,0-.15,0-.23,0-.05-.61-.49-.24-.68-.23-.07,0-.15,0-.23,0-.05-.64-.76-.24-1.01-.23-.11,0-.23,0-.34,0ZM74.4,92.96c-.12-.12-.35.1-.22.22s.35-.1.22-.22ZM40.17,103.2h6.93s.17-.16.17-.17v-7.43s-.16-.17-.17-.17h-6.93v7.77ZM84.65,96c-.35-.18-.62,0-.95,0-1.63.03-3.76-.19-5.3-.01-.11.01-.39.05-.39.17v6.87s.16.17.17.17h6.31s.17-.16.17-.17v-7.04Z"/>
      <path class="cls-4" d="M14.77,48.25c-.53-.16.04-.62.09-.7,1.25-2.11,2.47-4.23,3.62-6.39l.22-.12h63.75c.52.04.66.96.85,1.37.67,1.47,1.76,3.63,2.23,5.23.04.12.21.61-.05.61H14.77ZM85.32,48.02l-2.61-6.45-.26-.19-63.6.02-.24.21c-.99,2.03-2.6,4.01-3.56,6.01-.07.14-.14.23-.11.4h70.38Z"/>
      <path class="cls-4" d="M48.5,73.36c-1.83-2.24-3.4-2.91-6.1-3.95-.1-.04-.1-.21-.16-.22-.14-.02-.45.17-.49.12-.02-.03.04-.22-.02-.31-.05-.06-1.33-.66-1.4-.67-.11-.02-.36.11-.37.08-.04-.07.08-.22-.08-.34-.13-.1-.67-.23-.88-.33-5.06-2.5-10.23-4.91-15.24-7.31-2.76-1.32-5.47-2.63-8.23-3.91-.29-.2-.18-.57-.27-.86-.38-1.18-1.09-2.96-1.29-4.12-.03-.17-.08-.43.08-.54l72.58-.05c.23.03-.05.53-.05.56l-.38-.23H14.27c.35,1.65.85,3.28,1.41,4.85l.29.28c8.67,4.12,17.33,8.25,25.98,12.42,2.58,1.24,5.98,2.36,7.43,5.07.97,1.82.16,4.05.58,6-.07,0-.36.34-.45-.17-.25-1.35.23-3.44,0-4.83-.06-.34-.47-1.05-.68-1.35-.12-.16-.31-.16-.32-.18.12.12-.1.35-.22.22s.1-.34.22-.22Z"/>
      <path class="cls-4" d="M110.44,47.91l-.28.33c-3.74.03-7.5-.02-11.25.01l-1.71-3.49c-.07-.24.09-.54.35-.57h26.58c.78.42-.31.72-.64.91-1.06.63-3.15,1.45-4.37,1.45l3.66-1.35c.27-.19.67-.26.93-.42.12-.07.19,0,.14-.25h-26.35c.34,1.21,1.01,2.41,1.65,3.47,3.11,0,6.22.05,9.33.02.62,0,1.27-.13,1.97-.12Z"/>
      <path class="cls-4" d="M114.6,50.61c.03-.57.98-.32,1.28-.37,2.61-.44,4.93-1.19,7.37-2.21.41-.17.92-.16,1.32-.46.51.48-.09.71-.24.94-.35.57-.72,1.16-1.16,1.68-.11.13-.86.73-.88.78-.08.2.14.41.07.52-.02.03-.19.06-.25.14-.12.14-.26.44-.41.5-.18.08-.38-.07-.56-.06-.21.45-.07.86-.51,1.14-.27.17-.52-.08-.62-.01-.04.03-.06.46-.14.54s-.33.04-.46.14c-.51.38-.49.64-1.21.9-.26.35-.34.47-.73.79-.69.58-1.51,1.23-2.24,1.71-.12.08-.64.46-.69.55-.09.17-.05.43-.06.45-.05.06-.37-.17-.54-.09-.02,0-.04.18-.16.24-1.85,1.09-3.45,2.3-5.36,3.3s-5.41,2.44-7.51,2.74c-.17.02-.96.04-.96-.17v-13.06s.17-.2.23-.22c3.04-.08,6.12-.1,9.18-.06.19,0,.5-.07.62.11-.02,0-.13.11-.27.12-3.13.19-6.27.08-9.41.11v12.89s.11.15.23.12c5.74-1.45,9.56-3.55,14.29-7,.91-.67,2.48-2.2,3.39-2.52.02-.03.01-.14.06-.22.14-.22,2.33-2.21,2.59-2.38.1-.07.16-.1.28-.11.38-.82,1.68-1.94,2.3-2.71.29-.37.72-.9.8-1.34-2.42,1.07-5.07,1.87-7.69,2.33-.6.11-1.35.28-1.94.26Z"/>
      <path class="cls-4" d="M75.86,84.06c.5.34.4.45.72.86,1.31,1.63,3.34,3.91,4.23,5.67.59.43.35.26.68.9.02.01.12-.03.2.02.06.05.93,1.19.93,1.27,0,.09-.1.28-.17.28h-5.29c-1.6-2.19-4.09-4.07-6.6-5.11-1.12-.46-2.73-.99-3.87-1.19-.35-.06-1.26.19-1.29-.34,4.78.61,9.03,2.58,11.99,6.42h4.79c-.13-.45-.44-.88-.68-1.35-.55-.33-.41-.38-.68-.9-.61-.45-1.39-1.56-1.91-2.23-1.07-1.37-2.19-2.85-3.04-4.31-.03-.02-.14,0-.28-.11-.19-.17-.43-.64-.63-.84l-25.73-.05-.29.16-3.66,5.01c-.06.12-.23.08-.28.11-.41,1.2-1.81,2.42-2.46,3.57-.07.13-.17.2-.13.37h5.57c.09,0,1.01-1.08,1.24-1.24.21-.15.39-.15.51-.22,1.16-1.66,6.76-4.24,8.78-4.17.03.45-.66.3-.93.36-3.37.84-5.03,2.08-7.85,3.8-.29.41-.49.54-.85.89-.26.26-.56.8-.92.89-.82-.1-5.4.23-5.78-.03-.22-.15-.08-.4,0-.58.23-.53,2.41-3.39,2.82-3.65.33-.96,1.17-1.71,1.8-2.56.68-.93,1.32-1.9,1.97-2.85l.35-.21,25.84.06c.45.32.64.84.9,1.29Z"/>
      <path class="cls-4" d="M97.15,51.4l-7.43-.11.11,13.96c-.16,0-.38.36-.46-.28l.06-13.8c.1-.19.25-.21.45-.23,1.89-.24,4.64.05,6.65.01.3,0,.69-.28.74.17.01.15-.12.26-.12.28Z"/>
      <path class="cls-4" d="M58.52,89.8c-1.41.44-2.74.83-4.06,1.52-1.06.55-2.75,1.66-3.55,2.53-.75.81-.38,2.26-.38,3.33,0,.51-.04.81-.02,1.36,0,.16-.25.81.18.72.14-.03.81-.95,1.01-1.13,1.43-1.35,5.31-3.85,7.27-3.82,0,.32-.14.31-.39.34-.48.07-1.21.31-1.73.52-1.93.75-3.72,1.94-5.19,3.36-.43.42-.76,1.28-1.46,1.29v-5.57c0-.11.39-.25.46-.36.08-.13.06-.38.13-.46.06-.06.36-.07.53-.2,2.05-1.48,4.54-3.49,7.21-3.43Z"/>
      <path class="cls-4" d="M86.56,65.25l.11.34c-.34.16-.74.15-1.05.23-.09.02-.07.19-.16.22-5.84,1.48-10.27,6.35-10.96,12.45-.06.52.28,1.89-.56,1.41.39-.19.18-.68.24-1.06.83-5.79,3.69-10.03,9.11-12.4,1.07-.46,2.19-.75,3.26-1.19Z"/>
      <path class="cls-4" d="M87.12,42.96l-.33.27,2.02,4.8h6.76l-2.5-4.93c-1.66-.11-3.34.06-5-.02-.2,0-.35-.12-.38-.12l5.52-.06c.13.06.48.7.58.88.27.49.78,1.9,1.05,2.21.14.15.33.11.51.11.09.34-.18.15-.34.28.23.17,1.09,1.86.62,1.86h-6.98c-.62-1.51-1.29-3-1.91-4.51-.07-.17-.03-.35-.07-.47-.01-.03-.59-.33.1-.4.26-.03.32.09.36.09Z"/>
      <path class="cls-4" d="M74.29,93.97c.41.15.12.11.23.23.01.01.14-.04.2.02.09.09.45.6.47.71-.13.72.2,4.18-.05,4.56-.3.44-.58-.27-.7-.35-.13-.08-.42-.07-.47-.12-.06-.07.02-.31-.07-.44-.08-.11-.29-.07-.37-.14-.09-.09-.69-.92-.82-1.1-.35-.2-1.51-1.01-1.69-1.07-.17-.06-.43.09-.44.06-.02-.05.05-.22-.03-.31-.07-.08-1.84-.88-1.97-.9-.15-.03-.46.12-.48.09-.03-.06.04-.28,0-.32-.14-.12-1.49-.09-1.46-.58,1.36-.01,5.29,1.95,6.08,3.04.09.05.27.07.44.17.27.16,1.55,1.68,1.7,1.52-.06-1.11.21-2.21.11-3.32-.02-.28-.28-1.39-.45-1.52-.14-.11-.08.18-.23-.23-.5-.18-2.07-1.75-2.8-2.21-1.17-.74-2.47-1.17-3.73-1.73.78.01,1.54.31,2.31.67,1.03.48,3.86,2.26,4.22,3.27Z"/>
      <path class="cls-4" d="M43.54,74.6c-.34-.24.1-1.6.38-1.56.21.03.78.54.98.61.18.06.41-.09.44-.06.02.02,0,.27.16.46.27.33,1.34.87,1.31,1.39,0,.09-.11.16-.11.18-.33-.6-2.07-2.15-2.66-2.24-.14-.02-.2.06-.24.18.07.38-.19.76-.25,1.05Z"/>
      <path class="cls-4" d="M65.05,86.42h-4.62c1.96-.22,2.71-.21,4.62,0Z"/>
      <path class="cls-4" d="M59.99,89.58c-.07-.36.64-.33.84-.34,1.11-.06,2.87-.1,3.95,0,.2.02.57.03.51.34-.37.01-.75-.11-.96-.11h-3.15c-.22,0-.87.09-1.18.11Z"/>
      <path class="cls-4" d="M46.7,80.91s.11.08.11.17c0,.27-1.42,1.86-1.6,2.28-.07.05-.17,0-.2.02-.39.71-1.95,3.06-2.48,3.38-.17.31-.32.87-.68.9-.08.16-.36.98-.62.57-.1-.16-.21-1.31.29-1.24.03.22-.02.46,0,.68.11,0,.23,0,.34,0,.26-.52.12-.56.68-.9.44-.81,1.75-2.93,2.48-3.38.02-.04,0-.2.06-.33.32-.64,1.23-1.49,1.63-2.15Z"/>
      <path class="cls-4" d="M95.91,65.03c0,.31-.13.32-.39.34-.76.08-1.9.02-2.65-.12.99-.05,1.99-.25,3.04-.23Z"/>
      <path class="cls-4" d="M112.57,50.84c-.67.32-1.43.17-2.14.23-.07-.31.31-.32.51-.34.6-.06,1.17.11,1.63.11Z"/>
      <path class="cls-4" d="M65.17,94.08c-.36,0-.79.15-1.29.11-.17-.01-.71-.03-.62-.34.63.01,1.36-.11,1.91.23Z"/>
      <path class="cls-4" d="M116.97,47.01c.13.56-.5.28-.84.35-.7.14-.62.12-1.3.1.57-.18,1.55-.45,2.14-.45Z"/>
      <path class="cls-4" d="M62.24,93.86c-.02.53-1.15.35-1.53.34-.15,0-.26-.12-.27-.12.55-.26,1.21-.21,1.8-.23Z"/>
      <path class="cls-4" d="M112.91,47.69c.08.29-.35.31-.52.32-.53.06-.92-.09-1.28-.1.55-.21,1.22-.24,1.8-.23Z"/>
      <path class="cls-4" d="M114.38,50.61c-.43.24-.99.24-1.46.23-.02-.48.81-.36,1.19-.34.15,0,.26.12.27.12Z"/>
      <path class="cls-4" d="M59.99,86.42c.07.4-.65.36-.97.34-.15,0-.26-.12-.27-.12.35-.29.84-.18,1.24-.23Z"/>
      <path class="cls-4" d="M42.87,78.88c0,.37,0,.82-.23,1.13-.01-.27-.42-1.08.23-1.13Z"/>
      <path class="cls-4" d="M114.49,47.46c-.05.65-.85.24-1.13.23.31-.23.76-.23,1.13-.23Z"/>
      <path class="cls-4" d="M43.32,76.18c0,.37,0,.82-.23,1.13-.01-.27-.42-1.08.23-1.13Z"/>
      <path class="cls-4" d="M41.97,84.28c0,.37,0,.82-.23,1.13-.01-.27-.42-1.08.23-1.13Z"/>
      <path class="cls-4" d="M42.19,82.93c0,.34.03.75-.23,1.01-.02-.33-.44-1.16.23-1.01Z"/>
      <path class="cls-4" d="M96.25,65.03l.9-.34s.3.31-.07.43c-.39.13-.65-.09-.83-.09Z"/>
      <path class="cls-4" d="M43.54,74.94c-.05.32.02.74-.23,1.01-.01-.25-.41-.97.23-1.01Z"/>
      <path class="cls-4" d="M43.09,77.64c0,.33-.02.75-.23,1.01-.01-.25-.41-.97.23-1.01Z"/>
      <path class="cls-4" d="M42.64,80.34c0,.33-.02.75-.23,1.01-.01-.26-.41-.97.23-1.01Z"/>
      <path class="cls-4" d="M42.42,81.58c.01.34.03.75-.23,1.01,0-.22-.36-1.02.23-1.01Z"/>
      <path class="cls-4" d="M59.76,89.58c-.27.03-.53.24-1.01.23-.03-.47.76-.43,1.01-.23Z"/>
      <path class="cls-4" d="M66.63,89.8c-.31,0-.75-.06-1.01-.23.25-.01.97-.42,1.01.23Z"/>
      <path class="cls-4" d="M60.1,94.08c-.05.63-.68.23-.9.23.23-.23.59-.23.9-.23Z"/>
      <path class="cls-4" d="M41.74,85.75c0,.31,0,.67-.23.9-.01-.23-.41-.85.23-.9Z"/>
      <path class="cls-4" d="M66.4,94.31c-.2,0-.74.4-.79-.23.27,0,.58.01.79.23Z"/>
      <path class="cls-4" d="M117.98,46.78c-.05.61-.5.23-.68.23.15-.23.42-.23.68-.23Z"/>
      <path class="cls-4" d="M67.53,90.03c-.25,0-.52,0-.68-.23.19-.01.63-.38.68.23Z"/>
      <path class="cls-4" d="M118.88,46.56c-.05.6-.48.24-.68.23.17-.17.45-.22.68-.23Z"/>
      <path class="cls-4" d="M45.01,72.69c.06.58-.73-.06-.56-.23.11-.1.41.26.56.23Z"/>
      <path class="cls-4" d="M117.42,58.05c.1.11-.24.52-.45.45-.1-.11.24-.52.45-.45Z"/>
      <path class="cls-4" d="M119.22,56.81c.11.11-.22.45-.34.34s.22-.45.34-.34Z"/>
      <rect class="cls-4" x="127.55" y="43.63" width=".22" height=".34"/>
      <rect class="cls-4" x="124.4" y="43.86" width=".34" height=".22"/>
      <path class="cls-4" d="M43.32,72.91c.12.12-.1.35-.22.22s.1-.35.22-.22Z"/>
      <path class="cls-4" d="M119.44,56.24c.12.12-.1.35-.22.22s.1-.35.22-.22Z"/>
      <path class="cls-4" d="M124.85,44.53c.12.12-.1.35-.22.22s.1-.35.22-.22Z"/>
      <path class="cls-4" d="M114.26,58.5c.12.12-.1.35-.22.22s.1-.35.22-.22Z"/>
      <path class="cls-4" d="M110.43,60.97c.12.12-.1.35-.22.22s.1-.35.22-.22Z"/>
      <path class="cls-4" d="M44.22,72.46c.12.12-.1.35-.22.22s.1-.35.22-.22Z"/>
      <path class="cls-4" d="M119.89,56.02c.12.12-.1.35-.22.22s.1-.35.22-.22Z"/>
      <path class="cls-4" d="M97.15,45.43c.12.12-.1.35-.22.22s.1-.35.22-.22Z"/>
      <path class="cls-4" d="M123.05,53.09c.12.12-.1.35-.22.22s.1-.35.22-.22Z"/>
      <path class="cls-4" d="M122.82,52.64c.12.12-.1.35-.22.22s.1-.35.22-.22Z"/>
      <path class="cls-4" d="M74.4,92.96c.12.12-.1.35-.22.22s.1-.35.22-.22Z"/>
      <path class="cls-4" d="M122.37,51.97c.12.12-.1.35-.22.22s.1-.35.22-.22Z"/>
      <path class="cls-4" d="M124.62,51.51c.12.12-.1.35-.22.22s.1-.35.22-.22Z"/>
      <path class="cls-4" d="M47.82,82.6c.12.12-.1.35-.22.22s.1-.35.22-.22Z"/>
      <path class="cls-4" d="M46.02,73.59c.12.12-.1.35-.22.22s.1-.35.22-.22Z"/>
      <path class="cls-4" d="M125.3,47.24c.12.12-.1.35-.22.22s.1-.35.22-.22Z"/>
      <path class="cls-4" d="M98.95,48.59c.12.12-.1.35-.22.22s.1-.35.22-.22Z"/>
      <path class="cls-4" d="M43.77,72.69c.12.12-.1.35-.22.22s.1-.35.22-.22Z"/>
      <path class="cls-4" d="M43.32,73.36c.12.12-.1.35-.22.22s.1-.35.22-.22Z"/>
    </g>
    <text class="cls-1" transform="translate(2.47 -2.32)"><tspan x="0" y="0">39</tspan></text>
    <g class="cls-3">
      <path class="cls-2" d="M12.01,10.11c0,.94-.28,1.69-.85,2.24-.56.56-1.26.94-2.08,1.14v.06c1.08.14,1.9.47,2.47,1.01.57.53.85,1.24.85,2.13,0,.79-.19,1.49-.58,2.12-.39.63-.98,1.12-1.79,1.48s-1.84.54-3.11.54c-1.47,0-2.78-.25-3.91-.74v-2.43c.58.29,1.19.51,1.82.67.63.15,1.23.23,1.79.23,1.03,0,1.74-.18,2.16-.53s.62-.85.62-1.5c0-.37-.09-.68-.29-.95-.19-.27-.52-.46-1-.6-.48-.13-1.14-.2-1.99-.2h-1.03v-2.2h1.04c.84,0,1.47-.08,1.91-.24s.73-.37.89-.65c.16-.27.24-.58.24-.94,0-.48-.15-.86-.45-1.13-.3-.27-.8-.41-1.49-.41-.65,0-1.21.11-1.69.34-.48.23-.88.44-1.2.65l-1.33-1.98c.53-.38,1.16-.7,1.87-.95.72-.25,1.57-.38,2.56-.38,1.39,0,2.5.28,3.32.85s1.23,1.36,1.23,2.38Z"/>
      <path class="cls-2" d="M23.36,12.87c0,.77-.06,1.54-.17,2.31-.11.77-.31,1.49-.6,2.17-.29.68-.68,1.28-1.2,1.81s-1.17.94-1.96,1.23c-.79.3-1.75.45-2.88.45-.27,0-.58,0-.93-.03-.35-.02-.65-.05-.89-.1v-2.3c.25.05.52.09.8.13s.56.06.84.06c1.13,0,2-.18,2.61-.53.62-.35,1.05-.85,1.3-1.49s.4-1.38.44-2.21h-.11c-.27.44-.62.82-1.05,1.12s-1.09.46-1.95.46c-1.15,0-2.08-.37-2.77-1.12s-1.04-1.8-1.04-3.17c0-1.47.42-2.62,1.25-3.46.83-.84,1.95-1.25,3.37-1.25.92,0,1.76.21,2.51.64.75.42,1.34,1.08,1.79,1.96.44.88.67,2,.67,3.35ZM18.45,9.22c-.56,0-1.01.19-1.37.58-.35.39-.53.99-.53,1.8,0,.66.15,1.18.46,1.56.3.38.77.57,1.39.57.42,0,.79-.09,1.1-.29.32-.19.56-.43.74-.71.18-.29.27-.58.27-.88,0-.42-.08-.83-.23-1.24s-.38-.74-.68-1c-.3-.26-.68-.39-1.14-.39Z"/>
    </g>
  </g>
</svg>