<?xml version="1.0" encoding="UTF-8"?><svg xmlns="http://www.w3.org/2000/svg" viewBox="0 0 134.46 134.46"><defs><style>.d,.e{fill:#eddfd6;}.f,.g,.h{fill:#1d1d1b;}.e,.g{stroke:#eddfd6;stroke-miterlimit:10;stroke-width:.42px;}.h{font-family:Helvetica, Helvetica;font-size:11.07px;}</style></defs><g id="a"/><g id="b"><g id="c"><g><rect class="g" x=".21" y=".21" width="134.04" height="134.04"/><g><path class="e" d="M111.43,47.87v45.64H23.03V47.87c0,.27,0,.54,0,.8v.39c.45,11.12,6.87,19.94,14.72,19.94s13.75-8.12,14.62-18.6c.05-.54,.08-1.1,.09-1.65,0-.02,0-.04,0-.06,0-.27,0-.55,0-.82,0,.19,0,.37,0,.56,0,.51,.03,1.01,.06,1.52h0c.73,10.7,7.02,19.06,14.66,19.06s13.95-8.37,14.67-19.09h0c.02-.38,.04-.74,.05-1.11,.01-.31,.02-.62,.02-.93,0,.25,0,.5,0,.75,.01,.56,.04,1.11,.09,1.66v.03c.84,10.53,7.07,18.7,14.63,18.7s14.1-8.57,14.69-19.47v-.04c.01-.25,.02-.51,.03-.77,0-.29,0-.57,0-.86Z"/><g><path class="e" d="M87.54,43.45c-1.54,0-2.94,.62-3.95,1.64-1.01,1.01-1.64,2.41-1.64,3.95,0-1.54-.62-2.94-1.64-3.95-1.01-1.01-2.4-1.64-3.95-1.64,1.54,0,2.94-.62,3.95-1.64,1.01-1.01,1.64-2.41,1.64-3.95,0,3.08,2.5,5.58,5.58,5.58Z"/><path class="e" d="M58.06,43.45c-1.54,0-2.94,.62-3.95,1.64-1.01,1.01-1.64,2.41-1.64,3.95,0-1.54-.62-2.94-1.64-3.95-1.01-1.01-2.4-1.64-3.95-1.64,1.54,0,2.94-.62,3.95-1.64,1.01-1.01,1.64-2.41,1.64-3.95,0,3.08,2.5,5.58,5.58,5.58Z"/><path class="e" d="M111.43,37.87v11.17c0-.11,0-.21,0-.31-.08-1.42-.68-2.69-1.63-3.64-1.01-1.01-2.4-1.64-3.95-1.64,1.55,0,2.94-.63,3.95-1.64,1.01-1.01,1.64-2.41,1.64-3.95Z"/><path class="e" d="M28.62,43.45c-1.55,0-2.94,.62-3.95,1.64-1.01,1.01-1.64,2.4-1.64,3.95v-11.17c0,3.08,2.5,5.58,5.58,5.58Z"/></g><ellipse class="f" cx="38.53" cy="79.62" rx="1.93" ry="2.76"/><ellipse class="f" cx="67.9" cy="79.62" rx="1.93" ry="2.76"/><ellipse class="f" cx="98.4" cy="79.62" rx="1.93" ry="2.76"/><g/><g><g><path class="f" d="M81.96,83.64c-.26-.95-.77-1.82-1.49-2.54-.71-.72-1.58-1.22-2.53-1.49,.95-.26,1.82-.77,2.53-1.49,.72-.72,1.22-1.59,1.49-2.54,.54,1.94,2.08,3.48,4.02,4.02-.95,.26-1.82,.77-2.54,1.49-.72,.72-1.22,1.59-1.49,2.54Z"/><path class="d" d="M81.96,76.26c.61,1.53,1.83,2.75,3.36,3.36-.75,.3-1.44,.75-2.03,1.34-.59,.59-1.04,1.27-1.34,2.02-.3-.75-.75-1.44-1.34-2.02-.59-.59-1.27-1.04-2.02-1.34,.75-.3,1.44-.75,2.02-1.34,.59-.59,1.04-1.28,1.34-2.03m0-2.22c0,1.54-.62,2.94-1.64,3.95-1.01,1.01-2.4,1.64-3.95,1.64,1.54,0,2.94,.62,3.95,1.64,1.01,1.01,1.64,2.41,1.64,3.95,0-1.54,.62-2.94,1.64-3.95,1.01-1.01,2.41-1.64,3.95-1.64-3.08,0-5.58-2.5-5.58-5.58h0Z"/></g><g><path class="f" d="M52.48,83.64c-.26-.95-.77-1.82-1.49-2.54-.71-.72-1.58-1.22-2.53-1.49,.95-.26,1.82-.77,2.53-1.49,.72-.72,1.22-1.59,1.49-2.54,.54,1.94,2.08,3.48,4.02,4.02-.95,.26-1.82,.77-2.54,1.49-.72,.72-1.22,1.59-1.49,2.54Z"/><path class="d" d="M52.48,76.26c.61,1.53,1.83,2.75,3.36,3.36-.75,.3-1.44,.75-2.03,1.34-.59,.59-1.04,1.27-1.34,2.02-.3-.75-.75-1.44-1.34-2.02-.59-.59-1.27-1.04-2.02-1.34,.75-.3,1.44-.75,2.02-1.34,.59-.59,1.04-1.28,1.34-2.03m0-2.22c0,1.54-.62,2.94-1.64,3.95-1.01,1.01-2.4,1.64-3.95,1.64,1.54,0,2.94,.62,3.95,1.64,1.01,1.01,1.64,2.41,1.64,3.95,0-1.54,.62-2.94,1.64-3.95s2.41-1.64,3.95-1.64c-3.08,0-5.58-2.5-5.58-5.58h0Z"/></g><g><path class="f" d="M111.22,83.02c-.29-.71-.72-1.36-1.28-1.92-.71-.71-1.58-1.22-2.53-1.48,.95-.26,1.82-.77,2.53-1.49,.56-.56,.99-1.21,1.28-1.92v6.8Z"/><path class="d" d="M111.01,77.12v5.01c-.25-.42-.56-.81-.91-1.17-.59-.59-1.27-1.04-2.02-1.33,.75-.3,1.43-.75,2.02-1.34,.36-.36,.66-.75,.91-1.17m.42-3.08c0,1.54-.63,2.94-1.64,3.95s-2.4,1.64-3.94,1.64c1.54,0,2.93,.62,3.94,1.63,1.01,1.01,1.64,2.41,1.64,3.95v-11.16h0Z"/></g><g><path class="f" d="M23.24,76.21c.67,1.65,2.08,2.92,3.81,3.41-.95,.26-1.82,.77-2.54,1.48-.56,.56-.99,1.21-1.28,1.92v-6.81Z"/><path class="d" d="M23.46,77.11c.67,1.13,1.71,2.02,2.94,2.51-.75,.3-1.44,.75-2.03,1.33-.36,.36-.66,.75-.91,1.17v-5.01m-.42-3.07v11.16c0-1.54,.63-2.94,1.64-3.95,1.01-1.01,2.41-1.63,3.95-1.63-3.09,0-5.58-2.5-5.58-5.58h0Z"/></g></g><g><rect class="f" x="23.24" y="93.38" width="87.97" height="3"/><path class="d" d="M111.01,93.59v2.58H23.46v-2.58H111.01m.42-.42H23.03v3.43H111.43v-3.43h0Z"/></g></g></g><rect class="d" x=".43" y=".42" width="21.13" height="21.13"/><text class="h" transform="translate(5.13 15.21)"><tspan x="0" y="0">09</tspan></text></g></g></svg>