<?xml version="1.0" encoding="UTF-8"?>
<svg id="Capa_1" data-name="Capa 1" xmlns="http://www.w3.org/2000/svg" viewBox="0 0 134.89 134.89">
  <defs>
    <style>
      .cls-1 {
        font-family: NotoSans-Bold, 'Noto Sans';
        font-size: 19px;
        font-weight: 700;
      }

      .cls-1, .cls-2 {
        fill: #1d1d1b;
      }

      .cls-1, .cls-3 {
        isolation: isolate;
      }

      .cls-4 {
        fill: #eddfd6;
      }

      .cls-5 {
        fill: #ebdbd3;
      }
    </style>
  </defs>
  <g id="_37" data-name=" 37">
    <path class="cls-2" d="M-.37-.15h135.62v135.74H-.37V-.15Z"/>
    <path class="cls-4" d="M-.04-.18h28.48v20.18c0,3.78-3.06,6.84-6.84,6.84H-.04V-.18Z"/>
    <text class="cls-1" transform="translate(2.47 -2.32)"><tspan x="0" y="0">37</tspan></text>
    <g class="cls-3">
      <path class="cls-2" d="M15.85,20.24l5.09-11.15h-6.69v-2.41h9.73v1.81l-5.13,11.76h-3Z"/>
      <path class="cls-2" d="M12.58,9.71c0,.94-.28,1.69-.85,2.24-.56.56-1.26.94-2.08,1.14v.06c1.08.14,1.9.47,2.47,1.01.57.53.85,1.24.85,2.13,0,.79-.19,1.49-.58,2.12-.39.63-.98,1.12-1.79,1.48s-1.84.54-3.11.54c-1.47,0-2.78-.25-3.91-.74v-2.43c.58.29,1.19.51,1.82.67.63.15,1.23.23,1.79.23,1.03,0,1.74-.18,2.16-.53s.62-.85.62-1.5c0-.37-.09-.68-.29-.95-.19-.27-.52-.46-1-.6-.48-.13-1.14-.2-1.99-.2h-1.03v-2.2h1.04c.84,0,1.47-.08,1.91-.24s.73-.37.89-.65c.16-.27.24-.58.24-.94,0-.48-.15-.86-.45-1.13-.3-.27-.8-.41-1.49-.41-.65,0-1.21.11-1.69.34-.48.23-.88.44-1.2.65l-1.33-1.98c.53-.38,1.16-.7,1.87-.95.72-.25,1.57-.38,2.56-.38,1.39,0,2.5.28,3.32.85s1.23,1.36,1.23,2.38Z"/>
    </g>
    <g>
      <path class="cls-5" d="M41.09,73.4c-.87-2.68-1.52-5.42-2.01-8.15-.67-.39-1.33-.89-1.96-1.5l1.59-.79c-.65-4.42-.85-8.74-.79-12.64-1.83-.48-3.66-.94-5.55-.94-2.96,0-5.79,1.15-8.71,1.66-2.92.52-6.32.2-8.21-2.07-1-1.2-1.42-2.75-2.25-4.07s-2.42-2.42-3.86-1.87c-1.39.52-1.87,2.2-2.11,3.66-1.92,11.55-.7,24.92,4.16,35.64,2.99,6.58,8.34,12.48,15.32,14.34,7.3,1.96,15.38-.91,20.79-6.17.7-.68,1.37-1.42,2.01-2.18-3.59-3.66-6.43-8.67-8.45-14.92h.02ZM14.32,58.45l14.23,5.8c-5.64,5.62-14.45,2.44-14.23-5.8ZM18.85,84.25c5.25-9.46,21.85-9.91,26.97-.04l-26.97.04Z"/>
      <path class="cls-5" d="M91.42,38.83c.26.55.43,1.18.54,1.79,3.86,19.02-1.74,55.17-28.37,51.33-20.22-2.92-23.05-35.8-21.76-49.18.11-1.18.91-3.94,2.03-4.29,1.63-.5,5.03,2.09,6.34,2.59,9.8,3.77,22.66,3.83,32.53.17,2.16-.79,4.64-2.44,6.69-2.99.98-.26,1.74.06,2,.61v-.02ZM63.49,61.09c-3.07-7.36-12.44-7.76-15.38-.07l15.38.07ZM87.18,61.72c-2.79-7.36-12.46-8-15.27-.26l15.27.26ZM80.6,72.18l-26.97-.04c5.25,9.46,21.85,9.91,26.97.04Z"/>
      <path class="cls-5" d="M93.82,73.4c-2.01,6.25-4.86,11.26-8.45,14.92.65.76,1.31,1.5,2.01,2.18,5.42,5.27,13.49,8.13,20.79,6.17,6.99-1.87,12.33-7.76,15.32-14.34,4.86-10.72,6.08-24.08,4.16-35.64-.24-1.46-.72-3.14-2.11-3.66-1.44-.55-3.03.55-3.86,1.87s-1.26,2.86-2.25,4.07c-1.89,2.27-5.29,2.59-8.21,2.07-2.92-.52-5.75-1.66-8.71-1.66-1.89,0-3.72.46-5.55.94.06,3.9-.15,8.23-.79,12.64l1.59.79c-.63.61-1.29,1.11-1.96,1.5-.5,2.74-1.15,5.47-2.01,8.15h.02ZM106.33,64.25l14.23-5.8c.22,8.24-8.59,11.42-14.23,5.8ZM89.07,84.21c5.12-9.87,21.72-9.43,26.97.04l-26.97-.04Z"/>
    </g>
  </g>
</svg>