<?xml version="1.0" encoding="UTF-8"?>
<svg id="Capa_1" data-name="Capa 1" xmlns="http://www.w3.org/2000/svg" viewBox="0 0 134.89 134.89">
  <defs>
    <style>
      .cls-1 {
        font-family: NotoSans-Bold, 'Noto Sans';
        font-size: 19px;
        font-weight: 700;
      }

      .cls-1, .cls-2 {
        fill: #1d1d1b;
      }

      .cls-1, .cls-3 {
        isolation: isolate;
      }

      .cls-4 {
        fill: #eddfd6;
      }

      .cls-5 {
        fill: #ebdbd3;
      }
    </style>
  </defs>
  <g id="_34" data-name=" 34">
    <path class="cls-2" d="M-.62-.15h135.62v135.74H-.62V-.15Z"/>
    <path class="cls-4" d="M-.29-.18h28.48v20.18c0,3.78-3.06,6.84-6.84,6.84H-.29V-.18Z"/>
    <text class="cls-1" transform="translate(2.22 -2.32)"><tspan x="0" y="0">36</tspan></text>
    <g>
      <path class="cls-5" d="M85.2,86.49c5.15-1.56,11.64-5.78,17.12-5.45,4.51.27,8.1,4.94,5.57,9.17-1.9,3.18-13.22,8.48-17.01,10.39-5,2.52-14.52,7.79-19.8,8.21-4.6.37-10.61-.4-15.16-1.27-3.73-.72-10.72-3.29-14.16-2.07-1.46.52-3.96,3.18-5.16,3.13-.57-.02-1.61-.62-2.14-.92-6.41-3.63-10.96-14.73-9.94-21.88.09-.61.45-1.33,1.01-1.63,1.06-.55,3.78-1.05,5.16-1.53,9.09-3.19,17.61-7.84,27.71-5.8,2.96.6,5.58,2.29,8.62,2.54,4.56.38,9.63-2.06,13.95-.55,2.94,1.03,4.99,4.64,4.22,7.66ZM27.79,86.93c-.41,5.2,1.73,11.11,5.05,15.09.68.81,2.98,3.32,4.04,2.85.99-.45,2.13-1.75,3.4-2.29,4.63-1.95,11.99,1.03,16.86,1.92,5.62,1.03,12.69,2,18.09-.04,7.79-2.94,19.38-8.89,26.53-13.25,1.84-1.12,4.87-2.81,3.2-5.3-2.22-3.32-8.51-.42-11.45.7-9.57,3.67-19.08,10.48-29.69,7.76-1.28-.33-1.93-1.79-1.06-2.79.92-1.06,5.02.13,6.48.21,3.24.16,10.6-1.85,12.34-4.73,1.29-2.13.02-4.97-2.43-5.38-3.63-.61-8.24,1.29-12.33.96s-7.74-2.85-11.97-3.05c-1.34-.06-3.13.07-4.47.21-8.09.84-14.86,5.08-22.6,7.13Z"/>
      <path class="cls-5" d="M35.68,70.26c.46-.27.77-.82,1.09-1.24.91-1.22,2.4-3.87,3.37-4.75,1.43-1.31,3.47.35,2.59,1.98l-6.65,9.33c-.56.6-1.37.79-2.1.33l-9.37-6.67c-1.3-1.4-.11-3.37,1.74-2.75l6.08,4.17-.82-6.79c-.39-18.65,13.12-35.07,31.6-37.83,26.88-4.01,48.86,20.89,41.41,47.1-.31,1.09-1.05,3.98-2.17,4.33-.71.22-1.78-.15-2-.87-.32-1.09,1.2-4.86,1.52-6.31,5.46-24.56-16.59-46.35-41.1-40.49-17.91,4.28-29.13,22.43-25.2,40.45Z"/>
      <path class="cls-5" d="M67.1,35.41c17.46-1.55,28.13,18.97,16.58,32.21-8.19,9.39-23.05,8.79-30.43-1.24-8.92-12.12-1.1-29.65,13.84-30.97ZM67.51,38.66c-12.72,1.11-19.29,16.15-11.32,26.22,8.24,10.42,25.12,7.03,28.47-5.82,2.86-10.96-5.86-21.37-17.15-20.39Z"/>
      <path class="cls-5" d="M70.62,64.2c0,1.57.33,4.32-2.11,3.79-1.58-.34-1.11-2.42-1.16-3.61-1.61.15-5.84-1.43-4.16-3.65,1.1-1.45,3.48.65,5.24.59,1.92-.07,4.65-1.87,2.91-3.78-1.01-1.11-4.96-1.92-6.62-3.23-3.54-2.8-1.62-8.19,2.6-8.83.09-1.37-.47-3.77,1.55-3.85,2.18-.09,1.61,2.26,1.81,3.68,1.46.42,5,1.49,3.46,3.64-1.09,1.52-2.54-.15-3.7-.35-1.56-.27-4.92.14-4.23,2.39.4,1.33,4.9,2.51,6.31,3.44,4.36,2.88,2.8,8.55-1.91,9.77Z"/>
    </g>
    <g class="cls-3">
      <path class="cls-2" d="M12.33,9.71c0,.94-.28,1.69-.85,2.24-.56.56-1.26.94-2.08,1.14v.06c1.08.14,1.9.47,2.47,1.01.57.53.85,1.24.85,2.13,0,.79-.19,1.49-.58,2.12-.39.63-.98,1.12-1.79,1.48s-1.84.54-3.11.54c-1.47,0-2.78-.25-3.91-.74v-2.43c.58.29,1.19.51,1.82.67.63.15,1.23.23,1.79.23,1.03,0,1.74-.18,2.16-.53s.62-.85.62-1.5c0-.37-.09-.68-.29-.95-.19-.27-.52-.46-1-.6-.48-.13-1.14-.2-1.99-.2h-1.03v-2.2h1.04c.84,0,1.47-.08,1.91-.24s.73-.37.89-.65c.16-.27.24-.58.24-.94,0-.48-.15-.86-.45-1.13-.3-.27-.8-.41-1.49-.41-.65,0-1.21.11-1.69.34-.48.23-.88.44-1.2.65l-1.33-1.98c.53-.38,1.16-.7,1.87-.95.72-.25,1.57-.38,2.56-.38,1.39,0,2.5.28,3.32.85s1.23,1.36,1.23,2.38Z"/>
      <path class="cls-2" d="M14.15,14.48c0-.77.06-1.54.17-2.31.12-.77.31-1.49.6-2.17s.68-1.28,1.2-1.8,1.17-.94,1.96-1.24,1.75-.45,2.88-.45c.27,0,.58,0,.93.03.35.02.65.05.89.1v2.3c-.24-.05-.5-.09-.79-.13s-.57-.06-.84-.06c-1.13,0-2,.18-2.61.53-.61.36-1.05.85-1.3,1.49-.25.64-.4,1.38-.44,2.21h.11c.25-.44.62-.82,1.09-1.12.47-.3,1.09-.46,1.85-.46,1.19,0,2.13.37,2.83,1.12.7.75,1.05,1.81,1.05,3.17,0,1.47-.42,2.62-1.25,3.46-.83.84-1.95,1.25-3.37,1.25-.93,0-1.76-.21-2.51-.64-.75-.42-1.34-1.08-1.79-1.96-.44-.88-.66-2-.66-3.35ZM19.05,18.13c.56,0,1.01-.19,1.37-.58.35-.39.53-.98.53-1.8,0-.66-.15-1.18-.46-1.56-.3-.38-.77-.57-1.39-.57-.43,0-.8.1-1.11.29-.31.19-.55.43-.73.71s-.27.58-.27.88c0,.42.08.83.23,1.24.15.41.38.74.69,1,.31.26.69.39,1.13.39Z"/>
    </g>
  </g>
</svg>