<svg width="500" height="500" viewBox="0 0 500 500" fill="none" xmlns="http://www.w3.org/2000/svg">
<g clip-path="url(#clip0_2_38)">
<rect width="500" height="500" fill="white"/>
<g clip-path="url(#clip1_2_38)">
<rect width="500" height="500" fill="#222222"/>
<rect width="111.111" height="100" fill="#EDDFD6"/>
<path d="M36.1705 77.6364C33.1705 77.6364 30.4962 77.1212 28.1477 76.0909C25.8144 75.0606 23.9583 73.6288 22.5795 71.7955C21.2159 69.947 20.4735 67.803 20.3523 65.3636H26.0795C26.2008 66.8636 26.7159 68.1591 27.625 69.25C28.5341 70.3258 29.7235 71.1591 31.1932 71.75C32.6629 72.3409 34.2917 72.6364 36.0795 72.6364C38.0795 72.6364 39.8523 72.2879 41.3977 71.5909C42.9432 70.8939 44.1553 69.9242 45.0341 68.6818C45.9129 67.4394 46.3523 66 46.3523 64.3636C46.3523 62.6515 45.928 61.1439 45.0795 59.8409C44.2311 58.5227 42.9886 57.4924 41.3523 56.75C39.7159 56.0076 37.7159 55.6364 35.3523 55.6364H31.625V50.6364H35.3523C37.2008 50.6364 38.822 50.303 40.2159 49.6364C41.625 48.9697 42.7235 48.0303 43.5114 46.8182C44.3144 45.6061 44.7159 44.1818 44.7159 42.5455C44.7159 40.9697 44.3674 39.5985 43.6705 38.4318C42.9735 37.2651 41.9886 36.3561 40.7159 35.7045C39.4583 35.053 37.9735 34.7273 36.2614 34.7273C34.6553 34.7273 33.1402 35.0227 31.7159 35.6136C30.3068 36.1894 29.1553 37.0303 28.2614 38.1364C27.3674 39.2273 26.8826 40.5455 26.8068 42.0909H21.3523C21.4432 39.6515 22.178 37.5151 23.5568 35.6818C24.9356 33.8333 26.7386 32.3939 28.9659 31.3636C31.2083 30.3333 33.6705 29.8182 36.3523 29.8182C39.2311 29.8182 41.7008 30.4015 43.7614 31.5682C45.822 32.7197 47.4053 34.2424 48.5114 36.1364C49.6174 38.0303 50.1705 40.0758 50.1705 42.2727C50.1705 44.8939 49.4811 47.1288 48.1023 48.9773C46.7386 50.8258 44.8826 52.1061 42.5341 52.8182V53.1818C45.4735 53.6667 47.7689 54.9167 49.4205 56.9318C51.072 58.9318 51.8977 61.4091 51.8977 64.3636C51.8977 66.8939 51.2083 69.1667 49.8295 71.1818C48.4659 73.1818 46.6023 74.7576 44.2386 75.9091C41.875 77.0606 39.1856 77.6364 36.1705 77.6364ZM76.375 77.6364C72.9508 77.6364 70.0341 76.7045 67.625 74.8409C65.2159 72.9621 63.375 70.2424 62.1023 66.6818C60.8295 63.1061 60.1932 58.7879 60.1932 53.7273C60.1932 48.697 60.8295 44.4015 62.1023 40.8409C63.3902 37.2652 65.2386 34.5379 67.6477 32.6591C70.072 30.7651 72.9811 29.8182 76.375 29.8182C79.7689 29.8182 82.6705 30.7651 85.0795 32.6591C87.5038 34.5379 89.3523 37.2652 90.625 40.8409C91.9129 44.4015 92.5568 48.697 92.5568 53.7273C92.5568 58.7879 91.9205 63.1061 90.6477 66.6818C89.375 70.2424 87.5341 72.9621 85.125 74.8409C82.7159 76.7045 79.7992 77.6364 76.375 77.6364ZM76.375 72.6364C79.7689 72.6364 82.4053 71 84.2841 67.7273C86.1629 64.4545 87.1023 59.7879 87.1023 53.7273C87.1023 49.697 86.6705 46.2652 85.8068 43.4318C84.9583 40.5985 83.7311 38.4394 82.125 36.9545C80.5341 35.4697 78.6174 34.7273 76.375 34.7273C73.0114 34.7273 70.3826 36.3864 68.4886 39.7045C66.5947 43.0076 65.6477 47.6818 65.6477 53.7273C65.6477 57.7576 66.072 61.1818 66.9205 64C67.7689 66.8182 68.9886 68.9621 70.5795 70.4318C72.1856 71.9015 74.1174 72.6364 76.375 72.6364Z" fill="#222222"/>
<path fill-rule="evenodd" clip-rule="evenodd" d="M130.507 100.166C130.299 100.25 130.129 100.607 130.129 100.96C130.129 101.771 164.379 102.01 240.801 101.73C269.629 101.624 309.059 101.541 328.424 101.545C361.369 101.551 366.123 101.396 365.258 100.344C364.997 100.027 131.287 99.8501 130.507 100.166ZM170.099 112.611L128.432 112.847L128.337 236.957L128.242 361.068L129.047 362.999C129.489 364.061 130.178 365.495 130.579 366.186C130.979 366.877 131.331 367.841 131.362 368.329C131.404 369.005 131.564 369.119 132.042 368.808C132.658 368.407 150.967 368.34 295.87 368.205C363.656 368.142 367.586 368.095 368.548 367.329C369.106 366.885 369.888 365.749 370.284 364.805C370.958 363.198 371.018 361.49 371.222 337.885C371.342 324.022 371.554 267.792 371.695 212.93L371.95 113.179L365.765 112.893C357.503 112.511 222.42 112.316 170.099 112.611ZM350.719 234.892V346.495L286.522 346.208C251.213 346.05 205.696 345.918 185.371 345.915L148.418 345.909L148.402 234.648L148.386 123.388L249.553 123.338L350.719 123.287V234.892ZM268.894 164.641V168.997L302.359 168.88L335.825 168.763L335.933 164.524L336.042 160.284H302.468H268.894V164.641ZM164.066 164.793V168.843L179.621 169.146C188.176 169.313 203.702 169.45 214.123 169.45L233.071 169.451V165.097V160.742H198.569H164.066V164.793ZM164.443 201.534V205.659H198.757H233.071V201.534V197.409H198.757H164.443V201.534ZM268.894 201.534V205.659H302.453H336.013V201.534V197.409H302.453H268.894V201.534ZM164.443 237.513V241.867H198.757H233.071V237.513V233.159H198.757H164.443V237.513ZM268.974 237.282L269.082 241.405L302.453 241.521L335.825 241.638L335.933 237.399L336.042 233.159H302.453H268.865L268.974 237.282ZM164.443 274.105V278.534H198.757H233.071V274.409V270.284L214.312 270.284C203.994 270.283 188.553 270.147 179.998 269.98L164.443 269.677V274.105ZM269.147 270.129C269.007 270.298 268.894 272.259 268.894 274.486V278.534H302.468H336.042L335.933 274.295L335.825 270.055L302.613 269.938C284.346 269.873 269.287 269.96 269.147 270.129ZM191.485 306.381L164.039 306.498L164.147 310.964L164.255 315.43L198.676 315.547L233.098 315.664L232.99 310.964L232.883 306.263H225.907C222.07 306.263 206.58 306.316 191.485 306.381ZM268.974 310.732L269.082 314.972H302.453H335.825L335.933 310.732L336.042 306.492H302.453H268.865L268.974 310.732ZM131.325 371.574C131.293 372.584 131.427 373.409 131.624 373.409C131.985 373.409 131.946 370.423 131.58 369.978C131.472 369.847 131.357 370.566 131.325 371.574ZM153.508 395.409V409.617H157.953C161.819 409.617 162.614 409.483 164.059 408.586C166.962 406.783 168.136 403.569 167.406 399.428C167.111 397.754 166.676 396.879 165.592 395.773L164.165 394.317L165.436 392.861C166.631 391.49 166.706 391.226 166.706 388.344C166.706 385.689 166.581 385.132 165.761 384.136C163.935 381.917 161.987 381.222 157.562 381.211L153.508 381.201V395.409ZM175.936 381.84C173.437 382.792 172.44 383.888 171.089 387.17C168.707 392.957 168.901 399.907 171.583 404.91C173.339 408.186 174.04 408.949 176.104 409.835C180.282 411.626 183.839 409.602 186.117 404.138C188.74 397.846 187.957 389.135 184.316 384.095C182.288 381.288 179.415 380.515 175.936 381.84ZM193.478 382.488C191.634 383.586 191.269 384.051 190.174 386.701C188.54 390.658 188.163 393.388 188.625 397.918C189.243 403.978 191.183 407.979 194.289 409.604C197.747 411.411 201.309 410.22 204.32 406.25C206.748 403.048 207.193 401.444 207.199 395.867C207.203 391.901 207.053 390.612 206.348 388.534C204.072 381.831 198.769 379.34 193.478 382.488ZM209.315 395.432V409.663L211.484 409.526L213.652 409.388L213.757 403.545C213.815 400.33 213.986 397.701 214.135 397.701C214.457 397.701 217.497 403.765 218.904 407.211L219.886 409.617H222.708C224.26 409.617 225.53 409.51 225.53 409.379C225.53 409.012 223.676 405.518 222.129 402.972C220.232 399.849 217.502 393.665 217.719 392.985C217.817 392.68 219.553 389.955 221.578 386.93L225.259 381.43L223.038 381.283L220.816 381.137L219.119 383.572C218.186 384.912 216.62 387.04 215.64 388.302L213.857 390.597L213.849 385.899L213.84 381.201H211.578H209.315V395.432ZM240.236 395.122V409.159L244.666 409.156C249.987 409.154 251.505 408.701 253.481 406.531C257.145 402.508 256.9 397.015 252.924 394.019C251.897 393.245 251.884 393.195 252.642 392.903C253.93 392.406 255.319 389.809 255.319 387.895C255.319 385.478 254.507 383.88 252.627 382.595C251.159 381.592 250.446 381.459 245.614 381.282L240.236 381.085V395.122ZM262.618 382.11C259.338 383.883 257.457 389.233 257.504 396.651C257.529 400.678 257.673 401.747 258.46 403.784C259.434 406.302 260.72 408.176 262.386 409.503C263.124 410.091 264.136 410.29 266.274 410.268C268.687 410.244 269.443 410.041 270.855 409.034C274.11 406.716 275.64 402.946 275.959 396.461C276.118 393.239 276.011 391.56 275.509 389.357C274.662 385.647 273.538 383.876 271.093 382.394C268.657 380.919 265.046 380.798 262.618 382.11ZM282.673 382.243C279.493 384.433 277.761 389.323 277.757 396.12C277.755 400.443 277.833 400.915 279.02 403.759C280.565 407.456 281.729 408.846 284.084 409.802C286.224 410.67 287.217 410.71 289.486 410.015C292.747 409.017 295.867 402.724 296.314 396.244C296.518 393.286 296.464 393.03 294.722 388.735C292.203 382.525 290.843 381.297 286.428 381.243C284.749 381.223 283.78 381.481 282.673 382.243ZM299.06 395.638V410.076H300.945H302.831V405.072C302.831 399.353 302.976 398.614 304.096 398.627C304.987 398.637 307.673 402.457 309.453 406.244C311.177 409.914 311.429 410.146 313.563 410.032C314.608 409.976 315.581 409.854 315.727 409.761C315.872 409.668 314.133 406.166 311.862 401.979L307.733 394.367L308.581 392.667C309.69 390.447 311.349 387.282 313.106 384.04L314.52 381.43L312.549 381.288C310.304 381.126 310.099 381.336 306.603 387.388C305.583 389.153 304.406 391.112 303.987 391.742L303.224 392.888L303.216 387.045L303.208 381.201H301.134H299.06V395.638ZM317.403 384.708C317.269 386.636 317.159 393.03 317.159 398.916V409.617H322.627H328.095V407.097V404.576H324.89H321.684V400.222V395.867H324.505C327.199 395.867 327.337 395.816 327.563 394.723C328.014 392.537 327.607 392.201 324.509 392.201H321.654L321.764 388.42L321.873 384.638L325.361 384.506L328.849 384.375V382.788V381.201H323.248H317.647L317.403 384.708ZM332.173 392.774C332.135 399.139 332.114 405.481 332.126 406.867L332.15 409.388L334.27 409.526L336.39 409.663V403.682V397.701H337.691C338.718 397.701 339.185 398.014 339.911 399.19C340.845 400.704 342.801 407.175 342.801 408.753C342.801 409.518 343.105 409.617 345.44 409.617C348.046 409.617 348.662 409.183 347.745 407.99C347.56 407.751 347.134 406.38 346.797 404.945C345.647 400.04 344.839 398.277 343.294 397.306L341.858 396.403L342.801 395.952C344.013 395.372 345.658 393.248 346.17 391.598C346.776 389.65 346.653 386.322 345.919 384.812C345.56 384.073 344.424 382.959 343.394 382.335C341.707 381.313 341.062 381.201 336.882 381.201H332.243L332.173 392.774ZM250.651 385.873C251.447 386.84 251.436 388.793 250.629 389.877C249.827 390.954 246.883 391.879 245.463 391.5C244.416 391.22 244.384 391.126 244.384 388.345C244.384 386.769 244.511 385.322 244.666 385.13C245.194 384.481 249.996 385.076 250.651 385.873ZM269.234 385.935C269.527 386.231 270.249 387.709 270.839 389.222C272.363 393.135 272.36 397.689 270.832 401.616C269.627 404.712 268.397 405.951 266.529 405.951C265.302 405.951 263.01 404.329 262.417 403.041C262.266 402.712 261.967 401.112 261.753 399.486C261.287 395.941 261.714 392.021 262.909 388.89C264.206 385.488 267.335 384.026 269.234 385.935ZM340.901 385.316C341.935 385.989 342.467 388.247 341.986 389.923C341.499 391.62 339.954 392.659 337.918 392.659H336.39V388.763V384.867H338.301C339.351 384.867 340.521 385.07 340.901 385.316ZM159.845 385.606C161.409 385.986 162.558 387.389 162.558 388.919C162.558 390.783 161.903 391.284 159.466 391.284H157.279V388.611C157.279 385.151 157.398 385.011 159.845 385.606ZM199.499 386.006C201.345 387.166 202.66 391.143 202.839 396.104C202.968 399.69 202.875 400.559 202.189 402.193C200.375 406.517 195.957 406.631 193.798 402.41C192.542 399.956 192.538 393.509 193.79 390.155C195.421 385.782 197.148 384.527 199.499 386.006ZM180.791 386.414C184.443 388.269 185.225 402.187 181.799 404.341C179.293 405.916 175.897 404.74 174.764 401.905C173.942 399.851 173.644 394.468 174.21 391.913C174.978 388.442 176.986 385.81 178.879 385.791C179.248 385.787 180.109 386.068 180.791 386.414ZM288.923 386.576C290.668 387.829 291.6 390.737 291.808 395.577C291.966 399.249 291.883 400.035 291.133 401.973C290.151 404.513 289.122 405.487 287.102 405.787C285.442 406.033 283.658 404.893 282.583 402.899C281.568 401.016 281.598 391.803 282.627 389.282C283.922 386.111 286.645 384.941 288.923 386.576ZM250.932 397.276C251.636 397.949 251.924 398.65 251.92 399.682C251.907 403.398 250.733 404.576 247.042 404.576H244.761V400.451V396.326H247.349C249.397 396.326 250.146 396.524 250.932 397.276ZM161.804 397.368C163.152 398.183 164.187 400.922 163.716 402.428C163.261 403.883 162.341 404.504 160.085 404.88C157.858 405.25 157.669 404.896 157.662 400.336L157.656 396.784L159.258 396.791C160.14 396.795 161.285 397.054 161.804 397.368ZM413.691 481.117V484.784H428.774H443.857V481.117V477.451H428.774H413.691V481.117Z" fill="#EDDFD6"/>
<rect x="131.984" y="380.685" width="229.567" height="38.3566" fill="#222222"/>
<path d="M151.068 420.455C151.068 423.523 150.514 426.174 149.406 428.409C148.298 430.644 146.778 432.367 144.847 433.58C142.915 434.792 140.708 435.398 138.227 435.398C135.746 435.398 133.54 434.792 131.608 433.58C129.676 432.367 128.156 430.644 127.048 428.409C125.94 426.174 125.386 423.523 125.386 420.455C125.386 417.386 125.94 414.735 127.048 412.5C128.156 410.265 129.676 408.542 131.608 407.33C133.54 406.117 135.746 405.511 138.227 405.511C140.708 405.511 142.915 406.117 144.847 407.33C146.778 408.542 148.298 410.265 149.406 412.5C150.514 414.735 151.068 417.386 151.068 420.455ZM147.659 420.455C147.659 417.936 147.238 415.81 146.395 414.077C145.562 412.344 144.43 411.032 143 410.142C141.58 409.252 139.989 408.807 138.227 408.807C136.466 408.807 134.87 409.252 133.44 410.142C132.02 411.032 130.888 412.344 130.045 414.077C129.212 415.81 128.795 417.936 128.795 420.455C128.795 422.973 129.212 425.099 130.045 426.832C130.888 428.565 132.02 429.877 133.44 430.767C134.87 431.657 136.466 432.102 138.227 432.102C139.989 432.102 141.58 431.657 143 430.767C144.43 429.877 145.562 428.565 146.395 426.832C147.238 425.099 147.659 422.973 147.659 420.455ZM156.991 435V405.909H166.821C169.094 405.909 170.959 406.297 172.418 407.074C173.876 407.841 174.955 408.897 175.656 410.241C176.357 411.586 176.707 413.116 176.707 414.83C176.707 416.544 176.357 418.063 175.656 419.389C174.955 420.715 173.881 421.757 172.432 422.514C170.983 423.262 169.132 423.636 166.878 423.636H158.923V420.455H166.764C168.317 420.455 169.567 420.227 170.514 419.773C171.471 419.318 172.162 418.674 172.588 417.841C173.024 416.998 173.241 415.994 173.241 414.83C173.241 413.665 173.024 412.647 172.588 411.776C172.152 410.904 171.456 410.232 170.5 409.759C169.544 409.276 168.279 409.034 166.707 409.034H160.514V435H156.991ZM170.685 421.932L177.844 435H173.753L166.707 421.932H170.685ZM191.555 435H182.577V405.909H191.952C194.774 405.909 197.189 406.491 199.197 407.656C201.204 408.812 202.743 410.473 203.813 412.642C204.883 414.801 205.418 417.386 205.418 420.398C205.418 423.428 204.879 426.037 203.799 428.224C202.719 430.402 201.147 432.079 199.083 433.253C197.019 434.418 194.509 435 191.555 435ZM186.1 431.875H191.327C193.733 431.875 195.726 431.411 197.308 430.483C198.889 429.555 200.068 428.234 200.844 426.52C201.621 424.806 202.009 422.765 202.009 420.398C202.009 418.049 201.626 416.027 200.859 414.332C200.092 412.628 198.946 411.321 197.421 410.412C195.897 409.493 193.998 409.034 191.725 409.034H186.1V431.875ZM211.327 435V405.909H228.884V409.034H214.85V418.864H227.975V421.989H214.85V431.875H229.112V435H211.327ZM235.234 435V405.909H245.063C247.336 405.909 249.201 406.297 250.66 407.074C252.118 407.841 253.198 408.897 253.898 410.241C254.599 411.586 254.95 413.116 254.95 414.83C254.95 416.544 254.599 418.063 253.898 419.389C253.198 420.715 252.123 421.757 250.674 422.514C249.225 423.262 247.374 423.636 245.12 423.636H237.165V420.455H245.006C246.559 420.455 247.809 420.227 248.756 419.773C249.713 419.318 250.404 418.674 250.83 417.841C251.266 416.998 251.484 415.994 251.484 414.83C251.484 413.665 251.266 412.647 250.83 411.776C250.395 410.904 249.699 410.232 248.742 409.759C247.786 409.276 246.522 409.034 244.95 409.034H238.756V435H235.234ZM248.927 421.932L256.086 435H251.995L244.95 421.932H248.927ZM272.07 435V405.909H282.24C284.267 405.909 285.938 406.259 287.254 406.96C288.571 407.652 289.551 408.584 290.195 409.759C290.839 410.923 291.161 412.216 291.161 413.636C291.161 414.886 290.938 415.919 290.493 416.733C290.057 417.547 289.48 418.191 288.76 418.665C288.05 419.138 287.278 419.489 286.445 419.716V420C287.335 420.057 288.23 420.369 289.129 420.938C290.029 421.506 290.782 422.32 291.388 423.381C291.994 424.441 292.297 425.739 292.297 427.273C292.297 428.731 291.965 430.043 291.303 431.207C290.64 432.372 289.593 433.295 288.163 433.977C286.733 434.659 284.873 435 282.581 435H272.07ZM275.592 431.875H282.581C284.882 431.875 286.516 431.43 287.482 430.54C288.457 429.64 288.945 428.551 288.945 427.273C288.945 426.288 288.694 425.379 288.192 424.545C287.69 423.703 286.975 423.03 286.047 422.528C285.119 422.017 284.02 421.761 282.751 421.761H275.592V431.875ZM275.592 418.693H282.126C283.187 418.693 284.143 418.485 284.996 418.068C285.857 417.652 286.539 417.064 287.041 416.307C287.553 415.549 287.808 414.659 287.808 413.636C287.808 412.358 287.363 411.274 286.473 410.384C285.583 409.484 284.172 409.034 282.24 409.034H275.592V418.693ZM322.631 420.455C322.631 423.523 322.077 426.174 320.969 428.409C319.861 430.644 318.341 432.367 316.409 433.58C314.477 434.792 312.271 435.398 309.79 435.398C307.309 435.398 305.102 434.792 303.17 433.58C301.239 432.367 299.719 430.644 298.611 428.409C297.503 426.174 296.949 423.523 296.949 420.455C296.949 417.386 297.503 414.735 298.611 412.5C299.719 410.265 301.239 408.542 303.17 407.33C305.102 406.117 307.309 405.511 309.79 405.511C312.271 405.511 314.477 406.117 316.409 407.33C318.341 408.542 319.861 410.265 320.969 412.5C322.077 414.735 322.631 417.386 322.631 420.455ZM319.222 420.455C319.222 417.936 318.8 415.81 317.957 414.077C317.124 412.344 315.992 411.032 314.562 410.142C313.142 409.252 311.551 408.807 309.79 408.807C308.028 408.807 306.433 409.252 305.003 410.142C303.582 411.032 302.451 412.344 301.608 414.077C300.775 415.81 300.358 417.936 300.358 420.455C300.358 422.973 300.775 425.099 301.608 426.832C302.451 428.565 303.582 429.877 305.003 430.767C306.433 431.657 308.028 432.102 309.79 432.102C311.551 432.102 313.142 431.657 314.562 430.767C315.992 429.877 317.124 428.565 317.957 426.832C318.8 425.099 319.222 422.973 319.222 420.455ZM353.099 420.455C353.099 423.523 352.545 426.174 351.438 428.409C350.33 430.644 348.81 432.367 346.878 433.58C344.946 434.792 342.74 435.398 340.259 435.398C337.777 435.398 335.571 434.792 333.639 433.58C331.707 432.367 330.188 430.644 329.08 428.409C327.972 426.174 327.418 423.523 327.418 420.455C327.418 417.386 327.972 414.735 329.08 412.5C330.188 410.265 331.707 408.542 333.639 407.33C335.571 406.117 337.777 405.511 340.259 405.511C342.74 405.511 344.946 406.117 346.878 407.33C348.81 408.542 350.33 410.265 351.438 412.5C352.545 414.735 353.099 417.386 353.099 420.455ZM349.69 420.455C349.69 417.936 349.269 415.81 348.426 414.077C347.593 412.344 346.461 411.032 345.031 410.142C343.611 409.252 342.02 408.807 340.259 408.807C338.497 408.807 336.902 409.252 335.472 410.142C334.051 411.032 332.92 412.344 332.077 414.077C331.243 415.81 330.827 417.936 330.827 420.455C330.827 422.973 331.243 425.099 332.077 426.832C332.92 428.565 334.051 429.877 335.472 430.767C336.902 431.657 338.497 432.102 340.259 432.102C342.02 432.102 343.611 431.657 345.031 430.767C346.461 429.877 347.593 428.565 348.426 426.832C349.269 425.099 349.69 422.973 349.69 420.455ZM359.023 435V405.909H362.545V420.341H362.886L375.955 405.909H380.557L368.341 419.034L380.557 435H376.295L366.182 421.477L362.545 425.568V435H359.023Z" fill="#EDDFD6"/>
<path d="M149.406 428.409L148.958 428.187L148.958 428.187L149.406 428.409ZM144.847 433.58L145.112 434.003L145.112 434.003L144.847 433.58ZM131.608 433.58L131.342 434.003L131.342 434.003L131.608 433.58ZM127.048 428.409L127.496 428.187L127.496 428.187L127.048 428.409ZM127.048 412.5L126.6 412.278L127.048 412.5ZM144.847 407.33L145.112 406.906L145.112 406.906L144.847 407.33ZM149.406 412.5L148.958 412.722L148.958 412.722L149.406 412.5ZM146.395 414.077L145.944 414.293L145.945 414.295L146.395 414.077ZM143 410.142L142.734 410.566L142.736 410.567L143 410.142ZM133.44 410.142L133.176 409.718L133.175 409.718L133.44 410.142ZM130.045 414.077L129.596 413.858L129.595 413.86L130.045 414.077ZM130.045 426.832L129.595 427.049L129.596 427.051L130.045 426.832ZM133.44 430.767L133.175 431.191L133.176 431.192L133.44 430.767ZM143 430.767L142.736 430.343L142.734 430.343L143 430.767ZM146.395 426.832L145.945 426.614L145.944 426.616L146.395 426.832ZM150.568 420.455C150.568 423.463 150.025 426.035 148.958 428.187L149.854 428.631C151.003 426.313 151.568 423.582 151.568 420.455H150.568ZM148.958 428.187C147.887 430.347 146.427 431.997 144.581 433.156L145.112 434.003C147.13 432.737 148.709 430.941 149.854 428.631L148.958 428.187ZM144.581 433.156C142.736 434.314 140.623 434.898 138.227 434.898V435.898C140.794 435.898 143.094 435.27 145.112 434.003L144.581 433.156ZM138.227 434.898C135.832 434.898 133.719 434.314 131.874 433.156L131.342 434.003C133.361 435.27 135.661 435.898 138.227 435.898V434.898ZM131.874 433.156C130.027 431.997 128.567 430.347 127.496 428.187L126.6 428.631C127.745 430.941 129.325 432.737 131.342 434.003L131.874 433.156ZM127.496 428.187C126.43 426.035 125.886 423.463 125.886 420.455H124.886C124.886 423.582 125.451 426.313 126.6 428.631L127.496 428.187ZM125.886 420.455C125.886 417.446 126.43 414.874 127.496 412.722L126.6 412.278C125.451 414.596 124.886 417.327 124.886 420.455H125.886ZM127.496 412.722C128.567 410.562 130.027 408.912 131.874 407.753L131.342 406.906C129.325 408.172 127.745 409.968 126.6 412.278L127.496 412.722ZM131.874 407.753C133.719 406.595 135.832 406.011 138.227 406.011V405.011C135.661 405.011 133.361 405.64 131.342 406.906L131.874 407.753ZM138.227 406.011C140.623 406.011 142.736 406.595 144.581 407.753L145.112 406.906C143.094 405.64 140.794 405.011 138.227 405.011V406.011ZM144.581 407.753C146.427 408.912 147.887 410.562 148.958 412.722L149.854 412.278C148.709 409.968 147.13 408.172 145.112 406.906L144.581 407.753ZM148.958 412.722C150.025 414.874 150.568 417.446 150.568 420.455H151.568C151.568 417.327 151.003 414.596 149.854 412.278L148.958 412.722ZM148.159 420.455C148.159 417.882 147.729 415.677 146.845 413.858L145.945 414.295C146.746 415.943 147.159 417.989 147.159 420.455H148.159ZM146.845 413.86C145.977 412.054 144.786 410.665 143.264 409.718L142.736 410.567C144.074 411.4 145.146 412.634 145.944 414.293L146.845 413.86ZM143.266 409.718C141.761 408.776 140.078 408.307 138.227 408.307V409.307C139.9 409.307 141.398 409.728 142.734 410.566L143.266 409.718ZM138.227 408.307C136.377 408.307 134.689 408.776 133.176 409.718L133.705 410.567C135.051 409.728 136.555 409.307 138.227 409.307V408.307ZM133.175 409.718C131.664 410.665 130.473 412.054 129.596 413.858L130.495 414.295C131.303 412.634 132.376 411.399 133.706 410.566L133.175 409.718ZM129.595 413.86C128.721 415.678 128.295 417.883 128.295 420.455H129.295C129.295 417.988 129.704 415.941 130.496 414.293L129.595 413.86ZM128.295 420.455C128.295 423.026 128.721 425.231 129.595 427.049L130.496 426.616C129.704 424.968 129.295 422.921 129.295 420.455H128.295ZM129.596 427.051C130.473 428.855 131.664 430.244 133.175 431.191L133.706 430.343C132.376 429.51 131.303 428.275 130.495 426.614L129.596 427.051ZM133.176 431.192C134.689 432.133 136.377 432.602 138.227 432.602V431.602C136.555 431.602 135.051 431.181 133.705 430.343L133.176 431.192ZM138.227 432.602C140.078 432.602 141.761 432.133 143.266 431.191L142.734 430.343C141.398 431.181 139.9 431.602 138.227 431.602V432.602ZM143.264 431.192C144.786 430.244 145.977 428.855 146.845 427.049L145.944 426.616C145.146 428.276 144.074 429.509 142.736 430.343L143.264 431.192ZM146.845 427.051C147.729 425.232 148.159 423.027 148.159 420.455H147.159C147.159 422.92 146.746 424.966 145.945 426.614L146.845 427.051ZM156.991 435H156.491V435.5H156.991V435ZM156.991 405.909V405.409H156.491V405.909H156.991ZM172.418 407.074L172.183 407.515L172.185 407.516L172.418 407.074ZM175.656 410.241L175.213 410.473L175.213 410.473L175.656 410.241ZM175.656 419.389L175.214 419.156L175.214 419.156L175.656 419.389ZM172.432 422.514L172.661 422.958L172.663 422.957L172.432 422.514ZM158.923 423.636H158.423V424.136H158.923V423.636ZM158.923 420.455V419.955H158.423V420.455H158.923ZM170.514 419.773L170.3 419.321L170.298 419.322L170.514 419.773ZM172.588 417.841L172.144 417.611L172.143 417.613L172.588 417.841ZM170.5 409.759L170.275 410.205L170.278 410.207L170.5 409.759ZM160.514 409.034V408.534H160.014V409.034H160.514ZM160.514 435V435.5H161.014V435H160.514ZM170.685 421.932L171.123 421.692L170.981 421.432H170.685V421.932ZM177.844 435V435.5H178.688L178.282 434.76L177.844 435ZM173.753 435L173.313 435.237L173.454 435.5H173.753V435ZM166.707 421.932V421.432H165.87L166.267 422.169L166.707 421.932ZM157.491 435V405.909H156.491V435H157.491ZM156.991 406.409H166.821V405.409H156.991V406.409ZM166.821 406.409C169.041 406.409 170.819 406.789 172.183 407.515L172.653 406.633C171.1 405.806 169.146 405.409 166.821 405.409V406.409ZM172.185 407.516C173.561 408.24 174.563 409.226 175.213 410.473L176.1 410.01C175.348 408.568 174.191 407.441 172.65 406.631L172.185 407.516ZM175.213 410.473C175.872 411.737 176.207 413.185 176.207 414.83H177.207C177.207 413.046 176.842 411.435 176.1 410.01L175.213 410.473ZM176.207 414.83C176.207 416.474 175.872 417.912 175.214 419.156L176.098 419.623C176.842 418.215 177.207 416.613 177.207 414.83H176.207ZM175.214 419.156C174.565 420.384 173.568 421.356 172.2 422.071L172.663 422.957C174.194 422.157 175.346 421.046 176.098 419.623L175.214 419.156ZM172.202 422.07C170.846 422.77 169.081 423.136 166.878 423.136V424.136C169.183 424.136 171.12 423.754 172.661 422.958L172.202 422.07ZM166.878 423.136H158.923V424.136H166.878V423.136ZM159.423 423.636V420.455H158.423V423.636H159.423ZM158.923 420.955H166.764V419.955H158.923V420.955ZM166.764 420.955C168.359 420.955 169.692 420.722 170.731 420.223L170.298 419.322C169.443 419.732 168.275 419.955 166.764 419.955V420.955ZM170.729 420.224C171.771 419.729 172.55 419.013 173.033 418.069L172.143 417.613C171.773 418.336 171.17 418.907 170.3 419.321L170.729 420.224ZM173.032 418.07C173.512 417.142 173.741 416.056 173.741 414.83H172.741C172.741 415.932 172.535 416.854 172.144 417.611L173.032 418.07ZM173.741 414.83C173.741 413.602 173.512 412.505 173.035 411.552L172.141 411.999C172.536 412.789 172.741 413.727 172.741 414.83H173.741ZM173.035 411.552C172.546 410.574 171.766 409.827 170.722 409.31L170.278 410.207C171.147 410.637 171.759 411.235 172.141 411.999L173.035 411.552ZM170.725 409.312C169.674 408.781 168.324 408.534 166.707 408.534V409.534C168.235 409.534 169.413 409.77 170.275 410.205L170.725 409.312ZM166.707 408.534H160.514V409.534H166.707V408.534ZM160.014 409.034V435H161.014V409.034H160.014ZM160.514 434.5H156.991V435.5H160.514V434.5ZM170.246 422.172L177.405 435.24L178.282 434.76L171.123 421.692L170.246 422.172ZM177.844 434.5H173.753V435.5H177.844V434.5ZM174.193 434.763L167.147 421.695L166.267 422.169L173.313 435.237L174.193 434.763ZM166.707 422.432H170.685V421.432H166.707V422.432ZM182.577 435H182.077V435.5H182.577V435ZM182.577 405.909V405.409H182.077V405.909H182.577ZM199.197 407.656L198.946 408.089L198.947 408.09L199.197 407.656ZM203.813 412.642L203.365 412.863L203.365 412.864L203.813 412.642ZM203.799 428.224L204.247 428.446L204.247 428.446L203.799 428.224ZM199.083 433.253L199.329 433.688L199.33 433.687L199.083 433.253ZM186.1 431.875H185.6V432.375H186.1V431.875ZM197.308 430.483L197.054 430.052L197.308 430.483ZM200.859 414.332L200.403 414.538L200.403 414.539L200.859 414.332ZM197.421 410.412L197.163 410.84L197.165 410.841L197.421 410.412ZM186.1 409.034V408.534H185.6V409.034H186.1ZM191.555 434.5H182.577V435.5H191.555V434.5ZM183.077 435V405.909H182.077V435H183.077ZM182.577 406.409H191.952V405.409H182.577V406.409ZM191.952 406.409C194.705 406.409 197.029 406.977 198.946 408.089L199.448 407.224C197.349 406.006 194.844 405.409 191.952 405.409V406.409ZM198.947 408.09C200.865 409.193 202.337 410.779 203.365 412.863L204.262 412.421C203.15 410.168 201.543 408.43 199.446 407.223L198.947 408.09ZM203.365 412.864C204.394 414.939 204.918 417.445 204.918 420.398H205.918C205.918 417.328 205.373 414.663 204.261 412.42L203.365 412.864ZM204.918 420.398C204.918 423.369 204.389 425.899 203.351 428.003L204.247 428.446C205.368 426.175 205.918 423.487 205.918 420.398H204.918ZM203.351 428.002C202.315 430.093 200.812 431.694 198.836 432.818L199.33 433.687C201.483 432.463 203.124 430.712 204.247 428.446L203.351 428.002ZM198.837 432.817C196.864 433.931 194.444 434.5 191.555 434.5V435.5C194.574 435.5 197.173 434.905 199.329 433.688L198.837 432.817ZM186.1 432.375H191.327V431.375H186.1V432.375ZM191.327 432.375C193.795 432.375 195.882 431.899 197.561 430.914L197.054 430.052C195.57 430.923 193.671 431.375 191.327 431.375V432.375ZM197.561 430.914C199.234 429.932 200.482 428.532 201.3 426.726L200.389 426.314C199.654 427.936 198.544 429.177 197.054 430.052L197.561 430.914ZM201.3 426.726C202.112 424.933 202.509 422.819 202.509 420.398H201.509C201.509 422.712 201.13 424.679 200.389 426.314L201.3 426.726ZM202.509 420.398C202.509 417.996 202.117 415.901 201.314 414.126L200.403 414.539C201.134 416.154 201.509 418.102 201.509 420.398H202.509ZM201.315 414.127C200.508 412.334 199.295 410.947 197.677 409.982L197.165 410.841C198.597 411.695 199.675 412.921 200.403 414.538L201.315 414.127ZM197.679 409.984C196.058 409.007 194.064 408.534 191.725 408.534V409.534C193.932 409.534 195.735 409.98 197.163 410.84L197.679 409.984ZM191.725 408.534H186.1V409.534H191.725V408.534ZM185.6 409.034V431.875H186.6V409.034H185.6ZM211.327 435H210.827V435.5H211.327V435ZM211.327 405.909V405.409H210.827V405.909H211.327ZM228.884 405.909H229.384V405.409H228.884V405.909ZM228.884 409.034V409.534H229.384V409.034H228.884ZM214.85 409.034V408.534H214.35V409.034H214.85ZM214.85 418.864H214.35V419.364H214.85V418.864ZM227.975 418.864H228.475V418.364H227.975V418.864ZM227.975 421.989V422.489H228.475V421.989H227.975ZM214.85 421.989V421.489H214.35V421.989H214.85ZM214.85 431.875H214.35V432.375H214.85V431.875ZM229.112 431.875H229.612V431.375H229.112V431.875ZM229.112 435V435.5H229.612V435H229.112ZM211.827 435V405.909H210.827V435H211.827ZM211.327 406.409H228.884V405.409H211.327V406.409ZM228.384 405.909V409.034H229.384V405.909H228.384ZM228.884 408.534H214.85V409.534H228.884V408.534ZM214.35 409.034V418.864H215.35V409.034H214.35ZM214.85 419.364H227.975V418.364H214.85V419.364ZM227.475 418.864V421.989H228.475V418.864H227.475ZM227.975 421.489H214.85V422.489H227.975V421.489ZM214.35 421.989V431.875H215.35V421.989H214.35ZM214.85 432.375H229.112V431.375H214.85V432.375ZM228.612 431.875V435H229.612V431.875H228.612ZM229.112 434.5H211.327V435.5H229.112V434.5ZM235.234 435H234.734V435.5H235.234V435ZM235.234 405.909V405.409H234.734V405.909H235.234ZM250.66 407.074L250.425 407.515L250.427 407.516L250.66 407.074ZM253.898 410.241L253.455 410.473L253.455 410.473L253.898 410.241ZM253.898 419.389L253.456 419.156L253.456 419.156L253.898 419.389ZM250.674 422.514L250.903 422.958L250.906 422.957L250.674 422.514ZM237.165 423.636H236.665V424.136H237.165V423.636ZM237.165 420.455V419.955H236.665V420.455H237.165ZM248.756 419.773L248.542 419.321L248.54 419.322L248.756 419.773ZM250.83 417.841L250.386 417.611L250.385 417.613L250.83 417.841ZM248.742 409.759L248.517 410.205L248.52 410.207L248.742 409.759ZM238.756 409.034V408.534H238.256V409.034H238.756ZM238.756 435V435.5H239.256V435H238.756ZM248.927 421.932L249.365 421.692L249.223 421.432H248.927V421.932ZM256.086 435V435.5H256.93L256.524 434.76L256.086 435ZM251.995 435L251.555 435.237L251.697 435.5H251.995V435ZM244.95 421.932V421.432H244.112L244.509 422.169L244.95 421.932ZM235.734 435V405.909H234.734V435H235.734ZM235.234 406.409H245.063V405.409H235.234V406.409ZM245.063 406.409C247.283 406.409 249.061 406.789 250.425 407.515L250.895 406.633C249.342 405.806 247.389 405.409 245.063 405.409V406.409ZM250.427 407.516C251.803 408.24 252.805 409.226 253.455 410.473L254.342 410.01C253.59 408.568 252.433 407.441 250.893 406.631L250.427 407.516ZM253.455 410.473C254.114 411.737 254.45 413.185 254.45 414.83H255.45C255.45 413.046 255.084 411.435 254.342 410.01L253.455 410.473ZM254.45 414.83C254.45 416.474 254.114 417.912 253.456 419.156L254.34 419.623C255.084 418.215 255.45 416.613 255.45 414.83H254.45ZM253.456 419.156C252.807 420.384 251.81 421.356 250.442 422.071L250.906 422.957C252.436 422.157 253.588 421.046 254.34 419.623L253.456 419.156ZM250.445 422.07C249.089 422.77 247.323 423.136 245.12 423.136V424.136C247.425 424.136 249.362 423.754 250.903 422.958L250.445 422.07ZM245.12 423.136H237.165V424.136H245.12V423.136ZM237.665 423.636V420.455H236.665V423.636H237.665ZM237.165 420.955H245.006V419.955H237.165V420.955ZM245.006 420.955C246.601 420.955 247.934 420.722 248.973 420.223L248.54 419.322C247.685 419.732 246.517 419.955 245.006 419.955V420.955ZM248.971 420.224C250.013 419.729 250.793 419.013 251.275 418.069L250.385 417.613C250.016 418.336 249.413 418.907 248.542 419.321L248.971 420.224ZM251.274 418.07C251.754 417.142 251.984 416.056 251.984 414.83H250.984C250.984 415.932 250.778 416.854 250.386 417.611L251.274 418.07ZM251.984 414.83C251.984 413.602 251.754 412.505 251.277 411.552L250.383 411.999C250.778 412.789 250.984 413.727 250.984 414.83H251.984ZM251.277 411.552C250.788 410.574 250.008 409.827 248.964 409.31L248.52 410.207C249.389 410.637 250.001 411.235 250.383 411.999L251.277 411.552ZM248.968 409.312C247.916 408.781 246.566 408.534 244.95 408.534V409.534C246.477 409.534 247.655 409.77 248.517 410.205L248.968 409.312ZM244.95 408.534H238.756V409.534H244.95V408.534ZM238.256 409.034V435H239.256V409.034H238.256ZM238.756 434.5H235.234V435.5H238.756V434.5ZM248.488 422.172L255.647 435.24L256.524 434.76L249.365 421.692L248.488 422.172ZM256.086 434.5H251.995V435.5H256.086V434.5ZM252.435 434.763L245.39 421.695L244.509 422.169L251.555 435.237L252.435 434.763ZM244.95 422.432H248.927V421.432H244.95V422.432ZM272.07 435H271.57V435.5H272.07V435ZM272.07 405.909V405.409H271.57V405.909H272.07ZM287.254 406.96L287.019 407.402L287.022 407.403L287.254 406.96ZM290.195 409.759L289.756 409.999L289.757 410L290.195 409.759ZM290.493 416.733L290.054 416.493L290.052 416.497L290.493 416.733ZM288.76 418.665L288.485 418.247L288.483 418.249L288.76 418.665ZM286.445 419.716L286.313 419.234L285.945 419.334V419.716H286.445ZM286.445 420H285.945V420.469L286.413 420.499L286.445 420ZM289.129 420.938L288.862 421.36L288.862 421.36L289.129 420.938ZM291.303 431.207L291.737 431.455L291.737 431.455L291.303 431.207ZM288.163 433.977L287.948 433.526L287.948 433.526L288.163 433.977ZM275.592 431.875H275.092V432.375H275.592V431.875ZM287.482 430.54L287.82 430.907L287.821 430.907L287.482 430.54ZM288.192 424.545L287.762 424.801L287.763 424.803L288.192 424.545ZM286.047 422.528L285.806 422.966L285.809 422.968L286.047 422.528ZM275.592 421.761V421.261H275.092V421.761H275.592ZM275.592 418.693H275.092V419.193H275.592V418.693ZM284.996 418.068L284.778 417.618L284.776 417.619L284.996 418.068ZM287.041 416.307L286.627 416.027L286.624 416.031L287.041 416.307ZM286.473 410.384L286.118 410.735L286.119 410.737L286.473 410.384ZM275.592 409.034V408.534H275.092V409.034H275.592ZM272.57 435V405.909H271.57V435H272.57ZM272.07 406.409H282.24V405.409H272.07V406.409ZM282.24 406.409C284.213 406.409 285.797 406.751 287.019 407.402L287.489 406.519C286.079 405.768 284.32 405.409 282.24 405.409V406.409ZM287.022 407.403C288.261 408.054 289.165 408.92 289.756 409.999L290.633 409.518C289.937 408.248 288.88 407.249 287.487 406.518L287.022 407.403ZM289.757 410C290.357 411.086 290.661 412.295 290.661 413.636H291.661C291.661 412.137 291.32 410.76 290.632 409.517L289.757 410ZM290.661 413.636C290.661 414.83 290.448 415.773 290.054 416.493L290.932 416.973C291.428 416.064 291.661 414.942 291.661 413.636H290.661ZM290.052 416.497C289.653 417.243 289.13 417.823 288.485 418.247L289.035 419.082C289.829 418.56 290.462 417.851 290.934 416.969L290.052 416.497ZM288.483 418.249C287.818 418.692 287.095 419.02 286.313 419.234L286.576 420.198C287.461 419.957 288.282 419.584 289.037 419.081L288.483 418.249ZM285.945 419.716V420H286.945V419.716H285.945ZM286.413 420.499C287.205 420.55 288.02 420.828 288.862 421.36L289.396 420.515C288.439 419.91 287.465 419.564 286.476 419.501L286.413 420.499ZM288.862 421.36C289.683 421.879 290.382 422.629 290.954 423.629L291.822 423.133C291.181 422.012 290.375 421.133 289.396 420.515L288.862 421.36ZM290.954 423.629C291.507 424.597 291.797 425.804 291.797 427.273H292.797C292.797 425.674 292.481 424.286 291.822 423.133L290.954 423.629ZM291.797 427.273C291.797 428.652 291.484 429.877 290.868 430.96L291.737 431.455C292.447 430.208 292.797 428.81 292.797 427.273H291.797ZM290.868 430.96C290.264 432.021 289.303 432.88 287.948 433.526L288.379 434.429C289.884 433.711 291.015 432.724 291.737 431.455L290.868 430.96ZM287.948 433.526C286.609 434.165 284.829 434.5 282.581 434.5V435.5C284.916 435.5 286.858 435.153 288.379 434.429L287.948 433.526ZM282.581 434.5H272.07V435.5H282.581V434.5ZM275.592 432.375H282.581V431.375H275.592V432.375ZM282.581 432.375C284.921 432.375 286.714 431.927 287.82 430.907L287.143 430.172C286.317 430.933 284.843 431.375 282.581 431.375V432.375ZM287.821 430.907C288.894 429.917 289.445 428.697 289.445 427.273H288.445C288.445 428.406 288.02 429.363 287.143 430.172L287.821 430.907ZM289.445 427.273C289.445 426.198 289.169 425.2 288.62 424.287L287.763 424.803C288.218 425.558 288.445 426.378 288.445 427.273H289.445ZM288.621 424.29C288.07 423.363 287.286 422.63 286.285 422.089L285.809 422.968C286.664 423.431 287.31 424.042 287.762 424.801L288.621 424.29ZM286.288 422.09C285.273 421.531 284.088 421.261 282.751 421.261V422.261C283.953 422.261 284.965 422.503 285.806 422.966L286.288 422.09ZM282.751 421.261H275.592V422.261H282.751V421.261ZM275.092 421.761V431.875H276.092V421.761H275.092ZM275.592 419.193H282.126V418.193H275.592V419.193ZM282.126 419.193C283.254 419.193 284.287 418.971 285.215 418.517L284.776 417.619C284 417.998 283.12 418.193 282.126 418.193V419.193ZM285.213 418.518C286.151 418.065 286.904 417.419 287.458 416.583L286.624 416.031C286.175 416.709 285.564 417.238 284.778 417.618L285.213 418.518ZM287.456 416.587C288.029 415.737 288.308 414.746 288.308 413.636H287.308C287.308 414.572 287.076 415.362 286.627 416.027L287.456 416.587ZM288.308 413.636C288.308 412.228 287.812 411.016 286.827 410.03L286.119 410.737C286.914 411.532 287.308 412.488 287.308 413.636H288.308ZM286.828 410.032C285.805 408.997 284.236 408.534 282.24 408.534V409.534C284.107 409.534 285.361 409.97 286.118 410.735L286.828 410.032ZM282.24 408.534H275.592V409.534H282.24V408.534ZM275.092 409.034V418.693H276.092V409.034H275.092ZM320.969 428.409L320.521 428.187L320.521 428.187L320.969 428.409ZM316.409 433.58L316.675 434.003L316.675 434.003L316.409 433.58ZM303.17 433.58L302.905 434.003L302.905 434.003L303.17 433.58ZM298.611 428.409L299.059 428.187L299.059 428.187L298.611 428.409ZM298.611 412.5L298.163 412.278L298.611 412.5ZM316.409 407.33L316.675 406.906L316.675 406.906L316.409 407.33ZM320.969 412.5L320.521 412.722L320.521 412.722L320.969 412.5ZM317.957 414.077L317.507 414.293L317.508 414.295L317.957 414.077ZM314.562 410.142L314.297 410.566L314.298 410.567L314.562 410.142ZM305.003 410.142L304.739 409.718L304.737 409.718L305.003 410.142ZM301.608 414.077L301.158 413.858L301.157 413.86L301.608 414.077ZM301.608 426.832L301.157 427.049L301.158 427.051L301.608 426.832ZM305.003 430.767L304.737 431.191L304.739 431.192L305.003 430.767ZM314.562 430.767L314.298 430.343L314.297 430.343L314.562 430.767ZM317.957 426.832L317.508 426.614L317.507 426.616L317.957 426.832ZM322.131 420.455C322.131 423.463 321.588 426.035 320.521 428.187L321.417 428.631C322.566 426.313 323.131 423.582 323.131 420.455H322.131ZM320.521 428.187C319.45 430.347 317.99 431.997 316.143 433.156L316.675 434.003C318.692 432.737 320.272 430.941 321.417 428.631L320.521 428.187ZM316.143 433.156C314.298 434.314 312.185 434.898 309.79 434.898V435.898C312.356 435.898 314.656 435.27 316.675 434.003L316.143 433.156ZM309.79 434.898C307.394 434.898 305.281 434.314 303.436 433.156L302.905 434.003C304.923 435.27 307.223 435.898 309.79 435.898V434.898ZM303.436 433.156C301.59 431.997 300.13 430.347 299.059 428.187L298.163 428.631C299.308 430.941 300.887 432.737 302.905 434.003L303.436 433.156ZM299.059 428.187C297.992 426.035 297.449 423.463 297.449 420.455H296.449C296.449 423.582 297.014 426.313 298.163 428.631L299.059 428.187ZM297.449 420.455C297.449 417.446 297.992 414.874 299.059 412.722L298.163 412.278C297.014 414.596 296.449 417.327 296.449 420.455H297.449ZM299.059 412.722C300.13 410.562 301.59 408.912 303.436 407.753L302.905 406.906C300.887 408.172 299.308 409.968 298.163 412.278L299.059 412.722ZM303.436 407.753C305.281 406.595 307.394 406.011 309.79 406.011V405.011C307.223 405.011 304.923 405.64 302.905 406.906L303.436 407.753ZM309.79 406.011C312.185 406.011 314.298 406.595 316.143 407.753L316.675 406.906C314.656 405.64 312.356 405.011 309.79 405.011V406.011ZM316.143 407.753C317.99 408.912 319.45 410.562 320.521 412.722L321.417 412.278C320.272 409.968 318.692 408.172 316.675 406.906L316.143 407.753ZM320.521 412.722C321.588 414.874 322.131 417.446 322.131 420.455H323.131C323.131 417.327 322.566 414.596 321.417 412.278L320.521 412.722ZM319.722 420.455C319.722 417.882 319.292 415.677 318.407 413.858L317.508 414.295C318.309 415.943 318.722 417.989 318.722 420.455H319.722ZM318.408 413.86C317.539 412.054 316.348 410.665 314.827 409.718L314.298 410.567C315.637 411.4 316.709 412.634 317.507 414.293L318.408 413.86ZM314.828 409.718C313.324 408.776 311.64 408.307 309.79 408.307V409.307C311.462 409.307 312.96 409.728 314.297 410.566L314.828 409.718ZM309.79 408.307C307.939 408.307 306.252 408.776 304.739 409.718L305.267 410.567C306.614 409.728 308.117 409.307 309.79 409.307V408.307ZM304.737 409.718C303.226 410.665 302.036 412.054 301.158 413.858L302.058 414.295C302.866 412.634 303.939 411.399 305.268 410.566L304.737 409.718ZM301.157 413.86C300.283 415.678 299.858 417.883 299.858 420.455H300.858C300.858 417.988 301.266 415.941 302.059 414.293L301.157 413.86ZM299.858 420.455C299.858 423.026 300.283 425.231 301.157 427.049L302.059 426.616C301.266 424.968 300.858 422.921 300.858 420.455H299.858ZM301.158 427.051C302.036 428.855 303.226 430.244 304.737 431.191L305.268 430.343C303.939 429.51 302.866 428.275 302.058 426.614L301.158 427.051ZM304.739 431.192C306.252 432.133 307.939 432.602 309.79 432.602V431.602C308.117 431.602 306.614 431.181 305.267 430.343L304.739 431.192ZM309.79 432.602C311.64 432.602 313.324 432.133 314.828 431.191L314.297 430.343C312.96 431.181 311.462 431.602 309.79 431.602V432.602ZM314.827 431.192C316.348 430.244 317.539 428.855 318.408 427.049L317.507 426.616C316.709 428.276 315.637 429.509 314.298 430.343L314.827 431.192ZM318.407 427.051C319.292 425.232 319.722 423.027 319.722 420.455H318.722C318.722 422.92 318.309 424.966 317.508 426.614L318.407 427.051ZM351.438 428.409L350.99 428.187L350.99 428.187L351.438 428.409ZM346.878 433.58L347.144 434.003L347.144 434.003L346.878 433.58ZM333.639 433.58L333.373 434.003L333.373 434.003L333.639 433.58ZM329.08 428.409L329.528 428.187L329.528 428.187L329.08 428.409ZM329.08 412.5L328.632 412.278L329.08 412.5ZM346.878 407.33L347.144 406.906L347.144 406.906L346.878 407.33ZM351.438 412.5L350.99 412.722L350.99 412.722L351.438 412.5ZM348.426 414.077L347.976 414.293L347.976 414.295L348.426 414.077ZM345.031 410.142L344.766 410.566L344.767 410.567L345.031 410.142ZM335.472 410.142L335.207 409.718L335.206 409.718L335.472 410.142ZM332.077 414.077L331.627 413.858L331.626 413.86L332.077 414.077ZM332.077 426.832L331.626 427.049L331.627 427.051L332.077 426.832ZM335.472 430.767L335.206 431.191L335.207 431.192L335.472 430.767ZM345.031 430.767L344.767 430.343L344.766 430.343L345.031 430.767ZM348.426 426.832L347.976 426.614L347.976 426.616L348.426 426.832ZM352.599 420.455C352.599 423.463 352.056 426.035 350.99 428.187L351.885 428.631C353.035 426.313 353.599 423.582 353.599 420.455H352.599ZM350.99 428.187C349.919 430.347 348.458 431.997 346.612 433.156L347.144 434.003C349.161 432.737 350.741 430.941 351.885 428.631L350.99 428.187ZM346.612 433.156C344.767 434.314 342.654 434.898 340.259 434.898V435.898C342.825 435.898 345.125 435.27 347.144 434.003L346.612 433.156ZM340.259 434.898C337.863 434.898 335.75 434.314 333.905 433.156L333.373 434.003C335.392 435.27 337.692 435.898 340.259 435.898V434.898ZM333.905 433.156C332.059 431.997 330.598 430.347 329.528 428.187L328.632 428.631C329.777 430.941 331.356 432.737 333.373 434.003L333.905 433.156ZM329.528 428.187C328.461 426.035 327.918 423.463 327.918 420.455H326.918C326.918 423.582 327.482 426.313 328.632 428.631L329.528 428.187ZM327.918 420.455C327.918 417.446 328.461 414.874 329.528 412.722L328.632 412.278C327.482 414.596 326.918 417.327 326.918 420.455H327.918ZM329.528 412.722C330.598 410.562 332.059 408.912 333.905 407.753L333.373 406.906C331.356 408.172 329.777 409.968 328.632 412.278L329.528 412.722ZM333.905 407.753C335.75 406.595 337.863 406.011 340.259 406.011V405.011C337.692 405.011 335.392 405.64 333.373 406.906L333.905 407.753ZM340.259 406.011C342.654 406.011 344.767 406.595 346.612 407.753L347.144 406.906C345.125 405.64 342.825 405.011 340.259 405.011V406.011ZM346.612 407.753C348.458 408.912 349.919 410.562 350.99 412.722L351.885 412.278C350.741 409.968 349.161 408.172 347.144 406.906L346.612 407.753ZM350.99 412.722C352.056 414.874 352.599 417.446 352.599 420.455H353.599C353.599 417.327 353.035 414.596 351.885 412.278L350.99 412.722ZM350.19 420.455C350.19 417.882 349.76 415.677 348.876 413.858L347.976 414.295C348.778 415.943 349.19 417.989 349.19 420.455H350.19ZM348.877 413.86C348.008 412.054 346.817 410.665 345.295 409.718L344.767 410.567C346.105 411.4 347.177 412.634 347.976 414.293L348.877 413.86ZM345.297 409.718C343.793 408.776 342.109 408.307 340.259 408.307V409.307C341.931 409.307 343.429 409.728 344.766 410.566L345.297 409.718ZM340.259 408.307C338.408 408.307 336.72 408.776 335.207 409.718L335.736 410.567C337.083 409.728 338.586 409.307 340.259 409.307V408.307ZM335.206 409.718C333.695 410.665 332.505 412.054 331.627 413.858L332.526 414.295C333.334 412.634 334.407 411.399 335.737 410.566L335.206 409.718ZM331.626 413.86C330.752 415.678 330.327 417.883 330.327 420.455H331.327C331.327 417.988 331.735 415.941 332.527 414.293L331.626 413.86ZM330.327 420.455C330.327 423.026 330.752 425.231 331.626 427.049L332.527 426.616C331.735 424.968 331.327 422.921 331.327 420.455H330.327ZM331.627 427.051C332.505 428.855 333.695 430.244 335.206 431.191L335.737 430.343C334.407 429.51 333.334 428.275 332.526 426.614L331.627 427.051ZM335.207 431.192C336.72 432.133 338.408 432.602 340.259 432.602V431.602C338.586 431.602 337.083 431.181 335.736 430.343L335.207 431.192ZM340.259 432.602C342.109 432.602 343.793 432.133 345.297 431.191L344.766 430.343C343.429 431.181 341.931 431.602 340.259 431.602V432.602ZM345.295 431.192C346.817 430.244 348.008 428.855 348.877 427.049L347.976 426.616C347.177 428.276 346.105 429.509 344.767 430.343L345.295 431.192ZM348.876 427.051C349.76 425.232 350.19 423.027 350.19 420.455H349.19C349.19 422.92 348.778 424.966 347.976 426.614L348.876 427.051ZM359.023 435H358.523V435.5H359.023V435ZM359.023 405.909V405.409H358.523V405.909H359.023ZM362.545 405.909H363.045V405.409H362.545V405.909ZM362.545 420.341H362.045V420.841H362.545V420.341ZM362.886 420.341V420.841H363.108L363.257 420.677L362.886 420.341ZM375.955 405.909V405.409H375.733L375.584 405.573L375.955 405.909ZM380.557 405.909L380.923 406.25L381.705 405.409H380.557V405.909ZM368.341 419.034L367.975 418.693L367.687 419.003L367.944 419.338L368.341 419.034ZM380.557 435V435.5H381.569L380.954 434.696L380.557 435ZM376.295 435L375.895 435.299L376.045 435.5H376.295V435ZM366.182 421.477L366.582 421.178L366.215 420.687L365.808 421.145L366.182 421.477ZM362.545 425.568L362.172 425.236L362.045 425.378V425.568H362.545ZM362.545 435V435.5H363.045V435H362.545ZM359.523 435V405.909H358.523V435H359.523ZM359.023 406.409H362.545V405.409H359.023V406.409ZM362.045 405.909V420.341H363.045V405.909H362.045ZM362.545 420.841H362.886V419.841H362.545V420.841ZM363.257 420.677L376.325 406.245L375.584 405.573L362.516 420.005L363.257 420.677ZM375.955 406.409H380.557V405.409H375.955V406.409ZM380.191 405.568L367.975 418.693L368.707 419.375L380.923 406.25L380.191 405.568ZM367.944 419.338L380.16 435.304L380.954 434.696L368.738 418.73L367.944 419.338ZM380.557 434.5H376.295V435.5H380.557V434.5ZM376.696 434.701L366.582 421.178L365.781 421.777L375.895 435.299L376.696 434.701ZM365.808 421.145L362.172 425.236L362.919 425.9L366.556 421.809L365.808 421.145ZM362.045 425.568V435H363.045V425.568H362.045ZM362.545 434.5H359.023V435.5H362.545V434.5Z" fill="#EDDFD6"/>
<rect x="408" y="449" width="71" height="36" fill="#222222"/>
</g>
</g>
<defs>
<clipPath id="clip0_2_38">
<rect width="500" height="500" fill="white"/>
</clipPath>
<clipPath id="clip1_2_38">
<rect width="500" height="500" fill="white"/>
</clipPath>
</defs>
</svg>
