<?xml version="1.0" encoding="utf-8"?>
<!-- Generator: Adobe Illustrator 24.1.1, SVG Export Plug-In . SVG Version: 6.00 Build 0)  -->
<svg version="1.1" id="Capa_1" xmlns="http://www.w3.org/2000/svg" xmlns:xlink="http://www.w3.org/1999/xlink" x="0px" y="0px"
	 viewBox="0 0 134.9 134.9" style="enable-background:new 0 0 134.9 134.9;" xml:space="preserve">
<style type="text/css">
	.st0{fill:#1D1D1B;}
	.st1{fill:#EDDFD6;}
	.st2{fill:#222222;}
	.st3{fill:#EDDFD6;stroke:#1D1D1B;stroke-width:0.42;stroke-linecap:round;stroke-linejoin:round;}
	.st4{fill:#1D1D1B;stroke:#EDDFD6;stroke-width:0.42;stroke-miterlimit:10;}
	.st5{fill:none;stroke:#1D1D1B;stroke-width:0.42;stroke-miterlimit:10;}
	.st6{fill:#00AEEF;}
	.st7{enable-background:new    ;}
	.st8{font-family:'ArialMT';}
	.st9{font-size:92px;}
	.st10{font-family:'NotoSans-Bold';}
	.st11{font-size:19px;}
	.st12{fill:#EDDFD6;stroke:#1D1D1B;stroke-width:0.6437;stroke-miterlimit:10;}
	.st13{fill:#EDDFD6;stroke:#1D1D1B;stroke-width:0.6073;stroke-miterlimit:10;}
	.st14{fill:#EDDFD6;stroke:#1D1D1B;stroke-width:0.5101;stroke-miterlimit:10;}
</style>
<g id="_x30_2">
	<path class="st0" d="M0.1-0.3h134.6c0.1,0,0.2,0.1,0.2,0.2v134.9c0,0.1-0.1,0.2-0.2,0.2H0.1c-0.1,0-0.2-0.1-0.2-0.2V-0.1
		C-0.1-0.2,0-0.3,0.1-0.3z"/>
	<g class="st7">
		<path class="st1" d="M29.2,99.7V35.8h8.5v56.3h31.5v7.5H29.2z"/>
		<path class="st1" d="M105.5,99.7h-7.8v-50c-1.9,1.8-4.4,3.6-7.4,5.4c-3.1,1.8-5.8,3.2-8.3,4.1v-7.6c4.4-2.1,8.2-4.6,11.5-7.5
			c3.3-2.9,5.6-5.8,7-8.5h5.1V99.7z"/>
	</g>
	<text transform="matrix(1 0 0 1 19.1183 -17.38)" class="st1 st8 st9">L1</text>
	<g>
		<path class="st1" d="M0-0.1h28.5v20.2c0,3.8-3.1,6.8-6.8,6.8H0V-0.1z"/>
		<g>
			<path class="st0" d="M13.8,14.1c0,1.5-0.2,2.7-0.5,3.7s-0.8,1.8-1.5,2.4C11.1,20.8,10.2,21,9,21c-1.6,0-2.8-0.6-3.6-1.8
				s-1.1-2.9-1.1-5.1c0-1.5,0.2-2.7,0.5-3.8c0.3-1,0.8-1.8,1.5-2.4C6.9,7.4,7.9,7.1,9,7.1c1.6,0,2.8,0.6,3.6,1.8
				C13.4,10.1,13.8,11.9,13.8,14.1z M7.1,14.1c0,1.5,0.1,2.7,0.4,3.5c0.3,0.8,0.8,1.2,1.5,1.2c0.7,0,1.2-0.4,1.5-1.2
				c0.3-0.8,0.4-1.9,0.4-3.5c0-1.5-0.1-2.7-0.4-3.5C10.2,9.8,9.7,9.4,9,9.4c-0.7,0-1.2,0.4-1.5,1.2C7.3,11.4,7.1,12.5,7.1,14.1z"/>
			<path class="st0" d="M24.7,20.8h-9.5v-2l3.4-3.4c0.7-0.7,1.2-1.3,1.7-1.8s0.7-0.9,0.9-1.3s0.3-0.8,0.3-1.2c0-0.5-0.1-0.9-0.4-1.2
				c-0.3-0.3-0.7-0.4-1.2-0.4c-0.5,0-1,0.1-1.5,0.4s-1,0.6-1.6,1L15.2,9c0.4-0.3,0.8-0.6,1.2-0.9c0.4-0.3,1-0.5,1.5-0.7
				s1.3-0.3,2.1-0.3c0.9,0,1.6,0.2,2.3,0.5c0.6,0.3,1.1,0.8,1.5,1.3c0.3,0.6,0.5,1.2,0.5,1.9c0,0.7-0.1,1.4-0.4,2.1
				c-0.3,0.6-0.7,1.2-1.3,1.8c-0.6,0.6-1.2,1.3-2,2l-1.7,1.6v0.1h5.9V20.8z"/>
		</g>
		<text transform="matrix(1 0 0 1 4.0279 -5.5759)" class="st10 st11">02</text>
	</g>
</g>
</svg>
