<?xml version="1.0" encoding="UTF-8"?><svg xmlns="http://www.w3.org/2000/svg" viewBox="0 0 134.89 134.89"><defs><style>.d{fill:#eddfd6;}.e,.f{fill:#1d1d1b;}.g{fill:none;stroke:#eddfd6;stroke-miterlimit:10;stroke-width:17px;}.f{font-family:Helvetica, Helvetica;font-size:11.07px;}</style></defs><g id="a"/><g id="b"><g id="c"><g><rect class="e" x=".21" y=".21" width="134.46" height="134.46" rx=".21" ry=".21"/><path class="d" d="M134.46,.42V134.46H.42V.42H134.46m0-.42H.42c-.23,0-.42,.19-.42,.42V134.46c0,.23,.19,.42,.42,.42H134.46c.23,0,.42-.19,.42-.42V.42c0-.23-.19-.42-.42-.42h0Z"/></g><g><rect class="d" x="53.36" y="26.25" width="17.75" height="87.21"/><path class="g" d="M64.46,107.87l4.59-5.63c2.14-2.63,4.43-5.14,6.94-7.42,18.94-17.21,17.74-34.56,.36-47.69-6.02-4.54-10.69-10.63-13.22-17.74h0"/><g><rect class="e" x="50.4" y="67.23" width="23.68" height="8.19" rx=".21" ry=".21"/><path class="d" d="M73.86,67.44v7.76h-23.25v-7.76h23.25m0-.42h-23.25c-.23,0-.42,.19-.42,.42v7.76c0,.23,.19,.42,.42,.42h23.25c.23,0,.42-.19,.42-.42v-7.76c0-.23-.19-.42-.42-.42h0Z"/></g></g><g><rect class="e" x="61.49" y="34.35" width="1.49" height="9.72" rx=".21" ry=".21"/><path class="d" d="M62.77,34.56v9.29h-1.07v-9.29h1.07m0-.42h-1.07c-.23,0-.42,.19-.42,.42v9.29c0,.23,.19,.42,.42,.42h1.07c.23,0,.42-.19,.42-.42v-9.29c0-.23-.19-.42-.42-.42h0Z"/></g><g><rect class="e" x="61.49" y="53.41" width="1.49" height="9.72" rx=".21" ry=".21"/><path class="d" d="M62.77,53.62v9.29h-1.07v-9.29h1.07m0-.42h-1.07c-.23,0-.42,.19-.42,.42v9.29c0,.23,.19,.42,.42,.42h1.07c.23,0,.42-.19,.42-.42v-9.29c0-.23-.19-.42-.42-.42h0Z"/></g><g><rect class="e" x="61.49" y="75.5" width="1.49" height="6.69" rx=".21" ry=".21"/><path class="d" d="M62.77,75.71v6.26h-1.07v-6.26h1.07m0-.42h-1.07c-.23,0-.42,.19-.42,.42v6.26c0,.23,.19,.42,.42,.42h1.07c.23,0,.42-.19,.42-.42v-6.26c0-.23-.19-.42-.42-.42h0Z"/></g><g><rect class="e" x="61.49" y="91.54" width="1.49" height="9.72" rx=".21" ry=".21"/><path class="d" d="M62.77,91.75v9.29h-1.07v-9.29h1.07m0-.42h-1.07c-.23,0-.42,.19-.42,.42v9.29c0,.23,.19,.42,.42,.42h1.07c.23,0,.42-.19,.42-.42v-9.29c0-.23-.19-.42-.42-.42h0Z"/></g><rect class="d" x=".08" y=".42" width="21.13" height="21.13"/><text class="f" transform="translate(4.77 15.21)"><tspan x="0" y="0">07</tspan></text></g></g></svg>