<?xml version="1.0" encoding="utf-8"?>
<!-- Generator: Adobe Illustrator 24.1.1, SVG Export Plug-In . SVG Version: 6.00 Build 0)  -->
<svg version="1.1" id="Capa_1" xmlns="http://www.w3.org/2000/svg" xmlns:xlink="http://www.w3.org/1999/xlink" x="0px" y="0px"
	 viewBox="0 0 134.9 134.9" style="enable-background:new 0 0 134.9 134.9;" xml:space="preserve">
<style type="text/css">
	.st0{fill:#1D1D1B;}
	.st1{fill:#EDDFD6;}
	.st2{fill:#222222;}
	.st3{fill:#EDDFD6;stroke:#1D1D1B;stroke-width:0.42;stroke-linecap:round;stroke-linejoin:round;}
	.st4{fill:#1D1D1B;stroke:#EDDFD6;stroke-width:0.42;stroke-miterlimit:10;}
	.st5{fill:none;stroke:#1D1D1B;stroke-width:0.42;stroke-miterlimit:10;}
	.st6{fill:#00AEEF;}
	.st7{enable-background:new    ;}
	.st8{fill:#EDDFD6;stroke:#1D1D1B;stroke-width:0.6437;stroke-miterlimit:10;}
	.st9{fill:#EDDFD6;stroke:#1D1D1B;stroke-width:0.6073;stroke-miterlimit:10;}
	.st10{fill:#EDDFD6;stroke:#1D1D1B;stroke-width:0.5101;stroke-miterlimit:10;}
	.st11{fill:#EDDFD6;stroke:#1D1D1B;stroke-width:0.42;stroke-miterlimit:10;}
	.st12{fill:#EDDFD6;stroke:#1D1D1B;stroke-width:0.6356;stroke-miterlimit:10;}
	.st13{fill:#EDDFD6;stroke:#1D1D1B;stroke-width:0.5996;stroke-miterlimit:10;}
	.st14{fill:#EDDFD6;stroke:#1D1D1B;stroke-width:0.5037;stroke-miterlimit:10;}
	.st15{fill:#EDDFD6;stroke:#1D1D1B;stroke-width:0.422;stroke-miterlimit:10;}
	.st16{fill:#1D1D1B;stroke:#EDDFD6;stroke-width:0.422;stroke-miterlimit:10;}
	.st17{fill:none;stroke:#1D1D1B;stroke-width:0.422;stroke-miterlimit:10;}
	.st18{fill:none;stroke:#EDDFD6;stroke-width:0.422;stroke-linecap:round;stroke-linejoin:round;}
	.st19{fill:none;stroke:#EDDFD6;stroke-width:17;stroke-miterlimit:10;}
	.st20{fill:#EDDFD6;stroke:#EDDFD6;stroke-width:0.42;stroke-miterlimit:10;}
	.st21{fill:#EDDFD6;stroke:#1D1D1B;stroke-width:0.4786;stroke-miterlimit:10;}
	.st22{fill:#1D1D1B;stroke:#EDDFD6;stroke-width:0.4786;stroke-miterlimit:10;}
	.st23{fill:none;stroke:#1D1D1B;stroke-width:0.4786;stroke-miterlimit:10;}
	.st24{fill:none;stroke:#EDDFD6;stroke-width:0.4786;stroke-miterlimit:10;}
	.st25{fill:none;stroke:#EDDFD6;stroke-width:0.9265;stroke-miterlimit:10;}
	.st26{font-family:'NotoSans-Bold';}
	.st27{font-size:19px;}
</style>
<g id="_x31_3">
	<rect x="0" y="0" class="st0" width="135" height="135"/>
	<g>
		<g>
			<polygon class="st11" points="31.1,46.5 27.4,50.1 27.4,46.5 			"/>
			<polygon class="st11" points="44.4,46.5 32.8,58 27.4,58 27.4,54.6 35.6,46.5 			"/>
			<polygon class="st11" points="57.7,46.5 46.1,58 37.3,58 48.9,46.5 			"/>
			<polygon class="st11" points="71,46.5 59.4,58 50.6,58 62.2,46.5 			"/>
			<polygon class="st11" points="84.3,46.5 72.8,58 64,58 75.5,46.5 			"/>
			<polygon class="st11" points="97.6,46.5 86.1,58 77.3,58 88.8,46.5 			"/>
			<polygon class="st11" points="107.5,46.5 107.5,49.9 99.4,58 90.6,58 102.2,46.5 			"/>
			<polygon class="st11" points="103.9,58 107.5,54.4 107.5,58 			"/>
		</g>
		<rect x="44.4" y="87.7" class="st11" width="46.4" height="4.8"/>
		<rect x="27.4" y="46.5" class="st5" width="80.1" height="11.6"/>
		<rect x="37.5" y="36.8" class="st11" width="6.9" height="71.8"/>
		<rect x="90.8" y="36.8" class="st11" width="6.9" height="71.8"/>
		<circle class="st11" cx="40.9" cy="33.7" r="7.3"/>
		<circle class="st11" cx="94.2" cy="33.7" r="7.3"/>
	</g>
	<g>
		<path class="st1" d="M-0.1-0.1h28.5V20c0,3.8-3.1,6.8-6.8,6.8H-0.1V-0.1z"/>
		<text transform="matrix(1 0 0 1 2.441 -2.2479)" class="st0 st26 st27">13</text>
		<g>
			<path class="st0" d="M11.3,20.6H8.4v-7.8c0-0.3,0-0.7,0-1.3s0-1,0.1-1.4c-0.1,0.1-0.2,0.2-0.4,0.4c-0.2,0.2-0.4,0.4-0.6,0.5
				L6,12.2l-1.4-1.7L9,7h2.4V20.6z"/>
			<path class="st0" d="M24,10.1c0,0.9-0.3,1.7-0.8,2.2c-0.6,0.6-1.3,0.9-2.1,1.1v0.1c1.1,0.1,1.9,0.5,2.5,1
				c0.6,0.5,0.9,1.2,0.9,2.1c0,0.8-0.2,1.5-0.6,2.1s-1,1.1-1.8,1.5s-1.8,0.5-3.1,0.5c-1.5,0-2.8-0.2-3.9-0.7v-2.4
				c0.6,0.3,1.2,0.5,1.8,0.7c0.6,0.2,1.2,0.2,1.8,0.2c1,0,1.7-0.2,2.2-0.5c0.4-0.4,0.6-0.9,0.6-1.5c0-0.4-0.1-0.7-0.3-1
				c-0.2-0.3-0.5-0.5-1-0.6c-0.5-0.1-1.1-0.2-2-0.2h-1v-2.2h1c0.8,0,1.5-0.1,1.9-0.2c0.4-0.2,0.7-0.4,0.9-0.6s0.2-0.6,0.2-0.9
				c0-0.5-0.1-0.9-0.4-1.1S20,9.2,19.3,9.2c-0.6,0-1.2,0.1-1.7,0.3s-0.9,0.4-1.2,0.6l-1.3-2c0.5-0.4,1.2-0.7,1.9-1s1.6-0.4,2.6-0.4
				c1.4,0,2.5,0.3,3.3,0.8C23.6,8.3,24,9.1,24,10.1z"/>
		</g>
	</g>
</g>
</svg>
