<?xml version="1.0" encoding="UTF-8"?><svg xmlns="http://www.w3.org/2000/svg" viewBox="0 0 134.89 134.89"><defs><style>.d,.e{fill:#eddfd6;}.f,.g,.h{fill:#1d1d1b;}.e{stroke:#1d1d1b;}.e,.g{stroke-miterlimit:10;stroke-width:.42px;}.g{stroke:#eddfd6;}.h{font-family:Helvetica, Helvetica;font-size:11.07px;}</style></defs><g id="a"/><g id="b"><g id="c"><g><g><rect class="f" x=".21" y=".21" width="134.46" height="134.46" rx=".21" ry=".21"/><path class="d" d="M134.46,.42V134.46H.42V.42H134.46m0-.42H.42c-.23,0-.42,.19-.42,.42V134.46c0,.23,.19,.42,.42,.42H134.46c.23,0,.42-.19,.42-.42V.42c0-.23-.19-.42-.42-.42h0Z"/></g><rect class="e" x="26.19" y="33.51" width="88.39" height="72.78"/><rect class="e" x="35.33" y="41.04" width="70.1" height="57.72"/><rect class="g" x="68.07" y="48.17" width="29.12" height="43.45"/><g><g><rect class="e" x="71.65" y="52.41" width="5.04" height="5.04"/><rect class="e" x="80.01" y="52.41" width="5.04" height="5.04"/><rect class="e" x="88.38" y="52.41" width="5.04" height="5.04"/></g><g><rect class="e" x="71.65" y="60.22" width="5.04" height="5.04"/><rect class="e" x="80.01" y="60.22" width="5.04" height="5.04"/><rect class="e" x="88.38" y="60.22" width="5.04" height="5.04"/></g><g><rect class="e" x="71.65" y="68.03" width="5.04" height="5.04"/><rect class="e" x="80.01" y="68.03" width="5.04" height="5.04"/><rect class="e" x="88.38" y="68.03" width="5.04" height="5.04"/></g><g><rect class="e" x="71.65" y="75.84" width="5.04" height="5.04"/><rect class="e" x="80.01" y="75.84" width="5.04" height="5.04"/><rect class="e" x="88.38" y="75.84" width="5.04" height="5.04"/></g></g><rect class="e" x="71.65" y="83.52" width="13.4" height="5.04"/><rect class="e" x="88.38" y="83.52" width="5.04" height="5.04"/><g><circle class="g" cx="51.78" cy="69.19" r="9.26"/><g><rect class="d" x="50.84" y="65.96" width="1.86" height="4.65"/><circle class="d" cx="51.78" cy="70.61" r="1.82"/></g></g><g><path class="d" d="M35.33,60.31c-.41-2.04-1.41-3.92-2.92-5.43-1.51-1.51-3.38-2.51-5.43-2.92,2.04-.41,3.92-1.41,5.43-2.92,1.51-1.51,2.51-3.39,2.92-5.43,.85,4.19,4.16,7.5,8.36,8.36-2.05,.41-3.93,1.41-5.44,2.92-1.51,1.51-2.51,3.39-2.92,5.43Z"/><path class="f" d="M35.33,44.49c1.04,3.59,3.87,6.43,7.46,7.46-1.76,.5-3.37,1.45-4.69,2.77-1.33,1.33-2.27,2.93-2.77,4.69-.5-1.75-1.45-3.36-2.77-4.69-1.32-1.33-2.93-2.27-4.68-2.77,1.75-.5,3.36-1.45,4.68-2.77,1.33-1.33,2.27-2.94,2.77-4.69m0-3.02c0,2.89-1.17,5.52-3.07,7.41-1.89,1.9-4.52,3.07-7.41,3.07,2.9,0,5.52,1.17,7.41,3.07,1.9,1.9,3.07,4.52,3.07,7.42,0-2.9,1.17-5.52,3.07-7.42s4.52-3.07,7.42-3.07c-5.79,0-10.49-4.7-10.49-10.49h0Z"/></g></g><rect class="d" x=".42" y=".42" width="21.13" height="21.13"/><text class="h" transform="translate(5.12 15.21)"><tspan x="0" y="0">08</tspan></text></g></g></svg>