<?xml version="1.0" encoding="UTF-8"?><svg xmlns="http://www.w3.org/2000/svg" viewBox="0 0 134.46 134.46"><defs><style>.d{fill:#eddfd6;}.e{stroke:#eddfd6;stroke-miterlimit:10;stroke-width:.42px;}.e,.f{fill:#1d1d1b;}.f{font-family:Helvetica, Helvetica;font-size:11.07px;}</style></defs><g id="a"/><g id="b"><g id="c"><rect class="e" x=".21" y=".21" width="134.04" height="134.04"/><rect class="d" x=".43" y=".42" width="21.13" height="21.13"/><text class="f" transform="translate(4.13 15.21)"><tspan x="0" y="0">12</tspan></text><g><g><path class="d" d="M67.23,76.55c-14.13,0-25.63-11.5-25.63-25.63s11.5-25.63,25.63-25.63,25.63,11.5,25.63,25.63-11.5,25.63-25.63,25.63Z"/><path class="d" d="M67.23,25.49c14.04,0,25.42,11.38,25.42,25.42s-11.38,25.42-25.42,25.42-25.42-11.38-25.42-25.42,11.38-25.42,25.42-25.42m0-.42c-14.25,0-25.85,11.59-25.85,25.85s11.59,25.85,25.85,25.85,25.85-11.59,25.85-25.85-11.59-25.85-25.85-25.85h0Z"/></g><path class="d" d="M41.81,50.92v21.9c0,1.79,.39,3.56,1.15,5.19l4.05,8.67c2.02,4.32,6.35,7.07,11.11,7.07h17.96c4.68,0,8.95-2.66,11.01-6.86l4.31-8.79c.82-1.68,1.25-3.53,1.25-5.4v-21.77"/><rect class="d" x="54.28" y="88.03" width="26.57" height="25.06"/></g><rect class="e" x="58.37" y="72.67" width="18.33" height="8.87" rx="4.44" ry="4.44"/><rect class="d" x="49.81" y="92.69" width="35.11" height="5.35" rx="2.52" ry="2.52"/><rect class="d" x="49.81" y="98.04" width="35.11" height="9.78" rx="2.52" ry="2.52"/><rect class="d" x="49.81" y="107.82" width="35.11" height="5.43" rx="2.52" ry="2.52"/><path class="e" d="M50.39,56.6v8.3c0,.84,.84,1.41,1.62,1.11l10.65-4.15c1.01-.39,1.01-1.83,0-2.22l-10.65-4.15c-.78-.3-1.62,.27-1.62,1.11Z"/><path class="e" d="M84.92,64.75v-8.3c0-.84-.84-1.41-1.62-1.11l-10.65,4.15c-1.01,.39-1.01,1.83,0,2.22l10.65,4.15c.78,.3,1.62-.27,1.62-1.11Z"/></g></g></svg>