<?xml version="1.0" encoding="utf-8"?>
<!-- Generator: Adobe Illustrator 24.1.1, SVG Export Plug-In . SVG Version: 6.00 Build 0)  -->
<svg version="1.1" id="Capa_1" xmlns="http://www.w3.org/2000/svg" xmlns:xlink="http://www.w3.org/1999/xlink" x="0px" y="0px"
	 viewBox="0 0 134.9 134.9" style="enable-background:new 0 0 134.9 134.9;" xml:space="preserve">
<style type="text/css">
	.st0{fill:#1D1D1B;}
	.st1{fill:#EDDFD6;}
	.st2{fill:#222222;}
	.st3{fill:#EDDFD6;stroke:#1D1D1B;stroke-width:0.42;stroke-linecap:round;stroke-linejoin:round;}
	.st4{fill:#1D1D1B;stroke:#EDDFD6;stroke-width:0.42;stroke-miterlimit:10;}
	.st5{fill:none;stroke:#1D1D1B;stroke-width:0.42;stroke-miterlimit:10;}
	.st6{fill:#00AEEF;}
	.st7{enable-background:new    ;}
	.st8{fill:#EDDFD6;stroke:#1D1D1B;stroke-width:0.6437;stroke-miterlimit:10;}
	.st9{fill:#EDDFD6;stroke:#1D1D1B;stroke-width:0.6073;stroke-miterlimit:10;}
	.st10{fill:#EDDFD6;stroke:#1D1D1B;stroke-width:0.5101;stroke-miterlimit:10;}
	.st11{fill:#EDDFD6;stroke:#1D1D1B;stroke-width:0.42;stroke-miterlimit:10;}
	.st12{fill:#EDDFD6;stroke:#1D1D1B;stroke-width:0.6356;stroke-miterlimit:10;}
	.st13{fill:#EDDFD6;stroke:#1D1D1B;stroke-width:0.5996;stroke-miterlimit:10;}
	.st14{fill:#EDDFD6;stroke:#1D1D1B;stroke-width:0.5037;stroke-miterlimit:10;}
	.st15{fill:#EDDFD6;stroke:#1D1D1B;stroke-width:0.422;stroke-miterlimit:10;}
	.st16{fill:#1D1D1B;stroke:#EDDFD6;stroke-width:0.422;stroke-miterlimit:10;}
	.st17{fill:none;stroke:#1D1D1B;stroke-width:0.422;stroke-miterlimit:10;}
	.st18{fill:none;stroke:#EDDFD6;stroke-width:0.422;stroke-linecap:round;stroke-linejoin:round;}
	.st19{font-family:'NotoSans-Bold';}
	.st20{font-size:19px;}
</style>
<g id="_x30_6">
	<rect x="0" y="0" class="st0" width="135.1" height="135.1"/>
	<g>
		<rect x="39.8" y="23.7" class="st15" width="55.5" height="87.6"/>
		<rect x="41.2" y="25.5" class="st15" width="52.4" height="85.8"/>
		<rect x="45.8" y="30.6" class="st15" width="43.3" height="80.7"/>
		<ellipse class="st16" cx="81.6" cy="72.4" rx="1.2" ry="1.7"/>
		<polygon class="st0" points="45.8,30.6 79.4,36.8 79.4,111.3 89,111.3 89,30.6 		"/>
		<polygon class="st0" points="45.8,111.3 86.2,102.8 86.2,111.3 		"/>
		<circle class="st17" cx="75.8" cy="71.4" r="1.9"/>
		<path class="st0" d="M83.6,74.3l0.5,0.3c1.3,0.7,1.7,2.3,1,3.6l-9.8,16.9c-0.7,1.3-2.3,1.7-3.6,1l-0.5-0.3c-1.3-0.7-1.7-2.3-1-3.6
			L80,75.3C80.8,74,82.4,73.6,83.6,74.3z"/>
		<path class="st0" d="M57.7,93.8v-0.6c0-1.5,1.2-2.6,2.6-2.6h12.9c1.5,0,2.6,1.2,2.6,2.6v0.6c0,1.5-1.2,2.6-2.6,2.6H60.3
			C58.9,96.4,57.7,95.2,57.7,93.8z"/>
		<path class="st0" d="M57.7,90.5H62v6.1c0,2.1-1.7,3.9-3.9,3.9h-0.4L57.7,90.5L57.7,90.5L57.7,90.5z"/>
		<line class="st18" x1="62.3" y1="93.9" x2="62.3" y2="98"/>
	</g>
	<g>
		<path class="st1" d="M-0.1-0.1h28.5V20c0,3.8-3.1,6.8-6.8,6.8H-0.1V-0.1z"/>
		<text transform="matrix(1 0 0 1 2.4266 -2.2603)" class="st0 st19 st20">06</text>
		<g>
			<path class="st0" d="M13.7,13.9c0,1.5-0.2,2.7-0.5,3.7s-0.8,1.8-1.5,2.4c-0.7,0.6-1.6,0.8-2.8,0.8c-1.6,0-2.8-0.6-3.6-1.8
				s-1.1-2.9-1.1-5.1c0-1.5,0.2-2.7,0.5-3.8c0.3-1,0.8-1.8,1.5-2.4C6.9,7.2,7.8,6.9,9,6.9c1.6,0,2.8,0.6,3.6,1.8
				C13.4,10,13.7,11.7,13.7,13.9z M7.1,13.9c0,1.5,0.1,2.7,0.4,3.5c0.3,0.8,0.8,1.2,1.5,1.2c0.7,0,1.2-0.4,1.5-1.2
				c0.3-0.8,0.4-1.9,0.4-3.5c0-1.5-0.1-2.7-0.4-3.5C10.2,9.7,9.7,9.3,9,9.3c-0.7,0-1.2,0.4-1.5,1.2C7.2,11.2,7.1,12.4,7.1,13.9z"/>
			<path class="st0" d="M15.1,15c0-0.8,0.1-1.5,0.2-2.3c0.1-0.8,0.3-1.5,0.6-2.2s0.7-1.3,1.2-1.8c0.5-0.5,1.2-0.9,2-1.2
				C19.8,7.1,20.8,7,21.9,7c0.3,0,0.6,0,0.9,0s0.7,0.1,0.9,0.1v2.3c-0.2-0.1-0.5-0.1-0.8-0.1c-0.3,0-0.6-0.1-0.8-0.1
				c-1.1,0-2,0.2-2.6,0.5s-1,0.9-1.3,1.5c-0.3,0.6-0.4,1.4-0.4,2.2h0.1c0.3-0.4,0.6-0.8,1.1-1.1c0.5-0.3,1.1-0.5,1.9-0.5
				c1.2,0,2.1,0.4,2.8,1.1c0.7,0.7,1,1.8,1,3.2c0,1.5-0.4,2.6-1.2,3.5c-0.8,0.8-2,1.3-3.4,1.3c-0.9,0-1.8-0.2-2.5-0.6
				c-0.7-0.4-1.3-1.1-1.8-2S15.1,16.3,15.1,15z M20,18.6c0.6,0,1-0.2,1.4-0.6c0.4-0.4,0.5-1,0.5-1.8c0-0.7-0.2-1.2-0.5-1.6
				s-0.8-0.6-1.4-0.6c-0.4,0-0.8,0.1-1.1,0.3c-0.3,0.2-0.6,0.4-0.7,0.7C18,15.4,18,15.7,18,16c0,0.4,0.1,0.8,0.2,1.2
				c0.2,0.4,0.4,0.7,0.7,1C19.2,18.5,19.6,18.6,20,18.6z"/>
		</g>
	</g>
</g>
</svg>
