<?xml version="1.0" encoding="UTF-8"?><svg xmlns="http://www.w3.org/2000/svg" viewBox="0 0 134.89 134.89"><defs><style>.d,.e{fill:#eddfd6;}.f,.g,.h{fill:#1d1d1b;}.e{stroke-miterlimit:10;}.e,.g{stroke:#1d1d1b;stroke-width:.42px;}.g{stroke-linecap:round;stroke-linejoin:round;}.h{font-family:Helvetica, Helvetica;font-size:11.07px;}</style></defs><g id="a"/><g id="b"><g id="c"><g><g><g><rect class="f" x=".21" y=".21" width="134.46" height="134.46" rx=".21" ry=".21"/><path class="d" d="M134.46,.42V134.46H.42V.42H134.46m0-.42H.42c-.23,0-.42,.19-.42,.42V134.46c0,.23,.19,.42,.42,.42H134.46c.23,0,.42-.19,.42-.42V.42c0-.23-.19-.42-.42-.42h0Z"/></g><g><path class="e" d="M91.67,44.79c-4.92-6.87-12.85-10.94-21.29-10.94h-5.88c-8.44,0-16.37,4.08-21.29,10.94-3.24,4.51-4.9,9.86-4.9,15.26,0,2.99,.51,6,1.56,8.9,3.95,10.96,10.52,20.77,19.14,28.62l.2,.19c2.33,2.13,5.27,3.24,8.23,3.29,2.97-.05,5.9-1.16,8.23-3.29l.2-.19c8.61-7.84,15.18-17.66,19.14-28.62,1.04-2.9,1.56-5.9,1.56-8.9,0-5.4-1.67-10.75-4.9-15.26Z"/><ellipse class="g" cx="53.02" cy="70.95" rx="4.92" ry="10.99" transform="translate(-20.17 21.07) rotate(-18.95)"/><ellipse class="g" cx="81.43" cy="70.95" rx="10.99" ry="4.92" transform="translate(-12.12 124.92) rotate(-71.05)"/><path class="g" d="M67.67,91.96l-3.32,.03c.02,1.81,1.51,3.29,3.32,3.29s3.32-1.5,3.32-3.32h-3.32Z"/></g></g><rect class="d" x=".42" y=".42" width="21.13" height="21.13"/><text class="h" transform="translate(4.31 15.21)"><tspan x="0" y="0">19</tspan></text></g></g></g></svg>