<?xml version="1.0" encoding="UTF-8"?><svg xmlns="http://www.w3.org/2000/svg" viewBox="0 0 134.89 134.89"><defs><style>.d{font-size:10px;}.d,.e{fill:#eddfd6;}.d,.f{font-family:Helvetica-Bold, Helvetica;}.g{stroke-width:.42px;}.g,.h{fill:none;stroke:#1d1d1b;stroke-miterlimit:10;}.h{stroke-width:.42px;}.i{fill:#00aeef;}.j,.f{fill:#1d1d1b;}.k{letter-spacing:-.07em;}.f{font-size:11.07px;}</style></defs><g id="a"/><g id="b"><g id="c"><g><rect class="j" x=".21" y=".21" width="134.46" height="134.46" rx=".21" ry=".21"/><path class="e" d="M134.46,.42V134.46H.42V.42H134.46m0-.42H.42c-.23,0-.42,.19-.42,.42V134.46c0,.23,.19,.42,.42,.42H134.46c.23,0,.42-.19,.42-.42V.42c0-.23-.19-.42-.42-.42h0Z"/></g><rect class="e" x=".42" y=".42" width="21.13" height="21.13"/><text class="f" transform="translate(5.12 15.21)"><tspan x="0" y="0">00</tspan></text><g><g><path class="e" d="M73.89,105.72l-24.56-.75c-3.42-.1-6.42-2.24-7.63-5.45l-4.7-12.43,6.54-11.7,12-14.65,19.83,11.24,7.21,19.64v5.67c.01,2.26-.87,4.38-2.46,5.97-1.59,1.59-3.71,2.47-5.95,2.47h-.26Z"/><path class="j" d="M55.58,61.01l19.6,11.11,7.18,19.57v5.59c0,4.55-3.7,8.22-8.22,8.22-.08,0-.17,0-.25,0l-24.56-.75c-3.33-.1-6.26-2.2-7.44-5.31l-4.67-12.34,6.49-11.61,11.86-14.49m-.1-.54l-.23,.28-11.86,14.49-.02,.03-.02,.03-6.49,11.61-.1,.17,.07,.18,4.67,12.34c1.24,3.28,4.31,5.48,7.82,5.58l24.56,.75c.09,0,.18,0,.27,0,4.76,0,8.64-3.88,8.64-8.65v-5.67l-.03-.07-7.18-19.57-.05-.15-.13-.08-19.6-11.11-.31-.18h0Z"/></g><g><path class="e" d="M47.51,85.92c-2.86,0-5.19-2.33-5.19-5.19V39.42c0-2.86,2.33-5.19,5.19-5.19s5.19,2.33,5.19,5.19v41.31c0,2.86-2.33,5.19-5.19,5.19Z"/><path class="j" d="M47.51,34.44c2.75,0,4.98,2.23,4.98,4.98v41.31c0,2.75-2.23,4.98-4.98,4.98s-4.98-2.23-4.98-4.98V39.42c0-2.75,2.23-4.98,4.98-4.98m0-.42c-2.98,0-5.4,2.42-5.4,5.4v41.31c0,2.98,2.42,5.4,5.4,5.4s5.4-2.42,5.4-5.4V39.42c0-2.98-2.42-5.4-5.4-5.4h0Z"/></g><g><path class="e" d="M57.47,77.8c-2.86,0-5.19-2.33-5.19-5.19V31.3c0-2.86,2.33-5.19,5.19-5.19s5.19,2.33,5.19,5.19v41.31c0,2.86-2.33,5.19-5.19,5.19Z"/><path class="j" d="M57.47,26.32c2.75,0,4.98,2.23,4.98,4.98v41.31c0,2.75-2.23,4.98-4.98,4.98s-4.98-2.23-4.98-4.98V31.3c0-2.75,2.23-4.98,4.98-4.98m0-.42c-2.98,0-5.4,2.42-5.4,5.4v41.31c0,2.98,2.42,5.4,5.4,5.4s5.4-2.42,5.4-5.4V31.3c0-2.98-2.42-5.4-5.4-5.4h0Z"/></g><g><path class="e" d="M67.43,83.49c-2.86,0-5.19-2.33-5.19-5.19V36.98c0-2.86,2.33-5.19,5.19-5.19s5.19,2.33,5.19,5.19v41.31c0,2.86-2.33,5.19-5.19,5.19Z"/><path class="j" d="M67.43,32.01c2.75,0,4.98,2.23,4.98,4.98v41.31c0,2.75-2.23,4.98-4.98,4.98s-4.98-2.23-4.98-4.98V36.98c0-2.75,2.23-4.98,4.98-4.98m0-.42c-2.98,0-5.4,2.42-5.4,5.4v41.31c0,2.98,2.42,5.4,5.4,5.4s5.4-2.42,5.4-5.4V36.98c0-2.98-2.42-5.4-5.4-5.4h0Z"/></g><g><path class="e" d="M77.39,96.88c-2.86,0-5.19-2.33-5.19-5.19V50.38c0-2.86,2.33-5.19,5.19-5.19s5.19,2.33,5.19,5.19v41.31c0,2.86-2.33,5.19-5.19,5.19Z"/><path class="j" d="M77.39,45.4c2.75,0,4.98,2.23,4.98,4.98v41.31c0,2.75-2.23,4.98-4.98,4.98s-4.98-2.23-4.98-4.98V50.38c0-2.75,2.23-4.98,4.98-4.98m0-.42c-2.98,0-5.4,2.42-5.4,5.4v41.31c0,2.98,2.42,5.4,5.4,5.4s5.4-2.42,5.4-5.4V50.38c0-2.98-2.42-5.4-5.4-5.4h0Z"/></g><g><path class="e" d="M44.26,94.82c-2.46,0-4.66-1.47-5.61-3.74l-9.29-22.29c-.62-1.5-.63-3.15-.01-4.65,.62-1.5,1.78-2.67,3.28-3.3,.75-.31,1.53-.47,2.34-.47,2.46,0,4.66,1.47,5.61,3.74l9.29,22.29c1.29,3.09-.18,6.66-3.27,7.95-.75,.31-1.53,.47-2.34,.47Z"/><path class="j" d="M34.97,60.58c2.3,0,4.48,1.36,5.42,3.61l9.29,22.29c1.25,2.99-.17,6.42-3.16,7.67-.74,.31-1.5,.45-2.25,.45-2.3,0-4.48-1.36-5.42-3.61l-9.29-22.29c-1.25-2.99,.17-6.42,3.16-7.67,.74-.31,1.5-.45,2.25-.45m0-.42h0c-.83,0-1.64,.16-2.42,.49-3.2,1.33-4.72,5.02-3.38,8.22l9.29,22.29c.98,2.35,3.26,3.87,5.81,3.87,.83,0,1.64-.16,2.42-.49,3.2-1.33,4.72-5.02,3.38-8.22l-9.29-22.29c-.98-2.35-3.26-3.87-5.81-3.87h0Z"/></g><path class="e" d="M37.23,87.11l4.67,12.34c1.18,3.11,4.11,5.21,7.44,5.31l24.56,.75c4.64,.14,8.47-3.58,8.47-8.22v-5.59l-7.18-19.57-19.61-11.11-10.26,14.39-8.09,11.7Z"/><rect class="e" x="49.54" y="64.39" width="25.48" height="19.54"/><line class="h" x1="50.19" y1="64.39" x2="74.78" y2="64.39"/><path class="g" d="M45.32,75.4h.45c9.06,0,16.4,7.34,16.4,16.4h0"/></g><g><path class="j" d="M89.09,91.59c-.56-3.49-2.19-6.71-4.74-9.26-2.54-2.55-5.76-4.18-9.25-4.74,3.49-.56,6.71-2.19,9.25-4.74,2.55-2.55,4.18-5.77,4.74-9.26,1.15,7.17,6.83,12.85,14,14-3.49,.55-6.72,2.19-9.27,4.74-2.55,2.55-4.18,5.77-4.74,9.26Z"/><path class="e" d="M89.1,64.71c1.46,6.39,6.5,11.43,12.89,12.88-3.12,.7-5.98,2.27-8.3,4.59-2.31,2.31-3.88,5.17-4.59,8.29-.71-3.12-2.27-5.98-4.59-8.29-2.31-2.31-5.17-3.88-8.28-4.59,3.12-.7,5.97-2.27,8.28-4.59,2.32-2.32,3.89-5.18,4.59-8.3m0-3.8c0,4.6-1.87,8.78-4.89,11.8-3.02,3.02-7.19,4.89-11.8,4.89,4.61,0,8.78,1.87,11.8,4.89,3.02,3.02,4.89,7.19,4.89,11.8,0-4.61,1.87-8.78,4.89-11.8s7.19-4.89,11.8-4.89c-9.22,0-16.69-7.47-16.69-16.68h0Z"/></g><g><path class="j" d="M99.86,65.21c-.24-.79-.67-1.52-1.27-2.12-.6-.6-1.33-1.03-2.12-1.27,.79-.24,1.52-.67,2.12-1.27,.6-.6,1.03-1.33,1.27-2.12,.49,1.62,1.77,2.9,3.39,3.39-.79,.24-1.52,.67-2.12,1.27-.6,.6-1.03,1.33-1.27,2.12Z"/><path class="e" d="M99.86,59.05c.53,1.24,1.53,2.24,2.77,2.77-.61,.26-1.17,.64-1.65,1.12-.48,.48-.86,1.04-1.12,1.65-.26-.61-.64-1.17-1.12-1.65-.48-.48-1.04-.86-1.65-1.12,.61-.26,1.17-.64,1.65-1.12,.48-.48,.86-1.04,1.12-1.65m0-2.07c0,1.34-.54,2.55-1.42,3.43-.88,.88-2.09,1.42-3.43,1.42,1.34,0,2.55,.54,3.43,1.42,.88,.88,1.42,2.09,1.42,3.43,0-1.34,.54-2.55,1.42-3.43,.88-.88,2.09-1.42,3.43-1.42-2.68,0-4.85-2.17-4.85-4.84h0Z"/></g><g><path class="j" d="M92.17,54.09c-.1-.21-.24-.4-.4-.56-.17-.17-.36-.3-.56-.4,.21-.1,.4-.24,.56-.4,.17-.17,.3-.36,.4-.56,.21,.42,.55,.76,.97,.97-.21,.1-.4,.24-.56,.4-.17,.17-.3,.36-.4,.56Z"/><path class="e" d="M92.17,52.57c.15,.21,.34,.4,.55,.55-.11,.08-.21,.16-.3,.25-.09,.09-.18,.19-.25,.3-.07-.11-.16-.21-.25-.3-.09-.09-.19-.18-.3-.25,.11-.08,.21-.16,.3-.25,.09-.09,.18-.19,.25-.3m0-1.33c0,.52-.21,.99-.55,1.33-.34,.34-.81,.55-1.33,.55,.52,0,.99,.21,1.33,.55,.34,.34,.55,.81,.55,1.33,0-.52,.21-.99,.55-1.33s.81-.55,1.33-.55c-1.04,0-1.89-.84-1.89-1.89h0Z"/></g><rect class="i" x="92.48" y=".42" width="41.99" height="21.13"/><text class="d" transform="translate(95.96 14.59)"><tspan x="0" y="0">S</tspan><tspan class="k" x="6.67" y="0">T</tspan><tspan x="12.04" y="0">ART!</tspan></text></g></g></svg>