<?xml version="1.0" encoding="utf-8"?>
<!-- Generator: Adobe Illustrator 24.1.1, SVG Export Plug-In . SVG Version: 6.00 Build 0)  -->
<svg version="1.1" id="Capa_1" xmlns="http://www.w3.org/2000/svg" xmlns:xlink="http://www.w3.org/1999/xlink" x="0px" y="0px"
	 viewBox="0 0 134.9 134.9" style="enable-background:new 0 0 134.9 134.9;" xml:space="preserve">
<style type="text/css">
	.st0{fill:#1D1D1B;}
	.st1{fill:#EDDFD6;}
	.st2{fill:#222222;}
	.st3{fill:#EDDFD6;stroke:#1D1D1B;stroke-width:0.42;stroke-linecap:round;stroke-linejoin:round;}
	.st4{fill:#1D1D1B;stroke:#EDDFD6;stroke-width:0.42;stroke-miterlimit:10;}
	.st5{fill:none;stroke:#1D1D1B;stroke-width:0.42;stroke-miterlimit:10;}
	.st6{fill:#00AEEF;}
	.st7{enable-background:new    ;}
	.st8{fill:#EDDFD6;stroke:#1D1D1B;stroke-width:0.6437;stroke-miterlimit:10;}
	.st9{fill:#EDDFD6;stroke:#1D1D1B;stroke-width:0.6073;stroke-miterlimit:10;}
	.st10{fill:#EDDFD6;stroke:#1D1D1B;stroke-width:0.5101;stroke-miterlimit:10;}
	.st11{fill:#EDDFD6;stroke:#1D1D1B;stroke-width:0.42;stroke-miterlimit:10;}
	.st12{fill:#EDDFD6;stroke:#1D1D1B;stroke-width:0.6356;stroke-miterlimit:10;}
	.st13{fill:#EDDFD6;stroke:#1D1D1B;stroke-width:0.5996;stroke-miterlimit:10;}
	.st14{fill:#EDDFD6;stroke:#1D1D1B;stroke-width:0.5037;stroke-miterlimit:10;}
	.st15{fill:#EDDFD6;stroke:#1D1D1B;stroke-width:0.422;stroke-miterlimit:10;}
	.st16{fill:#1D1D1B;stroke:#EDDFD6;stroke-width:0.422;stroke-miterlimit:10;}
	.st17{fill:none;stroke:#1D1D1B;stroke-width:0.422;stroke-miterlimit:10;}
	.st18{fill:none;stroke:#EDDFD6;stroke-width:0.422;stroke-linecap:round;stroke-linejoin:round;}
	.st19{fill:none;stroke:#EDDFD6;stroke-width:17;stroke-miterlimit:10;}
	.st20{fill:#EDDFD6;stroke:#EDDFD6;stroke-width:0.42;stroke-miterlimit:10;}
	.st21{fill:#EDDFD6;stroke:#1D1D1B;stroke-width:0.4786;stroke-miterlimit:10;}
	.st22{fill:#1D1D1B;stroke:#EDDFD6;stroke-width:0.4786;stroke-miterlimit:10;}
	.st23{fill:none;stroke:#1D1D1B;stroke-width:0.4786;stroke-miterlimit:10;}
	.st24{fill:none;stroke:#EDDFD6;stroke-width:0.4786;stroke-miterlimit:10;}
	.st25{fill:none;stroke:#EDDFD6;stroke-width:0.9265;stroke-miterlimit:10;}
	.st26{font-family:'NotoSans-Bold';}
	.st27{font-size:19px;}
</style>
<g id="_x31_2">
	<rect x="0" y="0" class="st0" width="134.9" height="134.9"/>
	<g>
		<g>
			<g>
				<path class="st1" d="M67.4,74.8c-14.1,0-25.6-11.5-25.6-25.6s11.5-25.6,25.6-25.6s25.6,11.5,25.6,25.6S81.6,74.8,67.4,74.8z"/>
				<path class="st1" d="M67.4,23.8c14,0,25.4,11.4,25.4,25.4S81.5,74.6,67.4,74.6S42,63.2,42,49.2S53.4,23.8,67.4,23.8 M67.4,23.4
					c-14.3,0-25.9,11.6-25.9,25.9s11.6,25.9,25.9,25.9s25.8-11.6,25.8-25.9S81.7,23.4,67.4,23.4C67.4,23.4,67.4,23.4,67.4,23.4z"/>
			</g>
			<path class="st1" d="M42,49.2v21.9c0,1.8,0.4,3.6,1.2,5.2l4,8.7c2,4.3,6.3,7.1,11.1,7.1h18c4.7,0,8.9-2.7,11-6.9l4.3-8.8
				c0.8-1.7,1.3-3.5,1.3-5.4V49.2"/>
			<rect x="54.5" y="86.3" class="st1" width="26.6" height="25.1"/>
		</g>
		<path class="st4" d="M63,71h9.5c2.5,0,4.4,2,4.4,4.4v0c0,2.4-2,4.4-4.4,4.4H63c-2.5,0-4.4-2-4.4-4.4v0C58.6,72.9,60.6,71,63,71z"
			/>
		<path class="st1" d="M52.5,91h30.1c1.4,0,2.5,1.1,2.5,2.5v0.3c0,1.4-1.1,2.5-2.5,2.5H52.5c-1.4,0-2.5-1.1-2.5-2.5v-0.3
			C50,92.1,51.2,91,52.5,91z"/>
		<path class="st1" d="M52.5,96.3h30.1c1.4,0,2.5,1.1,2.5,2.5v4.7c0,1.4-1.1,2.5-2.5,2.5H52.5c-1.4,0-2.5-1.1-2.5-2.5v-4.7
			C50,97.5,51.2,96.3,52.5,96.3z"/>
		<path class="st1" d="M52.5,106.1h30.1c1.4,0,2.5,1.1,2.5,2.5v0.4c0,1.4-1.1,2.5-2.5,2.5H52.5c-1.4,0-2.5-1.1-2.5-2.5v-0.4
			C50,107.2,51.2,106.1,52.5,106.1z"/>
		<path class="st4" d="M50.6,54.9v8.3c0,0.8,0.8,1.4,1.6,1.1l10.6-4.2c1-0.4,1-1.8,0-2.2l-10.7-4.2C51.4,53.5,50.6,54,50.6,54.9z"/>
		<path class="st4" d="M85.1,63v-8.3c0-0.8-0.8-1.4-1.6-1.1l-10.7,4.2c-1,0.4-1,1.8,0,2.2l10.7,4.2C84.3,64.4,85.1,63.9,85.1,63z"/>
	</g>
	<g>
		<path class="st1" d="M-0.1-0.1h28.5V20c0,3.8-3.1,6.8-6.8,6.8H-0.1V-0.1z"/>
		<text transform="matrix(1 0 0 1 2.384 -2.2798)" class="st0 st26 st27">12</text>
		<g>
			<path class="st0" d="M11.3,20.5H8.4v-7.8c0-0.3,0-0.7,0-1.3s0-1,0.1-1.4c-0.1,0.1-0.2,0.2-0.4,0.4c-0.2,0.2-0.4,0.4-0.6,0.5
				l-1.6,1.3l-1.4-1.7L8.9,7h2.4V20.5z"/>
			<path class="st0" d="M24.5,20.5H15v-2l3.4-3.4c0.7-0.7,1.2-1.3,1.7-1.8s0.7-0.9,0.9-1.3c0.2-0.4,0.3-0.8,0.3-1.2
				c0-0.5-0.1-0.9-0.4-1.2s-0.7-0.4-1.2-0.4c-0.5,0-1,0.1-1.5,0.4s-1,0.6-1.6,1L15,8.7c0.4-0.3,0.8-0.6,1.2-0.9
				c0.4-0.3,1-0.5,1.5-0.7s1.3-0.3,2.1-0.3c0.9,0,1.6,0.2,2.3,0.5c0.6,0.3,1.1,0.8,1.5,1.3c0.3,0.6,0.5,1.2,0.5,1.9
				c0,0.7-0.1,1.4-0.4,2.1c-0.3,0.6-0.7,1.2-1.3,1.8s-1.2,1.3-2,2L18.6,18v0.1h5.9V20.5z"/>
		</g>
	</g>
</g>
</svg>
