<?xml version="1.0" encoding="UTF-8"?><svg xmlns="http://www.w3.org/2000/svg" viewBox="0 0 134.46 134.46"><defs><style>.d{fill:none;stroke-width:.42px;}.d,.e{stroke:#1d1d1b;}.d,.e,.f{stroke-miterlimit:10;}.g,.e{fill:#eddfd6;}.h,.f,.i{fill:#1d1d1b;}.e,.f{stroke-width:.42px;}.f{stroke:#eddfd6;}.i{font-family:Helvetica, Helvetica;font-size:11.07px;}</style></defs><g id="a"/><g id="b"><g id="c"><rect class="f" x=".21" y=".21" width="134.04" height="134.04"/><rect class="g" x=".43" y=".42" width="21.13" height="21.13"/><text class="i" transform="translate(5.13 15.21)"><tspan x="0" y="0">26</tspan></text><g><g><rect class="e" x="10.18" y="32.52" width="42.96" height="67.9"/><rect class="e" x="11.28" y="33.89" width="40.57" height="66.53"/><rect class="e" x="14.81" y="37.87" width="33.52" height="62.55"/><ellipse class="f" cx="42.57" cy="70.22" rx=".91" ry="1.34"/><polygon class="h" points="14.81 37.87 40.88 42.63 40.88 100.42 48.33 100.42 48.33 37.87 14.81 37.87"/><polygon class="h" points="14.81 100.42 46.13 93.78 46.13 100.42 14.81 100.42"/><circle class="d" cx="38.1" cy="69.47" r="1.48"/><rect class="h" x="37.25" y="70.58" width="4.57" height="19.23" rx="2.05" ry="2.05" transform="translate(45.48 -9.02) rotate(30.06)"/><rect class="h" x="28.79" y="79.56" width="4.57" height="14.06" rx="2.05" ry="2.05" transform="translate(-55.51 117.66) rotate(-90)"/><path class="h" d="M24.05,84.3h3.34v4.73c0,1.65-1.34,2.99-2.99,2.99h-.35v-7.73h0Z"/></g><g><rect class="e" x="81.32" y="32.52" width="42.96" height="67.9" transform="translate(205.6 132.93) rotate(-180)"/><rect class="e" x="82.61" y="33.89" width="40.57" height="66.53" transform="translate(205.79 134.31) rotate(-180)"/><rect class="e" x="86.13" y="37.87" width="33.52" height="62.55" transform="translate(205.79 138.29) rotate(-180)"/><ellipse class="f" cx="91.9" cy="70.22" rx=".91" ry="1.34"/><polygon class="h" points="119.66 37.87 93.58 42.63 93.58 100.42 86.13 100.42 86.13 37.87 119.66 37.87"/><polygon class="h" points="119.66 100.42 88.34 93.78 88.34 100.42 119.66 100.42"/><circle class="d" cx="96.36" cy="69.47" r="1.48"/><rect class="h" x="92.65" y="70.58" width="4.57" height="19.23" rx="2.05" ry="2.05" transform="translate(217.26 102.05) rotate(149.94)"/><rect class="h" x="101.1" y="79.56" width="4.57" height="14.06" rx="2.05" ry="2.05" transform="translate(16.81 189.97) rotate(-90)"/><path class="h" d="M107.08,84.3h.35c1.65,0,2.99,1.34,2.99,2.99v4.73h-3.34v-7.73h0Z" transform="translate(217.49 176.32) rotate(180)"/></g><path class="e" d="M53.14,100.42l8.68-5.17c3.57-2.13,7.24-2.13,10.81,0l8.68,5.17V32.52l-8.65,5.3c-3.79,2.33-7.71,2.28-11.5-.15l-8.04-5.15V100.42Z"/></g></g></g></svg>