<?xml version="1.0" encoding="utf-8"?>
<!-- Generator: Adobe Illustrator 24.1.1, SVG Export Plug-In . SVG Version: 6.00 Build 0)  -->
<svg version="1.1" id="Capa_1" xmlns="http://www.w3.org/2000/svg" xmlns:xlink="http://www.w3.org/1999/xlink" x="0px" y="0px"
	 viewBox="0 0 134.9 134.9" style="enable-background:new 0 0 134.9 134.9;" xml:space="preserve">
<style type="text/css">
	.st0{fill:#1D1D1B;}
	.st1{fill:#EDDFD6;}
	.st2{fill:#222222;}
	.st3{fill:#EDDFD6;stroke:#1D1D1B;stroke-width:0.42;stroke-linecap:round;stroke-linejoin:round;}
	.st4{fill:#1D1D1B;stroke:#EDDFD6;stroke-width:0.42;stroke-miterlimit:10;}
	.st5{fill:none;stroke:#1D1D1B;stroke-width:0.42;stroke-miterlimit:10;}
	.st6{fill:#00AEEF;}
	.st7{enable-background:new    ;}
	.st8{fill:#EDDFD6;stroke:#1D1D1B;stroke-width:0.6437;stroke-miterlimit:10;}
	.st9{fill:#EDDFD6;stroke:#1D1D1B;stroke-width:0.6073;stroke-miterlimit:10;}
	.st10{fill:#EDDFD6;stroke:#1D1D1B;stroke-width:0.5101;stroke-miterlimit:10;}
	.st11{fill:#EDDFD6;stroke:#1D1D1B;stroke-width:0.42;stroke-miterlimit:10;}
	.st12{fill:#EDDFD6;stroke:#1D1D1B;stroke-width:0.6356;stroke-miterlimit:10;}
	.st13{fill:#EDDFD6;stroke:#1D1D1B;stroke-width:0.5996;stroke-miterlimit:10;}
	.st14{fill:#EDDFD6;stroke:#1D1D1B;stroke-width:0.5037;stroke-miterlimit:10;}
	.st15{fill:#EDDFD6;stroke:#1D1D1B;stroke-width:0.422;stroke-miterlimit:10;}
	.st16{fill:#1D1D1B;stroke:#EDDFD6;stroke-width:0.422;stroke-miterlimit:10;}
	.st17{fill:none;stroke:#1D1D1B;stroke-width:0.422;stroke-miterlimit:10;}
	.st18{fill:none;stroke:#EDDFD6;stroke-width:0.422;stroke-linecap:round;stroke-linejoin:round;}
	.st19{fill:none;stroke:#EDDFD6;stroke-width:17;stroke-miterlimit:10;}
	.st20{fill:#EDDFD6;stroke:#EDDFD6;stroke-width:0.42;stroke-miterlimit:10;}
	.st21{fill:#EDDFD6;stroke:#1D1D1B;stroke-width:0.4786;stroke-miterlimit:10;}
	.st22{fill:#1D1D1B;stroke:#EDDFD6;stroke-width:0.4786;stroke-miterlimit:10;}
	.st23{fill:none;stroke:#1D1D1B;stroke-width:0.4786;stroke-miterlimit:10;}
	.st24{fill:none;stroke:#EDDFD6;stroke-width:0.4786;stroke-miterlimit:10;}
	.st25{fill:none;stroke:#EDDFD6;stroke-width:0.9265;stroke-miterlimit:10;}
	.st26{fill:#1D1D1B;stroke:#EDDFD6;stroke-width:0.53;stroke-miterlimit:10;}
	.st27{fill:#1D1D1B;stroke:#EDDFD6;stroke-width:0.6436;stroke-miterlimit:10;}
	.st28{fill:#EDDFD6;stroke:#1D1D1B;stroke-width:0.6436;stroke-miterlimit:10;}
	.st29{fill:#EDDFD6;stroke:#1D1D1B;stroke-width:0.6072;stroke-miterlimit:10;}
	.st30{fill:#EDDFD6;stroke:#1D1D1B;stroke-width:0.51;stroke-miterlimit:10;}
	.st31{fill:none;stroke:#EDDFD6;stroke-width:10.3992;stroke-miterlimit:10;}
	.st32{fill:#1D1D1B;stroke:#1D1D1B;stroke-width:0.42;stroke-linecap:round;stroke-linejoin:round;}
	.st33{fill:none;stroke:#1D1D1B;stroke-width:0.42;stroke-linecap:round;stroke-miterlimit:10;}
	.st34{fill:#231F20;}
	.st35{fill:none;stroke:#231F20;stroke-width:0.3187;}
	.st36{font-family:'NotoSans-Bold';}
	.st37{font-size:19px;}
</style>
<g id="_x32_1">
	<rect x="-0.2" y="-0.2" class="st0" width="135.2" height="135.3"/>
	<g>
		<path class="st1" d="M82,23.6v26.5H54V23.6H39.4v26.6l0.7,19.1c0,1.1,0,2.2-0.2,3.2l-1.4,7.6c-1.2,6.5-1.4,13.3-0.5,19.9l1.4,11.3
			h57.1l-1.8-19.7c-0.3-3.1-0.2-6.3,0.2-9.4L96.8,68c0.4-3.3,0.6-6.6,0.5-9.9l-0.9-34.5L82,23.6L82,23.6z"/>
		<g class="st7">
			<path class="st34" d="M44.9,68.8v-5.6h-2.1v-0.8h5.1v0.8h-2.1v5.6H44.9z"/>
			<path class="st34" d="M48.8,68.8v-6.4h0.8V65H53v-2.6h0.8v6.4H53v-3h-3.3v3H48.8z"/>
			<path class="st34" d="M54.5,68.8l2.5-6.4h0.9l2.6,6.4h-1l-0.7-1.9h-2.7l-0.7,1.9H54.5z M56.4,66.2h2.2l-0.7-1.8
				c-0.2-0.5-0.4-1-0.5-1.3c-0.1,0.4-0.2,0.8-0.3,1.2L56.4,66.2z"/>
			<path class="st34" d="M61.2,68.8v-6.4H62l3.4,5v-5h0.8v6.4h-0.9l-3.4-5v5H61.2z"/>
			<path class="st34" d="M67.6,68.8v-6.4h0.8v3.2l3.2-3.2h1.1L70.1,65l2.8,3.8h-1.1l-2.3-3.2l-1,1v2.2H67.6z"/>
		</g>
		<g class="st7">
			<path class="st34" d="M78.7,68.8v-2.7l-2.5-3.7h1l1.3,1.9c0.2,0.4,0.4,0.7,0.6,1.1c0.2-0.3,0.4-0.7,0.7-1.1l1.2-1.9h1l-2.5,3.7
				v2.7H78.7z"/>
			<path class="st34" d="M82.6,65.7c0-1.1,0.3-1.9,0.9-2.5c0.6-0.6,1.3-0.9,2.2-0.9c0.6,0,1.1,0.1,1.6,0.4c0.5,0.3,0.8,0.7,1.1,1.2
				c0.2,0.5,0.4,1.1,0.4,1.7c0,0.6-0.1,1.2-0.4,1.7c-0.3,0.5-0.6,0.9-1.1,1.2c-0.5,0.3-1,0.4-1.6,0.4c-0.6,0-1.1-0.1-1.6-0.4
				c-0.5-0.3-0.8-0.7-1.1-1.2C82.7,66.8,82.6,66.2,82.6,65.7z M83.4,65.7c0,0.8,0.2,1.4,0.6,1.8c0.4,0.4,0.9,0.7,1.6,0.7
				c0.6,0,1.2-0.2,1.6-0.7c0.4-0.4,0.6-1.1,0.6-1.9c0-0.5-0.1-1-0.3-1.4c-0.2-0.4-0.4-0.7-0.8-0.9S86,63,85.6,63
				c-0.6,0-1.1,0.2-1.5,0.6S83.4,64.7,83.4,65.7z"/>
			<path class="st34" d="M93.9,62.4h0.8v3.7c0,0.6-0.1,1.2-0.2,1.5c-0.1,0.4-0.4,0.7-0.8,0.9c-0.4,0.2-0.9,0.4-1.5,0.4
				c-0.6,0-1.1-0.1-1.5-0.3s-0.7-0.5-0.8-0.9c-0.2-0.4-0.2-0.9-0.2-1.6v-3.7h0.8v3.7c0,0.6,0.1,1,0.2,1.2c0.1,0.3,0.3,0.5,0.5,0.6
				c0.3,0.1,0.6,0.2,0.9,0.2c0.6,0,1.1-0.1,1.3-0.4c0.3-0.3,0.4-0.8,0.4-1.6V62.4z"/>
		</g>
		<g class="st7">
			<path class="st35" d="M43.5,76.8v-5.6h-2.1v-0.8h5.1v0.8h-2.1v5.6H43.5z"/>
			<path class="st35" d="M47.4,76.8v-6.4h0.8V73h3.3v-2.6h0.8v6.4h-0.8v-3h-3.3v3H47.4z"/>
			<path class="st35" d="M53.1,76.8l2.5-6.4h0.9l2.6,6.4h-1l-0.7-1.9h-2.7L54,76.8H53.1z M55,74.2h2.2l-0.7-1.8
				c-0.2-0.5-0.4-1-0.5-1.3c-0.1,0.4-0.2,0.8-0.3,1.2L55,74.2z"/>
			<path class="st35" d="M59.8,76.8v-6.4h0.9l3.4,5v-5h0.8v6.4h-0.9l-3.4-5v5H59.8z"/>
			<path class="st35" d="M66.2,76.8v-6.4H67v3.2l3.2-3.2h1.1L68.7,73l2.8,3.8h-1.1l-2.3-3.2l-1,1v2.2H66.2z"/>
		</g>
		<g class="st7">
			<path class="st35" d="M77.3,76.8v-2.7l-2.5-3.7h1l1.3,1.9c0.2,0.4,0.4,0.7,0.6,1.1c0.2-0.3,0.4-0.7,0.7-1.1l1.2-1.9h1l-2.5,3.7
				v2.7H77.3z"/>
			<path class="st35" d="M81.2,73.7c0-1.1,0.3-1.9,0.9-2.5c0.6-0.6,1.3-0.9,2.2-0.9c0.6,0,1.1,0.1,1.6,0.4c0.5,0.3,0.8,0.7,1.1,1.2
				c0.2,0.5,0.4,1.1,0.4,1.7c0,0.6-0.1,1.2-0.4,1.7c-0.3,0.5-0.6,0.9-1.1,1.2c-0.5,0.3-1,0.4-1.6,0.4c-0.6,0-1.1-0.1-1.6-0.4
				c-0.5-0.3-0.8-0.7-1.1-1.2C81.3,74.8,81.2,74.3,81.2,73.7z M82,73.7c0,0.8,0.2,1.4,0.6,1.8c0.4,0.4,0.9,0.7,1.6,0.7
				c0.6,0,1.2-0.2,1.6-0.7c0.4-0.4,0.6-1.1,0.6-1.9c0-0.5-0.1-1-0.3-1.4c-0.2-0.4-0.4-0.7-0.8-0.9C85,71.1,84.7,71,84.2,71
				c-0.6,0-1.1,0.2-1.5,0.6C82.3,72.1,82,72.7,82,73.7z"/>
			<path class="st35" d="M92.6,70.4h0.8v3.7c0,0.6-0.1,1.2-0.2,1.5c-0.1,0.4-0.4,0.7-0.8,0.9c-0.4,0.2-0.9,0.4-1.5,0.4
				c-0.6,0-1.1-0.1-1.5-0.3c-0.4-0.2-0.7-0.5-0.8-0.9c-0.2-0.4-0.2-0.9-0.2-1.6v-3.7h0.8v3.7c0,0.6,0.1,1,0.2,1.2s0.3,0.5,0.5,0.6
				c0.3,0.1,0.6,0.2,0.9,0.2c0.6,0,1.1-0.1,1.3-0.4c0.3-0.3,0.4-0.8,0.4-1.6V70.4z"/>
		</g>
		<g class="st7">
			<path class="st34" d="M42.4,84.8v-5.6h-2.1v-0.8h5.1v0.8h-2.1v5.6H42.4z"/>
			<path class="st34" d="M46.2,84.8v-6.4h0.8v2.6h3.3v-2.6h0.8v6.4h-0.8v-3h-3.3v3H46.2z"/>
			<path class="st34" d="M52,84.8l2.5-6.4h0.9l2.6,6.4h-1l-0.7-1.9h-2.7l-0.7,1.9H52z M53.8,82.2H56l-0.7-1.8
				c-0.2-0.5-0.4-1-0.5-1.3c-0.1,0.4-0.2,0.8-0.3,1.2L53.8,82.2z"/>
			<path class="st34" d="M58.6,84.8v-6.4h0.9l3.4,5v-5h0.8v6.4h-0.9l-3.4-5v5H58.6z"/>
			<path class="st34" d="M65,84.8v-6.4h0.8v3.2l3.2-3.2h1.1L67.5,81l2.8,3.8h-1.1l-2.3-3.2l-1,1v2.2H65z"/>
		</g>
		<g class="st7">
			<path class="st34" d="M76.1,84.8v-2.7l-2.5-3.7h1l1.3,1.9c0.2,0.4,0.4,0.7,0.6,1.1c0.2-0.3,0.4-0.7,0.7-1.1l1.2-1.9h1L77,82.1
				v2.7H76.1z"/>
			<path class="st34" d="M80,81.7c0-1.1,0.3-1.9,0.9-2.5c0.6-0.6,1.3-0.9,2.2-0.9c0.6,0,1.1,0.1,1.6,0.4c0.5,0.3,0.8,0.7,1.1,1.2
				c0.2,0.5,0.4,1.1,0.4,1.7c0,0.6-0.1,1.2-0.4,1.7c-0.3,0.5-0.6,0.9-1.1,1.2c-0.5,0.3-1,0.4-1.6,0.4c-0.6,0-1.1-0.1-1.6-0.4
				c-0.5-0.3-0.8-0.7-1.1-1.2C80.1,82.8,80,82.3,80,81.7z M80.9,81.7c0,0.8,0.2,1.4,0.6,1.8c0.4,0.4,0.9,0.7,1.6,0.7
				c0.6,0,1.2-0.2,1.6-0.7c0.4-0.4,0.6-1.1,0.6-1.9c0-0.5-0.1-1-0.3-1.4c-0.2-0.4-0.4-0.7-0.8-0.9c-0.3-0.2-0.7-0.3-1.1-0.3
				c-0.6,0-1.1,0.2-1.5,0.6C81.1,80.1,80.9,80.8,80.9,81.7z"/>
			<path class="st34" d="M91.4,78.4h0.8v3.7c0,0.6-0.1,1.2-0.2,1.5c-0.1,0.4-0.4,0.7-0.8,0.9c-0.4,0.2-0.9,0.4-1.5,0.4
				c-0.6,0-1.1-0.1-1.5-0.3s-0.7-0.5-0.8-0.9c-0.2-0.4-0.2-0.9-0.2-1.6v-3.7h0.8v3.7c0,0.6,0.1,1,0.2,1.2s0.3,0.5,0.5,0.6
				c0.3,0.1,0.6,0.2,0.9,0.2c0.6,0,1.1-0.1,1.3-0.4c0.3-0.3,0.4-0.8,0.4-1.6V78.4z"/>
		</g>
		<g class="st7">
			<path class="st35" d="M41.4,92.9v-5.6h-2.1v-0.8h5.1v0.8h-2.1v5.6H41.4z"/>
			<path class="st35" d="M45.3,92.9v-6.4h0.8v2.6h3.3v-2.6h0.8v6.4h-0.8v-3h-3.3v3H45.3z"/>
			<path class="st35" d="M51,92.9l2.5-6.4h0.9l2.6,6.4h-1l-0.7-1.9h-2.7l-0.7,1.9H51z M52.8,90.2H55l-0.7-1.8
				c-0.2-0.5-0.4-1-0.5-1.3c-0.1,0.4-0.2,0.8-0.3,1.2L52.8,90.2z"/>
			<path class="st35" d="M57.6,92.9v-6.4h0.9l3.4,5v-5h0.8v6.4h-0.9l-3.4-5v5H57.6z"/>
			<path class="st35" d="M64.1,92.9v-6.4h0.8v3.2l3.2-3.2h1.1l-2.7,2.6l2.8,3.8h-1.1l-2.3-3.2l-1,1v2.2H64.1z"/>
		</g>
		<g class="st7">
			<path class="st35" d="M75.1,92.9v-2.7l-2.5-3.7h1l1.3,1.9c0.2,0.4,0.4,0.7,0.6,1.1c0.2-0.3,0.4-0.7,0.7-1.1l1.2-1.9h1L76,90.1
				v2.7H75.1z"/>
			<path class="st35" d="M79,89.7c0-1.1,0.3-1.9,0.9-2.5c0.6-0.6,1.3-0.9,2.2-0.9c0.6,0,1.1,0.1,1.6,0.4c0.5,0.3,0.8,0.7,1.1,1.2
				c0.2,0.5,0.4,1.1,0.4,1.7c0,0.6-0.1,1.2-0.4,1.7c-0.3,0.5-0.6,0.9-1.1,1.2c-0.5,0.3-1,0.4-1.6,0.4c-0.6,0-1.1-0.1-1.6-0.4
				c-0.5-0.3-0.8-0.7-1.1-1.2C79.2,90.8,79,90.3,79,89.7z M79.9,89.8c0,0.8,0.2,1.4,0.6,1.8c0.4,0.4,0.9,0.7,1.6,0.7
				c0.6,0,1.2-0.2,1.6-0.7c0.4-0.4,0.6-1.1,0.6-1.9c0-0.5-0.1-1-0.3-1.4c-0.2-0.4-0.4-0.7-0.8-0.9c-0.3-0.2-0.7-0.3-1.1-0.3
				c-0.6,0-1.1,0.2-1.5,0.6C80.1,88.1,79.9,88.8,79.9,89.8z"/>
			<path class="st35" d="M90.4,86.5h0.8v3.7c0,0.6-0.1,1.2-0.2,1.5c-0.1,0.4-0.4,0.7-0.8,0.9c-0.4,0.2-0.9,0.4-1.5,0.4
				c-0.6,0-1.1-0.1-1.5-0.3c-0.4-0.2-0.7-0.5-0.8-0.9c-0.2-0.4-0.2-0.9-0.2-1.6v-3.7h0.8v3.7c0,0.6,0.1,1,0.2,1.2s0.3,0.5,0.5,0.6
				c0.3,0.1,0.6,0.2,0.9,0.2c0.6,0,1.1-0.1,1.3-0.4c0.3-0.3,0.4-0.8,0.4-1.6V86.5z"/>
		</g>
		<g class="st7">
			<path class="st34" d="M42.4,100.9v-5.6h-2.1v-0.8h5.1v0.8h-2.1v5.6H42.4z"/>
			<path class="st34" d="M46.2,100.9v-6.4h0.8v2.6h3.3v-2.6h0.8v6.4h-0.8v-3h-3.3v3H46.2z"/>
			<path class="st34" d="M52,100.9l2.5-6.4h0.9l2.6,6.4h-1l-0.7-1.9h-2.7l-0.7,1.9H52z M53.8,98.3H56l-0.7-1.8
				c-0.2-0.5-0.4-1-0.5-1.3c-0.1,0.4-0.2,0.8-0.3,1.2L53.8,98.3z"/>
			<path class="st34" d="M58.6,100.9v-6.4h0.9l3.4,5v-5h0.8v6.4h-0.9l-3.4-5v5H58.6z"/>
			<path class="st34" d="M65,100.9v-6.4h0.8v3.2l3.2-3.2h1.1l-2.7,2.6l2.8,3.8h-1.1l-2.3-3.2l-1,1v2.2H65z"/>
		</g>
		<g class="st7">
			<path class="st34" d="M76.1,100.9v-2.7l-2.5-3.7h1l1.3,1.9c0.2,0.4,0.4,0.7,0.6,1.1c0.2-0.3,0.4-0.7,0.7-1.1l1.2-1.9h1L77,98.2
				v2.7H76.1z"/>
			<path class="st34" d="M80,97.8c0-1.1,0.3-1.9,0.9-2.5c0.6-0.6,1.3-0.9,2.2-0.9c0.6,0,1.1,0.1,1.6,0.4c0.5,0.3,0.8,0.7,1.1,1.2
				c0.2,0.5,0.4,1.1,0.4,1.7c0,0.6-0.1,1.2-0.4,1.7c-0.3,0.5-0.6,0.9-1.1,1.2c-0.5,0.3-1,0.4-1.6,0.4c-0.6,0-1.1-0.1-1.6-0.4
				c-0.5-0.3-0.8-0.7-1.1-1.2C80.1,98.9,80,98.3,80,97.8z M80.9,97.8c0,0.8,0.2,1.4,0.6,1.8c0.4,0.4,0.9,0.7,1.6,0.7
				c0.6,0,1.2-0.2,1.6-0.7c0.4-0.4,0.6-1.1,0.6-1.9c0-0.5-0.1-1-0.3-1.4c-0.2-0.4-0.4-0.7-0.8-0.9c-0.3-0.2-0.7-0.3-1.1-0.3
				c-0.6,0-1.1,0.2-1.5,0.6C81.1,96.1,80.9,96.8,80.9,97.8z"/>
			<path class="st34" d="M91.4,94.5h0.8v3.7c0,0.6-0.1,1.2-0.2,1.5c-0.1,0.4-0.4,0.7-0.8,0.9c-0.4,0.2-0.9,0.4-1.5,0.4
				c-0.6,0-1.1-0.1-1.5-0.3s-0.7-0.5-0.8-0.9c-0.2-0.4-0.2-0.9-0.2-1.6v-3.7h0.8v3.7c0,0.6,0.1,1,0.2,1.2s0.3,0.5,0.5,0.6
				c0.3,0.1,0.6,0.2,0.9,0.2c0.6,0,1.1-0.1,1.3-0.4c0.3-0.3,0.4-0.8,0.4-1.6V94.5z"/>
		</g>
	</g>
	<g>
		<path class="st1" d="M-0.1-0.1h28.5v20.2c0,3.8-3.1,6.8-6.8,6.8H-0.1V-0.1z"/>
		<text transform="matrix(1 0 0 1 2.4246 -2.2037)" class="st0 st36 st37">21</text>
		<g>
			<path class="st0" d="M13.4,20.5H4v-2l3.4-3.4C8,14.4,8.6,13.8,9,13.3s0.7-0.9,0.9-1.3c0.2-0.4,0.3-0.8,0.3-1.2
				c0-0.5-0.1-0.9-0.4-1.2S9.1,9.2,8.5,9.2C8,9.2,7.5,9.3,7,9.5s-1,0.6-1.6,1L3.9,8.7c0.4-0.3,0.8-0.6,1.2-0.9
				c0.4-0.3,1-0.5,1.5-0.7s1.3-0.3,2.1-0.3c0.9,0,1.6,0.2,2.3,0.5c0.6,0.3,1.1,0.8,1.5,1.3c0.3,0.6,0.5,1.2,0.5,1.9
				c0,0.7-0.1,1.4-0.4,2.1c-0.3,0.6-0.7,1.2-1.3,1.8s-1.2,1.3-2,2L7.5,18v0.1h5.9V20.5z"/>
			<path class="st0" d="M21.9,20.5H19v-7.8c0-0.3,0-0.7,0-1.3s0-1,0.1-1.4c-0.1,0.1-0.2,0.2-0.4,0.4c-0.2,0.2-0.4,0.4-0.6,0.5
				l-1.6,1.3l-1.4-1.7L19.6,7h2.4V20.5z"/>
		</g>
	</g>
</g>
</svg>
