<?xml version="1.0" encoding="utf-8"?>
<!-- Generator: Adobe Illustrator 24.1.1, SVG Export Plug-In . SVG Version: 6.00 Build 0)  -->
<svg version="1.1" id="Capa_1" xmlns="http://www.w3.org/2000/svg" xmlns:xlink="http://www.w3.org/1999/xlink" x="0px" y="0px"
	 viewBox="0 0 134.9 134.9" style="enable-background:new 0 0 134.9 134.9;" xml:space="preserve">
<style type="text/css">
	.st0{fill:#1D1D1B;}
	.st1{fill:#EDDFD6;}
	.st2{fill:#222222;}
	.st3{fill:#EDDFD6;stroke:#1D1D1B;stroke-width:0.42;stroke-linecap:round;stroke-linejoin:round;}
	.st4{fill:#1D1D1B;stroke:#EDDFD6;stroke-width:0.42;stroke-miterlimit:10;}
	.st5{fill:none;stroke:#1D1D1B;stroke-width:0.42;stroke-miterlimit:10;}
	.st6{fill:#00AEEF;}
	.st7{enable-background:new    ;}
	.st8{fill:#EDDFD6;stroke:#1D1D1B;stroke-width:0.6437;stroke-miterlimit:10;}
	.st9{fill:#EDDFD6;stroke:#1D1D1B;stroke-width:0.6073;stroke-miterlimit:10;}
	.st10{fill:#EDDFD6;stroke:#1D1D1B;stroke-width:0.5101;stroke-miterlimit:10;}
	.st11{fill:#EDDFD6;stroke:#1D1D1B;stroke-width:0.42;stroke-miterlimit:10;}
	.st12{fill:#EDDFD6;stroke:#1D1D1B;stroke-width:0.6356;stroke-miterlimit:10;}
	.st13{fill:#EDDFD6;stroke:#1D1D1B;stroke-width:0.5996;stroke-miterlimit:10;}
	.st14{fill:#EDDFD6;stroke:#1D1D1B;stroke-width:0.5037;stroke-miterlimit:10;}
	.st15{fill:#EDDFD6;stroke:#1D1D1B;stroke-width:0.422;stroke-miterlimit:10;}
	.st16{fill:#1D1D1B;stroke:#EDDFD6;stroke-width:0.422;stroke-miterlimit:10;}
	.st17{fill:none;stroke:#1D1D1B;stroke-width:0.422;stroke-miterlimit:10;}
	.st18{fill:none;stroke:#EDDFD6;stroke-width:0.422;stroke-linecap:round;stroke-linejoin:round;}
	.st19{fill:none;stroke:#EDDFD6;stroke-width:17;stroke-miterlimit:10;}
	.st20{fill:#EDDFD6;stroke:#EDDFD6;stroke-width:0.42;stroke-miterlimit:10;}
	.st21{fill:#EDDFD6;stroke:#1D1D1B;stroke-width:0.4786;stroke-miterlimit:10;}
	.st22{fill:#1D1D1B;stroke:#EDDFD6;stroke-width:0.4786;stroke-miterlimit:10;}
	.st23{fill:none;stroke:#1D1D1B;stroke-width:0.4786;stroke-miterlimit:10;}
	.st24{fill:none;stroke:#EDDFD6;stroke-width:0.4786;stroke-miterlimit:10;}
	.st25{fill:none;stroke:#EDDFD6;stroke-width:0.9265;stroke-miterlimit:10;}
	.st26{fill:#1D1D1B;stroke:#EDDFD6;stroke-width:0.53;stroke-miterlimit:10;}
	.st27{fill:#1D1D1B;stroke:#EDDFD6;stroke-width:0.6436;stroke-miterlimit:10;}
	.st28{fill:#EDDFD6;stroke:#1D1D1B;stroke-width:0.6436;stroke-miterlimit:10;}
	.st29{fill:#EDDFD6;stroke:#1D1D1B;stroke-width:0.6072;stroke-miterlimit:10;}
	.st30{fill:#EDDFD6;stroke:#1D1D1B;stroke-width:0.51;stroke-miterlimit:10;}
	.st31{fill:none;stroke:#EDDFD6;stroke-width:10.3992;stroke-miterlimit:10;}
	.st32{fill:#1D1D1B;stroke:#1D1D1B;stroke-width:0.42;stroke-linecap:round;stroke-linejoin:round;}
	.st33{font-family:'NotoSans-Bold';}
	.st34{font-size:19px;}
</style>
<g id="_x31_9">
	<rect x="-0.5" y="0.1" class="st0" width="135.4" height="135"/>
	<g>
		<path class="st11" d="M91.5,44.9C86.6,38,78.6,34,70.2,34h-5.9C55.9,34,47.9,38,43,44.9c-3.2,4.5-4.9,9.9-4.9,15.3
			c0,3,0.5,6,1.6,8.9c4,11,10.5,20.8,19.1,28.6l0.2,0.2c2.3,2.1,5.3,3.2,8.2,3.3c3-0.1,5.9-1.2,8.2-3.3l0.2-0.2
			c8.6-7.8,15.2-17.7,19.1-28.6c1-2.9,1.6-5.9,1.6-8.9C96.4,54.8,94.7,49.4,91.5,44.9z"/>
		<ellipse transform="matrix(0.9458 -0.3247 0.3247 0.9458 -20.2143 21.004)" class="st32" cx="52.8" cy="71.1" rx="4.9" ry="11"/>
		<ellipse transform="matrix(0.3247 -0.9458 0.9458 0.3247 -12.347 124.8045)" class="st32" cx="81.2" cy="71" rx="11" ry="4.9"/>
		<path class="st32" d="M67.5,92.1l-3.3,0c0,1.8,1.5,3.3,3.3,3.3s3.3-1.5,3.3-3.3H67.5z"/>
	</g>
	<g>
		<path class="st1" d="M0-0.1h28.5v20.2c0,3.8-3.1,6.8-6.8,6.8H0V-0.1z"/>
		<text transform="matrix(1 0 0 1 2.4621 -2.2053)" class="st0 st33 st34">19</text>
		<g>
			<path class="st0" d="M11.2,20.5H8.3v-7.8c0-0.3,0-0.7,0-1.3s0-1,0.1-1.4C8.3,10,8.2,10.2,8,10.4c-0.2,0.2-0.4,0.4-0.6,0.5
				l-1.6,1.3l-1.4-1.7L8.8,7h2.4V20.5z"/>
			<path class="st0" d="M24.4,12.7c0,0.8-0.1,1.5-0.2,2.3c-0.1,0.8-0.3,1.5-0.6,2.2c-0.3,0.7-0.7,1.3-1.2,1.8
				c-0.5,0.5-1.2,0.9-2,1.2c-0.8,0.3-1.8,0.4-2.9,0.4c-0.3,0-0.6,0-0.9,0s-0.7-0.1-0.9-0.1v-2.3c0.3,0.1,0.5,0.1,0.8,0.1
				c0.3,0,0.6,0.1,0.8,0.1c1.1,0,2-0.2,2.6-0.5c0.6-0.4,1-0.9,1.3-1.5c0.3-0.6,0.4-1.4,0.4-2.2h-0.1c-0.3,0.4-0.6,0.8-1.1,1.1
				c-0.4,0.3-1.1,0.5-1.9,0.5c-1.2,0-2.1-0.4-2.8-1.1c-0.7-0.7-1-1.8-1-3.2c0-1.5,0.4-2.6,1.2-3.5c0.8-0.8,2-1.3,3.4-1.3
				c0.9,0,1.8,0.2,2.5,0.6c0.7,0.4,1.3,1.1,1.8,2S24.4,11.4,24.4,12.7z M19.5,9.1c-0.6,0-1,0.2-1.4,0.6s-0.5,1-0.5,1.8
				c0,0.7,0.2,1.2,0.5,1.6c0.3,0.4,0.8,0.6,1.4,0.6c0.4,0,0.8-0.1,1.1-0.3c0.3-0.2,0.6-0.4,0.7-0.7c0.2-0.3,0.3-0.6,0.3-0.9
				c0-0.4-0.1-0.8-0.2-1.2c-0.2-0.4-0.4-0.7-0.7-1S20,9.1,19.5,9.1z"/>
		</g>
	</g>
</g>
</svg>
