<?xml version="1.0" encoding="UTF-8"?><svg xmlns="http://www.w3.org/2000/svg" viewBox="0 0 134.46 134.46"><defs><style>.d{fill:#eddfd6;}.e{stroke:#eddfd6;stroke-miterlimit:10;stroke-width:.42px;}.e,.f{fill:#1d1d1b;}.f{font-family:Helvetica, Helvetica;font-size:11.07px;}</style></defs><g id="a"/><g id="b"><g id="c"><g><rect class="e" x=".21" y=".21" width="134.04" height="134.04"/><rect class="d" x=".43" y=".42" width="21.13" height="21.13"/><text class="f" transform="translate(5.13 15.21)"><tspan x="0" y="0">24</tspan></text><path class="d" d="M51.25,43.07h-15.54v27.21h7.06c1.29,0,2.34-1.05,2.34-2.34h0c0-1.69,1.37-3.06,3.06-3.06h0c1.69,0,3.06,1.37,3.06,3.06v14.99c0,1.69-1.37,3.06-3.06,3.06h-1.54c-1.69,0-3.06-1.37-3.06-3.06h0c0-1.85-1.5-3.35-3.35-3.35h-4.98v27.3h22.45c2.38,0,4.31-1.91,4.34-4.29v-.16c.01-1.24-.95-2.22-2.15-2.22h-.31c-2.74,0-4.95-2.23-4.93-4.97v-.15c.02-2.82,2.31-5.09,5.13-5.09h14.73c2.82,0,5.11,2.28,5.12,5.1v.25c0,2.78-2.24,5.04-5.02,5.04h-.16c-1.17,0-2.08,.91-2.08,2.04v.09c0,2.4,1.95,4.35,4.36,4.35h21.77v-22.92c0-1.85,1.5-3.35,3.35-3.35h0c1.79,0,3.23,1.45,3.23,3.23h0c0,1.49,1.21,2.71,2.71,2.71h4.27c1.49,0,2.71-1.21,2.71-2.71v-17.42c0-1.49-1.21-2.71-2.71-2.71h-3.64c-1.49,0-2.71,1.21-2.71,2.71h0c0,1.38-1.12,2.51-2.51,2.51h0c-2.5,0-4.52-2.02-4.52-4.52v-21.34h-18.29c-3.62,0-6.55-2.93-6.55-6.55h2.47c2.22,0,4.02-1.8,4.02-4.02v-1.19c0-2.22-1.8-4.02-4.02-4.02h-17.64c-2.16,0-3.91,1.74-3.91,3.9v.1c0,2.24,1.81,4.04,4.03,4.04h.11c.04,4.26-3.4,7.74-7.67,7.74Z"/></g></g></g></svg>