<?xml version="1.0" encoding="UTF-8"?><svg xmlns="http://www.w3.org/2000/svg" viewBox="0 0 134.89 134.89"><defs><style>.d{fill:#eddfd6;}.e,.f{fill:#1d1d1b;}.g{fill:none;stroke:#eddfd6;stroke-miterlimit:10;stroke-width:9px;}.f{font-family:Helvetica, Helvetica;font-size:11.07px;}</style></defs><g id="a"/><g id="b"><g id="c"><g><rect class="e" x=".21" y=".21" width="134.46" height="134.46" rx=".21" ry=".21"/><path class="d" d="M134.46,.42V134.46H.42V.42H134.46m0-.42H.42c-.23,0-.42,.19-.42,.42V134.46c0,.23,.19,.42,.42,.42H134.46c.23,0,.42-.19,.42-.42V.42c0-.23-.19-.42-.42-.42h0Z"/></g><rect class="d" x=".42" y=".42" width="21.13" height="21.13"/><text class="f" transform="translate(4.11 15.21)"><tspan x="0" y="0">17</tspan></text><circle class="g" cx="70.18" cy="68.12" r="33.1"/><rect class="e" x="91.51" y="48.48" width="34.12" height="39.14"/><polygon class="d" points="100.21 55.34 84.64 50.17 104.54 41.62 100.21 55.34"/><rect class="e" x="85.34" y="84.1" width="6.28" height="22.57" transform="translate(-39.99 115.96) rotate(-56.25)"/><rect class="e" x="72.02" y="86.16" width="6.28" height="22.57" transform="translate(-42.99 63.03) rotate(-36.12)"/></g></g></svg>