<svg version="1.2" xmlns="http://www.w3.org/2000/svg" viewBox="0 0 500 500" width="500" height="500"><style>.a{fill:#222}.b{fill:#eddfd6}</style><path class="a" d="m-482-220h1410v941h-1410z"/><path class="b" d="m175.4 293.5c-1.4-0.1-6.2-0.5-10.8-0.9-5.8-0.5-8.4-0.6-9-0.2-0.5 0.3-1.4 1.4-2.2 2.5-0.6 1.1-1.2 2.3-1.2 2.6 0 0.3-0.3 0.6-0.5 0.6-0.3 0-0.5 0.2-0.5 0.4 0 0.3-0.2 0.8-0.5 1.1-0.3 0.4-1.4 2-2.5 3.7-1.1 1.7-3.4 5.2-5 7.8-1.6 2.5-2.9 4.8-2.9 5.1 0 0.3-0.2 0.5-0.4 0.6-0.2 0-1.5 1.8-2.9 3.9-1.3 2.1-2.5 4.1-2.5 4.4 0 0.4-0.2 0.6-0.5 0.6-0.2 0-0.4 0.4-0.4 0.7 0 0.4-0.2 0.8-0.5 0.8-0.3 0-0.5 0.3-0.5 0.7 0 0.4-0.1 0.7-0.3 0.7-0.3 0-0.8 0.8-1.4 1.8-0.5 1-1.8 2.7-2.8 3.8-1.1 1.2-2.7 2.6-3.6 3.1-0.9 0.6-1.8 1.1-1.9 1.3-0.1 0.1-1 0.5-1.9 0.9-1.2 0.4-4.7 0.6-12.9 0.6-8.4 0-11.3-0.2-11.7-0.6-0.3-0.4-0.8-1.4-1.1-2.4-0.3-0.8-0.9-2.8-1.3-4.2-0.4-1.4-0.8-3-0.8-3.4-0.1-0.4-0.4-1.5-0.6-2.6-0.1-1-0.4-2.3-0.5-2.8-0.1-0.6-0.3-1.6-0.5-2.4-0.1-0.8-0.2-3.1-0.3-5.2 0-2.1 0.1-4.6 0.3-5.6 0.1-0.8 0.3-1.7 0.3-1.7 0-0.1 0.1-0.3 0.1-0.5 0-0.2 0.2-0.6 0.6-1 0.3-0.3 0.3-0.6 0-0.6-0.3 0-0.2-0.1 0.1-0.3 0.3-0.2 0.8-0.9 1.2-1.6 0.3-0.8 1.9-3.2 3.5-5.5 1.6-2.3 3.2-4.6 3.7-5.2 0.5-0.5 0.8-1.2 0.8-1.5 0-0.4 0.2-0.7 0.4-0.8 0.2 0 0.9-0.9 1.6-1.8 0.8-1 1.4-2 1.4-2.1 0-0.1 0.5-0.8 1.1-1.5 0.7-0.7 1.1-1.4 1-1.6-0.1-0.1 0.3-0.7 1-1.4 0.7-0.7 1.2-1.5 1.2-1.8 0-0.3 0.1-0.6 0.3-0.6 0.2 0 0.8-0.7 1.3-1.6 0.6-1 1.1-1.7 1.3-1.7 0.2 0 0.5-0.4 0.6-0.9 0.1-0.4 0.9-1.6 1.6-2.4 0.9-1 1.5-2 1.5-2.3 0-0.3 0.3-0.6 0.5-0.6 0.2 0 0.5-0.2 0.5-0.5 0-0.3 0.2-0.7 0.5-1 0.2-0.4 2.2-3.1 4.3-6 2.1-3 3.8-5.6 3.8-5.9 0-0.2 0.1-0.5 0.3-0.6 0.2 0 1.5-1.6 2.9-3.5 1.3-1.9 2.3-3.5 2.2-3.5-0.2 0 0.1-0.3 0.5-0.8 0.5-0.5 2.1-2.7 3.5-4.9 1.5-2.2 3.1-4.6 3.7-5.2 0.6-0.7 1-1.4 0.9-1.6q-0.2-0.3 0.1-0.3c0.2 0 1.5-1.8 3-3.9 1.4-2.2 2.7-4.1 2.8-4.2 0.2-0.2 0.9-1.1 1.6-2.1 0.7-1 1.2-1.8 1.1-1.8-0.2 0 0.3-0.5 0.9-1.1 0.7-0.7 1.2-1.4 1.1-1.6-0.1-0.2 0.5-1 1.2-1.8 0.7-0.8 1.5-1.9 1.9-2.6 0.3-0.7 0.7-1.3 0.8-1.4 0.2-0.1 1.3-1.7 4.8-6.7l-2.6-6.3c-1.4-3.5-2.9-7.3-3.2-8.6-0.4-1.3-0.8-2.3-0.9-2.3-0.1 0-0.3-0.3-0.3-0.8-0.1-0.4-0.7-3.1-1.3-5.8-0.7-2.8-1.5-7.3-1.8-10-0.5-3.9-0.4-6.2 0-10.1 0.4-2.7 1.1-6.7 1.8-9 0.7-2.2 1.9-5.6 2.7-7.4 0.9-1.8 2.8-5.2 4.3-7.6 1.8-2.7 4.7-6.2 7.9-9.3 2.8-2.8 7.1-6.5 9.5-8.2 2.5-1.7 6.7-4.2 9.4-5.5 2.6-1.3 5.6-2.8 6.6-3.2 1.1-0.4 3.4-1.3 5.3-1.9 1.8-0.6 5.1-1.6 7.3-2.1 2.3-0.6 5.4-1.2 7-1.5 1.5-0.2 6.7-0.3 11.6-0.3 7.7 0.2 9.5 0.3 13.6 1.4 2.6 0.7 5.9 1.8 7.4 2.3 1.4 0.6 4.3 1.9 6.4 2.9 2.1 1 5.6 3.1 7.9 4.6 2.2 1.4 6.1 4.7 8.6 7.2 2.5 2.5 5.7 6 7 7.9 1.4 1.8 3.6 5.3 5 7.8 1.3 2.5 2.5 4.6 2.5 4.8 0 0.1 0.7 1.8 1.4 3.8 0.8 1.9 1.5 3.7 1.5 3.9q0.2 0.4 0.2 0.6c0 0.1 0 0.4 0 0.5 0 0.1 0.3 1.6 0.7 3.2 0.5 1.6 1 4.4 1.3 6.1 0.3 1.7 0.5 7.3 0.6 12.3 0.1 6.2-0.1 10.5-0.5 12.7-0.3 1.8-0.7 4.1-0.8 5-0.2 0.9-0.5 2.5-0.8 3.5-0.3 1-0.3 1.7-0.1 1.7 0.1 0 0 0.3-0.3 0.6-0.3 0.4-0.5 0.8-0.4 0.9 0.1 0.1-0.4 1.6-2.3 6.4"/><path class="a" d="m167.6 221c0.2 0 1 0.8 3.3 3.1l-4 5.8c-2.2 3.1-4.4 5.9-4.9 6.3-0.4 0.3-0.6 0.6-0.4 0.6 0.2 0-1.1 1.9-2.8 4.4-1.7 2.4-3.3 4.4-3.5 4.5-0.3 0.1-0.5 0.3-0.5 0.6 0 0.3-1.3 2.3-2.9 4.6-1.6 2.4-3.1 4.3-3.3 4.3-0.2 0.1-0.5 0.4-0.5 0.6 0 0.3-0.6 1.5-1.5 2.6-0.8 1.3-1.7 2.2-1.9 2.2-0.2 0-0.4 0.3-0.4 0.7 0 0.4-0.2 0.7-0.4 0.7-0.3 0-0.5 0.4-0.5 0.7 0 0.4-0.3 0.9-0.7 1-0.4 0.1-0.7 0.5-0.7 0.8 0 0.3-0.6 1.3-1.2 2-0.7 0.8-1.4 1.8-1.7 2.1-0.2 0.3-0.4 0.6-0.4 0.8 0 0.1-1.9 2.8-4.2 6-2.4 3.2-4.5 6.2-4.9 6.8-0.4 0.6-0.9 1.1-1.1 1.1-0.2 0.1-0.4 0.3-0.4 0.6 0 0.3-1.8 3.1-4.1 6.4-2.2 3.2-5 7-6 8.4-1.1 1.4-2.1 2.6-2.3 2.8-0.3 0-0.4 0.4-0.4 0.8 0 0.4-0.3 0.7-0.5 0.7-0.2 0-0.5 0.2-0.5 0.6 0 0.3-0.5 1.2-1.2 1.9-0.6 0.7-1.1 1.4-1.1 1.5 0 0.1-0.9 1.5-2 3-1.1 1.5-2.7 3.1-5.2 4.4v-1.4c0-0.8 0.3-1.9 0.6-2.5 0.3-0.6 0.7-1.2 0.8-1.3 0.2-0.2 1.1-1.6 2.2-3.2 1-1.7 2-3 2.2-3 0.2 0 0.4-0.3 0.4-0.7 0-0.5 0.3-0.8 0.7-1 0.4-0.1 0.7-0.5 0.7-0.8 0-0.4 0.4-1.1 0.9-1.7 0.6-0.6 1-1.1 1-1.3 0-0.1 1-1.7 2.3-3.6 1.3-1.8 2.4-3.3 2.6-3.3 0.2 0 0.4-0.2 0.4-0.5 0-0.2 2-3.3 4.4-6.8 2.4-3.5 4.5-6.3 4.7-6.4 0.2 0 0.4-0.3 0.4-0.6 0-0.3 1.2-2.3 2.7-4.4 1.5-2.2 2.9-4 3.1-4 0.2-0.1 0.4-0.4 0.4-0.6 0-0.3 1.3-2.5 3-4.8 1.6-2.4 3.1-4.3 3.3-4.3 0.2 0 0.4-0.2 0.4-0.5 0-0.3 0.6-1.5 1.5-2.7 0.8-1.2 1.7-2.4 1.8-2.5 0.2-0.1 0.7-1 1.2-1.8 0.5-0.9 1.1-1.6 1.3-1.6 0.2 0.1 0.3-0.3 0.3-0.6 0-0.4 0.3-0.8 0.5-0.8 0.3 0 0.5-0.2 0.5-0.6 0-0.3 0.8-1.6 1.8-2.9 0.9-1.4 2.9-4.1 4.4-6.2 1.4-2.1 2.7-3.9 2.9-4 0.3 0 0.5-0.4 0.5-0.8 0-0.4 0.1-0.7 0.4-0.7 0.3 0 0.5-0.3 0.5-0.6 0-0.3 0.5-1.2 1.2-1.9 0.6-0.7 1.2-1.5 1.2-1.7 0-0.2 0.4-0.8 0.8-1.3 0.5-0.5 1.4-1.8 2.1-2.9 0.6-1 1.4-2.1 1.8-2.4 0.3-0.4 0.7-0.7 0.9-0.7z"/><path class="a" d="m229.2 133.6c2.7 0.1 6 0.6 7.1 0.9 1.2 0.4 3.3 1.2 4.8 1.9 1.4 0.6 3.7 2 5 3 1.3 1 3.2 2.7 4.2 3.7 1 1.1 2.4 2.8 3.1 3.9 0.7 1 1.9 3.1 2.6 4.5 0.6 1.4 1.5 4 2 5.7 0.4 1.7 0.7 5.1 0.7 7.6 0 2.9-0.3 5.8-0.9 7.9-0.4 1.9-1.6 4.8-2.4 6.6-1 1.8-2.7 4.5-4.1 6-1.3 1.4-2.9 2.8-3.7 3.2-0.7 0.3-1.5 0.7-1.6 0.7-0.2 0-0.6 0.1-0.8 0.3-0.3 0.1-1.7 0.1-3.2-0.1-1.4-0.1-2.9-0.2-3.3-0.3-0.4-0.2-1.3-0.4-2-0.6-0.8-0.2-1.4-0.5-1.4-0.8 0-0.2-0.7-0.7-1.6-1-0.9-0.2-1.7-0.6-1.7-0.9 0-0.3-0.2-0.5-0.6-0.4-0.3 0-1-0.5-1.6-1-0.6-0.5-1.3-1-1.6-1-0.3 0-0.6-0.3-0.7-0.7-0.1-0.4-0.4-0.6-0.6-0.5-0.2 0.1-1-0.4-1.9-1.2-0.9-0.8-1.7-1.4-1.9-1.4-0.2 0-0.9-0.5-1.6-1-0.7-0.6-1.8-1.5-2.4-1.8-0.6-0.4-3.6-2.4-6.5-4.5-3.1-2.2-6.7-5-8.1-6.3-1.4-1.3-3.2-3.4-4-4.7-1.1-1.9-1.3-3-1.3-5.3 0-2.3 0.2-3.5 1.6-6.2 0.9-1.8 2.7-4.5 3.9-5.9 1.3-1.4 3.5-3.4 4.9-4.5 1.5-1 4-2.5 5.6-3.2 1.5-0.6 3.8-1.5 4.9-1.7 1.2-0.4 2.6-0.7 3.1-0.8 0.6-0.1 3.2-0.2 6-0.1z"/><path class="a" d="m281 423.2c-63.6 0-115-51.4-115-115 0-63.6 51.4-115 115-115 63.6 0 115 51.4 115 115 0 63.6-51.4 115-115 115z"/><path class="b" d="m273.8 207.2v53.2l10 0.2v-53.6l3.3 0.4c1.7 0.2 5.8 0.9 9 1.5 3.2 0.7 8.2 1.9 11.2 2.9 2.9 0.9 8.3 3.2 12 4.9 3.7 1.9 8.5 4.5 10.7 6.1 2.3 1.4 6 4.2 8.4 6.1 2.3 1.9 5.8 5.1 7.6 7 1.9 1.9 4.3 4.7 5.5 6.1 1.3 1.4 3.9 5 5.8 7.9 1.9 2.9 4.7 7.7 6.2 10.7 1.5 3 3.6 8 4.6 11.2 1.2 3.1 2.5 8.1 3.1 11 0.6 2.8 1.4 7.8 1.7 10.9 0.4 3.5 0.5 8.5 0.4 12.9-0.2 3.9-0.7 9.6-1.3 12.6-0.5 3-1.6 7.7-2.4 10.5-0.8 2.8-2 6.5-2.7 8.3-0.7 1.8-2.6 5.8-4.1 8.9-1.5 2.9-4.1 7.3-5.7 9.7-1.6 2.4-4.2 5.9-5.9 7.8-1.6 2-4.9 5.6-7.4 7.9-2.5 2.4-5.8 5.3-7.4 6.5-1.5 1.2-4.4 3.3-6.4 4.6-1.9 1.3-5.4 3.4-7.6 4.5-2.2 1.3-6.2 3.1-8.8 4.1-2.6 1.1-7.1 2.6-9.8 3.4-2.7 0.8-6.9 1.8-9.3 2.1-2.4 0.5-5.7 1-10.7 1.5v-53.9l-1.7 0.4c-1 0.2-3.3 0.4-8.3 0.4v53.1l-4.7-0.4c-2.5-0.1-6.5-0.6-8.9-1-2.4-0.4-6.6-1.4-9.5-2.3-2.9-0.8-7.7-2.5-10.7-3.8-3.1-1.2-7.8-3.6-10.5-5.2-2.8-1.5-7-4.3-9.3-6-2.3-1.8-6.7-5.5-9.7-8.5-3-2.8-6.8-6.9-8.4-9-1.6-2.1-4.2-5.7-5.8-8.1-1.4-2.4-4-7.1-5.7-10.5-1.6-3.4-3.7-8.5-4.6-11.5-0.9-2.8-2.1-7.2-2.6-9.7-0.6-2.5-1.3-7.1-1.6-10.3-0.3-3.4-0.5-8.8-0.3-13.3 0.2-4.2 0.7-9.7 1.1-12.2 0.3-2.5 1.4-7 2.4-10.2 0.9-3.1 2.5-7.9 3.6-10.5 1-2.6 2.8-6.6 4-8.8 1.3-2.2 3.3-5.7 4.6-7.6 1.3-2 3.6-5.1 5.1-6.9 1.5-1.9 4-4.7 5.5-6.4 1.6-1.7 4.8-4.7 7.2-6.7 2.4-2.1 6.4-5.1 9-6.9 2.7-1.8 7.6-4.6 11-6.3 3.4-1.6 8.8-3.9 11.9-4.9 3.2-1 7.4-2.2 9.3-2.6 2-0.4 5.4-1.1 7.7-1.4 2.2-0.4 5.3-0.7 9.9-0.8z"/><path class="a" d="m260.9 218.9c0.4 0 0.5 4.6 0.5 42.6l-2.7 1.4c-1.5 0.7-4.1 2.3-5.6 3.4-1.6 1.1-3.9 3-5.1 4.1-1.2 1.2-3.2 3.4-4.4 5-1.3 1.5-3.4 4.9-4.6 7.6-1.2 2.6-2.6 6.2-3.1 7.9-0.4 1.6-0.9 5.3-1 8-0.2 3.1-0.1 6.5 0.3 8.8 0.3 2.1 1.2 5.7 2 7.9 0.8 2.2 1.9 5.1 2.6 6.2 0.7 1.2 2.4 3.7 3.7 5.5 1.3 1.8 3.7 4.4 5.3 5.8 1.5 1.5 4.6 3.7 6.7 5 2.1 1.3 4.3 2.4 4.8 2.6 1.1 0.2 1.1 0.3 1.1 6.9 0 5-0.1 6.6-0.6 6.6-0.3 0-2.4-0.7-4.6-1.7-2.3-0.9-5.6-2.6-7.4-3.7-1.8-1-4.9-3.2-6.7-4.8-1.8-1.5-4.6-4.2-6.2-5.9-1.5-1.8-3.5-4.4-4.5-5.8-1-1.4-2.6-4.2-3.5-6.1-0.9-1.9-2.3-5-2.9-6.9-0.6-1.9-1.5-5-2-7-0.3-2-0.8-5.9-1-8.9-0.1-3.6 0-6.6 0.5-9.9 0.5-2.7 1.3-6.3 1.9-8.1 0.5-1.9 1.8-5.3 2.9-7.7 1.2-2.3 3-5.6 4.2-7.3 1.8-2.6 2.3-3.1 4.4-3.8 1.4-0.4 3-1.2 3.7-1.6 0.8-0.4 1.9-1.5 2.5-2.4 0.6-0.9 1.4-2.4 1.7-3.4 0.4-1.2 0.5-2.9 0.3-4.3-0.2-1.3-0.8-3.2-1.4-4.2-0.6-1-2-2.5-3.2-3.3-1.2-0.8-2.9-1.5-3.8-1.6-0.9-0.2-2.5-0.3-3.6-0.2-1 0.2-2.8 0.9-4 1.6-1.2 0.7-2.8 2.1-3.5 3.3-0.7 1.1-1.5 3.1-1.7 4.6-0.3 2-1 3.6-3.2 6.6-1.5 2.3-3.6 6-4.7 8.2-1.1 2.2-2.7 6-3.6 8.3-0.8 2.4-1.9 6.2-2.4 8.6-0.6 2.6-1.1 7-1.3 11.7-0.2 4.8 0 9 0.3 12.1 0.4 2.6 1.1 6.6 1.7 8.8 0.7 2.2 1.8 5.8 2.6 7.9 0.8 2.1 2.6 5.7 3.9 8.1 1.3 2.4 3.6 5.9 5.1 7.9 1.4 1.9 4.7 5.6 7.2 8.1 2.6 2.5 6.6 5.9 9.3 7.7 2.7 1.7 6.9 4.2 9.6 5.5 2.6 1.2 6.8 2.9 14 5.1v7c0 6.4-0.1 7-0.8 7-0.5 0-2.9-0.5-5.4-1.2-2.5-0.6-6.5-2-8.8-2.9-2.3-0.9-5.7-2.4-7.4-3.2-1.7-0.9-5.1-3-7.6-4.6-2.5-1.6-6.2-4.3-8.1-5.9-2-1.6-5.2-4.7-7.1-6.7-1.9-2.1-4.8-5.5-6.3-7.6-1.6-2.1-3.8-5.3-4.8-7.2-1.1-1.8-2.8-4.9-3.7-6.9-1-2-2.7-6.1-3.7-9.2-1.1-3.2-2.3-7.4-2.7-9.4-0.4-1.9-1-5.7-1.3-8.3-0.3-3-0.4-7.7-0.3-12.6 0.2-5.6 0.7-9.5 1.5-13.6 0.7-3.1 2.2-8.4 3.4-11.7 1.2-3.2 3.3-8.1 4.7-10.7 1.4-2.6 3.8-6.6 5.4-8.8 1.6-2.2 4.4-5.7 6.2-7.7 1.8-2.1 4.7-5 6.6-6.6 1.8-1.7 4.8-4.1 6.6-5.4 1.9-1.4 4.2-3 5.3-3.7 1-0.7 4.1-2.3 6.6-3.6 2.7-1.3 6.3-2.9 8.2-3.7 1.8-0.6 5.4-1.7 7.8-2.4 2.5-0.6 4.8-1.2 5.2-1.2zm35.3 0.5l1.4 0.3c0.7 0.1 3.8 1.1 6.8 2.1 3.1 1.1 7.8 3 10.5 4.3 2.7 1.4 6.8 3.7 9 5.2 2.2 1.5 5.3 3.8 6.9 5.1 1.6 1.3 4.6 4.2 6.8 6.5 2.3 2.3 5.7 6.3 7.5 8.8 2 2.5 4.6 6.6 5.9 8.9 1.3 2.4 3.1 6.2 4.1 8.6 1 2.4 2.1 5.6 2.6 7.2 0.5 1.5 1.3 4.6 1.8 6.9 0.5 2.2 1.2 6.1 1.5 8.6 0.3 2.6 0.5 7.1 0.5 10.1 0 2.9-0.4 7.6-0.7 10.3-0.4 2.8-1.3 7.2-2 10-0.7 2.8-2 7-2.9 9.3-0.9 2.3-2.6 6.1-3.7 8.4-1.2 2.2-3.4 5.9-5 8.3-1.6 2.4-4.4 6.1-6.4 8.3-1.9 2.2-5.4 5.7-7.7 7.8-2.3 2.1-6.5 5.3-9.3 7.1-2.7 1.8-7.1 4.4-9.8 5.6-2.6 1.3-7 3.1-9.7 4-2.8 0.9-5.7 1.8-8.1 2.2l0.2-43.5 3.1-1.9c1.7-1 4.3-2.9 5.6-4 1.4-1.1 2.5-2.3 2.5-2.7 0-0.3-1.8-2.4-8-8.7l-2.8 2.4c-1.5 1.3-4.4 3.1-6.5 4.1-2.1 1-5 2-6.4 2.3-1.4 0.3-4.3 0.5-6.6 0.5-2.3 0-5.5-0.3-7.1-0.7-1.5-0.4-4.1-1.2-5.7-2-1.6-0.7-3.9-2.1-5.2-3-1.3-1-3.3-2.7-4.3-3.8-1.1-1.2-2.6-3.2-3.4-4.5-0.9-1.3-2.1-3.7-2.8-5.3-0.6-1.6-1.4-4.6-1.7-6.9-0.3-2.4-0.5-5.3-0.2-7.1 0.1-1.7 0.8-4.8 1.5-6.7 0.6-2 1.9-4.9 3-6.6 1-1.6 3.2-4.1 4.7-5.7 1.6-1.5 4-3.4 5.4-4.2 1.4-0.9 4.2-2.2 6.1-2.9 3.2-1.2 4.2-1.3 9.8-1.3 5.3 0 6.6 0.2 9.3 1.1 1.7 0.6 4.3 1.8 5.7 2.6 1.5 0.8 3.8 2.6 7.9 6l4.1-4.1c3.4-3.4 4.1-4.4 3.7-5-0.2-0.5-2-2.1-3.9-3.5-1.9-1.5-4.4-3.3-7.9-5.2l-0.2-6.6c0-3.6 0-6.7 0.2-6.8 0.3-0.1 2.2 0.6 4.3 1.6 2.2 1 5.6 2.9 7.5 4.2 2 1.3 5.7 4.4 8.1 6.8 2.5 2.6 5.6 6 6.7 7.7 1.1 1.7 2.9 4.7 3.9 6.7 1 1.9 2.3 5.2 3 7.1 0.7 2 1.6 5.4 2 7.7 0.4 2.4 0.7 6.3 0.7 9.9 0 3.3-0.3 7.5-0.5 9.3-0.3 1.9-1.2 5.4-2 7.9-0.8 2.5-2.4 6.3-3.6 8.6-1.2 2.2-2.9 5.1-3.9 6.3-1.2 1.7-2.3 2.6-3.7 3.1-1 0.3-2.7 1.4-3.7 2.4-0.9 0.9-2.1 2.7-2.5 3.9-0.6 1.5-0.8 3-0.6 4.8 0.2 1.8 0.7 3.2 1.6 4.7 1 1.4 2.3 2.5 4 3.5 1.8 0.9 3.3 1.3 4.9 1.3 1.2 0 3-0.3 3.8-0.7 0.9-0.3 2.3-1.2 3.2-2 0.9-0.7 2-2.2 2.6-3.2 0.5-1.2 1-3 1-4.6 0-2.3 0.4-3.1 2.6-6.6 1.5-2.3 3.6-6.3 4.9-8.9 1.2-2.6 2.7-6.1 3.2-7.9 0.6-1.6 1.5-5.2 2.1-7.8 0.8-4 1-6.3 1-14.1 0-7.8-0.2-9.9-1-14-0.6-2.6-1.8-6.7-2.6-9.1-0.8-2.3-2.3-6-3.4-8.1-1-2.1-2.4-4.7-3.1-5.7-0.7-1.1-2.2-3.1-3.3-4.7-1.2-1.6-3.8-4.6-5.8-6.7-2-2-5-4.8-6.7-6.1-1.7-1.4-4.1-3.2-5.2-4-1.2-0.8-3.6-2.2-5.4-3.2-1.8-1-5.1-2.4-7.4-3.4-2.3-0.9-4.7-1.7-6.8-2.1v-7.4z"/><path class="b" d="m-17-17h116v116h-116z"/><path  d="m36.7 50.6q4.3 1.1 6.6 4.1 2.3 2.9 2.3 7.2 0 6.1-4.1 9.5-4 3.4-11.2 3.4-3 0-6.1-0.5-3.2-0.6-6.2-1.6v-5.9q3 1.5 5.9 2.3 2.9 0.8 5.8 0.8 4.8 0 7.4-2.2 2.7-2.2 2.7-6.4 0-3.8-2.7-6-2.6-2.2-7-2.2h-4.5v-4.9h4.5q4.1 0 6.3-1.8 2.3-1.8 2.3-5 0-3.3-2.1-5.1-2.1-1.9-6-1.9-2.7 0-5.4 0.6-2.8 0.6-5.9 1.8v-5.5q3.6-0.9 6.3-1.4 2.8-0.4 5-0.4 6.3 0 10.1 3.2 3.9 3.2 3.9 8.5 0 3.6-2 6-2 2.4-5.9 3.4zm21.3 23.4v-5h9.2v-33.4l-9.9 2.2v-5.4l9.9-2.1h5.9v38.7h9.1v5z"/></svg>