<svg version="1.2" xmlns="http://www.w3.org/2000/svg" viewBox="0 0 500 500" width="500" height="500"><style>.a{fill:#222}.b{fill:#c6bab3}.c{fill:#eddfd6}</style><path class="a" d="m-467-195h1517v995h-1517z"/><path class="b" d="m230.2 351.1h39.9l6.6 16.7c3.7 9.2 6.6 16.9 6.6 17 0 0.2-14.9 0.3-33.1 0.3-31.4 0-33.1 0-33-0.6 0.1-0.3 3-8 6.6-17z"/><path class="c" d="m224.1 258.2c0.2-0.1 0.2 13.5-0.2 66.9h52.2l-0.1-33.5c0-18.4 0-33.5 0.1-33.5 0.1 0 6.6 3.3 28.7 14.7l0.2 93.3-6.6 6.2c-3.7 3.5-6.8 6.2-6.9 6-0.1-0.1-3.6-8.3-7.7-18.2-4.1-9.9-7.5-18.2-7.5-18.5-0.2-0.3-5.6-0.4-52.2-0.2l-7.6 18.3c-4.2 10.1-7.7 18.6-7.7 18.7-0.1 0.2-3.2-2.3-13.7-11.6l-0.1-93.8 14.4-7.4c7.9-4.1 14.5-7.4 14.7-7.4z"/><path class="b" d="m137.5 225.9c0.3 0 6.4 4.3 26.9 19l0.2 13.1 20.6 14.7v42.8c0 28.4-0.2 42.9-0.4 42.9-0.2 0-8.9-7.3-19.5-16.2-10.5-8.9-19.4-16.5-19.8-16.8-0.6-0.6-0.8-2.1-2-17.2-0.7-9.1-2.3-30.7-3.6-47.8-1.4-17.2-2.5-32-2.6-32.9-0.2-1.2-0.1-1.6 0.2-1.6z"/><path class="b" d="m362.8 226.3c0.1 0.4-1 16.8-2.6 36.5-1.5 19.6-3.2 41.6-3.8 48.9-0.6 7.3-1.1 13.3-1.3 13.4-0.1 0.1-9 7.8-19.8 17.1-10.9 9.3-19.8 16.8-19.8 16.8-0.1-0.1-0.3-19.4-0.6-85.9l0.8-0.8c0.4-0.4 5-3.7 19.8-14.2v-12.8l13.6-9.9c12-8.7 13.6-9.7 13.7-9.1z"/><path class="b" d="m225.7 200.1c0.1 0 5.6 3.8 24.5 16.8l2.2-1.6c1.3-0.8 6.7-4.6 12.1-8.4 5.5-3.7 10-6.7 10.1-6.7 0.1 0.1-1.6 11.3-7.4 50v65.3h-34.3v-66.3l-3.6-23.8c-2-13-3.6-24.1-3.6-24.5 0-0.4 0-0.8 0-0.8z"/><path class="c" d="m386.2 128.1c0.5-0.1 0.8 0.1 0.8 0.4 0 0.3-0.5 2.7-1.1 5.3-0.5 2.6-3.1 14.2-5.6 25.8-2.5 11.6-6 27.5-7.7 35.3-1.7 7.8-3.1 14.2-3.1 14.3 0 0.1-9.3 6.9-20.7 15-11.4 8.1-20.9 15-21.2 15.2-0.2 0.2-11.8 2.2-25.7 4.4-13.9 2.2-25.3 4-25.5 3.9-0.1 0 1.8-12.2 8.5-54.1l26.2-17.4c14.5-9.5 26.5-17.5 26.7-17.7 0.2-0.2 1.6-6.4 3.1-13.7 2.7-13.3 2.7-13.3 3.5-13.4 0.5 0 9.9-0.7 21-1.6 11-0.9 20.4-1.7 20.8-1.7z"/><path class="a" d="m359 180.9c0.2 0 0.4 0.2 0.3 0.4 0 0.3-0.5 2.1-2 7.9l-7.5 5.1c-4.2 2.8-17.6 11.9-29.9 20.2-12.3 8.3-22.4 14.9-22.6 14.8-0.1-0.1 0.1-1.9 1.3-8.1l30-20.1c16.6-11.1 30.2-20.2 30.4-20.2zm4.7-24.4c0.1 0 0.1 0.4 0.1 0.8-0.1 0.4-0.5 2.3-0.8 4.2-0.4 1.9-0.9 3.6-1.2 3.8-0.2 0.2-5.6 4-12 8.3-6.5 4.3-19.9 13.4-29.8 20.1-10 6.7-18.2 12.2-18.3 12.2-0.1-0.1 0.1-1.9 0.4-4.1 0.4-2.2 0.7-4.1 0.8-4.2 0.1-0.1 11.2-7.6 24.7-16.7 13.5-9.2 27.1-18.4 30.2-20.5 3.1-2.1 5.8-3.9 5.9-3.9z"/><path class="c" d="m113 128l2 0.2c1.1 0.1 9.8 0.8 19.3 1.5 9.6 0.8 18.5 1.5 19.9 1.6 2 0.1 2.5 0.3 2.6 0.8 0.1 0.3 1.3 6.4 2.8 13.4 1.4 7.1 2.6 12.9 2.7 13 0 0 11.8 7.8 26.1 17.3 14.4 9.4 26.3 17.4 26.5 17.6 0.3 0.2 1.5 7.2 3 16.5 1.5 8.9 3.4 21 4.3 27 1 5.9 1.7 10.8 1.7 10.8-0.1 0.1-10.2-1.5-22.6-3.5-12.4-2-23.7-3.7-25.1-4-1.4-0.2-2.9-0.5-3.2-0.7-0.4-0.2-10-7-21.3-15.1-11.3-8.1-20.7-14.8-20.7-14.8-0.1 0-0.4-1.4-0.8-3.1-0.4-1.7-4.3-19.6-8.7-39.8-4.4-20.3-8.1-37.2-8.3-37.7z"/><path class="a" d="m171 200.7c16.6 11.1 30.2 20.2 30.4 20.3 0.1 0.1 0.6 2.1 1 4.4 0.4 2.4 0.6 4.2 0.4 4.1-0.2-0.1-4.5-3-9.7-6.4-5.1-3.5-18.4-12.4-29.5-19.9-11-7.4-20.2-13.6-20.4-13.7-0.1-0.1-0.7-1.9-1.3-4-0.6-2-1-4-1-4.3 0-0.5 8.9 5.3 30.1 19.5zm-34.1-44c0.2 0.2 3.8 2.6 8.1 5.5 4.2 2.9 17.6 11.9 29.7 20.1 12.1 8.1 22.1 15 22.4 15.2 0.2 0.2 0.6 1.9 0.9 3.8 0.3 1.9 0.5 3.7 0.5 4-0.1 0.5-3.7-1.7-15.8-9.9-8.5-5.8-22.1-15-30-20.3-7.9-5.4-14.5-9.9-14.6-10.1-0.2-0.2-0.6-2-1-4-0.4-2-0.7-3.8-0.7-4.1 0.1-0.2 0.2-0.3 0.5-0.2z"/><path class="b" d="m249.2 114c7.1 0 13.9 0.2 18.2 0.5 3.7 0.3 7.7 0.6 8.7 0.7 1.1 0.1 3.4 0.4 5.2 0.7 1.8 0.3 5.2 0.9 7.5 1.4 2.4 0.4 6.6 1.3 9.3 2 2.7 0.7 7 1.8 9.4 2.4 2.5 0.7 6.8 2.1 9.6 3.1 2.9 1.1 7.6 2.9 10.5 4.2 2.9 1.2 5.4 2.2 5.4 2.2 0.1 0.1-0.9 5.1-2.1 11.2-1.3 6.2-2.4 11.3-2.5 11.4-0.2 0.1-17.7 11.7-38.9 25.7-21.2 14.1-38.8 25.7-39 25.8-0.2 0.2-16.4-10.3-39.3-25.5-21.4-14.1-39.1-25.9-39.3-26.1-0.2-0.3-1.4-5.3-2.6-11.3-1.2-6-2.1-11-2-11.1 0.1-0.1 2.8-1.3 6-2.6 3.2-1.3 7.9-3.2 10.5-4.1 2.5-0.9 6.9-2.3 9.6-3.1 2.7-0.7 6.9-1.8 9.3-2.3 2.3-0.6 6.6-1.5 9.6-2.1 2.9-0.6 6.5-1.2 8-1.4 1.5-0.3 6.1-0.7 10.2-1.1 4.8-0.3 11.3-0.6 18.7-0.6z"/><path class="a" d="m250 144.2c24.2 0 44 0.1 44.1 0.2 0.1 0.2-9.7 6.9-21.9 15-12.1 8.1-22.2 14.6-22.3 14.5-0.2 0-10.2-6.6-22.1-14.6-11.9-7.9-21.7-14.6-21.7-14.8 0-0.2 14.9-0.3 43.9-0.3z"/><path class="c" d="m0 0h79v79h-79z"/><path  d="m29.9 40.5q3.6 0.9 5.5 3.4 1.9 2.4 1.9 6 0 5.1-3.4 8-3.3 2.8-9.3 2.8-2.5 0-5.1-0.5-2.6-0.4-5.2-1.3v-4.9q2.5 1.3 5 1.9 2.4 0.7 4.8 0.7 4 0 6.2-1.9 2.2-1.8 2.2-5.2 0-3.2-2.2-5.1-2.2-1.9-5.9-1.9h-3.8v-4h3.8q3.4 0 5.3-1.5 1.9-1.5 1.9-4.1 0-2.9-1.8-4.3-1.7-1.6-5-1.6-2.2 0-4.5 0.5-2.3 0.5-4.9 1.5v-4.5q3-0.8 5.3-1.2 2.3-0.4 4.1-0.4 5.3 0 8.5 2.7 3.2 2.6 3.2 7.1 0 3-1.7 5-1.7 2-4.9 2.8zm20.3 15.3h16.8v4.2h-22.2v-4.2q4.6-4.8 8-8.4 3.4-3.7 4.7-5.2 2.5-3 3.3-4.9 0.9-1.8 0.9-3.7 0-3.1-1.8-4.8-1.8-1.8-5-1.8-2.2 0-4.6 0.8-2.5 0.9-5.2 2.5v-5q2.5-1.2 4.9-1.8 2.5-0.6 4.8-0.6 5.4 0 8.6 2.8 3.3 2.9 3.3 7.5 0 2.3-1.1 4.7-1.1 2.3-3.5 5.2-1.4 1.5-4 4.4-2.6 2.8-7.9 8.3z"/></svg>