<?xml version="1.0" encoding="utf-8"?>
<!-- Generator: Adobe Illustrator 24.1.1, SVG Export Plug-In . SVG Version: 6.00 Build 0)  -->
<svg version="1.1" id="Capa_1" xmlns="http://www.w3.org/2000/svg" xmlns:xlink="http://www.w3.org/1999/xlink" x="0px" y="0px"
	 viewBox="0 0 134.9 134.9" style="enable-background:new 0 0 134.9 134.9;" xml:space="preserve">
<style type="text/css">
	.st0{fill:#1D1D1B;}
	.st1{fill:#EDDFD6;}
	.st2{fill:#222222;}
	.st3{fill:#EDDFD6;stroke:#1D1D1B;stroke-width:0.42;stroke-linecap:round;stroke-linejoin:round;}
	.st4{fill:#1D1D1B;stroke:#EDDFD6;stroke-width:0.42;stroke-miterlimit:10;}
	.st5{fill:none;stroke:#1D1D1B;stroke-width:0.42;stroke-miterlimit:10;}
	.st6{fill:#00AEEF;}
	.st7{enable-background:new    ;}
	.st8{font-family:'NotoSans-Bold';}
	.st9{font-size:19px;}
	.st10{fill:#EDDFD6;stroke:#1D1D1B;stroke-width:0.6437;stroke-miterlimit:10;}
	.st11{fill:#EDDFD6;stroke:#1D1D1B;stroke-width:0.6073;stroke-miterlimit:10;}
	.st12{fill:#EDDFD6;stroke:#1D1D1B;stroke-width:0.5101;stroke-miterlimit:10;}
</style>
<g id="_x32_9">
	<path class="st0" d="M4336.3-0.4H4472v135.7h-135.7V67.5V-0.4z"/>
	<g>
		<path class="st1" d="M4431.2,73.5l1.3,0.4c0.7,0.2,1.8,0.7,2.5,1c0.6,0.3,1.7,1,2.3,1.4c0.6,0.4,1.7,1.3,2.3,2
			c0.6,0.7,1.5,1.7,1.8,2.3c0.4,0.6,1,1.8,1.3,2.7c0.3,0.8,0.7,2.1,0.8,2.9c0.2,0.8,0.2,2.1,0.1,3.4c-0.1,1.3-0.3,2.6-0.5,3.4
			c-0.2,0.7-0.7,1.9-1.1,2.6c-0.4,0.7-1,1.8-1.4,2.3c-0.4,0.5-1.2,1.4-1.7,1.9c-0.6,0.5-1.4,1.2-1.9,1.5c-0.4,0.3-1.4,0.8-2,1.2
			c-0.7,0.3-1.9,0.8-4.2,1.4h-26.4c-24.5,0-26.4,0-27.6-0.3c-0.7-0.2-2.1-0.8-3.2-1.3c-1.7-0.9-2.2-1.2-3.7-2.7
			c-1.1-1.1-2-2.3-2.6-3.2c-0.4-0.8-1-2-1.3-2.8c-0.2-0.7-0.5-1.9-0.7-2.6c-0.1-0.7-0.1-2.1-0.1-3.3c0.1-1.3,0.3-2.6,0.5-3.4
			c0.2-0.7,0.6-1.8,0.9-2.4c0.3-0.6,0.8-1.5,1.3-2.2c0.4-0.6,1.4-1.7,2.1-2.4c0.7-0.7,1.8-1.5,2.5-1.9c0.6-0.4,1.7-0.9,2.5-1.2
			c0.7-0.3,1.9-0.6,2.6-0.7C4378.6,73.5,4384,73.5,4431.2,73.5L4431.2,73.5z"/>
		<path class="st0" d="M4432.4,82.7v1.7h-6.1v4h5.2v1.7h-5.2v5.3h-1.9l0-6.3c0-3.4,0.1-6.3,0.1-6.4
			C4424.6,82.8,4426.4,82.7,4432.4,82.7z M4414.5,82.7h8v1.7h-6.3v4h5.3v1.7h-5.3v5.3h-1.7v-6.4V82.7z M4407.2,82.7
			c0.7,0,1.5,0.1,1.9,0.4c0.4,0.2,1,0.6,1.3,0.9c0.3,0.3,0.7,0.9,0.9,1.2c0.2,0.5,0.3,1.3,0.4,3.4c0,1.5,0,3.1-0.1,3.6
			c-0.1,0.5-0.4,1.3-0.8,1.8c-0.3,0.4-1,1-1.4,1.2c-0.6,0.3-1.2,0.4-2.1,0.4c-1,0-1.5-0.1-2.1-0.4c-0.4-0.2-1-0.6-1.2-0.9
			c-0.2-0.2-0.6-0.7-0.8-1.1c-0.3-0.6-0.4-1.1-0.4-7.6l0.6-0.9c0.4-0.7,0.8-1.1,1.6-1.5C4405.8,82.8,4406.3,82.7,4407.2,82.7
			L4407.2,82.7z"/>
		<path class="st1" d="M4407.2,84.4c0.4,0,1,0.1,1.3,0.3c0.3,0.1,0.7,0.6,1,0.9c0.3,0.5,0.4,1,0.4,3.4c0,2.1-0.1,3-0.3,3.4
			c-0.1,0.3-0.5,0.7-0.8,1c-0.4,0.3-0.8,0.4-1.5,0.4c-0.9,0-1.1-0.1-2.4-1.3l-0.1-3c-0.1-2.5,0-3.1,0.2-3.6c0.1-0.4,0.6-0.8,0.9-1
			C4406.1,84.6,4406.8,84.4,4407.2,84.4z"/>
		<path class="st0" d="M4380.5,75.5c1.4,0,2.3,0.1,3.4,0.4c0.9,0.2,2.1,0.7,2.8,1s1.8,1,2.3,1.5c0.6,0.5,1.5,1.4,2,2
			c0.5,0.6,1.2,1.8,1.6,2.6c0.4,0.8,0.9,2.2,1.1,2.9c0.2,1,0.3,2,0.2,3.5c-0.1,1.4-0.2,2.5-0.5,3.3c-0.2,0.7-0.7,1.7-1,2.3
			c-0.3,0.6-1,1.5-1.4,2.1c-0.5,0.6-1.4,1.5-2,2c-0.6,0.5-1.8,1.2-2.6,1.6c-0.8,0.4-2.1,0.9-2.8,1c-0.7,0.2-2,0.3-3.1,0.3
			c-1.2,0-2.3-0.1-3.3-0.4c-0.8-0.2-2.2-0.7-3.1-1.2c-1.1-0.6-1.9-1.2-3-2.3c-0.8-0.9-1.8-2-2.1-2.6c-0.4-0.6-0.8-1.7-1.1-2.5
			c-0.3-0.8-0.6-2.1-0.7-2.9c-0.1-0.9-0.1-2.2,0-3c0.1-0.8,0.4-2,0.6-2.7c0.2-0.7,0.7-1.8,1.2-2.6s1.3-1.8,1.9-2.5
			c0.6-0.7,1.6-1.5,2.3-2c0.7-0.4,1.7-1,2.3-1.2c0.6-0.2,1.5-0.5,2.1-0.7C4378.2,75.7,4379.5,75.5,4380.5,75.5L4380.5,75.5z"/>
		<path class="st1" d="M4431.2,30.9l1.3,0.4c0.7,0.2,2.1,0.8,3,1.3c1.2,0.6,2.2,1.3,3.2,2.3c0.8,0.8,1.9,2,2.3,2.7
			c0.4,0.7,1.1,1.9,1.4,2.7c0.3,0.7,0.7,2,0.9,2.9c0.2,1.2,0.3,2.1,0.2,3.7c-0.1,1.3-0.3,2.7-0.5,3.4c-0.2,0.7-0.7,1.9-1.1,2.6
			c-0.4,0.8-1.1,1.9-1.5,2.5c-0.4,0.6-1.2,1.4-1.7,1.9c-0.5,0.5-1.3,1.1-1.8,1.5c-0.4,0.3-1.4,0.9-2,1.2c-0.7,0.3-1.9,0.8-4.2,1.5
			h-26.4c-24.5,0-26.4,0-27.6-0.3c-0.7-0.2-2.1-0.8-3.2-1.3c-1.7-0.8-2.2-1.2-3.7-2.7c-1.1-1.1-2.1-2.3-2.6-3.1
			c-0.4-0.7-1-1.8-1.2-2.3c-0.2-0.5-0.5-1.6-0.7-2.4c-0.1-0.8-0.3-2.3-0.3-3.3c0-1.3,0.1-2.4,0.4-3.5c0.2-0.9,0.7-2.2,1-2.9
			c0.3-0.7,1-1.8,1.4-2.4c0.4-0.6,1.4-1.7,2.1-2.4c0.7-0.7,1.9-1.6,2.6-2c0.7-0.4,1.8-1,2.5-1.2c0.6-0.2,1.7-0.5,2.4-0.7
			C4378.6,30.8,4384,30.8,4431.2,30.9L4431.2,30.9z"/>
		<path class="st0" d="M4396.8,39.9h1.6l1.5,2.4c0.8,1.3,2.1,3.4,2.8,4.5c0.7,1.1,1.4,2,1.5,2c0.1,0,0.2-1.6,0.2-8.9h1.7v12.6h-1.7
			l-2.7-4.2c-1.5-2.3-2.8-4.4-3-4.5c-0.2-0.2-0.2,0.4-0.2,8.8h-1.7v-6.3V39.9z M4389.5,39.7c0.6,0,1.3,0.1,1.9,0.4
			c0.5,0.2,1.2,0.7,1.5,1.1c0.3,0.4,0.6,1,0.8,1.3c0.2,0.5,0.3,1.5,0.3,3.6c0,2.1-0.1,3.1-0.3,3.6c-0.1,0.4-0.5,1-0.8,1.3
			c-0.3,0.4-0.9,0.8-1.5,1.1c-0.5,0.3-1.3,0.4-1.8,0.4c-0.4,0-1.1-0.1-1.5-0.2c-0.4-0.1-1-0.4-1.3-0.6c-0.4-0.3-0.9-0.8-1.2-1.5
			c-0.5-1-0.5-1.1-0.5-4.2s0-3.1,0.5-4.2c0.3-0.6,0.8-1.2,1.1-1.4c0.3-0.2,0.9-0.5,1.2-0.6C4388.2,39.8,4389,39.7,4389.5,39.7
			L4389.5,39.7z"/>
		<path class="st1" d="M4389.7,41.5c0.4,0.1,1,0.3,1.2,0.4c0.3,0.2,0.6,0.7,0.8,1c0.3,0.5,0.3,1.2,0.3,3.2c0,2-0.1,2.7-0.3,3.2
			c-0.2,0.4-0.6,0.8-0.9,1.1c-0.4,0.3-0.8,0.4-1.5,0.4c-0.6,0-1.1-0.1-1.5-0.4c-0.3-0.2-0.7-0.6-0.8-1c-0.2-0.4-0.3-1.3-0.4-2.9
			c0-1.5,0-2.7,0.2-3.1c0.1-0.4,0.3-0.9,0.4-1.1c0.1-0.2,0.5-0.5,0.9-0.6C4388.6,41.5,4389.3,41.5,4389.7,41.5L4389.7,41.5z"/>
		<path class="st2" d="M4428.7,32.9c1.9,0.1,2.7,0.1,3.6,0.5c0.7,0.2,1.7,0.7,2.4,1.1c0.7,0.4,1.8,1.1,2.4,1.8
			c0.7,0.6,1.6,1.6,2,2.2c0.4,0.6,1,1.6,1.3,2.2c0.3,0.6,0.6,1.6,0.8,2.4c0.2,0.8,0.3,2,0.3,3.1c0,1-0.1,2.2-0.2,2.7
			c-0.1,0.5-0.4,1.5-0.7,2.1c-0.2,0.7-0.8,1.7-1.2,2.4c-0.4,0.7-1.3,1.7-1.9,2.3c-0.6,0.6-1.6,1.4-2.2,1.7c-0.6,0.4-1.6,0.9-2.3,1.2
			c-0.7,0.3-1.7,0.6-2.3,0.7c-0.6,0.1-1.8,0.2-2.8,0.2c-1,0-2.3-0.1-3.1-0.4c-0.8-0.2-2-0.7-2.8-1c-0.7-0.4-1.8-1.1-2.4-1.6
			c-0.6-0.5-1.5-1.3-2-2c-0.5-0.6-1.2-1.6-1.5-2.3c-0.4-0.7-0.8-1.9-1-2.8c-0.3-1-0.4-2.1-0.4-3.2c0-1,0.1-2.3,0.3-3.1
			c0.1-0.7,0.6-2,1-2.9s1.2-2,1.6-2.6c0.5-0.6,1.4-1.5,2-2c0.6-0.5,1.7-1.2,2.4-1.5c0.7-0.4,1.9-0.8,2.6-1
			C4426,32.9,4426.7,32.9,4428.7,32.9z"/>
	</g>
	<g>
		<path class="st1" d="M4337,0h28.5v20.2c0,3.8-3.1,6.8-6.8,6.8H4337V0z"/>
		<g>
			<path class="st0" d="M4351,20.6h-9.5v-2l3.4-3.4c0.7-0.7,1.2-1.3,1.7-1.8s0.7-0.9,0.9-1.3c0.2-0.4,0.3-0.8,0.3-1.2
				c0-0.5-0.1-0.9-0.4-1.2s-0.7-0.4-1.2-0.4c-0.5,0-1,0.1-1.5,0.4s-1,0.6-1.6,1l-1.6-1.8c0.4-0.3,0.8-0.6,1.2-0.9
				c0.4-0.3,1-0.5,1.5-0.7s1.3-0.3,2.1-0.3c0.9,0,1.6,0.2,2.3,0.5c0.6,0.3,1.1,0.8,1.5,1.3c0.3,0.6,0.5,1.2,0.5,1.9
				c0,0.7-0.1,1.4-0.4,2.1c-0.3,0.6-0.7,1.2-1.3,1.8s-1.2,1.3-2,2l-1.7,1.6v0.1h5.9V20.6z"/>
			<path class="st0" d="M4361.9,12.8c0,0.8-0.1,1.5-0.2,2.3c-0.1,0.8-0.3,1.5-0.6,2.2c-0.3,0.7-0.7,1.3-1.2,1.8
				c-0.5,0.5-1.2,0.9-2,1.2c-0.8,0.3-1.8,0.4-2.9,0.4c-0.3,0-0.6,0-0.9,0s-0.7-0.1-0.9-0.1v-2.3c0.3,0.1,0.5,0.1,0.8,0.1
				c0.3,0,0.6,0.1,0.8,0.1c1.1,0,2-0.2,2.6-0.5c0.6-0.4,1-0.9,1.3-1.5c0.3-0.6,0.4-1.4,0.4-2.2h-0.1c-0.3,0.4-0.6,0.8-1.1,1.1
				c-0.4,0.3-1.1,0.5-1.9,0.5c-1.2,0-2.1-0.4-2.8-1.1c-0.7-0.7-1-1.8-1-3.2c0-1.5,0.4-2.6,1.2-3.5c0.8-0.8,2-1.3,3.4-1.3
				c0.9,0,1.8,0.2,2.5,0.6c0.7,0.4,1.3,1.1,1.8,2S4361.9,11.5,4361.9,12.8z M4356.9,9.2c-0.6,0-1,0.2-1.4,0.6s-0.5,1-0.5,1.8
				c0,0.7,0.2,1.2,0.5,1.6c0.3,0.4,0.8,0.6,1.4,0.6c0.4,0,0.8-0.1,1.1-0.3c0.3-0.2,0.6-0.4,0.7-0.7c0.2-0.3,0.3-0.6,0.3-0.9
				c0-0.4-0.1-0.8-0.2-1.2c-0.2-0.4-0.4-0.7-0.7-1S4357.4,9.2,4356.9,9.2z"/>
		</g>
	</g>
	<text transform="matrix(1 0 0 1 4342.0742 -9.9195)" class="st8 st9">29</text>
</g>
<g id="_x30_1">
	<rect x="154.7" y="0" class="st0" width="135.6" height="135.4"/>
	<g>
		<g>
			<g>
				<path class="st1" d="M192.7,110.4c-1.7,0-3.4-0.7-4.4-2c-1-1.2-1.4-2.6-1.2-4.1l1.3-8c2.5-15.7,8.8-30.9,18.4-44l3.7-5
					c1-1.4,2.8-2.3,4.7-2.3l7.5,0l7.5,0c1.9,0,3.6,0.9,4.7,2.3l3.6,5c9.6,13.1,15.9,28.3,18.4,44l1.3,8c0.2,1.5-0.2,2.9-1.2,4.1
					c-1.1,1.3-2.7,2-4.4,2H192.7z"/>
				<path class="st0" d="M222.5,45.3l7.5,0c1.8,0,3.5,0.8,4.5,2.2l3.7,5c9.6,13.2,15.9,28.1,18.3,43.9l1.3,8
					c0.5,3.1-2.1,5.8-5.4,5.8h-59.6c-3.3,0-5.9-2.8-5.4-5.8l1.3-8c2.5-15.7,8.7-30.7,18.3-43.9l3.6-5c1-1.4,2.7-2.2,4.5-2.2
					L222.5,45.3 M222.5,44.9L222.5,44.9l-7.5,0c-1.9,0-3.7,0.9-4.8,2.4l-3.7,5c-9.6,13.1-15.9,28.4-18.4,44l-1.3,8
					c-0.2,1.5,0.2,3,1.2,4.2c1.1,1.3,2.8,2.1,4.6,2.1h59.6c1.8,0,3.5-0.8,4.6-2.1c1-1.2,1.5-2.7,1.2-4.2l-1.3-8
					c-2.5-15.7-8.8-30.9-18.4-44l-3.6-5c-1.1-1.5-2.9-2.4-4.8-2.4L222.5,44.9L222.5,44.9L222.5,44.9z"/>
			</g>
			<path class="st3" d="M215.4,24.7c0.7,2.7,5.2,8.1,6.6,8.1s6.4-5.4,7.1-8.1l0,0c-0.9,1.9,1.4,5.1,2.4,5.7c1.3,0.8,4.6,1.6,7,0.1
				l0,0c-1.1,2-0.2,4.5,0.7,5.4c1.1,1.1,6.9,2.7,9.4,0.9l0,0l-16.7,9.6l-10.1,0.2l-10.1-0.2L195,36.9l0,0c2.7,1.9,7.8-0.1,8.9-1.2
				c0.9-1,3.7-3.9,2.5-6.1l0,0c2.5,1.6,5.3,1.4,6.7,0.7C214.6,29.6,216.4,26.7,215.4,24.7"/>
			<rect x="209.7" y="45.3" class="st4" width="25" height="2.7"/>
			<path class="st4" d="M221.7,63.9h0.6c1.1,0,2,0.9,2,2l0,0c0,1.1-0.9,2-2,2h-0.6c-1.1,0-2-0.9-2-2l0,0
				C219.7,64.8,220.6,63.9,221.7,63.9z"/>
			<path class="st4" d="M222,89.5h0.7c1.1,0,2,0.9,2,2v1.6c0,1.1-0.9,2-2,2H222c-1.1,0-2-0.9-2-2v-1.6C220,90.4,220.9,89.5,222,89.5
				z"/>
			<path class="st4" d="M216.8,84.8c0.8,0,1.4,0.4,1.8,1.1c0.7,1.3,2,2.1,3.9,2.1c2.9,0,3.8-1.4,3.8-2.9c0-1.9-1-2.8-4.6-3.8
				c-6.5-1.9-8.4-4.3-8.4-7.9c0-4.7,4.1-7.2,8.7-7.2c4.6,0,7.2,1.8,8.4,4c0.7,1.3-0.3,2.8-1.8,2.8H227c-0.7,0-1.4-0.4-1.8-1.1
				c-0.4-0.9-1.3-1.7-3.4-1.7c-2.5,0-3.2,1.5-3.2,2.6c0,1.7,0.9,2.4,5,3.6c5.8,1.6,7.9,3.9,7.9,8c0,5.1-3.9,7.6-9.4,7.6
				c-4.5,0-7.5-1.7-8.8-4.5c-0.6-1.3,0.3-2.8,1.8-2.8H216.8L216.8,84.8z"/>
		</g>
		<rect x="213.2" y="48" class="st4" width="4.2" height="8.8"/>
	</g>
	<g>
		<path class="st1" d="M154.9,0h28.5v20.2c0,3.8-3.1,6.8-6.8,6.8h-21.6V0z"/>
		<g>
			<path class="st0" d="M168.7,14c0,1.5-0.2,2.7-0.5,3.7s-0.8,1.8-1.5,2.4c-0.7,0.6-1.6,0.8-2.8,0.8c-1.6,0-2.8-0.6-3.6-1.8
				s-1.1-2.9-1.1-5.1c0-1.5,0.2-2.7,0.5-3.8c0.3-1,0.8-1.8,1.5-2.4c0.7-0.6,1.6-0.8,2.8-0.8c1.6,0,2.8,0.6,3.6,1.8
				C168.3,10.1,168.7,11.8,168.7,14z M162,14c0,1.5,0.1,2.7,0.4,3.5c0.3,0.8,0.8,1.2,1.5,1.2c0.7,0,1.2-0.4,1.5-1.2
				c0.3-0.8,0.4-1.9,0.4-3.5c0-1.5-0.1-2.7-0.4-3.5c-0.3-0.8-0.8-1.2-1.5-1.2c-0.7,0-1.2,0.4-1.5,1.2C162.2,11.3,162,12.5,162,14z"
				/>
			<path class="st0" d="M177.2,20.8h-2.9V13c0-0.3,0-0.7,0-1.3s0-1,0.1-1.4c-0.1,0.1-0.2,0.2-0.4,0.4c-0.2,0.2-0.4,0.4-0.6,0.5
				l-1.6,1.3l-1.4-1.7l4.4-3.5h2.4V20.8z"/>
		</g>
		<text transform="matrix(1 0 0 1 158.9453 -5.5318)" class="st8 st9">01</text>
	</g>
</g>
<g id="_x30_0">
	<g>
		<path class="st0" d="M0,0h134.8c0.1,0,0.2,0.1,0.2,0.2v134.7c0,0.1-0.1,0.2-0.2,0.2H0c-0.1,0-0.2-0.1-0.2-0.2V0.2
			C-0.2,0.1-0.1,0,0,0z"/>
	</g>
	<g>
		<g>
			<g>
				<path class="st1" d="M74.1,107.4l-24.6-0.8c-3.4-0.1-6.4-2.2-7.6-5.4l-4.7-12.4l6.5-11.7l12-14.7l19.8,11.2l7.2,19.6V99
					c0,2.3-0.9,4.4-2.5,6c-1.6,1.6-3.7,2.5-5.9,2.5L74.1,107.4L74.1,107.4z"/>
				<path class="st0" d="M55.8,62.7l19.6,11.1l7.2,19.6V99c0,4.6-3.7,8.2-8.2,8.2c-0.1,0-0.2,0-0.3,0l-24.6-0.8
					c-3.3-0.1-6.3-2.2-7.4-5.3l-4.7-12.3l6.5-11.6L55.8,62.7 M55.7,62.1l-0.2,0.3L43.6,76.9l0,0l0,0l-6.5,11.6L37,88.7l0.1,0.2
					l4.7,12.3c1.2,3.3,4.3,5.5,7.8,5.6l24.6,0.8c0.1,0,0.2,0,0.3,0c4.8,0,8.6-3.9,8.6-8.7v-5.7l0-0.1l-7.2-19.6l-0.1-0.2l-0.1-0.1
					L56,62.3L55.7,62.1L55.7,62.1L55.7,62.1z"/>
			</g>
			<g>
				<path class="st1" d="M47.7,87.6c-2.9,0-5.2-2.3-5.2-5.2V41.1c0-2.9,2.3-5.2,5.2-5.2s5.2,2.3,5.2,5.2v41.3
					C52.9,85.3,50.6,87.6,47.7,87.6z"/>
				<path class="st0" d="M47.7,36.1c2.8,0,5,2.2,5,5v41.3c0,2.8-2.2,5-5,5s-5-2.2-5-5V41.1C42.7,38.3,45,36.1,47.7,36.1 M47.7,35.7
					c-3,0-5.4,2.4-5.4,5.4v41.3c0,3,2.4,5.4,5.4,5.4s5.4-2.4,5.4-5.4V41.1C53.1,38.1,50.7,35.7,47.7,35.7
					C47.7,35.7,47.7,35.7,47.7,35.7z"/>
			</g>
			<g>
				<path class="st1" d="M57.7,79.5c-2.9,0-5.2-2.3-5.2-5.2V33c0-2.9,2.3-5.2,5.2-5.2s5.2,2.3,5.2,5.2v41.3
					C62.9,77.1,60.5,79.5,57.7,79.5z"/>
				<path class="st0" d="M57.7,28c2.8,0,5,2.2,5,5v41.3c0,2.8-2.2,5-5,5s-5-2.2-5-5V33C52.7,30.2,54.9,28,57.7,28 M57.7,27.6
					c-3,0-5.4,2.4-5.4,5.4v41.3c0,3,2.4,5.4,5.4,5.4s5.4-2.4,5.4-5.4V33C63.1,30,60.7,27.6,57.7,27.6L57.7,27.6z"/>
			</g>
			<g>
				<path class="st1" d="M67.6,85.2c-2.9,0-5.2-2.3-5.2-5.2V38.7c0-2.9,2.3-5.2,5.2-5.2s5.2,2.3,5.2,5.2V80
					C72.8,82.8,70.5,85.2,67.6,85.2L67.6,85.2z"/>
				<path class="st0" d="M67.6,33.7c2.8,0,5,2.2,5,5V80c0,2.8-2.2,5-5,5s-5-2.2-5-5V38.7C62.7,35.9,64.9,33.7,67.6,33.7 M67.6,33.3
					c-3,0-5.4,2.4-5.4,5.4V80c0,3,2.4,5.4,5.4,5.4S73,82.9,73,80V38.7C73,35.7,70.6,33.3,67.6,33.3L67.6,33.3z"/>
			</g>
			<g>
				<path class="st1" d="M77.6,98.6c-2.9,0-5.2-2.3-5.2-5.2V52.1c0-2.9,2.3-5.2,5.2-5.2s5.2,2.3,5.2,5.2v41.3
					C82.8,96.2,80.5,98.6,77.6,98.6z"/>
				<path class="st0" d="M77.6,47.1c2.8,0,5,2.2,5,5v41.3c0,2.8-2.2,5-5,5s-5-2.2-5-5V52.1C72.6,49.3,74.9,47.1,77.6,47.1
					 M77.6,46.7c-3,0-5.4,2.4-5.4,5.4v41.3c0,3,2.4,5.4,5.4,5.4s5.4-2.4,5.4-5.4V52.1C83,49.1,80.6,46.7,77.6,46.7
					C77.6,46.7,77.6,46.7,77.6,46.7z"/>
			</g>
			<g>
				<path class="st1" d="M44.5,96.5c-2.5,0-4.7-1.5-5.6-3.7l-9.3-22.3c-0.6-1.5-0.6-3.2,0-4.7c0.6-1.5,1.8-2.7,3.3-3.3
					c0.8-0.3,1.5-0.5,2.3-0.5c2.5,0,4.7,1.5,5.6,3.7l9.3,22.3c1.3,3.1-0.2,6.7-3.3,7.9C46.1,96.3,45.3,96.5,44.5,96.5z"/>
				<path class="st0" d="M35.2,62.3c2.3,0,4.5,1.4,5.4,3.6l9.3,22.3c1.3,3-0.2,6.4-3.2,7.7c-0.7,0.3-1.5,0.4-2.3,0.4
					c-2.3,0-4.5-1.4-5.4-3.6l-9.3-22.3c-1.3-3,0.2-6.4,3.2-7.7C33.7,62.4,34.4,62.3,35.2,62.3 M35.2,61.8L35.2,61.8
					c-0.8,0-1.6,0.2-2.4,0.5c-3.2,1.3-4.7,5-3.4,8.2l9.3,22.3c1,2.3,3.3,3.9,5.8,3.9c0.8,0,1.6-0.2,2.4-0.5c3.2-1.3,4.7-5,3.4-8.2
					L41,65.7C40,63.4,37.7,61.8,35.2,61.8C35.2,61.8,35.2,61.8,35.2,61.8z"/>
			</g>
			<path class="st1" d="M37.4,88.8l4.7,12.3c1.2,3.1,4.1,5.2,7.4,5.3l24.6,0.8c4.6,0.1,8.5-3.6,8.5-8.2v-5.6l-7.2-19.6L55.8,62.7
				L45.5,77.1C45.5,77.1,37.4,88.8,37.4,88.8z"/>
			<rect x="49.8" y="66.1" class="st1" width="25.5" height="19.5"/>
			<line class="st5" x1="50.4" y1="66.1" x2="75" y2="66.1"/>
			<path class="st5" d="M45.5,77.1H46c9.1,0,16.4,7.3,16.4,16.4l0,0"/>
		</g>
		<g>
			<path class="st0" d="M89.3,93.3c-0.6-3.5-2.2-6.7-4.7-9.3c-2.5-2.6-5.8-4.2-9.3-4.7c3.5-0.6,6.7-2.2,9.3-4.7
				c2.6-2.6,4.2-5.8,4.7-9.3c1.2,7.2,6.8,12.8,14,14c-3.5,0.6-6.7,2.2-9.3,4.7C91.5,86.6,89.9,89.8,89.3,93.3L89.3,93.3z"/>
			<path class="st1" d="M89.3,66.4c1.5,6.4,6.5,11.4,12.9,12.9c-3.1,0.7-6,2.3-8.3,4.6c-2.3,2.3-3.9,5.2-4.6,8.3
				c-0.7-3.1-2.3-6-4.6-8.3c-2.3-2.3-5.2-3.9-8.3-4.6c3.1-0.7,6-2.3,8.3-4.6C87,72.4,88.6,69.5,89.3,66.4 M89.3,62.6
				c0,4.6-1.9,8.8-4.9,11.8s-7.2,4.9-11.8,4.9c4.6,0,8.8,1.9,11.8,4.9c3,3,4.9,7.2,4.9,11.8c0-4.6,1.9-8.8,4.9-11.8
				s7.2-4.9,11.8-4.9C96.8,79.3,89.3,71.8,89.3,62.6L89.3,62.6L89.3,62.6z"/>
		</g>
		<g>
			<path class="st0" d="M100.1,66.9c-0.2-0.8-0.7-1.5-1.3-2.1s-1.3-1-2.1-1.3c0.8-0.2,1.5-0.7,2.1-1.3c0.6-0.6,1-1.3,1.3-2.1
				c0.5,1.6,1.8,2.9,3.4,3.4c-0.8,0.2-1.5,0.7-2.1,1.3C100.7,65.4,100.3,66.1,100.1,66.9z"/>
			<path class="st1" d="M100.1,60.7c0.5,1.2,1.5,2.2,2.8,2.8c-0.6,0.3-1.2,0.6-1.7,1.1c-0.5,0.5-0.9,1-1.1,1.7
				c-0.3-0.6-0.6-1.2-1.1-1.7s-1-0.9-1.7-1.1c0.6-0.3,1.2-0.6,1.7-1.1S99.8,61.3,100.1,60.7 M100.1,58.7c0,1.3-0.5,2.5-1.4,3.4
				s-2.1,1.4-3.4,1.4c1.3,0,2.6,0.5,3.4,1.4s1.4,2.1,1.4,3.4c0-1.3,0.5-2.6,1.4-3.4c0.9-0.9,2.1-1.4,3.4-1.4
				C102.2,63.5,100.1,61.3,100.1,58.7L100.1,58.7L100.1,58.7z"/>
		</g>
		<g>
			<path class="st0" d="M92.4,55.8c-0.1-0.2-0.2-0.4-0.4-0.6c-0.2-0.2-0.4-0.3-0.6-0.4c0.2-0.1,0.4-0.2,0.6-0.4
				c0.2-0.2,0.3-0.4,0.4-0.6c0.2,0.4,0.6,0.8,1,1c-0.2,0.1-0.4,0.2-0.6,0.4C92.6,55.4,92.5,55.6,92.4,55.8L92.4,55.8z"/>
			<path class="st1" d="M92.4,54.2c0.2,0.2,0.3,0.4,0.6,0.5c-0.1,0.1-0.2,0.2-0.3,0.3c-0.1,0.1-0.2,0.2-0.3,0.3
				c-0.1-0.1-0.2-0.2-0.3-0.3s-0.2-0.2-0.3-0.3c0.1-0.1,0.2-0.2,0.3-0.3C92.2,54.5,92.3,54.4,92.4,54.2 M92.4,52.9
				c0,0.5-0.2,1-0.6,1.3c-0.3,0.3-0.8,0.5-1.3,0.5c0.5,0,1,0.2,1.3,0.5c0.3,0.3,0.6,0.8,0.6,1.3c0-0.5,0.2-1,0.6-1.3
				s0.8-0.5,1.3-0.5C93.2,54.8,92.4,54,92.4,52.9L92.4,52.9L92.4,52.9z"/>
		</g>
	</g>
	<g>
		<rect x="86" y="-0.1" class="st6" width="48.9" height="21.1"/>
		<g class="st7">
			<path class="st1" d="M88.6,12l1.2-0.1c0.1,0.5,0.2,0.8,0.4,1.1c0.2,0.3,0.5,0.5,0.9,0.7c0.4,0.2,0.9,0.3,1.4,0.3
				c0.5,0,0.9-0.1,1.2-0.2c0.4-0.1,0.6-0.3,0.8-0.6s0.3-0.5,0.3-0.8c0-0.3-0.1-0.5-0.3-0.8c-0.2-0.2-0.4-0.4-0.8-0.5
				c-0.3-0.1-0.8-0.2-1.7-0.5c-0.9-0.2-1.5-0.4-1.8-0.6c-0.4-0.2-0.8-0.5-1-0.9c-0.2-0.3-0.3-0.7-0.3-1.2c0-0.5,0.1-0.9,0.4-1.3
				S90,6,90.5,5.8c0.5-0.2,1.1-0.3,1.7-0.3c0.7,0,1.3,0.1,1.8,0.3c0.5,0.2,0.9,0.5,1.2,1c0.3,0.4,0.4,0.9,0.5,1.5l-1.2,0.1
				c-0.1-0.6-0.3-1-0.6-1.3c-0.4-0.3-0.9-0.5-1.6-0.5c-0.7,0-1.3,0.1-1.6,0.4c-0.3,0.3-0.5,0.6-0.5,1c0,0.3,0.1,0.6,0.4,0.8
				c0.2,0.2,0.9,0.4,1.9,0.7s1.7,0.4,2.1,0.6c0.5,0.3,0.9,0.6,1.2,0.9c0.3,0.4,0.4,0.8,0.4,1.3c0,0.5-0.1,1-0.4,1.4
				c-0.3,0.4-0.7,0.8-1.2,1c-0.5,0.2-1.1,0.4-1.8,0.4c-0.8,0-1.5-0.1-2.1-0.4c-0.6-0.2-1-0.6-1.3-1.1C88.8,13.2,88.6,12.6,88.6,12z"
				/>
			<path class="st1" d="M100,15V6.8H97V5.7h7.4v1.1h-3.1V15H100z"/>
			<path class="st1" d="M103.6,15l3.6-9.3h1.3l3.8,9.3h-1.4l-1.1-2.8H106l-1,2.8H103.6z M106.3,11.1h3.2l-1-2.6
				c-0.3-0.8-0.5-1.4-0.7-1.9c-0.1,0.6-0.3,1.2-0.5,1.8L106.3,11.1z"/>
			<path class="st1" d="M113.3,15V5.7h4.1c0.8,0,1.5,0.1,1.9,0.3s0.8,0.5,1,0.9c0.3,0.4,0.4,0.9,0.4,1.4c0,0.7-0.2,1.2-0.6,1.7
				c-0.4,0.5-1.1,0.7-2,0.9c0.3,0.2,0.6,0.3,0.7,0.5c0.4,0.3,0.7,0.7,1,1.2l1.6,2.5H120l-1.2-1.9c-0.4-0.6-0.7-1-0.9-1.3
				c-0.2-0.3-0.4-0.5-0.6-0.6c-0.2-0.1-0.4-0.2-0.6-0.2c-0.1,0-0.4,0-0.7,0h-1.4V15H113.3z M114.6,9.8h2.6c0.6,0,1-0.1,1.3-0.2
				s0.6-0.3,0.7-0.6s0.2-0.5,0.2-0.8c0-0.4-0.2-0.8-0.5-1.1c-0.3-0.3-0.8-0.4-1.5-0.4h-2.9V9.8z"/>
			<path class="st1" d="M124.8,15V6.8h-3.1V5.7h7.4v1.1h-3.1V15H124.8z"/>
			<path class="st1" d="M130.9,12.7l-0.3-4.9V5.7h1.4v2.1l-0.3,4.9H130.9z M130.6,15v-1.3h1.3V15H130.6z"/>
		</g>
		<text transform="matrix(1 0 0 1 88.4547 -8.4934)" class="st1" style="font-family:'ArialMT'; font-size:13px;">START!</text>
	</g>
	<g>
		<path class="st1" d="M-0.1,0h28.5v20.2c0,3.8-3.1,6.8-6.8,6.8H-0.1V0z"/>
		<g>
			<path class="st0" d="M13.7,13.9c0,1.5-0.2,2.7-0.5,3.7s-0.8,1.8-1.5,2.4c-0.7,0.6-1.6,0.8-2.8,0.8c-1.6,0-2.8-0.6-3.6-1.8
				s-1.1-2.9-1.1-5.1c0-1.5,0.2-2.7,0.5-3.8c0.3-1,0.8-1.8,1.5-2.4c0.7-0.6,1.6-0.8,2.8-0.8c1.6,0,2.8,0.6,3.6,1.8
				C13.3,10,13.7,11.7,13.7,13.9z M7.1,13.9c0,1.5,0.1,2.7,0.4,3.5c0.3,0.8,0.8,1.2,1.5,1.2c0.7,0,1.2-0.4,1.5-1.2
				c0.3-0.8,0.4-1.9,0.4-3.5c0-1.5-0.1-2.7-0.4-3.5c-0.3-0.8-0.8-1.2-1.5-1.2c-0.7,0-1.2,0.4-1.5,1.2C7.2,11.2,7.1,12.3,7.1,13.9z"
				/>
			<path class="st0" d="M24.6,13.9c0,1.5-0.2,2.7-0.5,3.7s-0.8,1.8-1.5,2.4c-0.7,0.6-1.6,0.8-2.8,0.8c-1.6,0-2.8-0.6-3.6-1.8
				s-1.1-2.9-1.1-5.1c0-1.5,0.2-2.7,0.5-3.8c0.3-1,0.8-1.8,1.5-2.4c0.7-0.6,1.6-0.8,2.8-0.8c1.6,0,2.8,0.6,3.6,1.8
				C24.2,10,24.6,11.7,24.6,13.9z M17.9,13.9c0,1.5,0.1,2.7,0.4,3.5c0.3,0.8,0.8,1.2,1.5,1.2c0.7,0,1.2-0.4,1.5-1.2
				c0.3-0.8,0.4-1.9,0.4-3.5c0-1.5-0.1-2.7-0.4-3.5c-0.3-0.8-0.8-1.2-1.5-1.2c-0.7,0-1.2,0.4-1.5,1.2C18.1,11.2,17.9,12.3,17.9,13.9
				z"/>
		</g>
		<text transform="matrix(1 0 0 1 3.978 -5.5704)" class="st8 st9">00</text>
	</g>
</g>
<g id="_x30_2">
	<path class="st0" d="M309.9-0.3h134.6c0.1,0,0.2,0.1,0.2,0.2v134.9c0,0.1-0.1,0.2-0.2,0.2H309.9c-0.1,0-0.2-0.1-0.2-0.2V-0.1
		C309.7-0.2,309.8-0.3,309.9-0.3z"/>
	<g class="st7">
		<path class="st1" d="M339,99.7V35.8h8.5v56.3h31.5v7.5H339z"/>
		<path class="st1" d="M415.3,99.7h-7.8v-50c-1.9,1.8-4.4,3.6-7.4,5.4c-3.1,1.8-5.8,3.2-8.3,4.1v-7.6c4.4-2.1,8.2-4.6,11.5-7.5
			c3.3-2.9,5.6-5.8,7-8.5h5.1V99.7z"/>
	</g>
	<text transform="matrix(1 0 0 1 328.8983 -17.38)" class="st1" style="font-family:'ArialMT'; font-size:92px;">L1</text>
	<g>
		<path class="st1" d="M309.7-0.1h28.5v20.2c0,3.8-3.1,6.8-6.8,6.8h-21.6V-0.1z"/>
		<g>
			<path class="st0" d="M323.5,14.1c0,1.5-0.2,2.7-0.5,3.7s-0.8,1.8-1.5,2.4c-0.7,0.6-1.6,0.8-2.8,0.8c-1.6,0-2.8-0.6-3.6-1.8
				s-1.1-2.9-1.1-5.1c0-1.5,0.2-2.7,0.5-3.8c0.3-1,0.8-1.8,1.5-2.4c0.7-0.6,1.6-0.8,2.8-0.8c1.6,0,2.8,0.6,3.6,1.8
				C323.2,10.1,323.5,11.9,323.5,14.1z M316.9,14.1c0,1.5,0.1,2.7,0.4,3.5c0.3,0.8,0.8,1.2,1.5,1.2c0.7,0,1.2-0.4,1.5-1.2
				c0.3-0.8,0.4-1.9,0.4-3.5c0-1.5-0.1-2.7-0.4-3.5c-0.3-0.8-0.8-1.2-1.5-1.2c-0.7,0-1.2,0.4-1.5,1.2
				C317.1,11.4,316.9,12.5,316.9,14.1z"/>
			<path class="st0" d="M334.5,20.8H325v-2l3.4-3.4c0.7-0.7,1.2-1.3,1.7-1.8s0.7-0.9,0.9-1.3s0.3-0.8,0.3-1.2c0-0.5-0.1-0.9-0.4-1.2
				c-0.3-0.3-0.7-0.4-1.2-0.4c-0.5,0-1,0.1-1.5,0.4s-1,0.6-1.6,1L325,9c0.4-0.3,0.8-0.6,1.2-0.9c0.4-0.3,1-0.5,1.5-0.7
				s1.3-0.3,2.1-0.3c0.9,0,1.6,0.2,2.3,0.5c0.6,0.3,1.1,0.8,1.5,1.3c0.3,0.6,0.5,1.2,0.5,1.9c0,0.7-0.1,1.4-0.4,2.1
				c-0.3,0.6-0.7,1.2-1.3,1.8c-0.6,0.6-1.2,1.3-2,2l-1.7,1.6v0.1h5.9V20.8z"/>
		</g>
		<text transform="matrix(1 0 0 1 313.8079 -5.5759)" class="st8 st9">02</text>
	</g>
</g>
<g id="_x30_3">
	<rect x="464.4" y="-0.1" class="st0" width="135.2" height="135"/>
	<g>
		<ellipse class="st10" cx="531.9" cy="67.4" rx="43.7" ry="43.7"/>
		<ellipse class="st11" cx="531.9" cy="67.4" rx="41.2" ry="41.1"/>
		<ellipse class="st12" cx="531.9" cy="67.4" rx="35" ry="35"/>
		<path class="st0" d="M541.8,54l0.8,6.4l-1.2,0.1c-0.6-5.1-1.6-5.9-4.7-5.9h-6.2c-1.3,0-2,0.6-2,1.7v10.2h5.3
			c2.5,0,3.3-0.6,3.3-4.4h1v10h-1c0-3.8-0.7-4.3-3.3-4.3h-5.3v10.9c0,1.7,0.3,2.1,2,2.1h6.1c3.2,0,4.5-1.1,6.2-6.7l1.2,0.3l-2.1,7
			l-0.3,1.1H519v-0.9c4,0,4.6-0.7,4.6-2.9v-22c0-2.3-0.6-2.9-4.6-2.9v-0.9h22.6L541.8,54L541.8,54z"/>
		<ellipse class="st0" cx="531.3" cy="43.2" rx="3.2" ry="3.2"/>
		<ellipse class="st0" cx="531.3" cy="94" rx="3.2" ry="3.2"/>
		<g>
			<path class="st0" d="M561.8,51.5c-0.5-2.8-1.9-5.3-3.9-7.3c-2-2-4.6-3.4-7.4-3.9c2.8-0.5,5.3-1.9,7.4-3.9c2-2,3.4-4.6,3.9-7.3
				c1.1,5.7,5.6,10.2,11.3,11.3c-2.8,0.5-5.3,1.9-7.4,3.9C563.7,46.2,562.4,48.7,561.8,51.5z"/>
			<path class="st1" d="M561.8,30.1c1.3,4.9,5.2,8.8,10.1,10.1c-2.4,0.7-4.6,1.9-6.4,3.7c-1.8,1.8-3.1,4-3.7,6.4
				c-0.7-2.4-1.9-4.6-3.7-6.4c-1.8-1.8-4-3.1-6.4-3.7c2.4-0.7,4.6-1.9,6.4-3.7C559.9,34.7,561.2,32.5,561.8,30.1 M561.8,26.2
				c0,3.8-1.6,7.3-4.1,9.9c-2.5,2.5-6,4.1-9.9,4.1c3.9,0,7.4,1.6,9.9,4.1c2.5,2.5,4.1,6,4.1,9.9c0-3.9,1.6-7.3,4.1-9.9
				c2.5-2.5,6-4.1,9.9-4.1C568.1,40.2,561.9,34,561.8,26.2L561.8,26.2L561.8,26.2z"/>
		</g>
	</g>
	<g>
		<path class="st1" d="M464.6,0h28.5v20.2c0,3.8-3.1,6.8-6.8,6.8h-21.6V0z"/>
		<text transform="matrix(1 0 0 1 468.697 -5.54)" class="st0 st8 st9">03</text>
		<g>
			<path class="st0" d="M478.4,14.2c0,1.5-0.2,2.7-0.5,3.7s-0.8,1.8-1.5,2.4c-0.7,0.6-1.6,0.8-2.8,0.8c-1.6,0-2.8-0.6-3.6-1.8
				s-1.1-2.9-1.1-5.1c0-1.5,0.2-2.7,0.5-3.8c0.3-1,0.8-1.8,1.5-2.4c0.7-0.6,1.6-0.8,2.8-0.8c1.6,0,2.8,0.6,3.6,1.8
				C478,10.3,478.4,12,478.4,14.2z M471.8,14.2c0,1.5,0.1,2.7,0.4,3.5c0.3,0.8,0.8,1.2,1.5,1.2c0.7,0,1.2-0.4,1.5-1.2
				c0.3-0.8,0.4-1.9,0.4-3.5c0-1.5-0.1-2.7-0.4-3.5c-0.3-0.8-0.8-1.2-1.5-1.2c-0.7,0-1.2,0.4-1.5,1.2
				C471.9,11.5,471.8,12.6,471.8,14.2z"/>
			<path class="st0" d="M488.8,10.4c0,0.9-0.3,1.7-0.8,2.2c-0.6,0.6-1.3,0.9-2.1,1.1v0.1c1.1,0.1,1.9,0.5,2.5,1
				c0.6,0.5,0.9,1.2,0.9,2.1c0,0.8-0.2,1.5-0.6,2.1s-1,1.1-1.8,1.5s-1.8,0.5-3.1,0.5c-1.5,0-2.8-0.2-3.9-0.7V18
				c0.6,0.3,1.2,0.5,1.8,0.7c0.6,0.2,1.2,0.2,1.8,0.2c1,0,1.7-0.2,2.2-0.5c0.4-0.4,0.6-0.9,0.6-1.5c0-0.4-0.1-0.7-0.3-1
				c-0.2-0.3-0.5-0.5-1-0.6c-0.5-0.1-1.1-0.2-2-0.2h-1v-2.2h1c0.8,0,1.5-0.1,1.9-0.2c0.4-0.2,0.7-0.4,0.9-0.6s0.2-0.6,0.2-0.9
				c0-0.5-0.1-0.9-0.4-1.1s-0.8-0.4-1.5-0.4c-0.6,0-1.2,0.1-1.7,0.3s-0.9,0.4-1.2,0.6l-1.3-2c0.5-0.4,1.2-0.7,1.9-1s1.6-0.4,2.6-0.4
				c1.4,0,2.5,0.3,3.3,0.8C488.4,8.6,488.8,9.4,488.8,10.4z"/>
		</g>
	</g>
</g>
</svg>
