<?xml version="1.0" encoding="UTF-8"?><svg xmlns="http://www.w3.org/2000/svg" viewBox="0 0 134.89 134.89"><defs><style>.d{fill:none;stroke-width:.42px;}.d,.e{stroke:#1d1d1b;}.d,.e,.f{stroke-miterlimit:10;}.g,.e{fill:#eddfd6;}.h,.i,.f,.j{fill:#1d1d1b;}.e,.i,.f{stroke-width:.42px;}.i{stroke-linecap:round;stroke-linejoin:round;}.i,.f{stroke:#eddfd6;}.j{font-family:Helvetica, Helvetica;font-size:11.07px;}</style></defs><g id="a"/><g id="b"><g id="c"><g><g><rect class="h" x=".21" y=".21" width="134.46" height="134.46"/><path class="g" d="M134.46,.42V134.46H.42V.42H134.46m.42-.42H0V134.89H134.89V0h0Z"/></g><g><rect class="e" x="39" y="24.84" width="55.18" height="87.21"/><rect class="e" x="40.42" y="26.6" width="52.11" height="85.44"/><rect class="e" x="44.95" y="31.71" width="43.05" height="80.33"/><ellipse class="f" cx="80.6" cy="73.27" rx="1.17" ry="1.72"/><polygon class="h" points="44.95 31.71 78.43 37.83 78.43 112.05 88 112.05 88 31.71 44.95 31.71"/><polygon class="h" points="44.95 112.05 85.17 103.52 85.17 112.05 44.95 112.05"/><circle class="d" cx="74.86" cy="72.3" r="1.91"/><rect class="h" x="73.76" y="73.72" width="5.87" height="24.69" rx="2.63" ry="2.63" transform="translate(53.43 -26.84) rotate(30.06)"/><rect class="h" x="62.9" y="85.25" width="5.87" height="18.05" rx="2.63" ry="2.63" transform="translate(-28.44 160.12) rotate(-90)"/><path class="h" d="M56.81,91.34h4.29v6.08c0,2.12-1.72,3.84-3.84,3.84h-.44v-9.92h0Z"/><line class="i" x1="61.35" y1="94.73" x2="61.35" y2="98.8"/></g><rect class="g" x=".18" y=".42" width="21.13" height="21.13"/><text class="j" transform="translate(4.88 15.21)"><tspan x="0" y="0">06</tspan></text></g></g></g></svg>