<?xml version="1.0" encoding="UTF-8"?><svg xmlns="http://www.w3.org/2000/svg" viewBox="0 0 134.89 134.89"><defs><style>.d{letter-spacing:-.02em;}.e,.f{fill:#eddfd6;}.g,.h,.i{fill:#1d1d1b;}.h{font-family:Helvetica-Bold, Helvetica;font-size:22.38px;stroke-linecap:round;stroke-width:.42px;}.h,.f{stroke:#1d1d1b;stroke-miterlimit:10;}.f{stroke-width:.42px;}.j{letter-spacing:0em;}.i{font-family:Helvetica, Helvetica;font-size:11.07px;}</style></defs><g id="a"/><g id="b"><g id="c"><g><rect class="g" x=".21" y=".21" width="134.46" height="134.46" rx=".21" ry=".21"/><path class="e" d="M134.46,.42V134.46H.42V.42H134.46m0-.42H.42c-.23,0-.42,.19-.42,.42V134.46c0,.23,.19,.42,.42,.42H134.46c.23,0,.42-.19,.42-.42V.42c0-.23-.19-.42-.42-.42h0Z"/></g><rect class="e" x=".42" y=".42" width="21.13" height="21.13"/><text class="i" transform="translate(5.12 15.21)"><tspan x="0" y="0">20</tspan></text><g><polygon class="f" points="88.13 24.58 52.62 24.58 27.51 49.69 27.51 85.2 52.62 110.3 88.13 110.3 113.24 85.2 113.24 49.69 88.13 24.58"/><g><polygon class="e" points="54.88 104.84 32.97 82.93 32.97 51.95 54.88 30.04 85.87 30.04 107.77 51.95 107.77 82.93 85.87 104.84 54.88 104.84"/><path class="g" d="M85.66,30.54l21.62,21.62v30.57l-21.62,21.62h-30.57l-21.62-21.62v-30.57l21.62-21.62h30.57m.41-1h-31.4l-22.2,22.2v31.4l22.2,22.2h31.4l22.2-22.2v-31.4l-22.2-22.2h0Z"/></g><text class="h" transform="translate(40.31 76.43)"><tspan x="0" y="0">S</tspan><tspan class="d" x="14.93" y="0">T</tspan><tspan class="j" x="28.2" y="0">O</tspan><tspan class="d" x="45.61" y="0">P</tspan></text></g></g></g></svg>