<?xml version="1.0" encoding="utf-8"?>
<!-- Generator: Adobe Illustrator 24.1.1, SVG Export Plug-In . SVG Version: 6.00 Build 0)  -->
<svg version="1.1" id="Capa_1" xmlns="http://www.w3.org/2000/svg" xmlns:xlink="http://www.w3.org/1999/xlink" x="0px" y="0px"
	 viewBox="0 0 134.9 134.9" style="enable-background:new 0 0 134.9 134.9;" xml:space="preserve">
<style type="text/css">
	.st0{fill:#1D1D1B;}
	.st1{fill:#EDDFD6;}
	.st2{fill:#222222;}
	.st3{fill:#EDDFD6;stroke:#1D1D1B;stroke-width:0.42;stroke-linecap:round;stroke-linejoin:round;}
	.st4{fill:#1D1D1B;stroke:#EDDFD6;stroke-width:0.42;stroke-miterlimit:10;}
	.st5{fill:none;stroke:#1D1D1B;stroke-width:0.42;stroke-miterlimit:10;}
	.st6{fill:#00AEEF;}
	.st7{enable-background:new    ;}
	.st8{fill:#EDDFD6;stroke:#1D1D1B;stroke-width:0.6437;stroke-miterlimit:10;}
	.st9{fill:#EDDFD6;stroke:#1D1D1B;stroke-width:0.6073;stroke-miterlimit:10;}
	.st10{fill:#EDDFD6;stroke:#1D1D1B;stroke-width:0.5101;stroke-miterlimit:10;}
	.st11{fill:#EDDFD6;stroke:#1D1D1B;stroke-width:0.42;stroke-miterlimit:10;}
	.st12{fill:#EDDFD6;stroke:#1D1D1B;stroke-width:0.6356;stroke-miterlimit:10;}
	.st13{fill:#EDDFD6;stroke:#1D1D1B;stroke-width:0.5996;stroke-miterlimit:10;}
	.st14{fill:#EDDFD6;stroke:#1D1D1B;stroke-width:0.5037;stroke-miterlimit:10;}
	.st15{fill:#EDDFD6;stroke:#1D1D1B;stroke-width:0.422;stroke-miterlimit:10;}
	.st16{fill:#1D1D1B;stroke:#EDDFD6;stroke-width:0.422;stroke-miterlimit:10;}
	.st17{fill:none;stroke:#1D1D1B;stroke-width:0.422;stroke-miterlimit:10;}
	.st18{fill:none;stroke:#EDDFD6;stroke-width:0.422;stroke-linecap:round;stroke-linejoin:round;}
	.st19{fill:none;stroke:#EDDFD6;stroke-width:17;stroke-miterlimit:10;}
	.st20{fill:#EDDFD6;stroke:#EDDFD6;stroke-width:0.42;stroke-miterlimit:10;}
	.st21{fill:#EDDFD6;stroke:#1D1D1B;stroke-width:0.4786;stroke-miterlimit:10;}
	.st22{fill:#1D1D1B;stroke:#EDDFD6;stroke-width:0.4786;stroke-miterlimit:10;}
	.st23{fill:none;stroke:#1D1D1B;stroke-width:0.4786;stroke-miterlimit:10;}
	.st24{fill:none;stroke:#EDDFD6;stroke-width:0.4786;stroke-miterlimit:10;}
	.st25{fill:none;stroke:#EDDFD6;stroke-width:0.9265;stroke-miterlimit:10;}
	.st26{fill:#1D1D1B;stroke:#EDDFD6;stroke-width:0.53;stroke-miterlimit:10;}
	.st27{fill:#1D1D1B;stroke:#EDDFD6;stroke-width:0.6436;stroke-miterlimit:10;}
	.st28{fill:#EDDFD6;stroke:#1D1D1B;stroke-width:0.6436;stroke-miterlimit:10;}
	.st29{fill:#EDDFD6;stroke:#1D1D1B;stroke-width:0.6072;stroke-miterlimit:10;}
	.st30{fill:#EDDFD6;stroke:#1D1D1B;stroke-width:0.51;stroke-miterlimit:10;}
	.st31{fill:none;stroke:#EDDFD6;stroke-width:10.3992;stroke-miterlimit:10;}
	.st32{fill:#1D1D1B;stroke:#1D1D1B;stroke-width:0.42;stroke-linecap:round;stroke-linejoin:round;}
	.st33{fill:none;stroke:#1D1D1B;stroke-width:0.42;stroke-linecap:round;stroke-miterlimit:10;}
	.st34{fill:#231F20;}
	.st35{fill:none;stroke:#231F20;stroke-width:0.3187;}
	.st36{font-family:'NotoSans-Bold';}
	.st37{font-size:19px;}
</style>
<g id="_x32_3">
	<rect x="-0.4" y="-0.4" class="st0" width="135.3" height="135.3"/>
	<g class="st7">
		<path class="st1" d="M30.3,86.7v-3.6c-1.8,2.8-4.5,4.2-8,4.2c-2.3,0-4.4-0.6-6.3-1.9s-3.4-3-4.4-5.3s-1.6-4.8-1.6-7.7
			c0-2.8,0.5-5.4,1.4-7.7c0.9-2.3,2.4-4.1,4.3-5.3c1.9-1.2,4-1.9,6.4-1.9c1.7,0,3.2,0.4,4.6,1.1c1.3,0.7,2.4,1.7,3.3,2.8V47.3h4.8
			v39.4H30.3z M15,72.5c0,3.7,0.8,6.4,2.3,8.2c1.5,1.8,3.4,2.7,5.5,2.7c2.1,0,3.9-0.9,5.4-2.6c1.5-1.7,2.2-4.4,2.2-7.9
			c0-3.9-0.8-6.8-2.3-8.6c-1.5-1.8-3.4-2.7-5.6-2.7c-2.1,0-3.9,0.9-5.4,2.6C15.7,65.9,15,68.7,15,72.5z"/>
		<path class="st1" d="M61.9,77.5l5,0.6c-0.8,2.9-2.2,5.2-4.4,6.8c-2.1,1.6-4.9,2.4-8.2,2.4c-4.2,0-7.5-1.3-9.9-3.9
			c-2.4-2.6-3.7-6.2-3.7-10.8c0-4.8,1.2-8.5,3.7-11.2c2.5-2.6,5.7-4,9.6-4c3.8,0,6.9,1.3,9.3,3.9c2.4,2.6,3.6,6.2,3.6,11
			c0,0.3,0,0.7,0,1.3H45.8c0.2,3.1,1.1,5.5,2.7,7.2c1.6,1.7,3.6,2.5,6,2.5c1.8,0,3.3-0.5,4.5-1.4C60.2,81.1,61.2,79.6,61.9,77.5z
			 M46,69.7H62c-0.2-2.4-0.8-4.2-1.8-5.4c-1.5-1.9-3.5-2.8-6-2.8c-2.2,0-4.1,0.7-5.6,2.2C47,65.2,46.2,67.2,46,69.7z"/>
		<path class="st1" d="M69.8,86.7l10.4-14.8l-9.6-13.7h6l4.4,6.7c0.8,1.3,1.5,2.3,2,3.2c0.8-1.2,1.5-2.2,2.2-3.1l4.8-6.7h5.8
			l-9.9,13.4l10.6,15.1h-5.9l-5.9-8.9l-1.6-2.4l-7.5,11.3H69.8z"/>
		<path class="st1" d="M124.5,82.1v4.6h-26c0-1.2,0.2-2.3,0.6-3.4c0.7-1.8,1.7-3.5,3.2-5.2c1.5-1.7,3.6-3.7,6.3-6
			c4.3-3.5,7.2-6.3,8.7-8.3c1.5-2,2.3-4,2.3-5.8c0-1.9-0.7-3.5-2.1-4.8c-1.4-1.3-3.2-2-5.4-2c-2.3,0-4.2,0.7-5.6,2.1
			s-2.1,3.3-2.1,5.8l-5-0.5c0.3-3.7,1.6-6.5,3.8-8.5c2.2-1.9,5.2-2.9,8.9-2.9c3.8,0,6.8,1,9,3.1c2.2,2.1,3.3,4.7,3.3,7.8
			c0,1.6-0.3,3.1-1,4.6c-0.6,1.5-1.7,3.1-3.2,4.8c-1.5,1.7-4,4-7.5,6.9c-2.9,2.4-4.8,4.1-5.6,5c-0.8,0.9-1.5,1.7-2,2.6H124.5z"/>
	</g>
	<g>
		<path class="st1" d="M-0.1-0.1h28.5v20.2c0,3.8-3.1,6.8-6.8,6.8H-0.1V-0.1z"/>
		<text transform="matrix(1 0 0 1 2.3971 -2.2321)" class="st0 st36 st37">23</text>
		<g>
			<path class="st0" d="M13.3,20.4H3.8v-2L7.2,15c0.7-0.7,1.2-1.3,1.7-1.8s0.7-0.9,0.9-1.3c0.2-0.4,0.3-0.8,0.3-1.2
				c0-0.5-0.1-0.9-0.4-1.2S8.9,9,8.4,9c-0.5,0-1,0.1-1.5,0.4s-1,0.6-1.6,1L3.8,8.6C4.2,8.3,4.6,7.9,5,7.6c0.4-0.3,1-0.5,1.5-0.7
				s1.3-0.3,2.1-0.3c0.9,0,1.6,0.2,2.3,0.5c0.6,0.3,1.1,0.8,1.5,1.3c0.3,0.6,0.5,1.2,0.5,1.9c0,0.7-0.1,1.4-0.4,2.1
				c-0.3,0.6-0.7,1.2-1.3,1.8s-1.2,1.3-2,2l-1.7,1.6V18h5.9V20.4z"/>
			<path class="st0" d="M23.7,9.9c0,0.9-0.3,1.7-0.8,2.2c-0.6,0.6-1.3,0.9-2.1,1.1v0.1c1.1,0.1,1.9,0.5,2.5,1
				c0.6,0.5,0.9,1.2,0.9,2.1c0,0.8-0.2,1.5-0.6,2.1s-1,1.1-1.8,1.5s-1.8,0.5-3.1,0.5c-1.5,0-2.8-0.2-3.9-0.7v-2.4
				c0.6,0.3,1.2,0.5,1.8,0.7c0.6,0.2,1.2,0.2,1.8,0.2c1,0,1.7-0.2,2.2-0.5c0.4-0.4,0.6-0.9,0.6-1.5c0-0.4-0.1-0.7-0.3-1
				c-0.2-0.3-0.5-0.5-1-0.6c-0.5-0.1-1.1-0.2-2-0.2h-1v-2.2h1c0.8,0,1.5-0.1,1.9-0.2c0.4-0.2,0.7-0.4,0.9-0.6s0.2-0.6,0.2-0.9
				c0-0.5-0.1-0.9-0.4-1.1S19.6,9,18.9,9c-0.6,0-1.2,0.1-1.7,0.3S16.3,9.8,16,10l-1.3-2c0.5-0.4,1.2-0.7,1.9-1s1.6-0.4,2.6-0.4
				c1.4,0,2.5,0.3,3.3,0.8C23.2,8.1,23.7,8.9,23.7,9.9z"/>
		</g>
	</g>
</g>
</svg>
