<?xml version="1.0" encoding="UTF-8"?><svg xmlns="http://www.w3.org/2000/svg" viewBox="0 0 134.46 134.46"><defs><style>.d,.e{fill:#eddfd6;}.f,.g,.h{fill:#1d1d1b;}.g{stroke:#eddfd6;stroke-miterlimit:10;}.g,.e{stroke-width:.42px;}.e{stroke:#1d1d1b;stroke-linecap:round;stroke-linejoin:round;}.h{font-family:Helvetica, Helvetica;font-size:12px;}</style></defs><g id="a"/><g id="b"><g id="c"><rect class="g" x=".21" y=".21" width="134.04" height="134.04"/><g><g><g><path class="d" d="M38.37,109.12c-1.73,0-3.35-.73-4.44-1.99-.99-1.16-1.41-2.6-1.19-4.07l1.25-7.97c2.45-15.67,8.8-30.86,18.35-43.95l3.65-5c1.05-1.44,2.79-2.31,4.66-2.32l7.5-.04,7.5,.04c1.87,.01,3.61,.88,4.66,2.32l3.65,5c9.56,13.09,15.9,28.29,18.35,43.95l1.25,7.97c.23,1.47-.19,2.91-1.19,4.07-1.08,1.27-2.7,1.99-4.44,1.99H38.37Z"/><path class="f" d="M68.16,43.99l7.5,.04c1.8,.01,3.48,.84,4.49,2.23l3.65,5c9.6,13.15,15.86,28.14,18.32,43.86l1.25,7.97c.47,3.06-2.08,5.82-5.41,5.82H38.37c-3.33,0-5.89-2.75-5.41-5.82l1.25-7.97c2.46-15.72,8.72-30.71,18.32-43.86l3.65-5c1.01-1.39,2.69-2.22,4.49-2.23l7.5-.04m0-.42h0l-7.5,.04c-1.94,.01-3.74,.91-4.83,2.4l-3.65,5c-9.58,13.12-15.94,28.35-18.39,44.04l-1.25,7.97c-.24,1.53,.2,3.03,1.23,4.24,1.12,1.31,2.8,2.07,4.6,2.07h59.59c1.8,0,3.47-.75,4.6-2.07,1.03-1.2,1.47-2.71,1.23-4.24l-1.25-7.97c-2.46-15.7-8.82-30.93-18.39-44.04l-3.65-5c-1.09-1.49-2.9-2.39-4.83-2.4l-7.5-.04h0Z"/></g><path class="e" d="M61.07,23.39c.66,2.73,5.18,8.15,6.63,8.15s6.42-5.42,7.08-8.15h0c-.86,1.86,1.37,5.08,2.37,5.7,1.29,.8,4.56,1.62,6.96,.15h0c-1.05,2.05-.2,4.51,.7,5.41,1.1,1.09,6.86,2.65,9.44,.94h0l-16.67,9.57-10.14,.18-10.14-.18-16.67-9.57h0c2.69,1.86,7.76-.09,8.9-1.23,.95-.95,3.73-3.9,2.54-6.07h0c2.53,1.63,5.3,1.36,6.68,.72,1.56-.72,3.29-3.65,2.3-5.64"/><rect class="g" x="55.34" y="43.99" width="25.05" height="2.71"/><rect class="g" x="65.41" y="62.6" width="4.58" height="3.94" rx="1.97" ry="1.97"/><rect class="g" x="65.68" y="88.15" width="4.61" height="5.58" rx="1.97" ry="1.97"/><path class="g" d="M62.47,83.52c.76,0,1.42,.45,1.78,1.12,.7,1.33,2.04,2.12,3.87,2.12,2.85,0,3.76-1.37,3.76-2.91,0-1.89-1-2.81-4.57-3.83-6.5-1.87-8.4-4.27-8.4-7.89,0-4.66,4.07-7.23,8.72-7.23s7.23,1.75,8.37,4.02c.65,1.3-.33,2.83-1.78,2.83h-1.52c-.73,0-1.43-.4-1.75-1.06-.42-.88-1.28-1.74-3.36-1.74-2.47,0-3.18,1.46-3.18,2.64,0,1.68,.91,2.44,5.03,3.6,5.75,1.6,7.91,3.92,7.91,8.03,0,5.12-3.91,7.58-9.41,7.58-4.45,0-7.47-1.73-8.8-4.46-.63-1.3,.34-2.82,1.79-2.82h1.55Z"/></g><rect class="g" x="58.9" y="46.71" width="4.21" height="8.79"/></g><rect class="d" x=".21" y=".21" width="21.13" height="21.13"/><text class="h" transform="translate(4.9 15)"><tspan x="0" y="0">01</tspan></text></g></g></svg>