<?xml version="1.0" encoding="utf-8"?>
<!-- Generator: Adobe Illustrator 24.1.1, SVG Export Plug-In . SVG Version: 6.00 Build 0)  -->
<svg version="1.1" id="Capa_1" xmlns="http://www.w3.org/2000/svg" xmlns:xlink="http://www.w3.org/1999/xlink" x="0px" y="0px"
	 viewBox="0 0 134.9 134.9" style="enable-background:new 0 0 134.9 134.9;" xml:space="preserve">
<style type="text/css">
	.st0{fill:#1D1D1B;}
	.st1{fill:#EDDFD6;}
	.st2{fill:#222222;}
	.st3{fill:#EDDFD6;stroke:#1D1D1B;stroke-width:0.42;stroke-linecap:round;stroke-linejoin:round;}
	.st4{fill:#1D1D1B;stroke:#EDDFD6;stroke-width:0.42;stroke-miterlimit:10;}
	.st5{fill:none;stroke:#1D1D1B;stroke-width:0.42;stroke-miterlimit:10;}
	.st6{fill:#00AEEF;}
	.st7{enable-background:new    ;}
	.st8{fill:#EDDFD6;stroke:#1D1D1B;stroke-width:0.6437;stroke-miterlimit:10;}
	.st9{fill:#EDDFD6;stroke:#1D1D1B;stroke-width:0.6073;stroke-miterlimit:10;}
	.st10{fill:#EDDFD6;stroke:#1D1D1B;stroke-width:0.5101;stroke-miterlimit:10;}
	.st11{font-family:'NotoSans-Bold';}
	.st12{font-size:19px;}
</style>
<g id="_x30_3">
	<rect x="-0.2" y="-0.1" class="st0" width="135.2" height="135"/>
	<g>
		<ellipse class="st8" cx="67.3" cy="67.4" rx="43.7" ry="43.7"/>
		<ellipse class="st9" cx="67.3" cy="67.4" rx="41.2" ry="41.1"/>
		<ellipse class="st10" cx="67.3" cy="67.4" rx="35" ry="35"/>
		<path class="st0" d="M77.1,54l0.8,6.4l-1.2,0.1c-0.6-5.1-1.6-5.9-4.7-5.9h-6.2c-1.3,0-2,0.6-2,1.7v10.2h5.3c2.5,0,3.3-0.6,3.3-4.4
			h1v10h-1c0-3.8-0.7-4.3-3.3-4.3h-5.3v10.9c0,1.7,0.3,2.1,2,2.1h6.1c3.2,0,4.5-1.1,6.2-6.7l1.2,0.3l-2.1,7l-0.3,1.1H54.3v-0.9
			c4,0,4.6-0.7,4.6-2.9v-22c0-2.3-0.6-2.9-4.6-2.9v-0.9h22.6L77.1,54L77.1,54z"/>
		<ellipse class="st0" cx="66.6" cy="43.2" rx="3.2" ry="3.2"/>
		<ellipse class="st0" cx="66.6" cy="94" rx="3.2" ry="3.2"/>
		<g>
			<path class="st0" d="M97.2,51.5c-0.5-2.8-1.9-5.3-3.9-7.3c-2-2-4.6-3.4-7.4-3.9c2.8-0.5,5.3-1.9,7.4-3.9c2-2,3.4-4.6,3.9-7.3
				c1.1,5.7,5.6,10.2,11.3,11.3c-2.8,0.5-5.3,1.9-7.4,3.9C99,46.2,97.7,48.7,97.2,51.5z"/>
			<path class="st1" d="M97.2,30.1c1.3,4.9,5.2,8.8,10.1,10.1c-2.4,0.7-4.6,1.9-6.4,3.7s-3.1,4-3.7,6.4c-0.7-2.4-1.9-4.6-3.7-6.4
				c-1.8-1.8-4-3.1-6.4-3.7c2.4-0.7,4.6-1.9,6.4-3.7C95.2,34.7,96.5,32.5,97.2,30.1 M97.2,26.2c0,3.8-1.6,7.3-4.1,9.9
				c-2.5,2.5-6,4.1-9.9,4.1c3.9,0,7.4,1.6,9.9,4.1c2.5,2.5,4.1,6,4.1,9.9c0-3.9,1.6-7.3,4.1-9.9c2.5-2.5,6-4.1,9.9-4.1
				C103.4,40.2,97.2,34,97.2,26.2L97.2,26.2L97.2,26.2z"/>
		</g>
	</g>
	<g>
		<path class="st1" d="M0,0h28.5v20.2c0,3.8-3.1,6.8-6.8,6.8H0V0z"/>
		<text transform="matrix(1 0 0 1 4.027 -5.5401)" class="st0 st11 st12">03</text>
		<g>
			<path class="st0" d="M13.7,14.2c0,1.5-0.2,2.7-0.5,3.7s-0.8,1.8-1.5,2.4c-0.7,0.6-1.6,0.8-2.8,0.8c-1.6,0-2.8-0.6-3.6-1.8
				s-1.1-2.9-1.1-5.1c0-1.5,0.2-2.7,0.5-3.8C5,9.4,5.5,8.6,6.2,8C6.9,7.5,7.8,7.2,9,7.2c1.6,0,2.8,0.6,3.6,1.8
				C13.3,10.3,13.7,12,13.7,14.2z M7.1,14.2c0,1.5,0.1,2.7,0.4,3.5c0.3,0.8,0.8,1.2,1.5,1.2c0.7,0,1.2-0.4,1.5-1.2
				c0.3-0.8,0.4-1.9,0.4-3.5c0-1.5-0.1-2.7-0.4-3.5C10.2,9.9,9.7,9.5,9,9.5c-0.7,0-1.2,0.4-1.5,1.2C7.2,11.5,7.1,12.6,7.1,14.2z"/>
			<path class="st0" d="M24.1,10.4c0,0.9-0.3,1.7-0.8,2.2c-0.6,0.6-1.3,0.9-2.1,1.1v0.1c1.1,0.1,1.9,0.5,2.5,1
				c0.6,0.5,0.9,1.2,0.9,2.1c0,0.8-0.2,1.5-0.6,2.1s-1,1.1-1.8,1.5s-1.8,0.5-3.1,0.5c-1.5,0-2.8-0.2-3.9-0.7V18
				c0.6,0.3,1.2,0.5,1.8,0.7c0.6,0.2,1.2,0.2,1.8,0.2c1,0,1.7-0.2,2.2-0.5c0.4-0.4,0.6-0.9,0.6-1.5c0-0.4-0.1-0.7-0.3-1
				c-0.2-0.3-0.5-0.5-1-0.6c-0.5-0.1-1.1-0.2-2-0.2h-1v-2.2h1c0.8,0,1.5-0.1,1.9-0.2c0.4-0.2,0.7-0.4,0.9-0.6s0.2-0.6,0.2-0.9
				c0-0.5-0.1-0.9-0.4-1.1s-0.8-0.4-1.5-0.4c-0.6,0-1.2,0.1-1.7,0.3s-0.9,0.4-1.2,0.6l-1.3-2c0.5-0.4,1.2-0.7,1.9-1s1.6-0.4,2.6-0.4
				c1.4,0,2.5,0.3,3.3,0.8C23.7,8.6,24.1,9.4,24.1,10.4z"/>
		</g>
	</g>
</g>
</svg>
