<?xml version="1.0" encoding="utf-8"?>
<!-- Generator: Adobe Illustrator 26.1.0, SVG Export Plug-In . SVG Version: 6.00 Build 0)  -->
<svg version="1.1" id="Layer_1" xmlns="http://www.w3.org/2000/svg" xmlns:xlink="http://www.w3.org/1999/xlink" x="0px" y="0px"
	 viewBox="0 0 134.5 134.2" style="enable-background:new 0 0 134.5 134.2;" xml:space="preserve">
<style type="text/css">
	.st0{fill:#1D1D1B;stroke:#EDDFD6;stroke-width:0.42;stroke-miterlimit:10;}
	.st1{fill:#EDDFD6;}
	.st2{fill:#1D1D1B;}
	.st3{font-family:'Helvetica';}
	.st4{font-size:11.07px;}
	.st5{font-family:'Helvetica-Bold';}
	.st6{font-size:102.22px;}
	.st7{enable-background:new    ;}
	.st8{fill:none;stroke:#1D1D1B;stroke-width:0.42;stroke-miterlimit:10;}
</style>
<g id="a">
</g>
<g id="b">
	<g id="c">
		<rect x="0.2" y="0.2" class="st0" width="134" height="134"/>
		<rect x="0.4" y="0.4" class="st1" width="21.1" height="21.1"/>
		<text transform="matrix(1 0 0 1 3.88 15.21)" class="st2 st3 st4">18</text>
		<g>
			<text transform="matrix(1 0 0 1 31.05 108.08)" class="st1 st5 st6">1</text>
			<g class="st7">
				<path class="st8" d="M38.1,58.2v-9.7c4.5-0.2,7.6-0.5,9.4-0.9c2.9-0.6,5.2-1.9,7-3.8c1.2-1.3,2.2-3,2.8-5.2
					c0.4-1.3,0.5-2.3,0.5-2.9h11.9v72.4H55.2V58.2H38.1z"/>
			</g>
			<g>
				<path class="st1" d="M97.6,63.3c-0.6-4.5-2.7-8.7-6-12c-3.3-3.3-7.5-5.4-12-6c4.5-0.6,8.7-2.7,12-6c3.3-3.3,5.4-7.5,6-12
					c1.3,9.3,8.7,16.7,18,18c-4.5,0.6-8.7,2.7-12,6C100.3,54.6,98.2,58.8,97.6,63.3L97.6,63.3z"/>
				<path class="st1" d="M97.6,28.5c1.7,8.4,8.4,15.1,16.8,16.8c-4.1,0.8-7.9,2.8-10.9,5.9s-5,6.8-5.9,10.9
					c-0.8-4.1-2.8-7.9-5.9-10.9c-3-3-6.8-5-10.9-5.9c4.1-0.8,7.9-2.8,10.9-5.9C94.7,36.3,96.7,32.6,97.6,28.5 M97.6,24.2
					c0,5.8-2.4,11.1-6.2,14.9c-3.8,3.8-9.1,6.2-14.9,6.2c5.8,0,11.1,2.4,14.9,6.2c3.8,3.8,6.2,9.1,6.2,14.9c0-5.8,2.4-11.1,6.2-14.9
					c3.8-3.8,9.1-6.2,14.9-6.2C107,45.2,97.6,35.8,97.6,24.2L97.6,24.2z"/>
			</g>
			<g>
				<path class="st1" d="M38.1,86.1c-0.3-1.4-1.1-2.7-2.1-3.8c-1.1-1.1-2.4-1.8-3.8-2.1c1.4-0.3,2.7-1.1,3.8-2.1
					c1.1-1.1,1.8-2.4,2.1-3.8c0.7,2.9,3,5.2,5.9,5.9c-1.4,0.3-2.7,1.1-3.8,2.1C39.2,83.3,38.4,84.6,38.1,86.1z"/>
				<path class="st2" d="M38.1,75c0.8,2.4,2.7,4.3,5.1,5.1c-1.2,0.4-2.3,1.1-3.2,2c-0.9,0.9-1.6,2-2,3.2c-0.4-1.2-1.1-2.3-2-3.2
					c-0.9-0.9-2-1.6-3.2-2c1.2-0.4,2.3-1.1,3.2-2C37,77.3,37.7,76.2,38.1,75 M38.1,72.4c0,2.1-0.9,4.1-2.3,5.5s-3.3,2.3-5.5,2.3
					c2.1,0,4.1,0.9,5.5,2.3c1.4,1.4,2.3,3.3,2.3,5.5c0-2.1,0.9-4.1,2.3-5.5s3.3-2.3,5.5-2.3C41.6,80.1,38.1,76.7,38.1,72.4
					L38.1,72.4z"/>
			</g>
			<path class="st1" d="M95.2,90.9c-3.7,0-7,1.5-9.4,3.9c-2.4,2.4-3.9,5.7-3.9,9.4c0-3.7-1.5-7-3.9-9.4c-2.4-2.4-5.7-3.9-9.4-3.9
				c3.7,0,7-1.5,9.4-3.9c2.4-2.4,3.9-5.7,3.9-9.4C82,84.9,87.9,90.9,95.2,90.9L95.2,90.9z"/>
		</g>
	</g>
</g>
</svg>
