<?xml version="1.0" encoding="UTF-8"?>
<svg id="Capa_1" xmlns="http://www.w3.org/2000/svg" version="1.1" viewBox="0 0 134.9 134.9">
  <!-- Generator: Adobe Illustrator 29.0.0, SVG Export Plug-In . SVG Version: 2.1.0 Build 186)  -->
  <defs>
    <style>
      .st0 {
        fill: #1d1d1b;
      }

      .st1 {
        fill: #eddfd6;
      }

      .st2 {
        fill: #ebdbd3;
      }
    </style>
  </defs>
  <g>
    <g id="_31">
      <path class="st0" d="M0,0h135.6v135.7H0V0Z"/>
    </g>
    <path class="st1" d="M0,0h28.5v20.2c0,3.8-3.1,6.8-6.8,6.8H0V0Z"/>
    <path class="st0" d="M12.6,9.5c0,.6-.1,1.2-.4,1.6s-.6.8-1,1.1-.9.5-1.5.6h0c1.1.2,1.9.5,2.5,1s.8,1.2.8,2.1-.2,1.5-.6,2.1c-.4.6-1,1.1-1.8,1.5s-1.8.5-3.1.5-1.4,0-2.1-.2-1.3-.3-1.8-.6v-2.4c.6.3,1.2.5,1.8.7s1.2.2,1.8.2c1,0,1.7-.2,2.2-.5s.6-.9.6-1.5,0-.7-.3-1c-.2-.3-.5-.5-1-.6s-1.1-.2-2-.2h-1v-2.2h1c.8,0,1.5,0,1.9-.2s.7-.4.9-.6c.2-.3.2-.6.2-.9s-.1-.9-.4-1.1c-.3-.3-.8-.4-1.5-.4s-.8,0-1.2.2c-.4.1-.7.2-1,.4s-.5.3-.8.4l-1.3-2c.5-.4,1.2-.7,1.9-1s1.6-.4,2.6-.4,2.5.3,3.3.8,1.2,1.4,1.2,2.4v.2h.1Z"/>
    <path class="st0" d="M24,20h-9.5v-2l3.4-3.4c.7-.7,1.2-1.3,1.7-1.8.4-.5.7-.9.9-1.3.2-.4.3-.8.3-1.2s-.1-1-.4-1.2c-.3-.3-.7-.4-1.2-.4s-1,.1-1.5.4c-.5.2-1,.6-1.6,1l-1.6-1.8c.4-.3.8-.7,1.2-.9.4-.3.9-.5,1.5-.7s1.3-.3,2.1-.3,1.6.2,2.3.5c.6.3,1.1.8,1.5,1.3.3.6.5,1.2.5,1.9s-.1,1.4-.4,2.1c-.3.6-.7,1.2-1.3,1.8-.6.6-1.2,1.3-2,2l-1.7,1.6h0c0,.1,5.9.1,5.9.1v2.4h0Z"/>
  </g>
  <g>
    <path class="st2" d="M58.3,73.5c-.9-2.8-1.6-5.7-2.1-8.6-.7-.4-1.4-.9-2.1-1.6l1.7-.8c-.7-4.7-.9-9.2-.8-13.3-1.9-.5-3.9-1-5.8-1-3.1,0-6.1,1.2-9.2,1.8-3.1.5-6.7.2-8.7-2.2-1-1.3-1.5-2.9-2.4-4.3-.9-1.4-2.6-2.6-4.1-2s-2,2.3-2.2,3.9c-2,12.2-.7,26.3,4.4,37.6,3.2,6.9,8.8,13.2,16.2,15.1,7.7,2.1,16.2-1,21.9-6.5.7-.7,1.5-1.5,2.1-2.3-3.8-3.9-6.8-9.1-8.9-15.7h0ZM30.1,57.7l15,6.1c-6,5.9-15.3,2.6-15-6.1ZM34.9,84.9c5.5-10,23.1-10.4,28.5,0h-28.5Z"/>
    <path class="st2" d="M111.2,37.2c.4.5.6,1.1.8,1.7,4.1,20.1-1.8,58.2-29.9,54.2-21.3-3.1-24.3-37.8-23-51.9.2-1.7.1-4.2,2.3-4.6s4.3,1.9,6.5,2.8c10.3,4,23.9,4,34.3.2,1.7-.6,3.2-1.5,4.9-2.3.9-.4,2-1,3-.8.5,0,.9.3,1.1.7ZM82,60.5c-3.2-7.8-13.1-8.2-16.2,0h16.2ZM107,61.1c-3-7.8-13.1-8.5-16.1-.3l16.1.3ZM100,72.2h-28.5c5.5,9.9,23.1,10.4,28.5,0Z"/>
  </g>
</svg>