<?xml version="1.0" encoding="utf-8"?>
<!-- Generator: Adobe Illustrator 24.1.1, SVG Export Plug-In . SVG Version: 6.00 Build 0)  -->
<svg version="1.1" id="Capa_1" xmlns="http://www.w3.org/2000/svg" xmlns:xlink="http://www.w3.org/1999/xlink" x="0px" y="0px"
	 viewBox="0 0 134.9 134.9" style="enable-background:new 0 0 134.9 134.9;" xml:space="preserve">
<style type="text/css">
	.st0{fill:#1D1D1B;}
	.st1{fill:#EDDFD6;}
	.st2{fill:#222222;}
	.st3{fill:#EDDFD6;stroke:#1D1D1B;stroke-width:0.42;stroke-linecap:round;stroke-linejoin:round;}
	.st4{fill:#1D1D1B;stroke:#EDDFD6;stroke-width:0.42;stroke-miterlimit:10;}
	.st5{fill:none;stroke:#1D1D1B;stroke-width:0.42;stroke-miterlimit:10;}
	.st6{fill:#00AEEF;}
	.st7{enable-background:new    ;}
	.st8{fill:#EDDFD6;stroke:#1D1D1B;stroke-width:0.6437;stroke-miterlimit:10;}
	.st9{fill:#EDDFD6;stroke:#1D1D1B;stroke-width:0.6073;stroke-miterlimit:10;}
	.st10{fill:#EDDFD6;stroke:#1D1D1B;stroke-width:0.5101;stroke-miterlimit:10;}
	.st11{fill:#EDDFD6;stroke:#1D1D1B;stroke-width:0.42;stroke-miterlimit:10;}
	.st12{fill:#EDDFD6;stroke:#1D1D1B;stroke-width:0.6356;stroke-miterlimit:10;}
	.st13{fill:#EDDFD6;stroke:#1D1D1B;stroke-width:0.5996;stroke-miterlimit:10;}
	.st14{fill:#EDDFD6;stroke:#1D1D1B;stroke-width:0.5037;stroke-miterlimit:10;}
	.st15{fill:#EDDFD6;stroke:#1D1D1B;stroke-width:0.422;stroke-miterlimit:10;}
	.st16{fill:#1D1D1B;stroke:#EDDFD6;stroke-width:0.422;stroke-miterlimit:10;}
	.st17{fill:none;stroke:#1D1D1B;stroke-width:0.422;stroke-miterlimit:10;}
	.st18{fill:none;stroke:#EDDFD6;stroke-width:0.422;stroke-linecap:round;stroke-linejoin:round;}
	.st19{fill:none;stroke:#EDDFD6;stroke-width:17;stroke-miterlimit:10;}
	.st20{fill:#EDDFD6;stroke:#EDDFD6;stroke-width:0.42;stroke-miterlimit:10;}
	.st21{font-family:'NotoSans-Bold';}
	.st22{font-size:19px;}
</style>
<g id="_x30_9">
	<rect x="0" y="-0.1" class="st0" width="134.9" height="135"/>
	<g>
		<g>
			<path class="st20" d="M111.6,48.1v45.6H23.2V48.1c0,0.3,0,0.5,0,0.8v0.4c0.5,11.1,6.9,19.9,14.7,19.9s13.8-8.1,14.6-18.6
				c0-0.5,0.1-1.1,0.1-1.7c0,0,0,0,0-0.1c0-0.3,0-0.5,0-0.8c0,0.2,0,0.4,0,0.6c0,0.5,0,1,0.1,1.5l0,0c0.7,10.7,7,19.1,14.7,19.1
				S81.3,60.8,82,50.1l0,0c0-0.4,0-0.7,0.1-1.1c0-0.3,0-0.6,0-0.9c0,0.3,0,0.5,0,0.8c0,0.6,0,1.1,0.1,1.7v0
				C83,61,89.3,69.2,96.8,69.2s14.1-8.6,14.7-19.5v0c0-0.3,0-0.5,0-0.8C111.6,48.6,111.6,48.4,111.6,48.1L111.6,48.1z"/>
			<g>
				<path class="st20" d="M87.7,43.6c-1.5,0-2.9,0.6-3.9,1.6c-1,1-1.6,2.4-1.6,4c0-1.5-0.6-2.9-1.6-4c-1-1-2.4-1.6-3.9-1.6
					c1.5,0,2.9-0.6,3.9-1.6c1-1,1.6-2.4,1.6-4C82.1,41.1,84.6,43.6,87.7,43.6L87.7,43.6z"/>
				<path class="st20" d="M58.3,43.6c-1.5,0-2.9,0.6-4,1.6c-1,1-1.6,2.4-1.6,4c0-1.5-0.6-2.9-1.6-4c-1-1-2.4-1.6-4-1.6
					c1.5,0,2.9-0.6,4-1.6c1-1,1.6-2.4,1.6-4C52.7,41.1,55.2,43.6,58.3,43.6L58.3,43.6z"/>
				<path class="st20" d="M111.6,38.1v11.2c0-0.1,0-0.2,0-0.3c-0.1-1.4-0.7-2.7-1.6-3.6c-1-1-2.4-1.6-3.9-1.6c1.6,0,2.9-0.6,3.9-1.6
					C111,41,111.6,39.6,111.6,38.1L111.6,38.1z"/>
				<path class="st20" d="M28.8,43.6c-1.5,0-2.9,0.6-4,1.6c-1,1-1.6,2.4-1.6,4V38.1C23.2,41.1,25.7,43.6,28.8,43.6L28.8,43.6z"/>
			</g>
			<ellipse class="st0" cx="38.7" cy="79.8" rx="1.9" ry="2.8"/>
			<ellipse class="st0" cx="68.1" cy="79.8" rx="1.9" ry="2.8"/>
			<ellipse class="st0" cx="98.6" cy="79.8" rx="1.9" ry="2.8"/>
			<g>
				<g>
					<path class="st0" d="M82.2,83.8c-0.3-0.9-0.8-1.8-1.5-2.5c-0.7-0.7-1.6-1.2-2.5-1.5c0.9-0.3,1.8-0.8,2.5-1.5
						c0.7-0.7,1.2-1.6,1.5-2.5c0.5,1.9,2.1,3.5,4,4c-0.9,0.3-1.8,0.8-2.5,1.5S82.4,82.9,82.2,83.8L82.2,83.8z"/>
					<path class="st1" d="M82.2,76.5c0.6,1.5,1.8,2.8,3.4,3.4c-0.8,0.3-1.4,0.8-2,1.3s-1,1.3-1.3,2c-0.3-0.8-0.8-1.4-1.3-2
						c-0.6-0.6-1.3-1-2-1.3c0.8-0.3,1.4-0.8,2-1.3C81.4,77.9,81.8,77.2,82.2,76.5 M82.1,74.2c0,1.5-0.6,2.9-1.6,3.9
						c-1,1-2.4,1.6-3.9,1.6c1.5,0,2.9,0.6,3.9,1.6c1,1,1.6,2.4,1.6,3.9c0-1.5,0.6-2.9,1.6-3.9c1-1,2.4-1.6,3.9-1.6
						C84.7,79.8,82.2,77.3,82.1,74.2L82.1,74.2L82.1,74.2z"/>
				</g>
				<g>
					<path class="st0" d="M52.7,83.8c-0.3-0.9-0.8-1.8-1.5-2.5c-0.7-0.7-1.6-1.2-2.5-1.5c1-0.3,1.8-0.8,2.5-1.5
						c0.7-0.7,1.2-1.6,1.5-2.5c0.5,1.9,2.1,3.5,4,4c-1,0.3-1.8,0.8-2.5,1.5S52.9,82.9,52.7,83.8L52.7,83.8z"/>
					<path class="st1" d="M52.7,76.5c0.6,1.5,1.8,2.8,3.4,3.4c-0.8,0.3-1.4,0.8-2,1.3s-1,1.3-1.3,2c-0.3-0.8-0.8-1.4-1.3-2
						c-0.6-0.6-1.3-1-2-1.3c0.8-0.3,1.4-0.8,2-1.3C51.9,77.9,52.4,77.2,52.7,76.5 M52.7,74.2c0,1.5-0.6,2.9-1.6,3.9
						c-1,1-2.4,1.6-4,1.6c1.5,0,2.9,0.6,4,1.6c1,1,1.6,2.4,1.6,3.9c0-1.5,0.6-2.9,1.6-3.9c1-1,2.4-1.6,4-1.6
						C55.2,79.8,52.7,77.3,52.7,74.2L52.7,74.2L52.7,74.2z"/>
				</g>
				<g>
					<path class="st0" d="M111.4,83.2c-0.3-0.7-0.7-1.4-1.3-1.9c-0.7-0.7-1.6-1.2-2.5-1.5c0.9-0.3,1.8-0.8,2.5-1.5
						c0.6-0.6,1-1.2,1.3-1.9V83.2L111.4,83.2z"/>
					<path class="st1" d="M111.2,77.3v5c-0.3-0.4-0.6-0.8-0.9-1.2c-0.6-0.6-1.3-1-2-1.3c0.8-0.3,1.4-0.8,2-1.3
						C110.7,78.1,111,77.7,111.2,77.3 M111.6,74.2c0,1.5-0.6,2.9-1.6,3.9c-1,1-2.4,1.6-3.9,1.6c1.5,0,2.9,0.6,3.9,1.6
						c1,1,1.6,2.4,1.6,3.9V74.2L111.6,74.2L111.6,74.2z"/>
				</g>
				<g>
					<path class="st0" d="M23.4,76.4c0.7,1.7,2.1,2.9,3.8,3.4c-1,0.3-1.8,0.8-2.5,1.5c-0.6,0.6-1,1.2-1.3,1.9L23.4,76.4L23.4,76.4z"
						/>
					<path class="st1" d="M23.7,77.3c0.7,1.1,1.7,2,2.9,2.5c-0.8,0.3-1.4,0.8-2,1.3c-0.4,0.4-0.7,0.8-0.9,1.2V77.3 M23.2,74.2v11.2
						c0-1.5,0.6-2.9,1.6-3.9c1-1,2.4-1.6,4-1.6C25.7,79.8,23.2,77.3,23.2,74.2L23.2,74.2L23.2,74.2z"/>
				</g>
			</g>
			<g>
				<rect x="23.4" y="93.6" class="st0" width="88" height="3"/>
				<path class="st1" d="M111.2,93.8v2.6H23.7v-2.6H111.2 M111.6,93.4H23.2v3.4h88.4V93.4L111.6,93.4z"/>
			</g>
		</g>
	</g>
	<g>
		<path class="st1" d="M-0.1-0.1h28.5v20.2c0,3.8-3.1,6.8-6.8,6.8H-0.1V-0.1z"/>
		<text transform="matrix(1 0 0 1 2.4048 -2.2053)" class="st0 st21 st22">09</text>
		<g>
			<path class="st0" d="M13.8,13.8c0,1.5-0.2,2.7-0.5,3.7s-0.8,1.8-1.5,2.4c-0.7,0.6-1.6,0.8-2.8,0.8c-1.6,0-2.8-0.6-3.6-1.8
				S4.3,16,4.3,13.8c0-1.5,0.2-2.7,0.5-3.8C5,9,5.5,8.2,6.2,7.7C6.9,7.1,7.9,6.8,9,6.8c1.6,0,2.8,0.6,3.6,1.8
				C13.4,9.9,13.8,11.6,13.8,13.8z M7.1,13.8c0,1.5,0.1,2.7,0.4,3.5c0.3,0.8,0.8,1.2,1.5,1.2c0.7,0,1.2-0.4,1.5-1.2
				c0.3-0.8,0.4-1.9,0.4-3.5c0-1.5-0.1-2.7-0.4-3.5C10.2,9.5,9.7,9.1,9,9.1c-0.7,0-1.2,0.4-1.5,1.2C7.3,11.1,7.1,12.3,7.1,13.8z"/>
			<path class="st0" d="M24.6,12.8c0,0.8-0.1,1.5-0.2,2.3c-0.1,0.8-0.3,1.5-0.6,2.2c-0.3,0.7-0.7,1.3-1.2,1.8
				c-0.5,0.5-1.2,0.9-2,1.2c-0.8,0.3-1.8,0.4-2.9,0.4c-0.3,0-0.6,0-0.9,0s-0.7-0.1-0.9-0.1v-2.3c0.3,0.1,0.5,0.1,0.8,0.1
				c0.3,0,0.6,0.1,0.8,0.1c1.1,0,2-0.2,2.6-0.5c0.6-0.4,1-0.9,1.3-1.5c0.3-0.6,0.4-1.4,0.4-2.2h-0.1c-0.3,0.4-0.6,0.8-1.1,1.1
				c-0.4,0.3-1.1,0.5-1.9,0.5c-1.2,0-2.1-0.4-2.8-1.1c-0.7-0.7-1-1.8-1-3.2c0-1.5,0.4-2.6,1.2-3.5c0.8-0.8,2-1.3,3.4-1.3
				c0.9,0,1.8,0.2,2.5,0.6c0.7,0.4,1.3,1.1,1.8,2S24.6,11.5,24.6,12.8z M19.7,9.2c-0.6,0-1,0.2-1.4,0.6s-0.5,1-0.5,1.8
				c0,0.7,0.2,1.2,0.5,1.6c0.3,0.4,0.8,0.6,1.4,0.6c0.4,0,0.8-0.1,1.1-0.3c0.3-0.2,0.6-0.4,0.7-0.7c0.2-0.3,0.3-0.6,0.3-0.9
				c0-0.4-0.1-0.8-0.2-1.2c-0.2-0.4-0.4-0.7-0.7-1S20.2,9.2,19.7,9.2z"/>
		</g>
	</g>
</g>
</svg>
