<?xml version="1.0" encoding="utf-8"?>
<!-- Generator: Adobe Illustrator 27.2.0, SVG Export Plug-In . SVG Version: 6.00 Build 0)  -->
<svg version="1.1" id="Capa_1" xmlns="http://www.w3.org/2000/svg" xmlns:xlink="http://www.w3.org/1999/xlink" x="0px" y="0px"
	 viewBox="0 0 134.9 134.9" style="enable-background:new 0 0 134.9 134.9;" xml:space="preserve">
<style type="text/css">
	.st0{fill:#1D1D1B;}
	.st1{fill:#EDDFD6;}
	.st2{display:none;}
	.st3{display:inline;fill:#1D1D1B;}
	.st4{font-family:'Arial-BoldMT';}
	.st5{font-size:19.21px;}
	.st6{fill:#C6BAB1;}
	.st7{fill:#EDDED5;}
	.st8{fill:#A59A94;}
	.st9{fill:#F3A0A3;}
	.st10{fill:#E42320;}
	.st11{fill:#1D1E1C;}
	.st12{opacity:0.19;fill:#1D1E1C;enable-background:new    ;}
</style>
<g id="_x32_9">
	<path class="st0" d="M-0.6-0.2H135v135.7H-0.6V67.7V-0.2z"/>
</g>
<g>
	<path class="st1" d="M-0.3-0.2h28.5V20c0,3.8-3.1,6.8-6.8,6.8H-0.3V-0.2z"/>
	<g class="st2">
		<path class="st3" d="M13.1,20.3H3.6v-2L7,14.8c0.7-0.7,1.2-1.3,1.7-1.8s0.7-0.9,0.9-1.3c0.2-0.4,0.3-0.8,0.3-1.2
			c0-0.5-0.1-0.9-0.4-1.2S8.7,8.9,8.2,8.9S7.2,9,6.7,9.3s-1,0.6-1.6,1L3.6,8.5c0.4-0.4,0.8-0.7,1.2-1s1-0.5,1.5-0.7s1.3-0.3,2.1-0.3
			c0.9,0,1.6,0.2,2.3,0.5c0.6,0.3,1.1,0.8,1.5,1.3c0.3,0.6,0.5,1.2,0.5,1.9s-0.1,1.4-0.4,2.1c-0.3,0.6-0.7,1.2-1.3,1.8s-1.2,1.3-2,2
			l-1.7,1.6v0.1h5.9v2.5H13.1z"/>
		<path class="st3" d="M23.9,12.5c0,0.8-0.1,1.5-0.2,2.3s-0.3,1.5-0.6,2.2c-0.3,0.7-0.7,1.3-1.2,1.8s-1.2,0.9-2,1.2
			c-0.8,0.3-1.8,0.4-2.9,0.4c-0.3,0-0.6,0-0.9,0s-0.7-0.1-0.9-0.1V18c0.3,0.1,0.5,0.1,0.8,0.1s0.6,0.1,0.8,0.1c1.1,0,2-0.2,2.6-0.5
			c0.6-0.4,1-0.9,1.3-1.5s0.4-1.4,0.4-2.2H21c-0.3,0.4-0.6,0.8-1.1,1.1c-0.4,0.3-1.1,0.5-1.9,0.5c-1.2,0-2.1-0.4-2.8-1.1
			c-0.7-0.7-1-1.8-1-3.2c0-1.5,0.4-2.6,1.2-3.5c0.8-0.8,2-1.3,3.4-1.3c0.9,0,1.8,0.2,2.5,0.6s1.3,1.1,1.8,2S23.9,11.1,23.9,12.5z
			 M19,8.9c-0.6,0-1,0.2-1.4,0.6s-0.5,1-0.5,1.8c0,0.7,0.2,1.2,0.5,1.6c0.3,0.4,0.8,0.6,1.4,0.6c0.4,0,0.8-0.1,1.1-0.3
			c0.3-0.2,0.6-0.4,0.7-0.7c0.2-0.3,0.3-0.6,0.3-0.9c0-0.4-0.1-0.8-0.2-1.2c-0.2-0.4-0.4-0.7-0.7-1S19.5,8.9,19,8.9z"/>
	</g>
	<g>
		<text transform="matrix(1 0 0 1 2.97 20.0097)" class="st0 st4 st5">30</text>
	</g>
</g>
<g>
	<path class="st6" d="M57.7,69.6c-2.1,1.3-5.4,3.4-9.6,5.7c-8,4.3-12,5.5-19.6,9.5c-2.7,1.4-6.6,3.7-11.3,6.8c1.2,2.5,2.3,5,3.5,7.5
		c5.2-2.2,9.2-4.3,11.9-5.9c7.1-4.1,10.1-7.1,18.7-12.7c4.3-2.8,7.9-4.9,10.1-6.2C60.2,72.8,58.9,71.2,57.7,69.6z"/>
	<path class="st7" d="M62.9,66.6c-0.3-0.2-1.2-0.6-2.2-0.5c-1.8,0.3-2.5,2.1-2.6,2.3c-0.7,1.7-0.1,3.7,0.9,4.9
		c1.3,1.6,3.5,2.2,5.7,1.6c0.3-0.1,0.8-0.3,1.3-0.9c0.9-1,0.7-2.2,0.7-2.4C65.3,70,64.1,68.3,62.9,66.6z"/>
	<path class="st8" d="M69.5,60.4c-0.6,1.2-1.7,3.1-3.8,4.8c-1.7,1.4-3.3,2.1-4.5,2.5c-0.9,1.4-0.7,3.2,0.4,4.3c1,1,2.5,1.2,3.8,0.5
		c0.8-0.6,1.7-1.1,2.7-1.7c2.7-1.4,5.2-2.2,7.2-2.5L69.5,60.4z"/>
	<path class="st7" d="M64.1,44.9c0.2,1,1.5,2.2,1.5,2.3c0.9,0.7,2,1.2,3.2,1.7l26.2-5.3c0.8-0.4,2.5-1.5,3.2-3.6
		c0.1-0.4,0.4-1.3,0.3-1.9c-0.6-2.9-11-4.9-20.5-2.5C70.5,37.6,63.6,42.2,64.1,44.9z"/>
	<path class="st7" d="M68.3,54.4l2.4,12.4c4.3-2.5,11.4-5.9,20.8-6.5c3.5-0.2,6.6,0,9.3,0.3c-0.9-3.9-1.8-7.8-2.7-11.7
		c-0.2-1.3-0.7-3-2-4.3c-0.8-0.7-2.9-2.3-14.9,0.5c-10.2,2.3-11.9,4.2-12.6,5.9C68,52.2,68.1,53.5,68.3,54.4z"/>
	<path class="st8" d="M66.6,49.9c-0.4,0.5-1.1,1.6-0.8,2.8c0.4,1.4,2.2,2,2.5,2.1c0-0.1-0.1-0.3-0.1-0.5c0-0.6,0.4-1.2,1-1.7
		c2.7-2.3,6-3.5,6-3.5c1.9-0.7,4.3-1.4,7.1-2.2c0,0,0,0,0,0c0,0,9.7-2.6,14.4,0.1c0.4,0.2,0.6,0.5,0.6,0.5c0.4,0.4,0.5,0.9,0.6,1.3
		c0.3-0.1,1.9-1,2-2.5c0.1-1.3-1.2-2.3-1.7-2.7C94,40.2,83.8,42.3,80.6,43C80.6,43,69.8,45.3,66.6,49.9z"/>
	<path class="st9" d="M95.7,48.7"/>
	<path class="st10" d="M85,61.1"/>
	<polygon class="st11" points="69.7,61.9 70.7,66.7 69.7,70.1 67.4,71.2 	"/>
	<path class="st8" d="M74.8,72.8c-1.7,0.7-3.7,0-4.6-1.5c-0.8-1.4-0.7-3.2,0.5-4.5c3-2,8.2-4.8,15.3-6.1c6.2-1.1,11.4-0.7,14.8-0.1
		c2.1,0.5,3.4,2.5,3,4.5c-0.4,1.8-2,3.1-3.9,3c-2.6-0.6-7.1-1.4-12.6-0.4C81.3,68.6,77,71.2,74.8,72.8z"/>
	<path class="st7" d="M119.5,94.6c0-0.2-0.2-1.1-1-1.6c-0.3-0.2-0.7-0.3-0.9-0.3H95.4H80.8H58.6c-0.2,0-0.5,0.1-0.9,0.3
		c-0.8,0.5-0.9,1.4-1,1.6v14.1c2.5,0.6,5.8,1.2,9.8,1.8c10.8,1.7,19.1,1.7,21.6,1.7c2.5,0,10.8-0.1,21.6-1.7
		c3.9-0.6,7.3-1.3,9.8-1.8V94.6z"/>
	<path class="st7" d="M72.3,75.1c-0.5-3.8,7.6-8.3,14.5-9.5c6.9-1.2,16.1,0.3,16.9,4c0.9,3.8-6.7,9.7-14.4,11
		C81.9,81.9,72.8,78.9,72.3,75.1z"/>
	<path class="st6" d="M13.6,98.6c0.7,1.1,2.2,1.2,3.3,1.3c1.2,0.1,2.1-0.1,2.7-0.2c0.7-0.2,1.1-0.4,3.2-1.4c0.9-0.5,1.8-0.9,2.7-1.3
		c-1.9-2.3-3.8-4.7-5.7-7c-0.4,0.3-1,0.7-1.8,1.3c-0.8,0.6-1.1,0.7-1.6,1c-1,0.6-2,1.4-2.7,2.5C13.6,95.1,12.6,97.1,13.6,98.6z"/>
	<path class="st6" d="M118.3,92.7H58.6v-1c0-2.6,2.1-4.7,4.7-4.7h50.4c2.6,0,4.6,2.1,4.6,4.6V92.7z"/>
	<path class="st6" d="M45.6,51.4"/>
	<path class="st11" d="M84.2,66.2c3-0.8,5.6-1,7.5-1c1.8,0,4,0,6.6,0.8c1.6,0.5,2.9,1.1,3.7,1.5c0.4-0.3,0.8-0.7,0.8-1.2
		c-0.1-1.2-3.5-1.8-4.6-2.1C95.8,63.8,91.2,63.5,84.2,66.2z"/>
	<path class="st11" d="M84.7,46.5c1.7-0.3,3.1-0.5,4.1-0.6c0,0,4.3-0.4,7.3,0.7c0.5,0.2,1.1,0.5,1.6,1.1c0.3,0.4,0.4,0.8,0.5,1.1
		c0.2-0.1,0.6-0.2,1-0.5c0.2-0.2,0.4-0.4,0.4-0.6c-0.1-0.4-0.3-0.7-0.5-0.9C96.2,42.8,85.8,46.1,84.7,46.5z"/>
	<path class="st11" d="M76.6,77.1c0.1-0.6,5.3,0.3,13.1-1.6c7.4-1.8,11.2-4.6,11.5-4.1c0.4,0.6-4.5,5.7-11.4,7.3
		C83,80.2,76.6,77.8,76.6,77.1z"/>
	<path class="st6" d="M58.6,92.7c9.1,1.3,19.7,2.2,31.4,2.1c10.5-0.1,20-0.9,28.3-2.1l-32.6-3.5L58.6,92.7z"/>
	<path class="st8" d="M58.6,92.3c9.6,1.5,21,2.6,33.8,2.5c9.6-0.1,18.3-1,25.9-2.1c-5.3,1.9-11.9,3.7-19.5,4.6
		C81.3,99.2,67,95.4,58.6,92.3z"/>
	<path class="st12" d="M72.7,32.5c-3.3,0.5-6.6,1-9.9,1.6c-4.2,0.8-8.4,1.9-12.6,3c-6.8,1.7-13.7,3.5-20.6,4.7
		c-9.1,8.1-22.5,22.9-25.7,42c-1.3,7.6-0.2,11.7,1.3,14.6c3.8,7.3,12.3,9.3,29,13.1c17.8,4.1,33,3.1,33.1,1.9c0.1-0.8-8-0.3-14.8-6
		c-5.4-4.5-10.7-13.4-8-19c3.9-7.9,23.2-7.7,23.9-12.9c0.2-1.6,0.6-3.2,0.7-4.8c0-0.5,0.1-1.7,0.8-3.1c0.2-0.4,0.4-0.7,0.6-0.9
		C88,56.1,91.4,49.6,90.5,45.4C89.3,40.1,82,35.8,72.7,32.5z"/>
</g>
</svg>
