<svg version="1.2" xmlns="http://www.w3.org/2000/svg" viewBox="0 0 500 500" width="500" height="500"><defs><clipPath clipPathUnits="userSpaceOnUse" id="cp1"><path d="m0 0h500v500h-500z"/></clipPath><clipPath clipPathUnits="userSpaceOnUse" id="cp2"><path d="m0 0h500v500h-500z"/></clipPath></defs><style>.a{fill:#fff}.b{fill:#222}.c{fill:#eddfd6}</style><g clip-path="url(#cp1)"><path class="a" d="m0 0h500v500h-500z"/><g clip-path="url(#cp2)"><path class="b" d="m0 0h500v500h-500z"/><path class="c" d="m0 0h111.1v100h-111.1z"/><path fill-rule="evenodd" class="b" d="m36.2 77.6q-4.5 0-8.1-1.5-3.5-1.6-5.5-4.3-2.1-2.8-2.2-6.4h5.7q0.2 2.2 1.5 3.9 1.4 1.6 3.6 2.5 2.2 0.8 4.9 0.8 3 0 5.3-1 2.3-1.1 3.6-2.9 1.4-1.9 1.4-4.3 0-2.6-1.3-4.6-1.3-1.9-3.7-3-2.5-1.2-6-1.2h-3.8v-5h3.8q2.7 0 4.8-1 2.1-1 3.3-2.8 1.2-1.8 1.2-4.3 0-2.3-1-4.1-1.1-1.7-3-2.7-1.9-1-4.4-1-2.4 0-4.6 0.9-2.1 0.9-3.4 2.5-1.4 1.7-1.5 4h-5.4q0.1-3.7 2.2-6.4 2-2.8 5.4-4.3 3.3-1.6 7.4-1.6 4.3 0 7.4 1.8 3.1 1.7 4.7 4.5 1.7 2.9 1.7 6.2 0 3.9-2.1 6.7-2 2.8-5.6 3.8v0.4q4.4 0.7 6.9 3.7 2.5 3 2.5 7.5 0 3.8-2.1 6.8-2 3-5.6 4.7-3.5 1.7-8 1.7zm40.2 0q-5.2 0-8.8-2.8-3.6-2.8-5.5-8.1-1.9-5.4-1.9-13 0-7.5 1.9-12.9 1.9-5.3 5.5-8.1 3.7-2.9 8.8-2.9 5.1 0 8.7 2.9 3.6 2.8 5.5 8.1 2 5.4 2 12.9 0 7.6-2 13-1.9 5.3-5.5 8.1-3.6 2.8-8.7 2.8zm0-5q5.1 0 7.9-4.9 2.8-4.9 2.8-14 0-6-1.3-10.3-1.3-4.2-3.7-6.4-2.4-2.3-5.7-2.3-5.1 0-7.9 5-2.9 5-2.9 14 0 6.1 1.3 10.3 1.3 4.2 3.7 6.4 2.4 2.2 5.8 2.2z"/><path fill-rule="evenodd" class="c" d="m365.3 100.3c0.8 1.1-3.9 1.3-36.9 1.2-19.3 0-58.8 0.1-87.6 0.2-76.4 0.3-110.7 0.1-110.7-0.7 0-0.4 0.2-0.7 0.4-0.8 0.8-0.3 234.5-0.2 234.8 0.1zm-236.3 266.7l-0.8-1.9 0.1-128.1 0.1-124.2 41.7-0.2c52.3-0.3 187.4-0.1 195.7 0.3l6.1 0.3-0.2 99.7c-0.1 54.9-0.4 111.1-0.5 125-0.2 23.6-0.2 25.3-0.9 26.9-0.4 0.9-1.2 2.1-1.8 2.5-0.9 0.8-4.8 0.8-72.6 0.9-144.9 0.1-166.4-0.1-166.9-1.2zm221.7-243.7h-101.1l-101.2 0.1v222.5h37c20.3 0 65.8 0.2 101.1 0.3l64.2 0.3zm-81.8 37h67.1l-0.1 4.2-0.1 4.3-33.4 0.1-33.5 0.1zm-104.8 0.5h69v8.7h-19c-10.4 0-25.9-0.2-34.5-0.3l-15.5-0.3zm0.3 36.6h68.7v8.3h-68.7zm104.5 0h67.1v8.2h-67.1zm-104.5 35.8h68.7v8.7h-68.7zm104.5 0h67.1l-0.1 4.2-0.1 4.3-33.3-0.1-33.4-0.2-0.1-4.1zm-104.4 36.5l15.5 0.3c8.6 0.2 24 0.3 34.3 0.3h18.8v8.3h-68.6zm138.1 0.2l33.2 0.2 0.1 4.2 0.2 4.2h-67.2v-4c0-2.2 0.1-4.2 0.3-4.4 0.1-0.1 15.2-0.2 33.4-0.2zm-76.7 36.4h7l0.1 4.7 0.1 4.7-34.4-0.1-34.4-0.2-0.3-8.9 27.5-0.1c15.1-0.1 30.6-0.1 34.4-0.1zm43 0.2h67.2l-0.2 4.2-0.1 4.3h-66.7l-0.1-4.3zm-115.4 74.8h4.1c4.4 0 6.4 0.7 8.2 2.9 0.8 1 0.9 1.5 0.9 4.2 0 2.9-0.1 3.1-1.2 4.5l-1.3 1.5 1.4 1.4c1.1 1.1 1.5 2 1.8 3.7 0.8 4.1-0.4 7.3-3.3 9.1-1.5 0.9-2.3 1.1-6.1 1.1h-4.5zm30.8 2.9c3.7 5 4.5 13.7 1.8 20-2.2 5.5-5.8 7.5-10 5.7-2-0.9-2.7-1.6-4.5-4.9-2.7-5-2.9-12-0.5-17.8 1.4-3.2 2.4-4.3 4.9-5.3 3.4-1.3 6.3-0.5 8.3 2.3zm22.1 4.4c0.7 2.1 0.8 3.4 0.8 7.3 0 5.6-0.4 7.2-2.9 10.4-3 4-6.5 5.2-10 3.4-3.1-1.7-5-5.7-5.7-11.7-0.4-4.5 0-7.3 1.6-11.2 1.1-2.7 1.5-3.1 3.3-4.2 5.3-3.2 10.6-0.7 12.9 6zm2.9-7.3h4.6v4.7 4.7l1.8-2.3c0.9-1.3 2.5-3.4 3.4-4.8l1.7-2.4 2.3 0.1 2.2 0.2-3.7 5.5c-2 3-3.8 5.7-3.9 6.1-0.2 0.6 2.5 6.8 4.4 9.9 1.6 2.6 3.4 6.1 3.4 6.4 0 0.2-1.2 0.3-2.8 0.3h-2.8l-1-2.4c-1.4-3.5-4.4-9.5-4.7-9.5-0.2 0-0.4 2.6-0.4 5.8l-0.1 5.9-2.2 0.1-2.2 0.1zm31-0.1l5.3 0.2c4.9 0.2 5.6 0.3 7 1.3 1.9 1.3 2.7 2.9 2.7 5.3 0 1.9-1.4 4.5-2.6 5-0.8 0.3-0.8 0.4 0.2 1.1 4 3 4.3 8.5 0.6 12.6-2 2.1-3.5 2.6-8.8 2.6h-4.4zm30.8 1.3c2.5 1.5 3.6 3.2 4.4 7 0.5 2.2 0.6 3.8 0.5 7.1-0.3 6.4-1.9 10.2-5.1 12.5-1.4 1-2.2 1.2-4.6 1.3-2.1 0-3.2-0.2-3.9-0.8-1.7-1.3-2.9-3.2-3.9-5.7-0.8-2.1-1-3.1-1-7.1 0-7.5 1.9-12.8 5.1-14.6 2.5-1.3 6.1-1.2 8.5 0.3zm15.3-1.2c4.5 0.1 5.8 1.3 8.3 7.5 1.8 4.3 1.8 4.6 1.6 7.5-0.4 6.5-3.5 12.8-6.8 13.8-2.3 0.7-3.3 0.7-5.4-0.2-2.4-1-3.5-2.3-5.1-6-1.1-2.9-1.2-3.4-1.2-7.7 0-6.8 1.7-11.7 4.9-13.9 1.1-0.7 2.1-1 3.7-1zm12.7 0h4.1v5.8 5.9l0.8-1.2c0.4-0.6 1.6-2.5 2.6-4.3 3.5-6.1 3.7-6.3 6-6.1l1.9 0.1-1.4 2.6c-1.7 3.3-3.4 6.4-4.5 8.7l-0.8 1.7 4.1 7.6c2.3 4.2 4 7.7 3.8 7.8-0.1 0.1-1.1 0.2-2.1 0.2-2.2 0.1-2.4-0.1-4.1-3.8-1.8-3.7-4.5-7.6-5.4-7.6-1.1 0-1.3 0.8-1.3 6.5v5h-3.7zm18.6 0h11.2v3.2l-3.5 0.1-3.5 0.1-0.1 3.8-0.1 3.8h2.8c3.1 0 3.5 0.3 3.1 2.5-0.2 1.1-0.4 1.1-3.1 1.1h-2.8v8.8h6.4v5h-10.9v-10.7c0-5.9 0.1-12.3 0.2-14.2zm14.6 0h4.7c4.1 0 4.8 0.1 6.5 1.1 1 0.6 2.1 1.8 2.5 2.5 0.7 1.5 0.9 4.8 0.2 6.8-0.5 1.6-2.1 3.8-3.3 4.3l-1 0.5 1.5 0.9c1.5 1 2.3 2.7 3.5 7.6 0.3 1.5 0.7 2.8 0.9 3.1 0.9 1.2 0.3 1.6-2.3 1.6-2.3 0-2.6-0.1-2.6-0.9 0-1.5-2-8-2.9-9.5-0.7-1.2-1.2-1.5-2.2-1.5h-1.3v11.9l-2.2-0.1-2.1-0.1v-2.5c0-1.4 0-7.8 0-14.1zm-87.5 3.9c-0.2 0.2-0.3 1.6-0.3 3.2 0 2.8 0 2.9 1.1 3.2 1.4 0.3 4.3-0.6 5.1-1.7 0.8-1 0.9-3 0.1-4-0.7-0.8-5.5-1.4-6-0.7zm18.2 3.7c-1.2 3.2-1.6 7.1-1.1 10.6 0.2 1.7 0.5 3.3 0.6 3.6 0.6 1.3 2.9 2.9 4.1 2.9 1.9 0 3.1-1.2 4.3-4.3 1.6-4 1.6-8.5 0-12.4-0.5-1.5-1.3-3-1.6-3.3-1.9-1.9-5-0.5-6.3 2.9zm75.4-4h-1.9v7.8h1.5c2.1 0 3.6-1 4.1-2.7 0.5-1.7-0.1-4-1.1-4.6-0.4-0.3-1.5-0.5-2.6-0.5zm-181 3.8v2.6h2.2c2.4 0 3.1-0.5 3.1-2.3 0-1.6-1.2-3-2.8-3.3-2.4-0.6-2.5-0.5-2.5 3zm36.5 1.5c-1.3 3.4-1.3 9.8 0 12.3 2.2 4.2 6.6 4.1 8.4-0.3 0.7-1.6 0.8-2.5 0.6-6-0.1-5-1.5-9-3.3-10.1-2.3-1.5-4.1-0.3-5.7 4.1zm-14.9-4.4c-1.9 0.1-3.9 2.7-4.7 6.2-0.6 2.5-0.3 7.9 0.6 10 1.1 2.8 4.5 4 7 2.4 3.4-2.2 2.6-16.1-1-17.9-0.7-0.4-1.5-0.7-1.9-0.7zm103.7 3.5c-1 2.6-1 11.8 0 13.7 1.1 1.9 2.8 3.1 4.5 2.8 2-0.3 3.1-1.2 4-3.8 0.8-1.9 0.9-2.7 0.7-6.4-0.2-4.8-1.1-7.7-2.9-9-2.3-1.6-5-0.4-6.3 2.7zm-35.2 7.1h-2.6v8.2h2.2c3.7 0 4.9-1.1 4.9-4.9 0-1-0.3-1.7-1-2.4-0.8-0.7-1.5-0.9-3.5-0.9zm-88.1 0.4h-1.6v3.6c0 4.6 0.2 4.9 2.4 4.5 2.2-0.3 3.2-1 3.6-2.4 0.5-1.5-0.5-4.3-1.9-5.1-0.5-0.3-1.7-0.5-2.5-0.6zm254.4 80.7h30.2v7.3h-30.2z"/><path class="b" d="m132 380.7h229.6v38.3h-229.6z"/><path fill-rule="evenodd" class="c" d="m151.1 420.5q0 4.6-1.7 7.9-1.7 3.4-4.6 5.2-2.9 1.8-6.6 1.8-3.7 0-6.6-1.8-2.9-1.8-4.6-5.2-1.6-3.3-1.6-7.9 0-4.6 1.6-8 1.7-3.4 4.6-5.2 2.9-1.8 6.6-1.8 3.7 0 6.6 1.8 2.9 1.8 4.6 5.2 1.7 3.4 1.7 8zm-3.4 0q0-3.8-1.3-6.4-1.3-2.6-3.4-4-2.1-1.3-4.8-1.3-2.6 0-4.8 1.3-2.1 1.4-3.4 4-1.2 2.6-1.2 6.4 0 3.7 1.2 6.3 1.3 2.6 3.4 4 2.2 1.3 4.8 1.3 2.7 0 4.8-1.3 2.1-1.4 3.4-4 1.3-2.6 1.3-6.3zm9.3 14.5v-29.1h9.8q3.4 0 5.6 1.2 2.2 1.1 3.3 3.1 1 2.1 1 4.6 0 2.6-1 4.6-1.1 2-3.3 3.1-0.5 0.3-1.1 0.5l6.5 12h-4l-6.2-11.4q-0.3 0-0.7 0h-6.4v11.4zm3.5-11.4v-3.1h-1.6v3.1zm6.3-3.1q2.3 0 3.7-0.7 1.5-0.7 2.1-2 0.7-1.2 0.7-3 0-1.7-0.7-3-0.6-1.3-2.1-2-1.4-0.8-3.8-0.8h-6.2v11.5zm24.8 14.5h-8.9v-29.1h9.3q4.3 0 7.3 1.8 3 1.7 4.6 4.9 1.6 3.3 1.6 7.8 0 4.5-1.6 7.8-1.6 3.3-4.7 5.1-3.1 1.7-7.6 1.7zm-5.4-3.1h5.2q3.6 0 6-1.4 2.4-1.4 3.5-4 1.2-2.6 1.2-6.1 0-3.5-1.2-6.1-1.1-2.5-3.4-3.9-2.3-1.4-5.7-1.4h-5.6zm25.2 3.2v-29.1h17.6v3.1h-14.1v9.8h13.2v3.1h-13.2v9.9h14.3v3.2zm23.9 0v-29.1h9.8q3.4 0 5.6 1.1 2.2 1.2 3.3 3.2 1 2 1 4.6 0 2.6-1 4.5-1.1 2-3.3 3.2-0.5 0.3-1.1 0.5l6.6 12h-4.1l-6.2-11.4q-0.3 0-0.7 0h-6.4v11.4zm3.5-11.4v-3.2h-1.5v3.2zm6.2-3.2q2.3 0 3.8-0.7 1.4-0.7 2-1.9 0.7-1.3 0.7-3 0-1.8-0.7-3.1-0.6-1.3-2.1-2-1.4-0.7-3.8-0.7h-6.1v11.4zm27 14.6v-29.1h10.2q3 0 5 1 2 1.1 2.9 2.8 1 1.8 1 3.9 0 1.9-0.7 3.1-0.6 1.2-1.7 1.9-1.1 0.7-2.3 1.1v0.3q1.3 0 2.7 0.9 1.3 0.8 2.2 2.4 0.9 1.6 0.9 3.9 0 2.2-0.9 4-1 1.7-3.2 2.7-2.1 1.1-5.6 1.1zm3.6-3.2h6.9q3.5 0 4.9-1.3 1.5-1.4 1.5-3.3 0-1.4-0.7-2.7-0.8-1.3-2.2-2-1.4-0.8-3.3-0.8h-7.1zm0-13.2h6.5q1.6 0 2.9-0.6 1.2-0.6 2-1.7 0.8-1.2 0.8-2.7 0-1.9-1.4-3.3-1.3-1.3-4.2-1.3h-6.6zm47 1.7q0 4.6-1.7 8-1.6 3.3-4.5 5.2-2.9 1.8-6.7 1.8-3.7 0-6.6-1.8-2.9-1.9-4.5-5.2-1.7-3.4-1.7-8 0-4.6 1.7-7.9 1.6-3.4 4.5-5.2 2.9-1.8 6.6-1.8 3.8 0 6.7 1.8 2.9 1.8 4.5 5.2 1.7 3.3 1.7 7.9zm-3.4 0q0-3.7-1.3-6.3-1.2-2.6-3.4-4-2.1-1.3-4.8-1.3-2.6 0-4.7 1.3-2.2 1.4-3.4 4-1.3 2.6-1.3 6.3 0 3.8 1.3 6.4 1.2 2.6 3.4 4 2.1 1.3 4.7 1.3 2.7 0 4.8-1.3 2.2-1.4 3.4-4 1.3-2.6 1.3-6.4zm33.9 0q0 4.6-1.7 8-1.7 3.3-4.6 5.2-2.9 1.8-6.6 1.8-3.7 0-6.6-1.8-2.9-1.9-4.6-5.2-1.6-3.4-1.6-8 0-4.6 1.6-7.9 1.7-3.4 4.6-5.2 2.9-1.8 6.6-1.8 3.7 0 6.6 1.8 2.9 1.8 4.6 5.2 1.7 3.3 1.7 7.9zm-3.5 0q0-3.7-1.2-6.3-1.3-2.6-3.4-4-2.1-1.3-4.8-1.3-2.6 0-4.8 1.3-2.1 1.4-3.4 4-1.2 2.6-1.2 6.3 0 3.8 1.2 6.4 1.3 2.6 3.4 4 2.2 1.3 4.8 1.3 2.7 0 4.8-1.3 2.1-1.4 3.4-4 1.2-2.6 1.2-6.4zm9.4 14.6v-29.1h3.5v14.4h0.3l13.1-14.4h4.6l-12.2 13.1 12.2 16h-4.2l-10.2-13.5-3.6 4.1v9.4z"/><path fill-rule="evenodd" class="c" d="m151.6 420.5q0 4.6-1.7 8.1l-0.9-0.4q1.6-3.2 1.6-7.7zm-1.7 8.1q-1.8 3.5-4.8 5.4l-0.5-0.8q2.8-1.8 4.4-5zm-11.7 7.3q-3.8 0-6.9-1.9l0.6-0.9q2.7 1.8 6.3 1.8zm-6.9-1.9q-3-1.9-4.7-5.4l0.9-0.5q1.6 3.3 4.4 5zm-6.5-13.5q0-4.7 1.7-8.2l0.9 0.4q-1.6 3.3-1.6 7.8zm13.4-15.5q3.8 0 6.8 1.9l-0.5 0.9q-2.7-1.8-6.3-1.8zm6.8 1.9q3.1 1.9 4.8 5.4l-0.9 0.4q-1.6-3.2-4.4-4.9zm0.8 7.4v-0.1l0.5-0.2zm-3.2-3.7l0.3-0.4zm-9.1 0q-2 1.2-3.2 3.7l-0.9-0.4q1.3-2.7 3.6-4.2zm-4.1 3.3l0.4 0.2zm0 13.2l0.5-0.2zm3.6 4.2l0.2-0.5zm5.1 0.4q2.5 0 4.5-1.2l0.5 0.8q-2.2 1.4-5 1.4zm7.7-4.9l0.4 0.2zm3.5 1.8l-0.4-0.3zm-4.3 5.6q-3.1 1.9-6.9 1.9v-1q3.6 0 6.3-1.7zm-0.2-0.4l0.2 0.4zm-13.2 0l-0.3 0.4zm-5-4.9q-1.7-3.5-1.7-8.2h1q0 4.5 1.6 7.7zm0.5-0.2l0.4-0.2zm-0.4-16.2q1.7-3.4 4.7-5.3l0.5 0.8q-2.7 1.8-4.3 5zm0.4 0.2l-0.4-0.2zm4.3-5.6q3-1.9 6.8-1.9v1q-3.5 0-6.3 1.7zm13.5 0.5l0.3-0.5zm5 5q1.7 3.5 1.7 8.2h-1q0-4.5-1.6-7.8zm-0.5 0.3l-0.4 0.2zm-2.3 7.9q0-3.7-1.2-6.1l0.9-0.5q1.3 2.8 1.3 6.6zm-1.2-6.1q-1.2-2.5-3.2-3.8l0.5-0.8q2.3 1.4 3.6 4.1zm-3.2-3.7q-2-1.2-4.5-1.2v-1q2.8-0.1 5 1.4zm-4.5-1.3q-2.5 0-4.5 1.3l-0.5-0.9q2.2-1.4 5-1.4zm-5 0.4l0.2 0.4zm-2.6 4.6q-1.2 2.5-1.2 6.2h-1q0-3.9 1.3-6.6zm-1.2 6.1q0 3.7 1.2 6.2l-0.9 0.4q-1.3-2.7-1.3-6.6zm1.2 6.2q1.2 2.5 3.2 3.7l-0.6 0.9q-2.2-1.5-3.5-4.2zm3.2 3.8q2 1.2 4.5 1.2v1q-2.8 0-5.1-1.4zm9.1 0l0.2 0.4zm0 0q2-1.2 3.2-3.7l0.9 0.4q-1.3 2.8-3.5 4.2zm3.2-3.7q1.2-2.5 1.2-6.2h1q0 3.9-1.3 6.6zm11 8.9h-0.5v-0.5h0.5zm-0.5-29.6v-0.5h0.5v0.5zm15.7 1.6l0.2-0.4zm0.5-0.9q2.3 1.2 3.5 3.4l-0.9 0.4q-1-1.9-3.1-2.9zm4.6 8.2q0 2.6-1.1 4.7l-0.9-0.4q1-1.9 1-4.3zm-6.1 6.8l7.2 13.1-0.9 0.5-7.2-13.1zm-12.2 2.4h-0.5v-0.5h0.5zm-0.5-3.6v-0.5h0.5v0.5zm11.9-1.2l0.2 0.5zm1.9-1.7l0.4 0.2zm-1.8-7.4l0.2-0.5zm-10.3-1.1v-0.5h0.5v0.5zm1 25.9v0.5h-0.5v-0.5zm9.7-13.5h0.3l0.1 0.2-0.4 0.3zm7.6 13.3l0.4 0.7h-0.9v-0.5zm-4.5 0.8h-0.3l-0.1-0.3 0.4-0.2zm-7.5-13.4l-0.4-0.7h0.9v0.5zm-9.8 12.8v-29.1h1v29.1zm0.5-29.6h9.8v1h-9.8zm9.8 0q3.5 0 5.9 1.3l-0.5 0.9q-2.1-1.1-5.4-1.2zm9.3 4.6q1.1 2.2 1.1 4.9h-1q0-2.5-1-4.4zm-0.4 0.2l-0.5 0.3zm0.5 9.4q-1.2 2.1-3.5 3.3l-0.4-0.9q2-1.1 3-2.9zm-0.5-0.2l-0.4-0.3zm-2.3 15.9l-7.1-13.1 0.9-0.5 7 13.1zm-6.4-11.1h-7.9v-1h7.9zm-8.4-0.5v-3.2h1v3.2zm0.5-3.7h7.8v1h-7.8zm7.8 0q2.3 0 3.5-0.6l0.5 0.9q-1.6 0.7-4 0.7zm3.5-0.6q1.3-0.6 1.9-1.7l0.9 0.4q-0.8 1.4-2.3 2.2zm1.8-1.7q0.6-1.2 0.6-2.8h1q0 1.8-0.7 3.2zm0.6-2.7q0-1.7-0.6-2.9l0.9-0.4q0.7 1.4 0.7 3.3zm-0.6-2.9q-0.6-1.1-1.9-1.8l0.5-0.9q1.5 0.8 2.3 2.3zm-1.9-1.8q-1.3-0.7-3.6-0.7v-1q2.5 0 4.1 0.8zm-3.6-0.7h-6.2v-1h6.2zm-5.7-0.5v26h-1v-26zm-0.5 26.5h-3.5v-1h3.5zm12.2-12.6l-0.3-0.4zm5.2 12.5h-4.1v-1h4.1zm-5.2-12.5q-2.3 1.2-5.8 1.2v-1q3.3 0 5.4-1.1zm-6-1.5h4v1h-4zm15.9 14.1h-0.5v-0.5h0.5zm-0.5-29.6v-0.5h0.5v0.5zm16.8 2.1l0.3-0.4zm5.3 4.3q1.7 3.4 1.7 8h-1q0-4.4-1.6-7.5zm1.7 8q0 4.6-1.7 8l-0.9-0.4q1.6-3.2 1.6-7.6zm-6.6 13.2l-0.3-0.4zm-13.2-1.3h-0.5v-0.5h0.5zm5.2-1q3.5 0 5.8-1.3l0.5 0.8q-2.6 1.5-6.3 1.5zm10.2-11q0-3.4-1.1-5.8l0.9-0.4q1.2 2.6 1.2 6.2zm-4.3-9.5l0.2-0.5zm-11.5-1.8v-0.5h0.5v0.5zm5.9 26.5h-9v-1h9zm-9.5-0.5v-29.1h1v29.1zm0.5-29.6h9.4v1h-9.4zm9.4 0q4.4 0 7.5 1.8l-0.5 0.9q-2.9-1.7-7-1.7zm7.5 1.8q3.2 1.8 4.8 5.2l-0.9 0.5q-1.5-3.2-4.4-4.8zm3.9 5.6l0.5-0.2zm0.9 15.6q-1.7 3.4-5 5.2l-0.5-0.8q3-1.7 4.6-4.9zm-0.5-0.2l0.5 0.2zm-4.5 5.5q-3.2 1.8-7.8 1.8v-1q4.3 0 7.3-1.7zm-13.2-2.3h5.2v1h-5.2zm10.9-1.3q2.3-1.3 3.4-3.7l0.9 0.4q-1.3 2.7-3.8 4.2zm0.3 0.4l-0.3-0.4zm3.1-4.2q1.1-2.5 1.1-5.9h1q0 3.6-1.2 6.3zm0-11.8l0.5-0.2zm0 0q-1.1-2.4-3.2-3.7l0.5-0.8q2.4 1.4 3.6 4.1zm-3.2-3.7q-2.2-1.3-5.5-1.3v-1q3.5 0 6 1.5zm-5.5-1.3h-5.6v-1h5.6zm-5.1-0.5v22.8h-1v-22.8zm24.7 26.4h-0.5v-0.5h0.5zm-0.5-29.6v-0.5h0.5v0.5zm18.1-0.5h0.5v0.5h-0.5zm0.5 3.7v0.5h-0.5v-0.5zm-15 0v-0.5h0.5v0.5zm0.5 10.3h-0.5v-0.5h0.5zm13.1-1h0.5v0.5h-0.5zm0.5 3.6v0.5h-0.5v-0.5zm-14.1 0v-0.5h0.5v0.5zm0.5 10.4h-0.5v-0.5h0.5zm14.2-1h0.5v0.5h-0.5zm0.5 3.6v0.5h-0.5v-0.5zm-18.8 0v-29.1h1v29.1zm0.5-29.6h17.6v1h-17.6zm18.1 0.5v3.2h-1v-3.2zm-0.5 3.7h-14v-1h14zm-13.5-0.5v9.8h-1v-9.8zm-0.5 9.3h13.1v1h-13.1zm13.6 0.5v3.1h-1v-3.1zm-0.5 3.6h-13.1v-1h13.1zm-12.6-0.5v9.9h-1v-9.9zm-0.5 9.4h14.2v1h-14.2zm14.7 0.5v3.1h-1v-3.1zm-0.5 3.6h-17.8v-1h17.8zm6.2 0h-0.5v-0.5h0.5zm-0.5-29.6v-0.5h0.5v0.5zm15.6 1.6l0.3-0.4zm0.4-0.9q2.4 1.2 3.5 3.4l-0.9 0.5q-1-1.9-3-3zm4.5 8.2q0 2.7-1.1 4.8l-0.9-0.5q1-1.8 1-4.3zm-6 6.9l7.1 13-0.9 0.5-7.1-13.1zm-12.2 2.5h-0.5v-0.5h0.5zm-0.5-3.7v-0.5h0.5v0.5zm11.9-1.1l0.2 0.4zm1.8-1.7l0.5 0.2zm-1.9-7.4l0.2-0.4zm-10.3-1.2v-0.5h0.5v0.5zm1 26v0.5h-0.5v-0.5zm9.7-13.6h0.3l0.2 0.3-0.5 0.2zm7.6 13.3l0.4 0.8h-0.8v-0.5zm-4.5 0.7h-0.3l-0.2-0.2 0.5-0.3zm-7.5-13.3l-0.4-0.8h0.8v0.5zm-9.8 12.9v-29.1h1v29.1zm0.5-29.6h9.9v1h-9.9zm9.9 0q3.5 0 5.8 1.2l-0.5 0.9q-2-1.1-5.3-1.1zm9.2 4.6q1.1 2.1 1.1 4.8h-1q0-2.5-0.9-4.4zm-0.5 0.3l-0.4 0.2zm0.4 9.4q-1.1 2.1-3.4 3.3l-0.5-0.9q2.1-1 3-2.9zm-0.4-0.2l-0.5-0.2zm-2.3 15.8l-7.1-13.1 0.9-0.4 7.1 13zm-6.5-11.1h-7.9v-1h7.9zm-8.4-0.5v-3.1h1v3.1zm0.5-3.6h7.8v1h-7.8zm7.8 0q2.3-0.1 3.6-0.7l0.4 0.9q-1.6 0.8-4 0.8zm3.6-0.7q1.3-0.6 1.8-1.7l0.9 0.5q-0.7 1.4-2.3 2.1zm1.8-1.7q0.6-1.1 0.6-2.8h1q0 1.9-0.7 3.3zm0.6-2.8q0-1.7-0.6-2.8l0.9-0.5q0.7 1.4 0.7 3.3zm-0.6-2.8q-0.5-1.2-1.8-1.8l0.4-0.9q1.6 0.7 2.3 2.2zm-1.9-1.8q-1.2-0.6-3.5-0.7v-1q2.4 0 4 0.8zm-3.6-0.6h-6.2v-1h6.2zm-5.7-0.5v25.9h-1v-25.9zm-0.5 26.4h-3.5v-1h3.5zm12.2-12.5l-0.2-0.5zm5.1 12.6h-4.1v-1h4.1zm-5.1-12.6q-2.4 1.2-5.8 1.2v-1q3.3 0 5.3-1.1zm-6-1.5h4v1h-4zm27.2 14.1h-0.5v-0.5h0.5zm-0.5-29.6v-0.5h0.5v0.5zm15.4 1.5l0.2-0.5zm2.8 2.6l0.4-0.2zm0.3 6.5l0.5 0.2zm-1.6 1.8l0.3 0.4zm-2.6 1.5v-0.4l0.4-0.1 0.1 0.5zm0.5 0.8l-0.5-0.1v-0.4h0.5zm0.1-1q1.5 0.1 2.9 1l-0.5 0.8q-1.3-0.8-2.5-0.8zm6.3 7.7q0 2.3-1 4.2l-0.9-0.5q0.9-1.6 0.9-3.7zm-1 4.2q-1.1 1.9-3.4 3l-0.4-0.9q2-1 2.9-2.6zm-16.1 0.9h-0.5v-0.5h0.5zm11.5-2.2q1.3-1.2 1.3-2.9h1q0 2.2-1.6 3.7zm0.6-5.4l0.5-0.3zm-2-1.8l0.2-0.4zm-10.7-1.2v-0.5h0.5v0.5zm0.5-2.6h-0.5v-0.5h0.5zm9.2-1.6l0.2 0.5zm1.9-1.6l0.4 0.3zm-0.5-5.3l0.3-0.4zm-11-1.7v-0.5h0.5v0.5zm-3.5 26v-29.1h1v29.1zm0.5-29.6h10.2v1h-10.2zm10.2 0q3.1 0 5.2 1.1l-0.5 0.9q-1.8-1-4.7-1zm5.2 1.1q2.1 1.1 3.1 3l-0.8 0.5q-0.9-1.7-2.8-2.6zm3.2 3q1 1.8 1 4.1h-1q0-2-0.9-3.6zm1 4.1q0 1.9-0.7 3.3l-0.9-0.5q0.6-1 0.6-2.8zm-0.7 3.3q-0.7 1.3-1.9 2.1l-0.5-0.8q0.9-0.6 1.5-1.8zm-1.9 2.1q-1.1 0.8-2.4 1.2l-0.3-1q1.2-0.3 2.2-1zm-2.1 0.6v0.3h-1v-0.3zm2.4 0.8q1.5 1 2.5 2.7l-0.9 0.5q-0.9-1.5-2.1-2.3zm-0.3 0.4l-0.2 0.4zm2.7 2.2q0.9 1.8 0.9 4.2h-1q0-2.2-0.8-3.7zm-0.5 8.1l0.4 0.3zm-2.9 3.2q-2.3 1.1-5.8 1v-1q3.4 0 5.4-0.9zm-0.3-0.5l-0.2-0.4zm-5.6 1.5h-10.5v-1h10.5zm-6.9-4.1h6.9v1h-6.9zm6.9 0c2.3 0 3.8-0.5 4.6-1.2l0.7 0.7c-1.1 1-2.9 1.5-5.3 1.5zm5.3-0.5l-0.4-0.4zm0.7-3.6q0-1.3-0.7-2.5l0.8-0.5q0.9 1.4 0.9 3zm-0.7-2.5q-0.7-1.1-2-1.8l0.5-0.9q1.5 0.8 2.3 2.2zm-1.9-1.8q-1.3-0.7-3.1-0.7v-1q2 0 3.6 0.8zm-3.1-0.7h-7.1v-1h7.1zm-6.6-0.5v10.1h-1v-10.1zm-0.5-3.6h6.5v1h-6.5zm6.5 0q1.5 0 2.6-0.5l0.5 0.9q-1.4 0.6-3.1 0.6zm2.6-0.5q1.2-0.6 1.9-1.6l0.8 0.5q-0.8 1.3-2.2 2zm1.8-1.6q0.7-1 0.7-2.4h1q0 1.6-0.8 2.9zm0.6-2.4q0-1.7-1.2-2.9l0.8-0.7q1.4 1.5 1.4 3.6zm-1.2-2.9c-0.7-0.7-2-1.2-3.8-1.2v-1c2 0 3.5 0.5 4.6 1.5zm-3.9-1.2h-6.7v-1h6.7zm-6.2-0.5v9.7h-1v-9.7zm47.1 11.4q0 4.7-1.7 8.2l-0.9-0.4q1.6-3.2 1.6-7.8zm-1.7 8.2q-1.8 3.5-4.8 5.4l-0.5-0.9q2.7-1.7 4.4-4.9zm-11.7 7.2q-3.8 0-6.9-1.8l0.6-0.9q2.7 1.7 6.3 1.7zm-6.9-1.8q-3-2-4.7-5.4l0.9-0.5q1.6 3.3 4.4 5zm-6.5-13.5q0-4.7 1.7-8.2l0.9 0.4q-1.6 3.2-1.6 7.8zm13.4-15.5q3.8 0 6.8 1.9l-0.5 0.9q-2.8-1.8-6.3-1.8zm6.8 1.9q3.1 1.9 4.8 5.4l-0.9 0.4q-1.6-3.2-4.4-4.9zm0.8 7.3l0.5-0.2zm-3.2-3.7l0.2-0.4zm-9 0q-2 1.2-3.2 3.7l-0.9-0.4q1.3-2.7 3.6-4.2zm-4.1 3.3l0.4 0.2zm0 13.2l0.5-0.2zm3.6 4.1l0.2-0.4zm5.1 0.4q2.5 0 4.5-1.2l0.5 0.8q-2.2 1.4-5 1.4zm7.7-5l0.4 0.3zm3.5 1.8l-0.4-0.3zm-4.3 5.6q-3.1 1.9-6.9 1.9v-1q3.6 0 6.3-1.7zm-0.2-0.4l0.2 0.4zm-13.2 0l-0.3 0.4zm-5-4.9q-1.7-3.5-1.7-8.2h1q0 4.5 1.6 7.7zm0.5-0.2l0.4-0.2zm-0.4-16.2q1.7-3.4 4.7-5.3l0.5 0.8q-2.7 1.7-4.3 5zm0.4 0.2l-0.4-0.2zm4.3-5.6q3-1.9 6.8-1.9v1q-3.6 0-6.3 1.7zm13.5 0.5l0.3-0.5zm5 5q1.7 3.5 1.7 8.2h-1q0-4.6-1.6-7.8zm-0.5 0.2l-0.4 0.3zm-2.3 7.9q0-3.7-1.2-6.1l0.9-0.5q1.3 2.8 1.3 6.6zm-1.2-6.1q-1.2-2.5-3.2-3.8l0.5-0.8q2.3 1.4 3.6 4.1zm-3.2-3.7q-2-1.3-4.5-1.3v-1q2.8 0 5 1.5zm-4.5-1.3q-2.5 0-4.5 1.3l-0.5-0.9q2.2-1.4 5-1.4zm-5 0.4l0.2 0.4zm-2.6 4.6q-1.2 2.5-1.2 6.2h-1q0-3.9 1.3-6.6zm-1.2 6.1q0 3.7 1.2 6.2l-0.9 0.4q-1.4-2.7-1.3-6.6zm1.2 6.2q1.2 2.5 3.2 3.7l-0.6 0.9q-2.2-1.5-3.5-4.2zm3.2 3.8q2 1.2 4.5 1.2v1q-2.8 0-5.1-1.4zm9.1 0l0.2 0.4zm0 0q2-1.2 3.2-3.7l0.9 0.4q-1.3 2.8-3.5 4.2zm3.2-3.7q1.2-2.5 1.2-6.2h1q0 3.9-1.3 6.6zm36.1-6.2q0 4.7-1.8 8.2l-0.8-0.4q1.6-3.3 1.6-7.8zm-1.8 8.2q-1.7 3.5-4.7 5.4l-0.5-0.9q2.7-1.7 4.4-4.9zm-11.7 7.2q-3.8 0-6.9-1.9l0.6-0.8q2.7 1.7 6.3 1.7zm-6.9-1.9q-3-1.9-4.7-5.3l0.9-0.5q1.6 3.3 4.4 5zm-6.5-13.6q0-4.7 1.7-8.1l0.9 0.4q-1.6 3.2-1.6 7.7zm13.4-15.4q3.8 0 6.8 1.9l-0.5 0.8q-2.8-1.7-6.3-1.7zm6.8 1.9q3.1 1.9 4.8 5.4l-0.9 0.4q-1.6-3.2-4.4-5zm2.1 13.6q0-3.7-1.3-6.2l0.9-0.4q1.4 2.7 1.4 6.6zm-4.5-9.9l0.3-0.4zm-9 0q-2 1.2-3.2 3.7l-0.9-0.4q1.3-2.7 3.5-4.2zm-4.1 3.3l0.5 0.2zm0 13.2l0.4-0.2zm3.6 4.1l0.3-0.4zm5 0.4q2.5 0 4.5-1.2l0.6 0.8q-2.3 1.4-5.1 1.4zm7.7-5q1.3-2.4 1.3-6.1h1q0 3.8-1.4 6.6zm3.5 1.8l-0.4-0.2zm-4.3 5.5q-3.1 1.9-6.9 1.9v-1q3.6 0 6.3-1.7zm-0.2-0.4l0.2 0.4zm-13.2 0l-0.3 0.4zm-5-4.9q-1.7-3.5-1.7-8.2h1q0 4.5 1.6 7.7zm0.5-0.2l0.4-0.2zm-0.4-16.1q1.7-3.5 4.7-5.4l0.5 0.8q-2.7 1.8-4.3 5zm0.4 0.2l-0.4-0.2zm4.3-5.6q3-1.9 6.8-1.9v1q-3.6 0-6.3 1.8zm13.5 0.4l0.3-0.4zm5 4.9q1.7 3.5 1.7 8.2h-1q0-4.5-1.6-7.8zm-0.5 0.3l-0.4 0.2zm-3.5 1.8l0.5-0.2zm0 0q-1.2-2.5-3.2-3.8l0.5-0.8q2.3 1.4 3.6 4.1zm-3.2-3.7q-2.1-1.3-4.6-1.3v-1q2.8 0 5.1 1.5zm-4.5-1.3q-2.5 0-4.5 1.3l-0.6-0.9q2.3-1.4 5.1-1.4zm-5.1 0.4l0.3 0.4zm-2.7 4.6q-1.2 2.5-1.2 6.2h-1q0-3.9 1.3-6.6zm-1.2 6.1q0 3.7 1.2 6.2l-0.9 0.4q-1.3-2.7-1.3-6.6zm1.2 6.2q1.2 2.5 3.2 3.7l-0.5 0.9q-2.3-1.5-3.6-4.2zm3.2 3.8q2 1.2 4.5 1.2v1q-2.7 0-5-1.4zm9 0l0.3 0.4zm0 0q2-1.2 3.2-3.7l0.9 0.4q-1.3 2.8-3.6 4.2zm3.2-3.7l0.5 0.2zm11 8.9h-0.5v-0.5h0.5zm-0.5-29.6v-0.5h0.5v0.5zm4-0.5h0.5v0.5h-0.5zm0 15.4h-0.5v-0.5h0.5zm0.8-0.2l-0.2 0.2h-0.2v-0.5zm12.3-15.1l0.2-0.2h0.2v0.5zm5-0.1h1.1l-0.8 0.8-0.3-0.3zm-18.1 14.6l13.1-14.5 0.7 0.7-13 14.4zm18.4 14.7l0.6 0.8h-1v-0.5zm-4.7 0.8h-0.2l-0.2-0.2 0.4-0.3zm-10.5-14.3l0.5-0.5 0.3 0.5-0.4 0.3zm-3.7 4.4v-0.2l0.1-0.1 0.4 0.3zm1 9.5v0.5h-0.5v-0.5zm-4.6 0v-29.1h1v29.1zm0.5-29.6h3.6v1h-3.6zm4.1 0.5v14.4h-1v-14.4zm-0.5 13.9h0.3v1h-0.3zm5.4-0.5l-0.3-0.3 0.3-0.3 0.4 0.3zm8-13.9h4.6v1h-4.6zm4.9 0.8l-12.2 13.1-0.7-0.6 12.2-13.2zm-12.2 12.5l12.2 16-0.8 0.6-12.2-16zm11.8 16.8h-4.2v-1h4.2zm-4.6-0.2l-10.1-13.5 0.8-0.6 10.1 13.5zm-9.4-13.5l-3.6 4.1-0.7-0.7 3.6-4.1zm-3.5 3.8v9.4h-1v-9.4zm-0.5 9.9h-3.5v-1h3.5z"/><path class="b" d="m408 449h71v36h-71z"/></g></g></svg>