<?xml version="1.0" encoding="utf-8"?>
<!-- Generator: Adobe Illustrator 24.1.1, SVG Export Plug-In . SVG Version: 6.00 Build 0)  -->
<svg version="1.1" id="Capa_1" xmlns="http://www.w3.org/2000/svg" xmlns:xlink="http://www.w3.org/1999/xlink" x="0px" y="0px"
	 viewBox="0 0 134.9 134.9" style="enable-background:new 0 0 134.9 134.9;" xml:space="preserve">
<style type="text/css">
	.st0{fill:#1D1D1B;}
	.st1{fill:#EDDFD6;}
	.st2{fill:#222222;}
	.st3{fill:#EDDFD6;stroke:#1D1D1B;stroke-width:0.42;stroke-linecap:round;stroke-linejoin:round;}
	.st4{fill:#1D1D1B;stroke:#EDDFD6;stroke-width:0.42;stroke-miterlimit:10;}
	.st5{fill:none;stroke:#1D1D1B;stroke-width:0.42;stroke-miterlimit:10;}
	.st6{fill:#00AEEF;}
	.st7{enable-background:new    ;}
	.st8{fill:#EDDFD6;stroke:#1D1D1B;stroke-width:0.6437;stroke-miterlimit:10;}
	.st9{fill:#EDDFD6;stroke:#1D1D1B;stroke-width:0.6073;stroke-miterlimit:10;}
	.st10{fill:#EDDFD6;stroke:#1D1D1B;stroke-width:0.5101;stroke-miterlimit:10;}
	.st11{fill:#EDDFD6;stroke:#1D1D1B;stroke-width:0.42;stroke-miterlimit:10;}
	.st12{fill:#EDDFD6;stroke:#1D1D1B;stroke-width:0.6356;stroke-miterlimit:10;}
	.st13{fill:#EDDFD6;stroke:#1D1D1B;stroke-width:0.5996;stroke-miterlimit:10;}
	.st14{fill:#EDDFD6;stroke:#1D1D1B;stroke-width:0.5037;stroke-miterlimit:10;}
	.st15{fill:#EDDFD6;stroke:#1D1D1B;stroke-width:0.422;stroke-miterlimit:10;}
	.st16{fill:#1D1D1B;stroke:#EDDFD6;stroke-width:0.422;stroke-miterlimit:10;}
	.st17{fill:none;stroke:#1D1D1B;stroke-width:0.422;stroke-miterlimit:10;}
	.st18{fill:none;stroke:#EDDFD6;stroke-width:0.422;stroke-linecap:round;stroke-linejoin:round;}
	.st19{fill:none;stroke:#EDDFD6;stroke-width:17;stroke-miterlimit:10;}
	.st20{fill:#EDDFD6;stroke:#EDDFD6;stroke-width:0.42;stroke-miterlimit:10;}
	.st21{fill:#EDDFD6;stroke:#1D1D1B;stroke-width:0.4786;stroke-miterlimit:10;}
	.st22{fill:#1D1D1B;stroke:#EDDFD6;stroke-width:0.4786;stroke-miterlimit:10;}
	.st23{fill:none;stroke:#1D1D1B;stroke-width:0.4786;stroke-miterlimit:10;}
	.st24{fill:none;stroke:#EDDFD6;stroke-width:0.4786;stroke-miterlimit:10;}
	.st25{fill:none;stroke:#EDDFD6;stroke-width:0.9265;stroke-miterlimit:10;}
	.st26{fill:#1D1D1B;stroke:#EDDFD6;stroke-width:0.53;stroke-miterlimit:10;}
	.st27{font-family:'NotoSans-Bold';}
	.st28{font-size:19px;}
</style>
<g id="_x31_5">
	<rect x="0" y="0" class="st0" width="135" height="135"/>
	<g>
		<g>
			<g>
				<circle class="st26" cx="36.8" cy="59.8" r="12.8"/>
				<circle class="st4" cx="36.8" cy="59.8" r="10.3"/>
			</g>
			<path class="st11" d="M43.3,59.8c-1.8,0-3.4,0.7-4.6,1.9c-1.2,1.2-1.9,2.8-1.9,4.6c0-1.8-0.7-3.4-1.9-4.6
				c-1.2-1.2-2.8-1.9-4.6-1.9c1.8,0,3.4-0.7,4.6-1.9c1.2-1.2,1.9-2.8,1.9-4.6C36.8,56.9,39.7,59.8,43.3,59.8z"/>
		</g>
		<g>
			<g>
				<circle class="st26" cx="98.1" cy="59.8" r="12.8"/>
				<circle class="st4" cx="98.1" cy="59.8" r="10.3"/>
			</g>
			<path class="st11" d="M104.6,59.8c-1.8,0-3.4,0.7-4.6,1.9c-1.2,1.2-1.9,2.8-1.9,4.6c0-1.8-0.7-3.4-1.9-4.6
				c-1.2-1.2-2.8-1.9-4.6-1.9c1.8,0,3.4-0.7,4.6-1.9c1.2-1.2,1.9-2.8,1.9-4.6C98.1,56.9,101,59.8,104.6,59.8z"/>
		</g>
		<g>
			<g>
				<circle class="st26" cx="67.5" cy="44.8" r="12.8"/>
				<circle class="st4" cx="67.5" cy="44.8" r="10.3"/>
			</g>
			<path class="st11" d="M74,44.8c-1.8,0-3.4,0.7-4.6,1.9c-1.2,1.2-1.9,2.8-1.9,4.6c0-1.8-0.7-3.4-1.9-4.6c-1.2-1.2-2.8-1.9-4.6-1.9
				c1.8,0,3.4-0.7,4.6-1.9c1.2-1.2,1.9-2.8,1.9-4.6C67.5,41.9,70.4,44.8,74,44.8z"/>
		</g>
		<g>
			<g>
				<circle class="st26" cx="36.8" cy="90.1" r="12.8"/>
				<circle class="st4" cx="36.8" cy="90.1" r="10.3"/>
			</g>
			<path class="st11" d="M43.3,90.1c-1.8,0-3.4,0.7-4.6,1.9c-1.2,1.2-1.9,2.8-1.9,4.6c0-1.8-0.7-3.4-1.9-4.6
				c-1.2-1.2-2.8-1.9-4.6-1.9c1.8,0,3.4-0.7,4.6-1.9c1.2-1.2,1.9-2.8,1.9-4.6C36.8,87.2,39.7,90.1,43.3,90.1z"/>
		</g>
		<g>
			<g>
				<circle class="st26" cx="98.1" cy="90.1" r="12.8"/>
				<circle class="st4" cx="98.1" cy="90.1" r="10.3"/>
			</g>
			<path class="st11" d="M104.6,90.1c-1.8,0-3.4,0.7-4.6,1.9c-1.2,1.2-1.9,2.8-1.9,4.6c0-1.8-0.7-3.4-1.9-4.6
				c-1.2-1.2-2.8-1.9-4.6-1.9c1.8,0,3.4-0.7,4.6-1.9c1.2-1.2,1.9-2.8,1.9-4.6C98.1,87.2,101,90.1,104.6,90.1z"/>
		</g>
		<g>
			<g>
				<circle class="st26" cx="67.5" cy="75.1" r="12.8"/>
				<circle class="st4" cx="67.5" cy="75.1" r="10.3"/>
			</g>
			<path class="st11" d="M74,75.1c-1.8,0-3.4,0.7-4.6,1.9c-1.2,1.2-1.9,2.8-1.9,4.6c0-1.8-0.7-3.4-1.9-4.6c-1.2-1.2-2.8-1.9-4.6-1.9
				c1.8,0,3.4-0.7,4.6-1.9c1.2-1.2,1.9-2.8,1.9-4.6C67.5,72.2,70.4,75.1,74,75.1z"/>
		</g>
	</g>
	<g>
		<path class="st1" d="M-0.1-0.1h28.5v20.2c0,3.8-3.1,6.8-6.8,6.8H-0.1V-0.1z"/>
		<text transform="matrix(1 0 0 1 2.4319 -2.232)" class="st0 st27 st28">15</text>
		<g>
			<path class="st0" d="M11.2,20.5H8.3v-7.8c0-0.3,0-0.7,0-1.3s0-1,0.1-1.4C8.4,10,8.2,10.2,8,10.4c-0.2,0.2-0.4,0.4-0.6,0.5
				l-1.6,1.3l-1.4-1.7l4.4-3.5h2.4V20.5z"/>
			<path class="st0" d="M19.9,11.8c0.8,0,1.6,0.2,2.2,0.5c0.6,0.3,1.2,0.8,1.5,1.4c0.4,0.6,0.6,1.4,0.6,2.3c0,1.5-0.5,2.6-1.4,3.5
				c-0.9,0.8-2.3,1.3-4,1.3c-0.7,0-1.4-0.1-2-0.2s-1.2-0.3-1.6-0.6v-2.5c0.5,0.2,1,0.4,1.7,0.6c0.7,0.2,1.3,0.3,1.9,0.3
				c0.8,0,1.5-0.2,1.9-0.5c0.4-0.3,0.7-0.9,0.7-1.6c0-1.4-0.9-2.1-2.7-2.1c-0.4,0-0.7,0-1.1,0.1c-0.4,0.1-0.7,0.1-1,0.2l-1.1-0.6
				l0.5-6.9h7.4v2.4h-4.8L18.2,12c0.2,0,0.4-0.1,0.7-0.1C19.2,11.9,19.5,11.8,19.9,11.8z"/>
		</g>
	</g>
</g>
</svg>
