<?xml version="1.0" encoding="utf-8"?>
<!-- Generator: Adobe Illustrator 24.1.1, SVG Export Plug-In . SVG Version: 6.00 Build 0)  -->
<svg version="1.1" id="Capa_1" xmlns="http://www.w3.org/2000/svg" xmlns:xlink="http://www.w3.org/1999/xlink" x="0px" y="0px"
	 viewBox="0 0 134.9 134.9" style="enable-background:new 0 0 134.9 134.9;" xml:space="preserve">
<style type="text/css">
	.st0{fill:#1D1D1B;}
	.st1{fill:#EDDFD6;}
	.st2{fill:#222222;}
	.st3{fill:#EDDFD6;stroke:#1D1D1B;stroke-width:0.42;stroke-linecap:round;stroke-linejoin:round;}
	.st4{fill:#1D1D1B;stroke:#EDDFD6;stroke-width:0.42;stroke-miterlimit:10;}
	.st5{font-family:'NotoSans-Bold';}
	.st6{font-size:19px;}
	.st7{fill:none;stroke:#1D1D1B;stroke-width:0.42;stroke-miterlimit:10;}
	.st8{fill:#00AEEF;}
	.st9{enable-background:new    ;}
	.st10{fill:#EDDFD6;stroke:#1D1D1B;stroke-width:0.6437;stroke-miterlimit:10;}
	.st11{fill:#EDDFD6;stroke:#1D1D1B;stroke-width:0.6073;stroke-miterlimit:10;}
	.st12{fill:#EDDFD6;stroke:#1D1D1B;stroke-width:0.5101;stroke-miterlimit:10;}
</style>
<g id="_x30_1">
	<rect x="-0.2" y="0" class="st0" width="135.6" height="135.4"/>
	<g>
		<g>
			<g>
				<path class="st1" d="M37.8,110.4c-1.7,0-3.3-0.7-4.4-2c-1-1.2-1.4-2.6-1.2-4.1l1.3-8c2.5-15.7,8.8-30.9,18.4-44l3.7-5
					c1-1.4,2.8-2.3,4.7-2.3l7.5,0l7.5,0c1.9,0,3.6,0.9,4.7,2.3l3.7,5c9.6,13.1,15.9,28.3,18.3,44l1.3,8c0.2,1.5-0.2,2.9-1.2,4.1
					c-1.1,1.3-2.7,2-4.4,2H37.8z"/>
				<path class="st0" d="M67.6,45.3l7.5,0c1.8,0,3.5,0.8,4.5,2.2l3.7,5c9.6,13.2,15.9,28.1,18.3,43.9l1.3,8c0.5,3.1-2.1,5.8-5.4,5.8
					H37.8c-3.3,0-5.9-2.8-5.4-5.8l1.3-8c2.5-15.7,8.7-30.7,18.3-43.9l3.7-5c1-1.4,2.7-2.2,4.5-2.2L67.6,45.3 M67.6,44.9L67.6,44.9
					l-7.5,0c-1.9,0-3.7,0.9-4.8,2.4l-3.7,5c-9.6,13.1-15.9,28.4-18.4,44l-1.3,8c-0.2,1.5,0.2,3,1.2,4.2c1.1,1.3,2.8,2.1,4.6,2.1
					h59.6c1.8,0,3.5-0.8,4.6-2.1c1-1.2,1.5-2.7,1.2-4.2l-1.3-8c-2.5-15.7-8.8-30.9-18.4-44l-3.7-5c-1.1-1.5-2.9-2.4-4.8-2.4
					L67.6,44.9L67.6,44.9L67.6,44.9z"/>
			</g>
			<path class="st3" d="M60.5,24.7c0.7,2.7,5.2,8.1,6.6,8.1s6.4-5.4,7.1-8.1l0,0c-0.9,1.9,1.4,5.1,2.4,5.7c1.3,0.8,4.6,1.6,7,0.1
				l0,0c-1.1,2-0.2,4.5,0.7,5.4c1.1,1.1,6.9,2.7,9.4,0.9l0,0L77,46.5l-10.1,0.2l-10.1-0.2l-16.7-9.6l0,0c2.7,1.9,7.8-0.1,8.9-1.2
				c1-1,3.7-3.9,2.5-6.1l0,0c2.5,1.6,5.3,1.4,6.7,0.7C59.8,29.6,61.5,26.7,60.5,24.7"/>
			<rect x="54.8" y="45.3" class="st4" width="25" height="2.7"/>
			<path class="st4" d="M66.8,63.9h0.6c1.1,0,2,0.9,2,2l0,0c0,1.1-0.9,2-2,2h-0.6c-1.1,0-2-0.9-2-2l0,0
				C64.9,64.8,65.7,63.9,66.8,63.9z"/>
			<path class="st4" d="M67.1,89.5h0.7c1.1,0,2,0.9,2,2v1.6c0,1.1-0.9,2-2,2h-0.7c-1.1,0-2-0.9-2-2v-1.6
				C65.1,90.4,66,89.5,67.1,89.5z"/>
			<path class="st4" d="M61.9,84.8c0.8,0,1.4,0.4,1.8,1.1c0.7,1.3,2,2.1,3.9,2.1c2.8,0,3.8-1.4,3.8-2.9c0-1.9-1-2.8-4.6-3.8
				c-6.5-1.9-8.4-4.3-8.4-7.9c0-4.7,4.1-7.2,8.7-7.2s7.2,1.8,8.4,4c0.7,1.3-0.3,2.8-1.8,2.8h-1.5c-0.7,0-1.4-0.4-1.8-1.1
				c-0.4-0.9-1.3-1.7-3.4-1.7c-2.5,0-3.2,1.5-3.2,2.6c0,1.7,0.9,2.4,5,3.6c5.8,1.6,7.9,3.9,7.9,8c0,5.1-3.9,7.6-9.4,7.6
				c-4.4,0-7.5-1.7-8.8-4.5c-0.6-1.3,0.3-2.8,1.8-2.8H61.9L61.9,84.8z"/>
		</g>
		<rect x="58.3" y="48" class="st4" width="4.2" height="8.8"/>
	</g>
	<g>
		<path class="st1" d="M0,0h28.5v20.2c0,3.8-3.1,6.8-6.8,6.8H0V0z"/>
		<g>
			<path class="st0" d="M13.8,14c0,1.5-0.2,2.7-0.5,3.7s-0.8,1.8-1.5,2.4C11.1,20.7,10.2,21,9,21c-1.6,0-2.8-0.6-3.6-1.8
				S4.3,16.2,4.3,14c0-1.5,0.2-2.7,0.5-3.8c0.3-1,0.8-1.8,1.5-2.4C7,7.3,7.9,7.1,9,7.1c1.6,0,2.8,0.6,3.6,1.8
				C13.4,10.1,13.8,11.8,13.8,14z M7.2,14c0,1.5,0.1,2.7,0.4,3.5c0.3,0.8,0.8,1.2,1.5,1.2c0.7,0,1.2-0.4,1.5-1.2
				c0.3-0.8,0.4-1.9,0.4-3.5c0-1.5-0.1-2.7-0.4-3.5C10.2,9.8,9.7,9.4,9,9.4c-0.7,0-1.2,0.4-1.5,1.2C7.3,11.3,7.2,12.5,7.2,14z"/>
			<path class="st0" d="M22.3,20.8h-2.9V13c0-0.3,0-0.7,0-1.3s0-1,0.1-1.4c-0.1,0.1-0.2,0.2-0.4,0.4c-0.2,0.2-0.4,0.4-0.6,0.5
				L17,12.5l-1.4-1.7L20,7.3h2.4V20.8z"/>
		</g>
		<text transform="matrix(1 0 0 1 4.0553 -5.5318)" class="st5 st6">01</text>
	</g>
</g>
</svg>
