<svg id="Capa_1" data-name="Capa 1" xmlns="http://www.w3.org/2000/svg" viewBox="0 0 134.89 134.89"><defs><style>.cls-1,.cls-3{fill:#1d1d1b;}.cls-2{fill:#eddfd6;}.cls-3{font-size:19px;font-family:NotoSans-Bold, Noto Sans;font-weight:700;}.cls-4{fill:#c6bab1;}.cls-5{fill:#edded5;}.cls-6{fill:#a59a94;}.cls-7,.cls-8{fill:#1d1e1c;}.cls-8{opacity:0.19;isolation:isolate;}</style></defs><g id="_29" data-name="29"><path class="cls-1" d="M-.62-.15H135V135.59H-.62V-.15Z"/></g><path class="cls-2" d="M-.29-.18H28.19V20a6.84,6.84,0,0,1-6.84,6.84H-.29Z"/><path class="cls-1" d="M12.33,9.75A3,3,0,0,1,11.48,12,4.29,4.29,0,0,1,9.4,13.13v.06a4.35,4.35,0,0,1,2.47,1,2.79,2.79,0,0,1,.86,2.13,4,4,0,0,1-.58,2.12,3.86,3.86,0,0,1-1.79,1.48,7.65,7.65,0,0,1-3.11.54,9.64,9.64,0,0,1-3.91-.74V17.29A9,9,0,0,0,5.16,18,7.81,7.81,0,0,0,7,18.18a3.31,3.31,0,0,0,2.16-.53,1.87,1.87,0,0,0,.62-1.5,1.6,1.6,0,0,0-.29-.95,1.71,1.71,0,0,0-1-.6,7.76,7.76,0,0,0-2-.2h-1V12.2H6.48A5.88,5.88,0,0,0,8.39,12a1.61,1.61,0,0,0,.89-.65,1.8,1.8,0,0,0,.24-.94,1.46,1.46,0,0,0-.45-1.13,2.21,2.21,0,0,0-1.49-.4,3.86,3.86,0,0,0-1.69.34,11.43,11.43,0,0,0-1.2.64l-1.33-2A7.46,7.46,0,0,1,5.23,6.9a7.54,7.54,0,0,1,2.56-.38,5.77,5.77,0,0,1,3.31.84A2.74,2.74,0,0,1,12.33,9.75Z"/><path class="cls-1" d="M23.65,13.49a13.18,13.18,0,0,1-.46,3.74,4.74,4.74,0,0,1-1.51,2.4,4.38,4.38,0,0,1-2.78.83,3.91,3.91,0,0,1-3.59-1.84,9.75,9.75,0,0,1-1.14-5.13,13.25,13.25,0,0,1,.46-3.75,4.59,4.59,0,0,1,1.5-2.41A4.33,4.33,0,0,1,18.9,6.5a3.93,3.93,0,0,1,3.59,1.84A9.61,9.61,0,0,1,23.65,13.49Zm-6.63,0a11.34,11.34,0,0,0,.4,3.49,1.52,1.52,0,0,0,3,0,11,11,0,0,0,.42-3.5,11.09,11.09,0,0,0-.42-3.5,1.52,1.52,0,0,0-3,0A11.5,11.5,0,0,0,17,13.49Z"/><text class="cls-3" transform="translate(2.22 -2.32)">30</text><path class="cls-4" d="M57.78,62.85c-2.3,1.42-5.93,3.73-10.54,6.26-8.79,4.72-13.19,6-21.54,10.44A143.77,143.77,0,0,0,13.29,87c1.32,2.74,2.53,5.49,3.84,8.24a110.48,110.48,0,0,0,13.08-6.49c7.8-4.5,11.09-7.8,20.54-14,4.73-3.07,8.68-5.38,11.1-6.81C60.53,66.36,59.1,64.6,57.78,62.85Z"/><path class="cls-5" d="M63.5,59.55A4.09,4.09,0,0,0,61.08,59a4.1,4.1,0,0,0-2.86,2.53,5.51,5.51,0,0,0,1,5.38,5.91,5.91,0,0,0,6.26,1.76,3,3,0,0,0,1.43-1A3.4,3.4,0,0,0,67.67,65,64,64,0,0,1,63.5,59.55Z"/><path class="cls-6" d="M70.75,52.74A15.63,15.63,0,0,1,66.57,58a15.12,15.12,0,0,1-4.94,2.75,3.79,3.79,0,0,0,.44,4.72,3.47,3.47,0,0,0,4.17.55,35,35,0,0,1,3-1.87,26.39,26.39,0,0,1,7.91-2.74Z"/><path class="cls-5" d="M64.82,35.71c.22,1.1,1.64,2.42,1.64,2.53A15.2,15.2,0,0,0,70,40.1l28.78-5.82a7.09,7.09,0,0,0,3.52-4,6,6,0,0,0,.33-2.09c-.66-3.19-12.09-5.38-22.52-2.75C71.85,27.69,64.27,32.74,64.82,35.71Z"/><path class="cls-5" d="M69.43,46.15l2.64,13.62a51.65,51.65,0,0,1,22.85-7.14,60.19,60.19,0,0,1,10.22.33l-3-12.86a8.43,8.43,0,0,0-2.2-4.72c-.88-.77-3.18-2.53-16.37.55-11.2,2.53-13.07,4.61-13.84,6.48A5.67,5.67,0,0,0,69.43,46.15Z"/><path class="cls-6" d="M67.56,41.2a3.72,3.72,0,0,0-.88,3.08c.44,1.54,2.42,2.2,2.75,2.31a4.76,4.76,0,0,1-.11-.55,2.61,2.61,0,0,1,1.1-1.87A24.43,24.43,0,0,1,77,40.32c2.09-.77,4.73-1.53,7.8-2.41h0s10.66-2.86,15.82.11a1.83,1.83,0,0,1,.66.55A2.78,2.78,0,0,1,102,40a3.67,3.67,0,0,0,2.2-2.74c.11-1.43-1.32-2.53-1.87-3-4.61-3.73-15.82-1.43-19.34-.66C82.94,33.62,71.08,36.15,67.56,41.2Z"/><polygon class="cls-7" points="70.97 54.39 72.07 59.66 70.97 63.4 68.44 64.6 70.97 54.39"/><path class="cls-6" d="M76.57,66.36a4.08,4.08,0,0,1-4.5-6.59,45,45,0,0,1,16.81-6.7A47.06,47.06,0,0,1,105.14,53a4.28,4.28,0,0,1,3.29,4.94,4.16,4.16,0,0,1-4.28,3.3,33.78,33.78,0,0,0-13.85-.44A31.45,31.45,0,0,0,76.57,66.36Z"/><path class="cls-5" d="M125.68,90.31a2.42,2.42,0,0,0-1.1-1.75,2.09,2.09,0,0,0-1-.33H58.77a2.53,2.53,0,0,0-1,.33,2.9,2.9,0,0,0-1.09,1.75V105.8c2.74.66,6.37,1.32,10.76,2a150.94,150.94,0,0,0,23.73,1.87,166.69,166.69,0,0,0,23.73-1.87c4.29-.66,8-1.43,10.77-2Z"/><path class="cls-5" d="M73.82,68.89c-.54-4.18,8.35-9.12,15.94-10.44s17.68.33,18.56,4.4S101,73.5,92.5,74.93C84.37,76.36,74.37,73.06,73.82,68.89Z"/><path class="cls-4" d="M9.33,94.71C10.1,95.92,11.75,96,13,96.14a10.79,10.79,0,0,0,3-.22,23.57,23.57,0,0,0,3.51-1.54c1-.55,2-1,3-1.43-2.09-2.53-4.18-5.16-6.27-7.69-.43.33-1.09.77-2,1.43a13.33,13.33,0,0,1-1.76,1.1,8.78,8.78,0,0,0-3,2.74C9.33,90.86,8.23,93.06,9.33,94.71Z"/><path class="cls-4" d="M124.36,88.23H58.77v-1.1A5.16,5.16,0,0,1,63.94,82h55.37a5,5,0,0,1,5,5.06Z"/><path class="cls-7" d="M86.9,59.11A32,32,0,0,1,95.14,58a23.08,23.08,0,0,1,7.25.88,26.9,26.9,0,0,1,4.06,1.65,1.81,1.81,0,0,0,.88-1.32c-.11-1.32-3.84-2-5-2.31C99.64,56.47,94.59,56.14,86.9,59.11Z"/><path class="cls-7" d="M87.45,37.47c1.87-.33,3.4-.55,4.5-.66,0,0,4.73-.44,8,.77a4.23,4.23,0,0,1,1.76,1.21,3.75,3.75,0,0,1,.55,1.2,5,5,0,0,0,1.1-.55c.22-.21.44-.43.44-.65a2.13,2.13,0,0,0-.55-1C100.08,33.4,88.66,37,87.45,37.47Z"/><path class="cls-7" d="M78.55,71.09c.11-.66,5.82.33,14.39-1.76,8.13-2,12.31-5.06,12.64-4.51s-5,6.27-12.53,8S78.55,71.86,78.55,71.09Z"/><path class="cls-4" d="M58.77,88.23a231.71,231.71,0,0,0,34.5,2.3,235.08,235.08,0,0,0,31.09-2.3L88.55,84.38Z"/><path class="cls-6" d="M58.77,87.79a230,230,0,0,0,37.14,2.74,214.61,214.61,0,0,0,28.45-2.3,98.1,98.1,0,0,1-21.42,5A97.75,97.75,0,0,1,58.77,87.79Z"/><path class="cls-8" d="M74.26,22.09c-3.62.55-7.25,1.09-10.87,1.75-4.62.88-9.23,2.09-13.85,3.3C42.07,29,34.49,31,26.91,32.3c-10,8.9-24.72,25.16-28.23,46.15C-2.75,86.8-1.54,91.3.1,94.49c4.18,8,13.52,10.22,31.87,14.39,19.55,4.5,36.25,3.41,36.36,2.09.11-.88-8.79-.33-16.26-6.59-5.93-4.95-11.75-14.73-8.79-20.88C47.57,74.82,68.77,75,69.54,69.33c.22-1.76.66-3.52.77-5.28a7.9,7.9,0,0,1,.88-3.4,3.84,3.84,0,0,1,.66-1c19.22-11.65,23-18.79,22-23.4C92.5,30.44,84.48,25.71,74.26,22.09Z"/></svg>