<?xml version="1.0" encoding="UTF-8"?>
<svg id="Capa_1" data-name="Capa 1" xmlns="http://www.w3.org/2000/svg" viewBox="0 0 134.89 134.89">
  <defs>
    <style>
      .cls-1 {
        font-family: NotoSans-Bold, 'Noto Sans';
        font-size: 19px;
        font-weight: 700;
      }

      .cls-1, .cls-2 {
        fill: #1d1d1b;
      }

      .cls-1, .cls-3 {
        isolation: isolate;
      }

      .cls-4 {
        fill: #eddfd6;
      }

      .cls-5 {
        fill: #ebdbd3;
      }
    </style>
  </defs>
  <g id="_34" data-name=" 34">
    <path class="cls-2" d="M-.62-.15h135.62v135.74H-.62V-.15Z"/>
    <path class="cls-4" d="M-.29-.18h28.48v20.18c0,3.78-3.06,6.84-6.84,6.84H-.29V-.18Z"/>
    <text class="cls-1" transform="translate(2.22 -2.32)"><tspan x="0" y="0">34</tspan></text>
    <g class="cls-3">
      <path class="cls-2" d="M24.04,17.43h-1.63v2.81h-2.79v-2.81h-5.79v-2l5.95-8.76h2.64v8.53h1.63v2.22ZM19.61,15.2v-2.3c0-.29,0-.65.02-1.06s.03-.81.05-1.17c.02-.36.03-.6.05-.71h-.08c-.11.25-.24.5-.37.74-.13.24-.28.49-.45.74l-2.49,3.76h3.27Z"/>
      <path class="cls-2" d="M12.33,9.71c.06.85-.25,1.68-.84,2.29-.59.54-1.3.92-2.08,1.1v.05c.91.07,1.77.42,2.47,1,.58.55.89,1.33.85,2.13,0,.75-.19,1.48-.58,2.12-.43.66-1.06,1.18-1.79,1.48-.98.39-2.04.58-3.1.54-1.34.02-2.68-.23-3.92-.74v-2.42c.58.29,1.2.51,1.83.66.6.15,1.21.23,1.83.23.76.07,1.52-.11,2.16-.53.42-.38.65-.93.62-1.5.02-.36-.08-.71-.29-1-.25-.31-.61-.52-1-.6-.66-.15-1.33-.22-2-.2h-1v-2.16h.99c.64.03,1.29-.05,1.91-.23.36-.11.68-.34.89-.65.16-.29.25-.61.24-.94.02-.42-.14-.84-.45-1.13-.43-.31-.96-.46-1.49-.41-.58-.01-1.16.11-1.69.34-.41.19-.81.41-1.2.65l-1.33-2c.58-.4,1.21-.72,1.87-.95.83-.27,1.69-.4,2.56-.38,1.17-.06,2.32.24,3.32.85.8.53,1.26,1.44,1.22,2.4Z"/>
    </g>
    <g>
      <path class="cls-5" d="M89.63,50.3v55.59h-8.98v-12.97c0-.22-.61-.6-.86-.54h-23.89c-.26-.04-.94.27-.94.54v12.97h-9.06v-55.59h43.73ZM50.33,54.44c-.36.07-.7.39-.72.76l.04,13.14c.11.35.38.53.74.58,1.72-.13,3.66.16,5.36,0,.47-.04.8-.19.86-.7l-.04-13.22c-.12-.4-.43-.53-.83-.57-1.68-.19-3.7.12-5.42.02ZM60.21,54.44c-.47.13-.67.45-.72.93.05,4.34-.1,8.7.08,13.02.13.27.39.52.7.53l5.73-.04c.26-.12.48-.36.49-.66l-.02-13.24c-.14-.33-.4-.52-.76-.56-1.68-.2-3.78.14-5.5.02ZM70.09,54.44c-.41.12-.67.41-.72.84.05,4.36-.1,8.75.08,13.1.13.27.39.52.7.53l5.73-.04c.36-.18.58-.5.58-.91-.27-4.04.35-8.54,0-12.52-.05-.56-.26-.96-.87-1.03-1.68-.2-3.78.14-5.5.02ZM79.97,54.44c-.47.13-.67.45-.72.93.05,4.34-.1,8.7.08,13.02.13.27.39.52.7.53l5.73-.04c.36-.18.58-.5.58-.91l-.04-12.89c-.11-.34-.39-.6-.75-.65-1.63-.25-3.88.16-5.58.01ZM50.33,74.29c-.36.07-.7.39-.72.76l.04,13.14c.15.32.48.53.83.57,1.67-.12,3.55.16,5.19,0,.68-.06.97-.34,1.03-1.03.35-3.96-.27-8.43,0-12.44-.02-.56-.29-.96-.87-1.03-1.68-.2-3.78.14-5.5.02ZM60.21,74.29c-.42.08-.7.42-.72.85.05,4.36-.1,8.75.08,13.1.12.3.48.49.79.53,1.68-.12,3.54.15,5.19,0,.45-.04.92-.19.95-.7l-.04-13.31c-.09-.28-.47-.46-.74-.49-1.68-.2-3.78.14-5.5.02ZM70.09,74.29c-.41.13-.7.39-.72.85l.04,12.97c.14.44.47.61.91.66,1.19.13,3.89.11,5.11,0,.57-.05.94-.26,1.03-.87-.05-4.36.1-8.75-.08-13.1-.12-.3-.48-.49-.79-.53-1.68-.2-3.78.14-5.5.02ZM79.97,74.29c-.33.11-.63.3-.64.68l.04,13.31c.09.28.47.46.74.49l5.56-.04c.38-.13.61-.42.66-.82-.05-4.36.1-8.75-.08-13.1-.16-.34-.43-.49-.79-.53-1.7-.19-3.76.13-5.5.02Z"/>
      <path class="cls-5" d="M45,58.13v47.77h-16.22v-47.77h16.22ZM32.17,63.26c-.16.15-.27.53-.28.75.27,4.04-.35,8.53,0,12.52.04.47.19.86.7.95l5.81-.04c.26-.12.48-.36.49-.66l-.04-13.22c-.12-.26-.36-.48-.66-.49-1.75.15-3.81-.19-5.52,0-.15.02-.4.09-.51.19ZM32.7,82.85c-.46.09-.75.37-.8.84.05,4.36-.1,8.75.08,13.1.16.34.43.49.79.53,1.71.19,3.82-.11,5.56-.04.52-.16.62-.58.66-1.07-.24-3.96.31-8.27,0-12.19-.06-.71-.17-1.1-.95-1.19-1.65-.18-3.65.12-5.33.02Z"/>
      <path class="cls-5" d="M106.76,58.13v47.77h-16.14v-47.77h16.14ZM97.27,63.09c-.33.11-.63.3-.64.68l.04,13.22c.12.26.36.48.66.49l5.75-.02c.33-.14.52-.4.56-.76l-.04-13.06c-.11-.35-.38-.53-.74-.58-1.71-.2-3.83.14-5.58.02ZM97.35,82.85c-.36.07-.7.39-.72.76l.04,13.22c.09.28.47.46.74.49,1.7-.12,3.61.16,5.28,0,.49-.05.87-.26.95-.78-.05-4.39.1-8.81-.08-13.18-.17-.38-.48-.49-.87-.53-1.67-.17-3.63.11-5.33.02Z"/>
      <rect class="cls-5" x="25.81" y="107.87" width="84" height="3.21"/>
      <path class="cls-5" d="M44.4,33.44l46.51-.03c1.85.13,3,1.35,3.41,3.1v9.78c-.36,1.55-1.46,2.82-3.08,3.02l-47.07-.04c-1.37-.26-2.48-1.38-2.77-2.74.17-3.23-.3-6.84-.02-10.03.13-1.56,1.49-2.88,3.03-3.06ZM44.4,35.01c-.8.2-1.36.78-1.54,1.59.19,3.02-.28,6.41-.01,9.38.08.92.75,1.63,1.65,1.81l46.33.04c.94-.06,1.71-.71,1.91-1.63v-9.61c-.16-.81-.72-1.39-1.52-1.59h-46.82Z"/>
      <path class="cls-5" d="M85.35,32.43h-35.08v-1.69c0-.42.53-1.06.94-1.2,10.91-.18,21.86-.02,32.78-.08.59-.05,1.36.73,1.36,1.28v1.69Z"/>
      <path class="cls-5" d="M79.25,28.48h-22.89v-2.26c0-.13.48-.65.69-.54h21.59c.19-.06.61.44.61.54v2.26Z"/>
      <path class="cls-5" d="M103.63,57.14h-13.01v-2.88h12.48c.1,0,.54.5.54.62v2.26Z"/>
      <path class="cls-5" d="M44.91,54.26v2.88h-12.93v-2.26c0-.12.44-.62.54-.62h12.39Z"/>
      <rect class="cls-5" x="66.98" y="93.38" width="1.65" height="12.52"/>
      <path class="cls-5" d="M84.18,37.07c5.64-.39,5.83,8.42.47,8.63s-5.76-8.26-.47-8.63ZM84.26,38.88c-2.66.33-2.51,5.35.63,4.91,2.5-.35,2.15-5.26-.63-4.91Z"/>
      <path class="cls-5" d="M77.53,41.66v-4.36h1.81v8.4l-.29-.08c-1.63-1.51-3.2-3.11-4.9-4.53v4.28h-1.73v-8.32l5.11,4.61Z"/>
      <path class="cls-5" d="M53.48,39.84l-1.04-.73c-4.66-1.82-4.52,6.38.09,4.42.44-.19.77-.53,1.21-.65-.19.52.08,1.76-.28,2.15-.18.19-1.01.45-1.29.52-3.68.82-6.26-3.03-4.63-6.28,1.12-2.24,4.12-2.97,6.12-1.44l-.16,2Z"/>
      <path class="cls-5" d="M53.89,45.36l4.16-8.32,3.91,8.32h-1.98c0-.21-.4-1.09-.55-1.14-.41.02-3.07-.09-3.17.04-.15.2-.3.84-.4,1.1h-1.98ZM56.94,42.81h1.98c-.13-.29-.82-2.36-.95-2.39-.16-.04-.12.08-.16.17-.12.25-.96,2.14-.87,2.22Z"/>
      <path class="cls-5" d="M67.07,37.46v1.89c-.68-.3-1.74-1.01-2.49-.64-1.43.7,1.26,1.81,1.71,2.12,1.17.81,1.82,1.9,1.18,3.33-.81,1.82-3.26,1.73-4.84,1.11l-.18-2.13c.5.19,1.02.61,1.56.7,1.27.23,2.65-.35,1.23-1.48-1.14-.91-2.92-1.22-2.88-3.14.05-2.33,3.05-2.56,4.7-1.77Z"/>
      <path class="cls-5" d="M70.77,45.36h-1.89v-8.07h1.77s.12.11.12.12v7.95Z"/>
    </g>
  </g>
</svg>