<?xml version="1.0" encoding="utf-8"?>
<!-- Generator: Adobe Illustrator 24.1.1, SVG Export Plug-In . SVG Version: 6.00 Build 0)  -->
<svg version="1.1" id="Capa_1" xmlns="http://www.w3.org/2000/svg" xmlns:xlink="http://www.w3.org/1999/xlink" x="0px" y="0px"
	 viewBox="0 0 134.9 134.9" style="enable-background:new 0 0 134.9 134.9;" xml:space="preserve">
<style type="text/css">
	.st0{fill:#1D1D1B;}
	.st1{fill:#EDDFD6;}
	.st2{fill:#222222;}
	.st3{fill:#EDDFD6;stroke:#1D1D1B;stroke-width:0.42;stroke-linecap:round;stroke-linejoin:round;}
	.st4{fill:#1D1D1B;stroke:#EDDFD6;stroke-width:0.42;stroke-miterlimit:10;}
	.st5{fill:none;stroke:#1D1D1B;stroke-width:0.42;stroke-miterlimit:10;}
	.st6{fill:#00AEEF;}
	.st7{enable-background:new    ;}
	.st8{fill:#EDDFD6;stroke:#1D1D1B;stroke-width:0.6437;stroke-miterlimit:10;}
	.st9{fill:#EDDFD6;stroke:#1D1D1B;stroke-width:0.6073;stroke-miterlimit:10;}
	.st10{fill:#EDDFD6;stroke:#1D1D1B;stroke-width:0.5101;stroke-miterlimit:10;}
	.st11{fill:#EDDFD6;stroke:#1D1D1B;stroke-width:0.42;stroke-miterlimit:10;}
	.st12{fill:#EDDFD6;stroke:#1D1D1B;stroke-width:0.6356;stroke-miterlimit:10;}
	.st13{fill:#EDDFD6;stroke:#1D1D1B;stroke-width:0.5996;stroke-miterlimit:10;}
	.st14{fill:#EDDFD6;stroke:#1D1D1B;stroke-width:0.5037;stroke-miterlimit:10;}
	.st15{fill:#EDDFD6;stroke:#1D1D1B;stroke-width:0.422;stroke-miterlimit:10;}
	.st16{fill:#1D1D1B;stroke:#EDDFD6;stroke-width:0.422;stroke-miterlimit:10;}
	.st17{fill:none;stroke:#1D1D1B;stroke-width:0.422;stroke-miterlimit:10;}
	.st18{fill:none;stroke:#EDDFD6;stroke-width:0.422;stroke-linecap:round;stroke-linejoin:round;}
	.st19{fill:none;stroke:#EDDFD6;stroke-width:17;stroke-miterlimit:10;}
	.st20{fill:#EDDFD6;stroke:#EDDFD6;stroke-width:0.42;stroke-miterlimit:10;}
	.st21{fill:#EDDFD6;stroke:#1D1D1B;stroke-width:0.4786;stroke-miterlimit:10;}
	.st22{fill:#1D1D1B;stroke:#EDDFD6;stroke-width:0.4786;stroke-miterlimit:10;}
	.st23{fill:none;stroke:#1D1D1B;stroke-width:0.4786;stroke-miterlimit:10;}
	.st24{fill:none;stroke:#EDDFD6;stroke-width:0.4786;stroke-miterlimit:10;}
	.st25{font-family:'NotoSans-Bold';}
	.st26{font-size:19px;}
</style>
<g id="_x31_0">
	<rect x="-0.1" y="-0.1" class="st0" width="135.1" height="135.3"/>
	<g>
		<rect x="56" y="25.1" class="st21" width="53.6" height="84.8"/>
		<rect x="57.6" y="26.8" class="st21" width="50.6" height="83"/>
		<ellipse class="st22" cx="69.2" cy="72.2" rx="1.1" ry="1.7"/>
		<polygon class="st0" points="103.8,31.8 71.3,37.8 71.3,109.9 62,109.9 62,31.8 		"/>
		<polygon class="st0" points="103.8,109.9 64.7,101.6 64.7,109.9 		"/>
		<circle class="st23" cx="74.7" cy="71.2" r="1.9"/>
		<g>
			<path class="st24" d="M66.6,71.2c0,14.6,11.8,26.4,26.4,26.4h2c14.4,0,26.1-11.5,26.4-25.9"/>
			<polygon class="st1" points="123.3,73.5 122.9,73.8 121.4,72 119.7,73.6 119.3,73.3 121.4,71.2 			"/>
		</g>
		<g>
			<path class="st24" d="M11.7,69.4c0,14.6,11.8,26.4,26.4,26.4h2c14.4,0,26.1-11.5,26.4-25.9"/>
			<polygon class="st1" points="68.4,71.6 68.1,71.9 66.5,70.1 64.8,71.8 64.5,71.4 66.6,69.4 			"/>
		</g>
		<path class="st23" d="M71.3,86.3C76,93.2,84,97.7,93,97.7h2c5.4,0,10.4-1.6,14.6-4.4"/>
		<path class="st23" d="M62,84.3c-1.6,2.4-3.7,4.5-6,6.3"/>
	</g>
	<g>
		<path class="st1" d="M-0.1-0.1h28.5v20.2c0,3.8-3.1,6.8-6.8,6.8H-0.1V-0.1z"/>
		<text transform="matrix(1 0 0 1 2.4298 -2.2052)" class="st0 st25 st26">10</text>
		<g>
			<path class="st0" d="M11.4,20.7H8.5v-7.8c0-0.3,0-0.7,0-1.3s0-1,0.1-1.4c-0.1,0.1-0.2,0.2-0.4,0.4c-0.2,0.2-0.4,0.4-0.6,0.5
				L6,12.3l-1.4-1.7L9,7.1h2.4V20.7z"/>
			<path class="st0" d="M24.6,13.9c0,1.5-0.2,2.7-0.5,3.7s-0.8,1.8-1.5,2.4c-0.7,0.6-1.6,0.8-2.8,0.8c-1.6,0-2.8-0.6-3.6-1.8
				s-1.1-2.9-1.1-5.1c0-1.5,0.2-2.7,0.5-3.8c0.3-1,0.8-1.8,1.5-2.4c0.7-0.6,1.6-0.8,2.8-0.8c1.6,0,2.8,0.6,3.6,1.8
				C24.2,10,24.6,11.7,24.6,13.9z M17.9,13.9c0,1.5,0.1,2.7,0.4,3.5c0.3,0.8,0.8,1.2,1.5,1.2c0.7,0,1.2-0.4,1.5-1.2
				c0.3-0.8,0.4-1.9,0.4-3.5c0-1.5-0.1-2.7-0.4-3.5c-0.3-0.8-0.8-1.2-1.5-1.2c-0.7,0-1.2,0.4-1.5,1.2C18.1,11.2,17.9,12.4,17.9,13.9
				z"/>
		</g>
	</g>
</g>
</svg>
