<svg width="135" height="135" viewBox="0 0 135 135" fill="none" xmlns="http://www.w3.org/2000/svg">
<g clip-path="url(#clip0_32_27)">
<path d="M-0.599609 -0.200012H135V135.5H-0.599609V67.7V-0.200012Z" fill="#1D1D1B"/>
<path d="M-0.299805 -0.200012H28.2002V20C28.2002 23.8 25.1002 26.8 21.4002 26.8H-0.299805V-0.200012Z" fill="#EDDFD6"/>
<path d="M12.9304 9.249C12.9304 9.86967 12.7974 10.408 12.5314 10.864C12.278 11.32 11.9297 11.6937 11.4864 11.985C11.0557 12.2763 10.5617 12.4917 10.0044 12.631V12.688C11.0937 12.8147 11.917 13.144 12.4744 13.676C13.0444 14.208 13.3294 14.9237 13.3294 15.823C13.3294 16.6083 13.133 17.3177 12.7404 17.951C12.3604 18.5717 11.765 19.0657 10.9544 19.433C10.1564 19.7877 9.12403 19.965 7.85736 19.965C7.11003 19.965 6.41336 19.9017 5.76736 19.775C5.12136 19.6483 4.51336 19.4647 3.94336 19.224V16.792C4.52603 17.0833 5.13403 17.305 5.76736 17.457C6.41336 17.609 7.00869 17.685 7.55336 17.685C8.57936 17.685 9.29503 17.5077 9.70036 17.153C10.1184 16.7983 10.3274 16.298 10.3274 15.652C10.3274 15.272 10.2324 14.9553 10.0424 14.702C9.85236 14.436 9.51669 14.2397 9.03536 14.113C8.56669 13.9737 7.90803 13.904 7.05936 13.904H6.03336V11.7H7.07836C7.91436 11.7 8.54769 11.624 8.97836 11.472C9.42169 11.3073 9.71936 11.092 9.87136 10.826C10.036 10.5473 10.1184 10.2307 10.1184 9.876C10.1184 9.39467 9.96636 9.021 9.66236 8.755C9.37103 8.47633 8.87703 8.337 8.18036 8.337C7.74969 8.337 7.35703 8.394 7.00236 8.508C6.64769 8.60933 6.32469 8.736 6.03336 8.888C5.75469 9.04 5.50769 9.18567 5.29236 9.325L3.96236 7.349C4.31703 7.09567 4.70969 6.86767 5.14036 6.665C5.58369 6.46233 6.07136 6.304 6.60336 6.19C7.13536 6.076 7.73069 6.019 8.38936 6.019C9.78269 6.019 10.8847 6.304 11.6954 6.874C12.5187 7.43133 12.9304 8.223 12.9304 9.249Z" fill="#1D1D1B"/>
<path d="M24.2594 12.992C24.2594 14.0813 24.1707 15.0567 23.9934 15.918C23.8287 16.7793 23.5564 17.514 23.1764 18.122C22.8091 18.7173 22.3214 19.1733 21.7134 19.49C21.1181 19.8067 20.3834 19.965 19.5094 19.965C18.4201 19.965 17.5271 19.6863 16.8304 19.129C16.1337 18.5717 15.6144 17.7737 15.2724 16.735C14.9431 15.6963 14.7784 14.4487 14.7784 12.992C14.7784 11.5227 14.9304 10.2687 15.2344 9.23C15.5384 8.19133 16.0387 7.39333 16.7354 6.836C17.4321 6.27867 18.3567 6 19.5094 6C20.5987 6 21.4917 6.27867 22.1884 6.836C22.8851 7.38067 23.4044 8.17867 23.7464 9.23C24.0884 10.2687 24.2594 11.5227 24.2594 12.992ZM17.6284 12.992C17.6284 14.018 17.6854 14.8793 17.7994 15.576C17.9134 16.26 18.1034 16.7793 18.3694 17.134C18.6481 17.476 19.0281 17.647 19.5094 17.647C19.9907 17.647 20.3644 17.476 20.6304 17.134C20.9091 16.792 21.1054 16.279 21.2194 15.595C21.3461 14.8983 21.4094 14.0307 21.4094 12.992C21.4094 11.9533 21.3461 11.092 21.2194 10.408C21.1054 9.71133 20.9091 9.192 20.6304 8.85C20.3644 8.49533 19.9907 8.318 19.5094 8.318C19.0281 8.318 18.6481 8.49533 18.3694 8.85C18.1034 9.192 17.9134 9.71133 17.7994 10.408C17.6854 11.092 17.6284 11.9533 17.6284 12.992Z" fill="#1D1D1B"/>
<mask id="mask0_32_27" style="mask-type:luminance" maskUnits="userSpaceOnUse" x="36" y="53" width="64" height="60">
<path d="M36.6475 53.0527H99.1761V113H36.6475V53.0527Z" fill="white"/>
</mask>
<g mask="url(#mask0_32_27)">
<path fill-rule="evenodd" clip-rule="evenodd" d="M82.9018 113.054H52.9248C48.592 113.054 44.5222 111.369 41.4533 108.301C38.385 105.233 36.7012 101.163 36.7012 96.8305V67.1528C36.7012 65.0672 37.067 63.0113 37.7801 61.0515L40.3209 54.0937C40.5309 53.5241 41.0703 53.1468 41.669 53.1468H94.1445C94.7505 53.1468 95.29 53.5241 95.4926 54.0937L98.0345 61.0515C98.7538 63.0113 99.1124 65.0672 99.1124 67.1528V96.8305C99.1124 101.163 97.4291 105.233 94.3602 108.301C91.2924 111.369 87.2345 113.054 82.9018 113.054ZM42.6824 56.0239L40.4888 62.0405C39.8901 63.6833 39.5834 65.4087 39.5834 67.1585V96.8362C39.5834 100.402 40.9747 103.752 43.4911 106.27C46.0091 108.786 49.3643 110.177 52.9248 110.177H82.9018C86.468 110.177 89.8175 108.786 92.3354 106.27C94.8518 103.752 96.242 100.397 96.242 96.8362V67.1585C96.242 65.4087 95.9365 63.689 95.3378 62.0405L93.1441 56.0239H42.6824Z" fill="#EBDBD3"/>
</g>
<mask id="mask1_32_27" style="mask-type:luminance" maskUnits="userSpaceOnUse" x="36" y="41" width="64" height="16">
<path d="M36 41.0787H99.8264V56.1127H36V41.0787Z" fill="white"/>
</mask>
<g mask="url(#mask1_32_27)">
<path fill-rule="evenodd" clip-rule="evenodd" d="M98.3878 56.0239H37.4385C36.6408 56.0239 36 55.3821 36 54.5854V45.8299C36 43.2646 38.0851 41.1791 40.6508 41.1791H95.1755C97.7403 41.1791 99.8264 43.2646 99.8264 45.8299V54.5854C99.8264 55.3763 99.1845 56.0239 98.3878 56.0239ZM38.8766 53.1468H96.9555V45.8299C96.9555 44.8523 96.1578 44.0556 95.1812 44.0556H40.6508C39.6733 44.0556 38.8766 44.8523 38.8766 45.8299V53.1468Z" fill="#EBDBD3"/>
</g>
<mask id="mask2_32_27" style="mask-type:luminance" maskUnits="userSpaceOnUse" x="52" y="21" width="32" height="24">
<path d="M52.2148 21H83.6133V44.1388H52.2148V21Z" fill="white"/>
</mask>
<g mask="url(#mask2_32_27)">
<path fill-rule="evenodd" clip-rule="evenodd" d="M80.8457 44.0556C80.6477 44.0556 80.444 44.0135 80.2517 43.9298C79.5273 43.5998 79.2092 42.7496 79.5387 42.0236C80.2995 40.3517 80.6841 38.566 80.6841 36.7075C80.6841 29.6364 74.9544 23.8766 67.9124 23.8766C60.8709 23.8766 55.1412 29.6297 55.1412 36.7075C55.1412 38.5597 55.5247 40.3517 56.2856 42.0236C56.6151 42.7496 56.2924 43.5998 55.5726 43.9298C54.8476 44.2593 53.9963 43.9356 53.6673 43.2168C52.7376 41.1671 52.2646 38.9791 52.2646 36.7143C52.2646 32.5192 53.8887 28.5752 56.8432 25.6093C59.804 22.636 63.7288 21 67.9124 21C72.0955 21 76.0213 22.636 78.9759 25.603C81.9304 28.5695 83.555 32.513 83.555 36.7075C83.555 38.9734 83.0805 41.1603 82.1523 43.2106C81.9179 43.7433 81.3972 44.0556 80.8457 44.0556Z" fill="#EBDBD3"/>
</g>
<path fill-rule="evenodd" clip-rule="evenodd" d="M70.9154 44.1149C70.3583 44.1149 69.8303 43.7921 69.5964 43.2527C69.2794 42.5209 69.6151 41.6764 70.3396 41.3584C70.4773 41.2991 70.5553 41.2326 70.6031 41.0289C70.6576 40.8012 70.6332 40.5138 70.5911 40.3215C70.2918 38.9376 68.7342 38.3919 67.5773 38.0982C64.3583 37.3494 62.5186 35.5938 62.5186 33.2738C62.5186 30.5953 64.9399 28.4136 67.9188 28.4136C70.3515 28.4136 72.4917 29.8885 73.1267 31.9969C73.3549 32.7588 72.9225 33.5618 72.1617 33.7889C71.4008 34.017 70.5973 33.5851 70.3697 32.8243C70.0995 31.9377 69.0694 31.2901 67.9126 31.2901C66.5218 31.2901 65.3894 32.1835 65.3894 33.2738C65.3894 33.6818 65.6654 34.6999 68.2369 35.2929C68.2426 35.2929 68.254 35.3002 68.2602 35.3002C71.1971 36.0366 72.9282 37.5172 73.4027 39.7041C73.8159 41.6161 73.0602 43.3005 71.485 43.9834C71.2984 44.08 71.1072 44.1149 70.9154 44.1149Z" fill="#EBDBD3"/>
<path fill-rule="evenodd" clip-rule="evenodd" d="M67.9131 44.0556C67.1164 44.0556 66.4746 43.4148 66.4746 42.6166V27.8263C66.4746 27.0291 67.1164 26.3873 67.9131 26.3873C68.7104 26.3873 69.3512 27.0291 69.3512 27.8263V42.6166C69.3512 43.4076 68.7104 44.0556 67.9131 44.0556Z" fill="#EBDBD3"/>
<path fill-rule="evenodd" clip-rule="evenodd" d="M67.9125 90.0042C63.7289 90.0042 59.8041 88.3687 56.8496 85.4012C53.8946 82.4352 52.2705 78.4912 52.2705 74.2967C52.2705 70.1016 53.8946 66.1581 56.8496 63.1916C59.8041 60.2241 63.7352 58.5886 67.9125 58.5886C72.0894 58.5886 76.0215 60.2241 78.976 63.1916C81.9305 66.1581 83.5551 70.1016 83.5551 74.2967C83.5551 78.4912 81.9305 82.4352 78.976 85.4012C76.0215 88.3687 72.0956 90.0042 67.9125 90.0042ZM67.9125 61.4652C60.8711 61.4652 55.1414 67.2193 55.1414 74.2967C55.1414 81.3688 60.8711 87.1276 67.9125 87.1276C74.9545 87.1276 80.6843 81.3745 80.6843 74.2967C80.6843 67.2251 74.9545 61.4652 67.9125 61.4652Z" fill="#EBDBD3"/>
<path fill-rule="evenodd" clip-rule="evenodd" d="M67.9126 82.5854C65.4616 82.5854 63.3095 81.0928 62.6921 78.9651C62.4707 78.2038 62.9089 77.4065 63.6697 77.1794C64.4305 76.958 65.2272 77.3951 65.4559 78.1559C65.7189 79.055 66.75 79.7015 67.9126 79.7015C69.3028 79.7015 70.4352 78.8092 70.4352 77.7189C70.4352 77.3951 70.4352 76.4118 67.5773 75.6925C64.3583 74.9437 62.5186 73.1876 62.5186 70.8681C62.5186 68.1896 64.9399 66.0079 67.9188 66.0079C70.3515 66.0079 72.4917 67.4823 73.1267 69.5923C73.3549 70.3531 72.9225 71.1561 72.1617 71.3832C71.4008 71.6113 70.5973 71.1794 70.3697 70.4186C70.0995 69.532 69.0694 68.885 67.9126 68.885C66.5218 68.885 65.3894 69.7778 65.3894 70.8681C65.3894 71.2761 65.6654 72.2942 68.2369 72.8882C68.2426 72.8882 68.254 72.8945 68.2602 72.8945C69.6873 73.2541 70.7777 73.7333 71.5921 74.3564C72.7131 75.2196 73.3071 76.3822 73.3071 77.7126C73.3128 80.4031 70.891 82.5854 67.9126 82.5854Z" fill="#EBDBD3"/>
<path fill-rule="evenodd" clip-rule="evenodd" d="M67.9131 84.6169C67.1164 84.6169 66.4746 83.9751 66.4746 83.1784V65.4206C66.4746 64.6234 67.1164 63.9826 67.9131 63.9826C68.7104 63.9826 69.3512 64.6234 69.3512 65.4206V83.1784C69.3512 83.9694 68.7104 84.6169 67.9131 84.6169Z" fill="#EBDBD3"/>
<path fill-rule="evenodd" clip-rule="evenodd" d="M83.4407 101.63H58.7672C57.1312 101.63 55.8008 100.3 55.8008 98.6645V95.488C55.8008 93.8515 57.1312 92.5221 58.7672 92.5221H83.4407C85.0767 92.5221 86.4072 93.8515 86.4072 95.488V98.6645C86.4072 100.3 85.0767 101.63 83.4407 101.63ZM58.7672 95.3919C58.7132 95.3919 58.6773 95.4335 58.6773 95.4823V98.6582C58.6773 98.7118 58.7194 98.7481 58.7672 98.7481H83.4407C83.4942 98.7481 83.5306 98.706 83.5306 98.6582V95.4823C83.5306 95.4278 83.4885 95.3919 83.4407 95.3919H58.7672Z" fill="#EBDBD3"/>
<path fill-rule="evenodd" clip-rule="evenodd" d="M77.6575 107.869H52.9835C51.348 107.869 50.0176 106.539 50.0176 104.903V101.727C50.0176 100.091 51.348 98.7596 52.9835 98.7596H77.6575C79.293 98.7596 80.6234 100.091 80.6234 101.727V104.903C80.6297 106.539 79.2992 107.869 77.6575 107.869ZM52.9835 101.63C52.93 101.63 52.8941 101.673 52.8941 101.721V104.897C52.8941 104.951 52.9357 104.987 52.9835 104.987H77.6575C77.711 104.987 77.7469 104.945 77.7469 104.897V101.721C77.7469 101.667 77.7053 101.63 77.6575 101.63H52.9835Z" fill="#EBDBD3"/>
</g>
<defs>
<clipPath id="clip0_32_27">
<rect width="134.9" height="134.9" fill="white"/>
</clipPath>
</defs>
</svg>
