<?xml version="1.0" encoding="UTF-8"?><svg xmlns="http://www.w3.org/2000/svg" viewBox="0 0 134.46 134.46"><defs><style>.d{fill:none;}.d,.e{stroke:#1d1d1b;}.d,.e,.f{stroke-miterlimit:10;stroke-width:.42px;}.g,.e{fill:#eddfd6;}.f{stroke:#eddfd6;}.f,.h{fill:#1d1d1b;}.h{font-family:Helvetica, Helvetica;font-size:11.07px;}</style></defs><g id="a"/><g id="b"><g id="c"><g><rect class="f" x=".21" y=".21" width="134.04" height="134.04"/><g><polygon class="e" points="32.05 49.43 28.42 53.06 28.42 49.43 32.05 49.43"/><polygon class="e" points="45.37 49.43 33.8 61 28.42 61 28.42 57.57 36.56 49.43 45.37 49.43"/><polygon class="e" points="58.69 49.43 47.12 61 38.32 61 49.89 49.43 58.69 49.43"/><polygon class="e" points="72 49.43 60.44 61 51.64 61 63.2 49.43 72 49.43"/><polygon class="e" points="85.32 49.43 73.76 61 64.95 61 76.52 49.43 85.32 49.43"/><polygon class="e" points="98.64 49.43 87.07 61 78.27 61 89.84 49.43 98.64 49.43"/><polygon class="e" points="108.53 49.43 108.53 52.85 100.39 61 91.59 61 103.15 49.43 108.53 49.43"/><polygon class="e" points="104.91 61 108.53 57.37 108.53 61 104.91 61"/></g><rect class="e" x="45.37" y="90.69" width="46.4" height="4.77"/><rect class="d" x="28.42" y="49.43" width="80.11" height="11.57"/><rect class="g" x=".21" y=".21" width="21.13" height="21.13"/><text class="h" transform="translate(4.9 15)"><tspan x="0" y="0">13</tspan></text><rect class="e" x="38.5" y="39.82" width="6.87" height="71.78"/><rect class="e" x="91.77" y="39.82" width="6.87" height="71.78"/><circle class="e" cx="41.94" cy="36.68" r="7.33"/><circle class="e" cx="95.2" cy="36.68" r="7.33"/></g></g></g></svg>