<?xml version="1.0" encoding="UTF-8"?>
<svg id="Capa_1" data-name="Capa 1" xmlns="http://www.w3.org/2000/svg" viewBox="0 0 134.89 134.89">
  <defs>
    <style>
      .cls-1 {
        font-family: NotoSans-Bold, 'Noto Sans';
        font-size: 19px;
        font-weight: 700;
      }

      .cls-1, .cls-2 {
        fill: #1d1d1b;
      }

      .cls-1, .cls-3 {
        isolation: isolate;
      }

      .cls-4 {
        fill: #eddfd6;
      }
    </style>
  </defs>
  <g id="_37" data-name=" 37">
    <path class="cls-2" d="M-.37-.15h135.62v135.74H-.37V-.15Z"/>
    <path class="cls-4" d="M-.04-.18h28.48v20.18c0,3.78-3.06,6.84-6.84,6.84H-.04V-.18Z"/>
    <g id="CNCXJM">
      <g>
        <path class="cls-4" d="M65.58,23.88c31.54-1.69,54.4,31.14,42.23,60.28-12.93,30.95-54.4,36.55-74.87,9.77-21.42-28.02-2.29-68.17,32.64-70.04ZM69.82,25.87c-1.69-.2-3.7.14-5.43,0-.04.35.05.66.14.99.2.73,1.81,5.01,2.13,5.45s1.19.47,1.64.2c.24-.83,2.71-6.17,2.44-6.43-.35.12-.7-.18-.92-.21ZM62.32,26.3c-6.01.75-11.88,2.78-16.91,6.14-.09.14.63,2.58.74,2.66.33.23,3.57-1.9,4.22-2.22,4.04-1.99,8.5-3.28,12.99-3.72l-1.04-2.85ZM88.99,35.3l.79-2.75c-4.99-3.5-10.96-5.4-16.98-6.27-.01.5-1.09,2.6-.83,2.86,4.59.49,9.25,1.85,13.33,3.99,1.26.66,2.4,1.55,3.68,2.16ZM63.95,31.03c-3.57.16-7.32,1.19-10.62,2.53-1.03.42-6.11,2.84-6.47,3.58-.42.84,1.13,3.07.94,3.96-.04.2-2.86,2.46-3.35,2.36-.54-.12-2.58-1.67-3.1-1.57-4.4,4.23-7.74,9.97-9.13,15.93.76.59,3.25,1.37,3.24,2.36,0,.32-.54,3.43-.65,3.58-.24.33-3.24.55-3.83.89-.29,5.1.28,10.24,2.02,15.05.18.5.91,2.48,1.13,2.77.47.59,3.68-.68,4.1-.21.25.28,1.76,3.11,1.75,3.37-.04.8-2.3,2.93-2.24,3.27,3.16,4.18,7.54,8.55,12.28,10.9.55.27,1.61.95,2.17.53.48-.37,1.64-2.28,2.29-2.45s2.84,1.08,3.63,1.18c.37,1.34.34,2.73.33,4.12,5.93,1.4,12.1,1.45,18.02,0l.24-4.06c.77-.11,3.49-1.54,4.03-1.22.27.42,1.99,2.53,2.23,2.6.51.15,1.8-.61,2.32-.89,1.64-.9,3.56-2.22,5.01-3.39,1.21-.97,6.61-6.07,6.67-7.29.04-.74-1.99-2.35-2.06-3.06-.04-.37,1.57-3.34,1.85-3.48.89-.43,2.99.64,4.07.27,1.35-3.03,2.36-6.24,2.87-9.53.31-1.97.78-6.11.44-7.96-.21-1.16-3.58-.7-4-1.54-.17-.34-.62-3.59-.52-3.96.08-.3,2.97-1.32,3.09-2.09.17-1.1-2.56-6.76-3.26-8.03-1.57-2.84-3.54-5.16-5.6-7.62-.55-.32-2.82,1.45-3.4,1.58-.44.09-3.3-2.16-3.35-2.36-.2-.95,1.5-3.21.85-4.08-.61-.82-6.3-3.47-7.55-3.94-2.92-1.09-6.25-1.85-9.35-2.11-.34.09-1.03,3.28-1.57,3.6-.26.16-3.15.18-3.59.1-.9-.17-1.42-2.86-1.98-3.65ZM91.46,33.66l-2.01,6.5c0,.38.54.84.89.89,2.16-.65,4.27-2.05,6.24-3.19l-3.18-2.97c-.37-.15-1.63-1.51-1.94-1.24ZM43.68,33.87c-.33-.29-2.76,1.7-3.17,2.06-.32.28-2.15,1.97-1.95,2.25,1.26.17,5.19,3.09,6.05,3.07.35,0,1.09-.75,1.08-1.08l-2.01-6.29ZM39.58,40.64c-.66-.02-2-1.3-2.53-1.2-.61.12-4.07,5.01-4.6,5.85-1.24,1.96-4.03,7.08-4.31,9.24-.13.95,1.59,1.79,2.41,1.89,1.3-4.28,3.34-8.35,5.99-11.95.83-1.12,2.16-2.33,2.84-3.32.12-.17.29-.2.2-.51ZM107,55.15c.35-.59-2.26-6.23-2.73-7.14-.71-1.36-5.06-8.29-6.2-8.58-.37-.1-2.45.97-2.51,1.33,4,4.48,7.14,9.78,9,15.57.23.16,2.36-1.06,2.43-1.18ZM33.18,62.12c.24-.27.28-1.24-.06-1.61-.95-1.04-3.91-2.04-5.04-3.16-.18-.1-.7-.2-.8-.11-.25.21-.95,5.56-1.03,6.35.86-.27,6.7-1.21,6.93-1.47ZM107.86,57.24l-.81.11c-1.13,1.12-4.09,2.13-5.04,3.16-.33.37-.29,1.33-.06,1.61s6.07,1.2,6.93,1.47l-1.03-6.36ZM28.92,65.03l-2.78.6c-.42,6.04.87,12.11,2.96,17.73.16.24,2.12-.07,2.5-.18.31-.09.41-.03.41-.41,0-.69-1.27-3.42-1.55-4.41-1.24-4.31-1.64-8.85-1.54-13.33ZM105.98,83.25c.17-.11,1.16-3.22,1.31-3.71,1.33-4.42,2.02-9.3,1.7-13.91l-2.68-.6c-.11,4.16-.34,8.31-1.39,12.35-.36,1.36-1.76,4.37-1.79,5.39-.02.48.04.23.31.3.45.12,2.25.37,2.53.18ZM37.29,84.34c-.3-.18-6.72.72-6.92,1.01-.28.41,2.4,5.19,2.85,5.43.37.2.52-.11.73-.32.43-.43,3.53-4.36,3.69-4.73.14-.32-.17-1.28-.34-1.39ZM104.78,85.34l-6.46-1.05c-.83-.03-1.11,1.02-.82,1.66.68.49,3.74,4.99,4.1,4.93.33-.05.31-.16.49-.34.46-.51,2.92-4.86,2.69-5.2ZM50.45,101.94c-5.54-2.56-10.09-6.75-13.85-11.48l-1.63,1.85c-.35.79.61,1.72,1.13,2.34,2.34,2.79,5.95,5.86,9.03,7.78.57.36,2.9,1.81,3.36,1.77.25-.03,1.54-1.44,1.75-1.75.12-.17.28-.2.2-.51ZM98.55,90.67c-2.84,3.48-6,6.62-9.73,9.14-.61.41-3.68,2.04-3.83,2.33s-.04.31.1.52c.12.17,1.25,1.49,1.34,1.55.49.34,2.07-.75,2.63-1.09,3.3-1.97,7.39-5.44,9.88-8.36,1.62-1.91,1.86-2.45-.39-4.09ZM56.6,107.48l-.23-6.84c-.14-.41-1.06-.53-1.47-.55l-4.45,5.24c.09.36,5.81,2.5,6.15,2.16ZM80.34,100.13c-.3-.17-1.45.14-1.57.5l-.23,6.84c.34.34,6.07-1.8,6.15-2.16l-4.34-5.19ZM76.69,105.22c-6.04,1.41-12.21,1.39-18.25,0v2.87c5.99,1.3,12.27,1.42,18.25,0v-2.87Z"/>
        <path class="cls-4" d="M65.17,36.59c25.04-1.88,41.99,25.7,28.71,47.16-12.46,20.13-41.98,19.45-53.38-1.29-10.84-19.71,2.35-44.19,24.67-45.87ZM64.76,38.64c-19.34,1.71-31.36,22.39-23.78,40.26,8.26,19.47,34.36,23.68,48.33,7.66,17.17-19.69,1.4-50.21-24.55-47.92Z"/>
      </g>
    </g>
    <text class="cls-1" transform="translate(2.47 -2.32)"><tspan x="0" y="0">40</tspan></text>
    <g class="cls-3">
      <path class="cls-2" d="M13.37,17.27h-1.63v2.81h-2.79v-2.81H3.15v-2l5.95-8.76h2.64v8.53h1.63v2.22ZM8.95,15.04v-2.3c0-.29,0-.65.02-1.06.01-.42.03-.81.05-1.17s.04-.6.05-.71h-.08c-.11.25-.24.5-.37.74-.13.24-.28.49-.45.74l-2.49,3.76h3.27Z"/>
      <path class="cls-2" d="M23.86,13.29c0,1.46-.15,2.71-.46,3.74-.31,1.04-.81,1.84-1.51,2.39-.7.56-1.62.84-2.77.84-1.63,0-2.83-.61-3.59-1.84-.76-1.23-1.14-2.94-1.14-5.13,0-1.46.15-2.71.46-3.75s.8-1.85,1.5-2.4c.7-.56,1.62-.84,2.77-.84,1.62,0,2.82.62,3.59,1.84.77,1.23,1.16,2.94,1.16,5.15ZM17.23,13.29c0,1.55.13,2.71.4,3.49.27.78.76,1.17,1.48,1.17s1.2-.39,1.48-1.16c.28-.77.42-1.94.42-3.5s-.14-2.71-.42-3.5c-.28-.79-.77-1.18-1.48-1.18s-1.21.39-1.48,1.18c-.27.79-.4,1.95-.4,3.5Z"/>
    </g>
  </g>
</svg>