<?xml version="1.0" encoding="UTF-8"?><svg xmlns="http://www.w3.org/2000/svg" viewBox="0 0 134.89 134.89"><defs><style>.d{stroke-width:.53px;}.d,.e,.f,.g{fill:#eddfd6;}.d,.f,.g{stroke:#1d1d1b;stroke-miterlimit:10;}.h,.i{fill:#1d1d1b;}.f{stroke-width:.5px;}.g{stroke-width:.42px;}.i{font-family:Helvetica, Helvetica;font-size:11.07px;}</style></defs><g id="a"/><g id="b"><g id="c"><g><rect class="h" x=".21" y=".21" width="134.46" height="134.46" rx=".21" ry=".21"/><path class="e" d="M134.46,.42V134.46H.42V.42H134.46m0-.42H.42c-.23,0-.42,.19-.42,.42V134.46c0,.23,.19,.42,.42,.42H134.46c.23,0,.42-.19,.42-.42V.42c0-.23-.19-.42-.42-.42h0Z"/></g><rect class="e" x=".42" y=".42" width="21.13" height="21.13"/><text class="i" transform="translate(5.12 15.21)"><tspan x="0" y="0">03</tspan></text><g><circle class="d" cx="68" cy="67.48" r="35.98"/><circle class="f" cx="68" cy="67.48" r="33.89"/><circle class="g" cx="68" cy="67.48" r="28.83"/><path class="h" d="M76.09,56.46l.67,5.25-.99,.09c-.53-4.18-1.35-4.88-3.87-4.88h-5.08c-1.1,0-1.67,.52-1.67,1.43v8.39h4.4c2.09,0,2.7-.46,2.7-3.6h.82v8.27h-.82c0-3.11-.6-3.57-2.7-3.57h-4.4v9c0,1.43,.28,1.74,1.67,1.74h5.04c2.66,0,3.69-.88,5.11-5.55l.99,.24-1.74,5.8-.28,.88h-18.56v-.73c3.3,0,3.76-.55,3.76-2.41v-18.12c0-1.86-.46-2.41-3.76-2.41v-.73h18.6l.11,.92Z"/><circle class="h" cx="67.5" cy="47.52" r="2.6"/><circle class="h" cx="67.5" cy="89.42" r="2.6"/></g><g><path class="h" d="M92.61,54.36c-.44-2.28-1.54-4.37-3.22-6.05-1.67-1.68-3.77-2.78-6.05-3.22,2.28-.44,4.37-1.54,6.05-3.22,1.68-1.68,2.78-3.77,3.22-6.05,.9,4.67,4.6,8.37,9.27,9.27-2.28,.44-4.38,1.54-6.05,3.22-1.68,1.68-2.78,3.77-3.22,6.05Z"/><path class="e" d="M92.62,36.75c1.11,4.04,4.3,7.23,8.34,8.34-1.98,.54-3.79,1.59-5.27,3.07s-2.53,3.29-3.07,5.26c-.54-1.97-1.59-3.78-3.07-5.26-1.48-1.49-3.29-2.53-5.26-3.07,1.97-.54,3.78-1.59,5.26-3.07,1.49-1.49,2.53-3.3,3.07-5.27m0-3.16c0,3.17-1.29,6.05-3.37,8.13-2.08,2.08-4.95,3.37-8.13,3.37,3.18,0,6.05,1.29,8.13,3.37,2.08,2.08,3.37,4.96,3.37,8.14,0-3.18,1.29-6.05,3.37-8.14,2.08-2.08,4.96-3.37,8.14-3.37-6.35,0-11.5-5.15-11.5-11.5h0Z"/></g></g></g></svg>