<?xml version="1.0" encoding="UTF-8"?>
<svg id="Capa_1" data-name="Capa 1" xmlns="http://www.w3.org/2000/svg" viewBox="0 0 134.89 134.89">
  <defs>
    <style>
      .cls-1 {
        font-family: NotoSans-Bold, 'Noto Sans';
        font-size: 19px;
        font-weight: 700;
      }

      .cls-1, .cls-2, .cls-3 {
        fill: #1d1d1b;
      }

      .cls-1, .cls-4 {
        isolation: isolate;
      }

      .cls-2 {
        stroke-width: .35px;
      }

      .cls-2, .cls-5, .cls-6, .cls-7 {
        stroke: #1d1d1b;
        stroke-miterlimit: 10;
      }

      .cls-8, .cls-5, .cls-6, .cls-7 {
        fill: #eddfd6;
      }

      .cls-5 {
        stroke-width: .6px;
      }

      .cls-6 {
        stroke-width: .5px;
      }

      .cls-7 {
        stroke-width: .64px;
      }
    </style>
  </defs>
  <g id="_35" data-name=" 35">
    <path class="cls-3" d="M-.62-.15h135.62v135.74H-.62V-.15Z"/>
    <path class="cls-8" d="M-.29-.18h28.48v20.18c0,3.78-3.06,6.84-6.84,6.84H-.29V-.18Z"/>
    <text class="cls-1" transform="translate(2.22 -2.32)"><tspan x="0" y="0">35</tspan></text>
    <g class="cls-4">
      <path class="cls-3" d="M12.33,9.7c0,.94-.28,1.69-.85,2.24-.56.56-1.26.94-2.08,1.14v.06c1.08.14,1.9.47,2.47,1.01.57.53.85,1.24.85,2.13,0,.79-.19,1.49-.58,2.12-.39.63-.98,1.12-1.79,1.48s-1.84.54-3.11.54c-1.47,0-2.78-.25-3.91-.74v-2.43c.58.29,1.19.51,1.82.67.63.15,1.23.23,1.79.23,1.03,0,1.74-.18,2.16-.53s.62-.85.62-1.5c0-.37-.09-.68-.29-.95-.19-.27-.52-.46-1-.6-.48-.13-1.14-.2-1.99-.2h-1.03v-2.2h1.04c.84,0,1.47-.08,1.91-.24s.73-.37.89-.65c.16-.27.24-.58.24-.94,0-.48-.15-.86-.45-1.13-.3-.27-.8-.41-1.49-.41-.65,0-1.21.11-1.69.34-.48.23-.88.44-1.2.65l-1.33-1.98c.53-.38,1.16-.7,1.87-.95.72-.25,1.57-.38,2.56-.38,1.39,0,2.5.28,3.32.85s1.23,1.36,1.23,2.38Z"/>
      <path class="cls-3" d="M19.19,11.56c.82,0,1.56.16,2.2.47.65.32,1.16.78,1.53,1.39.37.61.56,1.36.56,2.26,0,1.47-.46,2.62-1.37,3.47-.91.84-2.26,1.26-4.05,1.26-.71,0-1.38-.06-2-.19-.63-.13-1.17-.31-1.64-.55v-2.47c.47.24,1.03.45,1.69.62.66.17,1.28.26,1.86.26.85,0,1.5-.17,1.95-.52.45-.35.67-.89.67-1.62,0-1.37-.91-2.05-2.72-2.05-.35,0-.72.04-1.1.1-.38.07-.7.14-.95.2l-1.14-.61.51-6.92h7.35v2.43h-4.84l-.25,2.66c.21-.04.45-.08.69-.12.25-.04.59-.07,1.04-.07Z"/>
    </g>
    <g>
      <g>
        <circle class="cls-7" cx="67.45" cy="67.86" r="43.15"/>
        <circle class="cls-5" cx="67.45" cy="67.86" r="40.64"/>
        <circle class="cls-6" cx="67.45" cy="67.86" r="34.57"/>
      </g>
      <g>
        <path class="cls-3" d="M93.58,52.13c-.53-2.73-1.85-5.24-3.86-7.26-2-2.01-4.52-3.33-7.26-3.86,2.73-.53,5.24-1.85,7.26-3.86s3.33-4.52,3.86-7.26c1.08,5.6,5.52,10.04,11.12,11.12-2.73.53-5.25,1.85-7.27,3.86s-3.33,4.52-3.86,7.26h.01Z"/>
        <path class="cls-8" d="M93.58,31.01c1.33,4.84,5.16,8.67,10,10-2.37.65-4.55,1.91-6.32,3.68-1.77,1.77-3.03,3.95-3.68,6.31-.65-2.36-1.91-4.53-3.68-6.31-1.77-1.79-3.95-3.03-6.31-3.68,2.36-.65,4.53-1.91,6.31-3.68,1.79-1.79,3.03-3.96,3.68-6.32M93.58,27.22c0,3.8-1.55,7.26-4.04,9.75-2.49,2.49-5.94,4.04-9.75,4.04,3.81,0,7.26,1.55,9.75,4.04,2.49,2.49,4.04,5.95,4.04,9.76,0-3.81,1.55-7.26,4.04-9.76,2.49-2.49,5.95-4.04,9.76-4.04-7.62,0-13.79-6.18-13.79-13.79h-.01Z"/>
      </g>
    </g>
    <g id="qCnd2u.tif">
      <g>
        <path class="cls-2" d="M66.82,35.51l.78,2.18-.62-.15v16.02c-.21-.14-.57-.44-.62-.47v-15.55s-.62.15-.62.15l.78-2.18h.31Z"/>
        <path class="cls-2" d="M98.08,67.15c-.3-.16-1.22-.62-1.49-.7-.43-.13-.15.44-.07.62h-29.39v-10.88l-.11-1.53c-.18-.12-.39-.31-.67-.49v1.55s0,.94,0,.94v10.42h-18.81c-.02.33-.01.31,0,.62h18.82s0,13.06,0,13.06c.41-.26.58-.6.62-.62v-12.44h29.54c0,.16-.38.52.08.47.19-.02,1.76-.61,1.79-.7.09-.3-.14-.23-.3-.31Z"/>
        <path class="cls-2" d="M48.32,62.41c-.2.93-.73,3.72-.78,4.66-.02.33-.01.31,0,.62.21,4.96,2.56,11.62,7.36,13.87,3.34,1.57,8.36,1.16,11.46-.81.41-.26.58-.6.62-.62,2.97-1.99,5.59-3.96,9.33-2.56,4.73,1.77,9.8,10.14,12.06,14.53.19.38,1.23,2.26,1.01,2.49-.09.09-.54,0-.7-.15-.22-.19-1.72-3.37-2.07-3.99-2.34-4.06-7.27-12.25-12.41-12.63-3.06-.23-4.86,1.95-7.05,3.4-.17.11-.58.35-.78.47-3.74,2.22-9.65,2.14-13.27-.34-3.88-2.66-6.2-9.1-6.32-13.66,0-.21,0-.42,0-.62.03-1,.7-3.88.93-4.82.2-.09.41-.04.62.16Z"/>
        <path class="cls-2" d="M66.35,53.08c.05.03.42.33.62.47.52.35,2.13,1.48,2.64,1.87-.26.1-.93.31-.93.31,0,0-1.52-.96-1.71-1.09-.18-.12-.35-.29-.62-.47-1.27-.84-1.7-1.14-3.26-1.48-7.87-1.75-12.78,2.37-14.78,9.72-.2-.03-.44-.15-.62-.16,1.05-4.89,4.41-9.62,9.61-10.53,2.67-.47,6.68,0,9.05,1.36Z"/>
        <path class="cls-2" d="M67.13,81.23v15.78s.47.16.47.16l-.78,2.1c-.17.13-.9-1.71-.93-1.95-.06-.5.41,0,.47-.08v-15.55c.2-.12.61-.36.78-.47Z"/>
        <path class="cls-2" d="M68.69,55.73c.34-.13.69-.22.93-.31,5.2,4.26,11.36-2.36,14.31-6.53.4-.17,1.11-.55.93-.31-3.61,4.98-9.97,12.15-16.17,7.15Z"/>
        <path class="cls-2" d="M36.96,67.86c-.03.21.13.56-.22.46-.56-.17-1.2-.66-1.8-.77-.07-.4.06-.24.22-.32.33-.17,1.23-.57,1.57-.61.5-.06,0,.41.08.47h9.95c0,.21,0,.42,0,.62h-9.8l-.15.08.15.08Z"/>
        <path class="cls-2" d="M83.92,48.89l4.83-8.7.77.15c-1.32,2.85-2.93,5.6-4.66,8.24-.27.25-.67.22-.93.31Z"/>
      </g>
    </g>
  </g>
</svg>