<?xml version="1.0" encoding="utf-8"?>
<!-- Generator: Adobe Illustrator 24.1.1, SVG Export Plug-In . SVG Version: 6.00 Build 0)  -->
<svg version="1.1" id="Capa_1" xmlns="http://www.w3.org/2000/svg" xmlns:xlink="http://www.w3.org/1999/xlink" x="0px" y="0px"
	 viewBox="0 0 134.9 134.9" style="enable-background:new 0 0 134.9 134.9;" xml:space="preserve">
<style type="text/css">
	.st0{fill:#1D1D1B;}
	.st1{fill:#EDDFD6;}
	.st2{fill:#222222;}
	.st3{fill:#EDDFD6;stroke:#1D1D1B;stroke-width:0.42;stroke-linecap:round;stroke-linejoin:round;}
	.st4{fill:#1D1D1B;stroke:#EDDFD6;stroke-width:0.42;stroke-miterlimit:10;}
	.st5{fill:none;stroke:#1D1D1B;stroke-width:0.42;stroke-miterlimit:10;}
	.st6{fill:#00AEEF;}
	.st7{enable-background:new    ;}
	.st8{fill:#EDDFD6;stroke:#1D1D1B;stroke-width:0.6437;stroke-miterlimit:10;}
	.st9{fill:#EDDFD6;stroke:#1D1D1B;stroke-width:0.6073;stroke-miterlimit:10;}
	.st10{fill:#EDDFD6;stroke:#1D1D1B;stroke-width:0.5101;stroke-miterlimit:10;}
	.st11{fill:#EDDFD6;stroke:#1D1D1B;stroke-width:0.42;stroke-miterlimit:10;}
	.st12{fill:#EDDFD6;stroke:#1D1D1B;stroke-width:0.6356;stroke-miterlimit:10;}
	.st13{fill:#EDDFD6;stroke:#1D1D1B;stroke-width:0.5996;stroke-miterlimit:10;}
	.st14{fill:#EDDFD6;stroke:#1D1D1B;stroke-width:0.5037;stroke-miterlimit:10;}
	.st15{fill:#EDDFD6;stroke:#1D1D1B;stroke-width:0.422;stroke-miterlimit:10;}
	.st16{fill:#1D1D1B;stroke:#EDDFD6;stroke-width:0.422;stroke-miterlimit:10;}
	.st17{fill:none;stroke:#1D1D1B;stroke-width:0.422;stroke-miterlimit:10;}
	.st18{fill:none;stroke:#EDDFD6;stroke-width:0.422;stroke-linecap:round;stroke-linejoin:round;}
	.st19{fill:none;stroke:#EDDFD6;stroke-width:17;stroke-miterlimit:10;}
	.st20{fill:#EDDFD6;stroke:#EDDFD6;stroke-width:0.42;stroke-miterlimit:10;}
	.st21{fill:#EDDFD6;stroke:#1D1D1B;stroke-width:0.4786;stroke-miterlimit:10;}
	.st22{fill:#1D1D1B;stroke:#EDDFD6;stroke-width:0.4786;stroke-miterlimit:10;}
	.st23{fill:none;stroke:#1D1D1B;stroke-width:0.4786;stroke-miterlimit:10;}
	.st24{fill:none;stroke:#EDDFD6;stroke-width:0.4786;stroke-miterlimit:10;}
	.st25{fill:none;stroke:#EDDFD6;stroke-width:0.9265;stroke-miterlimit:10;}
	.st26{fill:#1D1D1B;stroke:#EDDFD6;stroke-width:0.53;stroke-miterlimit:10;}
	.st27{fill:#1D1D1B;stroke:#EDDFD6;stroke-width:0.6436;stroke-miterlimit:10;}
	.st28{fill:#EDDFD6;stroke:#1D1D1B;stroke-width:0.6436;stroke-miterlimit:10;}
	.st29{fill:#EDDFD6;stroke:#1D1D1B;stroke-width:0.6072;stroke-miterlimit:10;}
	.st30{fill:#EDDFD6;stroke:#1D1D1B;stroke-width:0.51;stroke-miterlimit:10;}
	.st31{fill:none;stroke:#EDDFD6;stroke-width:10.3992;stroke-miterlimit:10;}
	.st32{font-family:'NotoSans-Bold';}
	.st33{font-size:19px;}
</style>
<g id="_x31_7">
	<rect x="-0.1" y="-0.1" class="st0" width="135.5" height="135.5"/>
	<g>
		<circle class="st31" cx="69.7" cy="67.5" r="38.2"/>
		<rect x="94.3" y="44.8" class="st0" width="19.5" height="45.2"/>
		<polygon class="st1" points="104.4,52.7 86.4,46.7 109.4,36.8 		"/>
		
			<rect x="87.2" y="85.9" transform="matrix(0.5556 -0.8315 0.8315 0.5556 -41.9321 119.4803)" class="st0" width="7.3" height="26.1"/>
		
			<rect x="71.8" y="88.3" transform="matrix(0.8078 -0.5895 0.5895 0.8078 -45.2405 63.9365)" class="st0" width="7.3" height="26.1"/>
	</g>
	<g>
		<path class="st1" d="M-0.1-0.1h28.5V20c0,3.8-3.1,6.8-6.8,6.8H-0.1V-0.1z"/>
		<text transform="matrix(1 0 0 1 2.4281 -2.2807)" class="st0 st32 st33">17</text>
		<g>
			<path class="st0" d="M11.2,20.4H8.3v-7.8c0-0.3,0-0.7,0-1.3s0-1,0.1-1.4C8.3,10,8.2,10.1,8,10.3c-0.2,0.2-0.4,0.4-0.6,0.5
				l-1.6,1.3l-1.4-1.7l4.4-3.5h2.4V20.4z"/>
			<path class="st0" d="M16.3,20.4l5.1-11.2h-6.7V6.9h9.7v1.8l-5.1,11.8H16.3z"/>
		</g>
	</g>
</g>
</svg>
