<svg id="Capa_1" data-name="Capa 1" xmlns="http://www.w3.org/2000/svg" xmlns:xlink="http://www.w3.org/1999/xlink" viewBox="0 0 134.89 134.89"><defs><style>.cls-1{fill:#fff;}.cls-2,.cls-4{fill:#1d1d1b;}.cls-3{fill:#eddfd6;}.cls-4{font-size:19px;font-family:NotoSans-Bold, Noto Sans;font-weight:700;}.cls-5{mask:url(#mask);}.cls-6{fill:#ebdbd3;fill-rule:evenodd;}.cls-7{mask:url(#mask-2);}.cls-8{mask:url(#mask-3);}</style><mask id="mask" x="36.18" y="53.47" width="62.53" height="60" maskUnits="userSpaceOnUse"><g id="mask0_32_27" data-name="mask0 32 27"><path class="cls-1" d="M36.18,53.47H98.71v60H36.18Z"/></g></mask><mask id="mask-2" x="35.53" y="41.5" width="63.83" height="15.03" maskUnits="userSpaceOnUse"><g id="mask1_32_27" data-name="mask1 32 27"><path class="cls-1" d="M35.53,41.5H99.36v15H35.53Z"/></g></mask><mask id="mask-3" x="51.75" y="21.42" width="31.4" height="23.14" maskUnits="userSpaceOnUse"><g id="mask2_32_27" data-name="mask2 32 27"><path class="cls-1" d="M51.75,21.42h31.4V44.56H51.75Z"/></g></mask></defs><g id="_31" data-name="31"><path class="cls-2" d="M-.62-.15H135V135.59H-.62V-.15Z"/></g><path class="cls-3" d="M-.29-.18H28.19V20a6.84,6.84,0,0,1-6.84,6.84H-.29Z"/><text class="cls-4" transform="translate(2.22 -2.32)">31</text><g class="cls-5"><path class="cls-6" d="M82.43,113.47h-30A16.23,16.23,0,0,1,36.23,97.25V67.57a17.9,17.9,0,0,1,1.08-6.1l2.54-7a1.44,1.44,0,0,1,1.35-.95H93.68a1.42,1.42,0,0,1,1.34.95l2.55,7a17.65,17.65,0,0,1,1.07,6.1V97.25a16.22,16.22,0,0,1-16.21,16.22Zm-40.22-57-2.19,6a14.88,14.88,0,0,0-.9,5.12V97.25A13.33,13.33,0,0,0,52.46,110.6h30A13.33,13.33,0,0,0,95.77,97.25V67.58a14.92,14.92,0,0,0-.9-5.12l-2.19-6Z"/></g><g class="cls-7"><path class="cls-6" d="M97.92,56.44H37A1.43,1.43,0,0,1,35.53,55V46.25a4.65,4.65,0,0,1,4.65-4.65H94.71a4.65,4.65,0,0,1,4.65,4.65V55A1.44,1.44,0,0,1,97.92,56.44ZM38.41,53.56H96.49V46.25a1.78,1.78,0,0,0-1.78-1.78H40.18a1.78,1.78,0,0,0-1.77,1.78Z"/></g><g class="cls-8"><path class="cls-6" d="M80.38,44.47a1.61,1.61,0,0,1-.6-.12,1.44,1.44,0,0,1-.71-1.91,12.78,12.78,0,1,0-23.25,0,1.44,1.44,0,1,1-2.62,1.19,15.65,15.65,0,1,1,28.48,0A1.41,1.41,0,0,1,80.38,44.47Z"/></g><path class="cls-6" d="M70.45,44.53a1.44,1.44,0,0,1-.58-2.75.38.38,0,0,0,.26-.33,1.54,1.54,0,0,0,0-.71c-.3-1.38-1.85-1.93-3-2.22-3.22-.75-5.06-2.51-5.06-4.83a5.16,5.16,0,0,1,5.4-4.86,5.36,5.36,0,0,1,5.21,3.58,1.44,1.44,0,1,1-2.76.83,2.52,2.52,0,0,0-2.46-1.53,2.3,2.3,0,0,0-2.52,2c0,.41.28,1.43,2.85,2h0c2.94.73,4.67,2.22,5.14,4.4A3.59,3.59,0,0,1,71,44.4,1.19,1.19,0,0,1,70.45,44.53Z"/><path class="cls-6" d="M67.44,44.47A1.43,1.43,0,0,1,66,43V28.24a1.44,1.44,0,0,1,2.87,0V43A1.43,1.43,0,0,1,67.44,44.47Z"/><path class="cls-6" d="M67.44,90.42a15.5,15.5,0,0,1-11.06-4.6,15.65,15.65,0,1,1,22.13,0A15.5,15.5,0,0,1,67.44,90.42Zm0-28.54A12.84,12.84,0,1,0,80.22,74.71,12.82,12.82,0,0,0,67.44,61.88Z"/><path class="cls-6" d="M67.44,83a5.33,5.33,0,0,1-5.22-3.62A1.44,1.44,0,0,1,65,78.57a2.48,2.48,0,0,0,2.45,1.55,2.31,2.31,0,0,0,2.53-2c0-.33,0-1.31-2.86-2-3.22-.75-5.06-2.5-5.06-4.82a5.16,5.16,0,0,1,5.4-4.86A5.35,5.35,0,0,1,72.66,70a1.44,1.44,0,0,1-2.76.83,2.51,2.51,0,0,0-2.46-1.54,2.31,2.31,0,0,0-2.52,2c0,.4.28,1.42,2.85,2h0a9.06,9.06,0,0,1,3.33,1.46,4.16,4.16,0,0,1,1.72,3.36A5.16,5.16,0,0,1,67.44,83Z"/><path class="cls-6" d="M67.44,85A1.43,1.43,0,0,1,66,83.6V65.84a1.44,1.44,0,1,1,2.87,0V83.6A1.43,1.43,0,0,1,67.44,85Z"/><path class="cls-6" d="M83,102.05H58.3a3,3,0,0,1-3-3V95.91a3,3,0,0,1,3-3H83a3,3,0,0,1,3,3v3.17A3,3,0,0,1,83,102.05ZM58.3,95.81a.08.08,0,0,0-.09.09v3.18a.09.09,0,0,0,.09.09H83a.09.09,0,0,0,.09-.09V95.9a.09.09,0,0,0-.09-.09Z"/><path class="cls-6" d="M77.19,108.29H52.52a3,3,0,0,1-3-3v-3.17a3,3,0,0,1,3-3H77.19a3,3,0,0,1,3,3v3.17A3,3,0,0,1,77.19,108.29Zm-24.67-6.24a.08.08,0,0,0-.09.09v3.18a.09.09,0,0,0,.09.09H77.19a.1.1,0,0,0,.09-.09v-3.18a.09.09,0,0,0-.09-.09Z"/><path class="cls-2" d="M12.33,9.71A3,3,0,0,1,11.49,12,4.56,4.56,0,0,1,9.41,13.1v.05a4.38,4.38,0,0,1,2.47,1,2.77,2.77,0,0,1,.85,2.13,4,4,0,0,1-.58,2.12,3.92,3.92,0,0,1-1.79,1.48,7.6,7.6,0,0,1-3.1.54,9.86,9.86,0,0,1-3.92-.74V17.26a8.51,8.51,0,0,0,1.83.66A7.77,7.77,0,0,0,7,18.15a3.37,3.37,0,0,0,2.16-.53,1.89,1.89,0,0,0,.62-1.5,1.58,1.58,0,0,0-.29-1,1.72,1.72,0,0,0-1-.6,7.91,7.91,0,0,0-2-.2h-1V12.16H6.48a5.88,5.88,0,0,0,1.91-.23,1.62,1.62,0,0,0,.89-.65,1.8,1.8,0,0,0,.24-.94,1.45,1.45,0,0,0-.45-1.13A2.18,2.18,0,0,0,7.58,8.8a4,4,0,0,0-1.69.34,12.38,12.38,0,0,0-1.2.65l-1.33-2a8,8,0,0,1,1.87-.95,7.8,7.8,0,0,1,2.56-.38,5.81,5.81,0,0,1,3.32.85A2.74,2.74,0,0,1,12.33,9.71Z"/><path class="cls-2" d="M21.34,20.24H18.47V12.39c0-.31,0-.74,0-1.28s0-1,.05-1.41a4.71,4.71,0,0,1-.4.4l-.58.53L16,11.88l-1.39-1.73L19,6.67h2.36Z"/></svg>