<?xml version="1.0" encoding="UTF-8"?><svg xmlns="http://www.w3.org/2000/svg" viewBox="0 0 134.46 134.46"><defs><style>.d,.e,.f{fill:none;}.d,.e,.f,.g,.h{stroke-miterlimit:10;}.d,.e,.g,.h{stroke-width:.42px;}.d,.h{stroke:#eddfd6;}.e,.f,.g{stroke:#1d1d1b;}.f{stroke-width:.42px;}.i,.g{fill:#eddfd6;}.j,.h,.k{fill:#1d1d1b;}.k{font-family:Helvetica, Helvetica;font-size:11.07px;}</style></defs><g id="a"/><g id="b"><g id="c"><rect class="h" x=".21" y=".21" width="134.04" height="134.04"/><rect class="i" x=".43" y=".42" width="21.13" height="21.13"/><text class="k" transform="translate(5.13 15.21)"><tspan x="0" y="0">10</tspan></text><rect class="g" x="56.65" y="32.28" width="47.06" height="74.38" transform="translate(160.36 138.93) rotate(-180)"/><rect class="g" x="58.06" y="33.78" width="44.44" height="72.88" transform="translate(160.56 140.44) rotate(-180)"/><ellipse class="h" cx="68.23" cy="73.58" rx="1" ry="1.47"/><polygon class="j" points="98.64 38.14 70.08 43.36 70.08 106.66 61.92 106.66 61.92 38.14 98.64 38.14"/><polygon class="j" points="98.64 106.66 64.33 99.39 64.33 106.66 98.64 106.66"/><circle class="f" cx="73.12" cy="72.75" r="1.63"/><g><path class="d" d="M65.95,72.75c0,12.8,10.38,23.18,23.18,23.18h1.78c12.65,0,22.93-10.13,23.18-22.72"/><polygon class="i" points="115.72 74.7 115.4 74.97 114.06 73.37 112.56 74.83 112.27 74.53 114.09 72.75 115.72 74.7"/></g><g><path class="d" d="M17.81,71.13c0,12.8,10.38,23.18,23.18,23.18h1.78c12.65,0,22.93-10.13,23.18-22.72"/><polygon class="i" points="67.58 73.07 67.26 73.35 65.92 71.75 64.42 73.2 64.12 72.9 65.95 71.13 67.58 73.07"/></g><path class="e" d="M70.07,85.95c4.18,6.03,11.16,9.98,19.05,9.98h1.78c4.73,0,9.14-1.42,12.81-3.86"/><path class="e" d="M61.92,84.17c-1.44,2.12-3.23,3.99-5.28,5.52"/></g></g></svg>