<?xml version="1.0" encoding="utf-8"?>
<!-- Generator: Adobe Illustrator 24.1.1, SVG Export Plug-In . SVG Version: 6.00 Build 0)  -->
<svg version="1.1" id="Capa_1" xmlns="http://www.w3.org/2000/svg" xmlns:xlink="http://www.w3.org/1999/xlink" x="0px" y="0px"
	 viewBox="0 0 134.9 134.9" style="enable-background:new 0 0 134.9 134.9;" xml:space="preserve">
<style type="text/css">
	.st0{fill:#1D1D1B;}
	.st1{fill:#EDDFD6;}
	.st2{fill:#222222;}
	.st3{fill:#EDDFD6;stroke:#1D1D1B;stroke-width:0.42;stroke-linecap:round;stroke-linejoin:round;}
	.st4{fill:#1D1D1B;stroke:#EDDFD6;stroke-width:0.42;stroke-miterlimit:10;}
	.st5{fill:none;stroke:#1D1D1B;stroke-width:0.42;stroke-miterlimit:10;}
	.st6{fill:#00AEEF;}
	.st7{enable-background:new    ;}
	.st8{fill:#EDDFD6;stroke:#1D1D1B;stroke-width:0.6437;stroke-miterlimit:10;}
	.st9{fill:#EDDFD6;stroke:#1D1D1B;stroke-width:0.6073;stroke-miterlimit:10;}
	.st10{fill:#EDDFD6;stroke:#1D1D1B;stroke-width:0.5101;stroke-miterlimit:10;}
	.st11{fill:#EDDFD6;stroke:#1D1D1B;stroke-width:0.42;stroke-miterlimit:10;}
	.st12{fill:#EDDFD6;stroke:#1D1D1B;stroke-width:0.6356;stroke-miterlimit:10;}
	.st13{fill:#EDDFD6;stroke:#1D1D1B;stroke-width:0.5996;stroke-miterlimit:10;}
	.st14{fill:#EDDFD6;stroke:#1D1D1B;stroke-width:0.5037;stroke-miterlimit:10;}
	.st15{fill:#EDDFD6;stroke:#1D1D1B;stroke-width:0.422;stroke-miterlimit:10;}
	.st16{fill:#1D1D1B;stroke:#EDDFD6;stroke-width:0.422;stroke-miterlimit:10;}
	.st17{fill:none;stroke:#1D1D1B;stroke-width:0.422;stroke-miterlimit:10;}
	.st18{fill:none;stroke:#EDDFD6;stroke-width:0.422;stroke-linecap:round;stroke-linejoin:round;}
	.st19{fill:none;stroke:#EDDFD6;stroke-width:17;stroke-miterlimit:10;}
	.st20{fill:#EDDFD6;stroke:#EDDFD6;stroke-width:0.42;stroke-miterlimit:10;}
	.st21{fill:#EDDFD6;stroke:#1D1D1B;stroke-width:0.4786;stroke-miterlimit:10;}
	.st22{fill:#1D1D1B;stroke:#EDDFD6;stroke-width:0.4786;stroke-miterlimit:10;}
	.st23{fill:none;stroke:#1D1D1B;stroke-width:0.4786;stroke-miterlimit:10;}
	.st24{fill:none;stroke:#EDDFD6;stroke-width:0.4786;stroke-miterlimit:10;}
	.st25{fill:none;stroke:#EDDFD6;stroke-width:0.9265;stroke-miterlimit:10;}
	.st26{fill:#1D1D1B;stroke:#EDDFD6;stroke-width:0.53;stroke-miterlimit:10;}
	.st27{fill:#1D1D1B;stroke:#EDDFD6;stroke-width:0.6436;stroke-miterlimit:10;}
	.st28{fill:#EDDFD6;stroke:#1D1D1B;stroke-width:0.6436;stroke-miterlimit:10;}
	.st29{fill:#EDDFD6;stroke:#1D1D1B;stroke-width:0.6072;stroke-miterlimit:10;}
	.st30{fill:#EDDFD6;stroke:#1D1D1B;stroke-width:0.51;stroke-miterlimit:10;}
	.st31{font-family:'NotoSans-Bold';}
	.st32{font-size:19px;}
</style>
<g id="_x31_6">
	<rect x="-0.1" y="-0.1" class="st0" width="135.1" height="135"/>
	<g>
		<path class="st27" d="M123.2,49.3c-6.4,0-12.1,2.6-16.3,6.7s-6.7,9.9-6.7,16.3c0-6.4-2.6-12.1-6.7-16.3c-4.2-4.2-9.9-6.7-16.3-6.7
			c6.4,0,12.1-2.6,16.3-6.7c4.2-4.2,6.7-9.9,6.7-16.3C100.2,39,110.5,49.3,123.2,49.3z"/>
		<circle class="st28" cx="67.4" cy="67.4" r="43.7"/>
		<circle class="st29" cx="67.4" cy="67.4" r="32.8"/>
		<circle class="st30" cx="67.4" cy="67.4" r="18.1"/>
		<path class="st0" d="M123.2,49.3c-6.4,0-12.1,2.6-16.3,6.7s-6.7,9.9-6.7,16.3c0-6.4-2.6-12.1-6.7-16.3c-4.2-4.2-9.9-6.7-16.3-6.7
			c6.4,0,12.1-2.6,16.3-6.7c4.2-4.2,6.7-9.9,6.7-16.3C100.2,39,110.5,49.3,123.2,49.3z"/>
		<path class="st0" d="M79.9,67.9c-3.5,0-6.6,1.4-8.9,3.7c-2.3,2.3-3.7,5.4-3.7,8.9c0-3.5-1.4-6.6-3.7-8.9c-2.3-2.3-5.4-3.7-8.9-3.7
			c3.5,0,6.6-1.4,8.9-3.7c2.3-2.3,3.7-5.4,3.7-8.9C67.4,62.3,73,67.9,79.9,67.9z"/>
	</g>
	<g>
		<path class="st1" d="M-0.1-0.1h28.5V20c0,3.8-3.1,6.8-6.8,6.8H-0.1V-0.1z"/>
		<text transform="matrix(1 0 0 1 2.4319 -2.2505)" class="st0 st31 st32">16</text>
		<g>
			<path class="st0" d="M11.1,20.6H8.3v-7.8c0-0.3,0-0.7,0-1.3c0-0.5,0-1,0.1-1.4c-0.1,0.1-0.2,0.2-0.4,0.4
				c-0.2,0.2-0.4,0.4-0.6,0.5l-1.6,1.3l-1.4-1.7L8.8,7h2.4V20.6z"/>
			<path class="st0" d="M14.8,14.8c0-0.8,0.1-1.5,0.2-2.3c0.1-0.8,0.3-1.5,0.6-2.2s0.7-1.3,1.2-1.8c0.5-0.5,1.2-0.9,2-1.2
				c0.8-0.3,1.8-0.4,2.9-0.4c0.3,0,0.6,0,0.9,0s0.7,0.1,0.9,0.1v2.3c-0.2-0.1-0.5-0.1-0.8-0.1c-0.3,0-0.6-0.1-0.8-0.1
				c-1.1,0-2,0.2-2.6,0.5s-1,0.9-1.3,1.5c-0.3,0.6-0.4,1.4-0.4,2.2h0.1c0.3-0.4,0.6-0.8,1.1-1.1c0.5-0.3,1.1-0.5,1.9-0.5
				c1.2,0,2.1,0.4,2.8,1.1c0.7,0.7,1,1.8,1,3.2c0,1.5-0.4,2.6-1.2,3.5c-0.8,0.8-2,1.3-3.4,1.3c-0.9,0-1.8-0.2-2.5-0.6
				c-0.7-0.4-1.3-1.1-1.8-2S14.8,16.2,14.8,14.8z M19.7,18.4c0.6,0,1-0.2,1.4-0.6c0.4-0.4,0.5-1,0.5-1.8c0-0.7-0.2-1.2-0.5-1.6
				s-0.8-0.6-1.4-0.6c-0.4,0-0.8,0.1-1.1,0.3c-0.3,0.2-0.6,0.4-0.7,0.7c-0.2,0.3-0.3,0.6-0.3,0.9c0,0.4,0.1,0.8,0.2,1.2
				c0.2,0.4,0.4,0.7,0.7,1C18.9,18.3,19.3,18.4,19.7,18.4z"/>
		</g>
	</g>
</g>
</svg>
