<svg version="1.2" xmlns="http://www.w3.org/2000/svg" viewBox="0 0 500 500" width="500" height="500"><style>.a{fill:#222}.b{fill:#eddfd6}</style><path class="a" d="m-250-56h1000v612h-1000v-306z"/><path class="b" d="m340.1 270.7l4.5 1.5c2.4 0.8 6.2 2.3 8.3 3.4 2.1 1.1 5.6 3.2 7.7 4.7 2.1 1.5 5.6 4.5 7.7 6.8 2.1 2.2 4.9 5.8 6.2 7.9 1.3 2.1 3.2 6.2 4.3 9 1 2.8 2.2 7.1 2.6 9.6 0.6 2.8 0.7 7.1 0.5 11.5-0.3 4.5-0.9 8.7-1.8 11.6-0.7 2.4-2.4 6.5-3.6 8.9-1.3 2.5-3.4 6-4.7 7.7-1.3 1.8-3.9 4.7-5.8 6.5-1.9 1.8-4.8 4.1-6.4 5.2-1.5 1.1-4.6 2.8-6.8 4-2.3 1.1-6.3 2.6-14 4.8h-88.8c-82.4 0-89 0-92.9-1.1-2.3-0.6-7.2-2.6-10.9-4.4-5.8-2.9-7.5-4.1-12.6-9.1-3.7-3.8-6.8-7.6-8.6-10.7-1.5-2.6-3.4-6.8-4.3-9.3-0.8-2.4-1.8-6.3-2.2-8.6-0.4-2.4-0.5-7.2-0.3-11.2 0.2-4.4 0.9-8.8 1.7-11.6 0.7-2.4 2.1-6 3-8 0.9-1.9 2.8-5.2 4.4-7.4 1.5-2.1 4.7-5.7 7.1-8 2.5-2.3 6.2-5.2 8.3-6.5 2.1-1.3 5.8-3.1 8.3-4.1 2.5-0.9 6.4-2.1 8.7-2.5 3.3-0.7 21.5-0.8 180.4-0.6z"/><path class="a" d="m344.3 301.7v5.8h-20.6v13.5h17.4v5.7h-17.4v18h-6.4l-0.1-21.1c0-11.5 0.2-21.2 0.5-21.4 0.3-0.3 6.4-0.5 26.6-0.5zm-60.3 0h26.9v5.8h-21.1v13.5h17.9v5.7h-17.9v18h-5.8v-21.5zm-24.7 0c2.4 0 4.9 0.5 6.4 1.2 1.5 0.7 3.4 2 4.4 3 1 1.1 2.3 2.9 2.9 4.1 0.8 1.7 1.1 4.5 1.3 11.3 0.1 5-0.1 10.3-0.5 12.1-0.3 1.8-1.5 4.5-2.6 6-1.1 1.5-3.2 3.3-4.7 4.1-2 1-3.9 1.4-7.2 1.4-3.4 0-5.1-0.3-7-1.3-1.4-0.8-3.2-2.1-3.9-2.9-0.8-0.8-2-2.5-2.6-3.7-1.1-2-1.2-3.8-1.2-25.5l1.9-3.1c1.5-2.4 2.8-3.6 5.5-4.9 2.7-1.4 4.4-1.8 7.3-1.8z"/><path class="b" d="m259.2 307.5c1.3 0 3.2 0.4 4.3 1 1.1 0.5 2.5 1.9 3.2 3 1.1 1.8 1.3 3.2 1.3 11.5 0 7.2-0.2 10-1 11.4-0.5 1.1-1.7 2.5-2.7 3.3-1.3 0.9-2.7 1.3-5.1 1.2-2.9 0-3.7-0.3-8.2-4.4l-0.2-10.1c-0.2-8.4-0.1-10.5 0.8-12.2 0.5-1.2 1.9-2.7 3.1-3.4 1.1-0.7 3.2-1.3 4.5-1.3z"/><path class="a" d="m169.6 277.4c4.6 0 7.9 0.3 11.5 1.3 2.9 0.7 7 2.3 9.3 3.5 2.3 1.2 5.9 3.5 7.9 5.1 2 1.6 5 4.6 6.6 6.6 1.6 2 4 6 5.4 8.8 1.4 2.8 3 7.3 3.6 9.9 0.7 3.5 0.9 6.8 0.7 11.9-0.2 4.8-0.8 8.4-1.7 11.2-0.8 2.3-2.3 5.8-3.3 7.7-1 1.9-3.2 5.2-4.7 7.2-1.6 2-4.6 5-6.6 6.6-2 1.6-6 4.1-8.8 5.4-2.8 1.4-7 3-9.3 3.5-2.3 0.6-6.9 1-10.3 1-4.1 0-7.7-0.4-11.2-1.3-2.8-0.7-7.4-2.5-10.3-4-3.7-1.9-6.4-4-10.2-7.8-2.8-2.9-6.1-6.8-7.2-8.7-1.2-1.9-2.8-5.7-3.7-8.3-0.9-2.7-1.9-7.1-2.2-9.9-0.3-2.9-0.3-7.3 0-10 0.3-2.6 1.2-6.7 1.9-9 0.7-2.2 2.5-6.1 4-8.6 1.5-2.5 4.3-6.2 6.3-8.3 2-2.2 5.4-5.1 7.7-6.6 2.2-1.5 5.7-3.3 7.6-4.1 2-0.8 5.1-1.7 7.1-2.2 1.9-0.4 6.4-0.8 9.9-0.9z"/><path class="b" d="m340.1 127.1l4.5 1.5c2.4 0.8 7.1 2.8 10.2 4.5 4 2.1 7.3 4.4 10.8 7.8 2.8 2.6 6.3 6.7 7.9 9.1 1.5 2.4 3.7 6.4 4.7 9 1 2.5 2.4 6.9 3 9.7 0.8 3.9 1 7 0.7 12.5-0.2 4.5-0.9 9.1-1.6 11.6-0.7 2.3-2.3 6.3-3.7 8.9-1.3 2.7-3.6 6.4-5.1 8.4-1.5 1.9-4.1 4.8-5.8 6.4-1.8 1.6-4.5 3.8-6.1 4.9-1.5 1.1-4.6 2.9-6.8 4-2.3 1.1-6.3 2.6-14 4.9h-88.8c-82.4 0-89-0.1-92.9-1.1-2.3-0.7-7.1-2.6-10.7-4.4-5.7-2.7-7.4-4-12.6-9.1-3.8-3.7-7-7.6-8.6-10.4-1.4-2.5-3.2-6-3.9-7.7-0.7-1.8-1.7-5.5-2.3-8.2-0.5-2.7-1-7.8-1-11.2 0-4.3 0.4-8 1.4-11.7 0.7-3 2.2-7.3 3.2-9.6 1.1-2.3 3.2-5.9 4.7-8 1.5-2.1 4.7-5.8 7.1-8.1 2.5-2.3 6.5-5.3 8.9-6.8 2.5-1.4 6.2-3.2 8.4-4 2.1-0.8 5.7-1.8 8-2.3 3.3-0.7 21.4-0.8 180.4-0.6z"/><path class="a" d="m224.4 157.5h5.5l5 8.2c2.8 4.5 7.1 11.3 9.5 15.1 2.4 3.7 4.6 6.8 5 6.8 0.4 0 0.6-5.4 0.6-30.1h5.8v42.3h-5.8l-9-14.2c-5-7.9-9.5-14.7-10-15.3-0.7-0.8-0.8 1.3-0.8 29.5h-5.8v-21.1zm-24.7-0.6c2.1 0 4.4 0.5 6.4 1.4 1.8 0.8 4 2.5 4.9 3.7 0.9 1.2 2.1 3.2 2.6 4.4 0.6 1.6 0.9 5.2 0.9 12.2 0 7.1-0.3 10.6-0.9 12.2-0.5 1.2-1.7 3.2-2.6 4.5-0.9 1.2-3.1 2.8-4.9 3.6-1.8 0.9-4.4 1.5-6.1 1.5-1.5 0-3.8-0.3-5.1-0.6-1.2-0.3-3.2-1.3-4.5-2.1-1.3-0.9-2.9-2.8-4-5-1.7-3.4-1.8-3.8-1.8-14.1 0-10.3 0.1-10.6 1.8-14 1-1.9 2.7-4.1 3.7-4.8 1.1-0.7 2.9-1.7 4.2-2.1 1.2-0.5 3.7-0.8 5.4-0.8z"/><path class="b" d="m200.4 162.9c1.4 0.2 3.3 0.9 4.1 1.5 0.9 0.7 2.1 2.2 2.8 3.4 0.9 1.8 1.1 3.9 1.1 10.9 0 6.9-0.2 9.1-1.1 10.8-0.7 1.2-2 2.8-3 3.6-1.2 0.9-2.8 1.3-4.9 1.3-2.1 0-3.7-0.4-4.9-1.4-1-0.7-2.3-2.1-2.8-3.2-0.6-1.2-1-4.3-1.2-9.8-0.1-5 0.1-9 0.6-10.6 0.4-1.4 1.1-3.1 1.5-3.8 0.5-0.7 1.8-1.6 3-2.1 1.2-0.5 3.4-0.7 4.8-0.6z"/><path class="a" d="m331.8 134.1c6.4 0.2 9.2 0.5 12.1 1.6 2.2 0.8 5.8 2.4 8.1 3.6 2.2 1.2 6 3.8 8.2 5.9 2.3 2 5.3 5.4 6.8 7.5 1.5 2.1 3.5 5.4 4.3 7.4 0.9 1.9 2.1 5.5 2.7 8 0.7 2.7 1.1 6.9 1.1 10.6 0 3.3-0.3 7.4-0.7 9.1-0.4 1.7-1.3 4.9-2.2 7.1-0.8 2.2-2.6 5.8-4.1 8.1-1.4 2.3-4.3 5.8-6.3 7.8-2.1 2-5.3 4.6-7.3 5.8-1.9 1.3-5.4 3-7.7 3.9-2.3 1-5.7 2-7.7 2.4-1.9 0.4-6.1 0.7-9.3 0.7-3.5 0-7.6-0.5-10.5-1.3-2.7-0.6-6.9-2.2-9.3-3.4-2.5-1.3-6.2-3.6-8.2-5.3-2-1.6-5-4.5-6.6-6.6-1.6-2-3.9-5.5-5.1-7.8-1.2-2.3-2.8-6.5-3.5-9.3-0.9-3.4-1.3-7.1-1.3-10.9 0-3.2 0.4-7.8 1-10.3 0.5-2.4 2-6.8 3.4-9.6 1.4-2.8 3.9-6.8 5.5-8.8 1.6-2 4.6-5 6.6-6.6 2-1.6 5.7-3.9 8.2-5.2 2.4-1.3 6.5-2.8 8.9-3.5 3.7-1 6.1-1.2 12.9-0.9z"/><path class="b" d="m-50-50h172v163h-172z"/><path  d="m33.5 73h20.7v5h-27.8v-5q3.4-3.5 9.2-9.3 5.8-5.9 7.3-7.6 2.8-3.2 3.9-5.4 1.2-2.2 1.2-4.4 0-3.5-2.5-5.7-2.4-2.2-6.3-2.2-2.8 0-5.9 1-3.1 1-6.6 2.9v-5.9q3.6-1.5 6.7-2.2 3.1-0.7 5.7-0.7 6.7 0 10.8 3.4 4 3.4 4 9 0 2.7-1 5.2-1 2.4-3.7 5.7-0.7 0.8-4.6 4.9-3.9 4-11.1 11.3zm33.3 4.1v-5.4q2.2 1.1 4.5 1.6 2.3 0.6 4.5 0.6 5.8 0 8.9-4 3.1-3.9 3.5-11.9-1.7 2.5-4.3 3.8-2.6 1.4-5.7 1.4-6.6 0-10.4-4-3.8-4-3.8-10.8 0-6.8 3.9-10.9 4-4 10.6-4 7.6 0 11.6 5.8 4 5.8 4 16.9 0 10.3-4.9 16.5-4.9 6.1-13.2 6.1-2.2 0-4.5-0.4-2.3-0.4-4.7-1.3zm11.7-18.6q4 0 6.3-2.7 2.4-2.7 2.4-7.4 0-4.8-2.4-7.5-2.3-2.7-6.3-2.7-3.9 0-6.3 2.7-2.3 2.7-2.3 7.5 0 4.7 2.3 7.4 2.4 2.7 6.3 2.7z"/></svg>