<?xml version="1.0" encoding="UTF-8"?><svg xmlns="http://www.w3.org/2000/svg" viewBox="0 0 134.46 134.46"><defs><style>.d{letter-spacing:-.02em;}.e{fill:#eddfd6;}.f{stroke:#eddfd6;stroke-miterlimit:10;stroke-width:.42px;}.f,.g{fill:#1d1d1b;}.h{fill:#231f20;}.h,.i{font-family:Helvetica-Bold, Helvetica;font-size:7px;}.i{fill:none;stroke:#231f20;stroke-width:.25px;}.g{font-family:Helvetica, Helvetica;font-size:11.07px;}</style></defs><g id="a"/><g id="b"><g id="c"><rect class="f" x=".21" y=".21" width="134.04" height="134.04"/><rect class="e" x=".43" y=".42" width="21.13" height="21.13"/><text class="g" transform="translate(5.13 15.21)"><tspan x="0" y="0">21</tspan></text><g><path class="e" d="M77.93,31.44v22.85h-24.15V31.44h-12.56v22.94l.59,16.47c.03,.94-.03,1.87-.2,2.8l-1.19,6.52c-1.03,5.65-1.18,11.43-.45,17.13l1.25,9.77h49.27l-1.53-16.96c-.24-2.71-.19-5.44,.17-8.14l1.63-12.2c.38-2.84,.53-5.7,.46-8.57l-.74-29.76h-12.56Z"/><text class="h" transform="translate(45.92 71.5)"><tspan x="0" y="0">THANK</tspan><tspan class="d" x="24.5" y="0"> </tspan><tspan x="26.32" y="0">YOU</tspan></text><text class="i" transform="translate(44.83 77.79)"><tspan x="0" y="0">THANK</tspan><tspan class="d" x="24.5" y="0"> </tspan><tspan x="26.32" y="0">YOU</tspan></text><text class="h" transform="translate(43.92 84.09)"><tspan x="0" y="0">THANK</tspan><tspan class="d" x="24.5" y="0"> </tspan><tspan x="26.32" y="0">YOU</tspan></text><text class="i" transform="translate(43.16 90.38)"><tspan x="0" y="0">THANK</tspan><tspan class="d" x="24.5" y="0"> </tspan><tspan x="26.32" y="0">YOU</tspan></text><text class="h" transform="translate(43.92 96.68)"><tspan x="0" y="0">THANK</tspan><tspan class="d" x="24.5" y="0"> </tspan><tspan x="26.32" y="0">YOU</tspan></text></g></g></g></svg>