<?xml version="1.0" encoding="UTF-8"?>
<svg id="Capa_1" data-name="Capa 1" xmlns="http://www.w3.org/2000/svg" viewBox="0 0 134.89 134.89">
  <defs>
    <style>
      .cls-1 {
        font-family: NotoSans-Bold, 'Noto Sans';
        font-size: 19px;
        font-weight: 700;
      }

      .cls-1, .cls-2 {
        fill: #1d1d1b;
      }

      .cls-1, .cls-3 {
        isolation: isolate;
      }

      .cls-4 {
        fill: #eddfd6;
      }

      .cls-5 {
        fill: #ebdbd3;
      }
    </style>
  </defs>
  <g id="_34" data-name=" 34">
    <path class="cls-2" d="M-.62-.15h135.62v135.74H-.62V-.15Z"/>
    <path class="cls-4" d="M-.29-.18h28.48v20.18c0,3.78-3.06,6.84-6.84,6.84H-.29V-.18Z"/>
    <text class="cls-1" transform="translate(2.22 -2.32)"><tspan x="0" y="0">34</tspan></text>
    <g class="cls-3">
      <path class="cls-2" d="M24.04,17.43h-1.63v2.81h-2.79v-2.81h-5.79v-2l5.95-8.76h2.64v8.53h1.63v2.22ZM19.61,15.2v-2.3c0-.29,0-.65.02-1.06s.03-.81.05-1.17c.02-.36.03-.6.05-.71h-.08c-.11.25-.24.5-.37.74-.13.24-.28.49-.45.74l-2.49,3.76h3.27Z"/>
      <path class="cls-2" d="M12.33,9.71c.06.85-.25,1.68-.84,2.29-.59.54-1.3.92-2.08,1.1v.05c.91.07,1.77.42,2.47,1,.58.55.89,1.33.85,2.13,0,.75-.19,1.48-.58,2.12-.43.66-1.06,1.18-1.79,1.48-.98.39-2.04.58-3.1.54-1.34.02-2.68-.23-3.92-.74v-2.42c.58.29,1.2.51,1.83.66.6.15,1.21.23,1.83.23.76.07,1.52-.11,2.16-.53.42-.38.65-.93.62-1.5.02-.36-.08-.71-.29-1-.25-.31-.61-.52-1-.6-.66-.15-1.33-.22-2-.2h-1v-2.16h.99c.64.03,1.29-.05,1.91-.23.36-.11.68-.34.89-.65.16-.29.25-.61.24-.94.02-.42-.14-.84-.45-1.13-.43-.31-.96-.46-1.49-.41-.58-.01-1.16.11-1.69.34-.41.19-.81.41-1.2.65l-1.33-2c.58-.4,1.21-.72,1.87-.95.83-.27,1.69-.4,2.56-.38,1.17-.06,2.32.24,3.32.85.8.53,1.26,1.44,1.22,2.4Z"/>
    </g>
  </g>
  <g>
    <path class="cls-5" d="M85.2,86.49c5.15-1.56,11.64-5.78,17.12-5.45,4.51.27,8.1,4.94,5.57,9.17-1.9,3.18-13.22,8.48-17.01,10.39-5,2.52-14.52,7.79-19.8,8.21-4.6.37-10.61-.4-15.16-1.27-3.73-.72-10.72-3.29-14.16-2.07-1.46.52-3.96,3.18-5.16,3.13-.57-.02-1.61-.62-2.14-.92-6.41-3.63-10.96-14.73-9.94-21.88.09-.61.45-1.33,1.01-1.63,1.06-.55,3.78-1.05,5.16-1.53,9.09-3.19,17.61-7.84,27.71-5.8,2.96.6,5.58,2.29,8.62,2.54,4.56.38,9.63-2.06,13.95-.55,2.94,1.03,4.99,4.64,4.22,7.66ZM27.79,86.93c-.41,5.2,1.73,11.11,5.05,15.09.68.81,2.98,3.32,4.04,2.85.99-.45,2.13-1.75,3.4-2.29,4.63-1.95,11.99,1.03,16.86,1.92,5.62,1.03,12.69,2,18.09-.04,7.79-2.94,19.38-8.89,26.53-13.25,1.84-1.12,4.87-2.81,3.2-5.3-2.22-3.32-8.51-.42-11.45.7-9.57,3.67-19.08,10.48-29.69,7.76-1.28-.33-1.93-1.79-1.06-2.79.92-1.06,5.02.13,6.48.21,3.24.16,10.6-1.85,12.34-4.73,1.29-2.13.02-4.97-2.43-5.38-3.63-.61-8.24,1.29-12.33.96s-7.74-2.85-11.97-3.05c-1.34-.06-3.13.07-4.47.21-8.09.84-14.86,5.08-22.6,7.13Z"/>
    <path class="cls-5" d="M35.68,70.26c.46-.27.77-.82,1.09-1.24.91-1.22,2.4-3.87,3.37-4.75,1.43-1.31,3.47.35,2.59,1.98l-6.65,9.33c-.56.6-1.37.79-2.1.33l-9.37-6.67c-1.3-1.4-.11-3.37,1.74-2.75l6.08,4.17-.82-6.79c-.39-18.65,13.12-35.07,31.6-37.83,26.88-4.01,48.86,20.89,41.41,47.1-.31,1.09-1.05,3.98-2.17,4.33-.71.22-1.78-.15-2-.87-.32-1.09,1.2-4.86,1.52-6.31,5.46-24.56-16.59-46.35-41.1-40.49-17.91,4.28-29.13,22.43-25.2,40.45Z"/>
    <path class="cls-5" d="M67.1,35.41c17.46-1.55,28.13,18.97,16.58,32.21-8.19,9.39-23.05,8.79-30.43-1.24-8.92-12.12-1.1-29.65,13.84-30.97ZM67.51,38.66c-12.72,1.11-19.29,16.15-11.32,26.22,8.24,10.42,25.12,7.03,28.47-5.82,2.86-10.96-5.86-21.37-17.15-20.39Z"/>
    <path class="cls-5" d="M70.62,64.2c0,1.57.33,4.32-2.11,3.79-1.58-.34-1.11-2.42-1.16-3.61-1.61.15-5.84-1.43-4.16-3.65,1.1-1.45,3.48.65,5.24.59,1.92-.07,4.65-1.87,2.91-3.78-1.01-1.11-4.96-1.92-6.62-3.23-3.54-2.8-1.62-8.19,2.6-8.83.09-1.37-.47-3.77,1.55-3.85,2.18-.09,1.61,2.26,1.81,3.68,1.46.42,5,1.49,3.46,3.64-1.09,1.52-2.54-.15-3.7-.35-1.56-.27-4.92.14-4.23,2.39.4,1.33,4.9,2.51,6.31,3.44,4.36,2.88,2.8,8.55-1.91,9.77Z"/>
  </g>
</svg>