<?xml version="1.0" encoding="utf-8"?>
<!-- Generator: Adobe Illustrator 24.1.1, SVG Export Plug-In . SVG Version: 6.00 Build 0)  -->
<svg version="1.1" id="Capa_1" xmlns="http://www.w3.org/2000/svg" xmlns:xlink="http://www.w3.org/1999/xlink" x="0px" y="0px"
	 viewBox="0 0 134.9 134.9" style="enable-background:new 0 0 134.9 134.9;" xml:space="preserve">
<style type="text/css">
	.st0{fill:#1D1D1B;}
	.st1{fill:#EDDFD6;}
	.st2{fill:#222222;}
	.st3{fill:#EDDFD6;stroke:#1D1D1B;stroke-width:0.42;stroke-linecap:round;stroke-linejoin:round;}
	.st4{fill:#1D1D1B;stroke:#EDDFD6;stroke-width:0.42;stroke-miterlimit:10;}
	.st5{fill:none;stroke:#1D1D1B;stroke-width:0.42;stroke-miterlimit:10;}
	.st6{fill:#00AEEF;}
	.st7{enable-background:new    ;}
	.st8{fill:#EDDFD6;stroke:#1D1D1B;stroke-width:0.6437;stroke-miterlimit:10;}
	.st9{fill:#EDDFD6;stroke:#1D1D1B;stroke-width:0.6073;stroke-miterlimit:10;}
	.st10{fill:#EDDFD6;stroke:#1D1D1B;stroke-width:0.5101;stroke-miterlimit:10;}
	.st11{fill:#EDDFD6;stroke:#1D1D1B;stroke-width:0.42;stroke-miterlimit:10;}
	.st12{fill:#EDDFD6;stroke:#1D1D1B;stroke-width:0.6356;stroke-miterlimit:10;}
	.st13{fill:#EDDFD6;stroke:#1D1D1B;stroke-width:0.5996;stroke-miterlimit:10;}
	.st14{fill:#EDDFD6;stroke:#1D1D1B;stroke-width:0.5037;stroke-miterlimit:10;}
	.st15{fill:#EDDFD6;stroke:#1D1D1B;stroke-width:0.422;stroke-miterlimit:10;}
	.st16{fill:#1D1D1B;stroke:#EDDFD6;stroke-width:0.422;stroke-miterlimit:10;}
	.st17{fill:none;stroke:#1D1D1B;stroke-width:0.422;stroke-miterlimit:10;}
	.st18{fill:none;stroke:#EDDFD6;stroke-width:0.422;stroke-linecap:round;stroke-linejoin:round;}
	.st19{fill:none;stroke:#EDDFD6;stroke-width:17;stroke-miterlimit:10;}
	.st20{fill:#EDDFD6;stroke:#EDDFD6;stroke-width:0.42;stroke-miterlimit:10;}
	.st21{fill:#EDDFD6;stroke:#1D1D1B;stroke-width:0.4786;stroke-miterlimit:10;}
	.st22{fill:#1D1D1B;stroke:#EDDFD6;stroke-width:0.4786;stroke-miterlimit:10;}
	.st23{fill:none;stroke:#1D1D1B;stroke-width:0.4786;stroke-miterlimit:10;}
	.st24{fill:none;stroke:#EDDFD6;stroke-width:0.4786;stroke-miterlimit:10;}
	.st25{fill:none;stroke:#EDDFD6;stroke-width:0.9265;stroke-miterlimit:10;}
	.st26{fill:#1D1D1B;stroke:#EDDFD6;stroke-width:0.53;stroke-miterlimit:10;}
	.st27{fill:#1D1D1B;stroke:#EDDFD6;stroke-width:0.6436;stroke-miterlimit:10;}
	.st28{fill:#EDDFD6;stroke:#1D1D1B;stroke-width:0.6436;stroke-miterlimit:10;}
	.st29{fill:#EDDFD6;stroke:#1D1D1B;stroke-width:0.6072;stroke-miterlimit:10;}
	.st30{fill:#EDDFD6;stroke:#1D1D1B;stroke-width:0.51;stroke-miterlimit:10;}
	.st31{fill:none;stroke:#EDDFD6;stroke-width:10.3992;stroke-miterlimit:10;}
	.st32{font-family:'ArialMT';}
	.st33{font-size:102.22px;}
	.st34{font-family:'NotoSans-Bold';}
	.st35{font-size:19px;}
</style>
<g id="_x31_8">
	<rect x="-0.1" y="-0.1" class="st0" width="135.1" height="135.1"/>
	<g>
		<g class="st7">
			<path class="st1" d="M57.7,108.3h-9V51.1c-2.2,2.1-5,4.1-8.5,6.2c-3.5,2.1-6.7,3.6-9.5,4.6v-8.7c5-2.4,9.4-5.2,13.2-8.6
				s6.4-6.6,8-9.8h5.8V108.3z"/>
		</g>
		<g>
			<path class="st1" d="M92.2,64.5c-0.6-4.5-2.7-8.7-6-12s-7.5-5.4-12-6c4.5-0.6,8.7-2.7,12-6s5.4-7.5,6-12c1.3,9.3,8.7,16.7,18,18
				c-4.5,0.6-8.7,2.7-12,6C94.9,55.8,92.8,60,92.2,64.5L92.2,64.5z"/>
			<path class="st1" d="M92.2,29.7c1.7,8.4,8.4,15.1,16.8,16.8c-4.1,0.8-7.9,2.8-10.9,5.9s-5,6.8-5.9,10.9
				c-0.8-4.1-2.8-7.9-5.9-10.9c-3-3-6.8-5-10.9-5.9c4.1-0.8,7.9-2.8,10.9-5.9C89.3,37.5,91.3,33.8,92.2,29.7 M92.2,25.4
				c0,5.8-2.4,11.1-6.2,14.9c-3.8,3.8-9.1,6.2-14.9,6.2c5.8,0,11.1,2.4,14.9,6.2s6.2,9.1,6.2,14.9c0-5.8,2.4-11.1,6.2-14.9
				c3.8-3.8,9.1-6.2,14.9-6.2C101.6,46.4,92.2,37,92.2,25.4L92.2,25.4z"/>
		</g>
		<g>
			<path class="st1" d="M32.7,87.3c-0.3-1.4-1.1-2.7-2.1-3.8c-1.1-1.1-2.4-1.8-3.8-2.1c1.4-0.3,2.7-1.1,3.8-2.1
				c1.1-1.1,1.8-2.4,2.1-3.8c0.7,2.9,3,5.2,5.9,5.9c-1.4,0.3-2.7,1.1-3.8,2.1C33.8,84.5,33,85.8,32.7,87.3z"/>
			<path class="st0" d="M32.7,76.2c0.8,2.4,2.7,4.3,5.1,5.1c-1.2,0.4-2.3,1.1-3.2,2s-1.6,2-2,3.2c-0.4-1.2-1.1-2.3-2-3.2
				c-0.9-0.9-2-1.6-3.2-2c1.2-0.4,2.3-1.1,3.2-2C31.6,78.5,32.3,77.4,32.7,76.2 M32.7,73.6c0,2.1-0.9,4.1-2.3,5.5s-3.3,2.3-5.5,2.3
				c2.1,0,4.1,0.9,5.5,2.3s2.3,3.3,2.3,5.5c0-2.1,0.9-4.1,2.3-5.5s3.3-2.3,5.5-2.3C36.2,81.3,32.7,77.9,32.7,73.6L32.7,73.6z"/>
		</g>
		<path class="st1" d="M89.8,92.1c-3.7,0-7,1.5-9.4,3.9s-3.9,5.7-3.9,9.4c0-3.7-1.5-7-3.9-9.4s-5.7-3.9-9.4-3.9c3.7,0,7-1.5,9.4-3.9
			s3.9-5.7,3.9-9.4C76.6,86.1,82.5,92.1,89.8,92.1L89.8,92.1z"/>
	</g>
	<text transform="matrix(1 0 0 1 33.5139 -5.3086)" class="st1 st32 st33">1</text>
	<g>
		<path class="st1" d="M-0.1-0.1h28.5v20.2c0,3.8-3.1,6.8-6.8,6.8H-0.1V-0.1z"/>
		<text transform="matrix(1 0 0 1 2.4377 -2.2054)" class="st0 st34 st35">18</text>
		<g>
			<path class="st0" d="M11.2,20.5H8.3v-7.8c0-0.3,0-0.7,0-1.3s0-1,0.1-1.4C8.3,10,8.2,10.1,8,10.3c-0.2,0.2-0.4,0.4-0.6,0.5
				l-1.6,1.3l-1.4-1.7l4.4-3.5h2.4V20.5z"/>
			<path class="st0" d="M19.6,6.7c0.8,0,1.5,0.1,2.2,0.4c0.7,0.2,1.2,0.6,1.6,1.1C23.8,8.7,24,9.3,24,10c0,0.8-0.2,1.5-0.7,2
				c-0.5,0.5-1,1-1.7,1.3c0.5,0.3,0.9,0.5,1.4,0.9c0.4,0.3,0.8,0.7,1.1,1.2c0.3,0.5,0.4,1,0.4,1.6c0,0.7-0.2,1.4-0.6,2
				c-0.4,0.6-1,1-1.7,1.3c-0.7,0.3-1.5,0.5-2.5,0.5c-1.5,0-2.7-0.3-3.5-1c-0.8-0.6-1.2-1.5-1.2-2.7c0-0.9,0.3-1.7,0.8-2.3
				c0.5-0.6,1.1-1,1.8-1.4c-0.6-0.4-1.1-0.8-1.5-1.4c-0.4-0.5-0.6-1.2-0.6-2c0-0.7,0.2-1.3,0.6-1.8c0.4-0.5,0.9-0.9,1.6-1.1
				S18.9,6.7,19.6,6.7z M17.5,16.8c0,0.5,0.2,0.9,0.5,1.2c0.3,0.3,0.9,0.5,1.5,0.5c0.7,0,1.2-0.2,1.6-0.5s0.5-0.7,0.5-1.2
				c0-0.3-0.1-0.6-0.3-0.9c-0.2-0.3-0.5-0.5-0.8-0.7s-0.6-0.4-0.9-0.6l-0.2-0.1c-0.6,0.3-1.1,0.6-1.4,1
				C17.7,15.9,17.5,16.3,17.5,16.8z M19.6,8.8c-0.5,0-0.9,0.1-1.2,0.4s-0.5,0.6-0.5,1c0,0.5,0.2,0.8,0.5,1.1
				c0.3,0.3,0.7,0.5,1.2,0.8c0.4-0.2,0.8-0.4,1.1-0.7c0.3-0.3,0.5-0.7,0.5-1.2c0-0.4-0.2-0.8-0.5-1S20.1,8.8,19.6,8.8z"/>
		</g>
	</g>
</g>
</svg>
