<?xml version="1.0" encoding="utf-8"?>
<!-- Generator: Adobe Illustrator 26.1.0, SVG Export Plug-In . SVG Version: 6.00 Build 0)  -->
<svg version="1.1" id="Capa_1" xmlns="http://www.w3.org/2000/svg" xmlns:xlink="http://www.w3.org/1999/xlink" x="0px" y="0px"
	width="300px" height="100px" viewBox="-40 0 1350 250" style="enable-background:new -40 0 1350 250;" xml:space="preserve">
<style type="text/css">
	.st0{fill:#1D1C1A;stroke:#EDDFD6;stroke-width:0.4234;stroke-miterlimit:10;}
	.st1{fill-rule:evenodd;clip-rule:evenodd;fill:#1D1C1A;stroke:#EDDFD6;stroke-width:0.4234;stroke-miterlimit:10;}
</style>
<g id="exports">
	<g id="logo_x2F_-white">
		<g id="Group" transform="translate(0.083603, 0.083808)">
			<path id="OpenZeppelin" class="st0" d="M306.8,148.9c-30.3,0-52.5-22-52.5-51.4c0-29.2,22.4-51.4,52.7-51.4
				c30.3,0,52.7,22.5,52.7,51.4C359.6,126.7,337,148.9,306.8,148.9z M306.9,130.9c19.1,0,32.8-14.2,32.8-33.4
				c0-19-13.7-33.4-32.8-33.4c-19.3,0-33,14.5-33,33.4C273.9,116.7,287.6,130.9,306.9,130.9z M379.8,179.6V72.5h18.3V82h1
				c2-3.1,8.8-11.3,22.6-11.3c21,0,35.4,15.6,35.4,38.8s-14.3,39.4-34.8,39.4c-13.3,0-20.4-7.4-22.8-11.5h-1v42.2L379.8,179.6
				L379.8,179.6z M418.1,132.2c12,0,20.1-9.2,20.1-22.4c0-13.6-8.1-22.4-20.3-22.4c-12.3,0-20,9.8-20,22.4
				C398,123.7,406.5,132.2,418.1,132.2z M510.1,148.9c-22.1,0-37.8-16.4-37.8-38.7c0-23.5,15.8-39.5,37.8-39.5
				c24.1,0,37.3,17.7,37.3,38.7v5.8h-57.1c0.6,11.3,8.4,19,20.4,19c9.1,0,16.1-4.3,18.7-10.3h17.3C543,139,529.6,148.9,510.1,148.9z
				 M490.6,102.1h39.1c-0.9-10.1-8.7-16.7-19.6-16.7C499.7,85.4,491.7,92.8,490.6,102.1z M567.4,147.1V72.5h17.7v9.1h1
				c3-5.5,10.4-10.9,21.1-10.9c16.8,0,27.1,11.8,27.1,27.6V147h-18.6v-43.9c0-9.1-5.9-15.2-14.4-15.2c-9,0-15.4,7.1-15.4,16.4v42.6
				h-18.5V147.1z M652.7,147.1v-16.9l52-65v-1h-50.1V47.9h73.8v16.7l-52,65v1.1h52.2V147L652.7,147.1L652.7,147.1z M778.9,148.9
				c-22.1,0-37.8-16.4-37.8-38.7c0-23.5,15.8-39.5,37.8-39.5c24.1,0,37.3,17.7,37.3,38.7v5.8h-57.1c0.6,11.3,8.4,19,20.4,19
				c9.1,0,16.1-4.3,18.7-10.3h17.3C811.7,139,798.3,148.9,778.9,148.9z M759.3,102.1h39.1c-0.9-10.1-8.7-16.7-19.6-16.7
				C768.5,85.4,760.5,92.8,759.3,102.1z M836.1,179.6V72.5h18.3V82h1c2-3.1,8.8-11.3,22.6-11.3c21,0,35.4,15.6,35.4,38.8
				s-14.3,39.4-34.8,39.4c-13.3,0-20.4-7.4-22.8-11.5h-1v42.2L836.1,179.6L836.1,179.6z M874.4,132.2c12,0,20.1-9.2,20.1-22.4
				c0-13.6-8.1-22.4-20.3-22.4c-12.3,0-20,9.8-20,22.4C854.2,123.7,862.8,132.2,874.4,132.2z M933.3,179.6V72.5h18.3V82h1
				c2-3.1,8.8-11.3,22.6-11.3c21,0,35.4,15.6,35.4,38.8s-14.3,39.4-34.8,39.4c-13.3,0-20.4-7.4-22.8-11.5h-1v42.2L933.3,179.6
				L933.3,179.6z M971.6,132.2c12,0,20.1-9.2,20.1-22.4c0-13.6-8.1-22.4-20.3-22.4c-12.3,0-20,9.8-20,22.4
				C951.4,123.7,960,132.2,971.6,132.2z M1063.6,148.9c-22.1,0-37.8-16.4-37.8-38.7c0-23.5,15.8-39.5,37.8-39.5
				c24.1,0,37.3,17.7,37.3,38.7v5.8h-57.1c0.6,11.3,8.4,19,20.4,19c9.1,0,16.1-4.3,18.7-10.3h17.3
				C1096.5,139,1083,148.9,1063.6,148.9z M1044.1,102.1h39.1c-0.9-10.1-8.7-16.7-19.6-16.7C1053.2,85.4,1045.2,92.8,1044.1,102.1z
				 M1139.1,147.1c-13.1,0-20.6-7.8-20.6-21V40.8h18.6v83.6c0,4.3,2.1,6.5,6,6.5h3v16.2L1139.1,147.1L1139.1,147.1z M1173.2,62.6
				c-6.7,0-11.4-4.1-11.4-10.8c0-6.4,4.7-10.6,11.4-10.6c6.7,0,11.4,4.3,11.4,10.6C1184.6,58.5,1179.9,62.6,1173.2,62.6z
				 M1164,147.1V72.5h18.6V147H1164V147.1z M1205.1,147.1V72.5h17.7v9.1h1c3-5.5,10.4-10.9,21.1-10.9c16.8,0,27.1,11.8,27.1,27.6
				V147h-18.6v-43.9c0-9.1-5.9-15.2-14.4-15.2c-9,0-15.4,7.1-15.4,16.4v42.6h-18.5V147.1z"/>
			<path id="Combined-Shape" class="st1" d="M180.4,199.3H67.8l18.4-30.6c7.9-13.2,22.2-21.2,37.6-21.2h56.7v51.8H180.4z M0,0h180.4
				l-31.1,51.9H0V0z M71.5,81.1c8.7-14.4,24.3-23.2,41.2-23.2h33.5L60.9,199.3H0.2L71.5,81.1z"/>
		</g>
	</g>
</g>
</svg>
