<svg width="754" height="109" viewBox="0 0 754 109" fill="none" xmlns="http://www.w3.org/2000/svg">
<path d="M17.197 102.928V101.928H16.197V102.928H17.197ZM17.197 106H16.197V107H17.197V106ZM58.925 106V107H59.925V106H58.925ZM58.925 102.928H59.925V101.928H58.925V102.928ZM71.725 29.84L70.7282 29.9195L70.807 30.9081L71.7962 30.8375L71.725 29.84ZM75.309 29.584L75.3802 30.5815L76.3814 30.5099L76.3062 29.5091L75.309 29.584ZM73.645 7.43999L72.6472 7.50652L72.6478 7.51493L73.645 7.43999ZM73.389 3.6L74.3868 3.53348L74.3246 2.6H73.389V3.6ZM2.861 3.6V2.6H1.95601L1.86596 3.5005L2.861 3.6ZM2.477 7.43999L1.48196 7.34049L1.48074 7.35276L1.47981 7.36506L2.477 7.43999ZM0.813 29.584L-0.184189 29.5091L-0.259583 30.5124L0.744198 30.5816L0.813 29.584ZM4.525 29.84L4.4562 30.8376L5.45036 30.9062L5.52238 29.9123L4.525 29.84ZM26.541 10.36C27.7728 10.36 28.5722 10.6934 29.0659 11.1871C29.5596 11.6808 29.893 12.4802 29.893 13.712H31.893C31.893 12.1278 31.4584 10.7512 30.4801 9.77289C29.5018 8.79462 28.1252 8.35999 26.541 8.35999V10.36ZM29.893 13.712V92.816H31.893V13.712H29.893ZM29.893 92.816C29.893 96.7516 29.4402 98.8003 27.9284 100.022C27.1484 100.653 25.9943 101.14 24.2331 101.462C22.473 101.784 20.183 101.928 17.197 101.928V103.928C20.227 103.928 22.657 103.784 24.5929 103.43C26.5277 103.076 28.0457 102.499 29.1856 101.578C31.5138 99.6957 31.893 96.6884 31.893 92.816H29.893ZM16.197 102.928V106H18.197V102.928H16.197ZM17.197 107H58.925V105H17.197V107ZM59.925 106V102.928H57.925V106H59.925ZM58.925 101.928C55.9713 101.928 53.7059 101.784 51.9646 101.463C50.2226 101.141 49.081 100.654 48.3088 100.025C46.8098 98.8029 46.357 96.7517 46.357 92.816H44.357C44.357 96.6883 44.7363 99.6931 47.0452 101.575C48.177 102.498 49.6834 103.075 51.6014 103.429C53.5201 103.784 55.9268 103.928 58.925 103.928V101.928ZM46.357 92.816V13.712H44.357V92.816H46.357ZM46.357 13.712C46.357 12.4801 46.6907 11.6752 47.1758 11.1793C47.6579 10.6865 48.4254 10.36 49.581 10.36V8.35999C48.0486 8.35999 46.7041 8.80151 45.7462 9.7807C44.7913 10.7568 44.357 12.1279 44.357 13.712H46.357ZM49.581 10.36H57.901V8.35999H49.581V10.36ZM57.901 10.36C62.5789 10.36 65.2311 11.0673 67.0254 13.5602C67.9629 14.8627 68.7201 16.7246 69.3277 19.4088C69.9342 22.0882 70.3776 25.5213 70.7282 29.9195L72.7218 29.7605C72.3684 25.3266 71.9159 21.7838 71.2783 18.9672C70.6419 16.1554 69.8071 14.0013 68.6486 12.3918C66.2509 9.06068 62.6951 8.35999 57.901 8.35999V10.36ZM71.7962 30.8375L75.3802 30.5815L75.2378 28.5865L71.6538 28.8425L71.7962 30.8375ZM76.3062 29.5091L74.6422 7.36506L72.6478 7.51493L74.3118 29.6589L76.3062 29.5091ZM74.6428 7.37347L74.3868 3.53348L72.3912 3.66652L72.6472 7.50652L74.6428 7.37347ZM73.389 2.6H2.861V4.6H73.389V2.6ZM1.86596 3.5005L1.48196 7.34049L3.47204 7.5395L3.85604 3.6995L1.86596 3.5005ZM1.47981 7.36506L-0.184189 29.5091L1.81019 29.6589L3.47419 7.51493L1.47981 7.36506ZM0.744198 30.5816L4.4562 30.8376L4.5938 28.8424L0.881802 28.5864L0.744198 30.5816ZM5.52238 29.9123C5.84098 25.5157 6.26862 22.0839 6.86694 19.4061C7.46626 16.7238 8.22335 14.8623 9.16062 13.5602C10.9558 11.0661 13.61 10.36 18.221 10.36V8.35999C13.488 8.35999 9.93417 9.06192 7.53738 12.3918C6.37865 14.0017 5.54375 16.1562 4.91507 18.9699C4.28538 21.7881 3.84903 25.3323 3.52761 29.7677L5.52238 29.9123ZM18.221 10.36H26.541V8.35999H18.221V10.36ZM101.933 54.672L101.143 54.0592L100.933 54.3297V54.672H101.933ZM116.525 102.928V101.928H115.525V102.928H116.525ZM116.525 106H115.525V107H116.525V106ZM145.197 106V107H146.197V106H145.197ZM145.197 102.928H146.197V101.928H145.197V102.928ZM102.317 49.296V50.296H102.827L103.126 49.8834L102.317 49.296ZM101.933 49.296H100.933V50.296H101.933V49.296ZM101.933 2.31999H102.933V1.9273L102.666 1.63954L101.933 2.31999ZM100.269 0.527992L101.002 -0.152458L100.486 -0.707695L99.8122 -0.361572L100.269 0.527992ZM90.797 5.392L90.3402 4.50239L90.3317 4.50684L90.797 5.392ZM80.813 10.64L80.3477 9.75483L79.4969 10.2021L79.9101 11.0699L80.813 10.64ZM82.093 13.328L81.1901 13.7579L81.6343 14.6906L82.552 14.2164L82.093 13.328ZM89.517 19.216H88.517V19.2177L89.517 19.216ZM89.645 92.816H90.645V92.8143L89.645 92.816ZM80.941 102.928V101.928H79.941V102.928H80.941ZM80.941 106H79.941V107H80.941V106ZM109.869 106V107H110.869V106H109.869ZM109.869 102.928H110.869V101.928H109.869V102.928ZM102.723 55.2848C107.553 49.0565 111.901 45.816 116.781 45.816V43.816C110.909 43.816 106.041 47.7435 101.143 54.0592L102.723 55.2848ZM116.781 45.816C118.903 45.816 120.471 46.5191 121.541 47.9068C122.647 49.3398 123.333 51.6445 123.333 55.056H125.333C125.333 51.4275 124.611 48.6122 123.125 46.6852C121.603 44.7129 119.395 43.816 116.781 43.816V45.816ZM123.333 55.056V92.816H125.333V55.056H123.333ZM123.333 92.816C123.333 94.8514 123.261 96.4433 123.061 97.6948C122.862 98.9475 122.547 99.7767 122.123 100.347C121.322 101.423 119.849 101.928 116.525 101.928V103.928C119.857 103.928 122.288 103.473 123.727 101.541C124.423 100.607 124.812 99.4205 125.037 98.0092C125.261 96.5967 125.333 94.8766 125.333 92.816H123.333ZM115.525 102.928V106H117.525V102.928H115.525ZM116.525 107H145.197V105H116.525V107ZM146.197 106V102.928H144.197V106H146.197ZM145.197 101.928C141.464 101.928 139.792 101.415 138.903 100.315C138.445 99.7495 138.112 98.9304 137.903 97.6862C137.694 96.44 137.621 94.8528 137.621 92.816H135.621C135.621 94.8752 135.692 96.6 135.931 98.0178C136.17 99.4376 136.589 100.635 137.347 101.573C138.89 103.481 141.506 103.928 145.197 103.928V101.928ZM137.621 92.816V54.416H135.621V92.816H137.621ZM137.621 54.416C137.621 48.2885 136.386 43.4015 133.853 40.024C131.285 36.5999 127.48 34.856 122.669 34.856V36.856C126.946 36.856 130.117 38.3761 132.253 41.224C134.424 44.1185 135.621 48.5115 135.621 54.416H137.621ZM122.669 34.856C113.45 34.856 107.301 40.727 101.508 48.7086L103.126 49.8834C108.853 41.993 114.48 36.856 122.669 36.856V34.856ZM102.317 48.296H101.933V50.296H102.317V48.296ZM102.933 49.296V2.31999H100.933V49.296H102.933ZM102.666 1.63954L101.002 -0.152458L99.5362 1.20844L101.2 3.00044L102.666 1.63954ZM99.8122 -0.361572L90.3402 4.50243L91.2538 6.28156L100.726 1.41756L99.8122 -0.361572ZM90.3317 4.50684L80.3477 9.75483L81.2783 11.5252L91.2623 6.27716L90.3317 4.50684ZM79.9101 11.0699L81.1901 13.7579L82.9959 12.8981L81.7159 10.2101L79.9101 11.0699ZM82.552 14.2164C84.4732 13.2238 85.8082 12.6328 86.7442 12.3899C87.6948 12.1433 87.8986 12.3361 87.9597 12.4004C88.0312 12.4758 88.1349 12.6373 88.2302 12.9769C88.3248 13.3143 88.3942 13.7653 88.44 14.3588C88.5321 15.5553 88.517 17.141 88.517 19.216H90.517C90.517 17.195 90.5339 15.5007 90.4341 14.2052C90.3838 13.5527 90.3012 12.9547 90.1558 12.4366C90.0111 11.9207 89.7868 11.4202 89.4103 11.0236C88.5754 10.1439 87.4032 10.1527 86.2419 10.454C85.0658 10.7592 83.5528 11.4482 81.634 12.4396L82.552 14.2164ZM88.517 19.2177L88.645 92.8177L90.645 92.8143L90.517 19.2143L88.517 19.2177ZM88.645 92.816C88.645 94.85 88.5645 96.4347 88.3443 97.6775C88.1247 98.9174 87.779 99.7372 87.3074 100.305C86.3857 101.416 84.6707 101.928 80.941 101.928V103.928C84.6353 103.928 87.2723 103.48 88.8466 101.583C89.623 100.647 90.0613 99.4506 90.3137 98.0265C90.5655 96.6053 90.645 94.878 90.645 92.816H88.645ZM79.941 102.928V106H81.941V102.928H79.941ZM80.941 107H109.869V105H80.941V107ZM110.869 106V102.928H108.869V106H110.869ZM109.869 101.928C106.476 101.928 104.971 101.421 104.155 100.341C103.725 99.7721 103.407 98.9447 103.206 97.6934C103.005 96.4427 102.933 94.8517 102.933 92.816H100.933C100.933 94.8763 101.005 96.5972 101.232 98.0106C101.459 99.4233 101.853 100.612 102.559 101.547C104.015 103.475 106.478 103.928 109.869 103.928V101.928ZM102.933 92.816V54.672H100.933V92.816H102.933ZM193.75 78.608V77.608H192.929L192.769 78.4134L193.75 78.608ZM162.262 68.624V67.624H161.262V68.624H162.262ZM196.054 68.624V69.624H197.054V68.624H196.054ZM196.822 78.608L197.814 78.7373L197.961 77.608H196.822V78.608ZM183.766 63.376V64.376H184.766V63.376H183.766ZM162.39 63.376L161.392 63.3161L161.328 64.376H162.39V63.376ZM192.769 78.4134C191.254 86.0544 188.877 90.854 186.273 93.7287C183.692 96.5783 180.856 97.576 178.262 97.576V99.576C181.428 99.576 184.8 98.3337 187.755 95.0713C190.687 91.834 193.174 86.6496 194.731 78.8026L192.769 78.4134ZM178.262 97.576C173.428 97.576 169.722 94.817 167.169 89.8023C164.597 84.7509 163.262 77.5044 163.262 68.88H161.262C161.262 77.6636 162.615 85.2651 165.387 90.7097C168.178 96.191 172.472 99.576 178.262 99.576V97.576ZM163.262 68.88V68.624H161.262V68.88H163.262ZM162.262 69.624H196.054V67.624H162.262V69.624ZM197.054 68.624C197.054 59.1771 195.278 50.7776 191.512 44.7049C187.714 38.5811 181.902 34.856 174.038 34.856V36.856C181.15 36.856 186.346 40.1709 189.812 45.7591C193.31 51.3984 195.054 59.3829 195.054 68.624H197.054ZM174.038 34.856C165.985 34.856 159.65 39.4098 155.376 46.4405C151.112 53.4525 148.846 62.9891 148.846 73.232H150.846C150.846 63.2509 153.06 54.0995 157.084 47.4795C161.098 40.8782 166.859 36.856 174.038 36.856V34.856ZM148.846 73.232C148.846 83.9188 151.143 92.8382 155.368 99.1182C159.616 105.432 165.803 109.048 173.398 109.048V107.048C166.529 107.048 160.94 103.816 157.028 98.0018C153.093 92.1538 150.846 83.6652 150.846 73.232H148.846ZM173.398 109.048C179.691 109.048 185.162 106.723 189.38 101.699C193.566 96.7125 196.457 89.1414 197.814 78.7373L195.83 78.4787C194.499 88.6826 191.694 95.8315 187.848 100.413C184.034 104.957 179.137 107.048 173.398 107.048V109.048ZM196.822 77.608H193.75V79.608H196.822V77.608ZM174.038 42.232C175.686 42.232 177.002 42.7613 178.083 43.7141C179.184 44.6851 180.088 46.1386 180.797 48.0447C182.221 51.872 182.766 57.2612 182.766 63.376H184.766C184.766 57.2028 184.223 51.52 182.671 47.3473C181.892 45.2534 180.836 43.4749 179.405 42.2138C177.954 40.9347 176.166 40.232 174.038 40.232V42.232ZM183.766 62.376H162.39V64.376H183.766V62.376ZM163.388 63.4359C163.77 57.077 164.752 51.6931 166.526 47.9305C168.284 44.2023 170.721 42.232 174.038 42.232V40.232C169.675 40.232 166.672 42.9337 164.718 47.0775C162.78 51.1869 161.778 56.875 161.392 63.3161L163.388 63.4359ZM297.129 3.6L298.124 3.5005L298.034 2.6H297.129V3.6ZM230.057 3.6V2.6H229.057V3.6H230.057ZM230.057 6.672H229.057V7.672H230.057V6.672ZM230.057 102.928V101.928H229.057V102.928H230.057ZM230.057 106H229.057V107H230.057V106ZM297.001 106V107H297.763L297.965 106.266L297.001 106ZM298.025 102.288L298.989 102.554L298.991 102.546L298.993 102.538L298.025 102.288ZM304.297 77.968L305.265 78.2177L305.509 77.2742L304.572 77.0065L304.297 77.968ZM300.713 76.944L300.988 75.9825L300.004 75.7015L299.746 76.6911L300.713 76.944ZM258.089 55.184V54.184H257.089V55.184H258.089ZM283.689 70.16H282.689V71.16H283.689V70.16ZM286.633 70.16V71.16H287.633V70.16H286.633ZM286.633 35.472H287.633V34.472H286.633V35.472ZM283.689 35.472V34.472H282.689V35.472H283.689ZM258.089 50.576H257.089V51.576H258.089V50.576ZM296.361 29.84L295.367 29.9488L295.476 30.9406L296.468 30.8343L296.361 29.84ZM299.945 29.456L300.052 30.4503L301.049 30.3434L300.939 29.3462L299.945 29.456ZM297.513 7.43999L296.518 7.53951L296.519 7.54979L297.513 7.43999ZM297.129 2.6H230.057V4.6H297.129V2.6ZM229.057 3.6V6.672H231.057V3.6H229.057ZM230.057 7.672C233.011 7.672 235.276 7.81574 237.017 8.13737C238.759 8.45911 239.901 8.94572 240.673 9.57511C242.172 10.797 242.625 12.8483 242.625 16.784H244.625C244.625 12.9117 244.246 9.90695 241.937 8.02488C240.805 7.10228 239.299 6.52488 237.381 6.17063C235.462 5.81625 233.055 5.672 230.057 5.672V7.672ZM242.625 16.784V92.816H244.625V16.784H242.625ZM242.625 92.816C242.625 96.7517 242.172 98.8029 240.673 100.025C239.901 100.654 238.759 101.141 237.017 101.463C235.276 101.784 233.011 101.928 230.057 101.928V103.928C233.055 103.928 235.462 103.784 237.381 103.429C239.299 103.075 240.805 102.498 241.937 101.575C244.246 99.6931 244.625 96.6883 244.625 92.816H242.625ZM229.057 102.928V106H231.057V102.928H229.057ZM230.057 107H297.001V105H230.057V107ZM297.965 106.266L298.989 102.554L297.061 102.022L296.037 105.734L297.965 106.266ZM298.993 102.538L305.265 78.2177L303.329 77.7183L297.057 102.038L298.993 102.538ZM304.572 77.0065L300.988 75.9825L300.438 77.9055L304.022 78.9295L304.572 77.0065ZM299.746 76.6911C297.181 86.4999 295.015 92.1171 292.404 95.302C291.125 96.861 289.746 97.8269 288.146 98.4155C286.525 99.0117 284.626 99.24 282.281 99.24V101.24C284.736 101.24 286.901 101.004 288.836 100.293C290.792 99.5732 292.461 98.387 293.95 96.57C296.875 93.0029 299.125 86.9721 301.68 77.1969L299.746 76.6911ZM282.281 99.24H264.105V101.24H282.281V99.24ZM264.105 99.24C261.594 99.24 260.553 98.8892 259.998 98.2135C259.707 97.8589 259.469 97.3198 259.311 96.4447C259.153 95.5678 259.089 94.4308 259.089 92.944H257.089C257.089 94.4652 257.153 95.7442 257.343 96.7993C257.533 97.8562 257.863 98.765 258.452 99.4825C259.657 100.951 261.624 101.24 264.105 101.24V99.24ZM259.089 92.944V55.184H257.089V92.944H259.089ZM258.089 56.184H273.961V54.184H258.089V56.184ZM273.961 56.184C277.736 56.184 279.669 56.6905 280.84 58.3519C281.459 59.2316 281.933 60.526 282.244 62.4697C282.553 64.4083 282.689 66.9149 282.689 70.16H284.689C284.689 66.8771 284.553 64.2477 284.218 62.1543C283.885 60.066 283.343 58.4324 282.474 57.2C280.669 54.6375 277.739 54.184 273.961 54.184V56.184ZM283.689 71.16H286.633V69.16H283.689V71.16ZM287.633 70.16V35.472H285.633V70.16H287.633ZM286.633 34.472H283.689V36.472H286.633V34.472ZM282.689 35.472C282.689 38.7493 282.553 41.2804 282.243 43.2376C281.933 45.2002 281.458 46.5071 280.837 47.395C279.666 49.0696 277.735 49.576 273.961 49.576V51.576C277.739 51.576 280.672 51.1224 282.477 48.541C283.344 47.3008 283.885 45.6558 284.219 43.5504C284.553 41.4396 284.689 38.7867 284.689 35.472H282.689ZM273.961 49.576H258.089V51.576H273.961V49.576ZM259.089 50.576V15.376H257.089V50.576H259.089ZM259.089 15.376C259.089 13.6261 259.554 12.4096 260.322 11.6295C261.087 10.8522 262.299 10.36 264.105 10.36V8.35999C261.943 8.35999 260.147 8.95578 258.896 10.2265C257.648 11.4944 257.089 13.2859 257.089 15.376H259.089ZM264.105 10.36H282.409V8.35999H264.105V10.36ZM282.409 10.36C286.867 10.36 289.443 11.0868 291.262 13.609C292.214 14.9284 293.006 16.8037 293.679 19.4854C294.351 22.1624 294.889 25.5824 295.367 29.9488L297.355 29.7312C296.873 25.3296 296.323 21.8056 295.619 18.9986C294.916 16.1963 294.044 14.0476 292.884 12.439C290.479 9.1052 287.039 8.35999 282.409 8.35999V10.36ZM296.468 30.8343L300.052 30.4503L299.838 28.4617L296.254 28.8457L296.468 30.8343ZM300.939 29.3462L298.507 7.3302L296.519 7.54979L298.951 29.5658L300.939 29.3462ZM298.508 7.34049L298.124 3.5005L296.134 3.6995L296.518 7.5395L298.508 7.34049ZM343.653 77.328V76.328H342.653V77.328H343.653ZM327.909 43.408V42.408H326.909V43.408H327.909ZM343.013 43.408V44.408H344.013V43.408H343.013ZM343.013 38.16H344.013V37.16H343.013V38.16ZM327.653 38.16H326.653V39.16H327.653V38.16ZM327.653 19.472H328.653V18.472H327.653V19.472ZM323.045 19.472V18.472H322.146L322.051 19.3662L323.045 19.472ZM306.533 38.672L306.506 37.6724L305.533 37.699V38.672H306.533ZM306.533 43.408H305.533V44.408H306.533V43.408ZM315.493 43.408H316.493V42.408H315.493V43.408ZM347.237 77.328H348.237V76.328H347.237V77.328ZM342.653 77.328C342.653 84.9133 341.948 90.3617 340.592 93.8805C339.917 95.6308 339.106 96.8398 338.201 97.607C337.314 98.3581 336.29 98.728 335.077 98.728V100.728C336.744 100.728 338.232 100.202 339.493 99.1329C340.736 98.0802 341.709 96.5452 342.458 94.5995C343.95 90.7263 344.653 84.9747 344.653 77.328H342.653ZM335.077 98.728C333.805 98.728 332.854 98.3381 332.1 97.6373C331.32 96.9129 330.682 95.7927 330.191 94.2284C329.202 91.0792 328.909 86.4844 328.909 80.784H326.909C326.909 86.4756 327.192 91.3528 328.283 94.8276C328.832 96.5753 329.61 98.0551 330.738 99.1027C331.892 100.174 333.341 100.728 335.077 100.728V98.728ZM328.909 80.784V43.408H326.909V80.784H328.909ZM327.909 44.408H343.013V42.408H327.909V44.408ZM344.013 43.408V38.16H342.013V43.408H344.013ZM343.013 37.16H327.653V39.16H343.013V37.16ZM328.653 38.16V19.472H326.653V38.16H328.653ZM327.653 18.472H323.045V20.472H327.653V18.472ZM322.051 19.3662C321.424 25.2543 319.681 29.7746 317.054 32.8369C314.449 35.8741 310.912 37.5516 306.506 37.6724L306.56 39.6716C311.498 39.5364 315.577 37.6299 318.572 34.1391C321.545 30.6734 323.386 25.7216 324.039 19.5778L322.051 19.3662ZM305.533 38.672V43.408H307.533V38.672H305.533ZM306.533 44.408H315.493V42.408H306.533V44.408ZM314.493 43.408V84.112H316.493V43.408H314.493ZM314.493 84.112C314.493 93.1247 315.804 99.3635 318.54 103.364C321.339 107.459 325.51 109.048 330.725 109.048V107.048C325.956 107.048 322.511 105.629 320.19 102.236C317.806 98.7485 316.493 93.0193 316.493 84.112H314.493ZM330.725 109.048C334.007 109.048 336.798 108.343 339.123 106.907C341.448 105.469 343.236 103.344 344.582 100.619C347.25 95.2145 348.237 87.3345 348.237 77.328H346.237C346.237 87.2895 345.24 94.7695 342.788 99.7332C341.574 102.192 340.018 104.003 338.071 105.205C336.124 106.409 333.716 107.048 330.725 107.048V109.048ZM347.237 76.328H343.653V78.328H347.237V76.328ZM371.808 54.672L371.018 54.0592L370.808 54.3297V54.672H371.808ZM386.4 102.928V101.928H385.4V102.928H386.4ZM386.4 106H385.4V107H386.4V106ZM415.072 106V107H416.072V106H415.072ZM415.072 102.928H416.072V101.928H415.072V102.928ZM372.192 49.296V50.296H372.702L373.001 49.8834L372.192 49.296ZM371.808 49.296H370.808V50.296H371.808V49.296ZM371.808 2.31999H372.808V1.9273L372.541 1.63954L371.808 2.31999ZM370.144 0.527992L370.877 -0.152458L370.361 -0.707695L369.687 -0.361572L370.144 0.527992ZM360.672 5.392L360.215 4.50239L360.207 4.50684L360.672 5.392ZM350.688 10.64L350.223 9.75483L349.372 10.2021L349.785 11.0699L350.688 10.64ZM351.968 13.328L351.065 13.7579L351.509 14.6906L352.427 14.2164L351.968 13.328ZM359.392 19.216H358.392V19.2177L359.392 19.216ZM359.52 92.816H360.52V92.8143L359.52 92.816ZM350.816 102.928V101.928H349.816V102.928H350.816ZM350.816 106H349.816V107H350.816V106ZM379.744 106V107H380.744V106H379.744ZM379.744 102.928H380.744V101.928H379.744V102.928ZM372.598 55.2848C377.428 49.0565 381.776 45.816 386.656 45.816V43.816C380.784 43.816 375.916 47.7435 371.018 54.0592L372.598 55.2848ZM386.656 45.816C388.778 45.816 390.346 46.5191 391.416 47.9068C392.522 49.3398 393.208 51.6445 393.208 55.056H395.208C395.208 51.4275 394.486 48.6122 393 46.6852C391.478 44.7129 389.27 43.816 386.656 43.816V45.816ZM393.208 55.056V92.816H395.208V55.056H393.208ZM393.208 92.816C393.208 94.8514 393.136 96.4433 392.936 97.6948C392.737 98.9475 392.422 99.7767 391.998 100.347C391.197 101.423 389.724 101.928 386.4 101.928V103.928C389.732 103.928 392.163 103.473 393.602 101.541C394.298 100.607 394.687 99.4205 394.912 98.0092C395.136 96.5967 395.208 94.8766 395.208 92.816H393.208ZM385.4 102.928V106H387.4V102.928H385.4ZM386.4 107H415.072V105H386.4V107ZM416.072 106V102.928H414.072V106H416.072ZM415.072 101.928C411.339 101.928 409.667 101.415 408.778 100.315C408.32 99.7495 407.987 98.9304 407.778 97.6862C407.569 96.44 407.496 94.8528 407.496 92.816H405.496C405.496 94.8752 405.567 96.6 405.806 98.0178C406.045 99.4376 406.464 100.635 407.222 101.573C408.765 103.481 411.381 103.928 415.072 103.928V101.928ZM407.496 92.816V54.416H405.496V92.816H407.496ZM407.496 54.416C407.496 48.2885 406.261 43.4015 403.728 40.024C401.16 36.5999 397.355 34.856 392.544 34.856V36.856C396.822 36.856 399.992 38.3761 402.128 41.224C404.299 44.1185 405.496 48.5115 405.496 54.416H407.496ZM392.544 34.856C383.325 34.856 377.176 40.727 371.383 48.7086L373.001 49.8834C378.728 41.993 384.355 36.856 392.544 36.856V34.856ZM372.192 48.296H371.808V50.296H372.192V48.296ZM372.808 49.296V2.31999H370.808V49.296H372.808ZM372.541 1.63954L370.877 -0.152458L369.411 1.20844L371.075 3.00044L372.541 1.63954ZM369.687 -0.361572L360.215 4.50243L361.129 6.28156L370.601 1.41756L369.687 -0.361572ZM360.207 4.50684L350.223 9.75483L351.153 11.5252L361.137 6.27716L360.207 4.50684ZM349.785 11.0699L351.065 13.7579L352.871 12.8981L351.591 10.2101L349.785 11.0699ZM352.427 14.2164C354.348 13.2238 355.683 12.6328 356.619 12.3899C357.57 12.1433 357.774 12.3361 357.835 12.4004C357.906 12.4758 358.01 12.6373 358.105 12.9769C358.2 13.3143 358.269 13.7653 358.315 14.3588C358.407 15.5553 358.392 17.141 358.392 19.216H360.392C360.392 17.195 360.409 15.5007 360.309 14.2052C360.259 13.5527 360.176 12.9547 360.031 12.4366C359.886 11.9207 359.662 11.4202 359.285 11.0236C358.45 10.1439 357.278 10.1527 356.117 10.454C354.941 10.7592 353.428 11.4482 351.509 12.4396L352.427 14.2164ZM358.392 19.2177L358.52 92.8177L360.52 92.8143L360.392 19.2143L358.392 19.2177ZM358.52 92.816C358.52 94.85 358.44 96.4347 358.219 97.6775C358 98.9174 357.654 99.7372 357.182 100.305C356.261 101.416 354.546 101.928 350.816 101.928V103.928C354.51 103.928 357.147 103.48 358.722 101.583C359.498 100.647 359.936 99.4506 360.189 98.0265C360.44 96.6053 360.52 94.878 360.52 92.816H358.52ZM349.816 102.928V106H351.816V102.928H349.816ZM350.816 107H379.744V105H350.816V107ZM380.744 106V102.928H378.744V106H380.744ZM379.744 101.928C376.351 101.928 374.846 101.421 374.03 100.341C373.6 99.7721 373.282 98.9447 373.081 97.6934C372.88 96.4427 372.808 94.8517 372.808 92.816H370.808C370.808 94.8763 370.88 96.5972 371.107 98.0106C371.334 99.4233 371.728 100.612 372.434 101.547C373.89 103.475 376.353 103.928 379.744 103.928V101.928ZM372.808 92.816V54.672H370.808V92.816H372.808ZM463.625 78.608V77.608H462.804L462.644 78.4134L463.625 78.608ZM432.137 68.624V67.624H431.137V68.624H432.137ZM465.929 68.624V69.624H466.929V68.624H465.929ZM466.697 78.608L467.689 78.7373L467.836 77.608H466.697V78.608ZM453.641 63.376V64.376H454.641V63.376H453.641ZM432.265 63.376L431.267 63.3161L431.203 64.376H432.265V63.376ZM462.644 78.4134C461.129 86.0544 458.752 90.854 456.148 93.7287C453.567 96.5783 450.731 97.576 448.137 97.576V99.576C451.303 99.576 454.675 98.3337 457.63 95.0713C460.562 91.834 463.049 86.6496 464.606 78.8026L462.644 78.4134ZM448.137 97.576C443.303 97.576 439.597 94.817 437.044 89.8023C434.472 84.7509 433.137 77.5044 433.137 68.88H431.137C431.137 77.6636 432.49 85.2651 435.262 90.7097C438.053 96.191 442.347 99.576 448.137 99.576V97.576ZM433.137 68.88V68.624H431.137V68.88H433.137ZM432.137 69.624H465.929V67.624H432.137V69.624ZM466.929 68.624C466.929 59.1771 465.153 50.7776 461.387 44.7049C457.589 38.5811 451.777 34.856 443.913 34.856V36.856C451.025 36.856 456.221 40.1709 459.687 45.7591C463.185 51.3984 464.929 59.3829 464.929 68.624H466.929ZM443.913 34.856C435.86 34.856 429.525 39.4098 425.251 46.4405C420.987 53.4525 418.721 62.9891 418.721 73.232H420.721C420.721 63.2509 422.935 54.0995 426.959 47.4795C430.973 40.8782 436.734 36.856 443.913 36.856V34.856ZM418.721 73.232C418.721 83.9188 421.018 92.8382 425.243 99.1182C429.491 105.432 435.678 109.048 443.273 109.048V107.048C436.404 107.048 430.815 103.816 426.903 98.0018C422.968 92.1538 420.721 83.6652 420.721 73.232H418.721ZM443.273 109.048C449.566 109.048 455.037 106.723 459.255 101.699C463.441 96.7125 466.332 89.1414 467.689 78.7373L465.705 78.4787C464.374 88.6826 461.569 95.8315 457.723 100.413C453.909 104.957 449.012 107.048 443.273 107.048V109.048ZM466.697 77.608H463.625V79.608H466.697V77.608ZM443.913 42.232C445.561 42.232 446.877 42.7613 447.958 43.7141C449.059 44.6851 449.963 46.1386 450.672 48.0447C452.096 51.872 452.641 57.2612 452.641 63.376H454.641C454.641 57.2028 454.098 51.52 452.546 47.3473C451.767 45.2534 450.711 43.4749 449.28 42.2138C447.829 40.9347 446.041 40.232 443.913 40.232V42.232ZM453.641 62.376H432.265V64.376H453.641V62.376ZM433.263 63.4359C433.645 57.077 434.627 51.6931 436.401 47.9305C438.159 44.2023 440.596 42.232 443.913 42.232V40.232C439.55 40.232 436.547 42.9337 434.593 47.0775C432.655 51.1869 431.653 56.875 431.267 63.3161L433.263 63.4359ZM494.085 49.808V50.808H494.688L494.969 50.2751L494.085 49.808ZM493.701 49.808H492.701V50.808H493.701V49.808ZM493.701 37.52H494.701V37.0516L494.341 36.7518L493.701 37.52ZM491.397 35.6L492.037 34.8318L491.574 34.4457L491.016 34.6753L491.397 35.6ZM482.693 39.184L483.064 40.1125L483.074 40.1087L482.693 39.184ZM472.453 43.28L472.082 42.3515L471.125 42.7341L471.536 43.6787L472.453 43.28ZM473.733 46.224L472.816 46.6227L473.209 47.5258L474.118 47.1471L473.733 46.224ZM472.709 102.928V101.928H471.709V102.928H472.709ZM472.709 106H471.709V107H472.709V106ZM507.269 106V107H508.269V106H507.269ZM507.269 102.8H508.269V101.8H507.269V102.8ZM493.701 58L492.755 57.6745L492.701 57.8327V58H493.701ZM506.629 48.144L507.362 47.4635L507.349 47.45L507.336 47.4369L506.629 48.144ZM510.981 34.856C507.115 34.856 503.557 36.82 500.563 39.549C497.561 42.2858 495.032 45.8751 493.201 49.3409L494.969 50.2751C496.722 46.9569 499.121 43.5702 501.911 41.027C504.709 38.476 507.807 36.856 510.981 36.856V34.856ZM494.085 48.808H493.701V50.808H494.085V48.808ZM494.701 49.808V37.52H492.701V49.808H494.701ZM494.341 36.7518L492.037 34.8318L490.757 36.3682L493.061 38.2882L494.341 36.7518ZM491.016 34.6753L482.312 38.2593L483.074 40.1087L491.778 36.5247L491.016 34.6753ZM482.322 38.2555L472.082 42.3515L472.824 44.2085L483.064 40.1125L482.322 38.2555ZM471.536 43.6787L472.816 46.6227L474.65 45.8253L473.37 42.8813L471.536 43.6787ZM474.118 47.1471C476.033 46.3489 477.369 45.9076 478.309 45.7787C479.222 45.6535 479.527 45.8488 479.694 46.0428C479.951 46.3428 480.178 46.982 480.297 48.2943C480.412 49.5627 480.413 51.2296 480.413 53.392H482.413C482.413 51.2664 482.414 49.4933 482.289 48.1137C482.168 46.778 481.915 45.5612 481.212 44.7412C480.419 43.8152 479.284 43.6265 478.037 43.7973C476.817 43.9644 475.273 44.4991 473.348 45.3009L474.118 47.1471ZM480.413 53.392V92.816H482.413V53.392H480.413ZM480.413 92.816C480.413 94.85 480.333 96.4347 480.112 97.6775C479.893 98.9174 479.547 99.7372 479.075 100.305C478.154 101.416 476.439 101.928 472.709 101.928V103.928C476.403 103.928 479.04 103.48 480.615 101.583C481.391 100.647 481.829 99.4506 482.082 98.0265C482.333 96.6053 482.413 94.878 482.413 92.816H480.413ZM471.709 102.928V106H473.709V102.928H471.709ZM472.709 107H507.269V105H472.709V107ZM508.269 106V102.8H506.269V106H508.269ZM507.269 101.8C504.375 101.8 502.142 101.672 500.413 101.36C498.684 101.048 497.539 100.566 496.754 99.9172C495.219 98.6485 494.701 96.436 494.701 92.048H492.701C492.701 96.364 493.143 99.5275 495.48 101.459C496.631 102.41 498.15 102.984 500.057 103.328C501.964 103.672 504.339 103.8 507.269 103.8V101.8ZM494.701 92.048V58H492.701V92.048H494.701ZM494.647 58.3255C495.97 54.4823 497.462 51.5835 498.941 49.6669C500.452 47.7085 501.793 46.968 502.789 46.968V44.968C500.841 44.968 498.982 46.3395 497.357 48.4451C495.7 50.5925 494.12 53.7097 492.755 57.6745L494.647 58.3255ZM502.789 46.968C503.419 46.968 503.776 47.0669 504.146 47.2895C504.583 47.5512 505.073 48.0024 505.922 48.8511L507.336 47.4369C506.521 46.6216 505.859 45.9848 505.175 45.5745C504.427 45.1251 503.695 44.968 502.789 44.968V46.968ZM505.896 48.8244C506.723 49.7147 507.483 50.4886 508.373 51.0191C509.306 51.5747 510.321 51.832 511.621 51.832V49.832C510.617 49.832 509.968 49.6413 509.397 49.3009C508.783 48.9354 508.199 48.3653 507.362 47.4635L505.896 48.8244ZM511.621 51.832C515.689 51.832 518.893 47.9759 518.893 42.64H516.893C516.893 47.2881 514.209 49.832 511.621 49.832V51.832ZM518.893 42.64C518.893 40.3385 518.227 38.3599 516.824 36.9569C515.421 35.5533 513.41 34.856 510.981 34.856V36.856C513.032 36.856 514.477 37.4387 515.41 38.3711C516.343 39.3041 516.893 40.7175 516.893 42.64H518.893ZM522.209 106H521.209V107H522.209V106ZM551.137 106V107H552.137V106H551.137ZM551.137 102.928H552.137V101.928H551.137V102.928ZM543.329 54.672L542.539 54.0592L542.329 54.3297V54.672H543.329ZM557.793 102.928V101.928H556.793V102.928H557.793ZM557.793 106H556.793V107H557.793V106ZM586.465 106V107H587.465V106H586.465ZM586.465 102.928H587.465V101.928H586.465V102.928ZM543.713 49.296V50.296H544.223L544.522 49.8834L543.713 49.296ZM543.329 49.296H542.329V50.296H543.329V49.296ZM543.329 37.52H544.329V37.0354L543.949 36.7351L543.329 37.52ZM540.897 35.6L541.517 34.8151L541.057 34.4525L540.516 34.6753L540.897 35.6ZM532.193 39.184L532.564 40.1125L532.574 40.1087L532.193 39.184ZM521.953 43.28L521.582 42.3515L520.625 42.7341L521.036 43.6787L521.953 43.28ZM523.233 46.224L522.316 46.6227L522.709 47.5258L523.618 47.1471L523.233 46.224ZM522.209 102.928V101.928H521.209V102.928H522.209ZM522.209 107H551.137V105H522.209V107ZM552.137 106V102.928H550.137V106H552.137ZM551.137 101.928C547.741 101.928 546.279 101.42 545.495 100.352C545.079 99.785 544.774 98.9578 544.584 97.7021C544.394 96.4481 544.329 94.8545 544.329 92.816H542.329C542.329 94.8735 542.392 96.5919 542.606 98.0019C542.82 99.4102 543.195 100.599 543.883 101.536C545.307 103.476 547.749 103.928 551.137 103.928V101.928ZM544.329 92.816V54.672H542.329V92.816H544.329ZM544.119 55.2848C548.953 49.0518 553.3 45.816 558.049 45.816V43.816C552.302 43.816 547.433 47.7482 542.539 54.0592L544.119 55.2848ZM558.049 45.816C560.229 45.816 561.792 46.5461 562.848 47.9588C563.943 49.4238 564.601 51.764 564.601 55.184H566.601C566.601 51.564 565.915 48.7202 564.45 46.7612C562.946 44.7499 560.733 43.816 558.049 43.816V45.816ZM564.601 55.184V92.816H566.601V55.184H564.601ZM564.601 92.816C564.601 94.8545 564.536 96.4481 564.346 97.7021C564.156 98.9578 563.851 99.785 563.435 100.352C562.651 101.42 561.189 101.928 557.793 101.928V103.928C561.181 103.928 563.623 103.476 565.047 101.536C565.735 100.599 566.11 99.4102 566.324 98.0019C566.538 96.5919 566.601 94.8735 566.601 92.816H564.601ZM556.793 102.928V106H558.793V102.928H556.793ZM557.793 107H586.465V105H557.793V107ZM587.465 106V102.928H585.465V106H587.465ZM586.465 101.928C582.8 101.928 581.161 101.416 580.287 100.32C579.835 99.7539 579.505 98.9333 579.297 97.6876C579.09 96.4406 579.017 94.8526 579.017 92.816H577.017C577.017 94.8754 577.088 96.5994 577.325 98.0164C577.561 99.4347 577.975 100.63 578.723 101.568C580.249 103.48 582.834 103.928 586.465 103.928V101.928ZM579.017 92.816V54.416H577.017V92.816H579.017ZM579.017 54.416C579.017 48.2836 577.748 43.3956 575.181 40.0188C572.581 36.5988 568.746 34.856 563.937 34.856V36.856C568.216 36.856 571.421 38.3772 573.589 41.2292C575.79 44.1244 577.017 48.5164 577.017 54.416H579.017ZM563.937 34.856C554.713 34.856 548.691 40.7343 542.904 48.7086L544.522 49.8834C550.255 41.9857 555.753 36.856 563.937 36.856V34.856ZM543.713 48.296H543.329V50.296H543.713V48.296ZM544.329 49.296V37.52H542.329V49.296H544.329ZM543.949 36.7351L541.517 34.8151L540.277 36.3849L542.709 38.3049L543.949 36.7351ZM540.516 34.6753L531.812 38.2593L532.574 40.1087L541.278 36.5247L540.516 34.6753ZM531.822 38.2555L521.582 42.3515L522.324 44.2085L532.564 40.1125L531.822 38.2555ZM521.036 43.6787L522.316 46.6227L524.15 45.8253L522.87 42.8813L521.036 43.6787ZM523.618 47.1471C525.533 46.3489 526.869 45.9076 527.809 45.7787C528.722 45.6535 529.027 45.8488 529.194 46.0428C529.451 46.3428 529.678 46.982 529.797 48.2943C529.912 49.5627 529.913 51.2296 529.913 53.392H531.913C531.913 51.2664 531.914 49.4933 531.789 48.1137C531.668 46.778 531.415 45.5612 530.712 44.7412C529.919 43.8152 528.784 43.6265 527.537 43.7973C526.317 43.9644 524.773 44.4991 522.848 45.3009L523.618 47.1471ZM529.913 53.392V92.816H531.913V53.392H529.913ZM529.913 92.816C529.913 94.85 529.833 96.4347 529.612 97.6775C529.393 98.9174 529.047 99.7372 528.575 100.305C527.654 101.416 525.939 101.928 522.209 101.928V103.928C525.903 103.928 528.54 103.48 530.115 101.583C530.891 100.647 531.329 99.4506 531.582 98.0265C531.833 96.6053 531.913 94.878 531.913 92.816H529.913ZM521.209 102.928V106H523.209V102.928H521.209ZM645.469 91.536V90.536H644.5L644.469 91.5043L645.469 91.536ZM624.861 63.12L625.269 64.0328L625.861 63.7681V63.12H624.861ZM624.861 88.976H625.861L623.89 88.7383L624.861 88.976ZM648.413 91.536L649.412 91.5754L649.453 90.536H648.413V91.536ZM624.861 67.344H625.861V65.699L624.401 66.4562L624.861 67.344ZM624.861 82.448L625.819 82.7343L625.861 82.5942V82.448H624.861ZM644.469 91.5043C644.343 95.4877 643.774 97.9577 643.003 99.401C642.625 100.108 642.217 100.536 641.817 100.791C641.423 101.042 640.983 101.16 640.477 101.16V103.16C641.315 103.16 642.139 102.958 642.893 102.477C643.641 102 644.265 101.284 644.767 100.343C645.756 98.4902 646.339 95.6483 646.469 91.5677L644.469 91.5043ZM640.477 101.16C640.09 101.16 639.816 101.088 639.603 100.962C639.394 100.838 639.163 100.613 638.942 100.166C638.475 99.2182 638.149 97.4665 638.149 94.352H636.149C636.149 97.5095 636.463 99.6618 637.148 101.05C637.503 101.771 637.976 102.322 638.583 102.682C639.186 103.04 639.84 103.16 640.477 103.16V101.16ZM638.149 94.352V56.592H636.149V94.352H638.149ZM638.149 56.592C638.149 49.4985 636.176 43.9975 632.466 40.2705C628.756 36.5437 623.446 34.728 617.053 34.728V36.728C623.076 36.728 627.814 38.4323 631.048 41.6815C634.282 44.9305 636.149 49.8615 636.149 56.592H638.149ZM617.053 34.728C603.782 34.728 593.909 42.9233 593.909 53.136H595.909C595.909 44.4047 604.468 36.728 617.053 36.728V34.728ZM593.909 53.136C593.909 55.6635 594.558 57.9034 595.939 59.5279C597.34 61.1752 599.396 62.072 601.949 62.072V60.072C599.894 60.072 598.43 59.3688 597.463 58.2321C596.476 57.0726 595.909 55.3445 595.909 53.136H593.909ZM601.949 62.072C604.196 62.072 606.039 61.401 607.323 60.1365C608.606 58.8723 609.221 57.1233 609.221 55.184H607.221C607.221 56.7007 606.748 57.8957 605.919 58.7115C605.091 59.527 603.798 60.072 601.949 60.072V62.072ZM609.221 55.184C609.221 53.5021 608.702 52.1891 608.257 51.0455C607.806 49.8851 607.429 48.8941 607.429 47.632H605.429C605.429 49.3139 605.948 50.6269 606.393 51.7704C606.844 52.9309 607.221 53.9219 607.221 55.184H609.221ZM607.429 47.632C607.429 45.835 608.177 44.4303 609.454 43.4489C610.757 42.4482 612.668 41.848 615.005 41.848V39.848C612.35 39.848 609.973 40.5278 608.236 41.8631C606.473 43.2177 605.429 45.205 605.429 47.632H607.429ZM615.005 41.848C617.917 41.848 620.032 42.7238 621.473 44.7279C622.969 46.8074 623.861 50.2614 623.861 55.696H625.861C625.861 50.1226 624.961 46.1526 623.097 43.5601C621.178 40.8922 618.365 39.848 615.005 39.848V41.848ZM623.861 55.696V63.12H625.861V55.696H623.861ZM624.453 62.2072C617.208 65.4481 608.799 68.9206 602.231 73.6187C595.637 78.3356 590.709 84.423 590.709 92.944H592.709C592.709 85.337 597.061 79.7764 603.395 75.2453C609.755 70.6954 617.922 67.3199 625.269 64.0328L624.453 62.2072ZM590.709 92.944C590.709 97.3033 592.051 101.328 594.655 104.278C597.273 107.243 601.105 109.048 605.917 109.048V107.048C601.641 107.048 598.369 105.461 596.155 102.954C593.927 100.432 592.709 96.9047 592.709 92.944H590.709ZM605.917 109.048C615.792 109.048 622.834 101.467 625.832 89.2137L623.89 88.7383C621 100.549 614.474 107.048 605.917 107.048V109.048ZM623.861 88.976V91.28H625.861V88.976H623.861ZM623.861 91.28C623.861 97.3236 624.96 101.769 627.145 104.723C629.373 107.734 632.616 109.048 636.509 109.048V107.048C633.106 107.048 630.525 105.93 628.753 103.533C626.938 101.079 625.861 97.1404 625.861 91.28H623.861ZM636.509 109.048C641.056 109.048 644.261 107.193 646.326 103.981C648.342 100.845 649.218 96.5032 649.412 91.5754L647.414 91.4966C647.224 96.2968 646.372 100.211 644.644 102.899C642.965 105.511 640.41 107.048 636.509 107.048V109.048ZM648.413 90.536H645.469V92.536H648.413V90.536ZM610.909 97.32C608.957 97.32 607.533 96.5828 606.569 95.3147C605.577 94.0101 604.997 92.0424 604.997 89.488H602.997C602.997 92.3096 603.633 94.7579 604.977 96.5253C606.349 98.3291 608.381 99.32 610.909 99.32V97.32ZM604.997 89.488C604.997 84.5538 607.419 80.6113 611.211 77.1905C615.024 73.7511 620.132 70.9226 625.321 68.2318L624.401 66.4562C619.222 69.1414 613.898 72.073 609.871 75.7055C605.823 79.3568 602.997 83.7982 602.997 89.488H604.997ZM623.861 67.344V82.448H625.861V67.344H623.861ZM623.903 82.1617C620.609 93.1821 615.333 97.32 610.909 97.32V99.32C616.725 99.32 622.457 93.9859 625.819 82.7343L623.903 82.1617ZM692.851 108.048L692.203 108.81L692.65 109.19L693.199 108.985L692.851 108.048ZM711.795 101.008L712.143 101.945L713.097 101.591L712.726 100.644L711.795 101.008ZM710.643 98.064L711.574 97.6996L711.216 96.7847L710.295 97.1264L710.643 98.064ZM702.451 38.544H703.451V38.1298L703.158 37.8369L702.451 38.544ZM700.787 36.88L701.494 36.1729L701.062 35.7406L700.48 35.9283L700.787 36.88ZM680.947 43.28L680.64 42.3283L679.692 42.6341L679.994 43.5832L680.947 43.28ZM681.843 46.096L680.89 46.3992L681.19 47.342L682.136 47.0521L681.843 46.096ZM690.035 89.616L690.837 90.213L691.035 89.9473V89.616H690.035ZM668.531 38.544H669.531V38.1079L669.211 37.8112L668.531 38.544ZM666.739 36.88L667.419 36.1472L666.989 35.7475L666.43 35.9289L666.739 36.88ZM647.027 43.28L646.718 42.3289L645.773 42.6359L646.074 43.5832L647.027 43.28ZM647.923 46.096L646.97 46.3992L647.271 47.3463L648.22 47.0508L647.923 46.096ZM689.651 94.864L689.967 93.9153L689.223 93.6672L688.805 94.3312L689.651 94.864ZM690.035 94.992L691.035 94.9685L691.018 94.2656L690.351 94.0433L690.035 94.992ZM690.291 105.872L689.291 105.896L689.302 106.344L689.643 106.634L690.291 105.872ZM693.199 108.985L712.143 101.945L711.447 100.071L692.503 107.111L693.199 108.985ZM712.726 100.644L711.574 97.6996L709.712 98.4284L710.864 101.372L712.726 100.644ZM710.295 97.1264C708.318 97.86 706.914 98.2683 705.907 98.3779C704.917 98.4855 704.521 98.2854 704.299 98.05C704.009 97.7432 703.753 97.1131 703.609 95.8282C703.468 94.5784 703.451 92.9251 703.451 90.768H701.451C701.451 92.8989 701.466 94.6696 701.621 96.0518C701.773 97.3989 702.077 98.6088 702.843 99.422C703.677 100.307 704.833 100.506 706.123 100.366C707.396 100.228 709 99.74 710.991 99.0016L710.295 97.1264ZM703.451 90.768V38.544H701.451V90.768H703.451ZM703.158 37.8369L701.494 36.1729L700.08 37.5871L701.744 39.2511L703.158 37.8369ZM700.48 35.9283L680.64 42.3283L681.254 44.2317L701.094 37.8317L700.48 35.9283ZM679.994 43.5832L680.89 46.3992L682.796 45.7928L681.9 42.9768L679.994 43.5832ZM682.136 47.0521C684.113 46.4461 685.519 46.1186 686.531 46.0582C687.526 45.9988 687.948 46.2076 688.187 46.462C688.481 46.7735 688.734 47.3873 688.878 48.6232C689.018 49.831 689.035 51.4265 689.035 53.52H691.035C691.035 51.4535 691.02 49.737 690.864 48.3928C690.712 47.0767 690.405 45.8985 689.643 45.09C688.827 44.2244 687.696 43.9851 686.411 44.0618C685.143 44.1374 683.541 44.5299 681.55 45.1399L682.136 47.0521ZM689.035 53.52V89.616H691.035V53.52H689.035ZM689.233 89.019C687.223 91.719 684.988 94.1014 682.661 95.8004C680.33 97.5028 677.974 98.472 675.699 98.472V100.472C678.544 100.472 681.308 99.2652 683.841 97.4156C686.378 95.5626 688.751 93.017 690.837 90.213L689.233 89.019ZM675.699 98.472C673.557 98.472 672.106 97.7088 671.132 96.1949C670.104 94.5969 669.531 92.0462 669.531 88.336H667.531C667.531 92.1777 668.11 95.1951 669.45 97.2771C670.844 99.4432 672.977 100.472 675.699 100.472V98.472ZM669.531 88.336V38.544H667.531V88.336H669.531ZM669.211 37.8112L667.419 36.1472L666.059 37.6128L667.851 39.2768L669.211 37.8112ZM666.43 35.9289L646.718 42.3289L647.336 44.2311L667.048 37.8311L666.43 35.9289ZM646.074 43.5832L646.97 46.3992L648.876 45.7928L647.98 42.9768L646.074 43.5832ZM648.22 47.0508C650.164 46.4453 651.553 46.1184 652.557 46.0582C653.543 45.9991 653.974 46.2062 654.225 46.4675C654.526 46.7827 654.788 47.3999 654.941 48.6309C655.09 49.8355 655.115 51.4298 655.115 53.52H657.115C657.115 51.4502 657.092 49.7325 656.925 48.3851C656.762 47.0641 656.44 45.8893 655.669 45.0845C654.848 44.2258 653.719 43.9849 652.437 44.0618C651.173 44.1376 649.586 44.5307 647.626 45.1412L648.22 47.0508ZM655.115 53.52V89.616H657.115V53.52H655.115ZM655.115 89.616C655.115 95.3833 656.424 100.226 658.977 103.653C661.557 107.116 665.347 109.048 670.067 109.048V107.048C665.955 107.048 662.769 105.396 660.581 102.459C658.366 99.4859 657.115 95.1127 657.115 89.616H655.115ZM670.067 109.048C679.688 109.048 686.093 102.392 690.497 95.3968L688.805 94.3312C684.505 101.16 678.622 107.048 670.067 107.048V109.048ZM689.335 95.8127L689.719 95.9407L690.351 94.0433L689.967 93.9153L689.335 95.8127ZM689.035 95.0155L689.291 105.896L691.291 105.848L691.035 94.9685L689.035 95.0155ZM689.643 106.634L692.203 108.81L693.499 107.286L690.939 105.11L689.643 106.634ZM750.278 77.328V76.328H749.278V77.328H750.278ZM734.534 43.408V42.408H733.534V43.408H734.534ZM749.638 43.408V44.408H750.638V43.408H749.638ZM749.638 38.16H750.638V37.16H749.638V38.16ZM734.278 38.16H733.278V39.16H734.278V38.16ZM734.278 19.472H735.278V18.472H734.278V19.472ZM729.67 19.472V18.472H728.771L728.676 19.3662L729.67 19.472ZM713.158 38.672L713.131 37.6724L712.158 37.699V38.672H713.158ZM713.158 43.408H712.158V44.408H713.158V43.408ZM722.118 43.408H723.118V42.408H722.118V43.408ZM753.862 77.328H754.862V76.328H753.862V77.328ZM749.278 77.328C749.278 84.9133 748.573 90.3617 747.217 93.8805C746.542 95.6308 745.731 96.8398 744.826 97.607C743.939 98.3581 742.915 98.728 741.702 98.728V100.728C743.369 100.728 744.857 100.202 746.118 99.1329C747.361 98.0802 748.333 96.5452 749.083 94.5995C750.575 90.7263 751.278 84.9747 751.278 77.328H749.278ZM741.702 98.728C740.43 98.728 739.479 98.3381 738.724 97.6373C737.945 96.9129 737.307 95.7927 736.816 94.2284C735.827 91.0792 735.534 86.4844 735.534 80.784H733.534C733.534 86.4756 733.817 91.3528 734.908 94.8276C735.457 96.5753 736.235 98.0551 737.363 99.1027C738.517 100.174 739.966 100.728 741.702 100.728V98.728ZM735.534 80.784V43.408H733.534V80.784H735.534ZM734.534 44.408H749.638V42.408H734.534V44.408ZM750.638 43.408V38.16H748.638V43.408H750.638ZM749.638 37.16H734.278V39.16H749.638V37.16ZM735.278 38.16V19.472H733.278V38.16H735.278ZM734.278 18.472H729.67V20.472H734.278V18.472ZM728.676 19.3662C728.049 25.2543 726.306 29.7746 723.679 32.8369C721.074 35.8741 717.537 37.5516 713.131 37.6724L713.185 39.6716C718.123 39.5364 722.202 37.6299 725.197 34.1391C728.17 30.6734 730.011 25.7216 730.664 19.5778L728.676 19.3662ZM712.158 38.672V43.408H714.158V38.672H712.158ZM713.158 44.408H722.118V42.408H713.158V44.408ZM721.118 43.408V84.112H723.118V43.408H721.118ZM721.118 84.112C721.118 93.1247 722.429 99.3635 725.164 103.364C727.964 107.459 732.135 109.048 737.35 109.048V107.048C732.581 107.048 729.136 105.629 726.815 102.236C724.431 98.7485 723.118 93.0193 723.118 84.112H721.118ZM737.35 109.048C740.632 109.048 743.423 108.343 745.748 106.907C748.073 105.469 749.861 103.344 751.207 100.619C753.875 95.2145 754.862 87.3345 754.862 77.328H752.862C752.862 87.2895 751.865 94.7695 749.413 99.7332C748.199 102.192 746.643 104.003 744.696 105.205C742.749 106.409 740.341 107.048 737.35 107.048V109.048ZM753.862 76.328H750.278V78.328H753.862V76.328Z" fill="black"/>
</svg>
