<svg width="754" height="109" viewBox="0 0 754 109" fill="none" xmlns="http://www.w3.org/2000/svg">
<path d="M26.541 9.35999C29.357 9.35999 30.893 10.896 30.893 13.712V92.816C30.893 100.624 29.229 102.928 17.197 102.928V106H58.925V102.928C47.021 102.928 45.357 100.624 45.357 92.816V13.712C45.357 10.896 46.893 9.35999 49.581 9.35999H57.901C67.373 9.35999 70.317 12.176 71.725 29.84L75.309 29.584L73.645 7.43999L73.389 3.6H2.861L2.477 7.43999L0.813 29.584L4.525 29.84C5.805 12.176 8.877 9.35999 18.221 9.35999H26.541ZM101.933 54.672C106.797 48.4 111.405 44.816 116.781 44.816C121.517 44.816 124.333 48.016 124.333 55.056V92.816C124.333 101.008 123.181 102.928 116.525 102.928V106H145.197V102.928C137.773 102.928 136.621 101.008 136.621 92.816V54.416C136.621 42.384 131.757 35.856 122.669 35.856C113.965 35.856 108.077 41.36 102.317 49.296H101.933V2.31999L100.269 0.527992L90.797 5.392L80.813 10.64L82.093 13.328C89.773 9.35999 89.517 11.024 89.517 19.216L89.645 92.816C89.645 101.008 88.365 102.928 80.941 102.928V106H109.869V102.928C103.085 102.928 101.933 101.008 101.933 92.816V54.672ZM193.75 78.608C190.678 94.096 184.022 98.576 178.262 98.576C167.638 98.576 162.262 86.288 162.262 68.88V68.624H196.054C196.054 49.936 189.014 35.856 174.038 35.856C158.806 35.856 149.846 53.008 149.846 73.232C149.846 94.352 158.934 108.048 173.398 108.048C185.43 108.048 194.134 99.216 196.822 78.608H193.75ZM174.038 41.232C181.59 41.232 183.766 51.088 183.766 63.376H162.39C163.158 50.576 166.358 41.232 174.038 41.232ZM297.129 3.6H230.057V6.672C241.961 6.672 243.625 8.976 243.625 16.784V92.816C243.625 100.624 241.961 102.928 230.057 102.928V106H297.001L298.025 102.288L304.297 77.968L300.713 76.944C295.593 96.528 291.881 100.24 282.281 100.24H264.105C259.113 100.24 258.089 98.96 258.089 92.944V55.184H273.961C281.513 55.184 283.689 57.104 283.689 70.16H286.633V35.472H283.689C283.689 48.656 281.513 50.576 273.961 50.576H258.089V15.376C258.089 11.536 260.137 9.35999 264.105 9.35999H282.409C291.497 9.35999 294.441 12.304 296.361 29.84L299.945 29.456L297.513 7.43999L297.129 3.6ZM343.653 77.328C343.653 92.56 340.837 99.728 335.077 99.728C329.061 99.728 327.909 92.176 327.909 80.784V43.408H343.013V38.16H327.653V19.472H323.045C321.765 31.504 315.877 38.416 306.533 38.672V43.408H315.493V84.112C315.493 102.032 320.741 108.048 330.725 108.048C343.269 108.048 347.237 97.296 347.237 77.328H343.653ZM371.808 54.672C376.672 48.4 381.28 44.816 386.656 44.816C391.392 44.816 394.208 48.016 394.208 55.056V92.816C394.208 101.008 393.056 102.928 386.4 102.928V106H415.072V102.928C407.648 102.928 406.496 101.008 406.496 92.816V54.416C406.496 42.384 401.632 35.856 392.544 35.856C383.84 35.856 377.952 41.36 372.192 49.296H371.808V2.31999L370.144 0.527992L360.672 5.392L350.688 10.64L351.968 13.328C359.648 9.35999 359.392 11.024 359.392 19.216L359.52 92.816C359.52 101.008 358.24 102.928 350.816 102.928V106H379.744V102.928C372.96 102.928 371.808 101.008 371.808 92.816V54.672ZM463.625 78.608C460.553 94.096 453.897 98.576 448.137 98.576C437.513 98.576 432.137 86.288 432.137 68.88V68.624H465.929C465.929 49.936 458.889 35.856 443.913 35.856C428.681 35.856 419.721 53.008 419.721 73.232C419.721 94.352 428.809 108.048 443.273 108.048C455.305 108.048 464.009 99.216 466.697 78.608H463.625ZM443.913 41.232C451.465 41.232 453.641 51.088 453.641 63.376H432.265C433.033 50.576 436.233 41.232 443.913 41.232ZM510.981 35.856C503.941 35.856 497.669 43.024 494.085 49.808H493.701V37.52L491.397 35.6L482.693 39.184L472.453 43.28L473.733 46.224C481.413 43.024 481.413 44.816 481.413 53.392V92.816C481.413 101.008 480.133 102.928 472.709 102.928V106H507.269V102.8C495.621 102.8 493.701 100.752 493.701 92.048V58C496.389 50.192 499.845 45.968 502.789 45.968C504.325 45.968 504.965 46.48 506.629 48.144C508.293 49.936 509.317 50.832 511.621 50.832C514.949 50.832 517.893 47.632 517.893 42.64C517.893 38.416 515.461 35.856 510.981 35.856ZM522.209 106H551.137V102.928C544.353 102.928 543.329 101.008 543.329 92.816V54.672C548.193 48.4 552.801 44.816 558.049 44.816C562.913 44.816 565.601 48.144 565.601 55.184V92.816C565.601 101.008 564.577 102.928 557.793 102.928V106H586.465V102.928C579.169 102.928 578.017 101.008 578.017 92.816V54.416C578.017 42.384 573.025 35.856 563.937 35.856C555.233 35.856 549.473 41.36 543.713 49.296H543.329V37.52L540.897 35.6L532.193 39.184L521.953 43.28L523.233 46.224C530.913 43.024 530.913 44.816 530.913 53.392V92.816C530.913 101.008 529.633 102.928 522.209 102.928V106ZM645.469 91.536C645.213 99.6 643.165 102.16 640.477 102.16C638.429 102.16 637.149 100.624 637.149 94.352V56.592C637.149 42.768 629.469 35.728 617.053 35.728C604.125 35.728 594.909 43.664 594.909 53.136C594.909 57.872 597.341 61.072 601.949 61.072C606.045 61.072 608.221 58.64 608.221 55.184C608.221 52.24 606.429 50.576 606.429 47.632C606.429 43.408 610.013 40.848 615.005 40.848C621.277 40.848 624.861 44.688 624.861 55.696V63.12C610.269 69.648 591.709 76.816 591.709 92.944C591.709 101.264 596.829 108.048 605.917 108.048C615.133 108.048 621.917 101.008 624.861 88.976V91.28C624.861 103.184 629.213 108.048 636.509 108.048C644.957 108.048 648.029 101.264 648.413 91.536H645.469ZM610.909 98.32C606.429 98.32 603.997 94.864 603.997 89.488C603.997 78.864 614.493 72.72 624.861 67.344V82.448C621.533 93.584 616.029 98.32 610.909 98.32ZM692.851 108.048L711.795 101.008L710.643 98.064C702.707 101.008 702.451 99.344 702.451 90.768V38.544L700.787 36.88L680.947 43.28L681.843 46.096C689.779 43.664 690.035 45.2 690.035 53.52V89.616C685.939 95.12 680.819 99.472 675.699 99.472C670.835 99.472 668.531 95.888 668.531 88.336V38.544L666.739 36.88L647.027 43.28L647.923 46.096C655.731 43.664 656.115 45.2 656.115 53.52V89.616C656.115 100.88 661.235 108.048 670.067 108.048C679.155 108.048 685.299 101.776 689.651 94.864L690.035 94.992L690.291 105.872L692.851 108.048ZM750.278 77.328C750.278 92.56 747.462 99.728 741.702 99.728C735.686 99.728 734.534 92.176 734.534 80.784V43.408H749.638V38.16H734.278V19.472H729.67C728.39 31.504 722.502 38.416 713.158 38.672V43.408H722.118V84.112C722.118 102.032 727.366 108.048 737.35 108.048C749.894 108.048 753.862 97.296 753.862 77.328H750.278Z" fill="black"/>
</svg>
