<?xml version="1.0" encoding="utf-8"?>
<!-- Generator: Adobe Illustrator 24.1.1, SVG Export Plug-In . SVG Version: 6.00 Build 0)  -->
<svg version="1.1" id="Capa_1" xmlns="http://www.w3.org/2000/svg" xmlns:xlink="http://www.w3.org/1999/xlink" x="0px" y="0px"
	 viewBox="0 0 848.4 80" style="enable-background:new 0 0 848.4 80;" xml:space="preserve">
<style type="text/css">
	.st0{fill:#F9D534;}
	.st1{fill:#F7D334;}
	.st2{fill:#EAAC00;}
	.st3{fill:#ECAF02;}
	.st4{fill:#F7E654;}
</style>
<g>
	<g>
		<path d="M89.7,17V7.8h50.6V17h-20.1v58.6h-10.5V17H89.7z"/>
		<path d="M148.8,75.6V3h10.1v28.8h0.7c1.2-2.3,3.1-4.2,5.7-5.7c2.6-1.5,5.7-2.3,9.3-2.3c5.6,0,10.2,1.8,13.6,5.5
			c3.4,3.7,5.1,8.3,5.1,13.9v32.5H183V45c0-3.5-1.1-6.3-3.3-8.5c-2.2-2.2-5-3.3-8.2-3.3c-3.5,0-6.4,1.2-8.8,3.5
			c-2.4,2.3-3.6,5.3-3.6,8.9v30H148.8z"/>
		<path d="M204.2,50.5c0-5.3,1.1-9.9,3.3-14c2.2-4.1,5.2-7.2,9.1-9.4c3.8-2.2,8.1-3.3,12.9-3.3c3.8,0,7.3,0.7,10.5,2
			c3.2,1.4,5.8,3.2,7.8,5.6c2.1,2.4,3.7,5.1,4.8,8.3c1.1,3.2,1.7,6.5,1.7,10.2v3.8h-39.9c0.2,4.4,1.7,8,4.5,10.7
			c2.8,2.7,6.5,4.1,11.1,4.1c3.2,0,6.1-0.7,8.6-2.2c2.5-1.4,4.3-3.4,5.3-5.8h9.9c-1.3,5-4.1,9-8.4,12c-4.3,3-9.5,4.6-15.7,4.6
			c-7.5,0-13.7-2.5-18.4-7.5C206.6,64.5,204.2,58.2,204.2,50.5z M214.6,45.7h29.7c-0.3-4.1-1.8-7.4-4.6-9.8
			c-2.7-2.4-6.1-3.6-10.1-3.6c-3.9,0-7.3,1.3-10.1,3.8C216.6,38.6,215,41.8,214.6,45.7z"/>
		<path d="M293.6,75.6V7.8h40.2V17h-29.8v19.7h25.5v9h-25.5v20.6h30.7v9.2H293.6z"/>
		<path d="M343.1,33.3v-8.2h6.7c0.9,0,1.6-0.3,2.2-0.9c0.6-0.6,0.9-1.4,0.9-2.4V10.6h9.6V25h14.8v8.3h-14.8v26
			c0,5.2,2.5,7.8,7.4,7.8h6.9v8.6h-8.4c-5,0-9-1.4-11.8-4.1c-2.8-2.8-4.2-6.7-4.2-11.9V33.3H343.1z"/>
		<path d="M389.2,75.6V3h10.1v28.8h0.7c1.2-2.3,3.1-4.2,5.7-5.7c2.6-1.5,5.7-2.3,9.3-2.3c5.6,0,10.2,1.8,13.6,5.5
			c3.4,3.7,5.1,8.3,5.1,13.9v32.5h-10.2V45c0-3.5-1.1-6.3-3.3-8.5c-2.2-2.2-5-3.3-8.2-3.3c-3.5,0-6.4,1.2-8.8,3.5
			c-2.4,2.3-3.6,5.3-3.6,8.9v30H389.2z"/>
		<path d="M444.6,50.5c0-5.3,1.1-9.9,3.3-14c2.2-4.1,5.2-7.2,9.1-9.4c3.8-2.2,8.1-3.3,12.9-3.3c3.8,0,7.3,0.7,10.5,2
			c3.2,1.4,5.8,3.2,7.8,5.6c2.1,2.4,3.7,5.1,4.8,8.3c1.1,3.2,1.7,6.5,1.7,10.2v3.8h-39.9c0.2,4.4,1.7,8,4.5,10.7
			c2.8,2.7,6.5,4.1,11.1,4.1c3.2,0,6.1-0.7,8.6-2.2c2.5-1.4,4.3-3.4,5.3-5.8h9.9c-1.3,5-4.1,9-8.4,12s-9.5,4.6-15.7,4.6
			c-7.5,0-13.7-2.5-18.4-7.5C446.9,64.5,444.6,58.2,444.6,50.5z M454.9,45.7h29.7c-0.3-4.1-1.8-7.4-4.6-9.8
			c-2.7-2.4-6.1-3.6-10.1-3.6c-3.9,0-7.3,1.3-10.1,3.8C456.9,38.6,455.3,41.8,454.9,45.7z"/>
		<path d="M506.9,75.6V25h9.8v8.8h0.7c0.9-2.3,2.5-4.4,5-6.2c2.4-1.8,5.3-2.7,8.6-2.7h4.4v9.9h-4.7c-4.2,0-7.5,1.5-10,4.4
			c-2.4,2.9-3.6,6.7-3.6,11.5v25H506.9z"/>
		<path d="M547.1,75.6V25h9.9v6.8h0.7c1.1-2.3,3-4.2,5.6-5.7c2.6-1.5,5.7-2.3,9.3-2.3c5.6,0,10.2,1.8,13.5,5.5
			c3.4,3.7,5.1,8.3,5.1,13.9v32.5h-10.2V45c0-3.5-1.1-6.3-3.2-8.5c-2.2-2.2-4.9-3.3-8.1-3.3c-3.5,0-6.5,1.2-8.8,3.7
			c-2.3,2.4-3.5,5.5-3.5,9.2v29.6H547.1z"/>
		<path d="M609,69.6c-4.6-4.9-6.9-11.3-6.9-19.1s2.3-14.3,6.8-19.3s10.3-7.5,17.4-7.5c2.3,0,4.4,0.3,6.4,0.9c2,0.6,3.6,1.4,5,2.4
			c1.3,1,2.4,1.9,3.2,2.7c0.8,0.8,1.4,1.6,2,2.5h0.7V25h10.2v50.7h-10v-7.2h-0.6c-4,5.6-9.4,8.5-16.3,8.5
			C619.5,76.9,613.5,74.5,609,69.6z M612.6,50.3c0,5.2,1.4,9.5,4.3,12.6c2.9,3.2,6.7,4.8,11.4,4.8c4.7,0,8.5-1.7,11.3-5
			c2.8-3.3,4.3-7.5,4.3-12.4c0-5.3-1.5-9.6-4.4-12.7c-2.9-3.1-6.7-4.7-11.3-4.7c-4.6,0-8.3,1.6-11.2,4.9
			C614,41,612.6,45.2,612.6,50.3z"/>
		<path d="M667.5,57.5V25h10.2v30.6c0,3.5,1.1,6.4,3.2,8.5c2.1,2.2,4.8,3.3,8.1,3.3c3.6,0,6.5-1.2,8.8-3.6c2.3-2.4,3.5-5.5,3.5-9.1
			V25h10.2v50.7h-9.9v-6.8h-0.7c-1.1,2.3-3,4.2-5.6,5.8c-2.6,1.6-5.7,2.3-9.2,2.3c-5.6,0-10.2-1.8-13.5-5.5
			C669.2,67.8,667.5,63.1,667.5,57.5z"/>
		<path d="M722.2,33.3v-8.2h6.7c0.9,0,1.6-0.3,2.2-0.9c0.6-0.6,0.9-1.4,0.9-2.4V10.6h9.6V25h14.8v8.3h-14.8v26
			c0,5.2,2.5,7.8,7.4,7.8h6.9v8.6h-8.4c-5,0-9-1.4-11.8-4.1c-2.8-2.8-4.2-6.7-4.2-11.9V33.3H722.2z"/>
	</g>
	<g>
		<path class="st0" d="M50.2,72.6c-1.6,0.2-1.2-1.2-1.3-1.9c-1.2-5.2-2.3-10.4-3.3-15.7c-1.5-7.7-5.4-13.1-13.2-15.1
			c-2.1-0.6-4.2-1.4-6.3-2.1c-0.8-0.3-1.4-0.7-1.3-1.6c0.1-0.8,0.7-1.1,1.4-1.3c2.3-0.8,4.7-1.6,7-2.3c6.8-1.9,10.5-6.5,12-13.2
			c1.3-5.7,2.4-11.5,3.6-17.2c0.2-0.9,0-2.6,1.9-2c0.3,5,0.7,10,1,15c0.2,3.7,0.6,7.4,1.4,11.1c0.8,3.6,3,6,6.5,6.7
			c5.1,1,10.3,2.1,15.6,2.5c0.7,0.5,0.7,1,0.1,1.5c-5.6,1-11.1,2.2-16.6,3.8c-4.5,1.3-6.5,4.8-6.9,9.1C51.1,57.4,50.7,65,50.2,72.6z
			"/>
		<path class="st1" d="M28,53.2c0.8,0.1,0.8,0.5,0.5,1.1c-2.2,0.2-4.4,0.4-6.6,0.4c-4.1,0.1-6.2,2.2-6.5,6.2c-0.3,3.2-0.6,6.4-1,9.6
			c-0.5,0.3-1,0.2-1.2-0.4c-0.2-0.6-0.4-1.3-0.5-2C12,61.2,8.8,56.4,1.5,55C0.9,54.9,0,54.8,0,53.9c0-0.9,0.8-1.1,1.4-1.2
			c7.6-1.9,10.9-7.2,11.5-14.6c0.1-0.8-0.1-2.1,1.5-1.7c0.4,3.7,0.7,7.4,1.2,11.1c0.3,1.8,1.4,3.3,3.3,3.8c2.5,0.7,5,1.5,7.7,1.3
			c0,0,0,0,0,0C27.1,52.8,27.5,53,28,53.2z"/>
		<path class="st2" d="M25.8,1.3c0.6,0.1,0.8,0.6,0.9,1.1c0.4,1.7,1,3.4,1.2,5.2c0.4,2.8,1.8,4.2,4.6,4.6c1.1,0.2,3.1,0,3.1,1.5
			c0,1.2-1.9,1.3-3,1.5c-3.5,0.6-4.5,3-5.1,6.1c-0.3,1.5-0.2,4.1-1.6,4.1c-1.6,0-1.5-2.6-1.6-4c-0.4-3.9-2.6-5.8-6.2-6.6
			c-0.7-0.1-2-0.2-1.9-1.3c0.1-0.9,1.2-0.9,1.9-1c4.2-0.3,5.9-2.7,6.2-6.6c0.1-1.3,0.6-2.5,0.9-3.7C25.1,1.8,25.3,1.4,25.8,1.3z"/>
		<path class="st3" d="M50.2,72.6c0.5-7.6,1-15.2,1.6-22.8c0.4-4.3,2.3-7.9,6.9-9.1c5.5-1.5,11-2.8,16.6-3.8c-2.3,1.8-5.1,2.3-7.7,3
			c-7.4,2.2-11.2,7.2-12.7,14.4c-1.1,5.3-2.2,10.6-3.3,15.9C51.4,71.2,51.7,72.5,50.2,72.6z"/>
		<path class="st4" d="M75.2,35.4C69.9,35,64.7,34,59.6,32.9c-3.6-0.7-5.7-3.1-6.5-6.7c-0.8-3.7-1.2-7.4-1.4-11.1
			c-0.3-5-0.7-10-1-15c1,0.5,0.8,1.6,1,2.4c1.1,5.2,2.1,10.5,3.2,15.7c1.5,7.3,5.5,12.4,13,14.4C70.4,33.4,73,33.9,75.2,35.4z"/>
		<path class="st2" d="M14.5,70.6c0.3-3.2,0.7-6.4,1-9.6c0.3-4.1,2.4-6.1,6.5-6.2c2.2-0.1,4.4-0.3,6.6-0.4c-1.2,1.4-3,1.5-4.6,1.9
			c-3.9,1.2-6.2,3.5-7,7.6C16.4,66.2,16.4,68.8,14.5,70.6z"/>
		<path class="st4" d="M26.5,52.7c-2.7,0.2-5.2-0.6-7.7-1.3c-1.9-0.5-3-2-3.3-3.8c-0.5-3.7-0.8-7.4-1.2-11.1
			c1.4,0.9,1.5,2.5,1.6,3.8C16.7,46.8,20.1,51.1,26.5,52.7z"/>
		<path class="st4" d="M28,53.2c-0.5-0.2-1-0.4-1.4-0.6C27.1,52.7,27.6,52.8,28,53.2z"/>
	</g>
	<g>
		<path class="st0" d="M822.9,80c-1.6,0.2-1.2-1.2-1.3-1.9c-1.2-5.2-2.3-10.4-3.3-15.7c-1.5-7.7-5.4-13.1-13.2-15.1
			c-2.1-0.6-4.2-1.4-6.3-2.1c-0.8-0.3-1.4-0.7-1.3-1.6c0.1-0.8,0.7-1.1,1.4-1.3c2.3-0.8,4.7-1.6,7-2.3c6.8-1.9,10.5-6.5,12-13.2
			c1.3-5.7,2.4-11.5,3.6-17.2c0.2-0.9,0-2.6,1.9-2c0.3,5,0.7,10,1,15c0.2,3.7,0.6,7.4,1.4,11.1c0.8,3.6,3,6,6.5,6.7
			c5.1,1,10.3,2.1,15.6,2.5c0.7,0.5,0.7,1,0.1,1.5c-5.6,1-11.1,2.2-16.6,3.8c-4.5,1.3-6.5,4.8-6.9,9.1
			C823.9,64.8,823.4,72.4,822.9,80z"/>
		<path class="st1" d="M800.8,60.6c0.8,0.1,0.8,0.5,0.5,1.1c-2.2,0.2-4.4,0.4-6.6,0.4c-4.1,0.1-6.2,2.2-6.5,6.2
			c-0.3,3.2-0.6,6.4-1,9.6c-0.5,0.3-1,0.2-1.2-0.4c-0.2-0.6-0.4-1.3-0.5-2c-0.7-7-3.9-11.8-11.2-13.2c-0.6-0.1-1.5-0.2-1.5-1.1
			c0-0.9,0.8-1.1,1.4-1.2c7.6-1.9,10.9-7.2,11.5-14.6c0.1-0.8-0.1-2.1,1.5-1.7c0.4,3.7,0.7,7.4,1.2,11.1c0.3,1.8,1.4,3.3,3.3,3.8
			c2.5,0.7,5,1.5,7.7,1.3c0,0,0,0,0,0C799.8,60.2,800.3,60.4,800.8,60.6z"/>
		<path class="st2" d="M798.5,8.7c0.6,0.1,0.8,0.6,0.9,1.1c0.4,1.7,1,3.4,1.2,5.2c0.4,2.8,1.8,4.2,4.6,4.6c1.1,0.2,3.1,0,3.1,1.5
			c0,1.2-1.9,1.3-3,1.5c-3.5,0.6-4.5,3-5.1,6.1c-0.3,1.5-0.2,4.1-1.6,4.1c-1.6,0-1.5-2.6-1.6-4c-0.4-3.9-2.6-5.8-6.2-6.6
			c-0.7-0.1-2-0.2-1.9-1.3c0.1-0.9,1.2-0.9,1.9-1c4.2-0.3,5.9-2.7,6.2-6.6c0.1-1.3,0.6-2.5,0.9-3.7C797.9,9.2,798,8.8,798.5,8.7z"/>
		<path class="st3" d="M822.9,80c0.5-7.6,1-15.2,1.6-22.8c0.4-4.3,2.3-7.9,6.9-9.1c5.5-1.5,11-2.8,16.6-3.8c-2.3,1.8-5.1,2.3-7.7,3
			c-7.4,2.2-11.2,7.2-12.7,14.4c-1.1,5.3-2.2,10.6-3.3,15.9C824.1,78.5,824.4,79.9,822.9,80z"/>
		<path class="st4" d="M847.9,42.8c-5.3-0.4-10.4-1.4-15.6-2.5c-3.6-0.7-5.7-3.1-6.5-6.7c-0.8-3.7-1.2-7.4-1.4-11.1
			c-0.3-5-0.7-10-1-15c1,0.5,0.8,1.6,1,2.4c1.1,5.2,2.1,10.5,3.2,15.7c1.5,7.3,5.5,12.4,13,14.4C843.1,40.8,845.7,41.3,847.9,42.8z"
			/>
		<path class="st2" d="M787.2,78c0.3-3.2,0.7-6.4,1-9.6c0.3-4.1,2.4-6.1,6.5-6.2c2.2-0.1,4.4-0.3,6.6-0.4c-1.2,1.4-3,1.5-4.6,1.9
			c-3.9,1.2-6.2,3.5-7,7.6C789.2,73.5,789.2,76.2,787.2,78z"/>
		<path class="st4" d="M799.3,60.1c-2.7,0.2-5.2-0.6-7.7-1.3c-1.9-0.5-3-2-3.3-3.8c-0.5-3.7-0.8-7.4-1.2-11.1
			c1.4,0.9,1.5,2.5,1.6,3.8C789.5,54.2,792.8,58.5,799.3,60.1z"/>
		<path class="st4" d="M800.8,60.6c-0.5-0.2-1-0.4-1.4-0.6C799.9,60.1,800.4,60.1,800.8,60.6z"/>
	</g>
</g>
</svg>
